# litt worldgen asset - generated by math only
# kit: template/tools/worldgen/
mtllib r03-desert-dunes__materials.mtl
o loot_gem
v 0 1.15 0
v 0 0.8 0.35
v 0.35 0.8 0
v 0 0.45 0
v 0.35 0.8 0
v 0 0.8 0.35
v 0 1.15 0
v -0.35 0.8 0
v 0 0.8 0.35
v 0 0.45 0
v 0 0.8 0.35
v -0.35 0.8 0
v 0 1.15 0
v 0 0.8 -0.35
v -0.35 0.8 0
v 0 0.45 0
v -0.35 0.8 0
v 0 0.8 -0.35
v 0 1.15 0
v 0.35 0.8 0
v 0 0.8 -0.35
v 0 0.45 0
v 0 0.8 -0.35
v 0.35 0.8 0
vn 0.5774 0.5774 0.5774
vn 0.5774 -0.5774 0.5774
vn -0.5774 0.5774 0.5774
vn -0.5774 -0.5774 0.5774
vn -0.5774 0.5774 -0.5774
vn -0.5774 -0.5774 -0.5774
vn 0.5774 0.5774 -0.5774
vn 0.5774 -0.5774 -0.5774
g gem
usemtl accent
f 1//1 2//1 3//1
f 4//2 5//2 6//2
f 7//3 8//3 9//3
f 10//4 11//4 12//4
f 13//5 14//5 15//5
f 16//6 17//6 18//6
f 19//7 20//7 21//7
f 22//8 23//8 24//8
