# litt worldgen asset - generated by math only
# kit: template/tools/worldgen/
mtllib r03-desert-dunes__materials.mtl
o banner
v 0.09 0 -0.1184
v 0.07 4.6 -0.1184
v 0.0495 4.6 -0.0689
v 0.09 0 -0.1184
v 0.0495 4.6 -0.0689
v 0.0636 0 -0.0548
v 0 4.6 -0.1184
v 0.0495 4.6 -0.0689
v 0.07 4.6 -0.1184
v 0 0 -0.1184
v 0.09 0 -0.1184
v 0.0636 0 -0.0548
v 0.0636 0 -0.0548
v 0.0495 4.6 -0.0689
v 0 4.6 -0.0484
v 0.0636 0 -0.0548
v 0 4.6 -0.0484
v 0 0 -0.0284
v 0 4.6 -0.1184
v 0 4.6 -0.0484
v 0.0495 4.6 -0.0689
v 0 0 -0.1184
v 0.0636 0 -0.0548
v 0 0 -0.0284
v 0 0 -0.0284
v 0 4.6 -0.0484
v -0.0495 4.6 -0.0689
v 0 0 -0.0284
v -0.0495 4.6 -0.0689
v -0.0636 0 -0.0548
v 0 4.6 -0.1184
v -0.0495 4.6 -0.0689
v 0 4.6 -0.0484
v 0 0 -0.1184
v 0 0 -0.0284
v -0.0636 0 -0.0548
v -0.0636 0 -0.0548
v -0.0495 4.6 -0.0689
v -0.07 4.6 -0.1184
v -0.0636 0 -0.0548
v -0.07 4.6 -0.1184
v -0.09 0 -0.1184
v 0 4.6 -0.1184
v -0.07 4.6 -0.1184
v -0.0495 4.6 -0.0689
v 0 0 -0.1184
v -0.0636 0 -0.0548
v -0.09 0 -0.1184
v -0.09 0 -0.1184
v -0.07 4.6 -0.1184
v -0.0495 4.6 -0.1679
v -0.09 0 -0.1184
v -0.0495 4.6 -0.1679
v -0.0636 0 -0.1821
v 0 4.6 -0.1184
v -0.0495 4.6 -0.1679
v -0.07 4.6 -0.1184
v 0 0 -0.1184
v -0.09 0 -0.1184
v -0.0636 0 -0.1821
v -0.0636 0 -0.1821
v -0.0495 4.6 -0.1679
v -0 4.6 -0.1884
v -0.0636 0 -0.1821
v -0 4.6 -0.1884
v -0 0 -0.2084
v 0 4.6 -0.1184
v -0 4.6 -0.1884
v -0.0495 4.6 -0.1679
v 0 0 -0.1184
v -0.0636 0 -0.1821
v -0 0 -0.2084
v -0 0 -0.2084
v -0 4.6 -0.1884
v 0.0495 4.6 -0.1679
v -0 0 -0.2084
v 0.0495 4.6 -0.1679
v 0.0636 0 -0.1821
v 0 4.6 -0.1184
v 0.0495 4.6 -0.1679
v -0 4.6 -0.1884
v 0 0 -0.1184
v -0 0 -0.2084
v 0.0636 0 -0.1821
v 0.0636 0 -0.1821
v 0.0495 4.6 -0.1679
v 0.07 4.6 -0.1184
v 0.0636 0 -0.1821
v 0.07 4.6 -0.1184
v 0.09 0 -0.1184
v 0 4.6 -0.1184
v 0.07 4.6 -0.1184
v 0.0495 4.6 -0.1679
v 0 0 -0.1184
v 0.0636 0 -0.1821
v 0.09 0 -0.1184
v -0.06 3.3 -0.0684
v -0.06 3.3 1.3316
v 0 4.4 1.3316
v -0.06 3.3 -0.0684
v 0 4.4 1.3316
v 0 4.4 -0.0684
v 0.06 3.3 1.3316
v 0.06 3.3 -0.0684
v 0 4.4 -0.0684
v 0.06 3.3 1.3316
v 0 4.4 -0.0684
v 0 4.4 1.3316
v 0.06 3.3 1.3316
v 0 4.4 1.3316
v -0.06 3.3 1.3316
v -0.06 3.3 -0.0684
v 0 4.4 -0.0684
v 0.06 3.3 -0.0684
vn 0.9239 0.004 0.3827
vn 0.9239 0.004 0.3827
vn 0 1 0
vn 0 -1 0
vn 0.3827 0.004 0.9239
vn 0.3827 0.004 0.9239
vn 0 1 0
vn 0 -1 0
vn -0.3827 0.004 0.9239
vn -0.3827 0.004 0.9239
vn 0 1 -0
vn 0 -1 0
vn -0.9239 0.004 0.3827
vn -0.9239 0.004 0.3827
vn 0 1 0
vn 0 -1 0
vn -0.9239 0.004 -0.3827
vn -0.9239 0.004 -0.3827
vn 0 1 0
vn -0 -1 0
vn -0.3827 0.004 -0.9239
vn -0.3827 0.004 -0.9239
vn 0 1 0
vn 0 -1 0
vn 0.3827 0.004 -0.9239
vn 0.3827 0.004 -0.9239
vn 0 1 0
vn 0 -1 -0
vn 0.9239 0.004 -0.3827
vn 0.9239 0.004 -0.3827
vn -0 1 0
vn 0 -1 0
vn -0.9985 0.0545 0
vn -0.9985 0.0545 0
vn 0.9985 0.0545 0
vn 0.9985 0.0545 0
vn 0 0 1
vn 0 0 -1
g banner_pole
usemtl prop_metal
f 1//1 2//1 3//1
f 4//2 5//2 6//2
f 7//3 8//3 9//3
f 10//4 11//4 12//4
f 13//5 14//5 15//5
f 16//6 17//6 18//6
f 19//7 20//7 21//7
f 22//8 23//8 24//8
f 25//9 26//9 27//9
f 28//10 29//10 30//10
f 31//11 32//11 33//11
f 34//12 35//12 36//12
f 37//13 38//13 39//13
f 40//14 41//14 42//14
f 43//15 44//15 45//15
f 46//16 47//16 48//16
f 49//17 50//17 51//17
f 52//18 53//18 54//18
f 55//19 56//19 57//19
f 58//20 59//20 60//20
f 61//21 62//21 63//21
f 64//22 65//22 66//22
f 67//23 68//23 69//23
f 70//24 71//24 72//24
f 73//25 74//25 75//25
f 76//26 77//26 78//26
f 79//27 80//27 81//27
f 82//28 83//28 84//28
f 85//29 86//29 87//29
f 88//30 89//30 90//30
f 91//31 92//31 93//31
f 94//32 95//32 96//32
g banner_cloth
usemtl prop_blood
f 97//33 98//33 99//33
f 100//34 101//34 102//34
f 103//35 104//35 105//35
f 106//36 107//36 108//36
f 109//37 110//37 111//37
f 112//38 113//38 114//38
