# litt worldgen asset - generated by math only
# kit: template/tools/worldgen/
mtllib materials.mtl
o poi_03
v -20.0344 0.9 15.2824
v -20.2344 2.7 15.2824
v -20.4688 2.7 15.8481
v -20.0344 0.9 15.2824
v -20.4688 2.7 15.8481
v -20.3273 0.9 15.9895
v -21.0344 2.7 15.2824
v -20.4688 2.7 15.8481
v -20.2344 2.7 15.2824
v -21.0344 0.9 15.2824
v -20.0344 0.9 15.2824
v -20.3273 0.9 15.9895
v -20.3273 0.9 15.9895
v -20.4688 2.7 15.8481
v -21.0344 2.7 16.0824
v -20.3273 0.9 15.9895
v -21.0344 2.7 16.0824
v -21.0344 0.9 16.2824
v -21.0344 2.7 15.2824
v -21.0344 2.7 16.0824
v -20.4688 2.7 15.8481
v -21.0344 0.9 15.2824
v -20.3273 0.9 15.9895
v -21.0344 0.9 16.2824
v -21.0344 0.9 16.2824
v -21.0344 2.7 16.0824
v -21.6001 2.7 15.8481
v -21.0344 0.9 16.2824
v -21.6001 2.7 15.8481
v -21.7415 0.9 15.9895
v -21.0344 2.7 15.2824
v -21.6001 2.7 15.8481
v -21.0344 2.7 16.0824
v -21.0344 0.9 15.2824
v -21.0344 0.9 16.2824
v -21.7415 0.9 15.9895
v -21.7415 0.9 15.9895
v -21.6001 2.7 15.8481
v -21.8344 2.7 15.2824
v -21.7415 0.9 15.9895
v -21.8344 2.7 15.2824
v -22.0344 0.9 15.2824
v -21.0344 2.7 15.2824
v -21.8344 2.7 15.2824
v -21.6001 2.7 15.8481
v -21.0344 0.9 15.2824
v -21.7415 0.9 15.9895
v -22.0344 0.9 15.2824
v -22.0344 0.9 15.2824
v -21.8344 2.7 15.2824
v -21.6001 2.7 14.7167
v -22.0344 0.9 15.2824
v -21.6001 2.7 14.7167
v -21.7415 0.9 14.5753
v -21.0344 2.7 15.2824
v -21.6001 2.7 14.7167
v -21.8344 2.7 15.2824
v -21.0344 0.9 15.2824
v -22.0344 0.9 15.2824
v -21.7415 0.9 14.5753
v -21.7415 0.9 14.5753
v -21.6001 2.7 14.7167
v -21.0344 2.7 14.4824
v -21.7415 0.9 14.5753
v -21.0344 2.7 14.4824
v -21.0344 0.9 14.2824
v -21.0344 2.7 15.2824
v -21.0344 2.7 14.4824
v -21.6001 2.7 14.7167
v -21.0344 0.9 15.2824
v -21.7415 0.9 14.5753
v -21.0344 0.9 14.2824
v -21.0344 0.9 14.2824
v -21.0344 2.7 14.4824
v -20.4688 2.7 14.7167
v -21.0344 0.9 14.2824
v -20.4688 2.7 14.7167
v -20.3273 0.9 14.5753
v -21.0344 2.7 15.2824
v -20.4688 2.7 14.7167
v -21.0344 2.7 14.4824
v -21.0344 0.9 15.2824
v -21.0344 0.9 14.2824
v -20.3273 0.9 14.5753
v -20.3273 0.9 14.5753
v -20.4688 2.7 14.7167
v -20.2344 2.7 15.2824
v -20.3273 0.9 14.5753
v -20.2344 2.7 15.2824
v -20.0344 0.9 15.2824
v -21.0344 2.7 15.2824
v -20.2344 2.7 15.2824
v -20.4688 2.7 14.7167
v -21.0344 0.9 15.2824
v -20.3273 0.9 14.5753
v -20.0344 0.9 15.2824
v -21.0344 3 15.2824
v -21.0344 2.3 15.9824
v -20.3344 2.3 15.2824
v -21.0344 1.6 15.2824
v -20.3344 2.3 15.2824
v -21.0344 2.3 15.9824
v -21.0344 3 15.2824
v -21.7344 2.3 15.2824
v -21.0344 2.3 15.9824
v -21.0344 1.6 15.2824
v -21.0344 2.3 15.9824
v -21.7344 2.3 15.2824
v -21.0344 3 15.2824
v -21.0344 2.3 14.5824
v -21.7344 2.3 15.2824
v -21.0344 1.6 15.2824
v -21.7344 2.3 15.2824
v -21.0344 2.3 14.5824
v -21.0344 3 15.2824
v -20.3344 2.3 15.2824
v -21.0344 2.3 14.5824
v -21.0344 1.6 15.2824
v -21.0344 2.3 14.5824
v -20.3344 2.3 15.2824
vn 0.919 0.1021 0.3807
vn 0.919 0.1021 0.3807
vn 0 1 0
vn 0 -1 0
vn 0.3807 0.1021 0.919
vn 0.3807 0.1021 0.919
vn 0 1 0
vn 0 -1 0
vn -0.3807 0.1021 0.919
vn -0.3807 0.1021 0.919
vn 0 1 -0
vn 0 -1 0
vn -0.919 0.1021 0.3807
vn -0.919 0.1021 0.3807
vn 0 1 0
vn 0 -1 0
vn -0.919 0.1021 -0.3807
vn -0.919 0.1021 -0.3807
vn 0 1 0
vn -0 -1 0
vn -0.3807 0.1021 -0.919
vn -0.3807 0.1021 -0.919
vn 0 1 0
vn 0 -1 -0
vn 0.3807 0.1021 -0.919
vn 0.3807 0.1021 -0.919
vn 0 1 0
vn 0 -1 0
vn 0.919 0.1021 -0.3807
vn 0.919 0.1021 -0.3807
vn -0 1 0
vn 0 -1 0
vn 0.5774 0.5774 0.5774
vn 0.5774 -0.5774 0.5774
vn -0.5774 0.5774 0.5774
vn -0.5774 -0.5774 0.5774
vn -0.5774 0.5774 -0.5774
vn -0.5774 -0.5774 -0.5774
vn 0.5774 0.5774 -0.5774
vn 0.5774 -0.5774 -0.5774
g stone
usemtl detail
f 1//1 2//1 3//1
f 4//2 5//2 6//2
f 7//3 8//3 9//3
f 10//4 11//4 12//4
f 13//5 14//5 15//5
f 16//6 17//6 18//6
f 19//7 20//7 21//7
f 22//8 23//8 24//8
f 25//9 26//9 27//9
f 28//10 29//10 30//10
f 31//11 32//11 33//11
f 34//12 35//12 36//12
f 37//13 38//13 39//13
f 40//14 41//14 42//14
f 43//15 44//15 45//15
f 46//16 47//16 48//16
f 49//17 50//17 51//17
f 52//18 53//18 54//18
f 55//19 56//19 57//19
f 58//20 59//20 60//20
f 61//21 62//21 63//21
f 64//22 65//22 66//22
f 67//23 68//23 69//23
f 70//24 71//24 72//24
f 73//25 74//25 75//25
f 76//26 77//26 78//26
f 79//27 80//27 81//27
f 82//28 83//28 84//28
f 85//29 86//29 87//29
f 88//30 89//30 90//30
f 91//31 92//31 93//31
f 94//32 95//32 96//32
g cap
usemtl accent
f 97//33 98//33 99//33
f 100//34 101//34 102//34
f 103//35 104//35 105//35
f 106//36 107//36 108//36
f 109//37 110//37 111//37
f 112//38 113//38 114//38
f 115//39 116//39 117//39
f 118//40 119//40 120//40
