# litt worldgen asset - generated by math only
# kit: template/tools/worldgen/
mtllib materials.mtl
o aggro_small
v 0.7 0 -0.9
v 0.7 0.9 -0.9
v 0.7 0.9 0.9
v 0.7 0 -0.9
v 0.7 0.9 0.9
v 0.7 0 0.9
v -0.7 0 -0.9
v -0.7 0 0.9
v -0.7 0.9 0.9
v -0.7 0 -0.9
v -0.7 0.9 0.9
v -0.7 0.9 -0.9
v 0.7 0.9 0.9
v 0.7 0.9 -0.9
v -0.7 0.9 -0.9
v 0.7 0.9 0.9
v -0.7 0.9 -0.9
v -0.7 0.9 0.9
v 0.7 0 -0.9
v 0.7 0 0.9
v -0.7 0 0.9
v 0.7 0 -0.9
v -0.7 0 0.9
v -0.7 0 -0.9
v 0.7 0 0.9
v 0.7 0.9 0.9
v -0.7 0.9 0.9
v 0.7 0 0.9
v -0.7 0.9 0.9
v -0.7 0 0.9
v 0.7 0 -0.9
v -0.7 0 -0.9
v -0.7 0.9 -0.9
v 0.7 0 -0.9
v -0.7 0.9 -0.9
v 0.7 0.9 -0.9
v -0.45 0.9 -0.65
v 0 1.45 0
v 0.45 0.9 -0.65
v 0.45 0.9 -0.65
v 0 1.45 0
v 0.45 0.9 0.65
v 0.45 0.9 0.65
v 0 1.45 0
v -0.45 0.9 0.65
v -0.45 0.9 0.65
v 0 1.45 0
v -0.45 0.9 -0.65
vn 1 0 0
vn 1 0 0
vn -1 0 0
vn -1 0 0
vn 0 1 0
vn 0 1 0
vn 0 -1 0
vn 0 -1 0
vn 0 -0 1
vn 0 0 1
vn 0 0 -1
vn 0 0 -1
vn 0 0.7634 -0.6459
vn 0.774 0.6332 -0
vn 0 0.7634 0.6459
vn -0.774 0.6332 0
g body
usemtl detail
f 1//1 2//1 3//1
f 4//2 5//2 6//2
f 7//3 8//3 9//3
f 10//4 11//4 12//4
f 13//5 14//5 15//5
f 16//6 17//6 18//6
f 19//7 20//7 21//7
f 22//8 23//8 24//8
f 25//9 26//9 27//9
f 28//10 29//10 30//10
f 31//11 32//11 33//11
f 34//12 35//12 36//12
g crest
usemtl accent
f 37//13 38//13 39//13
f 40//14 41//14 42//14
f 43//15 44//15 45//15
f 46//16 47//16 48//16
