# litt worldgen asset - generated by math only
# kit: template/tools/worldgen/
mtllib materials.mtl
o wraith
v 0.52 0 0
v 0 1.7 0
v 0.3677 0 0.3677
v 0 0 0
v 0.52 0 0
v 0.3677 0 0.3677
v 0.3677 0 0.3677
v 0 1.7 0
v 0 0 0.52
v 0 0 0
v 0.3677 0 0.3677
v 0 0 0.52
v 0 0 0.52
v 0 1.7 0
v -0.3677 0 0.3677
v 0 0 0
v 0 0 0.52
v -0.3677 0 0.3677
v -0.3677 0 0.3677
v 0 1.7 0
v -0.52 0 0
v 0 0 0
v -0.3677 0 0.3677
v -0.52 0 0
v -0.52 0 0
v 0 1.7 0
v -0.3677 0 -0.3677
v 0 0 0
v -0.52 0 0
v -0.3677 0 -0.3677
v -0.3677 0 -0.3677
v 0 1.7 0
v -0 0 -0.52
v 0 0 0
v -0.3677 0 -0.3677
v -0 0 -0.52
v -0 0 -0.52
v 0 1.7 0
v 0.3677 0 -0.3677
v 0 0 0
v -0 0 -0.52
v 0.3677 0 -0.3677
v 0.3677 0 -0.3677
v 0 1.7 0
v 0.52 0 0
v 0 0 0
v 0.3677 0 -0.3677
v 0.52 0 0
v 0 1.75 0
v 0 1.55 0.2
v 0.2 1.55 0
v 0 1.35 0
v 0.2 1.55 0
v 0 1.55 0.2
v 0 1.75 0
v -0.2 1.55 0
v 0 1.55 0.2
v 0 1.35 0
v 0 1.55 0.2
v -0.2 1.55 0
v 0 1.75 0
v 0 1.55 -0.2
v -0.2 1.55 0
v 0 1.35 0
v -0.2 1.55 0
v 0 1.55 -0.2
v 0 1.75 0
v 0.2 1.55 0
v 0 1.55 -0.2
v 0 1.35 0
v 0 1.55 -0.2
v 0.2 1.55 0
vn 0.8891 0.2719 0.3683
vn 0 -1 0
vn 0.3683 0.2719 0.8891
vn 0 -1 0
vn -0.3683 0.2719 0.8891
vn 0 -1 0
vn -0.8891 0.2719 0.3683
vn 0 -1 0
vn -0.8891 0.2719 -0.3683
vn -0 -1 0
vn -0.3683 0.2719 -0.8891
vn 0 -1 0
vn 0.3683 0.2719 -0.8891
vn 0 -1 -0
vn 0.8891 0.2719 -0.3683
vn 0 -1 0
vn 0.5774 0.5774 0.5774
vn 0.5774 -0.5774 0.5774
vn -0.5774 0.5774 0.5774
vn -0.5774 -0.5774 0.5774
vn -0.5774 0.5774 -0.5774
vn -0.5774 -0.5774 -0.5774
vn 0.5774 0.5774 -0.5774
vn 0.5774 -0.5774 -0.5774
g wraith_shroud
usemtl prop_void
f 1//1 2//1 3//1
f 4//2 5//2 6//2
f 7//3 8//3 9//3
f 10//4 11//4 12//4
f 13//5 14//5 15//5
f 16//6 17//6 18//6
f 19//7 20//7 21//7
f 22//8 23//8 24//8
f 25//9 26//9 27//9
f 28//10 29//10 30//10
f 31//11 32//11 33//11
f 34//12 35//12 36//12
f 37//13 38//13 39//13
f 40//14 41//14 42//14
f 43//15 44//15 45//15
f 46//16 47//16 48//16
g wraith_mask
usemtl prop_bone
f 49//17 50//17 51//17
f 52//18 53//18 54//18
f 55//19 56//19 57//19
f 58//20 59//20 60//20
f 61//21 62//21 63//21
f 64//22 65//22 66//22
f 67//23 68//23 69//23
f 70//24 71//24 72//24
