# litt worldgen asset - generated by math only
# kit: template/tools/worldgen/
mtllib materials.mtl
o Coin_05
v 32.1 2.66 0
v 32.1 2.5 0.16
v 32.26 2.5 0
v 32.1 2.34 0
v 32.26 2.5 0
v 32.1 2.5 0.16
v 32.1 2.66 0
v 31.94 2.5 0
v 32.1 2.5 0.16
v 32.1 2.34 0
v 32.1 2.5 0.16
v 31.94 2.5 0
v 32.1 2.66 0
v 32.1 2.5 -0.16
v 31.94 2.5 0
v 32.1 2.34 0
v 31.94 2.5 0
v 32.1 2.5 -0.16
v 32.1 2.66 0
v 32.26 2.5 0
v 32.1 2.5 -0.16
v 32.1 2.34 0
v 32.1 2.5 -0.16
v 32.26 2.5 0
vn 0.5774 0.5774 0.5774
vn 0.5774 -0.5774 0.5774
vn -0.5774 0.5774 0.5774
vn -0.5774 -0.5774 0.5774
vn -0.5774 0.5774 -0.5774
vn -0.5774 -0.5774 -0.5774
vn 0.5774 0.5774 -0.5774
vn 0.5774 -0.5774 -0.5774
g coin
usemtl coin_amber
f 1//1 2//1 3//1
f 4//2 5//2 6//2
f 7//3 8//3 9//3
f 10//4 11//4 12//4
f 13//5 14//5 15//5
f 16//6 17//6 18//6
f 19//7 20//7 21//7
f 22//8 23//8 24//8
