# litt worldgen asset - generated by math only
# kit: template/tools/worldgen/
mtllib materials.mtl
o arch
v -2.15 0 -0.45
v -2.15 3.8 -0.45
v -2.15 3.8 0.45
v -2.15 0 -0.45
v -2.15 3.8 0.45
v -2.15 0 0.45
v -3.05 0 -0.45
v -3.05 0 0.45
v -3.05 3.8 0.45
v -3.05 0 -0.45
v -3.05 3.8 0.45
v -3.05 3.8 -0.45
v -2.15 3.8 0.45
v -2.15 3.8 -0.45
v -3.05 3.8 -0.45
v -2.15 3.8 0.45
v -3.05 3.8 -0.45
v -3.05 3.8 0.45
v -2.15 0 -0.45
v -2.15 0 0.45
v -3.05 0 0.45
v -2.15 0 -0.45
v -3.05 0 0.45
v -3.05 0 -0.45
v -2.15 0 0.45
v -2.15 3.8 0.45
v -3.05 3.8 0.45
v -2.15 0 0.45
v -3.05 3.8 0.45
v -3.05 0 0.45
v -2.15 0 -0.45
v -3.05 0 -0.45
v -3.05 3.8 -0.45
v -2.15 0 -0.45
v -3.05 3.8 -0.45
v -2.15 3.8 -0.45
v 3.05 0 -0.45
v 3.05 3.8 -0.45
v 3.05 3.8 0.45
v 3.05 0 -0.45
v 3.05 3.8 0.45
v 3.05 0 0.45
v 2.15 0 -0.45
v 2.15 0 0.45
v 2.15 3.8 0.45
v 2.15 0 -0.45
v 2.15 3.8 0.45
v 2.15 3.8 -0.45
v 3.05 3.8 0.45
v 3.05 3.8 -0.45
v 2.15 3.8 -0.45
v 3.05 3.8 0.45
v 2.15 3.8 -0.45
v 2.15 3.8 0.45
v 3.05 0 -0.45
v 3.05 0 0.45
v 2.15 0 0.45
v 3.05 0 -0.45
v 2.15 0 0.45
v 2.15 0 -0.45
v 3.05 0 0.45
v 3.05 3.8 0.45
v 2.15 3.8 0.45
v 3.05 0 0.45
v 2.15 3.8 0.45
v 2.15 0 0.45
v 3.05 0 -0.45
v 2.15 0 -0.45
v 2.15 3.8 -0.45
v 3.05 0 -0.45
v 2.15 3.8 -0.45
v 3.05 3.8 -0.45
v 3.05 3.7 -0.5
v 3.05 4.3 -0.5
v 3.05 4.3 0.5
v 3.05 3.7 -0.5
v 3.05 4.3 0.5
v 3.05 3.7 0.5
v -3.05 3.7 -0.5
v -3.05 3.7 0.5
v -3.05 4.3 0.5
v -3.05 3.7 -0.5
v -3.05 4.3 0.5
v -3.05 4.3 -0.5
v 3.05 4.3 0.5
v 3.05 4.3 -0.5
v -3.05 4.3 -0.5
v 3.05 4.3 0.5
v -3.05 4.3 -0.5
v -3.05 4.3 0.5
v 3.05 3.7 -0.5
v 3.05 3.7 0.5
v -3.05 3.7 0.5
v 3.05 3.7 -0.5
v -3.05 3.7 0.5
v -3.05 3.7 -0.5
v 3.05 3.7 0.5
v 3.05 4.3 0.5
v -3.05 4.3 0.5
v 3.05 3.7 0.5
v -3.05 4.3 0.5
v -3.05 3.7 0.5
v 3.05 3.7 -0.5
v -3.05 3.7 -0.5
v -3.05 4.3 -0.5
v 3.05 3.7 -0.5
v -3.05 4.3 -0.5
v 3.05 4.3 -0.5
vt 0 -0.45
vt 3.8 -0.45
vt 3.8 0.45
vt 0 -0.45
vt 3.8 0.45
vt 0 0.45
vt 0 -0.45
vt 0 0.45
vt 3.8 0.45
vt 0 -0.45
vt 3.8 0.45
vt 3.8 -0.45
vt -2.15 0.45
vt -2.15 -0.45
vt -3.05 -0.45
vt -2.15 0.45
vt -3.05 -0.45
vt -3.05 0.45
vt -2.15 -0.45
vt -2.15 0.45
vt -3.05 0.45
vt -2.15 -0.45
vt -3.05 0.45
vt -3.05 -0.45
vt -2.15 0
vt -2.15 3.8
vt -3.05 3.8
vt -2.15 0
vt -3.05 3.8
vt -3.05 0
vt -2.15 0
vt -3.05 0
vt -3.05 3.8
vt -2.15 0
vt -3.05 3.8
vt -2.15 3.8
vt 0 -0.45
vt 3.8 -0.45
vt 3.8 0.45
vt 0 -0.45
vt 3.8 0.45
vt 0 0.45
vt 0 -0.45
vt 0 0.45
vt 3.8 0.45
vt 0 -0.45
vt 3.8 0.45
vt 3.8 -0.45
vt 3.05 0.45
vt 3.05 -0.45
vt 2.15 -0.45
vt 3.05 0.45
vt 2.15 -0.45
vt 2.15 0.45
vt 3.05 -0.45
vt 3.05 0.45
vt 2.15 0.45
vt 3.05 -0.45
vt 2.15 0.45
vt 2.15 -0.45
vt 3.05 0
vt 3.05 3.8
vt 2.15 3.8
vt 3.05 0
vt 2.15 3.8
vt 2.15 0
vt 3.05 0
vt 2.15 0
vt 2.15 3.8
vt 3.05 0
vt 2.15 3.8
vt 3.05 3.8
vt 3.7 -0.5
vt 4.3 -0.5
vt 4.3 0.5
vt 3.7 -0.5
vt 4.3 0.5
vt 3.7 0.5
vt 3.7 -0.5
vt 3.7 0.5
vt 4.3 0.5
vt 3.7 -0.5
vt 4.3 0.5
vt 4.3 -0.5
vt 3.05 0.5
vt 3.05 -0.5
vt -3.05 -0.5
vt 3.05 0.5
vt -3.05 -0.5
vt -3.05 0.5
vt 3.05 -0.5
vt 3.05 0.5
vt -3.05 0.5
vt 3.05 -0.5
vt -3.05 0.5
vt -3.05 -0.5
vt 3.05 3.7
vt 3.05 4.3
vt -3.05 4.3
vt 3.05 3.7
vt -3.05 4.3
vt -3.05 3.7
vt 3.05 3.7
vt -3.05 3.7
vt -3.05 4.3
vt 3.05 3.7
vt -3.05 4.3
vt 3.05 4.3
vn 1 0 0
vn 1 0 0
vn -1 0 0
vn -1 0 0
vn 0 1 0
vn 0 1 0
vn 0 -1 0
vn 0 -1 0
vn 0 -0 1
vn 0 0 1
vn 0 0 -1
vn 0 0 -1
vn 1 0 0
vn 1 0 0
vn -1 0 0
vn -1 0 0
vn 0 1 0
vn 0 1 0
vn 0 -1 0
vn 0 -1 0
vn 0 -0 1
vn 0 0 1
vn 0 0 -1
vn 0 0 -1
vn 1 0 0
vn 1 0 0
vn -1 0 0
vn -1 0 0
vn 0 1 0
vn 0 1 0
vn 0 -1 0
vn 0 -1 0
vn 0 -0 1
vn 0 0 1
vn 0 0 -1
vn 0 0 -1
g stone
usemtl ruin_stone
f 1/1/1 2/2/1 3/3/1
f 4/4/2 5/5/2 6/6/2
f 7/7/3 8/8/3 9/9/3
f 10/10/4 11/11/4 12/12/4
f 13/13/5 14/14/5 15/15/5
f 16/16/6 17/17/6 18/18/6
f 19/19/7 20/20/7 21/21/7
f 22/22/8 23/23/8 24/24/8
f 25/25/9 26/26/9 27/27/9
f 28/28/10 29/29/10 30/30/10
f 31/31/11 32/32/11 33/33/11
f 34/34/12 35/35/12 36/36/12
f 37/37/13 38/38/13 39/39/13
f 40/40/14 41/41/14 42/42/14
f 43/43/15 44/44/15 45/45/15
f 46/46/16 47/47/16 48/48/16
f 49/49/17 50/50/17 51/51/17
f 52/52/18 53/53/18 54/54/18
f 55/55/19 56/56/19 57/57/19
f 58/58/20 59/59/20 60/60/20
f 61/61/21 62/62/21 63/63/21
f 64/64/22 65/65/22 66/66/22
f 67/67/23 68/68/23 69/69/23
f 70/70/24 71/71/24 72/72/24
f 73/73/25 74/74/25 75/75/25
f 76/76/26 77/77/26 78/78/26
f 79/79/27 80/80/27 81/81/27
f 82/82/28 83/83/28 84/84/28
f 85/85/29 86/86/29 87/87/29
f 88/88/30 89/89/30 90/90/30
f 91/91/31 92/92/31 93/93/31
f 94/94/32 95/95/32 96/96/32
f 97/97/33 98/98/33 99/99/33
f 100/100/34 101/101/34 102/102/34
f 103/103/35 104/104/35 105/105/35
f 106/106/36 107/107/36 108/108/36
