# litt worldgen asset - generated by math only
# kit: template/tools/worldgen/
mtllib materials.mtl
o chunk_-1_4
v -16 0.9939 64
v -16 0.9969 65.3333
v -14.6667 0.9916 65.3333
v -16 0.9939 64
v -14.6667 0.9916 65.3333
v -14.6667 0.9911 64
v -14.6667 0.9911 64
v -14.6667 0.9916 65.3333
v -13.3333 0.9861 65.3333
v -14.6667 0.9911 64
v -13.3333 0.9861 65.3333
v -13.3333 0.9897 64
v -13.3333 0.9897 64
v -13.3333 0.9861 65.3333
v -12 0.9859 65.3333
v -13.3333 0.9897 64
v -12 0.9859 65.3333
v -12 0.9877 64
v -12 0.9877 64
v -12 0.9859 65.3333
v -10.6667 0.9718 65.3333
v -12 0.9877 64
v -10.6667 0.9718 65.3333
v -10.6667 0.9634 64
v -10.6667 0.9634 64
v -10.6667 0.9718 65.3333
v -9.3333 0.927 65.3333
v -10.6667 0.9634 64
v -9.3333 0.927 65.3333
v -9.3333 0.9228 64
v -9.3333 0.9228 64
v -9.3333 0.927 65.3333
v -8 0.8727 65.3333
v -9.3333 0.9228 64
v -8 0.8727 65.3333
v -8 0.8723 64
v -8 0.8723 64
v -8 0.8727 65.3333
v -6.6667 0.8084 65.3333
v -8 0.8723 64
v -6.6667 0.8084 65.3333
v -6.6667 0.813 64
v -6.6667 0.813 64
v -6.6667 0.8084 65.3333
v -5.3333 0.7292 65.3333
v -6.6667 0.813 64
v -5.3333 0.7292 65.3333
v -5.3333 0.7348 64
v -5.3333 0.7348 64
v -5.3333 0.7292 65.3333
v -4 0.6157 65.3333
v -16 0.9969 65.3333
v -16 0.9965 66.6667
v -14.6667 0.9923 66.6667
v -16 0.9969 65.3333
v -14.6667 0.9923 66.6667
v -14.6667 0.9916 65.3333
v -14.6667 0.9916 65.3333
v -14.6667 0.9923 66.6667
v -13.3333 0.9877 66.6667
v -14.6667 0.9916 65.3333
v -13.3333 0.9877 66.6667
v -13.3333 0.9861 65.3333
v -13.3333 0.9861 65.3333
v -13.3333 0.9877 66.6667
v -12 0.988 66.6667
v -13.3333 0.9861 65.3333
v -12 0.988 66.6667
v -12 0.9859 65.3333
v -12 0.9859 65.3333
v -12 0.988 66.6667
v -10.6667 0.9739 66.6667
v -12 0.9859 65.3333
v -10.6667 0.9739 66.6667
v -10.6667 0.9718 65.3333
v -10.6667 0.9718 65.3333
v -10.6667 0.9739 66.6667
v -9.3333 0.928 66.6667
v -10.6667 0.9718 65.3333
v -9.3333 0.928 66.6667
v -9.3333 0.927 65.3333
v -9.3333 0.927 65.3333
v -9.3333 0.928 66.6667
v -8 0.8718 66.6667
v -9.3333 0.927 65.3333
v -8 0.8718 66.6667
v -8 0.8727 65.3333
v -8 0.8727 65.3333
v -8 0.8718 66.6667
v -6.6667 0.8062 66.6667
v -8 0.8727 65.3333
v -6.6667 0.8062 66.6667
v -6.6667 0.8084 65.3333
v -6.6667 0.8084 65.3333
v -6.6667 0.8062 66.6667
v -5.3333 0.7267 66.6667
v -6.6667 0.8084 65.3333
v -5.3333 0.7267 66.6667
v -5.3333 0.7292 65.3333
v -5.3333 0.7292 65.3333
v -5.3333 0.7267 66.6667
v -4 0.6131 66.6667
v -16 0.9965 66.6667
v -16 0.9969 68
v -14.6667 0.9931 68
v -16 0.9965 66.6667
v -14.6667 0.9931 68
v -14.6667 0.9923 66.6667
v -14.6667 0.9923 66.6667
v -14.6667 0.9931 68
v -13.3333 0.9893 68
v -14.6667 0.9923 66.6667
v -13.3333 0.9893 68
v -13.3333 0.9877 66.6667
v -13.3333 0.9877 66.6667
v -13.3333 0.9893 68
v -12 0.9899 68
v -13.3333 0.9877 66.6667
v -12 0.9899 68
v -12 0.988 66.6667
v -12 0.988 66.6667
v -12 0.9899 68
v -10.6667 0.9755 68
v -12 0.988 66.6667
v -10.6667 0.9755 68
v -10.6667 0.9739 66.6667
v -10.6667 0.9739 66.6667
v -10.6667 0.9755 68
v -9.3333 0.9287 68
v -10.6667 0.9739 66.6667
v -9.3333 0.9287 68
v -9.3333 0.928 66.6667
v -9.3333 0.928 66.6667
v -9.3333 0.9287 68
v -8 0.8711 68
v -9.3333 0.928 66.6667
v -8 0.8711 68
v -8 0.8718 66.6667
v -8 0.8718 66.6667
v -8 0.8711 68
v -6.6667 0.8045 68
v -8 0.8718 66.6667
v -6.6667 0.8045 68
v -6.6667 0.8062 66.6667
v -6.6667 0.8062 66.6667
v -6.6667 0.8045 68
v -5.3333 0.7248 68
v -6.6667 0.8062 66.6667
v -5.3333 0.7248 68
v -5.3333 0.7267 66.6667
v -5.3333 0.7267 66.6667
v -5.3333 0.7248 68
v -4 0.6111 68
v -16 0.9969 68
v -16 0.9982 69.3333
v -14.6667 0.9941 69.3333
v -16 0.9969 68
v -14.6667 0.9941 69.3333
v -14.6667 0.9931 68
v -14.6667 0.9931 68
v -14.6667 0.9941 69.3333
v -13.3333 0.9903 69.3333
v -14.6667 0.9931 68
v -13.3333 0.9903 69.3333
v -13.3333 0.9893 68
v -13.3333 0.9893 68
v -13.3333 0.9903 69.3333
v -12 0.991 69.3333
v -13.3333 0.9893 68
v -12 0.991 69.3333
v -12 0.9899 68
v -12 0.9899 68
v -12 0.991 69.3333
v -10.6667 0.9764 69.3333
v -12 0.9899 68
v -10.6667 0.9764 69.3333
v -10.6667 0.9755 68
v -10.6667 0.9755 68
v -10.6667 0.9764 69.3333
v -9.3333 0.9293 69.3333
v -10.6667 0.9755 68
v -9.3333 0.9293 69.3333
v -9.3333 0.9287 68
v -9.3333 0.9287 68
v -9.3333 0.9293 69.3333
v -8 0.8713 69.3333
v -9.3333 0.9287 68
v -8 0.8713 69.3333
v -8 0.8711 68
v -8 0.8711 68
v -8 0.8713 69.3333
v -6.6667 0.8045 69.3333
v -8 0.8711 68
v -6.6667 0.8045 69.3333
v -6.6667 0.8045 68
v -6.6667 0.8045 68
v -6.6667 0.8045 69.3333
v -5.3333 0.7245 69.3333
v -6.6667 0.8045 68
v -5.3333 0.7245 69.3333
v -5.3333 0.7248 68
v -5.3333 0.7248 68
v -5.3333 0.7245 69.3333
v -4 0.6106 69.3333
v -16 0.9982 69.3333
v -16 0.9987 70.6667
v -14.6667 0.9949 70.6667
v -16 0.9982 69.3333
v -14.6667 0.9949 70.6667
v -14.6667 0.9941 69.3333
v -14.6667 0.9941 69.3333
v -14.6667 0.9949 70.6667
v -13.3333 0.9914 70.6667
v -14.6667 0.9941 69.3333
v -13.3333 0.9914 70.6667
v -13.3333 0.9903 69.3333
v -13.3333 0.9903 69.3333
v -13.3333 0.9914 70.6667
v -12 0.992 70.6667
v -13.3333 0.9903 69.3333
v -12 0.992 70.6667
v -12 0.991 69.3333
v -12 0.991 69.3333
v -12 0.992 70.6667
v -10.6667 0.977 70.6667
v -12 0.991 69.3333
v -10.6667 0.977 70.6667
v -10.6667 0.9764 69.3333
v -10.6667 0.9764 69.3333
v -10.6667 0.977 70.6667
v -9.3333 0.9301 70.6667
v -10.6667 0.9764 69.3333
v -9.3333 0.9301 70.6667
v -9.3333 0.9293 69.3333
v -9.3333 0.9293 69.3333
v -9.3333 0.9301 70.6667
v -8 0.8718 70.6667
v -9.3333 0.9293 69.3333
v -8 0.8718 70.6667
v -8 0.8713 69.3333
v -8 0.8713 69.3333
v -8 0.8718 70.6667
v -6.6667 0.8055 70.6667
v -8 0.8713 69.3333
v -6.6667 0.8055 70.6667
v -6.6667 0.8045 69.3333
v -6.6667 0.8045 69.3333
v -6.6667 0.8055 70.6667
v -5.3333 0.7252 70.6667
v -6.6667 0.8045 69.3333
v -5.3333 0.7252 70.6667
v -5.3333 0.7245 69.3333
v -5.3333 0.7245 69.3333
v -5.3333 0.7252 70.6667
v -4 0.6111 70.6667
v -16 0.9987 70.6667
v -16 0.9982 72
v -14.6667 0.9945 72
v -16 0.9987 70.6667
v -14.6667 0.9945 72
v -14.6667 0.9949 70.6667
v -14.6667 0.9949 70.6667
v -14.6667 0.9945 72
v -13.3333 0.9922 72
v -14.6667 0.9949 70.6667
v -13.3333 0.9922 72
v -13.3333 0.9914 70.6667
v -13.3333 0.9914 70.6667
v -13.3333 0.9922 72
v -12 0.9935 72
v -13.3333 0.9914 70.6667
v -12 0.9935 72
v -12 0.992 70.6667
v -12 0.992 70.6667
v -12 0.9935 72
v -10.6667 0.9773 72
v -12 0.992 70.6667
v -10.6667 0.9773 72
v -10.6667 0.977 70.6667
v -10.6667 0.977 70.6667
v -10.6667 0.9773 72
v -9.3333 0.9321 72
v -10.6667 0.977 70.6667
v -9.3333 0.9321 72
v -9.3333 0.9301 70.6667
v -9.3333 0.9301 70.6667
v -9.3333 0.9321 72
v -8 0.8714 72
v -9.3333 0.9301 70.6667
v -8 0.8714 72
v -8 0.8718 70.6667
v -8 0.8718 70.6667
v -8 0.8714 72
v -6.6667 0.8061 72
v -8 0.8718 70.6667
v -6.6667 0.8061 72
v -6.6667 0.8055 70.6667
v -6.6667 0.8055 70.6667
v -6.6667 0.8061 72
v -5.3333 0.7243 72
v -6.6667 0.8055 70.6667
v -5.3333 0.7243 72
v -5.3333 0.7252 70.6667
v -5.3333 0.7252 70.6667
v -5.3333 0.7243 72
v -4 0.6103 72
v -16 0.9982 72
v -16 0.9996 73.3333
v -14.6667 0.9946 73.3333
v -16 0.9982 72
v -14.6667 0.9946 73.3333
v -14.6667 0.9945 72
v -14.6667 0.9945 72
v -14.6667 0.9946 73.3333
v -13.3333 0.9918 73.3333
v -14.6667 0.9945 72
v -13.3333 0.9918 73.3333
v -13.3333 0.9922 72
v -13.3333 0.9922 72
v -13.3333 0.9918 73.3333
v -12 0.9932 73.3333
v -13.3333 0.9922 72
v -12 0.9932 73.3333
v -12 0.9935 72
v -12 0.9935 72
v -12 0.9932 73.3333
v -10.6667 0.9774 73.3333
v -12 0.9935 72
v -10.6667 0.9774 73.3333
v -10.6667 0.9773 72
v -10.6667 0.9773 72
v -10.6667 0.9774 73.3333
v -9.3333 0.9319 73.3333
v -10.6667 0.9773 72
v -9.3333 0.9319 73.3333
v -9.3333 0.9321 72
v -9.3333 0.9321 72
v -9.3333 0.9319 73.3333
v -8 0.871 73.3333
v -9.3333 0.9321 72
v -8 0.871 73.3333
v -8 0.8714 72
v -8 0.8714 72
v -8 0.871 73.3333
v -6.6667 0.8057 73.3333
v -8 0.8714 72
v -6.6667 0.8057 73.3333
v -6.6667 0.8061 72
v -6.6667 0.8061 72
v -6.6667 0.8057 73.3333
v -5.3333 0.7238 73.3333
v -6.6667 0.8061 72
v -5.3333 0.7238 73.3333
v -5.3333 0.7243 72
v -5.3333 0.7243 72
v -5.3333 0.7238 73.3333
v -4 0.61 73.3333
v -16 0.9996 73.3333
v -16 0.9995 74.6667
v -14.6667 0.9948 74.6667
v -16 0.9996 73.3333
v -14.6667 0.9948 74.6667
v -14.6667 0.9946 73.3333
v -14.6667 0.9946 73.3333
v -14.6667 0.9948 74.6667
v -13.3333 0.9924 74.6667
v -14.6667 0.9946 73.3333
v -13.3333 0.9924 74.6667
v -13.3333 0.9918 73.3333
v -13.3333 0.9918 73.3333
v -13.3333 0.9924 74.6667
v -12 0.9937 74.6667
v -13.3333 0.9918 73.3333
v -12 0.9937 74.6667
v -12 0.9932 73.3333
v -12 0.9932 73.3333
v -12 0.9937 74.6667
v -10.6667 0.9773 74.6667
v -12 0.9932 73.3333
v -10.6667 0.9773 74.6667
v -10.6667 0.9774 73.3333
v -10.6667 0.9774 73.3333
v -10.6667 0.9773 74.6667
v -9.3333 0.9318 74.6667
v -10.6667 0.9774 73.3333
v -9.3333 0.9318 74.6667
v -9.3333 0.9319 73.3333
v -9.3333 0.9319 73.3333
v -9.3333 0.9318 74.6667
v -8 0.8707 74.6667
v -9.3333 0.9319 73.3333
v -8 0.8707 74.6667
v -8 0.871 73.3333
v -8 0.871 73.3333
v -8 0.8707 74.6667
v -6.6667 0.8055 74.6667
v -8 0.871 73.3333
v -6.6667 0.8055 74.6667
v -6.6667 0.8057 73.3333
v -6.6667 0.8057 73.3333
v -6.6667 0.8055 74.6667
v -5.3333 0.7235 74.6667
v -6.6667 0.8057 73.3333
v -5.3333 0.7235 74.6667
v -5.3333 0.7238 73.3333
v -5.3333 0.7238 73.3333
v -5.3333 0.7235 74.6667
v -4 0.6094 74.6667
v -16 0.9995 74.6667
v -16 0.999 76
v -14.6667 0.9967 76
v -16 0.9995 74.6667
v -14.6667 0.9967 76
v -14.6667 0.9948 74.6667
v -14.6667 0.9948 74.6667
v -14.6667 0.9967 76
v -13.3333 0.9953 76
v -14.6667 0.9948 74.6667
v -13.3333 0.9953 76
v -13.3333 0.9924 74.6667
v -13.3333 0.9924 74.6667
v -13.3333 0.9953 76
v -12 0.9954 76
v -13.3333 0.9924 74.6667
v -12 0.9954 76
v -12 0.9937 74.6667
v -12 0.9937 74.6667
v -12 0.9954 76
v -10.6667 0.977 76
v -12 0.9937 74.6667
v -10.6667 0.977 76
v -10.6667 0.9773 74.6667
v -10.6667 0.9773 74.6667
v -10.6667 0.977 76
v -9.3333 0.9297 76
v -10.6667 0.9773 74.6667
v -9.3333 0.9297 76
v -9.3333 0.9318 74.6667
v -9.3333 0.9318 74.6667
v -9.3333 0.9297 76
v -8 0.8739 76
v -9.3333 0.9318 74.6667
v -8 0.8739 76
v -8 0.8707 74.6667
v -8 0.8707 74.6667
v -8 0.8739 76
v -6.6667 0.8069 76
v -8 0.8707 74.6667
v -6.6667 0.8069 76
v -6.6667 0.8055 74.6667
v -6.6667 0.8055 74.6667
v -6.6667 0.8069 76
v -5.3333 0.7231 76
v -6.6667 0.8055 74.6667
v -5.3333 0.7231 76
v -5.3333 0.7235 74.6667
v -5.3333 0.7235 74.6667
v -5.3333 0.7231 76
v -4 0.6069 76
v -16 0.999 76
v -16 0.9999 77.3333
v -14.6667 0.9995 77.3333
v -16 0.999 76
v -14.6667 0.9995 77.3333
v -14.6667 0.9967 76
v -14.6667 0.9967 76
v -14.6667 0.9995 77.3333
v -13.3333 0.9992 77.3333
v -14.6667 0.9967 76
v -13.3333 0.9992 77.3333
v -13.3333 0.9953 76
v -13.3333 0.9953 76
v -13.3333 0.9992 77.3333
v -12 0.9988 77.3333
v -13.3333 0.9953 76
v -12 0.9988 77.3333
v -12 0.9954 76
v -12 0.9954 76
v -12 0.9988 77.3333
v -10.6667 0.9779 77.3333
v -12 0.9954 76
v -10.6667 0.9779 77.3333
v -10.6667 0.977 76
v -10.6667 0.977 76
v -10.6667 0.9779 77.3333
v -9.3333 0.9287 77.3333
v -10.6667 0.977 76
v -9.3333 0.9287 77.3333
v -9.3333 0.9297 76
v -9.3333 0.9297 76
v -9.3333 0.9287 77.3333
v -8 0.8762 77.3333
v -9.3333 0.9297 76
v -8 0.8762 77.3333
v -8 0.8739 76
v -8 0.8739 76
v -8 0.8762 77.3333
v -6.6667 0.8098 77.3333
v -8 0.8739 76
v -6.6667 0.8098 77.3333
v -6.6667 0.8069 76
v -6.6667 0.8069 76
v -6.6667 0.8098 77.3333
v -5.3333 0.7246 77.3333
v -6.6667 0.8069 76
v -5.3333 0.7246 77.3333
v -5.3333 0.7231 76
v -5.3333 0.7231 76
v -5.3333 0.7246 77.3333
v -4 0.6053 77.3333
v -16 0.9999 77.3333
v -16 1.0021 78.6667
v -14.6667 1.0027 78.6667
v -16 0.9999 77.3333
v -14.6667 1.0027 78.6667
v -14.6667 0.9995 77.3333
v -14.6667 0.9995 77.3333
v -14.6667 1.0027 78.6667
v -13.3333 1.0033 78.6667
v -14.6667 0.9995 77.3333
v -13.3333 1.0033 78.6667
v -13.3333 0.9992 77.3333
v -13.3333 0.9992 77.3333
v -13.3333 1.0033 78.6667
v -12 1.0029 78.6667
v -13.3333 0.9992 77.3333
v -12 1.0029 78.6667
v -12 0.9988 77.3333
v -12 0.9988 77.3333
v -12 1.0029 78.6667
v -10.6667 0.9812 78.6667
v -12 0.9988 77.3333
v -10.6667 0.9812 78.6667
v -10.6667 0.9779 77.3333
v -10.6667 0.9779 77.3333
v -10.6667 0.9812 78.6667
v -9.3333 0.9313 78.6667
v -10.6667 0.9779 77.3333
v -9.3333 0.9313 78.6667
v -9.3333 0.9287 77.3333
v -9.3333 0.9287 77.3333
v -9.3333 0.9313 78.6667
v -8 0.8787 78.6667
v -9.3333 0.9287 77.3333
v -8 0.8787 78.6667
v -8 0.8762 77.3333
v -8 0.8762 77.3333
v -8 0.8787 78.6667
v -6.6667 0.8127 78.6667
v -8 0.8762 77.3333
v -6.6667 0.8127 78.6667
v -6.6667 0.8098 77.3333
v -6.6667 0.8098 77.3333
v -6.6667 0.8127 78.6667
v -5.3333 0.7268 78.6667
v -6.6667 0.8098 77.3333
v -5.3333 0.7268 78.6667
v -5.3333 0.7246 77.3333
v -5.3333 0.7246 77.3333
v -5.3333 0.7268 78.6667
v -4 0.6059 78.6667
v -16 1.0021 78.6667
v -16 1.005 80
v -14.6667 1.0061 80
v -16 1.0021 78.6667
v -14.6667 1.0061 80
v -14.6667 1.0027 78.6667
v -14.6667 1.0027 78.6667
v -14.6667 1.0061 80
v -13.3333 1.0074 80
v -14.6667 1.0027 78.6667
v -13.3333 1.0074 80
v -13.3333 1.0033 78.6667
v -13.3333 1.0033 78.6667
v -13.3333 1.0074 80
v -12 1.0074 80
v -13.3333 1.0033 78.6667
v -12 1.0074 80
v -12 1.0029 78.6667
v -12 1.0029 78.6667
v -12 1.0074 80
v -10.6667 0.9856 80
v -12 1.0029 78.6667
v -10.6667 0.9856 80
v -10.6667 0.9812 78.6667
v -10.6667 0.9812 78.6667
v -10.6667 0.9856 80
v -9.3333 0.9353 80
v -10.6667 0.9812 78.6667
v -9.3333 0.9353 80
v -9.3333 0.9313 78.6667
v -9.3333 0.9313 78.6667
v -9.3333 0.9353 80
v -8 0.8819 80
v -9.3333 0.9313 78.6667
v -8 0.8819 80
v -8 0.8787 78.6667
v -8 0.8787 78.6667
v -8 0.8819 80
v -6.6667 0.8154 80
v -8 0.8787 78.6667
v -6.6667 0.8154 80
v -6.6667 0.8127 78.6667
v -6.6667 0.8127 78.6667
v -6.6667 0.8154 80
v -5.3333 0.7288 80
v -6.6667 0.8127 78.6667
v -5.3333 0.7288 80
v -5.3333 0.7268 78.6667
v -5.3333 0.7268 78.6667
v -5.3333 0.7288 80
v -4 0.6069 80
v -5.3333 0.7348 64
v -4 0.6157 65.3333
v -4 0.6184 64
v -4 0.6184 64
v -4 0.6157 65.3333
v -2.6667 0.4866 65.3333
v -4 0.6184 64
v -2.6667 0.4866 65.3333
v -2.6667 0.4896 64
v -2.6667 0.4896 64
v -2.6667 0.4866 65.3333
v -1.3333 0.3316 65.3333
v -2.6667 0.4896 64
v -1.3333 0.3316 65.3333
v -1.3333 0.3379 64
v -5.3333 0.7292 65.3333
v -4 0.6131 66.6667
v -4 0.6157 65.3333
v -4 0.6157 65.3333
v -4 0.6131 66.6667
v -2.6667 0.4837 66.6667
v -4 0.6157 65.3333
v -2.6667 0.4837 66.6667
v -2.6667 0.4866 65.3333
v -2.6667 0.4866 65.3333
v -2.6667 0.4837 66.6667
v -1.3333 0.3289 66.6667
v -2.6667 0.4866 65.3333
v -1.3333 0.3289 66.6667
v -1.3333 0.3316 65.3333
v -5.3333 0.7267 66.6667
v -4 0.6111 68
v -4 0.6131 66.6667
v -4 0.6131 66.6667
v -4 0.6111 68
v -2.6667 0.4817 68
v -4 0.6131 66.6667
v -2.6667 0.4817 68
v -2.6667 0.4837 66.6667
v -2.6667 0.4837 66.6667
v -2.6667 0.4817 68
v -1.3333 0.3273 68
v -2.6667 0.4837 66.6667
v -1.3333 0.3273 68
v -1.3333 0.3289 66.6667
v -5.3333 0.7248 68
v -4 0.6106 69.3333
v -4 0.6111 68
v -4 0.6111 68
v -4 0.6106 69.3333
v -2.6667 0.481 69.3333
v -4 0.6111 68
v -2.6667 0.481 69.3333
v -2.6667 0.4817 68
v -2.6667 0.4817 68
v -2.6667 0.481 69.3333
v -1.3333 0.3263 69.3333
v -2.6667 0.4817 68
v -1.3333 0.3263 69.3333
v -1.3333 0.3273 68
v -5.3333 0.7245 69.3333
v -4 0.6111 70.6667
v -4 0.6106 69.3333
v -4 0.6106 69.3333
v -4 0.6111 70.6667
v -2.6667 0.4812 70.6667
v -4 0.6106 69.3333
v -2.6667 0.4812 70.6667
v -2.6667 0.481 69.3333
v -2.6667 0.481 69.3333
v -2.6667 0.4812 70.6667
v -1.3333 0.3247 70.6667
v -2.6667 0.481 69.3333
v -1.3333 0.3247 70.6667
v -1.3333 0.3263 69.3333
v -5.3333 0.7252 70.6667
v -4 0.6103 72
v -4 0.6111 70.6667
v -4 0.6111 70.6667
v -4 0.6103 72
v -2.6667 0.4814 72
v -4 0.6111 70.6667
v -2.6667 0.4814 72
v -2.6667 0.4812 70.6667
v -2.6667 0.4812 70.6667
v -2.6667 0.4814 72
v -1.3333 0.3223 72
v -2.6667 0.4812 70.6667
v -1.3333 0.3223 72
v -1.3333 0.3247 70.6667
v -5.3333 0.7243 72
v -4 0.61 73.3333
v -4 0.6103 72
v -4 0.6103 72
v -4 0.61 73.3333
v -2.6667 0.4814 73.3333
v -4 0.6103 72
v -2.6667 0.4814 73.3333
v -2.6667 0.4814 72
v -2.6667 0.4814 72
v -2.6667 0.4814 73.3333
v -1.3333 0.3226 73.3333
v -2.6667 0.4814 72
v -1.3333 0.3226 73.3333
v -1.3333 0.3223 72
v -5.3333 0.7238 73.3333
v -4 0.6094 74.6667
v -4 0.61 73.3333
v -4 0.61 73.3333
v -4 0.6094 74.6667
v -2.6667 0.4805 74.6667
v -4 0.61 73.3333
v -2.6667 0.4805 74.6667
v -2.6667 0.4814 73.3333
v -2.6667 0.4814 73.3333
v -2.6667 0.4805 74.6667
v -1.3333 0.3222 74.6667
v -2.6667 0.4814 73.3333
v -1.3333 0.3222 74.6667
v -1.3333 0.3226 73.3333
v -5.3333 0.7235 74.6667
v -4 0.6069 76
v -4 0.6094 74.6667
v -4 0.6094 74.6667
v -4 0.6069 76
v -2.6667 0.4778 76
v -4 0.6094 74.6667
v -2.6667 0.4778 76
v -2.6667 0.4805 74.6667
v -2.6667 0.4805 74.6667
v -2.6667 0.4778 76
v -1.3333 0.3237 76
v -2.6667 0.4805 74.6667
v -1.3333 0.3237 76
v -1.3333 0.3222 74.6667
v -5.3333 0.7231 76
v -4 0.6053 77.3333
v -4 0.6069 76
v -4 0.6069 76
v -4 0.6053 77.3333
v -2.6667 0.4749 77.3333
v -4 0.6069 76
v -2.6667 0.4749 77.3333
v -2.6667 0.4778 76
v -2.6667 0.4778 76
v -2.6667 0.4749 77.3333
v -1.3333 0.3222 77.3333
v -2.6667 0.4778 76
v -1.3333 0.3222 77.3333
v -1.3333 0.3237 76
v -5.3333 0.7246 77.3333
v -4 0.6059 78.6667
v -4 0.6053 77.3333
v -4 0.6053 77.3333
v -4 0.6059 78.6667
v -2.6667 0.4742 78.6667
v -4 0.6053 77.3333
v -2.6667 0.4742 78.6667
v -2.6667 0.4749 77.3333
v -2.6667 0.4749 77.3333
v -2.6667 0.4742 78.6667
v -1.3333 0.3207 78.6667
v -2.6667 0.4749 77.3333
v -1.3333 0.3207 78.6667
v -1.3333 0.3222 77.3333
v -5.3333 0.7268 78.6667
v -4 0.6069 80
v -4 0.6059 78.6667
v -4 0.6059 78.6667
v -4 0.6069 80
v -2.6667 0.4742 80
v -4 0.6059 78.6667
v -2.6667 0.4742 80
v -2.6667 0.4742 78.6667
v -2.6667 0.4742 78.6667
v -2.6667 0.4742 80
v -1.3333 0.3202 80
v -2.6667 0.4742 78.6667
v -1.3333 0.3202 80
v -1.3333 0.3207 78.6667
v -1.3333 0.3379 64
v -1.3333 0.3316 65.3333
v 0 0.195 65.3333
v -1.3333 0.3379 64
v 0 0.195 65.3333
v 0 0.1896 64
v -1.3333 0.3316 65.3333
v -1.3333 0.3289 66.6667
v 0 0.1939 66.6667
v -1.3333 0.3316 65.3333
v 0 0.1939 66.6667
v 0 0.195 65.3333
v -1.3333 0.3289 66.6667
v -1.3333 0.3273 68
v 0 0.1918 68
v -1.3333 0.3289 66.6667
v 0 0.1918 68
v 0 0.1939 66.6667
v -1.3333 0.3273 68
v -1.3333 0.3263 69.3333
v 0 0.1899 69.3333
v -1.3333 0.3273 68
v 0 0.1899 69.3333
v 0 0.1918 68
v -1.3333 0.3263 69.3333
v -1.3333 0.3247 70.6667
v 0 0.1879 70.6667
v -1.3333 0.3263 69.3333
v 0 0.1879 70.6667
v 0 0.1899 69.3333
v -1.3333 0.3247 70.6667
v -1.3333 0.3223 72
v 0 0.1862 72
v -1.3333 0.3247 70.6667
v 0 0.1862 72
v 0 0.1879 70.6667
v -1.3333 0.3223 72
v -1.3333 0.3226 73.3333
v 0 0.1851 73.3333
v -1.3333 0.3223 72
v 0 0.1851 73.3333
v 0 0.1862 72
v -1.3333 0.3226 73.3333
v -1.3333 0.3222 74.6667
v 0 0.1854 74.6667
v -1.3333 0.3226 73.3333
v 0 0.1854 74.6667
v 0 0.1851 73.3333
v -1.3333 0.3222 74.6667
v -1.3333 0.3237 76
v 0 0.184 76
v -1.3333 0.3222 74.6667
v 0 0.184 76
v 0 0.1854 74.6667
v -1.3333 0.3237 76
v -1.3333 0.3222 77.3333
v 0 0.1815 77.3333
v -1.3333 0.3237 76
v 0 0.1815 77.3333
v 0 0.184 76
v -1.3333 0.3222 77.3333
v -1.3333 0.3207 78.6667
v 0 0.1796 78.6667
v -1.3333 0.3222 77.3333
v 0 0.1796 78.6667
v 0 0.1815 77.3333
v -1.3333 0.3207 78.6667
v -1.3333 0.3202 80
v 0 0.1778 80
v -1.3333 0.3207 78.6667
v 0 0.1778 80
v 0 0.1796 78.6667
vn 0.004 1 -0.0023
vn 0.0021 1 -0.0004
vn 0.0041 1 -0.0004
vn 0.001 1 0.0028
vn 0.0001 1 0.0028
vn 0.0015 1 0.0013
vn 0.0106 0.9999 0.0013
vn 0.0183 0.9998 -0.0063
vn 0.0336 0.9994 -0.0063
vn 0.0304 0.9995 -0.0032
vn 0.0407 0.9992 -0.0032
vn 0.0378 0.9993 -0.0003
vn 0.0482 0.9988 -0.0003
vn 0.0444 0.999 0.0035
vn 0.0593 0.9982 0.0035
vn 0.0586 0.9983 0.0042
vn 0.0848 0.9964 0.0042
vn 0.0031 1 0.0003
vn 0.004 1 -0.0005
vn 0.0034 1 -0.0005
vn 0.0041 1 -0.0012
vn -0.0002 1 -0.0012
vn 0.0001 1 -0.0015
vn 0.0106 0.9999 -0.0015
vn 0.0106 0.9999 -0.0016
vn 0.0344 0.9994 -0.0016
vn 0.0336 0.9994 -0.0007
vn 0.0421 0.9991 -0.0007
vn 0.0407 0.9992 0.0007
vn 0.0492 0.9988 0.0007
vn 0.0482 0.9988 0.0016
vn 0.0595 0.9982 0.0016
vn 0.0593 0.9982 0.0018
vn 0.0849 0.9964 0.0018
vn 0.0028 1 -0.0003
vn 0.0031 1 -0.0006
vn 0.0028 1 -0.0006
vn 0.0034 1 -0.0012
vn -0.0004 1 -0.0012
vn -0.0002 1 -0.0015
vn 0.0108 0.9999 -0.0015
vn 0.0106 0.9999 -0.0012
vn 0.0351 0.9994 -0.0012
vn 0.0344 0.9994 -0.0006
vn 0.0431 0.9991 -0.0006
vn 0.0421 0.9991 0.0005
vn 0.0499 0.9988 0.0005
vn 0.0492 0.9988 0.0012
vn 0.0597 0.9982 0.0012
vn 0.0595 0.9982 0.0014
vn 0.085 0.9964 0.0014
vn 0.003 1 -0.001
vn 0.0028 1 -0.0008
vn 0.0028 1 -0.0008
vn 0.0028 1 -0.0007
vn -0.0005 1 -0.0007
vn -0.0004 1 -0.0008
vn 0.0109 0.9999 -0.0008
vn 0.0108 0.9999 -0.0007
vn 0.0353 0.9994 -0.0007
vn 0.0351 0.9994 -0.0004
vn 0.0435 0.9991 -0.0004
vn 0.0431 0.9991 -0.0001
vn 0.05 0.9988 -0.0001
vn 0.0499 0.9988 -0
vn 0.0599 0.9982 -0
vn 0.0597 0.9982 0.0002
vn 0.0851 0.9964 0.0002
vn 0.0029 1 -0.0004
vn 0.003 1 -0.0006
vn 0.0026 1 -0.0006
vn 0.0028 1 -0.0008
vn -0.0005 1 -0.0008
vn -0.0005 1 -0.0008
vn 0.0113 0.9999 -0.0008
vn 0.0109 0.9999 -0.0005
vn 0.0352 0.9994 -0.0005
vn 0.0353 0.9994 -0.0006
vn 0.0437 0.999 -0.0006
vn 0.0435 0.9991 -0.0004
vn 0.0496 0.9988 -0.0004
vn 0.05 0.9987 -0.0007
vn 0.0602 0.9982 -0.0007
vn 0.0599 0.9982 -0.0005
vn 0.0853 0.9964 -0.0005
vn 0.0027 1 0.0004
vn 0.0029 1 0.0003
vn 0.0017 1 0.0003
vn 0.0026 1 -0.0006
vn -0.0009 1 -0.0006
vn -0.0005 1 -0.0011
vn 0.0122 0.9999 -0.0011
vn 0.0113 0.9999 -0.0002
vn 0.0339 0.9994 -0.0002
vn 0.0352 0.9994 -0.0015
vn 0.0455 0.999 -0.0015
vn 0.0437 0.999 0.0003
vn 0.0489 0.9988 0.0003
vn 0.0496 0.9988 -0.0004
vn 0.0612 0.9981 -0.0004
vn 0.0602 0.9982 0.0007
vn 0.0851 0.9964 0.0007
vn 0.0038 1 -0.0011
vn 0.0027 1 -0.0001
vn 0.0021 1 -0.0001
vn 0.0017 1 0.0003
vn -0.0011 1 0.0003
vn -0.0009 1 0.0002
vn 0.0119 0.9999 0.0002
vn 0.0122 0.9999 -0.0001
vn 0.0341 0.9994 -0.0001
vn 0.0339 0.9994 0.0001
vn 0.0457 0.999 0.0001
vn 0.0455 0.999 0.0003
vn 0.0489 0.9988 0.0003
vn 0.0489 0.9988 0.0003
vn 0.0614 0.9981 0.0003
vn 0.0612 0.9981 0.0004
vn 0.085 0.9964 0.0004
vn 0.0035 1 0.0001
vn 0.0038 1 -0.0001
vn 0.0018 1 -0.0001
vn 0.0021 1 -0.0005
vn -0.001 1 -0.0005
vn -0.0011 1 -0.0004
vn 0.0123 0.9999 -0.0004
vn 0.0119 0.9999 0.0001
vn 0.0341 0.9994 0.0001
vn 0.0341 0.9994 0.0001
vn 0.0459 0.9989 0.0001
vn 0.0457 0.999 0.0002
vn 0.0488 0.9988 0.0002
vn 0.0489 0.9988 0.0002
vn 0.0614 0.9981 0.0002
vn 0.0614 0.9981 0.0002
vn 0.0853 0.9964 0.0002
vn 0.0017 1 0.0004
vn 0.0035 1 -0.0015
vn 0.0011 1 -0.0015
vn 0.0018 1 -0.0022
vn -0.0001 1 -0.0022
vn -0.001 1 -0.0012
vn 0.0138 0.9999 -0.0012
vn 0.0123 0.9999 0.0002
vn 0.0355 0.9994 0.0002
vn 0.0341 0.9994 0.0016
vn 0.0418 0.9991 0.0016
vn 0.0459 0.9989 -0.0024
vn 0.0502 0.9987 -0.0024
vn 0.0488 0.9988 -0.0011
vn 0.0627 0.998 -0.0011
vn 0.0614 0.9981 0.0003
vn 0.0868 0.9962 0.0003
vn 0.0003 1 -0.0006
vn 0.0017 1 -0.0021
vn 0.0002 1 -0.0021
vn 0.0011 1 -0.003
vn 0.0003 1 -0.003
vn -0.0001 1 -0.0025
vn 0.0157 0.9999 -0.0025
vn 0.0138 0.9999 -0.0007
vn 0.0369 0.9993 -0.0007
vn 0.0355 0.9994 0.0007
vn 0.0394 0.9992 0.0007
vn 0.0418 0.9991 -0.0017
vn 0.0497 0.9988 -0.0017
vn 0.0502 0.9987 -0.0022
vn 0.0638 0.998 -0.0022
vn 0.0627 0.998 -0.0011
vn 0.0891 0.996 -0.0011
vn -0.0004 1 -0.0017
vn 0.0003 1 -0.0024
vn -0.0004 1 -0.0024
vn 0.0002 1 -0.003
vn 0.0003 1 -0.003
vn 0.0003 1 -0.0031
vn 0.0162 0.9999 -0.0031
vn 0.0157 0.9999 -0.0025
vn 0.0374 0.9993 -0.0025
vn 0.0369 0.9993 -0.002
vn 0.0394 0.9992 -0.002
vn 0.0394 0.9992 -0.0019
vn 0.0494 0.9988 -0.0019
vn 0.0497 0.9988 -0.0022
vn 0.0643 0.9979 -0.0022
vn 0.0638 0.998 -0.0017
vn 0.0903 0.9959 -0.0017
vn -0.0008 1 -0.0022
vn -0.0004 1 -0.0025
vn -0.001 1 -0.0025
vn -0.0004 1 -0.0031
vn 0 1 -0.0031
vn 0.0003 1 -0.0034
vn 0.0163 0.9999 -0.0034
vn 0.0162 0.9999 -0.0033
vn 0.0377 0.9993 -0.0033
vn 0.0374 0.9993 -0.0029
vn 0.04 0.9992 -0.0029
vn 0.0394 0.9992 -0.0024
vn 0.0498 0.9988 -0.0024
vn 0.0494 0.9988 -0.002
vn 0.0648 0.9979 -0.002
vn 0.0643 0.9979 -0.0015
vn 0.091 0.9958 -0.0015
vn 0.087 0.9962 0.002
vn 0.0963 0.9953 0.002
vn 0.0962 0.9954 0.0022
vn 0.1155 0.9933 0.0022
vn 0.113 0.9936 0.0047
vn 0.0848 0.9964 0.0019
vn 0.0966 0.9953 0.0019
vn 0.0963 0.9953 0.0022
vn 0.1153 0.9933 0.0022
vn 0.1155 0.9933 0.002
vn 0.0849 0.9964 0.0015
vn 0.0966 0.9953 0.0015
vn 0.0966 0.9953 0.0014
vn 0.115 0.9934 0.0014
vn 0.1153 0.9933 0.0012
vn 0.085 0.9964 0.0004
vn 0.0967 0.9953 0.0004
vn 0.0966 0.9953 0.0005
vn 0.1153 0.9933 0.0005
vn 0.115 0.9934 0.0008
vn 0.0851 0.9964 -0.0004
vn 0.097 0.9953 -0.0004
vn 0.0967 0.9953 -0.0001
vn 0.1166 0.9932 -0.0001
vn 0.1153 0.9933 0.0012
vn 0.0853 0.9964 0.0006
vn 0.0963 0.9954 0.0006
vn 0.097 0.9953 -0.0002
vn 0.1185 0.993 -0.0002
vn 0.1166 0.9932 0.0018
vn 0.0851 0.9964 0.0003
vn 0.0959 0.9954 0.0003
vn 0.0963 0.9954 -0.0001
vn 0.1183 0.993 -0.0001
vn 0.1185 0.993 -0.0002
vn 0.085 0.9964 0.0004
vn 0.0962 0.9954 0.0004
vn 0.0959 0.9954 0.0007
vn 0.1179 0.993 0.0007
vn 0.1183 0.993 0.0003
vn 0.0853 0.9964 0.0019
vn 0.0963 0.9953 0.0019
vn 0.0962 0.9954 0.002
vn 0.1148 0.9934 0.002
vn 0.1179 0.993 -0.0012
vn 0.0868 0.9962 0.0012
vn 0.0973 0.9953 0.0012
vn 0.0963 0.9953 0.0022
vn 0.1137 0.9935 0.0022
vn 0.1148 0.9934 0.0011
vn 0.0891 0.996 -0.0005
vn 0.0983 0.9952 -0.0005
vn 0.0973 0.9953 0.0005
vn 0.1143 0.9934 0.0005
vn 0.1137 0.9935 0.0011
vn 0.0903 0.9959 -0.0007
vn 0.0991 0.9951 -0.0007
vn 0.0983 0.9952 0
vn 0.1147 0.9934 0
vn 0.1143 0.9934 0.0004
vn 0.1019 0.9948 0.0047
vn 0.1106 0.9939 -0.004
vn 0.1007 0.9949 0.002
vn 0.1019 0.9948 0.0008
vn 0.1011 0.9949 0.0012
vn 0.1007 0.9949 0.0016
vn 0.1017 0.9948 0.0008
vn 0.1011 0.9949 0.0014
vn 0.1021 0.9948 0.0012
vn 0.1017 0.9948 0.0015
vn 0.1016 0.9948 0.0018
vn 0.1021 0.9948 0.0013
vn 0.1026 0.9947 -0.0002
vn 0.1016 0.9948 0.0008
vn 0.102 0.9948 0.0003
vn 0.1026 0.9947 -0.0003
vn 0.1042 0.9946 -0.0012
vn 0.102 0.9948 0.0011
vn 0.105 0.9945 0.0011
vn 0.1042 0.9946 0.0018
vn 0.1053 0.9944 0.0011
vn 0.105 0.9945 0.0014
vn 0.1062 0.9943 0.0004
vn 0.1053 0.9944 0.0013
g scorched
usemtl scorched
f 1//0 2//0 3//0
f 4//1 5//1 6//1
f 7//2 8//2 9//2
f 10//3 11//3 12//3
f 13//4 14//4 15//4
f 16//5 17//5 18//5
f 19//6 20//6 21//6
f 22//7 23//7 24//7
f 25//8 26//8 27//8
f 28//9 29//9 30//9
f 31//10 32//10 33//10
f 34//11 35//11 36//11
f 37//12 38//12 39//12
f 40//13 41//13 42//13
f 43//14 44//14 45//14
f 46//15 47//15 48//15
f 49//16 50//16 51//16
f 52//17 53//17 54//17
f 55//18 56//18 57//18
f 58//19 59//19 60//19
f 61//20 62//20 63//20
f 64//21 65//21 66//21
f 67//22 68//22 69//22
f 70//23 71//23 72//23
f 73//24 74//24 75//24
f 76//25 77//25 78//25
f 79//26 80//26 81//26
f 82//27 83//27 84//27
f 85//28 86//28 87//28
f 88//29 89//29 90//29
f 91//30 92//30 93//30
f 94//31 95//31 96//31
f 97//32 98//32 99//32
f 100//33 101//33 102//33
f 103//34 104//34 105//34
f 106//35 107//35 108//35
f 109//36 110//36 111//36
f 112//37 113//37 114//37
f 115//38 116//38 117//38
f 118//39 119//39 120//39
f 121//40 122//40 123//40
f 124//41 125//41 126//41
f 127//42 128//42 129//42
f 130//43 131//43 132//43
f 133//44 134//44 135//44
f 136//45 137//45 138//45
f 139//46 140//46 141//46
f 142//47 143//47 144//47
f 145//48 146//48 147//48
f 148//49 149//49 150//49
f 151//50 152//50 153//50
f 154//51 155//51 156//51
f 157//52 158//52 159//52
f 160//53 161//53 162//53
f 163//54 164//54 165//54
f 166//55 167//55 168//55
f 169//56 170//56 171//56
f 172//57 173//57 174//57
f 175//58 176//58 177//58
f 178//59 179//59 180//59
f 181//60 182//60 183//60
f 184//61 185//61 186//61
f 187//62 188//62 189//62
f 190//63 191//63 192//63
f 193//64 194//64 195//64
f 196//65 197//65 198//65
f 199//66 200//66 201//66
f 202//67 203//67 204//67
f 205//68 206//68 207//68
f 208//69 209//69 210//69
f 211//70 212//70 213//70
f 214//71 215//71 216//71
f 217//72 218//72 219//72
f 220//73 221//73 222//73
f 223//74 224//74 225//74
f 226//75 227//75 228//75
f 229//76 230//76 231//76
f 232//77 233//77 234//77
f 235//78 236//78 237//78
f 238//79 239//79 240//79
f 241//80 242//80 243//80
f 244//81 245//81 246//81
f 247//82 248//82 249//82
f 250//83 251//83 252//83
f 253//84 254//84 255//84
f 256//85 257//85 258//85
f 259//86 260//86 261//86
f 262//87 263//87 264//87
f 265//88 266//88 267//88
f 268//89 269//89 270//89
f 271//90 272//90 273//90
f 274//91 275//91 276//91
f 277//92 278//92 279//92
f 280//93 281//93 282//93
f 283//94 284//94 285//94
f 286//95 287//95 288//95
f 289//96 290//96 291//96
f 292//97 293//97 294//97
f 295//98 296//98 297//98
f 298//99 299//99 300//99
f 301//100 302//100 303//100
f 304//101 305//101 306//101
f 307//102 308//102 309//102
f 310//103 311//103 312//103
f 313//104 314//104 315//104
f 316//105 317//105 318//105
f 319//106 320//106 321//106
f 322//107 323//107 324//107
f 325//108 326//108 327//108
f 328//109 329//109 330//109
f 331//110 332//110 333//110
f 334//111 335//111 336//111
f 337//112 338//112 339//112
f 340//113 341//113 342//113
f 343//114 344//114 345//114
f 346//115 347//115 348//115
f 349//116 350//116 351//116
f 352//117 353//117 354//117
f 355//118 356//118 357//118
f 358//119 359//119 360//119
f 361//120 362//120 363//120
f 364//121 365//121 366//121
f 367//122 368//122 369//122
f 370//123 371//123 372//123
f 373//124 374//124 375//124
f 376//125 377//125 378//125
f 379//126 380//126 381//126
f 382//127 383//127 384//127
f 385//128 386//128 387//128
f 388//129 389//129 390//129
f 391//130 392//130 393//130
f 394//131 395//131 396//131
f 397//132 398//132 399//132
f 400//133 401//133 402//133
f 403//134 404//134 405//134
f 406//135 407//135 408//135
f 409//136 410//136 411//136
f 412//137 413//137 414//137
f 415//138 416//138 417//138
f 418//139 419//139 420//139
f 421//140 422//140 423//140
f 424//141 425//141 426//141
f 427//142 428//142 429//142
f 430//143 431//143 432//143
f 433//144 434//144 435//144
f 436//145 437//145 438//145
f 439//146 440//146 441//146
f 442//147 443//147 444//147
f 445//148 446//148 447//148
f 448//149 449//149 450//149
f 451//150 452//150 453//150
f 454//151 455//151 456//151
f 457//152 458//152 459//152
f 460//153 461//153 462//153
f 463//154 464//154 465//154
f 466//155 467//155 468//155
f 469//156 470//156 471//156
f 472//157 473//157 474//157
f 475//158 476//158 477//158
f 478//159 479//159 480//159
f 481//160 482//160 483//160
f 484//161 485//161 486//161
f 487//162 488//162 489//162
f 490//163 491//163 492//163
f 493//164 494//164 495//164
f 496//165 497//165 498//165
f 499//166 500//166 501//166
f 502//167 503//167 504//167
f 505//168 506//168 507//168
f 508//169 509//169 510//169
f 511//170 512//170 513//170
f 514//171 515//171 516//171
f 517//172 518//172 519//172
f 520//173 521//173 522//173
f 523//174 524//174 525//174
f 526//175 527//175 528//175
f 529//176 530//176 531//176
f 532//177 533//177 534//177
f 535//178 536//178 537//178
f 538//179 539//179 540//179
f 541//180 542//180 543//180
f 544//181 545//181 546//181
f 547//182 548//182 549//182
f 550//183 551//183 552//183
f 553//184 554//184 555//184
f 556//185 557//185 558//185
f 559//186 560//186 561//186
f 562//187 563//187 564//187
f 565//188 566//188 567//188
f 568//189 569//189 570//189
f 571//190 572//190 573//190
f 574//191 575//191 576//191
f 577//192 578//192 579//192
f 580//193 581//193 582//193
f 583//194 584//194 585//194
f 586//195 587//195 588//195
f 589//196 590//196 591//196
f 592//197 593//197 594//197
f 595//198 596//198 597//198
f 598//199 599//199 600//199
f 601//200 602//200 603//200
f 604//201 605//201 606//201
f 607//202 608//202 609//202
f 610//203 611//203 612//203
g ash_drift
usemtl ash_drift
f 613//204 614//204 615//204
f 616//205 617//205 618//205
f 619//206 620//206 621//206
f 622//207 623//207 624//207
f 625//208 626//208 627//208
f 628//209 629//209 630//209
f 631//210 632//210 633//210
f 634//211 635//211 636//211
f 637//212 638//212 639//212
f 640//213 641//213 642//213
f 643//214 644//214 645//214
f 646//215 647//215 648//215
f 649//216 650//216 651//216
f 652//217 653//217 654//217
f 655//218 656//218 657//218
f 658//219 659//219 660//219
f 661//220 662//220 663//220
f 664//221 665//221 666//221
f 667//222 668//222 669//222
f 670//223 671//223 672//223
f 673//224 674//224 675//224
f 676//225 677//225 678//225
f 679//226 680//226 681//226
f 682//227 683//227 684//227
f 685//228 686//228 687//228
f 688//229 689//229 690//229
f 691//230 692//230 693//230
f 694//231 695//231 696//231
f 697//232 698//232 699//232
f 700//233 701//233 702//233
f 703//234 704//234 705//234
f 706//235 707//235 708//235
f 709//236 710//236 711//236
f 712//237 713//237 714//237
f 715//238 716//238 717//238
f 718//239 719//239 720//239
f 721//240 722//240 723//240
f 724//241 725//241 726//241
f 727//242 728//242 729//242
f 730//243 731//243 732//243
f 733//244 734//244 735//244
f 736//245 737//245 738//245
f 739//246 740//246 741//246
f 742//247 743//247 744//247
f 745//248 746//248 747//248
f 748//249 749//249 750//249
f 751//250 752//250 753//250
f 754//251 755//251 756//251
f 757//252 758//252 759//252
f 760//253 761//253 762//253
f 763//254 764//254 765//254
f 766//255 767//255 768//255
f 769//256 770//256 771//256
f 772//257 773//257 774//257
f 775//258 776//258 777//258
f 778//259 779//259 780//259
f 781//260 782//260 783//260
f 784//261 785//261 786//261
f 787//262 788//262 789//262
f 790//263 791//263 792//263
g ash_field
usemtl ash_field
f 793//264 794//264 795//264
f 796//265 797//265 798//265
f 799//266 800//266 801//266
f 802//267 803//267 804//267
f 805//268 806//268 807//268
f 808//269 809//269 810//269
f 811//270 812//270 813//270
f 814//271 815//271 816//271
f 817//272 818//272 819//272
f 820//273 821//273 822//273
f 823//274 824//274 825//274
f 826//275 827//275 828//275
f 829//276 830//276 831//276
f 832//277 833//277 834//277
f 835//278 836//278 837//278
f 838//279 839//279 840//279
f 841//280 842//280 843//280
f 844//281 845//281 846//281
f 847//282 848//282 849//282
f 850//283 851//283 852//283
f 853//284 854//284 855//284
f 856//285 857//285 858//285
f 859//286 860//286 861//286
f 862//287 863//287 864//287
