# litt worldgen asset - generated by math only
# kit: template/tools/worldgen/
mtllib materials.mtl
o chunk_2_-6
v 32 0.4203 -96
v 32 0.4206 -94.6667
v 33.3333 0.4183 -94.6667
v 32 0.4203 -96
v 33.3333 0.4183 -94.6667
v 33.3333 0.4181 -96
v 33.3333 0.4181 -96
v 33.3333 0.4183 -94.6667
v 34.6667 0.4267 -94.6667
v 33.3333 0.4181 -96
v 34.6667 0.4267 -94.6667
v 34.6667 0.4264 -96
v 34.6667 0.4264 -96
v 34.6667 0.4267 -94.6667
v 36 0.4229 -94.6667
v 34.6667 0.4264 -96
v 36 0.4229 -94.6667
v 36 0.4228 -96
v 36 0.4228 -96
v 36 0.4229 -94.6667
v 37.3333 0.421 -94.6667
v 36 0.4228 -96
v 37.3333 0.421 -94.6667
v 37.3333 0.4208 -96
v 37.3333 0.4208 -96
v 37.3333 0.421 -94.6667
v 38.6667 0.4161 -94.6667
v 37.3333 0.4208 -96
v 38.6667 0.4161 -94.6667
v 38.6667 0.416 -96
v 38.6667 0.416 -96
v 38.6667 0.4161 -94.6667
v 40 0.4066 -94.6667
v 38.6667 0.416 -96
v 40 0.4066 -94.6667
v 40 0.4069 -96
v 40 0.4069 -96
v 40 0.4066 -94.6667
v 41.3333 0.3987 -94.6667
v 40 0.4069 -96
v 41.3333 0.3987 -94.6667
v 41.3333 0.399 -96
v 41.3333 0.399 -96
v 41.3333 0.3987 -94.6667
v 42.6667 0.3904 -94.6667
v 41.3333 0.399 -96
v 42.6667 0.3904 -94.6667
v 42.6667 0.3906 -96
v 42.6667 0.3906 -96
v 42.6667 0.3904 -94.6667
v 44 0.3792 -94.6667
v 42.6667 0.3906 -96
v 44 0.3792 -94.6667
v 44 0.3796 -96
v 44 0.3796 -96
v 44 0.3792 -94.6667
v 45.3333 0.3676 -94.6667
v 44 0.3796 -96
v 45.3333 0.3676 -94.6667
v 45.3333 0.3673 -96
v 45.3333 0.3673 -96
v 45.3333 0.3676 -94.6667
v 46.6667 0.3784 -94.6667
v 45.3333 0.3673 -96
v 46.6667 0.3784 -94.6667
v 46.6667 0.3782 -96
v 46.6667 0.3782 -96
v 46.6667 0.3784 -94.6667
v 48 0.3794 -94.6667
v 46.6667 0.3782 -96
v 48 0.3794 -94.6667
v 48 0.379 -96
v 32 0.4206 -94.6667
v 32 0.4201 -93.3333
v 33.3333 0.4178 -93.3333
v 32 0.4206 -94.6667
v 33.3333 0.4178 -93.3333
v 33.3333 0.4183 -94.6667
v 33.3333 0.4183 -94.6667
v 33.3333 0.4178 -93.3333
v 34.6667 0.426 -93.3333
v 33.3333 0.4183 -94.6667
v 34.6667 0.426 -93.3333
v 34.6667 0.4267 -94.6667
v 34.6667 0.4267 -94.6667
v 34.6667 0.426 -93.3333
v 36 0.4223 -93.3333
v 34.6667 0.4267 -94.6667
v 36 0.4223 -93.3333
v 36 0.4229 -94.6667
v 36 0.4229 -94.6667
v 36 0.4223 -93.3333
v 37.3333 0.4204 -93.3333
v 36 0.4229 -94.6667
v 37.3333 0.4204 -93.3333
v 37.3333 0.421 -94.6667
v 37.3333 0.421 -94.6667
v 37.3333 0.4204 -93.3333
v 38.6667 0.4159 -93.3333
v 37.3333 0.421 -94.6667
v 38.6667 0.4159 -93.3333
v 38.6667 0.4161 -94.6667
v 38.6667 0.4161 -94.6667
v 38.6667 0.4159 -93.3333
v 40 0.4064 -93.3333
v 38.6667 0.4161 -94.6667
v 40 0.4064 -93.3333
v 40 0.4066 -94.6667
v 40 0.4066 -94.6667
v 40 0.4064 -93.3333
v 41.3333 0.3985 -93.3333
v 40 0.4066 -94.6667
v 41.3333 0.3985 -93.3333
v 41.3333 0.3987 -94.6667
v 41.3333 0.3987 -94.6667
v 41.3333 0.3985 -93.3333
v 42.6667 0.3902 -93.3333
v 41.3333 0.3987 -94.6667
v 42.6667 0.3902 -93.3333
v 42.6667 0.3904 -94.6667
v 42.6667 0.3904 -94.6667
v 42.6667 0.3902 -93.3333
v 44 0.3793 -93.3333
v 42.6667 0.3904 -94.6667
v 44 0.3793 -93.3333
v 44 0.3792 -94.6667
v 44 0.3792 -94.6667
v 44 0.3793 -93.3333
v 45.3333 0.3678 -93.3333
v 44 0.3792 -94.6667
v 45.3333 0.3678 -93.3333
v 45.3333 0.3676 -94.6667
v 45.3333 0.3676 -94.6667
v 45.3333 0.3678 -93.3333
v 46.6667 0.3777 -93.3333
v 45.3333 0.3676 -94.6667
v 46.6667 0.3777 -93.3333
v 46.6667 0.3784 -94.6667
v 46.6667 0.3784 -94.6667
v 46.6667 0.3777 -93.3333
v 48 0.3789 -93.3333
v 46.6667 0.3784 -94.6667
v 48 0.3789 -93.3333
v 48 0.3794 -94.6667
v 32 0.4201 -93.3333
v 32 0.4193 -92
v 33.3333 0.4168 -92
v 32 0.4201 -93.3333
v 33.3333 0.4168 -92
v 33.3333 0.4178 -93.3333
v 33.3333 0.4178 -93.3333
v 33.3333 0.4168 -92
v 34.6667 0.4249 -92
v 33.3333 0.4178 -93.3333
v 34.6667 0.4249 -92
v 34.6667 0.426 -93.3333
v 34.6667 0.426 -93.3333
v 34.6667 0.4249 -92
v 36 0.4209 -92
v 34.6667 0.426 -93.3333
v 36 0.4209 -92
v 36 0.4223 -93.3333
v 36 0.4223 -93.3333
v 36 0.4209 -92
v 37.3333 0.419 -92
v 36 0.4223 -93.3333
v 37.3333 0.419 -92
v 37.3333 0.4204 -93.3333
v 37.3333 0.4204 -93.3333
v 37.3333 0.419 -92
v 38.6667 0.4152 -92
v 37.3333 0.4204 -93.3333
v 38.6667 0.4152 -92
v 38.6667 0.4159 -93.3333
v 38.6667 0.4159 -93.3333
v 38.6667 0.4152 -92
v 40 0.406 -92
v 38.6667 0.4159 -93.3333
v 40 0.406 -92
v 40 0.4064 -93.3333
v 40 0.4064 -93.3333
v 40 0.406 -92
v 41.3333 0.3982 -92
v 40 0.4064 -93.3333
v 41.3333 0.3982 -92
v 41.3333 0.3985 -93.3333
v 41.3333 0.3985 -93.3333
v 41.3333 0.3982 -92
v 42.6667 0.3901 -92
v 41.3333 0.3985 -93.3333
v 42.6667 0.3901 -92
v 42.6667 0.3902 -93.3333
v 42.6667 0.3902 -93.3333
v 42.6667 0.3901 -92
v 44 0.3789 -92
v 42.6667 0.3902 -93.3333
v 44 0.3789 -92
v 44 0.3793 -93.3333
v 44 0.3793 -93.3333
v 44 0.3789 -92
v 45.3333 0.3674 -92
v 44 0.3793 -93.3333
v 45.3333 0.3674 -92
v 45.3333 0.3678 -93.3333
v 45.3333 0.3678 -93.3333
v 45.3333 0.3674 -92
v 46.6667 0.3779 -92
v 45.3333 0.3678 -93.3333
v 46.6667 0.3779 -92
v 46.6667 0.3777 -93.3333
v 46.6667 0.3777 -93.3333
v 46.6667 0.3779 -92
v 48 0.3788 -92
v 46.6667 0.3777 -93.3333
v 48 0.3788 -92
v 48 0.3789 -93.3333
v 32 0.4193 -92
v 32 0.4192 -90.6667
v 33.3333 0.4172 -90.6667
v 32 0.4193 -92
v 33.3333 0.4172 -90.6667
v 33.3333 0.4168 -92
v 33.3333 0.4168 -92
v 33.3333 0.4172 -90.6667
v 34.6667 0.4235 -90.6667
v 33.3333 0.4168 -92
v 34.6667 0.4235 -90.6667
v 34.6667 0.4249 -92
v 34.6667 0.4249 -92
v 34.6667 0.4235 -90.6667
v 36 0.4222 -90.6667
v 34.6667 0.4249 -92
v 36 0.4222 -90.6667
v 36 0.4209 -92
v 36 0.4209 -92
v 36 0.4222 -90.6667
v 37.3333 0.4179 -90.6667
v 36 0.4209 -92
v 37.3333 0.4179 -90.6667
v 37.3333 0.419 -92
v 37.3333 0.419 -92
v 37.3333 0.4179 -90.6667
v 38.6667 0.4153 -90.6667
v 37.3333 0.419 -92
v 38.6667 0.4153 -90.6667
v 38.6667 0.4152 -92
v 38.6667 0.4152 -92
v 38.6667 0.4153 -90.6667
v 40 0.4049 -90.6667
v 38.6667 0.4152 -92
v 40 0.4049 -90.6667
v 40 0.406 -92
v 40 0.406 -92
v 40 0.4049 -90.6667
v 41.3333 0.3972 -90.6667
v 40 0.406 -92
v 41.3333 0.3972 -90.6667
v 41.3333 0.3982 -92
v 41.3333 0.3982 -92
v 41.3333 0.3972 -90.6667
v 42.6667 0.3899 -90.6667
v 41.3333 0.3982 -92
v 42.6667 0.3899 -90.6667
v 42.6667 0.3901 -92
v 42.6667 0.3901 -92
v 42.6667 0.3899 -90.6667
v 44 0.3773 -90.6667
v 42.6667 0.3901 -92
v 44 0.3773 -90.6667
v 44 0.3789 -92
v 44 0.3789 -92
v 44 0.3773 -90.6667
v 45.3333 0.368 -90.6667
v 44 0.3789 -92
v 45.3333 0.368 -90.6667
v 45.3333 0.3674 -92
v 45.3333 0.3674 -92
v 45.3333 0.368 -90.6667
v 46.6667 0.3797 -90.6667
v 45.3333 0.3674 -92
v 46.6667 0.3797 -90.6667
v 46.6667 0.3779 -92
v 46.6667 0.3779 -92
v 46.6667 0.3797 -90.6667
v 48 0.3784 -90.6667
v 46.6667 0.3779 -92
v 48 0.3784 -90.6667
v 48 0.3788 -92
v 32 0.4192 -90.6667
v 32 0.4188 -89.3333
v 33.3333 0.4168 -89.3333
v 32 0.4192 -90.6667
v 33.3333 0.4168 -89.3333
v 33.3333 0.4172 -90.6667
v 33.3333 0.4172 -90.6667
v 33.3333 0.4168 -89.3333
v 34.6667 0.4231 -89.3333
v 33.3333 0.4172 -90.6667
v 34.6667 0.4231 -89.3333
v 34.6667 0.4235 -90.6667
v 34.6667 0.4235 -90.6667
v 34.6667 0.4231 -89.3333
v 36 0.4223 -89.3333
v 34.6667 0.4235 -90.6667
v 36 0.4223 -89.3333
v 36 0.4222 -90.6667
v 36 0.4222 -90.6667
v 36 0.4223 -89.3333
v 37.3333 0.418 -89.3333
v 36 0.4222 -90.6667
v 37.3333 0.418 -89.3333
v 37.3333 0.4179 -90.6667
v 37.3333 0.4179 -90.6667
v 37.3333 0.418 -89.3333
v 38.6667 0.4157 -89.3333
v 37.3333 0.4179 -90.6667
v 38.6667 0.4157 -89.3333
v 38.6667 0.4153 -90.6667
v 38.6667 0.4153 -90.6667
v 38.6667 0.4157 -89.3333
v 40 0.4052 -89.3333
v 38.6667 0.4153 -90.6667
v 40 0.4052 -89.3333
v 40 0.4049 -90.6667
v 40 0.4049 -90.6667
v 40 0.4052 -89.3333
v 41.3333 0.3975 -89.3333
v 40 0.4049 -90.6667
v 41.3333 0.3975 -89.3333
v 41.3333 0.3972 -90.6667
v 41.3333 0.3972 -90.6667
v 41.3333 0.3975 -89.3333
v 42.6667 0.3903 -89.3333
v 41.3333 0.3972 -90.6667
v 42.6667 0.3903 -89.3333
v 42.6667 0.3899 -90.6667
v 42.6667 0.3899 -90.6667
v 42.6667 0.3903 -89.3333
v 44 0.3781 -89.3333
v 42.6667 0.3899 -90.6667
v 44 0.3781 -89.3333
v 44 0.3773 -90.6667
v 44 0.3773 -90.6667
v 44 0.3781 -89.3333
v 45.3333 0.3688 -89.3333
v 44 0.3773 -90.6667
v 45.3333 0.3688 -89.3333
v 45.3333 0.368 -90.6667
v 45.3333 0.368 -90.6667
v 45.3333 0.3688 -89.3333
v 46.6667 0.379 -89.3333
v 45.3333 0.368 -90.6667
v 46.6667 0.379 -89.3333
v 46.6667 0.3797 -90.6667
v 46.6667 0.3797 -90.6667
v 46.6667 0.379 -89.3333
v 48 0.3774 -89.3333
v 46.6667 0.3797 -90.6667
v 48 0.3774 -89.3333
v 48 0.3784 -90.6667
v 32 0.4188 -89.3333
v 32 0.4195 -88
v 33.3333 0.4174 -88
v 32 0.4188 -89.3333
v 33.3333 0.4174 -88
v 33.3333 0.4168 -89.3333
v 33.3333 0.4168 -89.3333
v 33.3333 0.4174 -88
v 34.6667 0.4237 -88
v 33.3333 0.4168 -89.3333
v 34.6667 0.4237 -88
v 34.6667 0.4231 -89.3333
v 34.6667 0.4231 -89.3333
v 34.6667 0.4237 -88
v 36 0.4226 -88
v 34.6667 0.4231 -89.3333
v 36 0.4226 -88
v 36 0.4223 -89.3333
v 36 0.4223 -89.3333
v 36 0.4226 -88
v 37.3333 0.4182 -88
v 36 0.4223 -89.3333
v 37.3333 0.4182 -88
v 37.3333 0.418 -89.3333
v 37.3333 0.418 -89.3333
v 37.3333 0.4182 -88
v 38.6667 0.4162 -88
v 37.3333 0.418 -89.3333
v 38.6667 0.4162 -88
v 38.6667 0.4157 -89.3333
v 38.6667 0.4157 -89.3333
v 38.6667 0.4162 -88
v 40 0.4053 -88
v 38.6667 0.4157 -89.3333
v 40 0.4053 -88
v 40 0.4052 -89.3333
v 40 0.4052 -89.3333
v 40 0.4053 -88
v 41.3333 0.3974 -88
v 40 0.4052 -89.3333
v 41.3333 0.3974 -88
v 41.3333 0.3975 -89.3333
v 41.3333 0.3975 -89.3333
v 41.3333 0.3974 -88
v 42.6667 0.3903 -88
v 41.3333 0.3975 -89.3333
v 42.6667 0.3903 -88
v 42.6667 0.3903 -89.3333
v 42.6667 0.3903 -89.3333
v 42.6667 0.3903 -88
v 44 0.3778 -88
v 42.6667 0.3903 -89.3333
v 44 0.3778 -88
v 44 0.3781 -89.3333
v 44 0.3781 -89.3333
v 44 0.3778 -88
v 45.3333 0.3687 -88
v 44 0.3781 -89.3333
v 45.3333 0.3687 -88
v 45.3333 0.3688 -89.3333
v 45.3333 0.3688 -89.3333
v 45.3333 0.3687 -88
v 46.6667 0.3794 -88
v 45.3333 0.3688 -89.3333
v 46.6667 0.3794 -88
v 46.6667 0.379 -89.3333
v 46.6667 0.379 -89.3333
v 46.6667 0.3794 -88
v 48 0.3777 -88
v 46.6667 0.379 -89.3333
v 48 0.3777 -88
v 48 0.3774 -89.3333
v 32 0.4195 -88
v 32 0.4191 -86.6667
v 33.3333 0.4136 -86.6667
v 32 0.4195 -88
v 33.3333 0.4136 -86.6667
v 33.3333 0.4174 -88
v 33.3333 0.4174 -88
v 33.3333 0.4136 -86.6667
v 34.6667 0.4077 -86.6667
v 33.3333 0.4174 -88
v 34.6667 0.4077 -86.6667
v 34.6667 0.4237 -88
v 34.6667 0.4237 -88
v 34.6667 0.4077 -86.6667
v 36 0.4054 -86.6667
v 34.6667 0.4237 -88
v 36 0.4054 -86.6667
v 36 0.4226 -88
v 36 0.4226 -88
v 36 0.4054 -86.6667
v 37.3333 0.405 -86.6667
v 36 0.4226 -88
v 37.3333 0.405 -86.6667
v 37.3333 0.4182 -88
v 37.3333 0.4182 -88
v 37.3333 0.405 -86.6667
v 38.6667 0.4018 -86.6667
v 37.3333 0.4182 -88
v 38.6667 0.4018 -86.6667
v 38.6667 0.4162 -88
v 38.6667 0.4162 -88
v 38.6667 0.4018 -86.6667
v 40 0.3947 -86.6667
v 38.6667 0.4162 -88
v 40 0.3947 -86.6667
v 40 0.4053 -88
v 40 0.4053 -88
v 40 0.3947 -86.6667
v 41.3333 0.3878 -86.6667
v 40 0.4053 -88
v 41.3333 0.3878 -86.6667
v 41.3333 0.3974 -88
v 41.3333 0.3974 -88
v 41.3333 0.3878 -86.6667
v 42.6667 0.3803 -86.6667
v 41.3333 0.3974 -88
v 42.6667 0.3803 -86.6667
v 42.6667 0.3903 -88
v 42.6667 0.3903 -88
v 42.6667 0.3803 -86.6667
v 44 0.3706 -86.6667
v 42.6667 0.3903 -88
v 44 0.3706 -86.6667
v 44 0.3778 -88
v 44 0.3778 -88
v 44 0.3706 -86.6667
v 45.3333 0.355 -86.6667
v 44 0.3778 -88
v 45.3333 0.355 -86.6667
v 45.3333 0.3687 -88
v 45.3333 0.3687 -88
v 45.3333 0.355 -86.6667
v 46.6667 0.3843 -86.6667
v 45.3333 0.3687 -88
v 46.6667 0.3843 -86.6667
v 46.6667 0.3794 -88
v 46.6667 0.3794 -88
v 46.6667 0.3843 -86.6667
v 48 0.3872 -86.6667
v 46.6667 0.3794 -88
v 48 0.3872 -86.6667
v 48 0.3777 -88
v 32 0.4191 -86.6667
v 32 0.4181 -85.3333
v 33.3333 0.415 -85.3333
v 32 0.4191 -86.6667
v 33.3333 0.415 -85.3333
v 33.3333 0.4136 -86.6667
v 33.3333 0.4136 -86.6667
v 33.3333 0.415 -85.3333
v 34.6667 0.4026 -85.3333
v 33.3333 0.4136 -86.6667
v 34.6667 0.4026 -85.3333
v 34.6667 0.4077 -86.6667
v 34.6667 0.4077 -86.6667
v 34.6667 0.4026 -85.3333
v 36 0.3995 -85.3333
v 34.6667 0.4077 -86.6667
v 36 0.3995 -85.3333
v 36 0.4054 -86.6667
v 36 0.4054 -86.6667
v 36 0.3995 -85.3333
v 37.3333 0.402 -85.3333
v 36 0.4054 -86.6667
v 37.3333 0.402 -85.3333
v 37.3333 0.405 -86.6667
v 37.3333 0.405 -86.6667
v 37.3333 0.402 -85.3333
v 38.6667 0.4002 -85.3333
v 37.3333 0.405 -86.6667
v 38.6667 0.4002 -85.3333
v 38.6667 0.4018 -86.6667
v 38.6667 0.4018 -86.6667
v 38.6667 0.4002 -85.3333
v 40 0.4002 -85.3333
v 38.6667 0.4018 -86.6667
v 40 0.4002 -85.3333
v 40 0.3947 -86.6667
v 40 0.3947 -86.6667
v 40 0.4002 -85.3333
v 41.3333 0.3943 -85.3333
v 40 0.3947 -86.6667
v 41.3333 0.3943 -85.3333
v 41.3333 0.3878 -86.6667
v 41.3333 0.3878 -86.6667
v 41.3333 0.3943 -85.3333
v 42.6667 0.3851 -85.3333
v 41.3333 0.3878 -86.6667
v 42.6667 0.3851 -85.3333
v 42.6667 0.3803 -86.6667
v 42.6667 0.3803 -86.6667
v 42.6667 0.3851 -85.3333
v 44 0.3768 -85.3333
v 42.6667 0.3803 -86.6667
v 44 0.3768 -85.3333
v 44 0.3706 -86.6667
v 44 0.3706 -86.6667
v 44 0.3768 -85.3333
v 45.3333 0.3417 -85.3333
v 44 0.3706 -86.6667
v 45.3333 0.3417 -85.3333
v 45.3333 0.355 -86.6667
v 45.3333 0.355 -86.6667
v 45.3333 0.3417 -85.3333
v 46.6667 0.3735 -85.3333
v 45.3333 0.355 -86.6667
v 46.6667 0.3735 -85.3333
v 46.6667 0.3843 -86.6667
v 46.6667 0.3843 -86.6667
v 46.6667 0.3735 -85.3333
v 48 0.3814 -85.3333
v 46.6667 0.3843 -86.6667
v 48 0.3814 -85.3333
v 48 0.3872 -86.6667
v 32 0.4181 -85.3333
v 32 0.4086 -84
v 33.3333 0.4093 -84
v 32 0.4181 -85.3333
v 33.3333 0.4093 -84
v 33.3333 0.415 -85.3333
v 33.3333 0.415 -85.3333
v 33.3333 0.4093 -84
v 34.6667 0.4004 -84
v 33.3333 0.415 -85.3333
v 34.6667 0.4004 -84
v 34.6667 0.4026 -85.3333
v 34.6667 0.4026 -85.3333
v 34.6667 0.4004 -84
v 36 0.3988 -84
v 34.6667 0.4026 -85.3333
v 36 0.3988 -84
v 36 0.3995 -85.3333
v 36 0.3995 -85.3333
v 36 0.3988 -84
v 37.3333 0.402 -84
v 36 0.3995 -85.3333
v 37.3333 0.402 -84
v 37.3333 0.402 -85.3333
v 37.3333 0.402 -85.3333
v 37.3333 0.402 -84
v 38.6667 0.4017 -84
v 37.3333 0.402 -85.3333
v 38.6667 0.4017 -84
v 38.6667 0.4002 -85.3333
v 38.6667 0.4002 -85.3333
v 38.6667 0.4017 -84
v 40 0.4035 -84
v 38.6667 0.4002 -85.3333
v 40 0.4035 -84
v 40 0.4002 -85.3333
v 40 0.4002 -85.3333
v 40 0.4035 -84
v 41.3333 0.3975 -84
v 40 0.4002 -85.3333
v 41.3333 0.3975 -84
v 41.3333 0.3943 -85.3333
v 41.3333 0.3943 -85.3333
v 41.3333 0.3975 -84
v 42.6667 0.3876 -84
v 41.3333 0.3943 -85.3333
v 42.6667 0.3876 -84
v 42.6667 0.3851 -85.3333
v 42.6667 0.3851 -85.3333
v 42.6667 0.3876 -84
v 44 0.3792 -84
v 42.6667 0.3851 -85.3333
v 44 0.3792 -84
v 44 0.3768 -85.3333
v 44 0.3768 -85.3333
v 44 0.3792 -84
v 45.3333 0.3391 -84
v 44 0.3768 -85.3333
v 45.3333 0.3391 -84
v 45.3333 0.3417 -85.3333
v 45.3333 0.3417 -85.3333
v 45.3333 0.3391 -84
v 46.6667 0.3675 -84
v 45.3333 0.3417 -85.3333
v 46.6667 0.3675 -84
v 46.6667 0.3735 -85.3333
v 46.6667 0.3735 -85.3333
v 46.6667 0.3675 -84
v 48 0.3787 -84
v 46.6667 0.3735 -85.3333
v 48 0.3787 -84
v 48 0.3814 -85.3333
v 32 0.4086 -84
v 32 0.3952 -82.6667
v 33.3333 0.3973 -82.6667
v 32 0.4086 -84
v 33.3333 0.3973 -82.6667
v 33.3333 0.4093 -84
v 33.3333 0.4093 -84
v 33.3333 0.3973 -82.6667
v 34.6667 0.3905 -82.6667
v 33.3333 0.4093 -84
v 34.6667 0.3905 -82.6667
v 34.6667 0.4004 -84
v 34.6667 0.4004 -84
v 34.6667 0.3905 -82.6667
v 36 0.3914 -82.6667
v 34.6667 0.4004 -84
v 36 0.3914 -82.6667
v 36 0.3988 -84
v 36 0.3988 -84
v 36 0.3914 -82.6667
v 37.3333 0.3955 -82.6667
v 36 0.3988 -84
v 37.3333 0.3955 -82.6667
v 37.3333 0.402 -84
v 37.3333 0.402 -84
v 37.3333 0.3955 -82.6667
v 38.6667 0.3957 -82.6667
v 37.3333 0.402 -84
v 38.6667 0.3957 -82.6667
v 38.6667 0.4017 -84
v 38.6667 0.4017 -84
v 38.6667 0.3957 -82.6667
v 40 0.3977 -82.6667
v 38.6667 0.4017 -84
v 40 0.3977 -82.6667
v 40 0.4035 -84
v 40 0.4035 -84
v 40 0.3977 -82.6667
v 41.3333 0.3919 -82.6667
v 40 0.4035 -84
v 41.3333 0.3919 -82.6667
v 41.3333 0.3975 -84
v 41.3333 0.3975 -84
v 41.3333 0.3919 -82.6667
v 42.6667 0.3823 -82.6667
v 41.3333 0.3975 -84
v 42.6667 0.3823 -82.6667
v 42.6667 0.3876 -84
v 42.6667 0.3876 -84
v 42.6667 0.3823 -82.6667
v 44 0.3752 -82.6667
v 42.6667 0.3876 -84
v 44 0.3752 -82.6667
v 44 0.3792 -84
v 44 0.3792 -84
v 44 0.3752 -82.6667
v 45.3333 0.3385 -82.6667
v 44 0.3792 -84
v 45.3333 0.3385 -82.6667
v 45.3333 0.3391 -84
v 45.3333 0.3391 -84
v 45.3333 0.3385 -82.6667
v 46.6667 0.3699 -82.6667
v 45.3333 0.3391 -84
v 46.6667 0.3699 -82.6667
v 46.6667 0.3675 -84
v 46.6667 0.3675 -84
v 46.6667 0.3699 -82.6667
v 48 0.3846 -82.6667
v 46.6667 0.3675 -84
v 48 0.3846 -82.6667
v 48 0.3787 -84
v 32 0.3952 -82.6667
v 32 0.3883 -81.3333
v 33.3333 0.3913 -81.3333
v 32 0.3952 -82.6667
v 33.3333 0.3913 -81.3333
v 33.3333 0.3973 -82.6667
v 33.3333 0.3973 -82.6667
v 33.3333 0.3913 -81.3333
v 34.6667 0.3836 -81.3333
v 33.3333 0.3973 -82.6667
v 34.6667 0.3836 -81.3333
v 34.6667 0.3905 -82.6667
v 34.6667 0.3905 -82.6667
v 34.6667 0.3836 -81.3333
v 36 0.3878 -81.3333
v 34.6667 0.3905 -82.6667
v 36 0.3878 -81.3333
v 36 0.3914 -82.6667
v 36 0.3914 -82.6667
v 36 0.3878 -81.3333
v 37.3333 0.3896 -81.3333
v 36 0.3914 -82.6667
v 37.3333 0.3896 -81.3333
v 37.3333 0.3955 -82.6667
v 37.3333 0.3955 -82.6667
v 37.3333 0.3896 -81.3333
v 38.6667 0.3912 -81.3333
v 37.3333 0.3955 -82.6667
v 38.6667 0.3912 -81.3333
v 38.6667 0.3957 -82.6667
v 38.6667 0.3957 -82.6667
v 38.6667 0.3912 -81.3333
v 40 0.3924 -81.3333
v 38.6667 0.3957 -82.6667
v 40 0.3924 -81.3333
v 40 0.3977 -82.6667
v 40 0.3977 -82.6667
v 40 0.3924 -81.3333
v 41.3333 0.3872 -81.3333
v 40 0.3977 -82.6667
v 41.3333 0.3872 -81.3333
v 41.3333 0.3919 -82.6667
v 41.3333 0.3919 -82.6667
v 41.3333 0.3872 -81.3333
v 42.6667 0.3791 -81.3333
v 41.3333 0.3919 -82.6667
v 42.6667 0.3791 -81.3333
v 42.6667 0.3823 -82.6667
v 42.6667 0.3823 -82.6667
v 42.6667 0.3791 -81.3333
v 44 0.3718 -81.3333
v 42.6667 0.3823 -82.6667
v 44 0.3718 -81.3333
v 44 0.3752 -82.6667
v 44 0.3752 -82.6667
v 44 0.3718 -81.3333
v 45.3333 0.3399 -81.3333
v 44 0.3752 -82.6667
v 45.3333 0.3399 -81.3333
v 45.3333 0.3385 -82.6667
v 45.3333 0.3385 -82.6667
v 45.3333 0.3399 -81.3333
v 46.6667 0.3758 -81.3333
v 45.3333 0.3385 -82.6667
v 46.6667 0.3758 -81.3333
v 46.6667 0.3699 -82.6667
v 46.6667 0.3699 -82.6667
v 46.6667 0.3758 -81.3333
v 48 0.3908 -81.3333
v 46.6667 0.3699 -82.6667
v 48 0.3908 -81.3333
v 48 0.3846 -82.6667
v 32 0.3883 -81.3333
v 32 0.3863 -80
v 33.3333 0.389 -80
v 32 0.3883 -81.3333
v 33.3333 0.389 -80
v 33.3333 0.3913 -81.3333
v 33.3333 0.3913 -81.3333
v 33.3333 0.389 -80
v 34.6667 0.3809 -80
v 33.3333 0.3913 -81.3333
v 34.6667 0.3809 -80
v 34.6667 0.3836 -81.3333
v 34.6667 0.3836 -81.3333
v 34.6667 0.3809 -80
v 36 0.3844 -80
v 34.6667 0.3836 -81.3333
v 36 0.3844 -80
v 36 0.3878 -81.3333
v 36 0.3878 -81.3333
v 36 0.3844 -80
v 37.3333 0.386 -80
v 36 0.3878 -81.3333
v 37.3333 0.386 -80
v 37.3333 0.3896 -81.3333
v 37.3333 0.3896 -81.3333
v 37.3333 0.386 -80
v 38.6667 0.3882 -80
v 37.3333 0.3896 -81.3333
v 38.6667 0.3882 -80
v 38.6667 0.3912 -81.3333
v 38.6667 0.3912 -81.3333
v 38.6667 0.3882 -80
v 40 0.3899 -80
v 38.6667 0.3912 -81.3333
v 40 0.3899 -80
v 40 0.3924 -81.3333
v 40 0.3924 -81.3333
v 40 0.3899 -80
v 41.3333 0.3857 -80
v 40 0.3924 -81.3333
v 41.3333 0.3857 -80
v 41.3333 0.3872 -81.3333
v 41.3333 0.3872 -81.3333
v 41.3333 0.3857 -80
v 42.6667 0.3789 -80
v 41.3333 0.3872 -81.3333
v 42.6667 0.3789 -80
v 42.6667 0.3791 -81.3333
v 42.6667 0.3791 -81.3333
v 42.6667 0.3789 -80
v 44 0.3725 -80
v 42.6667 0.3791 -81.3333
v 44 0.3725 -80
v 44 0.3718 -81.3333
v 44 0.3718 -81.3333
v 44 0.3725 -80
v 45.3333 0.3423 -80
v 44 0.3718 -81.3333
v 45.3333 0.3423 -80
v 45.3333 0.3399 -81.3333
v 45.3333 0.3399 -81.3333
v 45.3333 0.3423 -80
v 46.6667 0.3804 -80
v 45.3333 0.3399 -81.3333
v 46.6667 0.3804 -80
v 46.6667 0.3758 -81.3333
v 46.6667 0.3758 -81.3333
v 46.6667 0.3804 -80
v 48 0.3963 -80
v 46.6667 0.3758 -81.3333
v 48 0.3963 -80
v 48 0.3908 -81.3333
vn 0.0017 1 -0.0002
vn 0.0017 1 -0.0002
vn -0.0062 1 -0.0002
vn -0.0063 1 -0.0002
vn 0.0028 1 -0.0002
vn 0.0027 1 -0.0001
vn 0.0014 1 -0.0001
vn 0.0015 1 -0.0001
vn 0.0037 1 -0.0001
vn 0.0036 1 -0.0001
vn 0.0071 1 -0.0001
vn 0.0068 1 0.0002
vn 0.0059 1 0.0002
vn 0.0059 1 0.0002
vn 0.0062 1 0.0002
vn 0.0063 1 0.0002
vn 0.0083 1 0.0002
vn 0.0083 1 0.0003
vn 0.0088 1 0.0003
vn 0.0092 1 -0.0002
vn -0.0081 1 -0.0002
vn -0.0082 1 -0.0002
vn -0.0008 1 -0.0002
vn -0.0006 1 -0.0003
vn 0.0018 1 0.0004
vn 0.0017 1 0.0004
vn -0.0062 1 0.0004
vn -0.0062 1 0.0005
vn 0.0027 1 0.0005
vn 0.0028 1 0.0004
vn 0.0014 1 0.0004
vn 0.0014 1 0.0004
vn 0.0034 1 0.0004
vn 0.0037 1 0.0002
vn 0.0071 1 0.0002
vn 0.0071 1 0.0002
vn 0.0059 1 0.0002
vn 0.0059 1 0.0002
vn 0.0062 1 0.0002
vn 0.0062 1 0.0001
vn 0.0082 1 0.0001
vn 0.0083 1 -0.0001
vn 0.0087 1 -0.0001
vn 0.0088 1 -0.0002
vn -0.0075 1 -0.0002
vn -0.0081 1 0.0005
vn -0.0009 1 0.0005
vn -0.0008 1 0.0004
vn 0.0019 1 0.0006
vn 0.0018 1 0.0007
vn -0.006 1 0.0007
vn -0.0062 1 0.0008
vn 0.003 1 0.0008
vn 0.0027 1 0.0011
vn 0.0014 1 0.0011
vn 0.0014 1 0.0011
vn 0.0029 1 0.0011
vn 0.0034 1 0.0005
vn 0.0069 1 0.0005
vn 0.0071 1 0.0003
vn 0.0059 1 0.0003
vn 0.0059 1 0.0002
vn 0.0061 1 0.0002
vn 0.0062 1 0.0001
vn 0.0084 1 0.0001
vn 0.0082 1 0.0003
vn 0.0086 1 0.0003
vn 0.0087 1 0.0003
vn -0.0079 1 0.0003
vn -0.0075 1 -0.0002
vn -0.0007 1 -0.0002
vn -0.0009 1 0
vn 0.0015 1 0
vn 0.0019 1 -0.0003
vn -0.0047 1 -0.0003
vn -0.006 1 0.001
vn 0.0009 1 0.001
vn 0.003 1 -0.001
vn 0.0033 1 -0.001
vn 0.0014 1 0.0009
vn 0.0019 1 0.0009
vn 0.0029 1 -0.0001
vn 0.0077 1 -0.0001
vn 0.0069 1 0.0008
vn 0.0058 1 0.0008
vn 0.0059 1 0.0007
vn 0.0055 1 0.0007
vn 0.0061 1 0.0001
vn 0.0095 1 0.0001
vn 0.0084 1 0.0012
vn 0.007 1 0.0012
vn 0.0086 1 -0.0004
vn -0.0088 1 -0.0004
vn -0.0079 1 -0.0013
vn 0.001 1 -0.0013
vn -0.0007 1 0.0003
vn 0.0015 1 0.0003
vn 0.0015 1 0.0003
vn -0.0047 1 0.0003
vn -0.0047 1 0.0003
vn 0.0006 1 0.0003
vn 0.0009 1 -0.0001
vn 0.0033 1 -0.0001
vn 0.0033 1 -0.0001
vn 0.0017 1 -0.0001
vn 0.0019 1 -0.0003
vn 0.0078 1 -0.0003
vn 0.0077 1 -0.0002
vn 0.0058 1 -0.0002
vn 0.0058 1 -0.0002
vn 0.0054 1 -0.0002
vn 0.0055 1 -0.0003
vn 0.0091 1 -0.0003
vn 0.0095 1 -0.0006
vn 0.007 1 -0.0006
vn 0.007 1 -0.0006
vn -0.0076 1 -0.0006
vn -0.0088 1 0.0006
vn 0.0012 1 0.0006
vn 0.001 1 0.0007
vn 0.0016 1 -0.0005
vn 0.0015 1 -0.0005
vn -0.0047 1 -0.0005
vn -0.0047 1 -0.0005
vn 0.0009 1 -0.0005
vn 0.0006 1 -0.0002
vn 0.0032 1 -0.0002
vn 0.0033 1 -0.0002
vn 0.0015 1 -0.0002
vn 0.0017 1 -0.0004
vn 0.0082 1 -0.0004
vn 0.0078 1 -0.0001
vn 0.0059 1 -0.0001
vn 0.0058 1 0
vn 0.0054 1 0
vn 0.0054 1 0
vn 0.0094 1 0
vn 0.0091 1 0.0003
vn 0.0068 1 0.0003
vn 0.007 1 0.0001
vn -0.0081 1 0.0001
vn -0.0076 1 -0.0003
vn 0.0013 1 -0.0003
vn 0.0012 1 -0.0002
vn 0.0042 1 0.0003
vn 0.0016 1 0.0029
vn 0.0044 1 0.0029
vn -0.0047 0.9999 0.012
vn 0.0018 0.9999 0.012
vn 0.0009 0.9999 0.0129
vn 0.0003 0.9999 0.0129
vn 0.0032 0.9999 0.0099
vn 0.0024 0.9999 0.0099
vn 0.0015 0.9999 0.0108
vn 0.0054 0.9999 0.0108
vn 0.0082 0.9999 0.008
vn 0.0052 1 0.008
vn 0.0059 1 0.0072
vn 0.0056 1 0.0072
vn 0.0054 1 0.0075
vn 0.0073 0.9999 0.0075
vn 0.0094 0.9999 0.0054
vn 0.0117 0.9999 0.0054
vn 0.0068 0.9999 0.0103
vn -0.022 0.9997 0.0103
vn -0.0081 1 -0.0037
vn -0.0022 1 -0.0037
vn 0.0013 1 -0.0072
vn 0.0023 1 0.0008
vn 0.0042 1 -0.0011
vn 0.0093 1 -0.0011
vn 0.0044 1 0.0039
vn 0.0023 1 0.0039
vn 0.0018 1 0.0044
vn -0.0019 1 0.0044
vn 0.0003 1 0.0023
vn 0.0013 1 0.0023
vn 0.0024 1 0.0012
vn 0 1 0.0012
vn 0.0054 1 -0.0041
vn 0.0044 1 -0.0041
vn 0.0052 1 -0.0049
vn 0.0069 1 -0.0049
vn 0.0056 1 -0.0036
vn 0.0063 1 -0.0036
vn 0.0073 1 -0.0046
vn 0.0263 0.9996 -0.0046
vn 0.0117 0.9999 0.0099
vn -0.0239 0.9997 0.0099
vn -0.022 0.9997 0.0081
vn -0.0059 0.9999 0.0081
vn -0.0022 1 0.0043
vn -0.0005 1 0.0071
vn 0.0023 1 0.0042
vn 0.0067 1 0.0042
vn 0.0093 1 0.0016
vn 0.0012 1 0.0016
vn 0.0023 1 0.0005
vn -0.0024 1 0.0005
vn -0.0019 1 -0
vn 0.0002 1 -0
vn 0.0013 1 -0.0011
vn -0.0013 1 -0.0011
vn 0 1 -0.0025
vn 0.0045 1 -0.0025
vn 0.0044 1 -0.0024
vn 0.0074 1 -0.0024
vn 0.0069 1 -0.0019
vn 0.0063 1 -0.0019
vn 0.0063 1 -0.0018
vn 0.0301 0.9995 -0.0018
vn 0.0263 0.9997 0.002
vn -0.0213 0.9998 0.002
vn -0.0239 0.9997 0.0045
vn -0.0084 1 0.0045
vn -0.0059 1 0.0021
vn -0.0016 0.9999 0.0101
vn -0.0005 1 0.009
vn 0.0051 0.9999 0.009
vn 0.0067 1 0.0074
vn -0.0007 1 0.0074
vn 0.0012 1 0.0055
vn -0.0031 1 0.0055
vn -0.0024 1 0.0049
vn -0.0002 1 0.0049
vn 0.0002 1 0.0045
vn -0.0015 1 0.0045
vn -0.0013 1 0.0043
vn 0.0044 1 0.0043
vn 0.0045 1 0.0042
vn 0.0072 1 0.0042
vn 0.0074 1 0.004
vn 0.0053 1 0.004
vn 0.0063 1 0.003
vn 0.0275 0.9996 0.003
vn 0.0301 0.9995 0.0004
vn -0.0235 0.9997 0.0004
vn -0.0213 0.9998 -0.0018
vn -0.0111 0.9999 -0.0018
vn -0.0084 1 -0.0045
vn -0.0023 1 0.0052
vn -0.0016 1 0.0045
vn 0.0058 1 0.0045
vn 0.0051 1 0.0052
vn -0.0032 1 0.0052
vn -0.0007 1 0.0027
vn -0.0013 1 0.0027
vn -0.0031 1 0.0044
vn -0.0012 1 0.0044
vn -0.0002 1 0.0034
vn -0.0009 1 0.0034
vn -0.0015 1 0.004
vn 0.0039 1 0.004
vn 0.0044 1 0.0035
vn 0.0061 1 0.0035
vn 0.0072 1 0.0024
vn 0.0055 1 0.0024
vn 0.0053 1 0.0026
vn 0.0239 0.9997 0.0026
vn 0.0275 0.9996 -0.001
vn -0.0269 0.9996 -0.001
vn -0.0235 0.9997 -0.0044
vn -0.0112 0.9999 -0.0044
vn -0.0111 0.9999 -0.0046
vn -0.002 1 0.0015
vn -0.0023 1 0.0018
vn 0.006 1 0.0018
vn 0.0058 1 0.002
vn -0.0026 1 0.002
vn -0.0032 1 0.0026
vn -0.0012 1 0.0026
vn -0.0013 1 0.0027
vn -0.0017 1 0.0027
vn -0.0012 1 0.0022
vn -0.0013 1 0.0022
vn -0.0009 1 0.0019
vn 0.0032 1 0.0019
vn 0.0039 1 0.0011
vn 0.0051 1 0.0011
vn 0.0061 1 0.0002
vn 0.0047 1 0.0002
vn 0.0055 1 -0.0006
vn 0.0227 0.9997 -0.0006
vn 0.0239 0.9997 -0.0018
vn -0.0286 0.9996 -0.0018
vn -0.0269 0.9996 -0.0034
vn -0.012 0.9999 -0.0034
vn -0.0112 0.9999 -0.0042
g ash_field
usemtl ash_field
f 1//0 2//0 3//0
f 4//1 5//1 6//1
f 7//2 8//2 9//2
f 10//3 11//3 12//3
f 13//4 14//4 15//4
f 16//5 17//5 18//5
f 19//6 20//6 21//6
f 22//7 23//7 24//7
f 25//8 26//8 27//8
f 28//9 29//9 30//9
f 31//10 32//10 33//10
f 34//11 35//11 36//11
f 37//12 38//12 39//12
f 40//13 41//13 42//13
f 43//14 44//14 45//14
f 46//15 47//15 48//15
f 49//16 50//16 51//16
f 52//17 53//17 54//17
f 55//18 56//18 57//18
f 58//19 59//19 60//19
f 61//20 62//20 63//20
f 64//21 65//21 66//21
f 67//22 68//22 69//22
f 70//23 71//23 72//23
f 73//24 74//24 75//24
f 76//25 77//25 78//25
f 79//26 80//26 81//26
f 82//27 83//27 84//27
f 85//28 86//28 87//28
f 88//29 89//29 90//29
f 91//30 92//30 93//30
f 94//31 95//31 96//31
f 97//32 98//32 99//32
f 100//33 101//33 102//33
f 103//34 104//34 105//34
f 106//35 107//35 108//35
f 109//36 110//36 111//36
f 112//37 113//37 114//37
f 115//38 116//38 117//38
f 118//39 119//39 120//39
f 121//40 122//40 123//40
f 124//41 125//41 126//41
f 127//42 128//42 129//42
f 130//43 131//43 132//43
f 133//44 134//44 135//44
f 136//45 137//45 138//45
f 139//46 140//46 141//46
f 142//47 143//47 144//47
f 145//48 146//48 147//48
f 148//49 149//49 150//49
f 151//50 152//50 153//50
f 154//51 155//51 156//51
f 157//52 158//52 159//52
f 160//53 161//53 162//53
f 163//54 164//54 165//54
f 166//55 167//55 168//55
f 169//56 170//56 171//56
f 172//57 173//57 174//57
f 175//58 176//58 177//58
f 178//59 179//59 180//59
f 181//60 182//60 183//60
f 184//61 185//61 186//61
f 187//62 188//62 189//62
f 190//63 191//63 192//63
f 193//64 194//64 195//64
f 196//65 197//65 198//65
f 199//66 200//66 201//66
f 202//67 203//67 204//67
f 205//68 206//68 207//68
f 208//69 209//69 210//69
f 211//70 212//70 213//70
f 214//71 215//71 216//71
f 217//72 218//72 219//72
f 220//73 221//73 222//73
f 223//74 224//74 225//74
f 226//75 227//75 228//75
f 229//76 230//76 231//76
f 232//77 233//77 234//77
f 235//78 236//78 237//78
f 238//79 239//79 240//79
f 241//80 242//80 243//80
f 244//81 245//81 246//81
f 247//82 248//82 249//82
f 250//83 251//83 252//83
f 253//84 254//84 255//84
f 256//85 257//85 258//85
f 259//86 260//86 261//86
f 262//87 263//87 264//87
f 265//88 266//88 267//88
f 268//89 269//89 270//89
f 271//90 272//90 273//90
f 274//91 275//91 276//91
f 277//92 278//92 279//92
f 280//93 281//93 282//93
f 283//94 284//94 285//94
f 286//95 287//95 288//95
f 289//96 290//96 291//96
f 292//97 293//97 294//97
f 295//98 296//98 297//98
f 298//99 299//99 300//99
f 301//100 302//100 303//100
f 304//101 305//101 306//101
f 307//102 308//102 309//102
f 310//103 311//103 312//103
f 313//104 314//104 315//104
f 316//105 317//105 318//105
f 319//106 320//106 321//106
f 322//107 323//107 324//107
f 325//108 326//108 327//108
f 328//109 329//109 330//109
f 331//110 332//110 333//110
f 334//111 335//111 336//111
f 337//112 338//112 339//112
f 340//113 341//113 342//113
f 343//114 344//114 345//114
f 346//115 347//115 348//115
f 349//116 350//116 351//116
f 352//117 353//117 354//117
f 355//118 356//118 357//118
f 358//119 359//119 360//119
f 361//120 362//120 363//120
f 364//121 365//121 366//121
f 367//122 368//122 369//122
f 370//123 371//123 372//123
f 373//124 374//124 375//124
f 376//125 377//125 378//125
f 379//126 380//126 381//126
f 382//127 383//127 384//127
f 385//128 386//128 387//128
f 388//129 389//129 390//129
f 391//130 392//130 393//130
f 394//131 395//131 396//131
f 397//132 398//132 399//132
f 400//133 401//133 402//133
f 403//134 404//134 405//134
f 406//135 407//135 408//135
f 409//136 410//136 411//136
f 412//137 413//137 414//137
f 415//138 416//138 417//138
f 418//139 419//139 420//139
f 421//140 422//140 423//140
f 424//141 425//141 426//141
f 427//142 428//142 429//142
f 430//143 431//143 432//143
f 433//144 434//144 435//144
f 436//145 437//145 438//145
f 439//146 440//146 441//146
f 442//147 443//147 444//147
f 445//148 446//148 447//148
f 448//149 449//149 450//149
f 451//150 452//150 453//150
f 454//151 455//151 456//151
f 457//152 458//152 459//152
f 460//153 461//153 462//153
f 463//154 464//154 465//154
f 466//155 467//155 468//155
f 469//156 470//156 471//156
f 472//157 473//157 474//157
f 475//158 476//158 477//158
f 478//159 479//159 480//159
f 481//160 482//160 483//160
f 484//161 485//161 486//161
f 487//162 488//162 489//162
f 490//163 491//163 492//163
f 493//164 494//164 495//164
f 496//165 497//165 498//165
f 499//166 500//166 501//166
f 502//167 503//167 504//167
f 505//168 506//168 507//168
f 508//169 509//169 510//169
f 511//170 512//170 513//170
f 514//171 515//171 516//171
f 517//172 518//172 519//172
f 520//173 521//173 522//173
f 523//174 524//174 525//174
f 526//175 527//175 528//175
f 529//176 530//176 531//176
f 532//177 533//177 534//177
f 535//178 536//178 537//178
f 538//179 539//179 540//179
f 541//180 542//180 543//180
f 544//181 545//181 546//181
f 547//182 548//182 549//182
f 550//183 551//183 552//183
f 553//184 554//184 555//184
f 556//185 557//185 558//185
f 559//186 560//186 561//186
f 562//187 563//187 564//187
f 565//188 566//188 567//188
f 568//189 569//189 570//189
f 571//190 572//190 573//190
f 574//191 575//191 576//191
f 577//192 578//192 579//192
f 580//193 581//193 582//193
f 583//194 584//194 585//194
f 586//195 587//195 588//195
f 589//196 590//196 591//196
f 592//197 593//197 594//197
f 595//198 596//198 597//198
f 598//199 599//199 600//199
f 601//200 602//200 603//200
f 604//201 605//201 606//201
f 607//202 608//202 609//202
f 610//203 611//203 612//203
f 613//204 614//204 615//204
f 616//205 617//205 618//205
f 619//206 620//206 621//206
f 622//207 623//207 624//207
f 625//208 626//208 627//208
f 628//209 629//209 630//209
f 631//210 632//210 633//210
f 634//211 635//211 636//211
f 637//212 638//212 639//212
f 640//213 641//213 642//213
f 643//214 644//214 645//214
f 646//215 647//215 648//215
f 649//216 650//216 651//216
f 652//217 653//217 654//217
f 655//218 656//218 657//218
f 658//219 659//219 660//219
f 661//220 662//220 663//220
f 664//221 665//221 666//221
f 667//222 668//222 669//222
f 670//223 671//223 672//223
f 673//224 674//224 675//224
f 676//225 677//225 678//225
f 679//226 680//226 681//226
f 682//227 683//227 684//227
f 685//228 686//228 687//228
f 688//229 689//229 690//229
f 691//230 692//230 693//230
f 694//231 695//231 696//231
f 697//232 698//232 699//232
f 700//233 701//233 702//233
f 703//234 704//234 705//234
f 706//235 707//235 708//235
f 709//236 710//236 711//236
f 712//237 713//237 714//237
f 715//238 716//238 717//238
f 718//239 719//239 720//239
f 721//240 722//240 723//240
f 724//241 725//241 726//241
f 727//242 728//242 729//242
f 730//243 731//243 732//243
f 733//244 734//244 735//244
f 736//245 737//245 738//245
f 739//246 740//246 741//246
f 742//247 743//247 744//247
f 745//248 746//248 747//248
f 748//249 749//249 750//249
f 751//250 752//250 753//250
f 754//251 755//251 756//251
f 757//252 758//252 759//252
f 760//253 761//253 762//253
f 763//254 764//254 765//254
f 766//255 767//255 768//255
f 769//256 770//256 771//256
f 772//257 773//257 774//257
f 775//258 776//258 777//258
f 778//259 779//259 780//259
f 781//260 782//260 783//260
f 784//261 785//261 786//261
f 787//262 788//262 789//262
f 790//263 791//263 792//263
f 793//264 794//264 795//264
f 796//265 797//265 798//265
f 799//266 800//266 801//266
f 802//267 803//267 804//267
f 805//268 806//268 807//268
f 808//269 809//269 810//269
f 811//270 812//270 813//270
f 814//271 815//271 816//271
f 817//272 818//272 819//272
f 820//273 821//273 822//273
f 823//274 824//274 825//274
f 826//275 827//275 828//275
f 829//276 830//276 831//276
f 832//277 833//277 834//277
f 835//278 836//278 837//278
f 838//279 839//279 840//279
f 841//280 842//280 843//280
f 844//281 845//281 846//281
f 847//282 848//282 849//282
f 850//283 851//283 852//283
f 853//284 854//284 855//284
f 856//285 857//285 858//285
f 859//286 860//286 861//286
f 862//287 863//287 864//287
