# litt worldgen asset - generated by math only
# kit: template/tools/worldgen/
mtllib materials.mtl
o chunk_3_-1
v 48 0.8999 -16
v 48 0.8995 -14.6667
v 49.3333 0.9032 -14.6667
v 48 0.8999 -16
v 49.3333 0.9032 -14.6667
v 49.3333 0.9034 -16
v 62.6667 0.9351 -16
v 62.6667 0.9358 -14.6667
v 64 0.9312 -14.6667
v 48 0.8995 -14.6667
v 48 0.8991 -13.3333
v 49.3333 0.9029 -13.3333
v 48 0.8995 -14.6667
v 49.3333 0.9029 -13.3333
v 49.3333 0.9032 -14.6667
v 61.3333 0.9349 -14.6667
v 62.6667 0.9361 -13.3333
v 62.6667 0.9358 -14.6667
v 62.6667 0.9358 -14.6667
v 62.6667 0.9361 -13.3333
v 64 0.9316 -13.3333
v 62.6667 0.9358 -14.6667
v 64 0.9316 -13.3333
v 64 0.9312 -14.6667
v 48 0.8991 -13.3333
v 48 0.897 -12
v 49.3333 0.9011 -12
v 48 0.8991 -13.3333
v 49.3333 0.9011 -12
v 49.3333 0.9029 -13.3333
v 61.3333 0.9355 -13.3333
v 62.6667 0.934 -12
v 62.6667 0.9361 -13.3333
v 62.6667 0.9361 -13.3333
v 62.6667 0.934 -12
v 64 0.9297 -12
v 62.6667 0.9361 -13.3333
v 64 0.9297 -12
v 64 0.9316 -13.3333
v 48 0.897 -12
v 48 0.8784 -10.6667
v 49.3333 0.8844 -10.6667
v 48 0.897 -12
v 49.3333 0.8844 -10.6667
v 49.3333 0.9011 -12
v 61.3333 0.9339 -12
v 62.6667 0.9134 -10.6667
v 62.6667 0.934 -12
v 62.6667 0.934 -12
v 62.6667 0.9134 -10.6667
v 64 0.9101 -10.6667
v 62.6667 0.934 -12
v 64 0.9101 -10.6667
v 64 0.9297 -12
v 48 0.8784 -10.6667
v 48 0.8468 -9.3333
v 49.3333 0.8545 -9.3333
v 48 0.8784 -10.6667
v 49.3333 0.8545 -9.3333
v 49.3333 0.8844 -10.6667
v 61.3333 0.9133 -10.6667
v 62.6667 0.8751 -9.3333
v 62.6667 0.9134 -10.6667
v 62.6667 0.9134 -10.6667
v 62.6667 0.8751 -9.3333
v 64 0.8701 -9.3333
v 62.6667 0.9134 -10.6667
v 64 0.8701 -9.3333
v 64 0.9101 -10.6667
v 48 0.8468 -9.3333
v 48 0.8017 -8
v 49.3333 0.8106 -8
v 48 0.8468 -9.3333
v 49.3333 0.8106 -8
v 49.3333 0.8545 -9.3333
v 61.3333 0.8779 -9.3333
v 61.3333 0.8299 -8
v 62.6667 0.8254 -8
v 61.3333 0.8779 -9.3333
v 62.6667 0.8254 -8
v 62.6667 0.8751 -9.3333
v 62.6667 0.8751 -9.3333
v 62.6667 0.8254 -8
v 64 0.8204 -8
v 62.6667 0.8751 -9.3333
v 64 0.8204 -8
v 64 0.8701 -9.3333
v 48 0.8017 -8
v 48 0.7511 -6.6667
v 49.3333 0.7614 -6.6667
v 48 0.8017 -8
v 49.3333 0.7614 -6.6667
v 49.3333 0.8106 -8
v 61.3333 0.8299 -8
v 61.3333 0.7747 -6.6667
v 62.6667 0.7706 -6.6667
v 61.3333 0.8299 -8
v 62.6667 0.7706 -6.6667
v 62.6667 0.8254 -8
v 62.6667 0.8254 -8
v 62.6667 0.7706 -6.6667
v 64 0.7656 -6.6667
v 62.6667 0.8254 -8
v 64 0.7656 -6.6667
v 64 0.8204 -8
v 48 0.7511 -6.6667
v 48 0.6822 -5.3333
v 49.3333 0.6936 -5.3333
v 48 0.7511 -6.6667
v 49.3333 0.6936 -5.3333
v 49.3333 0.7614 -6.6667
v 62.6667 0.7706 -6.6667
v 64 0.6921 -5.3333
v 64 0.7656 -6.6667
v 49.3333 0.9034 -16
v 49.3333 0.9032 -14.6667
v 50.6667 0.9039 -14.6667
v 49.3333 0.9034 -16
v 50.6667 0.9039 -14.6667
v 50.6667 0.9042 -16
v 50.6667 0.9042 -16
v 50.6667 0.9039 -14.6667
v 52 0.9078 -14.6667
v 50.6667 0.9042 -16
v 52 0.9078 -14.6667
v 52 0.9085 -16
v 52 0.9085 -16
v 52 0.9078 -14.6667
v 53.3333 0.9136 -14.6667
v 52 0.9085 -16
v 53.3333 0.9136 -14.6667
v 53.3333 0.9138 -16
v 53.3333 0.9138 -16
v 53.3333 0.9136 -14.6667
v 54.6667 0.9118 -14.6667
v 53.3333 0.9138 -16
v 54.6667 0.9118 -14.6667
v 54.6667 0.9125 -16
v 54.6667 0.9125 -16
v 54.6667 0.9118 -14.6667
v 56 0.9147 -14.6667
v 54.6667 0.9125 -16
v 56 0.9147 -14.6667
v 56 0.9152 -16
v 56 0.9152 -16
v 56 0.9147 -14.6667
v 57.3333 0.9266 -14.6667
v 56 0.9152 -16
v 57.3333 0.9266 -14.6667
v 57.3333 0.9271 -16
v 57.3333 0.9271 -16
v 57.3333 0.9266 -14.6667
v 58.6667 0.9282 -14.6667
v 57.3333 0.9271 -16
v 58.6667 0.9282 -14.6667
v 58.6667 0.9285 -16
v 49.3333 0.9032 -14.6667
v 49.3333 0.9029 -13.3333
v 50.6667 0.9036 -13.3333
v 49.3333 0.9032 -14.6667
v 50.6667 0.9036 -13.3333
v 50.6667 0.9039 -14.6667
v 50.6667 0.9039 -14.6667
v 50.6667 0.9036 -13.3333
v 52 0.9075 -13.3333
v 50.6667 0.9039 -14.6667
v 52 0.9075 -13.3333
v 52 0.9078 -14.6667
v 52 0.9078 -14.6667
v 52 0.9075 -13.3333
v 53.3333 0.9134 -13.3333
v 52 0.9078 -14.6667
v 53.3333 0.9134 -13.3333
v 53.3333 0.9136 -14.6667
v 53.3333 0.9136 -14.6667
v 53.3333 0.9134 -13.3333
v 54.6667 0.9116 -13.3333
v 53.3333 0.9136 -14.6667
v 54.6667 0.9116 -13.3333
v 54.6667 0.9118 -14.6667
v 54.6667 0.9118 -14.6667
v 54.6667 0.9116 -13.3333
v 56 0.9141 -13.3333
v 54.6667 0.9118 -14.6667
v 56 0.9141 -13.3333
v 56 0.9147 -14.6667
v 56 0.9147 -14.6667
v 56 0.9141 -13.3333
v 57.3333 0.9262 -13.3333
v 56 0.9147 -14.6667
v 57.3333 0.9262 -13.3333
v 57.3333 0.9266 -14.6667
v 57.3333 0.9266 -14.6667
v 57.3333 0.9262 -13.3333
v 58.6667 0.9279 -13.3333
v 57.3333 0.9266 -14.6667
v 58.6667 0.9279 -13.3333
v 58.6667 0.9282 -14.6667
v 49.3333 0.9029 -13.3333
v 49.3333 0.9011 -12
v 50.6667 0.9018 -12
v 49.3333 0.9029 -13.3333
v 50.6667 0.9018 -12
v 50.6667 0.9036 -13.3333
v 50.6667 0.9036 -13.3333
v 50.6667 0.9018 -12
v 52 0.9056 -12
v 50.6667 0.9036 -13.3333
v 52 0.9056 -12
v 52 0.9075 -13.3333
v 52 0.9075 -13.3333
v 52 0.9056 -12
v 53.3333 0.9114 -12
v 52 0.9075 -13.3333
v 53.3333 0.9114 -12
v 53.3333 0.9134 -13.3333
v 53.3333 0.9134 -13.3333
v 53.3333 0.9114 -12
v 54.6667 0.9102 -12
v 53.3333 0.9134 -13.3333
v 54.6667 0.9102 -12
v 54.6667 0.9116 -13.3333
v 54.6667 0.9116 -13.3333
v 54.6667 0.9102 -12
v 56 0.9128 -12
v 54.6667 0.9116 -13.3333
v 56 0.9128 -12
v 56 0.9141 -13.3333
v 56 0.9141 -13.3333
v 56 0.9128 -12
v 57.3333 0.9248 -12
v 56 0.9141 -13.3333
v 57.3333 0.9248 -12
v 57.3333 0.9262 -13.3333
v 57.3333 0.9262 -13.3333
v 57.3333 0.9248 -12
v 58.6667 0.9264 -12
v 57.3333 0.9262 -13.3333
v 58.6667 0.9264 -12
v 58.6667 0.9279 -13.3333
v 49.3333 0.9011 -12
v 49.3333 0.8844 -10.6667
v 50.6667 0.8849 -10.6667
v 49.3333 0.9011 -12
v 50.6667 0.8849 -10.6667
v 50.6667 0.9018 -12
v 50.6667 0.9018 -12
v 50.6667 0.8849 -10.6667
v 52 0.8868 -10.6667
v 50.6667 0.9018 -12
v 52 0.8868 -10.6667
v 52 0.9056 -12
v 52 0.9056 -12
v 52 0.8868 -10.6667
v 53.3333 0.8917 -10.6667
v 52 0.9056 -12
v 53.3333 0.8917 -10.6667
v 53.3333 0.9114 -12
v 53.3333 0.9114 -12
v 53.3333 0.8917 -10.6667
v 54.6667 0.8927 -10.6667
v 53.3333 0.9114 -12
v 54.6667 0.8927 -10.6667
v 54.6667 0.9102 -12
v 54.6667 0.9102 -12
v 54.6667 0.8927 -10.6667
v 56 0.8965 -10.6667
v 54.6667 0.9102 -12
v 56 0.8965 -10.6667
v 56 0.9128 -12
v 56 0.9128 -12
v 56 0.8965 -10.6667
v 57.3333 0.9074 -10.6667
v 56 0.9128 -12
v 57.3333 0.9074 -10.6667
v 57.3333 0.9248 -12
v 57.3333 0.9248 -12
v 57.3333 0.9074 -10.6667
v 58.6667 0.9065 -10.6667
v 57.3333 0.9248 -12
v 58.6667 0.9065 -10.6667
v 58.6667 0.9264 -12
v 49.3333 0.8844 -10.6667
v 49.3333 0.8545 -9.3333
v 50.6667 0.8533 -9.3333
v 49.3333 0.8844 -10.6667
v 50.6667 0.8533 -9.3333
v 50.6667 0.8849 -10.6667
v 50.6667 0.8849 -10.6667
v 50.6667 0.8533 -9.3333
v 52 0.8525 -9.3333
v 50.6667 0.8849 -10.6667
v 52 0.8525 -9.3333
v 52 0.8868 -10.6667
v 52 0.8868 -10.6667
v 52 0.8525 -9.3333
v 53.3333 0.855 -9.3333
v 52 0.8868 -10.6667
v 53.3333 0.855 -9.3333
v 53.3333 0.8917 -10.6667
v 53.3333 0.8917 -10.6667
v 53.3333 0.855 -9.3333
v 54.6667 0.8624 -9.3333
v 53.3333 0.8917 -10.6667
v 54.6667 0.8624 -9.3333
v 54.6667 0.8927 -10.6667
v 54.6667 0.8927 -10.6667
v 54.6667 0.8624 -9.3333
v 56 0.8645 -9.3333
v 54.6667 0.8927 -10.6667
v 56 0.8645 -9.3333
v 56 0.8965 -10.6667
v 56 0.8965 -10.6667
v 56 0.8645 -9.3333
v 57.3333 0.8721 -9.3333
v 56 0.8965 -10.6667
v 57.3333 0.8721 -9.3333
v 57.3333 0.9074 -10.6667
v 57.3333 0.9074 -10.6667
v 57.3333 0.8721 -9.3333
v 58.6667 0.8676 -9.3333
v 57.3333 0.9074 -10.6667
v 58.6667 0.8676 -9.3333
v 58.6667 0.9065 -10.6667
v 49.3333 0.8545 -9.3333
v 49.3333 0.8106 -8
v 50.6667 0.8098 -8
v 49.3333 0.8545 -9.3333
v 50.6667 0.8098 -8
v 50.6667 0.8533 -9.3333
v 50.6667 0.8533 -9.3333
v 50.6667 0.8098 -8
v 52 0.8091 -8
v 50.6667 0.8533 -9.3333
v 52 0.8091 -8
v 52 0.8525 -9.3333
v 52 0.8525 -9.3333
v 52 0.8091 -8
v 53.3333 0.8112 -8
v 52 0.8525 -9.3333
v 53.3333 0.8112 -8
v 53.3333 0.855 -9.3333
v 53.3333 0.855 -9.3333
v 53.3333 0.8112 -8
v 54.6667 0.8184 -8
v 53.3333 0.855 -9.3333
v 54.6667 0.8184 -8
v 54.6667 0.8624 -9.3333
v 54.6667 0.8624 -9.3333
v 54.6667 0.8184 -8
v 56 0.8198 -8
v 54.6667 0.8624 -9.3333
v 56 0.8198 -8
v 56 0.8645 -9.3333
v 56 0.8645 -9.3333
v 56 0.8198 -8
v 57.3333 0.8267 -8
v 56 0.8645 -9.3333
v 57.3333 0.8267 -8
v 57.3333 0.8721 -9.3333
v 57.3333 0.8721 -9.3333
v 57.3333 0.8267 -8
v 58.6667 0.8213 -8
v 57.3333 0.8721 -9.3333
v 58.6667 0.8213 -8
v 58.6667 0.8676 -9.3333
v 49.3333 0.8106 -8
v 49.3333 0.7614 -6.6667
v 50.6667 0.7605 -6.6667
v 49.3333 0.8106 -8
v 50.6667 0.7605 -6.6667
v 50.6667 0.8098 -8
v 50.6667 0.8098 -8
v 50.6667 0.7605 -6.6667
v 52 0.7591 -6.6667
v 50.6667 0.8098 -8
v 52 0.7591 -6.6667
v 52 0.8091 -8
v 52 0.8091 -8
v 52 0.7591 -6.6667
v 53.3333 0.7607 -6.6667
v 52 0.8091 -8
v 53.3333 0.7607 -6.6667
v 53.3333 0.8112 -8
v 53.3333 0.8112 -8
v 53.3333 0.7607 -6.6667
v 54.6667 0.7676 -6.6667
v 53.3333 0.8112 -8
v 54.6667 0.7676 -6.6667
v 54.6667 0.8184 -8
v 54.6667 0.8184 -8
v 54.6667 0.7676 -6.6667
v 56 0.7681 -6.6667
v 54.6667 0.8184 -8
v 56 0.7681 -6.6667
v 56 0.8198 -8
v 56 0.8198 -8
v 56 0.7681 -6.6667
v 57.3333 0.7742 -6.6667
v 56 0.8198 -8
v 57.3333 0.7742 -6.6667
v 57.3333 0.8267 -8
v 57.3333 0.8267 -8
v 57.3333 0.7742 -6.6667
v 58.6667 0.7676 -6.6667
v 57.3333 0.8267 -8
v 58.6667 0.7676 -6.6667
v 58.6667 0.8213 -8
v 49.3333 0.7614 -6.6667
v 49.3333 0.6936 -5.3333
v 50.6667 0.6928 -5.3333
v 49.3333 0.7614 -6.6667
v 50.6667 0.6928 -5.3333
v 50.6667 0.7605 -6.6667
v 50.6667 0.7605 -6.6667
v 50.6667 0.6928 -5.3333
v 52 0.6904 -5.3333
v 50.6667 0.7605 -6.6667
v 52 0.6904 -5.3333
v 52 0.7591 -6.6667
v 52 0.7591 -6.6667
v 52 0.6904 -5.3333
v 53.3333 0.6926 -5.3333
v 52 0.7591 -6.6667
v 53.3333 0.6926 -5.3333
v 53.3333 0.7607 -6.6667
v 53.3333 0.7607 -6.6667
v 53.3333 0.6926 -5.3333
v 54.6667 0.6961 -5.3333
v 53.3333 0.7607 -6.6667
v 54.6667 0.6961 -5.3333
v 54.6667 0.7676 -6.6667
v 54.6667 0.7676 -6.6667
v 54.6667 0.6961 -5.3333
v 56 0.6973 -5.3333
v 54.6667 0.7676 -6.6667
v 56 0.6973 -5.3333
v 56 0.7681 -6.6667
v 56 0.7681 -6.6667
v 56 0.6973 -5.3333
v 57.3333 0.7016 -5.3333
v 56 0.7681 -6.6667
v 57.3333 0.7016 -5.3333
v 57.3333 0.7742 -6.6667
v 57.3333 0.7742 -6.6667
v 57.3333 0.7016 -5.3333
v 58.6667 0.6948 -5.3333
v 57.3333 0.7742 -6.6667
v 58.6667 0.6948 -5.3333
v 58.6667 0.7676 -6.6667
v 48 0.6822 -5.3333
v 48 0.5695 -4
v 49.3333 0.5783 -4
v 48 0.6822 -5.3333
v 49.3333 0.5783 -4
v 49.3333 0.6936 -5.3333
v 49.3333 0.6936 -5.3333
v 49.3333 0.5783 -4
v 50.6667 0.5769 -4
v 49.3333 0.6936 -5.3333
v 50.6667 0.5769 -4
v 50.6667 0.6928 -5.3333
v 50.6667 0.6928 -5.3333
v 50.6667 0.5769 -4
v 52 0.5734 -4
v 50.6667 0.6928 -5.3333
v 52 0.5734 -4
v 52 0.6904 -5.3333
v 52 0.6904 -5.3333
v 52 0.5734 -4
v 53.3333 0.5752 -4
v 52 0.6904 -5.3333
v 53.3333 0.5752 -4
v 53.3333 0.6926 -5.3333
v 53.3333 0.6926 -5.3333
v 53.3333 0.5752 -4
v 54.6667 0.5761 -4
v 53.3333 0.6926 -5.3333
v 54.6667 0.5761 -4
v 54.6667 0.6961 -5.3333
v 54.6667 0.6961 -5.3333
v 54.6667 0.5761 -4
v 56 0.5772 -4
v 54.6667 0.6961 -5.3333
v 56 0.5772 -4
v 56 0.6973 -5.3333
v 56 0.6973 -5.3333
v 56 0.5772 -4
v 57.3333 0.5801 -4
v 56 0.6973 -5.3333
v 57.3333 0.5801 -4
v 57.3333 0.7016 -5.3333
v 57.3333 0.7016 -5.3333
v 57.3333 0.5801 -4
v 58.6667 0.5721 -4
v 57.3333 0.7016 -5.3333
v 58.6667 0.5721 -4
v 58.6667 0.6948 -5.3333
v 48 0.5695 -4
v 48 0.4433 -2.6667
v 49.3333 0.4471 -2.6667
v 48 0.5695 -4
v 49.3333 0.4471 -2.6667
v 49.3333 0.5783 -4
v 49.3333 0.5783 -4
v 49.3333 0.4471 -2.6667
v 50.6667 0.4447 -2.6667
v 49.3333 0.5783 -4
v 50.6667 0.4447 -2.6667
v 50.6667 0.5769 -4
v 50.6667 0.5769 -4
v 50.6667 0.4447 -2.6667
v 52 0.4399 -2.6667
v 50.6667 0.5769 -4
v 52 0.4399 -2.6667
v 52 0.5734 -4
v 52 0.5734 -4
v 52 0.4399 -2.6667
v 53.3333 0.4402 -2.6667
v 52 0.5734 -4
v 53.3333 0.4402 -2.6667
v 53.3333 0.5752 -4
v 53.3333 0.5752 -4
v 53.3333 0.4402 -2.6667
v 54.6667 0.44 -2.6667
v 53.3333 0.5752 -4
v 54.6667 0.44 -2.6667
v 54.6667 0.5761 -4
v 54.6667 0.5761 -4
v 54.6667 0.44 -2.6667
v 56 0.4401 -2.6667
v 54.6667 0.5761 -4
v 56 0.4401 -2.6667
v 56 0.5772 -4
v 56 0.5772 -4
v 56 0.4401 -2.6667
v 57.3333 0.4425 -2.6667
v 56 0.5772 -4
v 57.3333 0.4425 -2.6667
v 57.3333 0.5801 -4
v 57.3333 0.5801 -4
v 57.3333 0.4425 -2.6667
v 58.6667 0.434 -2.6667
v 57.3333 0.5801 -4
v 58.6667 0.434 -2.6667
v 58.6667 0.5721 -4
v 48 0.4433 -2.6667
v 48 0.3291 -1.3333
v 49.3333 0.3268 -1.3333
v 48 0.4433 -2.6667
v 49.3333 0.3268 -1.3333
v 49.3333 0.4471 -2.6667
v 49.3333 0.4471 -2.6667
v 49.3333 0.3268 -1.3333
v 50.6667 0.3234 -1.3333
v 49.3333 0.4471 -2.6667
v 50.6667 0.3234 -1.3333
v 50.6667 0.4447 -2.6667
v 50.6667 0.4447 -2.6667
v 50.6667 0.3234 -1.3333
v 52 0.3169 -1.3333
v 50.6667 0.4447 -2.6667
v 52 0.3169 -1.3333
v 52 0.4399 -2.6667
v 52 0.4399 -2.6667
v 52 0.3169 -1.3333
v 53.3333 0.3148 -1.3333
v 52 0.4399 -2.6667
v 53.3333 0.3148 -1.3333
v 53.3333 0.4402 -2.6667
v 53.3333 0.4402 -2.6667
v 53.3333 0.3148 -1.3333
v 54.6667 0.3127 -1.3333
v 53.3333 0.4402 -2.6667
v 54.6667 0.3127 -1.3333
v 54.6667 0.44 -2.6667
v 54.6667 0.44 -2.6667
v 54.6667 0.3127 -1.3333
v 56 0.3107 -1.3333
v 54.6667 0.44 -2.6667
v 56 0.3107 -1.3333
v 56 0.4401 -2.6667
v 56 0.4401 -2.6667
v 56 0.3107 -1.3333
v 57.3333 0.3167 -1.3333
v 56 0.4401 -2.6667
v 57.3333 0.3167 -1.3333
v 57.3333 0.4425 -2.6667
v 57.3333 0.4425 -2.6667
v 57.3333 0.3167 -1.3333
v 58.6667 0.3179 -1.3333
v 57.3333 0.4425 -2.6667
v 58.6667 0.3179 -1.3333
v 58.6667 0.434 -2.6667
v 58.6667 0.3179 -1.3333
v 58.6667 0.2744 0
v 60 0.2709 0
v 58.6667 0.3179 -1.3333
v 60 0.2709 0
v 60 0.3153 -1.3333
v 60 0.3153 -1.3333
v 60 0.2709 0
v 61.3333 0.2655 0
v 60 0.3153 -1.3333
v 61.3333 0.2655 0
v 61.3333 0.3111 -1.3333
v 61.3333 0.3111 -1.3333
v 61.3333 0.2655 0
v 62.6667 0.2699 0
v 61.3333 0.3111 -1.3333
v 62.6667 0.2699 0
v 62.6667 0.3034 -1.3333
v 62.6667 0.3034 -1.3333
v 62.6667 0.2699 0
v 64 0.2718 0
v 62.6667 0.3034 -1.3333
v 64 0.2718 0
v 64 0.3076 -1.3333
v 58.6667 0.9285 -16
v 58.6667 0.9282 -14.6667
v 60 0.9313 -14.6667
v 58.6667 0.9285 -16
v 60 0.9313 -14.6667
v 60 0.9314 -16
v 60 0.9314 -16
v 60 0.9313 -14.6667
v 61.3333 0.9349 -14.6667
v 60 0.9314 -16
v 61.3333 0.9349 -14.6667
v 61.3333 0.9346 -16
v 61.3333 0.9346 -16
v 61.3333 0.9349 -14.6667
v 62.6667 0.9358 -14.6667
v 61.3333 0.9346 -16
v 62.6667 0.9358 -14.6667
v 62.6667 0.9351 -16
v 62.6667 0.9351 -16
v 64 0.9312 -14.6667
v 64 0.9302 -16
v 58.6667 0.9282 -14.6667
v 58.6667 0.9279 -13.3333
v 60 0.9313 -13.3333
v 58.6667 0.9282 -14.6667
v 60 0.9313 -13.3333
v 60 0.9313 -14.6667
v 60 0.9313 -14.6667
v 60 0.9313 -13.3333
v 61.3333 0.9355 -13.3333
v 60 0.9313 -14.6667
v 61.3333 0.9355 -13.3333
v 61.3333 0.9349 -14.6667
v 61.3333 0.9349 -14.6667
v 61.3333 0.9355 -13.3333
v 62.6667 0.9361 -13.3333
v 58.6667 0.9279 -13.3333
v 58.6667 0.9264 -12
v 60 0.9299 -12
v 58.6667 0.9279 -13.3333
v 60 0.9299 -12
v 60 0.9313 -13.3333
v 60 0.9313 -13.3333
v 60 0.9299 -12
v 61.3333 0.9339 -12
v 60 0.9313 -13.3333
v 61.3333 0.9339 -12
v 61.3333 0.9355 -13.3333
v 61.3333 0.9355 -13.3333
v 61.3333 0.9339 -12
v 62.6667 0.934 -12
v 58.6667 0.9264 -12
v 58.6667 0.9065 -10.6667
v 60 0.909 -10.6667
v 58.6667 0.9264 -12
v 60 0.909 -10.6667
v 60 0.9299 -12
v 60 0.9299 -12
v 60 0.909 -10.6667
v 61.3333 0.9133 -10.6667
v 60 0.9299 -12
v 61.3333 0.9133 -10.6667
v 61.3333 0.9339 -12
v 61.3333 0.9339 -12
v 61.3333 0.9133 -10.6667
v 62.6667 0.9134 -10.6667
v 58.6667 0.9065 -10.6667
v 58.6667 0.8676 -9.3333
v 60 0.8704 -9.3333
v 58.6667 0.9065 -10.6667
v 60 0.8704 -9.3333
v 60 0.909 -10.6667
v 60 0.909 -10.6667
v 60 0.8704 -9.3333
v 61.3333 0.8779 -9.3333
v 60 0.909 -10.6667
v 61.3333 0.8779 -9.3333
v 61.3333 0.9133 -10.6667
v 61.3333 0.9133 -10.6667
v 61.3333 0.8779 -9.3333
v 62.6667 0.8751 -9.3333
v 58.6667 0.8676 -9.3333
v 58.6667 0.8213 -8
v 60 0.8233 -8
v 58.6667 0.8676 -9.3333
v 60 0.8233 -8
v 60 0.8704 -9.3333
v 60 0.8704 -9.3333
v 60 0.8233 -8
v 61.3333 0.8299 -8
v 60 0.8704 -9.3333
v 61.3333 0.8299 -8
v 61.3333 0.8779 -9.3333
v 58.6667 0.8213 -8
v 58.6667 0.7676 -6.6667
v 60 0.7684 -6.6667
v 58.6667 0.8213 -8
v 60 0.7684 -6.6667
v 60 0.8233 -8
v 60 0.8233 -8
v 60 0.7684 -6.6667
v 61.3333 0.7747 -6.6667
v 60 0.8233 -8
v 61.3333 0.7747 -6.6667
v 61.3333 0.8299 -8
v 58.6667 0.7676 -6.6667
v 58.6667 0.6948 -5.3333
v 60 0.695 -5.3333
v 58.6667 0.7676 -6.6667
v 60 0.695 -5.3333
v 60 0.7684 -6.6667
v 60 0.7684 -6.6667
v 60 0.695 -5.3333
v 61.3333 0.6994 -5.3333
v 60 0.7684 -6.6667
v 61.3333 0.6994 -5.3333
v 61.3333 0.7747 -6.6667
v 61.3333 0.7747 -6.6667
v 61.3333 0.6994 -5.3333
v 62.6667 0.6953 -5.3333
v 61.3333 0.7747 -6.6667
v 62.6667 0.6953 -5.3333
v 62.6667 0.7706 -6.6667
v 62.6667 0.7706 -6.6667
v 62.6667 0.6953 -5.3333
v 64 0.6921 -5.3333
v 58.6667 0.6948 -5.3333
v 58.6667 0.5721 -4
v 60 0.5706 -4
v 58.6667 0.6948 -5.3333
v 60 0.5706 -4
v 60 0.695 -5.3333
v 60 0.695 -5.3333
v 60 0.5706 -4
v 61.3333 0.5721 -4
v 60 0.695 -5.3333
v 61.3333 0.5721 -4
v 61.3333 0.6994 -5.3333
v 61.3333 0.6994 -5.3333
v 61.3333 0.5721 -4
v 62.6667 0.5672 -4
v 61.3333 0.6994 -5.3333
v 62.6667 0.5672 -4
v 62.6667 0.6953 -5.3333
v 62.6667 0.6953 -5.3333
v 62.6667 0.5672 -4
v 64 0.5672 -4
v 62.6667 0.6953 -5.3333
v 64 0.5672 -4
v 64 0.6921 -5.3333
v 58.6667 0.5721 -4
v 58.6667 0.434 -2.6667
v 60 0.4307 -2.6667
v 58.6667 0.5721 -4
v 60 0.4307 -2.6667
v 60 0.5706 -4
v 60 0.5706 -4
v 60 0.4307 -2.6667
v 61.3333 0.4302 -2.6667
v 60 0.5706 -4
v 61.3333 0.4302 -2.6667
v 61.3333 0.5721 -4
v 61.3333 0.5721 -4
v 61.3333 0.4302 -2.6667
v 62.6667 0.4244 -2.6667
v 61.3333 0.5721 -4
v 62.6667 0.4244 -2.6667
v 62.6667 0.5672 -4
v 62.6667 0.5672 -4
v 62.6667 0.4244 -2.6667
v 64 0.4274 -2.6667
v 62.6667 0.5672 -4
v 64 0.4274 -2.6667
v 64 0.5672 -4
v 58.6667 0.434 -2.6667
v 58.6667 0.3179 -1.3333
v 60 0.3153 -1.3333
v 58.6667 0.434 -2.6667
v 60 0.3153 -1.3333
v 60 0.4307 -2.6667
v 60 0.4307 -2.6667
v 60 0.3153 -1.3333
v 61.3333 0.3111 -1.3333
v 60 0.4307 -2.6667
v 61.3333 0.3111 -1.3333
v 61.3333 0.4302 -2.6667
v 61.3333 0.4302 -2.6667
v 61.3333 0.3111 -1.3333
v 62.6667 0.3034 -1.3333
v 61.3333 0.4302 -2.6667
v 62.6667 0.3034 -1.3333
v 62.6667 0.4244 -2.6667
v 62.6667 0.4244 -2.6667
v 62.6667 0.3034 -1.3333
v 64 0.3076 -1.3333
v 62.6667 0.4244 -2.6667
v 64 0.3076 -1.3333
v 64 0.4274 -2.6667
v 48 0.3291 -1.3333
v 48 0.3012 0
v 49.3333 0.2937 0
v 48 0.3291 -1.3333
v 49.3333 0.2937 0
v 49.3333 0.3268 -1.3333
v 49.3333 0.3268 -1.3333
v 49.3333 0.2937 0
v 50.6667 0.295 0
v 49.3333 0.3268 -1.3333
v 50.6667 0.295 0
v 50.6667 0.3234 -1.3333
v 50.6667 0.3234 -1.3333
v 50.6667 0.295 0
v 52 0.2966 0
v 50.6667 0.3234 -1.3333
v 52 0.2966 0
v 52 0.3169 -1.3333
v 52 0.3169 -1.3333
v 52 0.2966 0
v 53.3333 0.2912 0
v 52 0.3169 -1.3333
v 53.3333 0.2912 0
v 53.3333 0.3148 -1.3333
v 53.3333 0.3148 -1.3333
v 53.3333 0.2912 0
v 54.6667 0.2847 0
v 53.3333 0.3148 -1.3333
v 54.6667 0.2847 0
v 54.6667 0.3127 -1.3333
v 54.6667 0.3127 -1.3333
v 54.6667 0.2847 0
v 56 0.2793 0
v 54.6667 0.3127 -1.3333
v 56 0.2793 0
v 56 0.3107 -1.3333
v 56 0.3107 -1.3333
v 56 0.2793 0
v 57.3333 0.2718 0
v 56 0.3107 -1.3333
v 57.3333 0.2718 0
v 57.3333 0.3167 -1.3333
v 57.3333 0.3167 -1.3333
v 57.3333 0.2718 0
v 58.6667 0.2744 0
v 57.3333 0.3167 -1.3333
v 58.6667 0.2744 0
v 58.6667 0.3179 -1.3333
vn -0.0028 1 0.0003
vn -0.0027 1 0.0002
vn 0.0035 1 -0.0005
vn -0.0029 1 0.0003
vn -0.0028 1 0.0002
vn -0.0007 1 -0.0002
vn 0.0034 1 -0.0002
vn 0.0035 1 -0.0003
vn -0.0031 1 0.0016
vn -0.0029 1 0.0014
vn -0.0005 1 0.0016
vn 0.0032 1 0.0016
vn 0.0034 1 0.0014
vn -0.0045 0.9999 0.014
vn -0.0031 0.9999 0.0125
vn -0 0.9999 0.0154
vn 0.0025 0.9999 0.0154
vn 0.0032 0.9999 0.0147
vn -0.0058 0.9997 0.0237
vn -0.0045 0.9997 0.0224
vn -0.0001 0.9996 0.0287
vn 0.0037 0.9996 0.0287
vn 0.0025 0.9995 0.03
vn -0.0067 0.9994 0.0338
vn -0.0058 0.9994 0.0329
vn 0.0033 0.9993 0.036
vn 0.0021 0.9993 0.0373
vn 0.0038 0.9993 0.0373
vn 0.0037 0.9993 0.0373
vn -0.0078 0.9993 0.0379
vn -0.0067 0.9993 0.0369
vn 0.0031 0.9991 0.0413
vn 0.0033 0.9992 0.0411
vn 0.0037 0.9991 0.0411
vn 0.0038 0.9991 0.0411
vn -0.0085 0.9986 0.0516
vn -0.0078 0.9987 0.0508
vn 0.0037 0.9985 0.055
vn -0.0005 1 0.0002
vn -0.0006 1 0.0003
vn -0.0029 1 0.0003
vn -0.0032 1 0.0006
vn -0.0044 1 0.0006
vn -0.004 1 0.0002
vn 0.0013 1 0.0002
vn 0.001 1 0.0005
vn -0.0022 1 0.0005
vn -0.0021 1 0.0004
vn -0.009 1 0.0004
vn -0.0089 1 0.0004
vn -0.0011 1 0.0004
vn -0.001 1 0.0002
vn -0.0005 1 0.0002
vn -0.0005 1 0.0002
vn -0.0029 1 0.0002
vn -0.0029 1 0.0002
vn -0.0044 1 0.0002
vn -0.0044 1 0.0001
vn 0.0013 1 0.0001
vn 0.0013 1 0.0001
vn -0.0019 1 0.0001
vn -0.0022 1 0.0004
vn -0.0091 1 0.0004
vn -0.009 1 0.0003
vn -0.0013 1 0.0003
vn -0.0011 1 0.0002
vn -0.0006 1 0.0014
vn -0.0005 1 0.0013
vn -0.0029 1 0.0013
vn -0.0029 1 0.0014
vn -0.0043 1 0.0014
vn -0.0044 1 0.0015
vn 0.0009 1 0.0015
vn 0.0013 1 0.0011
vn -0.002 1 0.0011
vn -0.0019 1 0.001
vn -0.009 1 0.001
vn -0.0091 1 0.0011
vn -0.0012 1 0.0011
vn -0.0013 1 0.0011
vn -0.0004 0.9999 0.0125
vn -0.0006 0.9999 0.0127
vn -0.0015 0.9999 0.0127
vn -0.0029 0.9999 0.0141
vn -0.0037 0.9999 0.0141
vn -0.0043 0.9999 0.0148
vn -0.0007 0.9999 0.0148
vn 0.0009 0.9999 0.0131
vn -0.0029 0.9999 0.0131
vn -0.002 0.9999 0.0122
vn -0.0081 0.9999 0.0122
vn -0.009 0.9999 0.0131
vn 0.0007 0.9999 0.0131
vn -0.0012 0.9999 0.0149
vn 0.0009 0.9997 0.0224
vn -0.0004 0.9997 0.0237
vn 0.0006 0.9997 0.0237
vn -0.0015 0.9997 0.0257
vn -0.0019 0.9997 0.0257
vn -0.0037 0.9996 0.0275
vn -0.0055 0.9996 0.0275
vn -0.0007 0.9997 0.0228
vn -0.0016 0.9997 0.0228
vn -0.0029 0.9997 0.024
vn -0.0057 0.9997 0.024
vn -0.0081 0.9996 0.0264
vn 0.0034 0.9996 0.0264
vn 0.0007 0.9996 0.0291
vn 0.0006 0.9995 0.0329
vn 0.0009 0.9995 0.0326
vn 0.0005 0.9995 0.0326
vn 0.0006 0.9995 0.0325
vn -0.0016 0.9995 0.0325
vn -0.0019 0.9995 0.0328
vn -0.0054 0.9994 0.0328
vn -0.0055 0.9994 0.0329
vn -0.001 0.9995 0.0329
vn -0.0016 0.9994 0.0335
vn -0.0051 0.9994 0.0335
vn -0.0057 0.9994 0.0341
vn 0.004 0.9994 0.0341
vn 0.0034 0.9994 0.0347
vn 0.0007 0.9993 0.0369
vn 0.0006 0.9993 0.0369
vn 0.001 0.9993 0.0369
vn 0.0005 0.9993 0.0374
vn -0.0012 0.9993 0.0374
vn -0.0016 0.9993 0.0378
vn -0.0052 0.9993 0.0378
vn -0.0054 0.9993 0.0381
vn -0.0004 0.9993 0.0381
vn -0.001 0.9993 0.0387
vn -0.0045 0.9992 0.0387
vn -0.0051 0.9992 0.0393
vn 0.0049 0.9992 0.0393
vn 0.004 0.9992 0.0403
vn 0.0006 0.9987 0.0508
vn 0.0007 0.9987 0.0507
vn 0.0018 0.9987 0.0507
vn 0.001 0.9987 0.0515
vn -0.0016 0.9987 0.0515
vn -0.0012 0.9987 0.051
vn -0.0026 0.9987 0.051
vn -0.0052 0.9986 0.0535
vn -0.0009 0.9986 0.0535
vn -0.0004 0.9986 0.0531
vn -0.0032 0.9986 0.0531
vn -0.0045 0.9985 0.0544
vn 0.0051 0.9985 0.0544
vn 0.0049 0.9985 0.0545
vn -0.0065 0.9964 0.0842
vn -0.0085 0.9962 0.0861
vn 0.001 0.9963 0.0861
vn 0.0006 0.9962 0.0866
vn 0.0026 0.9962 0.0866
vn 0.0018 0.9962 0.0875
vn -0.0013 0.9962 0.0875
vn -0.0016 0.9961 0.0877
vn -0.0007 0.9961 0.0877
vn -0.0026 0.996 0.0896
vn -0.0008 0.996 0.0896
vn -0.0009 0.996 0.0897
vn -0.0021 0.996 0.0897
vn -0.0032 0.9959 0.0908
vn 0.0059 0.9959 0.0908
vn 0.0051 0.9958 0.0916
vn -0.0029 0.9955 0.0943
vn -0.0065 0.9952 0.0979
vn 0.0018 0.9952 0.0979
vn 0.001 0.9951 0.0987
vn 0.0036 0.9951 0.0987
vn 0.0026 0.995 0.0996
vn -0.0002 0.995 0.0996
vn -0.0013 0.9949 0.1007
vn 0.0002 0.9949 0.1007
vn -0.0007 0.9948 0.1016
vn -0 0.9948 0.1016
vn -0.0008 0.9947 0.1023
vn -0.0018 0.9947 0.1023
vn -0.0021 0.9947 0.1026
vn 0.0064 0.9947 0.1026
vn 0.0059 0.9947 0.103
vn 0.0018 0.9964 0.0853
vn -0.0029 0.9959 0.0899
vn 0.0025 0.996 0.0899
vn 0.0018 0.9959 0.0906
vn 0.0048 0.9959 0.0906
vn 0.0036 0.9958 0.0918
vn 0.0016 0.9958 0.0918
vn -0.0002 0.9956 0.0936
vn 0.0016 0.9956 0.0936
vn 0.0002 0.9955 0.095
vn 0.0015 0.9955 0.095
vn -0 0.9953 0.0965
vn -0.0044 0.9953 0.0965
vn -0.0018 0.9956 0.094
vn -0.0009 0.9956 0.094
vn 0.0064 0.9962 0.0867
vn 0.0027 0.9995 0.0326
vn 0.002 0.9994 0.0333
vn 0.004 0.9994 0.0333
vn 0.0031 0.9994 0.0341
vn -0.0033 0.9994 0.0341
vn 0.0058 0.9997 0.0251
vn -0.0015 0.9997 0.0251
vn -0.0031 0.9996 0.0268
vn -0.0024 1 0.0002
vn -0.0022 1 0.0001
vn -0.0027 1 0.0001
vn -0.0024 1 -0.0002
vn -0.0007 1 -0.0002
vn -0.0004 1 -0.0005
vn 0.0037 1 -0.0007
vn -0.0026 1 0.0002
vn -0.0024 1 -0
vn -0.0031 1 -0
vn -0.0027 1 -0.0005
vn -0.0005 1 -0.0005
vn -0.0026 1 0.0011
vn -0.0026 1 0.0011
vn -0.0031 1 0.0011
vn -0.0031 1 0.0011
vn -0 1 0.0011
vn -0.0019 0.9999 0.0149
vn -0.0026 0.9999 0.0157
vn -0.0032 0.9999 0.0157
vn -0.0031 0.9999 0.0155
vn -0.0001 0.9999 0.0155
vn -0.0021 0.9996 0.0291
vn -0.0019 0.9996 0.0289
vn -0.0056 0.9996 0.0289
vn -0.0032 0.9996 0.0265
vn 0.0021 0.9996 0.0265
vn -0.0015 0.9994 0.0347
vn -0.0021 0.9994 0.0353
vn -0.0049 0.9994 0.0353
vn -0.0056 0.9993 0.036
vn -0.0006 0.9992 0.0403
vn -0.0015 0.9992 0.0411
vn -0.0047 0.9991 0.0411
vn -0.0049 0.9991 0.0413
vn -0.0001 0.9985 0.0545
vn -0.0006 0.9985 0.055
vn -0.0033 0.9985 0.055
vn -0.0047 0.9984 0.0564
vn 0.0031 0.9984 0.0564
vn 0.0031 0.9984 0.0564
vn 0.0023 0.9984 0.0564
vn 0.0011 0.9958 0.0916
vn -0.0001 0.9957 0.0929
vn -0.0012 0.9957 0.0929
vn -0.0033 0.9955 0.095
vn 0.0036 0.9955 0.095
vn 0.0031 0.9954 0.0956
vn -0 0.9954 0.0956
vn 0.0023 0.9956 0.0933
vn 0.0025 0.9947 0.103
vn 0.0011 0.9945 0.1043
vn 0.0004 0.9945 0.1043
vn -0.0012 0.9944 0.1059
vn 0.0043 0.9944 0.1059
vn 0.0036 0.9943 0.1065
vn -0.0022 0.9943 0.1065
vn -0 0.9945 0.1043
vn 0.002 0.9962 0.0867
vn 0.0025 0.9963 0.0862
vn 0.0031 0.9963 0.0862
vn 0.0004 0.996 0.089
vn 0.0057 0.996 0.089
vn 0.0043 0.9959 0.0904
vn -0.0031 0.9959 0.0904
vn -0.0022 0.996 0.0895
vn 0.0057 0.9998 0.0209
vn 0.0018 0.9997 0.0248
vn -0.001 0.9997 0.0248
vn 0.0025 0.9998 0.0213
vn -0.0012 0.9998 0.0213
vn 0.0049 0.9999 0.0152
vn 0.0041 0.9999 0.0152
vn 0.0016 0.9998 0.0177
vn 0.0048 0.9998 0.0177
vn 0.0016 0.9998 0.021
vn 0.004 0.9998 0.021
vn 0.0015 0.9997 0.0235
vn 0.0057 0.9997 0.0235
vn -0.0044 0.9994 0.0336
vn -0.002 0.9994 0.0336
vn -0.0009 0.9995 0.0326
g scorched
usemtl scorched
f 1//0 2//0 3//0
f 4//1 5//1 6//1
f 7//2 8//2 9//2
f 10//3 11//3 12//3
f 13//4 14//4 15//4
f 16//5 17//5 18//5
f 19//6 20//6 21//6
f 22//7 23//7 24//7
f 25//8 26//8 27//8
f 28//9 29//9 30//9
f 31//10 32//10 33//10
f 34//11 35//11 36//11
f 37//12 38//12 39//12
f 40//13 41//13 42//13
f 43//14 44//14 45//14
f 46//15 47//15 48//15
f 49//16 50//16 51//16
f 52//17 53//17 54//17
f 55//18 56//18 57//18
f 58//19 59//19 60//19
f 61//20 62//20 63//20
f 64//21 65//21 66//21
f 67//22 68//22 69//22
f 70//23 71//23 72//23
f 73//24 74//24 75//24
f 76//25 77//25 78//25
f 79//26 80//26 81//26
f 82//27 83//27 84//27
f 85//28 86//28 87//28
f 88//29 89//29 90//29
f 91//30 92//30 93//30
f 94//31 95//31 96//31
f 97//32 98//32 99//32
f 100//33 101//33 102//33
f 103//34 104//34 105//34
f 106//35 107//35 108//35
f 109//36 110//36 111//36
f 112//37 113//37 114//37
g ash_drift
usemtl ash_drift
f 115//38 116//38 117//38
f 118//39 119//39 120//39
f 121//40 122//40 123//40
f 124//41 125//41 126//41
f 127//42 128//42 129//42
f 130//43 131//43 132//43
f 133//44 134//44 135//44
f 136//45 137//45 138//45
f 139//46 140//46 141//46
f 142//47 143//47 144//47
f 145//48 146//48 147//48
f 148//49 149//49 150//49
f 151//50 152//50 153//50
f 154//51 155//51 156//51
f 157//52 158//52 159//52
f 160//53 161//53 162//53
f 163//54 164//54 165//54
f 166//55 167//55 168//55
f 169//56 170//56 171//56
f 172//57 173//57 174//57
f 175//58 176//58 177//58
f 178//59 179//59 180//59
f 181//60 182//60 183//60
f 184//61 185//61 186//61
f 187//62 188//62 189//62
f 190//63 191//63 192//63
f 193//64 194//64 195//64
f 196//65 197//65 198//65
f 199//66 200//66 201//66
f 202//67 203//67 204//67
f 205//68 206//68 207//68
f 208//69 209//69 210//69
f 211//70 212//70 213//70
f 214//71 215//71 216//71
f 217//72 218//72 219//72
f 220//73 221//73 222//73
f 223//74 224//74 225//74
f 226//75 227//75 228//75
f 229//76 230//76 231//76
f 232//77 233//77 234//77
f 235//78 236//78 237//78
f 238//79 239//79 240//79
f 241//80 242//80 243//80
f 244//81 245//81 246//81
f 247//82 248//82 249//82
f 250//83 251//83 252//83
f 253//84 254//84 255//84
f 256//85 257//85 258//85
f 259//86 260//86 261//86
f 262//87 263//87 264//87
f 265//88 266//88 267//88
f 268//89 269//89 270//89
f 271//90 272//90 273//90
f 274//91 275//91 276//91
f 277//92 278//92 279//92
f 280//93 281//93 282//93
f 283//94 284//94 285//94
f 286//95 287//95 288//95
f 289//96 290//96 291//96
f 292//97 293//97 294//97
f 295//98 296//98 297//98
f 298//99 299//99 300//99
f 301//100 302//100 303//100
f 304//101 305//101 306//101
f 307//102 308//102 309//102
f 310//103 311//103 312//103
f 313//104 314//104 315//104
f 316//105 317//105 318//105
f 319//106 320//106 321//106
f 322//107 323//107 324//107
f 325//108 326//108 327//108
f 328//109 329//109 330//109
f 331//110 332//110 333//110
f 334//111 335//111 336//111
f 337//112 338//112 339//112
f 340//113 341//113 342//113
f 343//114 344//114 345//114
f 346//115 347//115 348//115
f 349//116 350//116 351//116
f 352//117 353//117 354//117
f 355//118 356//118 357//118
f 358//119 359//119 360//119
f 361//120 362//120 363//120
f 364//121 365//121 366//121
f 367//122 368//122 369//122
f 370//123 371//123 372//123
f 373//124 374//124 375//124
f 376//125 377//125 378//125
f 379//126 380//126 381//126
f 382//127 383//127 384//127
f 385//128 386//128 387//128
f 388//129 389//129 390//129
f 391//130 392//130 393//130
f 394//131 395//131 396//131
f 397//132 398//132 399//132
f 400//133 401//133 402//133
f 403//134 404//134 405//134
f 406//135 407//135 408//135
f 409//136 410//136 411//136
f 412//137 413//137 414//137
f 415//138 416//138 417//138
f 418//139 419//139 420//139
f 421//140 422//140 423//140
f 424//141 425//141 426//141
f 427//142 428//142 429//142
f 430//143 431//143 432//143
f 433//144 434//144 435//144
f 436//145 437//145 438//145
f 439//146 440//146 441//146
f 442//147 443//147 444//147
f 445//148 446//148 447//148
f 448//149 449//149 450//149
f 451//150 452//150 453//150
f 454//151 455//151 456//151
f 457//152 458//152 459//152
f 460//153 461//153 462//153
f 463//154 464//154 465//154
f 466//155 467//155 468//155
f 469//156 470//156 471//156
f 472//157 473//157 474//157
f 475//158 476//158 477//158
f 478//159 479//159 480//159
f 481//160 482//160 483//160
f 484//161 485//161 486//161
f 487//162 488//162 489//162
f 490//163 491//163 492//163
f 493//164 494//164 495//164
f 496//165 497//165 498//165
f 499//166 500//166 501//166
f 502//167 503//167 504//167
f 505//168 506//168 507//168
f 508//169 509//169 510//169
f 511//170 512//170 513//170
f 514//171 515//171 516//171
f 517//172 518//172 519//172
f 520//173 521//173 522//173
f 523//174 524//174 525//174
f 526//175 527//175 528//175
f 529//176 530//176 531//176
f 532//177 533//177 534//177
f 535//178 536//178 537//178
f 538//179 539//179 540//179
f 541//180 542//180 543//180
f 544//181 545//181 546//181
f 547//182 548//182 549//182
f 550//183 551//183 552//183
f 553//184 554//184 555//184
f 556//185 557//185 558//185
f 559//186 560//186 561//186
f 562//187 563//187 564//187
f 565//188 566//188 567//188
f 568//189 569//189 570//189
f 571//190 572//190 573//190
f 574//191 575//191 576//191
f 577//192 578//192 579//192
f 580//193 581//193 582//193
f 583//194 584//194 585//194
f 586//195 587//195 588//195
f 589//196 590//196 591//196
f 592//197 593//197 594//197
f 595//198 596//198 597//198
f 598//199 599//199 600//199
f 601//200 602//200 603//200
f 604//201 605//201 606//201
f 607//202 608//202 609//202
f 610//203 611//203 612//203
f 613//204 614//204 615//204
f 616//205 617//205 618//205
g ash_field
usemtl ash_field
f 619//206 620//206 621//206
f 622//207 623//207 624//207
f 625//208 626//208 627//208
f 628//209 629//209 630//209
f 631//210 632//210 633//210
f 634//211 635//211 636//211
f 637//212 638//212 639//212
f 640//213 641//213 642//213
f 643//214 644//214 645//214
f 646//215 647//215 648//215
f 649//216 650//216 651//216
f 652//217 653//217 654//217
f 655//218 656//218 657//218
f 658//219 659//219 660//219
f 661//220 662//220 663//220
f 664//221 665//221 666//221
f 667//222 668//222 669//222
f 670//223 671//223 672//223
f 673//224 674//224 675//224
f 676//225 677//225 678//225
f 679//226 680//226 681//226
f 682//227 683//227 684//227
f 685//228 686//228 687//228
f 688//229 689//229 690//229
f 691//230 692//230 693//230
f 694//231 695//231 696//231
f 697//232 698//232 699//232
f 700//233 701//233 702//233
f 703//234 704//234 705//234
f 706//235 707//235 708//235
f 709//236 710//236 711//236
f 712//237 713//237 714//237
f 715//238 716//238 717//238
f 718//239 719//239 720//239
f 721//240 722//240 723//240
f 724//241 725//241 726//241
f 727//242 728//242 729//242
f 730//243 731//243 732//243
f 733//244 734//244 735//244
f 736//245 737//245 738//245
f 739//246 740//246 741//246
f 742//247 743//247 744//247
f 745//248 746//248 747//248
f 748//249 749//249 750//249
f 751//250 752//250 753//250
f 754//251 755//251 756//251
f 757//252 758//252 759//252
f 760//253 761//253 762//253
f 763//254 764//254 765//254
f 766//255 767//255 768//255
f 769//256 770//256 771//256
f 772//257 773//257 774//257
f 775//258 776//258 777//258
f 778//259 779//259 780//259
f 781//260 782//260 783//260
f 784//261 785//261 786//261
f 787//262 788//262 789//262
f 790//263 791//263 792//263
f 793//264 794//264 795//264
f 796//265 797//265 798//265
f 799//266 800//266 801//266
f 802//267 803//267 804//267
f 805//268 806//268 807//268
f 808//269 809//269 810//269
f 811//270 812//270 813//270
f 814//271 815//271 816//271
f 817//272 818//272 819//272
f 820//273 821//273 822//273
f 823//274 824//274 825//274
f 826//275 827//275 828//275
f 829//276 830//276 831//276
f 832//277 833//277 834//277
f 835//278 836//278 837//278
f 838//279 839//279 840//279
f 841//280 842//280 843//280
f 844//281 845//281 846//281
f 847//282 848//282 849//282
f 850//283 851//283 852//283
f 853//284 854//284 855//284
f 856//285 857//285 858//285
f 859//286 860//286 861//286
f 862//287 863//287 864//287
