# litt worldgen asset - generated by math only
# kit: template/tools/worldgen/
mtllib neon-corridor__materials.mtl
o goal_banner
v 0.4 -1.6 -0.4
v 0.4 4.8 -0.4
v 0.4 4.8 0.4
v 0.4 -1.6 -0.4
v 0.4 4.8 0.4
v 0.4 -1.6 0.4
v -0.4 -1.6 -0.4
v -0.4 -1.6 0.4
v -0.4 4.8 0.4
v -0.4 -1.6 -0.4
v -0.4 4.8 0.4
v -0.4 4.8 -0.4
v 0.4 4.8 0.4
v 0.4 4.8 -0.4
v -0.4 4.8 -0.4
v 0.4 4.8 0.4
v -0.4 4.8 -0.4
v -0.4 4.8 0.4
v 0.4 -1.6 -0.4
v 0.4 -1.6 0.4
v -0.4 -1.6 0.4
v 0.4 -1.6 -0.4
v -0.4 -1.6 0.4
v -0.4 -1.6 -0.4
v 0.4 -1.6 0.4
v 0.4 4.8 0.4
v -0.4 4.8 0.4
v 0.4 -1.6 0.4
v -0.4 4.8 0.4
v -0.4 -1.6 0.4
v 0.4 -1.6 -0.4
v -0.4 -1.6 -0.4
v -0.4 4.8 -0.4
v 0.4 -1.6 -0.4
v -0.4 4.8 -0.4
v 0.4 4.8 -0.4
v 1.4 2.93 -0.14
v 1.4 3.17 -0.14
v 1.4 3.17 0.14
v 1.4 2.93 -0.14
v 1.4 3.17 0.14
v 1.4 2.93 0.14
v -1.4 2.93 -0.14
v -1.4 2.93 0.14
v -1.4 3.17 0.14
v -1.4 2.93 -0.14
v -1.4 3.17 0.14
v -1.4 3.17 -0.14
v 1.4 3.17 0.14
v 1.4 3.17 -0.14
v -1.4 3.17 -0.14
v 1.4 3.17 0.14
v -1.4 3.17 -0.14
v -1.4 3.17 0.14
v 1.4 2.93 -0.14
v 1.4 2.93 0.14
v -1.4 2.93 0.14
v 1.4 2.93 -0.14
v -1.4 2.93 0.14
v -1.4 2.93 -0.14
v 1.4 2.93 0.14
v 1.4 3.17 0.14
v -1.4 3.17 0.14
v 1.4 2.93 0.14
v -1.4 3.17 0.14
v -1.4 2.93 0.14
v 1.4 2.93 -0.14
v -1.4 2.93 -0.14
v -1.4 3.17 -0.14
v 1.4 2.93 -0.14
v -1.4 3.17 -0.14
v 1.4 3.17 -0.14
v -1.18 2.45 -0.06
v -1.18 2.45 0.06
v -0.9 3 0.06
v -1.18 2.45 -0.06
v -0.9 3 0.06
v -0.9 3 -0.06
v -0.62 2.45 0.06
v -0.62 2.45 -0.06
v -0.9 3 -0.06
v -0.62 2.45 0.06
v -0.9 3 -0.06
v -0.9 3 0.06
v -0.62 2.45 0.06
v -0.9 3 0.06
v -1.18 2.45 0.06
v -1.18 2.45 -0.06
v -0.9 3 -0.06
v -0.62 2.45 -0.06
v 0.62 2.45 -0.06
v 0.62 2.45 0.06
v 0.9 3 0.06
v 0.62 2.45 -0.06
v 0.9 3 0.06
v 0.9 3 -0.06
v 1.18 2.45 0.06
v 1.18 2.45 -0.06
v 0.9 3 -0.06
v 1.18 2.45 0.06
v 0.9 3 -0.06
v 0.9 3 0.06
v 1.18 2.45 0.06
v 0.9 3 0.06
v 0.62 2.45 0.06
v 0.62 2.45 -0.06
v 0.9 3 -0.06
v 1.18 2.45 -0.06
vn 1 0 0
vn 1 0 0
vn -1 0 0
vn -1 0 0
vn 0 1 0
vn 0 1 0
vn 0 -1 0
vn 0 -1 0
vn 0 -0 1
vn 0 0 1
vn 0 0 -1
vn 0 0 -1
vn 1 0 0
vn 1 0 0
vn -1 0 0
vn -1 0 0
vn 0 1 0
vn 0 1 0
vn 0 -1 0
vn 0 -1 0
vn 0 -0 1
vn 0 0 1
vn 0 0 -1
vn 0 0 -1
vn -0.8912 0.4537 0
vn -0.8912 0.4537 0
vn 0.8912 0.4537 0
vn 0.8912 0.4537 0
vn 0 0 1
vn 0 0 -1
vn -0.8912 0.4537 0
vn -0.8912 0.4537 0
vn 0.8912 0.4537 0
vn 0.8912 0.4537 0
vn 0 0 1
vn 0 0 -1
g post
usemtl accent
f 1//1 2//1 3//1
f 4//2 5//2 6//2
f 7//3 8//3 9//3
f 10//4 11//4 12//4
f 13//5 14//5 15//5
f 16//6 17//6 18//6
f 19//7 20//7 21//7
f 22//8 23//8 24//8
f 25//9 26//9 27//9
f 28//10 29//10 30//10
f 31//11 32//11 33//11
f 34//12 35//12 36//12
g bar
usemtl structure
f 37//13 38//13 39//13
f 40//14 41//14 42//14
f 43//15 44//15 45//15
f 46//16 47//16 48//16
f 49//17 50//17 51//17
f 52//18 53//18 54//18
f 55//19 56//19 57//19
f 58//20 59//20 60//20
f 61//21 62//21 63//21
f 64//22 65//22 66//22
f 67//23 68//23 69//23
f 70//24 71//24 72//24
g cloth_l
usemtl structure
f 73//25 74//25 75//25
f 76//26 77//26 78//26
f 79//27 80//27 81//27
f 82//28 83//28 84//28
f 85//29 86//29 87//29
f 88//30 89//30 90//30
g cloth_r
usemtl structure
f 91//31 92//31 93//31
f 94//32 95//32 96//32
f 97//33 98//33 99//33
f 100//34 101//34 102//34
f 103//35 104//35 105//35
f 106//36 107//36 108//36
