# litt live chunk - perpetual grass world
# chunk (0,2) seed=1337 size=16 res=12
mtllib materials.mtl
o chunk_0_2
g grass_b
usemtl grass_b
v 0 0.0659 32
vn 0.0019 1 -0.0012
v 0 0.0674 33.3333
vn 0.0019 1 -0.0012
v 1.3333 0.0649 33.3333
vn 0.0019 1 -0.0012
f 1//1 2//2 3//3
v 0 0.0659 32
vn -0.0005 1 0.0013
v 1.3333 0.0649 33.3333
vn -0.0005 1 0.0013
v 1.3333 0.0666 32
vn -0.0005 1 0.0013
f 4//4 5//5 6//6
v 1.3333 0.0666 32
vn -0.0019 1 0.0013
v 1.3333 0.0649 33.3333
vn -0.0019 1 0.0013
v 2.6667 0.0675 33.3333
vn -0.0019 1 0.0013
f 7//7 8//8 9//9
v 1.3333 0.0666 32
vn -0.0006 1 -0.0001
v 2.6667 0.0675 33.3333
vn -0.0006 1 -0.0001
v 2.6667 0.0673 32
vn -0.0006 1 -0.0001
f 10//10 11//11 12//12
v 2.6667 0.0673 32
vn -0.001 1 -0.0001
v 2.6667 0.0675 33.3333
vn -0.001 1 -0.0001
v 4 0.0688 33.3333
vn -0.001 1 -0.0001
f 13//13 14//14 15//15
v 2.6667 0.0673 32
vn -0.0005 1 -0.0006
v 4 0.0688 33.3333
vn -0.0005 1 -0.0006
v 4 0.068 32
vn -0.0005 1 -0.0006
f 16//16 17//17 18//18
v 4 0.068 32
vn -0.0014 1 -0.0006
v 4 0.0688 33.3333
vn -0.0014 1 -0.0006
v 5.3333 0.0707 33.3333
vn -0.0014 1 -0.0006
f 19//19 20//20 21//21
v 4 0.068 32
vn -0.0006 1 -0.0014
v 5.3333 0.0707 33.3333
vn -0.0006 1 -0.0014
v 5.3333 0.0688 32
vn -0.0006 1 -0.0014
f 22//22 23//23 24//24
v 5.3333 0.0688 32
vn 0.0016 1 -0.0014
v 5.3333 0.0707 33.3333
vn 0.0016 1 -0.0014
v 6.6667 0.0686 33.3333
vn 0.0016 1 -0.0014
f 25//25 26//26 27//27
v 5.3333 0.0688 32
vn 0.0011 1 -0.0009
v 6.6667 0.0686 33.3333
vn 0.0011 1 -0.0009
v 6.6667 0.0674 32
vn 0.0011 1 -0.0009
f 28//28 29//29 30//30
v 6.6667 0.0674 32
vn 0.0011 1 -0.0009
v 6.6667 0.0686 33.3333
vn 0.0011 1 -0.0009
v 8 0.0671 33.3333
vn 0.0011 1 -0.0009
f 31//31 32//32 33//33
v 6.6667 0.0674 32
vn -0.0015 1 0.0017
v 8 0.0671 33.3333
vn -0.0015 1 0.0017
v 8 0.0694 32
vn -0.0015 1 0.0017
f 34//34 35//35 36//36
v 8 0.0694 32
vn -0.0026 1 0.0017
v 8 0.0671 33.3333
vn -0.0026 1 0.0017
v 9.3333 0.0706 33.3333
vn -0.0026 1 0.0017
f 37//37 38//38 39//39
v 8 0.0694 32
vn -0.0004 1 -0.0006
v 9.3333 0.0706 33.3333
vn -0.0004 1 -0.0006
v 9.3333 0.0699 32
vn -0.0004 1 -0.0006
f 40//40 41//41 42//42
v 9.3333 0.0699 32
vn -0.0011 1 -0.0006
v 9.3333 0.0706 33.3333
vn -0.0011 1 -0.0006
v 10.6667 0.072 33.3333
vn -0.0011 1 -0.0006
f 43//43 44//44 45//45
v 9.3333 0.0699 32
vn -0.0011 1 -0.0005
v 10.6667 0.072 33.3333
vn -0.0011 1 -0.0005
v 10.6667 0.0713 32
vn -0.0011 1 -0.0005
f 46//46 47//47 48//48
v 10.6667 0.0713 32
vn -0.0137 0.9999 -0.0005
v 10.6667 0.072 33.3333
vn -0.0137 0.9999 -0.0005
v 12 0.0902 33.3333
vn -0.0137 0.9999 -0.0005
f 49//49 50//50 51//51
v 10.6667 0.0713 32
vn -0.013 0.9999 -0.0012
v 12 0.0902 33.3333
vn -0.013 0.9999 -0.0012
v 12 0.0886 32
vn -0.013 0.9999 -0.0012
f 52//52 53//53 54//54
v 12 0.0886 32
vn -0.0021 1 -0.0012
v 12 0.0902 33.3333
vn -0.0021 1 -0.0012
v 13.3333 0.0931 33.3333
vn -0.0021 1 -0.0012
f 55//55 56//56 57//57
v 12 0.0886 32
vn -0.0036 1 0.0002
v 13.3333 0.0931 33.3333
vn -0.0036 1 0.0002
v 13.3333 0.0934 32
vn -0.0036 1 0.0002
f 58//58 59//59 60//60
v 13.3333 0.0934 32
vn 0.0044 1 0.0002
v 13.3333 0.0931 33.3333
vn 0.0044 1 0.0002
v 14.6667 0.0872 33.3333
vn 0.0044 1 0.0002
f 61//61 62//62 63//63
v 13.3333 0.0934 32
vn 0.0023 1 0.0023
v 14.6667 0.0872 33.3333
vn 0.0023 1 0.0023
v 14.6667 0.0903 32
vn 0.0023 1 0.0023
f 64//64 65//65 66//66
v 14.6667 0.0903 32
vn 0.0053 1 0.0023
v 14.6667 0.0872 33.3333
vn 0.0053 1 0.0023
v 16 0.0802 33.3333
vn 0.0053 1 0.0023
f 67//67 68//68 69//69
v 14.6667 0.0903 32
vn 0.0057 1 0.0018
v 16 0.0802 33.3333
vn 0.0057 1 0.0018
v 16 0.0826 32
vn 0.0057 1 0.0018
f 70//70 71//71 72//72
v 0 0.0674 33.3333
vn 0.0023 1 -0.0005
v 0 0.0681 34.6667
vn 0.0023 1 -0.0005
v 1.3333 0.0651 34.6667
vn 0.0023 1 -0.0005
f 73//73 74//74 75//75
v 0 0.0674 33.3333
vn 0.0019 1 -0.0002
v 1.3333 0.0651 34.6667
vn 0.0019 1 -0.0002
v 1.3333 0.0649 33.3333
vn 0.0019 1 -0.0002
f 76//76 77//77 78//78
v 1.3333 0.0649 33.3333
vn -0.0011 1 -0.0002
v 1.3333 0.0651 34.6667
vn -0.0011 1 -0.0002
v 2.6667 0.0666 34.6667
vn -0.0011 1 -0.0002
f 79//79 80//80 81//81
v 1.3333 0.0649 33.3333
vn -0.0019 1 0.0007
v 2.6667 0.0666 34.6667
vn -0.0019 1 0.0007
v 2.6667 0.0675 33.3333
vn -0.0019 1 0.0007
f 82//82 83//83 84//84
v 2.6667 0.0675 33.3333
vn -0.0009 1 0.0007
v 2.6667 0.0666 34.6667
vn -0.0009 1 0.0007
v 4 0.0677 34.6667
vn -0.0009 1 0.0007
f 85//85 86//86 87//87
v 2.6667 0.0675 33.3333
vn -0.001 1 0.0008
v 4 0.0677 34.6667
vn -0.001 1 0.0008
v 4 0.0688 33.3333
vn -0.001 1 0.0008
f 88//88 89//89 90//90
v 4 0.0688 33.3333
vn -0.002 1 0.0008
v 4 0.0677 34.6667
vn -0.002 1 0.0008
v 5.3333 0.0704 34.6667
vn -0.002 1 0.0008
f 91//91 92//92 93//93
v 4 0.0688 33.3333
vn -0.0014 1 0.0002
v 5.3333 0.0704 34.6667
vn -0.0014 1 0.0002
v 5.3333 0.0707 33.3333
vn -0.0014 1 0.0002
f 94//94 95//95 96//96
v 5.3333 0.0707 33.3333
vn 0.0014 1 0.0002
v 5.3333 0.0704 34.6667
vn 0.0014 1 0.0002
v 6.6667 0.0685 34.6667
vn 0.0014 1 0.0002
f 97//97 98//98 99//99
v 5.3333 0.0707 33.3333
vn 0.0016 1 0
v 6.6667 0.0685 34.6667
vn 0.0016 1 0
v 6.6667 0.0686 33.3333
vn 0.0016 1 0
f 100//100 101//101 102//102
v 6.6667 0.0686 33.3333
vn 0.0017 1 0
v 6.6667 0.0685 34.6667
vn 0.0017 1 0
v 8 0.0663 34.6667
vn 0.0017 1 0
f 103//103 104//104 105//105
v 6.6667 0.0686 33.3333
vn 0.0011 1 0.0006
v 8 0.0663 34.6667
vn 0.0011 1 0.0006
v 8 0.0671 33.3333
vn 0.0011 1 0.0006
f 106//106 107//107 108//108
v 8 0.0671 33.3333
vn -0.0021 1 0.0006
v 8 0.0663 34.6667
vn -0.0021 1 0.0006
v 9.3333 0.0691 34.6667
vn -0.0021 1 0.0006
f 109//109 110//110 111//111
v 8 0.0671 33.3333
vn -0.0026 1 0.0011
v 9.3333 0.0691 34.6667
vn -0.0026 1 0.0011
v 9.3333 0.0706 33.3333
vn -0.0026 1 0.0011
f 112//112 113//113 114//114
v 9.3333 0.0706 33.3333
vn -0.0015 1 0.0011
v 9.3333 0.0691 34.6667
vn -0.0015 1 0.0011
v 10.6667 0.0711 34.6667
vn -0.0015 1 0.0011
f 115//115 116//116 117//117
v 9.3333 0.0706 33.3333
vn -0.0011 1 0.0007
v 10.6667 0.0711 34.6667
vn -0.0011 1 0.0007
v 10.6667 0.072 33.3333
vn -0.0011 1 0.0007
f 118//118 119//119 120//120
v 10.6667 0.072 33.3333
vn -0.0141 0.9999 0.0007
v 10.6667 0.0711 34.6667
vn -0.0141 0.9999 0.0007
v 12 0.0899 34.6667
vn -0.0141 0.9999 0.0007
f 121//121 122//122 123//123
v 10.6667 0.072 33.3333
vn -0.0137 0.9999 0.0003
v 12 0.0899 34.6667
vn -0.0137 0.9999 0.0003
v 12 0.0902 33.3333
vn -0.0137 0.9999 0.0003
f 124//124 125//125 126//126
v 12 0.0902 33.3333
vn -0.0018 1 0.0003
v 12 0.0899 34.6667
vn -0.0018 1 0.0003
v 13.3333 0.0923 34.6667
vn -0.0018 1 0.0003
f 127//127 128//128 129//129
v 12 0.0902 33.3333
vn -0.0021 1 0.0006
v 13.3333 0.0923 34.6667
vn -0.0021 1 0.0006
v 13.3333 0.0931 33.3333
vn -0.0021 1 0.0006
f 130//130 131//131 132//132
v 13.3333 0.0931 33.3333
vn 0.0051 1 0.0006
v 13.3333 0.0923 34.6667
vn 0.0051 1 0.0006
v 14.6667 0.0855 34.6667
vn 0.0051 1 0.0006
f 133//133 134//134 135//135
v 13.3333 0.0931 33.3333
vn 0.0044 1 0.0013
v 14.6667 0.0855 34.6667
vn 0.0044 1 0.0013
v 14.6667 0.0872 33.3333
vn 0.0044 1 0.0013
f 136//136 137//137 138//138
v 14.6667 0.0872 33.3333
vn 0.005 1 0.0013
v 14.6667 0.0855 34.6667
vn 0.005 1 0.0013
v 16 0.0789 34.6667
vn 0.005 1 0.0013
f 139//139 140//140 141//141
v 14.6667 0.0872 33.3333
vn 0.0053 1 0.001
v 16 0.0789 34.6667
vn 0.0053 1 0.001
v 16 0.0802 33.3333
vn 0.0053 1 0.001
f 142//142 143//143 144//144
v 0 0.0681 34.6667
vn 0.0025 1 0.0006
v 0 0.0674 36
vn 0.0025 1 0.0006
v 1.3333 0.0641 36
vn 0.0025 1 0.0006
f 145//145 146//146 147//147
v 0 0.0681 34.6667
vn 0.0023 1 0.0008
v 1.3333 0.0641 36
vn 0.0023 1 0.0008
v 1.3333 0.0651 34.6667
vn 0.0023 1 0.0008
f 148//148 149//149 150//150
v 1.3333 0.0651 34.6667
vn -0.0008 1 0.0008
v 1.3333 0.0641 36
vn -0.0008 1 0.0008
v 2.6667 0.0652 36
vn -0.0008 1 0.0008
f 151//151 152//152 153//153
v 1.3333 0.0651 34.6667
vn -0.0011 1 0.001
v 2.6667 0.0652 36
vn -0.0011 1 0.001
v 2.6667 0.0666 34.6667
vn -0.0011 1 0.001
f 154//154 155//155 156//156
v 2.6667 0.0666 34.6667
vn -0.0013 1 0.001
v 2.6667 0.0652 36
vn -0.0013 1 0.001
v 4 0.0669 36
vn -0.0013 1 0.001
f 157//157 158//158 159//159
v 2.6667 0.0666 34.6667
vn -0.0009 1 0.0006
v 4 0.0669 36
vn -0.0009 1 0.0006
v 4 0.0677 34.6667
vn -0.0009 1 0.0006
f 160//160 161//161 162//162
v 4 0.0677 34.6667
vn -0.0022 1 0.0006
v 4 0.0669 36
vn -0.0022 1 0.0006
v 5.3333 0.0699 36
vn -0.0022 1 0.0006
f 163//163 164//164 165//165
v 4 0.0677 34.6667
vn -0.002 1 0.0004
v 5.3333 0.0699 36
vn -0.002 1 0.0004
v 5.3333 0.0704 34.6667
vn -0.002 1 0.0004
f 166//166 167//167 168//168
v 5.3333 0.0704 34.6667
vn 0.0018 1 0.0004
v 5.3333 0.0699 36
vn 0.0018 1 0.0004
v 6.6667 0.0675 36
vn 0.0018 1 0.0004
f 169//169 170//170 171//171
v 5.3333 0.0704 34.6667
vn 0.0014 1 0.0008
v 6.6667 0.0675 36
vn 0.0014 1 0.0008
v 6.6667 0.0685 34.6667
vn 0.0014 1 0.0008
f 172//172 173//173 174//174
v 6.6667 0.0685 34.6667
vn 0.0024 1 0.0008
v 6.6667 0.0675 36
vn 0.0024 1 0.0008
v 8 0.0644 36
vn 0.0024 1 0.0008
f 175//175 176//176 177//177
v 6.6667 0.0685 34.6667
vn 0.0017 1 0.0014
v 8 0.0644 36
vn 0.0017 1 0.0014
v 8 0.0663 34.6667
vn 0.0017 1 0.0014
f 178//178 179//179 180//180
v 8 0.0663 34.6667
vn -0.0024 1 0.0014
v 8 0.0644 36
vn -0.0024 1 0.0014
v 9.3333 0.0675 36
vn -0.0024 1 0.0014
f 181//181 182//182 183//183
v 8 0.0663 34.6667
vn -0.0021 1 0.0012
v 9.3333 0.0675 36
vn -0.0021 1 0.0012
v 9.3333 0.0691 34.6667
vn -0.0021 1 0.0012
f 184//184 185//185 186//186
v 9.3333 0.0691 34.6667
vn -0.0012 1 0.0012
v 9.3333 0.0675 36
vn -0.0012 1 0.0012
v 10.6667 0.0691 36
vn -0.0012 1 0.0012
f 187//187 188//188 189//189
v 9.3333 0.0691 34.6667
vn -0.0015 1 0.0015
v 10.6667 0.0691 36
vn -0.0015 1 0.0015
v 10.6667 0.0711 34.6667
vn -0.0015 1 0.0015
f 190//190 191//191 192//192
v 10.6667 0.0711 34.6667
vn -0.0148 0.9999 0.0015
v 10.6667 0.0691 36
vn -0.0148 0.9999 0.0015
v 12 0.0888 36
vn -0.0148 0.9999 0.0015
f 193//193 194//194 195//195
v 10.6667 0.0711 34.6667
vn -0.0141 0.9999 0.0008
v 12 0.0888 36
vn -0.0141 0.9999 0.0008
v 12 0.0899 34.6667
vn -0.0141 0.9999 0.0008
f 196//196 197//197 198//198
v 12 0.0899 34.6667
vn -0.0018 1 0.0008
v 12 0.0888 36
vn -0.0018 1 0.0008
v 13.3333 0.0913 36
vn -0.0018 1 0.0008
f 199//199 200//200 201//201
v 12 0.0899 34.6667
vn -0.0018 1 0.0008
v 13.3333 0.0913 36
vn -0.0018 1 0.0008
v 13.3333 0.0923 34.6667
vn -0.0018 1 0.0008
f 202//202 203//203 204//204
v 13.3333 0.0923 34.6667
vn 0.0052 1 0.0008
v 13.3333 0.0913 36
vn 0.0052 1 0.0008
v 14.6667 0.0843 36
vn 0.0052 1 0.0008
f 205//205 206//206 207//207
v 13.3333 0.0923 34.6667
vn 0.0051 1 0.0009
v 14.6667 0.0843 36
vn 0.0051 1 0.0009
v 14.6667 0.0855 34.6667
vn 0.0051 1 0.0009
f 208//208 209//209 210//210
v 14.6667 0.0855 34.6667
vn 0.0043 1 0.0009
v 14.6667 0.0843 36
vn 0.0043 1 0.0009
v 16 0.0785 36
vn 0.0043 1 0.0009
f 211//211 212//212 213//213
v 14.6667 0.0855 34.6667
vn 0.005 1 0.0003
v 16 0.0785 36
vn 0.005 1 0.0003
v 16 0.0789 34.6667
vn 0.005 1 0.0003
f 214//214 215//215 216//216
v 0 0.0674 36
vn 0.0026 1 0.0003
v 0 0.0669 37.3333
vn 0.0026 1 0.0003
v 1.3333 0.0635 37.3333
vn 0.0026 1 0.0003
f 217//217 218//218 219//219
v 0 0.0674 36
vn 0.0025 1 0.0004
v 1.3333 0.0635 37.3333
vn 0.0025 1 0.0004
v 1.3333 0.0641 36
vn 0.0025 1 0.0004
f 220//220 221//221 222//222
v 1.3333 0.0641 36
vn -0.0008 1 0.0004
v 1.3333 0.0635 37.3333
vn -0.0008 1 0.0004
v 2.6667 0.0646 37.3333
vn -0.0008 1 0.0004
f 223//223 224//224 225//225
v 1.3333 0.0641 36
vn -0.0008 1 0.0005
v 2.6667 0.0646 37.3333
vn -0.0008 1 0.0005
v 2.6667 0.0652 36
vn -0.0008 1 0.0005
f 226//226 227//227 228//228
v 2.6667 0.0652 36
vn -0.0009 1 0.0005
v 2.6667 0.0646 37.3333
vn -0.0009 1 0.0005
v 4 0.0658 37.3333
vn -0.0009 1 0.0005
f 229//229 230//230 231//231
v 2.6667 0.0652 36
vn -0.0013 1 0.0009
v 4 0.0658 37.3333
vn -0.0013 1 0.0009
v 4 0.0669 36
vn -0.0013 1 0.0009
f 232//232 233//233 234//234
v 4 0.0669 36
vn -0.0019 1 0.0009
v 4 0.0658 37.3333
vn -0.0019 1 0.0009
v 5.3333 0.0684 37.3333
vn -0.0019 1 0.0009
f 235//235 236//236 237//237
v 4 0.0669 36
vn -0.0022 1 0.0012
v 5.3333 0.0684 37.3333
vn -0.0022 1 0.0012
v 5.3333 0.0699 36
vn -0.0022 1 0.0012
f 238//238 239//239 240//240
v 5.3333 0.0699 36
vn 0.0016 1 0.0012
v 5.3333 0.0684 37.3333
vn 0.0016 1 0.0012
v 6.6667 0.0662 37.3333
vn 0.0016 1 0.0012
f 241//241 242//242 243//243
v 5.3333 0.0699 36
vn 0.0018 1 0.001
v 6.6667 0.0662 37.3333
vn 0.0018 1 0.001
v 6.6667 0.0675 36
vn 0.0018 1 0.001
f 244//244 245//245 246//246
v 6.6667 0.0675 36
vn 0.0014 1 0.001
v 6.6667 0.0662 37.3333
vn 0.0014 1 0.001
v 8 0.0643 37.3333
vn 0.0014 1 0.001
f 247//247 248//248 249//249
v 6.6667 0.0675 36
vn 0.0024 1 0
v 8 0.0643 37.3333
vn 0.0024 1 0
v 8 0.0644 36
vn 0.0024 1 0
f 250//250 251//251 252//252
v 8 0.0644 36
vn -0.0026 1 0
v 8 0.0643 37.3333
vn -0.0026 1 0
v 9.3333 0.0678 37.3333
vn -0.0026 1 0
f 253//253 254//254 255//255
v 8 0.0644 36
vn -0.0024 1 -0.0002
v 9.3333 0.0678 37.3333
vn -0.0024 1 -0.0002
v 9.3333 0.0675 36
vn -0.0024 1 -0.0002
f 256//256 257//257 258//258
v 9.3333 0.0675 36
vn -0.0012 1 -0.0002
v 9.3333 0.0678 37.3333
vn -0.0012 1 -0.0002
v 10.6667 0.0695 37.3333
vn -0.0012 1 -0.0002
f 259//259 260//260 261//261
v 9.3333 0.0675 36
vn -0.0012 1 -0.0003
v 10.6667 0.0695 37.3333
vn -0.0012 1 -0.0003
v 10.6667 0.0691 36
vn -0.0012 1 -0.0003
f 262//262 263//263 264//264
v 10.6667 0.0691 36
vn -0.0143 0.9999 -0.0003
v 10.6667 0.0695 37.3333
vn -0.0143 0.9999 -0.0003
v 12 0.0885 37.3333
vn -0.0143 0.9999 -0.0003
f 265//265 266//266 267//267
v 10.6667 0.0691 36
vn -0.0148 0.9999 0.0003
v 12 0.0885 37.3333
vn -0.0148 0.9999 0.0003
v 12 0.0888 36
vn -0.0148 0.9999 0.0003
f 268//268 269//269 270//270
v 12 0.0888 36
vn -0.0016 1 0.0003
v 12 0.0885 37.3333
vn -0.0016 1 0.0003
v 13.3333 0.0906 37.3333
vn -0.0016 1 0.0003
f 271//271 272//272 273//273
v 12 0.0888 36
vn -0.0018 1 0.0005
v 13.3333 0.0906 37.3333
vn -0.0018 1 0.0005
v 13.3333 0.0913 36
vn -0.0018 1 0.0005
f 274//274 275//275 276//276
v 13.3333 0.0913 36
vn 0.0053 1 0.0005
v 13.3333 0.0906 37.3333
vn 0.0053 1 0.0005
v 14.6667 0.0836 37.3333
vn 0.0053 1 0.0005
f 277//277 278//278 279//279
v 13.3333 0.0913 36
vn 0.0052 1 0.0006
v 14.6667 0.0836 37.3333
vn 0.0052 1 0.0006
v 14.6667 0.0843 36
vn 0.0052 1 0.0006
f 280//280 281//281 282//282
v 14.6667 0.0843 36
vn 0.004 1 0.0006
v 14.6667 0.0836 37.3333
vn 0.004 1 0.0006
v 16 0.0783 37.3333
vn 0.004 1 0.0006
f 283//283 284//284 285//285
v 14.6667 0.0843 36
vn 0.0043 1 0.0002
v 16 0.0783 37.3333
vn 0.0043 1 0.0002
v 16 0.0785 36
vn 0.0043 1 0.0002
f 286//286 287//287 288//288
v 0 0.0669 37.3333
vn 0.0003 1 0.0029
v 0 0.063 38.6667
vn 0.0003 1 0.0029
v 1.3333 0.0626 38.6667
vn 0.0003 1 0.0029
f 289//289 290//290 291//291
v 0 0.0669 37.3333
vn 0.0026 1 0.0007
v 1.3333 0.0626 38.6667
vn 0.0026 1 0.0007
v 1.3333 0.0635 37.3333
vn 0.0026 1 0.0007
f 292//292 293//293 294//294
v 1.3333 0.0635 37.3333
vn 0.0006 1 0.0007
v 1.3333 0.0626 38.6667
vn 0.0006 1 0.0007
v 2.6667 0.0619 38.6667
vn 0.0006 1 0.0007
f 295//295 296//296 297//297
v 1.3333 0.0635 37.3333
vn -0.0008 1 0.0021
v 2.6667 0.0619 38.6667
vn -0.0008 1 0.0021
v 2.6667 0.0646 37.3333
vn -0.0008 1 0.0021
f 298//298 299//299 300//300
v 2.6667 0.0646 37.3333
vn -0.0022 1 0.0021
v 2.6667 0.0619 38.6667
vn -0.0022 1 0.0021
v 4 0.0648 38.6667
vn -0.0022 1 0.0021
f 301//301 302//302 303//303
v 2.6667 0.0646 37.3333
vn -0.0009 1 0.0008
v 4 0.0648 38.6667
vn -0.0009 1 0.0008
v 4 0.0658 37.3333
vn -0.0009 1 0.0008
f 304//304 305//305 306//306
v 4 0.0658 37.3333
vn -0.0024 1 0.0008
v 4 0.0648 38.6667
vn -0.0024 1 0.0008
v 5.3333 0.0679 38.6667
vn -0.0024 1 0.0008
f 307//307 308//308 309//309
v 4 0.0658 37.3333
vn -0.0019 1 0.0004
v 5.3333 0.0679 38.6667
vn -0.0019 1 0.0004
v 5.3333 0.0684 37.3333
vn -0.0019 1 0.0004
f 310//310 311//311 312//312
v 5.3333 0.0684 37.3333
vn 0.0026 1 0.0004
v 5.3333 0.0679 38.6667
vn 0.0026 1 0.0004
v 6.6667 0.0645 38.6667
vn 0.0026 1 0.0004
f 313//313 314//314 315//315
v 5.3333 0.0684 37.3333
vn 0.0016 1 0.0013
v 6.6667 0.0645 38.6667
vn 0.0016 1 0.0013
v 6.6667 0.0662 37.3333
vn 0.0016 1 0.0013
f 316//316 317//317 318//318
v 6.6667 0.0662 37.3333
vn -0.0005 1 0.0013
v 6.6667 0.0645 38.6667
vn -0.0005 1 0.0013
v 8 0.0652 38.6667
vn -0.0005 1 0.0013
f 319//319 320//320 321//321
v 6.6667 0.0662 37.3333
vn 0.0014 1 -0.0006
v 8 0.0652 38.6667
vn 0.0014 1 -0.0006
v 8 0.0643 37.3333
vn 0.0014 1 -0.0006
f 322//322 323//323 324//324
v 8 0.0643 37.3333
vn -0.0008 1 -0.0006
v 8 0.0652 38.6667
vn -0.0008 1 -0.0006
v 9.3333 0.0663 38.6667
vn -0.0008 1 -0.0006
f 325//325 326//326 327//327
v 8 0.0643 37.3333
vn -0.0026 1 0.0012
v 9.3333 0.0663 38.6667
vn -0.0026 1 0.0012
v 9.3333 0.0678 37.3333
vn -0.0026 1 0.0012
f 328//328 329//329 330//330
v 9.3333 0.0678 37.3333
vn -0.0033 1 0.0012
v 9.3333 0.0663 38.6667
vn -0.0033 1 0.0012
v 10.6667 0.0707 38.6667
vn -0.0033 1 0.0012
f 331//331 332//332 333//333
v 9.3333 0.0678 37.3333
vn -0.0012 1 -0.0009
v 10.6667 0.0707 38.6667
vn -0.0012 1 -0.0009
v 10.6667 0.0695 37.3333
vn -0.0012 1 -0.0009
f 334//334 335//335 336//336
v 10.6667 0.0695 37.3333
vn -0.0133 0.9999 -0.0009
v 10.6667 0.0707 38.6667
vn -0.0133 0.9999 -0.0009
v 12 0.0884 38.6667
vn -0.0133 0.9999 -0.0009
f 337//337 338//338 339//339
v 10.6667 0.0695 37.3333
vn -0.0143 0.9999 0
v 12 0.0884 38.6667
vn -0.0143 0.9999 0
v 12 0.0885 37.3333
vn -0.0143 0.9999 0
f 340//340 341//341 342//342
v 12 0.0885 37.3333
vn -0.0026 1 0
v 12 0.0884 38.6667
vn -0.0026 1 0
v 13.3333 0.0919 38.6667
vn -0.0026 1 0
f 343//343 344//344 345//345
v 12 0.0885 37.3333
vn -0.0016 1 -0.001
v 13.3333 0.0919 38.6667
vn -0.0016 1 -0.001
v 13.3333 0.0906 37.3333
vn -0.0016 1 -0.001
f 346//346 347//347 348//348
v 13.3333 0.0906 37.3333
vn 0.0039 1 -0.001
v 13.3333 0.0919 38.6667
vn 0.0039 1 -0.001
v 14.6667 0.0867 38.6667
vn 0.0039 1 -0.001
f 349//349 350//350 351//351
v 13.3333 0.0906 37.3333
vn 0.0053 1 -0.0024
v 14.6667 0.0867 38.6667
vn 0.0053 1 -0.0024
v 14.6667 0.0836 37.3333
vn 0.0053 1 -0.0024
f 352//352 353//353 354//354
v 14.6667 0.0836 37.3333
vn 0.0047 1 -0.0024
v 14.6667 0.0867 38.6667
vn 0.0047 1 -0.0024
v 16 0.0805 38.6667
vn 0.0047 1 -0.0024
f 355//355 356//356 357//357
v 14.6667 0.0836 37.3333
vn 0.004 1 -0.0017
v 16 0.0805 38.6667
vn 0.004 1 -0.0017
v 16 0.0783 37.3333
vn 0.004 1 -0.0017
f 358//358 359//359 360//360
v 0 0.063 38.6667
vn -0.0002 1 0.0025
v 0 0.0597 40
vn -0.0002 1 0.0025
v 1.3333 0.06 40
vn -0.0002 1 0.0025
f 361//361 362//362 363//363
v 0 0.063 38.6667
vn 0.0003 1 0.0019
v 1.3333 0.06 40
vn 0.0003 1 0.0019
v 1.3333 0.0626 38.6667
vn 0.0003 1 0.0019
f 364//364 365//365 366//366
v 1.3333 0.0626 38.6667
vn 0.0003 1 0.0019
v 1.3333 0.06 40
vn 0.0003 1 0.0019
v 2.6667 0.0596 40
vn 0.0003 1 0.0019
f 367//367 368//368 369//369
v 1.3333 0.0626 38.6667
vn 0.0006 1 0.0017
v 2.6667 0.0596 40
vn 0.0006 1 0.0017
v 2.6667 0.0619 38.6667
vn 0.0006 1 0.0017
f 370//370 371//371 372//372
v 2.6667 0.0619 38.6667
vn -0.0028 1 0.0017
v 2.6667 0.0596 40
vn -0.0028 1 0.0017
v 4 0.0633 40
vn -0.0028 1 0.0017
f 373//373 374//374 375//375
v 2.6667 0.0619 38.6667
vn -0.0022 1 0.0011
v 4 0.0633 40
vn -0.0022 1 0.0011
v 4 0.0648 38.6667
vn -0.0022 1 0.0011
f 376//376 377//377 378//378
v 4 0.0648 38.6667
vn -0.0027 1 0.0011
v 4 0.0633 40
vn -0.0027 1 0.0011
v 5.3333 0.0669 40
vn -0.0027 1 0.0011
f 379//379 380//380 381//381
v 4 0.0648 38.6667
vn -0.0024 1 0.0008
v 5.3333 0.0669 40
vn -0.0024 1 0.0008
v 5.3333 0.0679 38.6667
vn -0.0024 1 0.0008
f 382//382 383//383 384//384
v 5.3333 0.0679 38.6667
vn 0.0027 1 0.0008
v 5.3333 0.0669 40
vn 0.0027 1 0.0008
v 6.6667 0.0632 40
vn 0.0027 1 0.0008
f 385//385 386//386 387//387
v 5.3333 0.0679 38.6667
vn 0.0026 1 0.001
v 6.6667 0.0632 40
vn 0.0026 1 0.001
v 6.6667 0.0645 38.6667
vn 0.0026 1 0.001
f 388//388 389//389 390//390
v 6.6667 0.0645 38.6667
vn -0.001 1 0.001
v 6.6667 0.0632 40
vn -0.001 1 0.001
v 8 0.0645 40
vn -0.001 1 0.001
f 391//391 392//392 393//393
v 6.6667 0.0645 38.6667
vn -0.0005 1 0.0005
v 8 0.0645 40
vn -0.0005 1 0.0005
v 8 0.0652 38.6667
vn -0.0005 1 0.0005
f 394//394 395//395 396//396
v 8 0.0652 38.6667
vn -0.0006 1 0.0005
v 8 0.0645 40
vn -0.0006 1 0.0005
v 9.3333 0.0653 40
vn -0.0006 1 0.0005
f 397//397 398//398 399//399
v 8 0.0652 38.6667
vn -0.0008 1 0.0007
v 9.3333 0.0653 40
vn -0.0008 1 0.0007
v 9.3333 0.0663 38.6667
vn -0.0008 1 0.0007
f 400//400 401//401 402//402
v 9.3333 0.0663 38.6667
vn -0.0043 1 0.0007
v 9.3333 0.0653 40
vn -0.0043 1 0.0007
v 10.6667 0.071 40
vn -0.0043 1 0.0007
f 403//403 404//404 405//405
v 9.3333 0.0663 38.6667
vn -0.0033 1 -0.0002
v 10.6667 0.071 40
vn -0.0033 1 -0.0002
v 10.6667 0.0707 38.6667
vn -0.0033 1 -0.0002
f 406//406 407//407 408//408
v 10.6667 0.0707 38.6667
vn -0.0131 0.9999 -0.0002
v 10.6667 0.071 40
vn -0.0131 0.9999 -0.0002
v 12 0.0885 40
vn -0.0131 0.9999 -0.0002
f 409//409 410//410 411//411
v 10.6667 0.0707 38.6667
vn -0.0133 0.9999 -0.0001
v 12 0.0885 40
vn -0.0133 0.9999 -0.0001
v 12 0.0884 38.6667
vn -0.0133 0.9999 -0.0001
f 412//412 413//413 414//414
v 12 0.0884 38.6667
vn -0.0033 1 -0.0001
v 12 0.0885 40
vn -0.0033 1 -0.0001
v 13.3333 0.0929 40
vn -0.0033 1 -0.0001
f 415//415 416//416 417//417
v 12 0.0884 38.6667
vn -0.0026 1 -0.0007
v 13.3333 0.0929 40
vn -0.0026 1 -0.0007
v 13.3333 0.0919 38.6667
vn -0.0026 1 -0.0007
f 418//418 419//419 420//420
v 13.3333 0.0919 38.6667
vn 0.0015 1 -0.0007
v 13.3333 0.0929 40
vn 0.0015 1 -0.0007
v 14.6667 0.0908 40
vn 0.0015 1 -0.0007
f 421//421 422//422 423//423
v 13.3333 0.0919 38.6667
vn 0.0039 1 -0.0031
v 14.6667 0.0908 40
vn 0.0039 1 -0.0031
v 14.6667 0.0867 38.6667
vn 0.0039 1 -0.0031
f 424//424 425//425 426//426
v 14.6667 0.0867 38.6667
vn 0.003 1 -0.0031
v 14.6667 0.0908 40
vn 0.003 1 -0.0031
v 16 0.0868 40
vn 0.003 1 -0.0031
f 427//427 428//428 429//429
v 14.6667 0.0867 38.6667
vn 0.0047 1 -0.0047
v 16 0.0868 40
vn 0.0047 1 -0.0047
v 16 0.0805 38.6667
vn 0.0047 1 -0.0047
f 430//430 431//431 432//432
v 0 0.0597 40
vn -0.0007 1 0
v 0 0.0596 41.3333
vn -0.0007 1 0
v 1.3333 0.0606 41.3333
vn -0.0007 1 0
f 433//433 434//434 435//435
v 0 0.0597 40
vn -0.0002 1 -0.0004
v 1.3333 0.0606 41.3333
vn -0.0002 1 -0.0004
v 1.3333 0.06 40
vn -0.0002 1 -0.0004
f 436//436 437//437 438//438
v 1.3333 0.06 40
vn -0.0008 1 -0.0004
v 1.3333 0.0606 41.3333
vn -0.0008 1 -0.0004
v 2.6667 0.0617 41.3333
vn -0.0008 1 -0.0004
f 439//439 440//440 441//441
v 1.3333 0.06 40
vn 0.0003 1 -0.0016
v 2.6667 0.0617 41.3333
vn 0.0003 1 -0.0016
v 2.6667 0.0596 40
vn 0.0003 1 -0.0016
f 442//442 443//443 444//444
v 2.6667 0.0596 40
vn -0.0029 1 -0.0016
v 2.6667 0.0617 41.3333
vn -0.0029 1 -0.0016
v 4 0.0656 41.3333
vn -0.0029 1 -0.0016
f 445//445 446//446 447//447
v 2.6667 0.0596 40
vn -0.0028 1 -0.0017
v 4 0.0656 41.3333
vn -0.0028 1 -0.0017
v 4 0.0633 40
vn -0.0028 1 -0.0017
f 448//448 449//449 450//450
v 4 0.0633 40
vn -0.0018 1 -0.0017
v 4 0.0656 41.3333
vn -0.0018 1 -0.0017
v 5.3333 0.068 41.3333
vn -0.0018 1 -0.0017
f 451//451 452//452 453//453
v 4 0.0633 40
vn -0.0027 1 -0.0008
v 5.3333 0.068 41.3333
vn -0.0027 1 -0.0008
v 5.3333 0.0669 40
vn -0.0027 1 -0.0008
f 454//454 455//455 456//456
v 5.3333 0.0669 40
vn 0.0032 1 -0.0008
v 5.3333 0.068 41.3333
vn 0.0032 1 -0.0008
v 6.6667 0.0637 41.3333
vn 0.0032 1 -0.0008
f 457//457 458//458 459//459
v 5.3333 0.0669 40
vn 0.0027 1 -0.0003
v 6.6667 0.0637 41.3333
vn 0.0027 1 -0.0003
v 6.6667 0.0632 40
vn 0.0027 1 -0.0003
f 460//460 461//461 462//462
v 6.6667 0.0632 40
vn -0.001 1 -0.0003
v 6.6667 0.0637 41.3333
vn -0.001 1 -0.0003
v 8 0.0651 41.3333
vn -0.001 1 -0.0003
f 463//463 464//464 465//465
v 6.6667 0.0632 40
vn -0.001 1 -0.0004
v 8 0.0651 41.3333
vn -0.001 1 -0.0004
v 8 0.0645 40
vn -0.001 1 -0.0004
f 466//466 467//467 468//468
v 8 0.0645 40
vn -0.0012 1 -0.0004
v 8 0.0651 41.3333
vn -0.0012 1 -0.0004
v 9.3333 0.0667 41.3333
vn -0.0012 1 -0.0004
f 469//469 470//470 471//471
v 8 0.0645 40
vn -0.0006 1 -0.001
v 9.3333 0.0667 41.3333
vn -0.0006 1 -0.001
v 9.3333 0.0653 40
vn -0.0006 1 -0.001
f 472//472 473//473 474//474
v 9.3333 0.0653 40
vn -0.0043 1 -0.001
v 9.3333 0.0667 41.3333
vn -0.0043 1 -0.001
v 10.6667 0.0723 41.3333
vn -0.0043 1 -0.001
f 475//475 476//476 477//477
v 9.3333 0.0653 40
vn -0.0043 1 -0.001
v 10.6667 0.0723 41.3333
vn -0.0043 1 -0.001
v 10.6667 0.071 40
vn -0.0043 1 -0.001
f 478//478 479//479 480//480
v 10.6667 0.071 40
vn -0.0122 0.9999 -0.001
v 10.6667 0.0723 41.3333
vn -0.0122 0.9999 -0.001
v 12 0.0886 41.3333
vn -0.0122 0.9999 -0.001
f 481//481 482//482 483//483
v 10.6667 0.071 40
vn -0.0131 0.9999 -0
v 12 0.0886 41.3333
vn -0.0131 0.9999 -0
v 12 0.0885 40
vn -0.0131 0.9999 -0
f 484//484 485//485 486//486
v 12 0.0885 40
vn -0.0035 1 -0
v 12 0.0886 41.3333
vn -0.0035 1 -0
v 13.3333 0.0933 41.3333
vn -0.0035 1 -0
f 487//487 488//488 489//489
v 12 0.0885 40
vn -0.0033 1 -0.0003
v 13.3333 0.0933 41.3333
vn -0.0033 1 -0.0003
v 13.3333 0.0929 40
vn -0.0033 1 -0.0003
f 490//490 491//491 492//492
v 13.3333 0.0929 40
vn -0.0003 1 -0.0003
v 13.3333 0.0933 41.3333
vn -0.0003 1 -0.0003
v 14.6667 0.0936 41.3333
vn -0.0003 1 -0.0003
f 493//493 494//494 495//495
v 13.3333 0.0929 40
vn 0.0015 1 -0.0021
v 14.6667 0.0936 41.3333
vn 0.0015 1 -0.0021
v 14.6667 0.0908 40
vn 0.0015 1 -0.0021
f 496//496 497//497 498//498
v 14.6667 0.0908 40
vn 0.0011 1 -0.0021
v 14.6667 0.0936 41.3333
vn 0.0011 1 -0.0021
v 16 0.0922 41.3333
vn 0.0011 1 -0.0021
f 499//499 500//500 501//501
v 14.6667 0.0908 40
vn 0.003 1 -0.0041
v 16 0.0922 41.3333
vn 0.003 1 -0.0041
v 16 0.0868 40
vn 0.003 1 -0.0041
f 502//502 503//503 504//504
v 0 0.0596 41.3333
vn -0.0016 1 -0.0092
v 0 0.0719 42.6667
vn -0.0016 1 -0.0092
v 1.3333 0.074 42.6667
vn -0.0016 1 -0.0092
f 505//505 506//506 507//507
v 0 0.0596 41.3333
vn -0.0007 0.9999 -0.01
v 1.3333 0.074 42.6667
vn -0.0007 0.9999 -0.01
v 1.3333 0.0606 41.3333
vn -0.0007 0.9999 -0.01
f 508//508 509//509 510//510
v 1.3333 0.0606 41.3333
vn -0.0027 0.9999 -0.01
v 1.3333 0.074 42.6667
vn -0.0027 0.9999 -0.01
v 2.6667 0.0775 42.6667
vn -0.0027 0.9999 -0.01
f 511//511 512//512 513//513
v 1.3333 0.0606 41.3333
vn -0.0008 0.9999 -0.0119
v 2.6667 0.0775 42.6667
vn -0.0008 0.9999 -0.0119
v 2.6667 0.0617 41.3333
vn -0.0008 0.9999 -0.0119
f 514//514 515//515 516//516
v 2.6667 0.0617 41.3333
vn -0.0014 0.9999 -0.0119
v 2.6667 0.0775 42.6667
vn -0.0014 0.9999 -0.0119
v 4 0.0794 42.6667
vn -0.0014 0.9999 -0.0119
f 517//517 518//518 519//519
v 2.6667 0.0617 41.3333
vn -0.0029 0.9999 -0.0103
v 4 0.0794 42.6667
vn -0.0029 0.9999 -0.0103
v 4 0.0656 41.3333
vn -0.0029 0.9999 -0.0103
f 520//520 521//521 522//522
v 4 0.0656 41.3333
vn 0.0023 0.9999 -0.0103
v 4 0.0794 42.6667
vn 0.0023 0.9999 -0.0103
v 5.3333 0.0763 42.6667
vn 0.0023 0.9999 -0.0103
f 523//523 524//524 525//525
v 4 0.0656 41.3333
vn -0.0018 1 -0.0063
v 5.3333 0.0763 42.6667
vn -0.0018 1 -0.0063
v 5.3333 0.068 41.3333
vn -0.0018 1 -0.0063
f 526//526 527//527 528//528
v 5.3333 0.068 41.3333
vn 0.0029 1 -0.0063
v 5.3333 0.0763 42.6667
vn 0.0029 1 -0.0063
v 6.6667 0.0725 42.6667
vn 0.0029 1 -0.0063
f 529//529 530//530 531//531
v 5.3333 0.068 41.3333
vn 0.0032 1 -0.0066
v 6.6667 0.0725 42.6667
vn 0.0032 1 -0.0066
v 6.6667 0.0637 41.3333
vn 0.0032 1 -0.0066
f 532//532 533//533 534//534
v 6.6667 0.0637 41.3333
vn -0.0016 1 -0.0066
v 6.6667 0.0725 42.6667
vn -0.0016 1 -0.0066
v 8 0.0746 42.6667
vn -0.0016 1 -0.0066
f 535//535 536//536 537//537
v 6.6667 0.0637 41.3333
vn -0.001 1 -0.0071
v 8 0.0746 42.6667
vn -0.001 1 -0.0071
v 8 0.0651 41.3333
vn -0.001 1 -0.0071
f 538//538 539//539 540//540
v 8 0.0651 41.3333
vn -0.0022 1 -0.0071
v 8 0.0746 42.6667
vn -0.0022 1 -0.0071
v 9.3333 0.0775 42.6667
vn -0.0022 1 -0.0071
f 541//541 542//542 543//543
v 8 0.0651 41.3333
vn -0.0012 1 -0.0081
v 9.3333 0.0775 42.6667
vn -0.0012 1 -0.0081
v 9.3333 0.0667 41.3333
vn -0.0012 1 -0.0081
f 544//544 545//545 546//546
v 9.3333 0.0667 41.3333
vn -0.0008 1 -0.0081
v 9.3333 0.0775 42.6667
vn -0.0008 1 -0.0081
v 10.6667 0.0786 42.6667
vn -0.0008 1 -0.0081
f 547//547 548//548 549//549
v 9.3333 0.0667 41.3333
vn -0.0043 1 -0.0047
v 10.6667 0.0786 42.6667
vn -0.0043 1 -0.0047
v 10.6667 0.0723 41.3333
vn -0.0043 1 -0.0047
f 550//550 551//551 552//552
v 10.6667 0.0723 41.3333
vn -0.0034 1 -0.0047
v 10.6667 0.0786 42.6667
vn -0.0034 1 -0.0047
v 12 0.0832 42.6667
vn -0.0034 1 -0.0047
f 553//553 554//554 555//555
v 10.6667 0.0723 41.3333
vn -0.0122 0.9999 0.0041
v 12 0.0832 42.6667
vn -0.0122 0.9999 0.0041
v 12 0.0886 41.3333
vn -0.0122 0.9999 0.0041
f 556//556 557//557 558//558
v 12 0.0886 41.3333
vn -0.002 1 0.0041
v 12 0.0832 42.6667
vn -0.002 1 0.0041
v 13.3333 0.0858 42.6667
vn -0.002 1 0.0041
f 559//559 560//560 561//561
v 12 0.0886 41.3333
vn -0.0035 1 0.0056
v 13.3333 0.0858 42.6667
vn -0.0035 1 0.0056
v 13.3333 0.0933 41.3333
vn -0.0035 1 0.0056
f 562//562 563//563 564//564
v 13.3333 0.0933 41.3333
vn -0.0018 1 0.0056
v 13.3333 0.0858 42.6667
vn -0.0018 1 0.0056
v 14.6667 0.0882 42.6667
vn -0.0018 1 0.0056
f 565//565 566//566 567//567
v 13.3333 0.0933 41.3333
vn -0.0003 1 0.0041
v 14.6667 0.0882 42.6667
vn -0.0003 1 0.0041
v 14.6667 0.0936 41.3333
vn -0.0003 1 0.0041
f 568//568 569//569 570//570
v 14.6667 0.0936 41.3333
vn -0.0001 1 0.0041
v 14.6667 0.0882 42.6667
vn -0.0001 1 0.0041
v 16 0.0884 42.6667
vn -0.0001 1 0.0041
f 571//571 572//572 573//573
v 14.6667 0.0936 41.3333
vn 0.0011 1 0.0029
v 16 0.0884 42.6667
vn 0.0011 1 0.0029
v 16 0.0922 41.3333
vn 0.0011 1 0.0029
f 574//574 575//575 576//576
v 0 0.0719 42.6667
vn -0.0005 0.9999 -0.011
v 0 0.0865 44
vn -0.0005 0.9999 -0.011
v 1.3333 0.0871 44
vn -0.0005 0.9999 -0.011
f 577//577 578//578 579//579
v 0 0.0719 42.6667
vn -0.0016 1 -0.0099
v 1.3333 0.0871 44
vn -0.0016 1 -0.0099
v 1.3333 0.074 42.6667
vn -0.0016 1 -0.0099
f 580//580 581//581 582//582
v 1.3333 0.074 42.6667
vn -0.0017 0.9999 -0.0099
v 1.3333 0.0871 44
vn -0.0017 0.9999 -0.0099
v 2.6667 0.0895 44
vn -0.0017 0.9999 -0.0099
f 583//583 584//584 585//585
v 1.3333 0.074 42.6667
vn -0.0027 1 -0.009
v 2.6667 0.0895 44
vn -0.0027 1 -0.009
v 2.6667 0.0775 42.6667
vn -0.0027 1 -0.009
f 586//586 587//587 588//588
v 2.6667 0.0775 42.6667
vn 0.0008 1 -0.009
v 2.6667 0.0895 44
vn 0.0008 1 -0.009
v 4 0.0884 44
vn 0.0008 1 -0.009
f 589//589 590//590 591//591
v 2.6667 0.0775 42.6667
vn -0.0014 1 -0.0068
v 4 0.0884 44
vn -0.0014 1 -0.0068
v 4 0.0794 42.6667
vn -0.0014 1 -0.0068
f 592//592 593//593 594//594
v 4 0.0794 42.6667
vn 0.0008 1 -0.0068
v 4 0.0884 44
vn 0.0008 1 -0.0068
v 5.3333 0.0874 44
vn 0.0008 1 -0.0068
f 595//595 596//596 597//597
v 4 0.0794 42.6667
vn 0.0023 1 -0.0083
v 5.3333 0.0874 44
vn 0.0023 1 -0.0083
v 5.3333 0.0763 42.6667
vn 0.0023 1 -0.0083
f 598//598 599//599 600//600
v 5.3333 0.0763 42.6667
vn -0.0041 1 -0.0083
v 5.3333 0.0874 44
vn -0.0041 1 -0.0083
v 6.6667 0.0929 44
vn -0.0041 1 -0.0083
f 601//601 602//602 603//603
v 5.3333 0.0763 42.6667
vn 0.0029 0.9999 -0.0153
v 6.6667 0.0929 44
vn 0.0029 0.9999 -0.0153
v 6.6667 0.0725 42.6667
vn 0.0029 0.9999 -0.0153
f 604//604 605//605 606//606
v 6.6667 0.0725 42.6667
vn -0.0008 0.9999 -0.0153
v 6.6667 0.0929 44
vn -0.0008 0.9999 -0.0153
v 8 0.094 44
vn -0.0008 0.9999 -0.0153
f 607//607 608//608 609//609
v 6.6667 0.0725 42.6667
vn -0.0016 0.9999 -0.0146
v 8 0.094 44
vn -0.0016 0.9999 -0.0146
v 8 0.0746 42.6667
vn -0.0016 0.9999 -0.0146
f 610//610 611//611 612//612
v 8 0.0746 42.6667
vn -0.0009 0.9999 -0.0146
v 8 0.094 44
vn -0.0009 0.9999 -0.0146
v 9.3333 0.0952 44
vn -0.0009 0.9999 -0.0146
f 613//613 614//614 615//615
v 8 0.0746 42.6667
vn -0.0022 0.9999 -0.0133
v 9.3333 0.0952 44
vn -0.0022 0.9999 -0.0133
v 9.3333 0.0775 42.6667
vn -0.0022 0.9999 -0.0133
f 616//616 617//617 618//618
v 9.3333 0.0775 42.6667
vn 0.0027 0.9999 -0.0133
v 9.3333 0.0952 44
vn 0.0027 0.9999 -0.0133
v 10.6667 0.0916 44
vn 0.0027 0.9999 -0.0133
f 619//619 620//620 621//621
v 9.3333 0.0775 42.6667
vn -0.0008 1 -0.0098
v 10.6667 0.0916 44
vn -0.0008 1 -0.0098
v 10.6667 0.0786 42.6667
vn -0.0008 1 -0.0098
f 622//622 623//623 624//624
v 10.6667 0.0786 42.6667
vn 0.0121 0.9999 -0.0098
v 10.6667 0.0916 44
vn 0.0121 0.9999 -0.0098
v 12 0.0754 44
vn 0.0121 0.9999 -0.0098
f 625//625 626//626 627//627
v 10.6667 0.0786 42.6667
vn -0.0034 1 0.0058
v 12 0.0754 44
vn -0.0034 1 0.0058
v 12 0.0832 42.6667
vn -0.0034 1 0.0058
f 628//628 629//629 630//630
v 12 0.0832 42.6667
vn 0.0033 1 0.0058
v 12 0.0754 44
vn 0.0033 1 0.0058
v 13.3333 0.071 44
vn 0.0033 1 0.0058
f 631//631 632//632 633//633
v 12 0.0832 42.6667
vn -0.002 0.9999 0.0111
v 13.3333 0.071 44
vn -0.002 0.9999 0.0111
v 13.3333 0.0858 42.6667
vn -0.002 0.9999 0.0111
f 634//634 635//635 636//636
v 13.3333 0.0858 42.6667
vn 0 0.9999 0.0111
v 13.3333 0.071 44
vn 0 0.9999 0.0111
v 14.6667 0.071 44
vn 0 0.9999 0.0111
f 637//637 638//638 639//639
v 13.3333 0.0858 42.6667
vn -0.0017 0.9999 0.0128
v 14.6667 0.071 44
vn -0.0017 0.9999 0.0128
v 14.6667 0.0882 42.6667
vn -0.0017 0.9999 0.0128
f 640//640 641//641 642//642
v 14.6667 0.0882 42.6667
vn 0.0008 0.9999 0.0128
v 14.6667 0.071 44
vn 0.0008 0.9999 0.0128
v 16 0.07 44
vn 0.0008 0.9999 0.0128
f 643//643 644//644 645//645
v 14.6667 0.0882 42.6667
vn -0.0001 0.9999 0.0137
v 16 0.07 44
vn -0.0001 0.9999 0.0137
v 16 0.0884 42.6667
vn -0.0001 0.9999 0.0137
f 646//646 647//647 648//648
v 0 0.0865 44
vn -0.0003 1 -0.0023
v 0 0.0895 45.3333
vn -0.0003 1 -0.0023
v 1.3333 0.0899 45.3333
vn -0.0003 1 -0.0023
f 649//649 650//650 651//651
v 0 0.0865 44
vn -0.0005 1 -0.0021
v 1.3333 0.0899 45.3333
vn -0.0005 1 -0.0021
v 1.3333 0.0871 44
vn -0.0005 1 -0.0021
f 652//652 653//653 654//654
v 1.3333 0.0871 44
vn -0.0015 1 -0.0021
v 1.3333 0.0899 45.3333
vn -0.0015 1 -0.0021
v 2.6667 0.0919 45.3333
vn -0.0015 1 -0.0021
f 655//655 656//656 657//657
v 1.3333 0.0871 44
vn -0.0017 1 -0.0019
v 2.6667 0.0919 45.3333
vn -0.0017 1 -0.0019
v 2.6667 0.0895 44
vn -0.0017 1 -0.0019
f 658//658 659//659 660//660
v 2.6667 0.0895 44
vn 0.0016 1 -0.0019
v 2.6667 0.0919 45.3333
vn 0.0016 1 -0.0019
v 4 0.0899 45.3333
vn 0.0016 1 -0.0019
f 661//661 662//662 663//663
v 2.6667 0.0895 44
vn 0.0008 1 -0.0011
v 4 0.0899 45.3333
vn 0.0008 1 -0.0011
v 4 0.0884 44
vn 0.0008 1 -0.0011
f 664//664 665//665 666//666
v 4 0.0884 44
vn 0.0015 1 -0.0011
v 4 0.0899 45.3333
vn 0.0015 1 -0.0011
v 5.3333 0.0879 45.3333
vn 0.0015 1 -0.0011
f 667//667 668//668 669//669
v 4 0.0884 44
vn 0.0008 1 -0.0004
v 5.3333 0.0879 45.3333
vn 0.0008 1 -0.0004
v 5.3333 0.0874 44
vn 0.0008 1 -0.0004
f 670//670 671//671 672//672
v 5.3333 0.0874 44
vn -0.0039 1 -0.0004
v 5.3333 0.0879 45.3333
vn -0.0039 1 -0.0004
v 6.6667 0.093 45.3333
vn -0.0039 1 -0.0004
f 673//673 674//674 675//675
v 5.3333 0.0874 44
vn -0.0041 1 -0.0001
v 6.6667 0.093 45.3333
vn -0.0041 1 -0.0001
v 6.6667 0.0929 44
vn -0.0041 1 -0.0001
f 676//676 677//677 678//678
v 6.6667 0.0929 44
vn -0.0013 1 -0.0001
v 6.6667 0.093 45.3333
vn -0.0013 1 -0.0001
v 8 0.0948 45.3333
vn -0.0013 1 -0.0001
f 679//679 680//680 681//681
v 6.6667 0.0929 44
vn -0.0008 1 -0.0006
v 8 0.0948 45.3333
vn -0.0008 1 -0.0006
v 8 0.094 44
vn -0.0008 1 -0.0006
f 682//682 683//683 684//684
v 8 0.094 44
vn -0.0008 1 -0.0006
v 8 0.0948 45.3333
vn -0.0008 1 -0.0006
v 9.3333 0.0959 45.3333
vn -0.0008 1 -0.0006
f 685//685 686//686 687//687
v 8 0.094 44
vn -0.0009 1 -0.0005
v 9.3333 0.0959 45.3333
vn -0.0009 1 -0.0005
v 9.3333 0.0952 44
vn -0.0009 1 -0.0005
f 688//688 689//689 690//690
v 9.3333 0.0952 44
vn 0.0029 1 -0.0005
v 9.3333 0.0959 45.3333
vn 0.0029 1 -0.0005
v 10.6667 0.092 45.3333
vn 0.0029 1 -0.0005
f 691//691 692//692 693//693
v 9.3333 0.0952 44
vn 0.0027 1 -0.0003
v 10.6667 0.092 45.3333
vn 0.0027 1 -0.0003
v 10.6667 0.0916 44
vn 0.0027 1 -0.0003
f 694//694 695//695 696//696
v 10.6667 0.0916 44
vn 0.0128 0.9999 -0.0003
v 10.6667 0.092 45.3333
vn 0.0128 0.9999 -0.0003
v 12 0.0749 45.3333
vn 0.0128 0.9999 -0.0003
f 697//697 698//698 699//699
v 10.6667 0.0916 44
vn 0.0121 0.9999 0.0004
v 12 0.0749 45.3333
vn 0.0121 0.9999 0.0004
v 12 0.0754 44
vn 0.0121 0.9999 0.0004
f 700//700 701//701 702//702
v 12 0.0754 44
vn 0.0035 1 0.0004
v 12 0.0749 45.3333
vn 0.0035 1 0.0004
v 13.3333 0.0702 45.3333
vn 0.0035 1 0.0004
f 703//703 704//704 705//705
v 12 0.0754 44
vn 0.0033 1 0.0006
v 13.3333 0.0702 45.3333
vn 0.0033 1 0.0006
v 13.3333 0.071 44
vn 0.0033 1 0.0006
f 706//706 707//707 708//708
v 13.3333 0.071 44
vn 0.0001 1 0.0006
v 13.3333 0.0702 45.3333
vn 0.0001 1 0.0006
v 14.6667 0.0701 45.3333
vn 0.0001 1 0.0006
f 709//709 710//710 711//711
v 13.3333 0.071 44
vn 0 1 0.0007
v 14.6667 0.0701 45.3333
vn 0 1 0.0007
v 14.6667 0.071 44
vn 0 1 0.0007
f 712//712 713//713 714//714
v 14.6667 0.071 44
vn 0.0004 1 0.0007
v 14.6667 0.0701 45.3333
vn 0.0004 1 0.0007
v 16 0.0696 45.3333
vn 0.0004 1 0.0007
f 715//715 716//716 717//717
v 14.6667 0.071 44
vn 0.0008 1 0.0003
v 16 0.0696 45.3333
vn 0.0008 1 0.0003
v 16 0.07 44
vn 0.0008 1 0.0003
f 718//718 719//719 720//720
v 0 0.0895 45.3333
vn -0.0001 1 -0.0024
v 0 0.0928 46.6667
vn -0.0001 1 -0.0024
v 1.3333 0.0929 46.6667
vn -0.0001 1 -0.0024
f 721//721 722//722 723//723
v 0 0.0895 45.3333
vn -0.0003 1 -0.0023
v 1.3333 0.0929 46.6667
vn -0.0003 1 -0.0023
v 1.3333 0.0899 45.3333
vn -0.0003 1 -0.0023
f 724//724 725//725 726//726
v 1.3333 0.0899 45.3333
vn -0.0009 1 -0.0023
v 1.3333 0.0929 46.6667
vn -0.0009 1 -0.0023
v 2.6667 0.0942 46.6667
vn -0.0009 1 -0.0023
f 727//727 728//728 729//729
v 1.3333 0.0899 45.3333
vn -0.0015 1 -0.0017
v 2.6667 0.0942 46.6667
vn -0.0015 1 -0.0017
v 2.6667 0.0919 45.3333
vn -0.0015 1 -0.0017
f 730//730 731//731 732//732
v 2.6667 0.0919 45.3333
vn 0.0013 1 -0.0017
v 2.6667 0.0942 46.6667
vn 0.0013 1 -0.0017
v 4 0.0924 46.6667
vn 0.0013 1 -0.0017
f 733//733 734//734 735//735
v 2.6667 0.0919 45.3333
vn 0.0016 1 -0.0019
v 4 0.0924 46.6667
vn 0.0016 1 -0.0019
v 4 0.0899 45.3333
vn 0.0016 1 -0.0019
f 736//736 737//737 738//738
v 4 0.0899 45.3333
vn 0.0016 1 -0.0019
v 4 0.0924 46.6667
vn 0.0016 1 -0.0019
v 5.3333 0.0902 46.6667
vn 0.0016 1 -0.0019
f 739//739 740//740 741//741
v 4 0.0899 45.3333
vn 0.0015 1 -0.0018
v 5.3333 0.0902 46.6667
vn 0.0015 1 -0.0018
v 5.3333 0.0879 45.3333
vn 0.0015 1 -0.0018
f 742//742 743//743 744//744
v 5.3333 0.0879 45.3333
vn -0.003 1 -0.0018
v 5.3333 0.0902 46.6667
vn -0.003 1 -0.0018
v 6.6667 0.0942 46.6667
vn -0.003 1 -0.0018
f 745//745 746//746 747//747
v 5.3333 0.0879 45.3333
vn -0.0039 1 -0.0009
v 6.6667 0.0942 46.6667
vn -0.0039 1 -0.0009
v 6.6667 0.093 45.3333
vn -0.0039 1 -0.0009
f 748//748 749//749 750//750
v 6.6667 0.093 45.3333
vn -0.0002 1 -0.0009
v 6.6667 0.0942 46.6667
vn -0.0002 1 -0.0009
v 8 0.0944 46.6667
vn -0.0002 1 -0.0009
f 751//751 752//752 753//753
v 6.6667 0.093 45.3333
vn -0.0013 1 0.0003
v 8 0.0944 46.6667
vn -0.0013 1 0.0003
v 8 0.0948 45.3333
vn -0.0013 1 0.0003
f 754//754 755//755 756//756
v 8 0.0948 45.3333
vn -0.0008 1 0.0003
v 8 0.0944 46.6667
vn -0.0008 1 0.0003
v 9.3333 0.0954 46.6667
vn -0.0008 1 0.0003
f 757//757 758//758 759//759
v 8 0.0948 45.3333
vn -0.0008 1 0.0003
v 9.3333 0.0954 46.6667
vn -0.0008 1 0.0003
v 9.3333 0.0959 45.3333
vn -0.0008 1 0.0003
f 760//760 761//761 762//762
v 9.3333 0.0959 45.3333
vn 0.0035 1 0.0003
v 9.3333 0.0954 46.6667
vn 0.0035 1 0.0003
v 10.6667 0.0907 46.6667
vn 0.0035 1 0.0003
f 763//763 764//764 765//765
v 9.3333 0.0959 45.3333
vn 0.0029 1 0.0009
v 10.6667 0.0907 46.6667
vn 0.0029 1 0.0009
v 10.6667 0.092 45.3333
vn 0.0029 1 0.0009
f 766//766 767//767 768//768
v 10.6667 0.092 45.3333
vn 0.0122 0.9999 0.0009
v 10.6667 0.0907 46.6667
vn 0.0122 0.9999 0.0009
v 12 0.0745 46.6667
vn 0.0122 0.9999 0.0009
f 769//769 770//770 771//771
v 10.6667 0.092 45.3333
vn 0.0128 0.9999 0.0003
v 12 0.0745 46.6667
vn 0.0128 0.9999 0.0003
v 12 0.0749 45.3333
vn 0.0128 0.9999 0.0003
f 772//772 773//773 774//774
v 12 0.0749 45.3333
vn 0.0036 1 0.0003
v 12 0.0745 46.6667
vn 0.0036 1 0.0003
v 13.3333 0.0697 46.6667
vn 0.0036 1 0.0003
f 775//775 776//776 777//777
v 12 0.0749 45.3333
vn 0.0035 1 0.0004
v 13.3333 0.0697 46.6667
vn 0.0035 1 0.0004
v 13.3333 0.0702 45.3333
vn 0.0035 1 0.0004
f 778//778 779//779 780//780
v 13.3333 0.0702 45.3333
vn 0.0003 1 0.0004
v 13.3333 0.0697 46.6667
vn 0.0003 1 0.0004
v 14.6667 0.0693 46.6667
vn 0.0003 1 0.0004
f 781//781 782//782 783//783
v 13.3333 0.0702 45.3333
vn 0.0001 1 0.0006
v 14.6667 0.0693 46.6667
vn 0.0001 1 0.0006
v 14.6667 0.0701 45.3333
vn 0.0001 1 0.0006
f 784//784 785//785 786//786
v 14.6667 0.0701 45.3333
vn -0.0001 1 0.0006
v 14.6667 0.0693 46.6667
vn -0.0001 1 0.0006
v 16 0.0694 46.6667
vn -0.0001 1 0.0006
f 787//787 788//788 789//789
v 14.6667 0.0701 45.3333
vn 0.0004 1 0.0001
v 16 0.0694 46.6667
vn 0.0004 1 0.0001
v 16 0.0696 45.3333
vn 0.0004 1 0.0001
f 790//790 791//791 792//792
v 0 0.0928 46.6667
vn -0.0001 1 -0.0019
v 0 0.0953 48
vn -0.0001 1 -0.0019
v 1.3333 0.0954 48
vn -0.0001 1 -0.0019
f 793//793 794//794 795//795
v 0 0.0928 46.6667
vn -0.0001 1 -0.0019
v 1.3333 0.0954 48
vn -0.0001 1 -0.0019
v 1.3333 0.0929 46.6667
vn -0.0001 1 -0.0019
f 796//796 797//797 798//798
v 1.3333 0.0929 46.6667
vn -0.0007 1 -0.0019
v 1.3333 0.0954 48
vn -0.0007 1 -0.0019
v 2.6667 0.0964 48
vn -0.0007 1 -0.0019
f 799//799 800//800 801//801
v 1.3333 0.0929 46.6667
vn -0.0009 1 -0.0017
v 2.6667 0.0964 48
vn -0.0009 1 -0.0017
v 2.6667 0.0942 46.6667
vn -0.0009 1 -0.0017
f 802//802 803//803 804//804
v 2.6667 0.0942 46.6667
vn 0.002 1 -0.0017
v 2.6667 0.0964 48
vn 0.002 1 -0.0017
v 4 0.0938 48
vn 0.002 1 -0.0017
f 805//805 806//806 807//807
v 2.6667 0.0942 46.6667
vn 0.0013 1 -0.001
v 4 0.0938 48
vn 0.0013 1 -0.001
v 4 0.0924 46.6667
vn 0.0013 1 -0.001
f 808//808 809//809 810//810
v 4 0.0924 46.6667
vn 0.0022 1 -0.001
v 4 0.0938 48
vn 0.0022 1 -0.001
v 5.3333 0.0909 48
vn 0.0022 1 -0.001
f 811//811 812//812 813//813
v 4 0.0924 46.6667
vn 0.0016 1 -0.0005
v 5.3333 0.0909 48
vn 0.0016 1 -0.0005
v 5.3333 0.0902 46.6667
vn 0.0016 1 -0.0005
f 814//814 815//815 816//816
v 5.3333 0.0902 46.6667
vn -0.0027 1 -0.0005
v 5.3333 0.0909 48
vn -0.0027 1 -0.0005
v 6.6667 0.0945 48
vn -0.0027 1 -0.0005
f 817//817 818//818 819//819
v 5.3333 0.0902 46.6667
vn -0.003 1 -0.0003
v 6.6667 0.0945 48
vn -0.003 1 -0.0003
v 6.6667 0.0942 46.6667
vn -0.003 1 -0.0003
f 820//820 821//821 822//822
v 6.6667 0.0942 46.6667
vn -0 1 -0.0003
v 6.6667 0.0945 48
vn -0 1 -0.0003
v 8 0.0946 48
vn -0 1 -0.0003
f 823//823 824//824 825//825
v 6.6667 0.0942 46.6667
vn -0.0002 1 -0.0001
v 8 0.0946 48
vn -0.0002 1 -0.0001
v 8 0.0944 46.6667
vn -0.0002 1 -0.0001
f 826//826 827//827 828//828
v 8 0.0944 46.6667
vn -0.0005 1 -0.0001
v 8 0.0946 48
vn -0.0005 1 -0.0001
v 9.3333 0.0952 48
vn -0.0005 1 -0.0001
f 829//829 830//830 831//831
v 8 0.0944 46.6667
vn -0.0008 1 0.0001
v 9.3333 0.0952 48
vn -0.0008 1 0.0001
v 9.3333 0.0954 46.6667
vn -0.0008 1 0.0001
f 832//832 833//833 834//834
v 9.3333 0.0954 46.6667
vn 0.0037 1 0.0001
v 9.3333 0.0952 48
vn 0.0037 1 0.0001
v 10.6667 0.0903 48
vn 0.0037 1 0.0001
f 835//835 836//836 837//837
v 9.3333 0.0954 46.6667
vn 0.0035 1 0.0003
v 10.6667 0.0903 48
vn 0.0035 1 0.0003
v 10.6667 0.0907 46.6667
vn 0.0035 1 0.0003
f 838//838 839//839 840//840
v 10.6667 0.0907 46.6667
vn 0.0127 0.9999 0.0003
v 10.6667 0.0903 48
vn 0.0127 0.9999 0.0003
v 12 0.0734 48
vn 0.0127 0.9999 0.0003
f 841//841 842//842 843//843
v 10.6667 0.0907 46.6667
vn 0.0122 0.9999 0.0008
v 12 0.0734 48
vn 0.0122 0.9999 0.0008
v 12 0.0745 46.6667
vn 0.0122 0.9999 0.0008
f 844//844 845//845 846//846
v 12 0.0745 46.6667
vn 0.0036 1 0.0008
v 12 0.0734 48
vn 0.0036 1 0.0008
v 13.3333 0.0686 48
vn 0.0036 1 0.0008
f 847//847 848//848 849//849
v 12 0.0745 46.6667
vn 0.0036 1 0.0008
v 13.3333 0.0686 48
vn 0.0036 1 0.0008
v 13.3333 0.0697 46.6667
vn 0.0036 1 0.0008
f 850//850 851//851 852//852
v 13.3333 0.0697 46.6667
vn -0.0004 1 0.0008
v 13.3333 0.0686 48
vn -0.0004 1 0.0008
v 14.6667 0.0692 48
vn -0.0004 1 0.0008
f 853//853 854//854 855//855
v 13.3333 0.0697 46.6667
vn 0.0003 1 0.0001
v 14.6667 0.0692 48
vn 0.0003 1 0.0001
v 14.6667 0.0693 46.6667
vn 0.0003 1 0.0001
f 856//856 857//857 858//858
v 14.6667 0.0693 46.6667
vn -0.0007 1 0.0001
v 14.6667 0.0692 48
vn -0.0007 1 0.0001
v 16 0.0701 48
vn -0.0007 1 0.0001
f 859//859 860//860 861//861
v 14.6667 0.0693 46.6667
vn -0.0001 1 -0.0005
v 16 0.0701 48
vn -0.0001 1 -0.0005
v 16 0.0694 46.6667
vn -0.0001 1 -0.0005
f 862//862 863//863 864//864
