# litt live chunk - perpetual grass world
# chunk (2,-1) seed=1337 size=16 res=12
mtllib materials.mtl
o chunk_2_-1
g grass_a
usemtl grass_a
v 32 0.9467 -5.3333
vn 0.0066 0.9888 0.1491
v 32 0.7457 -4
vn 0.0066 0.9888 0.1491
v 33.3333 0.7367 -4
vn 0.0066 0.9888 0.1491
f 1//1 2//2 3//3
v 33.3333 0.9392 -5.3333
vn 0.0068 0.9886 0.1502
v 33.3333 0.7367 -4
vn 0.0068 0.9886 0.1502
v 34.6667 0.7275 -4
vn 0.0068 0.9886 0.1502
f 4//4 5//5 6//6
v 34.6667 0.9336 -5.3333
vn -0.0027 0.9883 0.1527
v 34.6667 0.7275 -4
vn -0.0027 0.9883 0.1527
v 36 0.7312 -4
vn -0.0027 0.9883 0.1527
f 7//7 8//8 9//9
v 36 0.9385 -5.3333
vn -0.0012 0.9881 0.1536
v 36 0.7312 -4
vn -0.0012 0.9881 0.1536
v 37.3333 0.7328 -4
vn -0.0012 0.9881 0.1536
f 10//10 11//11 12//12
v 36 0.9385 -5.3333
vn -0.0032 0.9878 0.1556
v 37.3333 0.7328 -4
vn -0.0032 0.9878 0.1556
v 37.3333 0.9428 -5.3333
vn -0.0032 0.9878 0.1556
f 13//13 14//14 15//15
v 37.3333 0.9428 -5.3333
vn -0.0043 0.9878 0.1556
v 37.3333 0.7328 -4
vn -0.0043 0.9878 0.1556
v 38.6667 0.7386 -4
vn -0.0043 0.9878 0.1556
f 16//16 17//17 18//18
v 38.6667 0.9464 -5.3333
vn -0.0002 0.9881 0.154
v 38.6667 0.7386 -4
vn -0.0002 0.9881 0.154
v 40 0.7389 -4
vn -0.0002 0.9881 0.154
f 19//19 20//20 21//21
v 40 0.9453 -5.3333
vn -0.0003 0.9882 0.1529
v 40 0.7389 -4
vn -0.0003 0.9882 0.1529
v 41.3333 0.7394 -4
vn -0.0003 0.9882 0.1529
f 22//22 23//23 24//24
v 41.3333 0.9425 -5.3333
vn -0.003 0.9886 0.1506
v 41.3333 0.7394 -4
vn -0.003 0.9886 0.1506
v 42.6667 0.7434 -4
vn -0.003 0.9886 0.1506
f 25//25 26//26 27//27
v 42.6667 0.9424 -5.3333
vn -0.0043 0.989 0.1476
v 42.6667 0.7434 -4
vn -0.0043 0.989 0.1476
v 44 0.7492 -4
vn -0.0043 0.989 0.1476
f 28//28 29//29 30//30
v 44 0.9454 -5.3333
vn 0.002 0.9893 0.1456
v 44 0.7492 -4
vn 0.002 0.9893 0.1456
v 45.3333 0.7465 -4
vn 0.002 0.9893 0.1456
f 31//31 32//32 33//33
v 45.3333 0.9345 -5.3333
vn 0.0121 0.9901 0.1396
v 45.3333 0.7465 -4
vn 0.0121 0.9901 0.1396
v 46.6667 0.7302 -4
vn 0.0121 0.9901 0.1396
f 34//34 35//35 36//36
v 46.6667 0.9096 -5.3333
vn 0.0004 0.9911 0.1334
v 46.6667 0.7302 -4
vn 0.0004 0.9911 0.1334
v 48 0.7297 -4
vn 0.0004 0.9911 0.1334
f 37//37 38//38 39//39
v 32 0.7457 -4
vn 0.0076 0.9874 0.1582
v 32 0.532 -2.6667
vn 0.0076 0.9874 0.1582
v 33.3333 0.5218 -2.6667
vn 0.0076 0.9874 0.1582
f 40//40 41//41 42//42
v 32 0.7457 -4
vn 0.0066 0.9872 0.1591
v 33.3333 0.5218 -2.6667
vn 0.0066 0.9872 0.1591
v 33.3333 0.7367 -4
vn 0.0066 0.9872 0.1591
f 43//43 44//44 45//45
v 33.3333 0.7367 -4
vn 0.0091 0.9872 0.1591
v 33.3333 0.5218 -2.6667
vn 0.0091 0.9872 0.1591
v 34.6667 0.5095 -2.6667
vn 0.0091 0.9872 0.1591
f 46//46 47//47 48//48
v 33.3333 0.7367 -4
vn 0.0068 0.9869 0.1614
v 34.6667 0.5095 -2.6667
vn 0.0068 0.9869 0.1614
v 34.6667 0.7275 -4
vn 0.0068 0.9869 0.1614
f 49//49 50//50 51//51
v 34.6667 0.7275 -4
vn -0 0.9869 0.1614
v 34.6667 0.5095 -2.6667
vn -0 0.9869 0.1614
v 36 0.5095 -2.6667
vn -0 0.9869 0.1614
f 52//52 53//53 54//54
v 34.6667 0.7275 -4
vn -0.0027 0.9865 0.164
v 36 0.5095 -2.6667
vn -0.0027 0.9865 0.164
v 36 0.7312 -4
vn -0.0027 0.9865 0.164
f 55//55 56//56 57//57
v 36 0.7312 -4
vn -0 0.9865 0.164
v 36 0.5095 -2.6667
vn -0 0.9865 0.164
v 37.3333 0.5096 -2.6667
vn -0 0.9865 0.164
f 58//58 59//59 60//60
v 36 0.7312 -4
vn -0.0012 0.9863 0.1652
v 37.3333 0.5096 -2.6667
vn -0.0012 0.9863 0.1652
v 37.3333 0.7328 -4
vn -0.0012 0.9863 0.1652
f 61//61 62//62 63//63
v 37.3333 0.7328 -4
vn -0.0045 0.9863 0.1652
v 37.3333 0.5096 -2.6667
vn -0.0045 0.9863 0.1652
v 38.6667 0.5157 -2.6667
vn -0.0045 0.9863 0.1652
f 64//64 65//65 66//66
v 37.3333 0.7328 -4
vn -0.0043 0.9863 0.1649
v 38.6667 0.5157 -2.6667
vn -0.0043 0.9863 0.1649
v 38.6667 0.7386 -4
vn -0.0043 0.9863 0.1649
f 67//67 68//68 69//69
v 38.6667 0.7386 -4
vn -0.0013 0.9863 0.1649
v 38.6667 0.5157 -2.6667
vn -0.0013 0.9863 0.1649
v 40 0.5175 -2.6667
vn -0.0013 0.9863 0.1649
f 70//70 71//71 72//72
v 38.6667 0.7386 -4
vn -0.0002 0.9865 0.1638
v 40 0.5175 -2.6667
vn -0.0002 0.9865 0.1638
v 40 0.7389 -4
vn -0.0002 0.9865 0.1638
f 73//73 74//74 75//75
v 40 0.7389 -4
vn -0.0026 0.9865 0.1638
v 40 0.5175 -2.6667
vn -0.0026 0.9865 0.1638
v 41.3333 0.521 -2.6667
vn -0.0026 0.9865 0.1638
f 76//76 77//77 78//78
v 40 0.7389 -4
vn -0.0003 0.9869 0.1616
v 41.3333 0.521 -2.6667
vn -0.0003 0.9869 0.1616
v 41.3333 0.7394 -4
vn -0.0003 0.9869 0.1616
f 79//79 80//80 81//81
v 41.3333 0.7394 -4
vn -0.0056 0.9868 0.1616
v 41.3333 0.521 -2.6667
vn -0.0056 0.9868 0.1616
v 42.6667 0.5286 -2.6667
vn -0.0056 0.9868 0.1616
f 82//82 83//83 84//84
v 41.3333 0.7394 -4
vn -0.003 0.9873 0.159
v 42.6667 0.5286 -2.6667
vn -0.003 0.9873 0.159
v 42.6667 0.7434 -4
vn -0.003 0.9873 0.159
f 85//85 86//86 87//87
v 42.6667 0.7434 -4
vn -0.0065 0.9873 0.159
v 42.6667 0.5286 -2.6667
vn -0.0065 0.9873 0.159
v 44 0.5374 -2.6667
vn -0.0065 0.9873 0.159
f 88//88 89//89 90//90
v 42.6667 0.7434 -4
vn -0.0043 0.9876 0.1569
v 44 0.5374 -2.6667
vn -0.0043 0.9876 0.1569
v 44 0.7492 -4
vn -0.0043 0.9876 0.1569
f 91//91 92//92 93//93
v 44 0.7492 -4
vn -0.0034 0.9876 0.1569
v 44 0.5374 -2.6667
vn -0.0034 0.9876 0.1569
v 45.3333 0.542 -2.6667
vn -0.0034 0.9876 0.1569
f 94//94 95//95 96//96
v 44 0.7492 -4
vn 0.002 0.9884 0.1516
v 45.3333 0.542 -2.6667
vn 0.002 0.9884 0.1516
v 45.3333 0.7465 -4
vn 0.002 0.9884 0.1516
f 97//97 98//98 99//99
v 45.3333 0.7465 -4
vn 0.0042 0.9884 0.1516
v 45.3333 0.542 -2.6667
vn 0.0042 0.9884 0.1516
v 46.6667 0.5363 -2.6667
vn 0.0042 0.9884 0.1516
f 100//100 101//101 102//102
v 45.3333 0.7465 -4
vn 0.0121 0.9895 0.1439
v 46.6667 0.5363 -2.6667
vn 0.0121 0.9895 0.1439
v 46.6667 0.7302 -4
vn 0.0121 0.9895 0.1439
f 103//103 104//104 105//105
v 46.6667 0.7302 -4
vn -0.0061 0.9896 0.1439
v 46.6667 0.5363 -2.6667
vn -0.0061 0.9896 0.1439
v 48 0.5445 -2.6667
vn -0.0061 0.9896 0.1439
f 106//106 107//107 108//108
v 46.6667 0.7302 -4
vn 0.0004 0.9905 0.1376
v 48 0.5445 -2.6667
vn 0.0004 0.9905 0.1376
v 48 0.7297 -4
vn 0.0004 0.9905 0.1376
f 109//109 110//110 111//111
v 32 0.532 -2.6667
vn 0.0007 0.984 0.1779
v 32 0.2909 -1.3333
vn 0.0007 0.984 0.1779
v 33.3333 0.29 -1.3333
vn 0.0007 0.984 0.1779
f 112//112 113//113 114//114
v 32 0.532 -2.6667
vn 0.0075 0.9852 0.1712
v 33.3333 0.29 -1.3333
vn 0.0075 0.9852 0.1712
v 33.3333 0.5218 -2.6667
vn 0.0075 0.9852 0.1712
f 115//115 116//116 117//117
v 33.3333 0.5218 -2.6667
vn 0.0071 0.9852 0.1712
v 33.3333 0.29 -1.3333
vn 0.0071 0.9852 0.1712
v 34.6667 0.2804 -1.3333
vn 0.0071 0.9852 0.1712
f 118//118 119//119 120//120
v 33.3333 0.5218 -2.6667
vn 0.0091 0.9855 0.1693
v 34.6667 0.2804 -1.3333
vn 0.0091 0.9855 0.1693
v 34.6667 0.5095 -2.6667
vn 0.0091 0.9855 0.1693
f 121//121 122//122 123//123
v 34.6667 0.5095 -2.6667
vn 0.0008 0.9856 0.1693
v 34.6667 0.2804 -1.3333
vn 0.0008 0.9856 0.1693
v 36 0.2793 -1.3333
vn 0.0008 0.9856 0.1693
f 124//124 125//125 126//126
v 34.6667 0.5095 -2.6667
vn -0 0.9854 0.1701
v 36 0.2793 -1.3333
vn -0 0.9854 0.1701
v 36 0.5095 -2.6667
vn -0 0.9854 0.1701
f 127//127 128//128 129//129
v 36 0.5095 -2.6667
vn 0.0001 0.9854 0.1701
v 36 0.2793 -1.3333
vn 0.0001 0.9854 0.1701
v 37.3333 0.2791 -1.3333
vn 0.0001 0.9854 0.1701
f 130//130 131//131 132//132
v 36 0.5095 -2.6667
vn -0 0.9854 0.1703
v 37.3333 0.2791 -1.3333
vn -0 0.9854 0.1703
v 37.3333 0.5096 -2.6667
vn -0 0.9854 0.1703
f 133//133 134//134 135//135
v 37.3333 0.5096 -2.6667
vn -0.0011 0.9854 0.1703
v 37.3333 0.2791 -1.3333
vn -0.0011 0.9854 0.1703
v 38.6667 0.2806 -1.3333
vn -0.0011 0.9854 0.1703
f 136//136 137//137 138//138
v 37.3333 0.5096 -2.6667
vn -0.0045 0.9848 0.1736
v 38.6667 0.2806 -1.3333
vn -0.0045 0.9848 0.1736
v 38.6667 0.5157 -2.6667
vn -0.0045 0.9848 0.1736
f 139//139 140//140 141//141
v 38.6667 0.5157 -2.6667
vn 0.0015 0.9848 0.1736
v 38.6667 0.2806 -1.3333
vn 0.0015 0.9848 0.1736
v 40 0.2786 -1.3333
vn 0.0015 0.9848 0.1736
f 142//142 143//143 144//144
v 38.6667 0.5157 -2.6667
vn -0.0013 0.9843 0.1764
v 40 0.2786 -1.3333
vn -0.0013 0.9843 0.1764
v 40 0.5175 -2.6667
vn -0.0013 0.9843 0.1764
f 145//145 146//146 147//147
v 40 0.5175 -2.6667
vn -0.0042 0.9843 0.1764
v 40 0.2786 -1.3333
vn -0.0042 0.9843 0.1764
v 41.3333 0.2843 -1.3333
vn -0.0042 0.9843 0.1764
f 148//148 149//149 150//150
v 40 0.5175 -2.6667
vn -0.0026 0.9846 0.1748
v 41.3333 0.2843 -1.3333
vn -0.0026 0.9846 0.1748
v 41.3333 0.521 -2.6667
vn -0.0026 0.9846 0.1748
f 151//151 152//152 153//153
v 41.3333 0.521 -2.6667
vn -0.0088 0.9846 0.1748
v 41.3333 0.2843 -1.3333
vn -0.0088 0.9846 0.1748
v 42.6667 0.2962 -1.3333
vn -0.0088 0.9846 0.1748
f 154//154 155//155 156//156
v 41.3333 0.521 -2.6667
vn -0.0056 0.9851 0.1717
v 42.6667 0.2962 -1.3333
vn -0.0056 0.9851 0.1717
v 42.6667 0.5286 -2.6667
vn -0.0056 0.9851 0.1717
f 157//157 158//158 159//159
v 42.6667 0.5286 -2.6667
vn -0.0092 0.9851 0.1717
v 42.6667 0.2962 -1.3333
vn -0.0092 0.9851 0.1717
v 44 0.3087 -1.3333
vn -0.0092 0.9851 0.1717
f 160//160 161//161 162//162
v 42.6667 0.5286 -2.6667
vn -0.0065 0.9856 0.169
v 44 0.3087 -1.3333
vn -0.0065 0.9856 0.169
v 44 0.5374 -2.6667
vn -0.0065 0.9856 0.169
f 163//163 164//164 165//165
v 44 0.5374 -2.6667
vn -0.0129 0.9855 0.169
v 44 0.3087 -1.3333
vn -0.0129 0.9855 0.169
v 45.3333 0.3262 -1.3333
vn -0.0129 0.9855 0.169
f 166//166 167//167 168//168
v 44 0.5374 -2.6667
vn -0.0034 0.9872 0.1597
v 45.3333 0.3262 -1.3333
vn -0.0034 0.9872 0.1597
v 45.3333 0.542 -2.6667
vn -0.0034 0.9872 0.1597
f 169//169 170//170 171//171
v 45.3333 0.542 -2.6667
vn -0.0082 0.9871 0.1597
v 45.3333 0.3262 -1.3333
vn -0.0082 0.9871 0.1597
v 46.6667 0.3373 -1.3333
vn -0.0082 0.9871 0.1597
f 172//172 173//173 174//174
v 45.3333 0.542 -2.6667
vn 0.0042 0.989 0.1476
v 46.6667 0.3373 -1.3333
vn 0.0042 0.989 0.1476
v 46.6667 0.5363 -2.6667
vn 0.0042 0.989 0.1476
f 175//175 176//176 177//177
v 46.6667 0.5363 -2.6667
vn -0.0124 0.989 0.1476
v 46.6667 0.3373 -1.3333
vn -0.0124 0.989 0.1476
v 48 0.354 -1.3333
vn -0.0124 0.989 0.1476
f 178//178 179//179 180//180
v 46.6667 0.5363 -2.6667
vn -0.0061 0.9899 0.1414
v 48 0.354 -1.3333
vn -0.0061 0.9899 0.1414
v 48 0.5445 -2.6667
vn -0.0061 0.9899 0.1414
f 181//181 182//182 183//183
g grass_b
usemtl grass_b
v 32 0.2909 -1.3333
vn -0.0075 0.9932 0.1162
v 32 0.1349 0
vn -0.0075 0.9932 0.1162
v 33.3333 0.145 0
vn -0.0075 0.9932 0.1162
f 184//184 185//185 186//186
v 32 0.2909 -1.3333
vn 0.0007 0.9941 0.1082
v 33.3333 0.145 0
vn 0.0007 0.9941 0.1082
v 33.3333 0.29 -1.3333
vn 0.0007 0.9941 0.1082
f 187//187 188//188 189//189
v 33.3333 0.29 -1.3333
vn -0.0065 0.9941 0.1082
v 33.3333 0.145 0
vn -0.0065 0.9941 0.1082
v 34.6667 0.1537 0
vn -0.0065 0.9941 0.1082
f 190//190 191//191 192//192
v 33.3333 0.29 -1.3333
vn 0.0072 0.9955 0.0946
v 34.6667 0.1537 0
vn 0.0072 0.9955 0.0946
v 34.6667 0.2804 -1.3333
vn 0.0072 0.9955 0.0946
f 193//193 194//194 195//195
v 34.6667 0.2804 -1.3333
vn 0.0032 0.9955 0.0946
v 34.6667 0.1537 0
vn 0.0032 0.9955 0.0946
v 36 0.1494 0
vn 0.0032 0.9955 0.0946
f 196//196 197//197 198//198
v 34.6667 0.2804 -1.3333
vn 0.0008 0.9953 0.097
v 36 0.1494 0
vn 0.0008 0.9953 0.097
v 36 0.2793 -1.3333
vn 0.0008 0.9953 0.097
f 199//199 200//200 201//201
v 36 0.2793 -1.3333
vn 0.0018 0.9953 0.097
v 36 0.1494 0
vn 0.0018 0.9953 0.097
v 37.3333 0.147 0
vn 0.0018 0.9953 0.097
f 202//202 203//203 204//204
v 36 0.2793 -1.3333
vn 0.0001 0.9951 0.0987
v 37.3333 0.147 0
vn 0.0001 0.9951 0.0987
v 37.3333 0.2791 -1.3333
vn 0.0001 0.9951 0.0987
f 205//205 206//206 207//207
v 37.3333 0.2791 -1.3333
vn 0.0018 0.9951 0.0987
v 37.3333 0.147 0
vn 0.0018 0.9951 0.0987
v 38.6667 0.1445 0
vn 0.0018 0.9951 0.0987
f 208//208 209//209 210//210
v 37.3333 0.2791 -1.3333
vn -0.0011 0.9948 0.1015
v 38.6667 0.1445 0
vn -0.0011 0.9948 0.1015
v 38.6667 0.2806 -1.3333
vn -0.0011 0.9948 0.1015
f 211//211 212//212 213//213
v 38.6667 0.2806 -1.3333
vn -0.006 0.9948 0.1015
v 38.6667 0.1445 0
vn -0.006 0.9948 0.1015
v 40 0.1525 0
vn -0.006 0.9948 0.1015
f 214//214 215//215 216//216
v 38.6667 0.2806 -1.3333
vn 0.0015 0.9956 0.0941
v 40 0.1525 0
vn 0.0015 0.9956 0.0941
v 40 0.2786 -1.3333
vn 0.0015 0.9956 0.0941
f 217//217 218//218 219//219
v 40 0.2786 -1.3333
vn -0.0094 0.9955 0.0941
v 40 0.1525 0
vn -0.0094 0.9955 0.0941
v 41.3333 0.1651 0
vn -0.0094 0.9955 0.0941
f 220//220 221//221 222//222
v 40 0.2786 -1.3333
vn -0.0043 0.996 0.089
v 41.3333 0.1651 0
vn -0.0043 0.996 0.089
v 41.3333 0.2843 -1.3333
vn -0.0043 0.996 0.089
f 223//223 224//224 225//225
v 41.3333 0.2843 -1.3333
vn -0.0089 0.996 0.089
v 41.3333 0.1651 0
vn -0.0089 0.996 0.089
v 42.6667 0.1771 0
vn -0.0089 0.996 0.089
f 226//226 227//227 228//228
v 41.3333 0.2843 -1.3333
vn -0.0089 0.996 0.089
v 42.6667 0.1771 0
vn -0.0089 0.996 0.089
v 42.6667 0.2962 -1.3333
vn -0.0089 0.996 0.089
f 229//229 230//230 231//231
v 42.6667 0.2962 -1.3333
vn -0.0084 0.996 0.089
v 42.6667 0.1771 0
vn -0.0084 0.996 0.089
v 44 0.1884 0
vn -0.0084 0.996 0.089
f 232//232 233//233 234//234
v 42.6667 0.2962 -1.3333
vn -0.0093 0.9959 0.0899
v 44 0.1884 0
vn -0.0093 0.9959 0.0899
v 44 0.3087 -1.3333
vn -0.0093 0.9959 0.0899
f 235//235 236//236 237//237
v 44 0.3087 -1.3333
vn -0.0172 0.9958 0.0899
v 44 0.1884 0
vn -0.0172 0.9958 0.0899
v 45.3333 0.2114 0
vn -0.0172 0.9958 0.0899
f 238//238 239//239 240//240
v 44 0.3087 -1.3333
vn -0.0131 0.9962 0.0858
v 45.3333 0.2114 0
vn -0.0131 0.9962 0.0858
v 45.3333 0.3262 -1.3333
vn -0.0131 0.9962 0.0858
f 241//241 242//242 243//243
v 45.3333 0.3262 -1.3333
vn -0.0267 0.996 0.0858
v 45.3333 0.2114 0
vn -0.0267 0.996 0.0858
v 46.6667 0.2472 0
vn -0.0267 0.996 0.0858
f 244//244 245//245 246//246
v 45.3333 0.3262 -1.3333
vn -0.0083 0.9977 0.0674
v 46.6667 0.2472 0
vn -0.0083 0.9977 0.0674
v 46.6667 0.3373 -1.3333
vn -0.0083 0.9977 0.0674
f 247//247 248//248 249//249
v 46.6667 0.3373 -1.3333
vn -0.0141 0.9976 0.0674
v 46.6667 0.2472 0
vn -0.0141 0.9976 0.0674
v 48 0.266 0
vn -0.0141 0.9976 0.0674
f 250//250 251//251 252//252
v 46.6667 0.3373 -1.3333
vn -0.0125 0.9977 0.0659
v 48 0.266 0
vn -0.0125 0.9977 0.0659
v 48 0.354 -1.3333
vn -0.0125 0.9977 0.0659
f 253//253 254//254 255//255
g dirt
usemtl dirt
v 32 1.4617 -16
vn 0.0084 1 0.0001
v 32 1.4616 -14.6667
vn 0.0084 1 0.0001
v 33.3333 1.4505 -14.6667
vn 0.0084 1 0.0001
f 256//256 257//257 258//258
v 32 1.4617 -16
vn 0.0085 1 -0
v 33.3333 1.4505 -14.6667
vn 0.0085 1 -0
v 33.3333 1.4504 -16
vn 0.0085 1 -0
f 259//259 260//260 261//261
v 33.3333 1.4504 -16
vn 0.0034 1 -0
v 33.3333 1.4505 -14.6667
vn 0.0034 1 -0
v 34.6667 1.446 -14.6667
vn 0.0034 1 -0
f 262//262 263//263 264//264
v 33.3333 1.4504 -16
vn 0.003 1 0.0004
v 34.6667 1.446 -14.6667
vn 0.003 1 0.0004
v 34.6667 1.4464 -16
vn 0.003 1 0.0004
f 265//265 266//266 267//267
v 34.6667 1.4464 -16
vn -0.0059 1 0.0004
v 34.6667 1.446 -14.6667
vn -0.0059 1 0.0004
v 36 1.4539 -14.6667
vn -0.0059 1 0.0004
f 268//268 269//269 270//270
v 34.6667 1.4464 -16
vn -0.0055 1 -0
v 36 1.4539 -14.6667
vn -0.0055 1 -0
v 36 1.4538 -16
vn -0.0055 1 -0
f 271//271 272//272 273//273
v 36 1.4538 -16
vn 0.0007 1 -0
v 36 1.4539 -14.6667
vn 0.0007 1 -0
v 37.3333 1.4529 -14.6667
vn 0.0007 1 -0
f 274//274 275//275 276//276
v 36 1.4538 -16
vn 0.0002 1 0.0005
v 37.3333 1.4529 -14.6667
vn 0.0002 1 0.0005
v 37.3333 1.4535 -16
vn 0.0002 1 0.0005
f 277//277 278//278 279//279
v 37.3333 1.4535 -16
vn -0.0007 1 0.0005
v 37.3333 1.4529 -14.6667
vn -0.0007 1 0.0005
v 38.6667 1.4538 -14.6667
vn -0.0007 1 0.0005
f 280//280 281//281 282//282
v 37.3333 1.4535 -16
vn 0.0003 1 -0.0005
v 38.6667 1.4538 -14.6667
vn 0.0003 1 -0.0005
v 38.6667 1.4532 -16
vn 0.0003 1 -0.0005
f 283//283 284//284 285//285
v 38.6667 1.4532 -16
vn 0.006 1 -0.0005
v 38.6667 1.4538 -14.6667
vn 0.006 1 -0.0005
v 40 1.4458 -14.6667
vn 0.006 1 -0.0005
f 286//286 287//287 288//288
v 38.6667 1.4532 -16
vn 0.0061 1 -0.0006
v 40 1.4458 -14.6667
vn 0.0061 1 -0.0006
v 40 1.4451 -16
vn 0.0061 1 -0.0006
f 289//289 290//290 291//291
v 40 1.4451 -16
vn 0.0078 1 -0.0006
v 40 1.4458 -14.6667
vn 0.0078 1 -0.0006
v 41.3333 1.4353 -14.6667
vn 0.0078 1 -0.0006
f 292//292 293//293 294//294
v 40 1.4451 -16
vn 0.0078 1 -0.0005
v 41.3333 1.4353 -14.6667
vn 0.0078 1 -0.0005
v 41.3333 1.4346 -16
vn 0.0078 1 -0.0005
f 295//295 296//296 297//297
v 41.3333 1.4346 -16
vn 0.0076 1 -0.0005
v 41.3333 1.4353 -14.6667
vn 0.0076 1 -0.0005
v 42.6667 1.4253 -14.6667
vn 0.0076 1 -0.0005
f 298//298 299//299 300//300
v 41.3333 1.4346 -16
vn 0.0075 1 -0.0005
v 42.6667 1.4253 -14.6667
vn 0.0075 1 -0.0005
v 42.6667 1.4246 -16
vn 0.0075 1 -0.0005
f 301//301 302//302 303//303
v 42.6667 1.4246 -16
vn 0.0112 0.9999 -0.0005
v 42.6667 1.4253 -14.6667
vn 0.0112 0.9999 -0.0005
v 44 1.4103 -14.6667
vn 0.0112 0.9999 -0.0005
f 304//304 305//305 306//306
v 42.6667 1.4246 -16
vn 0.0109 0.9999 -0.0001
v 44 1.4103 -14.6667
vn 0.0109 0.9999 -0.0001
v 44 1.4101 -16
vn 0.0109 0.9999 -0.0001
f 307//307 308//308 309//309
v 44 1.4101 -16
vn 0.0186 0.9998 -0.0001
v 44 1.4103 -14.6667
vn 0.0186 0.9998 -0.0001
v 45.3333 1.3856 -14.6667
vn 0.0186 0.9998 -0.0001
f 310//310 311//311 312//312
v 44 1.4101 -16
vn 0.0186 0.9998 -0.0002
v 45.3333 1.3856 -14.6667
vn 0.0186 0.9998 -0.0002
v 45.3333 1.3853 -16
vn 0.0186 0.9998 -0.0002
f 313//313 314//314 315//315
v 45.3333 1.3853 -16
vn 0.0249 0.9997 -0.0002
v 45.3333 1.3856 -14.6667
vn 0.0249 0.9997 -0.0002
v 46.6667 1.3524 -14.6667
vn 0.0249 0.9997 -0.0002
f 316//316 317//317 318//318
v 45.3333 1.3853 -16
vn 0.0249 0.9997 -0.0002
v 46.6667 1.3524 -14.6667
vn 0.0249 0.9997 -0.0002
v 46.6667 1.3521 -16
vn 0.0249 0.9997 -0.0002
f 319//319 320//320 321//321
v 46.6667 1.3521 -16
vn 0.0161 0.9999 -0.0002
v 46.6667 1.3524 -14.6667
vn 0.0161 0.9999 -0.0002
v 48 1.3309 -14.6667
vn 0.0161 0.9999 -0.0002
f 322//322 323//323 324//324
v 46.6667 1.3521 -16
vn 0.0155 0.9999 0.0004
v 48 1.3309 -14.6667
vn 0.0155 0.9999 0.0004
v 48 1.3315 -16
vn 0.0155 0.9999 0.0004
f 325//325 326//326 327//327
v 32 1.4616 -14.6667
vn 0.0084 1 0
v 32 1.4616 -13.3333
vn 0.0084 1 0
v 33.3333 1.4504 -13.3333
vn 0.0084 1 0
f 328//328 329//329 330//330
v 32 1.4616 -14.6667
vn 0.0084 1 0.0001
v 33.3333 1.4504 -13.3333
vn 0.0084 1 0.0001
v 33.3333 1.4505 -14.6667
vn 0.0084 1 0.0001
f 331//331 332//332 333//333
v 33.3333 1.4505 -14.6667
vn 0.0035 1 0.0001
v 33.3333 1.4504 -13.3333
vn 0.0035 1 0.0001
v 34.6667 1.4458 -13.3333
vn 0.0035 1 0.0001
f 334//334 335//335 336//336
v 33.3333 1.4505 -14.6667
vn 0.0034 1 0.0001
v 34.6667 1.4458 -13.3333
vn 0.0034 1 0.0001
v 34.6667 1.446 -14.6667
vn 0.0034 1 0.0001
f 337//337 338//338 339//339
v 34.6667 1.446 -14.6667
vn -0.0061 1 0.0001
v 34.6667 1.4458 -13.3333
vn -0.0061 1 0.0001
v 36 1.4539 -13.3333
vn -0.0061 1 0.0001
f 340//340 341//341 342//342
v 34.6667 1.446 -14.6667
vn -0.0059 1 -0
v 36 1.4539 -13.3333
vn -0.0059 1 -0
v 36 1.4539 -14.6667
vn -0.0059 1 -0
f 343//343 344//344 345//345
v 36 1.4539 -14.6667
vn 0.0009 1 -0
v 36 1.4539 -13.3333
vn 0.0009 1 -0
v 37.3333 1.4528 -13.3333
vn 0.0009 1 -0
f 346//346 347//347 348//348
v 36 1.4539 -14.6667
vn 0.0007 1 0.0001
v 37.3333 1.4528 -13.3333
vn 0.0007 1 0.0001
v 37.3333 1.4529 -14.6667
vn 0.0007 1 0.0001
f 349//349 350//350 351//351
v 37.3333 1.4529 -14.6667
vn -0.0005 1 0.0001
v 37.3333 1.4528 -13.3333
vn -0.0005 1 0.0001
v 38.6667 1.4535 -13.3333
vn -0.0005 1 0.0001
f 352//352 353//353 354//354
v 37.3333 1.4529 -14.6667
vn -0.0007 1 0.0002
v 38.6667 1.4535 -13.3333
vn -0.0007 1 0.0002
v 38.6667 1.4538 -14.6667
vn -0.0007 1 0.0002
f 355//355 356//356 357//357
v 38.6667 1.4538 -14.6667
vn 0.0055 1 0.0002
v 38.6667 1.4535 -13.3333
vn 0.0055 1 0.0002
v 40 1.4462 -13.3333
vn 0.0055 1 0.0002
f 358//358 359//359 360//360
v 38.6667 1.4538 -14.6667
vn 0.006 1 -0.0003
v 40 1.4462 -13.3333
vn 0.006 1 -0.0003
v 40 1.4458 -14.6667
vn 0.006 1 -0.0003
f 361//361 362//362 363//363
v 40 1.4458 -14.6667
vn 0.0078 1 -0.0003
v 40 1.4462 -13.3333
vn 0.0078 1 -0.0003
v 41.3333 1.4358 -13.3333
vn 0.0078 1 -0.0003
f 364//364 365//365 366//366
v 40 1.4458 -14.6667
vn 0.0078 1 -0.0003
v 41.3333 1.4358 -13.3333
vn 0.0078 1 -0.0003
v 41.3333 1.4353 -14.6667
vn 0.0078 1 -0.0003
f 367//367 368//368 369//369
v 41.3333 1.4353 -14.6667
vn 0.0076 1 -0.0003
v 41.3333 1.4358 -13.3333
vn 0.0076 1 -0.0003
v 42.6667 1.4257 -13.3333
vn 0.0076 1 -0.0003
f 370//370 371//371 372//372
v 41.3333 1.4353 -14.6667
vn 0.0076 1 -0.0003
v 42.6667 1.4257 -13.3333
vn 0.0076 1 -0.0003
v 42.6667 1.4253 -14.6667
vn 0.0076 1 -0.0003
f 373//373 374//374 375//375
v 42.6667 1.4253 -14.6667
vn 0.0111 0.9999 -0.0003
v 42.6667 1.4257 -13.3333
vn 0.0111 0.9999 -0.0003
v 44 1.411 -13.3333
vn 0.0111 0.9999 -0.0003
f 376//376 377//377 378//378
v 42.6667 1.4253 -14.6667
vn 0.0112 0.9999 -0.0005
v 44 1.411 -13.3333
vn 0.0112 0.9999 -0.0005
v 44 1.4103 -14.6667
vn 0.0112 0.9999 -0.0005
f 379//379 380//380 381//381
v 44 1.4103 -14.6667
vn 0.0191 0.9998 -0.0005
v 44 1.411 -13.3333
vn 0.0191 0.9998 -0.0005
v 45.3333 1.3855 -13.3333
vn 0.0191 0.9998 -0.0005
f 382//382 383//383 384//384
v 44 1.4103 -14.6667
vn 0.0186 0.9998 0.0001
v 45.3333 1.3855 -13.3333
vn 0.0186 0.9998 0.0001
v 45.3333 1.3856 -14.6667
vn 0.0186 0.9998 0.0001
f 385//385 386//386 387//387
v 45.3333 1.3856 -14.6667
vn 0.0249 0.9997 0.0001
v 45.3333 1.3855 -13.3333
vn 0.0249 0.9997 0.0001
v 46.6667 1.3522 -13.3333
vn 0.0249 0.9997 0.0001
f 388//388 389//389 390//390
v 45.3333 1.3856 -14.6667
vn 0.0249 0.9997 0.0001
v 46.6667 1.3522 -13.3333
vn 0.0249 0.9997 0.0001
v 46.6667 1.3524 -14.6667
vn 0.0249 0.9997 0.0001
f 391//391 392//392 393//393
v 46.6667 1.3524 -14.6667
vn 0.0164 0.9999 0.0001
v 46.6667 1.3522 -13.3333
vn 0.0164 0.9999 0.0001
v 48 1.3304 -13.3333
vn 0.0164 0.9999 0.0001
f 394//394 395//395 396//396
v 46.6667 1.3524 -14.6667
vn 0.0161 0.9999 0.0003
v 48 1.3304 -13.3333
vn 0.0161 0.9999 0.0003
v 48 1.3309 -14.6667
vn 0.0161 0.9999 0.0003
f 397//397 398//398 399//399
v 32 1.4616 -13.3333
vn 0.0082 1 0.0027
v 32 1.458 -12
vn 0.0082 1 0.0027
v 33.3333 1.4471 -12
vn 0.0082 1 0.0027
f 400//400 401//401 402//402
v 32 1.4616 -13.3333
vn 0.0084 1 0.0025
v 33.3333 1.4471 -12
vn 0.0084 1 0.0025
v 33.3333 1.4504 -13.3333
vn 0.0084 1 0.0025
f 403//403 404//404 405//405
v 33.3333 1.4504 -13.3333
vn 0.0033 1 0.0025
v 33.3333 1.4471 -12
vn 0.0033 1 0.0025
v 34.6667 1.4427 -12
vn 0.0033 1 0.0025
f 406//406 407//407 408//408
v 33.3333 1.4504 -13.3333
vn 0.0035 1 0.0023
v 34.6667 1.4427 -12
vn 0.0035 1 0.0023
v 34.6667 1.4458 -13.3333
vn 0.0035 1 0.0023
f 409//409 410//410 411//411
v 34.6667 1.4458 -13.3333
vn -0.006 1 0.0023
v 34.6667 1.4427 -12
vn -0.006 1 0.0023
v 36 1.4507 -12
vn -0.006 1 0.0023
f 412//412 413//413 414//414
v 34.6667 1.4458 -13.3333
vn -0.0061 1 0.0024
v 36 1.4507 -12
vn -0.0061 1 0.0024
v 36 1.4539 -13.3333
vn -0.0061 1 0.0024
f 415//415 416//416 417//417
v 36 1.4539 -13.3333
vn 0.001 1 0.0024
v 36 1.4507 -12
vn 0.001 1 0.0024
v 37.3333 1.4494 -12
vn 0.001 1 0.0024
f 418//418 419//419 420//420
v 36 1.4539 -13.3333
vn 0.0009 1 0.0025
v 37.3333 1.4494 -12
vn 0.0009 1 0.0025
v 37.3333 1.4528 -13.3333
vn 0.0009 1 0.0025
f 421//421 422//422 423//423
v 37.3333 1.4528 -13.3333
vn 0 1 0.0025
v 37.3333 1.4494 -12
vn 0 1 0.0025
v 38.6667 1.4493 -12
vn 0 1 0.0025
f 424//424 425//425 426//426
v 37.3333 1.4528 -13.3333
vn -0.0005 1 0.0031
v 38.6667 1.4493 -12
vn -0.0005 1 0.0031
v 38.6667 1.4535 -13.3333
vn -0.0005 1 0.0031
f 427//427 428//428 429//429
v 38.6667 1.4535 -13.3333
vn 0.0053 1 0.0031
v 38.6667 1.4493 -12
vn 0.0053 1 0.0031
v 40 1.4423 -12
vn 0.0053 1 0.0031
f 430//430 431//431 432//432
v 38.6667 1.4535 -13.3333
vn 0.0055 1 0.0029
v 40 1.4423 -12
vn 0.0055 1 0.0029
v 40 1.4462 -13.3333
vn 0.0055 1 0.0029
f 433//433 434//434 435//435
v 40 1.4462 -13.3333
vn 0.0077 1 0.0029
v 40 1.4423 -12
vn 0.0077 1 0.0029
v 41.3333 1.4321 -12
vn 0.0077 1 0.0029
f 436//436 437//437 438//438
v 40 1.4462 -13.3333
vn 0.0078 1 0.0028
v 41.3333 1.4321 -12
vn 0.0078 1 0.0028
v 41.3333 1.4358 -13.3333
vn 0.0078 1 0.0028
f 439//439 440//440 441//441
v 41.3333 1.4358 -13.3333
vn 0.0076 1 0.0028
v 41.3333 1.4321 -12
vn 0.0076 1 0.0028
v 42.6667 1.422 -12
vn 0.0076 1 0.0028
f 442//442 443//443 444//444
v 41.3333 1.4358 -13.3333
vn 0.0076 1 0.0028
v 42.6667 1.422 -12
vn 0.0076 1 0.0028
v 42.6667 1.4257 -13.3333
vn 0.0076 1 0.0028
f 445//445 446//446 447//447
v 42.6667 1.4257 -13.3333
vn 0.0109 0.9999 0.0028
v 42.6667 1.422 -12
vn 0.0109 0.9999 0.0028
v 44 1.4074 -12
vn 0.0109 0.9999 0.0028
f 448//448 449//449 450//450
v 42.6667 1.4257 -13.3333
vn 0.0111 0.9999 0.0027
v 44 1.4074 -12
vn 0.0111 0.9999 0.0027
v 44 1.411 -13.3333
vn 0.0111 0.9999 0.0027
f 451//451 452//452 453//453
v 44 1.411 -13.3333
vn 0.0191 0.9998 0.0027
v 44 1.4074 -12
vn 0.0191 0.9998 0.0027
v 45.3333 1.3819 -12
vn 0.0191 0.9998 0.0027
f 454//454 455//455 456//456
v 44 1.411 -13.3333
vn 0.0191 0.9998 0.0027
v 45.3333 1.3819 -12
vn 0.0191 0.9998 0.0027
v 45.3333 1.3855 -13.3333
vn 0.0191 0.9998 0.0027
f 457//457 458//458 459//459
v 45.3333 1.3855 -13.3333
vn 0.0244 0.9997 0.0027
v 45.3333 1.3819 -12
vn 0.0244 0.9997 0.0027
v 46.6667 1.3493 -12
vn 0.0244 0.9997 0.0027
f 460//460 461//461 462//462
v 45.3333 1.3855 -13.3333
vn 0.0249 0.9997 0.0022
v 46.6667 1.3493 -12
vn 0.0249 0.9997 0.0022
v 46.6667 1.3522 -13.3333
vn 0.0249 0.9997 0.0022
f 463//463 464//464 465//465
v 46.6667 1.3522 -13.3333
vn 0.0164 0.9999 0.0022
v 46.6667 1.3493 -12
vn 0.0164 0.9999 0.0022
v 48 1.3275 -12
vn 0.0164 0.9999 0.0022
f 466//466 467//467 468//468
v 46.6667 1.3522 -13.3333
vn 0.0164 0.9999 0.0022
v 48 1.3275 -12
vn 0.0164 0.9999 0.0022
v 48 1.3304 -13.3333
vn 0.0164 0.9999 0.0022
f 469//469 470//470 471//471
v 32 1.458 -12
vn 0.0064 0.9995 0.0325
v 32 1.4147 -10.6667
vn 0.0064 0.9995 0.0325
v 33.3333 1.4061 -10.6667
vn 0.0064 0.9995 0.0325
f 472//472 473//473 474//474
v 32 1.458 -12
vn 0.0082 0.9995 0.0307
v 33.3333 1.4061 -10.6667
vn 0.0082 0.9995 0.0307
v 33.3333 1.4471 -12
vn 0.0082 0.9995 0.0307
f 475//475 476//476 477//477
v 33.3333 1.4471 -12
vn 0.0026 0.9995 0.0307
v 33.3333 1.4061 -10.6667
vn 0.0026 0.9995 0.0307
v 34.6667 1.4027 -10.6667
vn 0.0026 0.9995 0.0307
f 478//478 479//479 480//480
v 33.3333 1.4471 -12
vn 0.0033 0.9995 0.03
v 34.6667 1.4027 -10.6667
vn 0.0033 0.9995 0.03
v 34.6667 1.4427 -12
vn 0.0033 0.9995 0.03
f 481//481 482//482 483//483
v 34.6667 1.4427 -12
vn -0.0042 0.9995 0.03
v 34.6667 1.4027 -10.6667
vn -0.0042 0.9995 0.03
v 36 1.4083 -10.6667
vn -0.0042 0.9995 0.03
f 484//484 485//485 486//486
v 34.6667 1.4427 -12
vn -0.006 0.9995 0.0318
v 36 1.4083 -10.6667
vn -0.006 0.9995 0.0318
v 36 1.4507 -12
vn -0.006 0.9995 0.0318
f 487//487 488//488 489//489
v 36 1.4507 -12
vn 0.0015 0.9995 0.0318
v 36 1.4083 -10.6667
vn 0.0015 0.9995 0.0318
v 37.3333 1.4063 -10.6667
vn 0.0015 0.9995 0.0318
f 490//490 491//491 492//492
v 36 1.4507 -12
vn 0.001 0.9995 0.0323
v 37.3333 1.4063 -10.6667
vn 0.001 0.9995 0.0323
v 37.3333 1.4494 -12
vn 0.001 0.9995 0.0323
f 493//493 494//494 495//495
v 37.3333 1.4494 -12
vn -0.0009 0.9995 0.0323
v 37.3333 1.4063 -10.6667
vn -0.0009 0.9995 0.0323
v 38.6667 1.4076 -10.6667
vn -0.0009 0.9995 0.0323
f 496//496 497//497 498//498
v 37.3333 1.4494 -12
vn 0 0.9995 0.0313
v 38.6667 1.4076 -10.6667
vn 0 0.9995 0.0313
v 38.6667 1.4493 -12
vn 0 0.9995 0.0313
f 499//499 500//500 501//501
v 38.6667 1.4493 -12
vn 0.004 0.9995 0.0313
v 38.6667 1.4076 -10.6667
vn 0.004 0.9995 0.0313
v 40 1.4022 -10.6667
vn 0.004 0.9995 0.0313
f 502//502 503//503 504//504
v 38.6667 1.4493 -12
vn 0.0053 0.9995 0.03
v 40 1.4022 -10.6667
vn 0.0053 0.9995 0.03
v 40 1.4423 -12
vn 0.0053 0.9995 0.03
f 505//505 506//506 507//507
v 40 1.4423 -12
vn 0.0073 0.9995 0.03
v 40 1.4022 -10.6667
vn 0.0073 0.9995 0.03
v 41.3333 1.3925 -10.6667
vn 0.0073 0.9995 0.03
f 508//508 509//509 510//510
v 40 1.4423 -12
vn 0.0077 0.9995 0.0297
v 41.3333 1.3925 -10.6667
vn 0.0077 0.9995 0.0297
v 41.3333 1.4321 -12
vn 0.0077 0.9995 0.0297
f 511//511 512//512 513//513
v 41.3333 1.4321 -12
vn 0.0083 0.9995 0.0297
v 41.3333 1.3925 -10.6667
vn 0.0083 0.9995 0.0297
v 42.6667 1.3814 -10.6667
vn 0.0083 0.9995 0.0297
f 514//514 515//515 516//516
v 41.3333 1.4321 -12
vn 0.0076 0.9995 0.0304
v 42.6667 1.3814 -10.6667
vn 0.0076 0.9995 0.0304
v 42.6667 1.422 -12
vn 0.0076 0.9995 0.0304
f 517//517 518//518 519//519
v 42.6667 1.422 -12
vn 0.0106 0.9995 0.0304
v 42.6667 1.3814 -10.6667
vn 0.0106 0.9995 0.0304
v 44 1.3673 -10.6667
vn 0.0106 0.9995 0.0304
f 520//520 521//521 522//522
v 42.6667 1.422 -12
vn 0.0109 0.9995 0.0301
v 44 1.3673 -10.6667
vn 0.0109 0.9995 0.0301
v 44 1.4074 -12
vn 0.0109 0.9995 0.0301
f 523//523 524//524 525//525
v 44 1.4074 -12
vn 0.0176 0.9994 0.0301
v 44 1.3673 -10.6667
vn 0.0176 0.9994 0.0301
v 45.3333 1.3438 -10.6667
vn 0.0176 0.9994 0.0301
f 526//526 527//527 528//528
v 44 1.4074 -12
vn 0.0191 0.9994 0.0286
v 45.3333 1.3438 -10.6667
vn 0.0191 0.9994 0.0286
v 45.3333 1.3819 -12
vn 0.0191 0.9994 0.0286
f 529//529 530//530 531//531
v 45.3333 1.3819 -12
vn 0.0227 0.9993 0.0286
v 45.3333 1.3438 -10.6667
vn 0.0227 0.9993 0.0286
v 46.6667 1.3134 -10.6667
vn 0.0227 0.9993 0.0286
f 532//532 533//533 534//534
v 45.3333 1.3819 -12
vn 0.0244 0.9993 0.0269
v 46.6667 1.3134 -10.6667
vn 0.0244 0.9993 0.0269
v 46.6667 1.3493 -12
vn 0.0244 0.9993 0.0269
f 535//535 536//536 537//537
v 46.6667 1.3493 -12
vn 0.0159 0.9995 0.0269
v 46.6667 1.3134 -10.6667
vn 0.0159 0.9995 0.0269
v 48 1.2922 -10.6667
vn 0.0159 0.9995 0.0269
f 538//538 539//539 540//540
v 46.6667 1.3493 -12
vn 0.0164 0.9995 0.0265
v 48 1.2922 -10.6667
vn 0.0164 0.9995 0.0265
v 48 1.3275 -12
vn 0.0164 0.9995 0.0265
f 541//541 542//542 543//543
v 32 1.4147 -10.6667
vn 0.0067 0.9981 0.0606
v 32 1.3338 -9.3333
vn 0.0067 0.9981 0.0606
v 33.3333 1.3249 -9.3333
vn 0.0067 0.9981 0.0606
f 544//544 545//545 546//546
v 32 1.4147 -10.6667
vn 0.0064 0.9981 0.0609
v 33.3333 1.3249 -9.3333
vn 0.0064 0.9981 0.0609
v 33.3333 1.4061 -10.6667
vn 0.0064 0.9981 0.0609
f 547//547 548//548 549//549
v 33.3333 1.4061 -10.6667
vn 0.0036 0.9981 0.0609
v 33.3333 1.3249 -9.3333
vn 0.0036 0.9981 0.0609
v 34.6667 1.3201 -9.3333
vn 0.0036 0.9981 0.0609
f 550//550 551//551 552//552
v 33.3333 1.4061 -10.6667
vn 0.0026 0.9981 0.0618
v 34.6667 1.3201 -9.3333
vn 0.0026 0.9981 0.0618
v 34.6667 1.4027 -10.6667
vn 0.0026 0.9981 0.0618
f 553//553 554//554 555//555
v 34.6667 1.4027 -10.6667
vn -0.0015 0.9981 0.0618
v 34.6667 1.3201 -9.3333
vn -0.0015 0.9981 0.0618
v 36 1.322 -9.3333
vn -0.0015 0.9981 0.0618
f 556//556 557//557 558//558
v 34.6667 1.4027 -10.6667
vn -0.0042 0.9979 0.0646
v 36 1.322 -9.3333
vn -0.0042 0.9979 0.0646
v 36 1.4083 -10.6667
vn -0.0042 0.9979 0.0646
f 559//559 560//560 561//561
v 36 1.4083 -10.6667
vn -0.0047 0.9979 0.0646
v 36 1.322 -9.3333
vn -0.0047 0.9979 0.0646
v 37.3333 1.3283 -9.3333
vn -0.0047 0.9979 0.0646
f 562//562 563//563 564//564
v 36 1.4083 -10.6667
vn 0.0015 0.9983 0.0584
v 37.3333 1.3283 -9.3333
vn 0.0015 0.9983 0.0584
v 37.3333 1.4063 -10.6667
vn 0.0015 0.9983 0.0584
f 565//565 566//566 567//567
v 37.3333 1.4063 -10.6667
vn -0.0005 0.9983 0.0584
v 37.3333 1.3283 -9.3333
vn -0.0005 0.9983 0.0584
v 38.6667 1.329 -9.3333
vn -0.0005 0.9983 0.0584
f 568//568 569//569 570//570
v 37.3333 1.4063 -10.6667
vn -0.0009 0.9983 0.0588
v 38.6667 1.329 -9.3333
vn -0.0009 0.9983 0.0588
v 38.6667 1.4076 -10.6667
vn -0.0009 0.9983 0.0588
f 571//571 572//572 573//573
v 38.6667 1.4076 -10.6667
vn 0.0043 0.9983 0.0588
v 38.6667 1.329 -9.3333
vn 0.0043 0.9983 0.0588
v 40 1.3232 -9.3333
vn 0.0043 0.9983 0.0588
f 574//574 575//575 576//576
v 38.6667 1.4076 -10.6667
vn 0.004 0.9982 0.0591
v 40 1.3232 -9.3333
vn 0.004 0.9982 0.0591
v 40 1.4022 -10.6667
vn 0.004 0.9982 0.0591
f 577//577 578//578 579//579
v 40 1.4022 -10.6667
vn 0.0079 0.9982 0.0591
v 40 1.3232 -9.3333
vn 0.0079 0.9982 0.0591
v 41.3333 1.3127 -9.3333
vn 0.0079 0.9982 0.0591
f 580//580 581//581 582//582
v 40 1.4022 -10.6667
vn 0.0073 0.9982 0.0597
v 41.3333 1.3127 -9.3333
vn 0.0073 0.9982 0.0597
v 41.3333 1.3925 -10.6667
vn 0.0073 0.9982 0.0597
f 583//583 584//584 585//585
v 41.3333 1.3925 -10.6667
vn 0.0074 0.9982 0.0597
v 41.3333 1.3127 -9.3333
vn 0.0074 0.9982 0.0597
v 42.6667 1.3028 -9.3333
vn 0.0074 0.9982 0.0597
f 586//586 587//587 588//588
v 41.3333 1.3925 -10.6667
vn 0.0083 0.9982 0.0589
v 42.6667 1.3028 -9.3333
vn 0.0083 0.9982 0.0589
v 42.6667 1.3814 -10.6667
vn 0.0083 0.9982 0.0589
f 589//589 590//590 591//591
v 42.6667 1.3814 -10.6667
vn 0.0044 0.9983 0.0589
v 42.6667 1.3028 -9.3333
vn 0.0044 0.9983 0.0589
v 44 1.2969 -9.3333
vn 0.0044 0.9983 0.0589
f 592//592 593//593 594//594
v 42.6667 1.3814 -10.6667
vn 0.0106 0.9986 0.0527
v 44 1.2969 -9.3333
vn 0.0106 0.9986 0.0527
v 44 1.3673 -10.6667
vn 0.0106 0.9986 0.0527
f 595//595 596//596 597//597
v 44 1.3673 -10.6667
vn 0.017 0.9985 0.0527
v 44 1.2969 -9.3333
vn 0.017 0.9985 0.0527
v 45.3333 1.2742 -9.3333
vn 0.017 0.9985 0.0527
f 598//598 599//599 600//600
v 44 1.3673 -10.6667
vn 0.0176 0.9985 0.0521
v 45.3333 1.2742 -9.3333
vn 0.0176 0.9985 0.0521
v 45.3333 1.3438 -10.6667
vn 0.0176 0.9985 0.0521
f 601//601 602//602 603//603
v 45.3333 1.3438 -10.6667
vn 0.0263 0.9983 0.0521
v 45.3333 1.2742 -9.3333
vn 0.0263 0.9983 0.0521
v 46.6667 1.239 -9.3333
vn 0.0263 0.9983 0.0521
f 604//604 605//605 606//606
v 45.3333 1.3438 -10.6667
vn 0.0227 0.9982 0.0557
v 46.6667 1.239 -9.3333
vn 0.0227 0.9982 0.0557
v 46.6667 1.3134 -10.6667
vn 0.0227 0.9982 0.0557
f 607//607 608//608 609//609
v 46.6667 1.3134 -10.6667
vn 0.0099 0.9984 0.0557
v 46.6667 1.239 -9.3333
vn 0.0099 0.9984 0.0557
v 48 1.2259 -9.3333
vn 0.0099 0.9984 0.0557
f 610//610 611//611 612//612
v 46.6667 1.3134 -10.6667
vn 0.0159 0.9986 0.0497
v 48 1.2259 -9.3333
vn 0.0159 0.9986 0.0497
v 48 1.2922 -10.6667
vn 0.0159 0.9986 0.0497
f 613//613 614//614 615//615
v 32 1.3338 -9.3333
vn 0.0063 0.9966 0.0825
v 32 1.2233 -8
vn 0.0063 0.9966 0.0825
v 33.3333 1.2149 -8
vn 0.0063 0.9966 0.0825
f 616//616 617//617 618//618
v 32 1.3338 -9.3333
vn 0.0066 0.9966 0.0822
v 33.3333 1.2149 -8
vn 0.0066 0.9966 0.0822
v 33.3333 1.3249 -9.3333
vn 0.0066 0.9966 0.0822
f 619//619 620//620 621//621
v 33.3333 1.3249 -9.3333
vn 0.0031 0.9966 0.0822
v 33.3333 1.2149 -8
vn 0.0031 0.9966 0.0822
v 34.6667 1.2107 -8
vn 0.0031 0.9966 0.0822
f 622//622 623//623 624//624
v 33.3333 1.3249 -9.3333
vn 0.0036 0.9966 0.0818
v 34.6667 1.2107 -8
vn 0.0036 0.9966 0.0818
v 34.6667 1.3201 -9.3333
vn 0.0036 0.9966 0.0818
f 625//625 626//626 627//627
v 34.6667 1.3201 -9.3333
vn -0.0022 0.9966 0.0818
v 34.6667 1.2107 -8
vn -0.0022 0.9966 0.0818
v 36 1.2137 -8
vn -0.0022 0.9966 0.0818
f 628//628 629//629 630//630
v 34.6667 1.3201 -9.3333
vn -0.0015 0.9967 0.081
v 36 1.2137 -8
vn -0.0015 0.9967 0.081
v 36 1.322 -9.3333
vn -0.0015 0.9967 0.081
f 631//631 632//632 633//633
v 36 1.322 -9.3333
vn -0.0049 0.9967 0.081
v 36 1.2137 -8
vn -0.0049 0.9967 0.081
v 37.3333 1.2202 -8
vn -0.0049 0.9967 0.081
f 634//634 635//635 636//636
v 36 1.322 -9.3333
vn -0.0047 0.9967 0.0808
v 37.3333 1.2202 -8
vn -0.0047 0.9967 0.0808
v 37.3333 1.3283 -9.3333
vn -0.0047 0.9967 0.0808
f 637//637 638//638 639//639
v 37.3333 1.3283 -9.3333
vn 0.0005 0.9967 0.0808
v 37.3333 1.2202 -8
vn 0.0005 0.9967 0.0808
v 38.6667 1.2196 -8
vn 0.0005 0.9967 0.0808
f 640//640 641//641 642//642
v 37.3333 1.3283 -9.3333
vn -0.0005 0.9966 0.0818
v 38.6667 1.2196 -8
vn -0.0005 0.9966 0.0818
v 38.6667 1.329 -9.3333
vn -0.0005 0.9966 0.0818
f 643//643 644//644 645//645
v 38.6667 1.329 -9.3333
vn 0.0033 0.9966 0.0818
v 38.6667 1.2196 -8
vn 0.0033 0.9966 0.0818
v 40 1.2152 -8
vn 0.0033 0.9966 0.0818
f 646//646 647//647 648//648
v 38.6667 1.329 -9.3333
vn 0.0043 0.9967 0.0808
v 40 1.2152 -8
vn 0.0043 0.9967 0.0808
v 40 1.3232 -9.3333
vn 0.0043 0.9967 0.0808
f 649//649 650//650 651//651
v 40 1.3232 -9.3333
vn 0.0062 0.9967 0.0808
v 40 1.2152 -8
vn 0.0062 0.9967 0.0808
v 41.3333 1.2069 -8
vn 0.0062 0.9967 0.0808
f 652//652 653//653 654//654
v 40 1.3232 -9.3333
vn 0.0079 0.9968 0.0791
v 41.3333 1.2069 -8
vn 0.0079 0.9968 0.0791
v 41.3333 1.3127 -9.3333
vn 0.0079 0.9968 0.0791
f 655//655 656//656 657//657
v 41.3333 1.3127 -9.3333
vn 0.0052 0.9969 0.0791
v 41.3333 1.2069 -8
vn 0.0052 0.9969 0.0791
v 42.6667 1.1999 -8
vn 0.0052 0.9969 0.0791
f 658//658 659//659 660//660
v 41.3333 1.3127 -9.3333
vn 0.0074 0.997 0.0769
v 42.6667 1.1999 -8
vn 0.0074 0.997 0.0769
v 42.6667 1.3028 -9.3333
vn 0.0074 0.997 0.0769
f 661//661 662//662 663//663
v 42.6667 1.3028 -9.3333
vn 0.0018 0.997 0.0769
v 42.6667 1.1999 -8
vn 0.0018 0.997 0.0769
v 44 1.1976 -8
vn 0.0018 0.997 0.0769
f 664//664 665//665 666//666
v 42.6667 1.3028 -9.3333
vn 0.0044 0.9972 0.0743
v 44 1.1976 -8
vn 0.0044 0.9972 0.0743
v 44 1.2969 -9.3333
vn 0.0044 0.9972 0.0743
f 667//667 668//668 669//669
v 44 1.2969 -9.3333
vn 0.015 0.9971 0.0743
v 44 1.1976 -8
vn 0.015 0.9971 0.0743
v 45.3333 1.1775 -8
vn 0.015 0.9971 0.0743
f 670//670 671//671 672//672
v 44 1.2969 -9.3333
vn 0.017 0.9972 0.0723
v 45.3333 1.1775 -8
vn 0.017 0.9972 0.0723
v 45.3333 1.2742 -9.3333
vn 0.017 0.9972 0.0723
f 673//673 674//674 675//675
v 45.3333 1.2742 -9.3333
vn 0.0237 0.9971 0.0723
v 45.3333 1.1775 -8
vn 0.0237 0.9971 0.0723
v 46.6667 1.1457 -8
vn 0.0237 0.9971 0.0723
f 676//676 677//677 678//678
v 45.3333 1.2742 -9.3333
vn 0.0263 0.9972 0.0698
v 46.6667 1.1457 -8
vn 0.0263 0.9972 0.0698
v 46.6667 1.239 -9.3333
vn 0.0263 0.9972 0.0698
f 679//679 680//680 681//681
v 46.6667 1.239 -9.3333
vn 0.0082 0.9975 0.0698
v 46.6667 1.1457 -8
vn 0.0082 0.9975 0.0698
v 48 1.1347 -8
vn 0.0082 0.9975 0.0698
f 682//682 683//683 684//684
v 46.6667 1.239 -9.3333
vn 0.0099 0.9976 0.0682
v 48 1.1347 -8
vn 0.0099 0.9976 0.0682
v 48 1.2259 -9.3333
vn 0.0099 0.9976 0.0682
f 685//685 686//686 687//687
v 32 1.2233 -8
vn 0.0059 0.9955 0.0943
v 32 1.097 -6.6667
vn 0.0059 0.9955 0.0943
v 33.3333 1.0891 -6.6667
vn 0.0059 0.9955 0.0943
f 688//688 689//689 690//690
v 32 1.2233 -8
vn 0.0063 0.9956 0.0939
v 33.3333 1.0891 -6.6667
vn 0.0063 0.9956 0.0939
v 33.3333 1.2149 -8
vn 0.0063 0.9956 0.0939
f 691//691 692//692 693//693
v 33.3333 1.2149 -8
vn 0.0028 0.9956 0.0939
v 33.3333 1.0891 -6.6667
vn 0.0028 0.9956 0.0939
v 34.6667 1.0853 -6.6667
vn 0.0028 0.9956 0.0939
f 694//694 695//695 696//696
v 33.3333 1.2149 -8
vn 0.0031 0.9956 0.0936
v 34.6667 1.0853 -6.6667
vn 0.0031 0.9956 0.0936
v 34.6667 1.2107 -8
vn 0.0031 0.9956 0.0936
f 697//697 698//698 699//699
v 34.6667 1.2107 -8
vn -0.002 0.9956 0.0936
v 34.6667 1.0853 -6.6667
vn -0.002 0.9956 0.0936
v 36 1.0879 -6.6667
vn -0.002 0.9956 0.0936
f 700//700 701//701 702//702
v 34.6667 1.2107 -8
vn -0.0022 0.9956 0.0939
v 36 1.0879 -6.6667
vn -0.0022 0.9956 0.0939
v 36 1.2137 -8
vn -0.0022 0.9956 0.0939
f 703//703 704//704 705//705
v 36 1.2137 -8
vn -0.0051 0.9956 0.0939
v 36 1.0879 -6.6667
vn -0.0051 0.9956 0.0939
v 37.3333 1.0947 -6.6667
vn -0.0051 0.9956 0.0939
f 706//706 707//707 708//708
v 36 1.2137 -8
vn -0.0049 0.9956 0.0937
v 37.3333 1.0947 -6.6667
vn -0.0049 0.9956 0.0937
v 37.3333 1.2202 -8
vn -0.0049 0.9956 0.0937
f 709//709 710//710 711//711
v 37.3333 1.2202 -8
vn -0.0005 0.9956 0.0937
v 37.3333 1.0947 -6.6667
vn -0.0005 0.9956 0.0937
v 38.6667 1.0954 -6.6667
vn -0.0005 0.9956 0.0937
f 712//712 713//713 714//714
v 37.3333 1.2202 -8
vn 0.0005 0.9957 0.0927
v 38.6667 1.0954 -6.6667
vn 0.0005 0.9957 0.0927
v 38.6667 1.2196 -8
vn 0.0005 0.9957 0.0927
f 715//715 716//716 717//717
v 38.6667 1.2196 -8
vn 0.0015 0.9957 0.0927
v 38.6667 1.0954 -6.6667
vn 0.0015 0.9957 0.0927
v 40 1.0933 -6.6667
vn 0.0015 0.9957 0.0927
f 718//718 719//719 720//720
v 38.6667 1.2196 -8
vn 0.0033 0.9958 0.091
v 40 1.0933 -6.6667
vn 0.0033 0.9958 0.091
v 40 1.2152 -8
vn 0.0033 0.9958 0.091
f 721//721 722//722 723//723
v 40 1.2152 -8
vn 0.0042 0.9958 0.091
v 40 1.0933 -6.6667
vn 0.0042 0.9958 0.091
v 41.3333 1.0877 -6.6667
vn 0.0042 0.9958 0.091
f 724//724 725//725 726//726
v 40 1.2152 -8
vn 0.0062 0.996 0.0891
v 41.3333 1.0877 -6.6667
vn 0.0062 0.996 0.0891
v 41.3333 1.2069 -8
vn 0.0062 0.996 0.0891
f 727//727 728//728 729//729
v 41.3333 1.2069 -8
vn 0.0031 0.996 0.0891
v 41.3333 1.0877 -6.6667
vn 0.0031 0.996 0.0891
v 42.6667 1.0836 -6.6667
vn 0.0031 0.996 0.0891
f 730//730 731//731 732//732
v 41.3333 1.2069 -8
vn 0.0052 0.9962 0.0869
v 42.6667 1.0836 -6.6667
vn 0.0052 0.9962 0.0869
v 42.6667 1.1999 -8
vn 0.0052 0.9962 0.0869
f 733//733 734//734 735//735
v 42.6667 1.1999 -8
vn -0.0003 0.9962 0.0869
v 42.6667 1.0836 -6.6667
vn -0.0003 0.9962 0.0869
v 44 1.084 -6.6667
vn -0.0003 0.9962 0.0869
f 736//736 737//737 738//738
v 42.6667 1.1999 -8
vn 0.0018 0.9964 0.0848
v 44 1.084 -6.6667
vn 0.0018 0.9964 0.0848
v 44 1.1976 -8
vn 0.0018 0.9964 0.0848
f 739//739 740//740 741//741
v 44 1.1976 -8
vn 0.0129 0.9963 0.0848
v 44 1.084 -6.6667
vn 0.0129 0.9963 0.0848
v 45.3333 1.0668 -6.6667
vn 0.0129 0.9963 0.0848
f 742//742 743//743 744//744
v 44 1.1976 -8
vn 0.015 0.9965 0.0827
v 45.3333 1.0668 -6.6667
vn 0.015 0.9965 0.0827
v 45.3333 1.1775 -8
vn 0.015 0.9965 0.0827
f 745//745 746//746 747//747
v 45.3333 1.1775 -8
vn 0.0212 0.9964 0.0827
v 45.3333 1.0668 -6.6667
vn 0.0212 0.9964 0.0827
v 46.6667 1.0384 -6.6667
vn 0.0212 0.9964 0.0827
f 748//748 749//749 750//750
v 45.3333 1.1775 -8
vn 0.0237 0.9965 0.0802
v 46.6667 1.0384 -6.6667
vn 0.0237 0.9965 0.0802
v 46.6667 1.1457 -8
vn 0.0237 0.9965 0.0802
f 751//751 752//752 753//753
v 46.6667 1.1457 -8
vn 0.0063 0.9968 0.0802
v 46.6667 1.0384 -6.6667
vn 0.0063 0.9968 0.0802
v 48 1.03 -6.6667
vn 0.0063 0.9968 0.0802
f 754//754 755//755 756//756
v 46.6667 1.1457 -8
vn 0.0082 0.9969 0.0783
v 48 1.03 -6.6667
vn 0.0082 0.9969 0.0783
v 48 1.1347 -8
vn 0.0082 0.9969 0.0783
f 757//757 758//758 759//759
v 32 1.097 -6.6667
vn 0.0056 0.9937 0.112
v 32 0.9467 -5.3333
vn 0.0056 0.9937 0.112
v 33.3333 0.9392 -5.3333
vn 0.0056 0.9937 0.112
f 760//760 761//761 762//762
v 32 1.097 -6.6667
vn 0.0059 0.9937 0.1117
v 33.3333 0.9392 -5.3333
vn 0.0059 0.9937 0.1117
v 33.3333 1.0891 -6.6667
vn 0.0059 0.9937 0.1117
f 763//763 764//764 765//765
v 33.3333 1.0891 -6.6667
vn 0.0042 0.9937 0.1117
v 33.3333 0.9392 -5.3333
vn 0.0042 0.9937 0.1117
v 34.6667 0.9336 -5.3333
vn 0.0042 0.9937 0.1117
f 766//766 767//767 768//768
v 33.3333 1.0891 -6.6667
vn 0.0028 0.9936 0.113
v 34.6667 0.9336 -5.3333
vn 0.0028 0.9936 0.113
v 34.6667 1.0853 -6.6667
vn 0.0028 0.9936 0.113
f 769//769 770//770 771//771
v 34.6667 1.0853 -6.6667
vn -0.0037 0.9936 0.113
v 34.6667 0.9336 -5.3333
vn -0.0037 0.9936 0.113
v 36 0.9385 -5.3333
vn -0.0037 0.9936 0.113
f 772//772 773//773 774//774
v 34.6667 1.0853 -6.6667
vn -0.002 0.9938 0.1114
v 36 0.9385 -5.3333
vn -0.002 0.9938 0.1114
v 36 1.0879 -6.6667
vn -0.002 0.9938 0.1114
f 775//775 776//776 777//777
v 36 1.0879 -6.6667
vn -0.0032 0.9938 0.1114
v 36 0.9385 -5.3333
vn -0.0032 0.9938 0.1114
v 37.3333 0.9428 -5.3333
vn -0.0032 0.9938 0.1114
f 778//778 779//779 780//780
v 36 1.0879 -6.6667
vn -0.0051 0.9936 0.1132
v 37.3333 0.9428 -5.3333
vn -0.0051 0.9936 0.1132
v 37.3333 1.0947 -6.6667
vn -0.0051 0.9936 0.1132
f 781//781 782//782 783//783
v 37.3333 1.0947 -6.6667
vn -0.0027 0.9936 0.1132
v 37.3333 0.9428 -5.3333
vn -0.0027 0.9936 0.1132
v 38.6667 0.9464 -5.3333
vn -0.0027 0.9936 0.1132
f 784//784 785//785 786//786
v 37.3333 1.0947 -6.6667
vn -0.0005 0.9938 0.111
v 38.6667 0.9464 -5.3333
vn -0.0005 0.9938 0.111
v 38.6667 1.0954 -6.6667
vn -0.0005 0.9938 0.111
f 787//787 788//788 789//789
v 38.6667 1.0954 -6.6667
vn 0.0008 0.9938 0.111
v 38.6667 0.9464 -5.3333
vn 0.0008 0.9938 0.111
v 40 0.9453 -5.3333
vn 0.0008 0.9938 0.111
f 790//790 791//791 792//792
v 38.6667 1.0954 -6.6667
vn 0.0015 0.9939 0.1104
v 40 0.9453 -5.3333
vn 0.0015 0.9939 0.1104
v 40 1.0933 -6.6667
vn 0.0015 0.9939 0.1104
f 793//793 794//794 795//795
v 40 1.0933 -6.6667
vn 0.0021 0.9939 0.1104
v 40 0.9453 -5.3333
vn 0.0021 0.9939 0.1104
v 41.3333 0.9425 -5.3333
vn 0.0021 0.9939 0.1104
f 796//796 797//797 798//798
v 40 1.0933 -6.6667
vn 0.0042 0.9941 0.1083
v 41.3333 0.9425 -5.3333
vn 0.0042 0.9941 0.1083
v 41.3333 1.0877 -6.6667
vn 0.0042 0.9941 0.1083
f 799//799 800//800 801//801
v 41.3333 1.0877 -6.6667
vn 0 0.9941 0.1083
v 41.3333 0.9425 -5.3333
vn 0 0.9941 0.1083
v 42.6667 0.9424 -5.3333
vn 0 0.9941 0.1083
f 802//802 803//803 804//804
v 41.3333 1.0877 -6.6667
vn 0.0031 0.9944 0.1053
v 42.6667 0.9424 -5.3333
vn 0.0031 0.9944 0.1053
v 42.6667 1.0836 -6.6667
vn 0.0031 0.9944 0.1053
f 805//805 806//806 807//807
v 42.6667 1.0836 -6.6667
vn -0.0023 0.9944 0.1053
v 42.6667 0.9424 -5.3333
vn -0.0023 0.9944 0.1053
v 44 0.9454 -5.3333
vn -0.0023 0.9944 0.1053
f 808//808 809//809 810//810
v 42.6667 1.0836 -6.6667
vn -0.0003 0.9946 0.1034
v 44 0.9454 -5.3333
vn -0.0003 0.9946 0.1034
v 44 1.084 -6.6667
vn -0.0003 0.9946 0.1034
f 811//811 812//812 813//813
v 44 1.084 -6.6667
vn 0.0081 0.9946 0.1034
v 44 0.9454 -5.3333
vn 0.0081 0.9946 0.1034
v 45.3333 0.9345 -5.3333
vn 0.0081 0.9946 0.1034
f 814//814 815//815 816//816
v 44 1.084 -6.6667
vn 0.0129 0.995 0.0987
v 45.3333 0.9345 -5.3333
vn 0.0129 0.995 0.0987
v 45.3333 1.0668 -6.6667
vn 0.0129 0.995 0.0987
f 817//817 818//818 819//819
v 45.3333 1.0668 -6.6667
vn 0.0186 0.9949 0.0987
v 45.3333 0.9345 -5.3333
vn 0.0186 0.9949 0.0987
v 46.6667 0.9096 -5.3333
vn 0.0186 0.9949 0.0987
f 820//820 821//821 822//822
v 45.3333 1.0668 -6.6667
vn 0.0212 0.9951 0.0961
v 46.6667 0.9096 -5.3333
vn 0.0212 0.9951 0.0961
v 46.6667 1.0384 -6.6667
vn 0.0212 0.9951 0.0961
f 823//823 824//824 825//825
v 46.6667 1.0384 -6.6667
vn 0.005 0.9954 0.0962
v 46.6667 0.9096 -5.3333
vn 0.005 0.9954 0.0962
v 48 0.903 -5.3333
vn 0.005 0.9954 0.0962
f 826//826 827//827 828//828
v 46.6667 1.0384 -6.6667
vn 0.0063 0.9955 0.0948
v 48 0.903 -5.3333
vn 0.0063 0.9955 0.0948
v 48 1.03 -6.6667
vn 0.0063 0.9955 0.0948
f 829//829 830//830 831//831
v 32 0.9467 -5.3333
vn 0.0056 0.9886 0.1502
v 33.3333 0.7367 -4
vn 0.0056 0.9886 0.1502
v 33.3333 0.9392 -5.3333
vn 0.0056 0.9886 0.1502
f 832//832 833//833 834//834
v 33.3333 0.9392 -5.3333
vn 0.0042 0.9883 0.1527
v 34.6667 0.7275 -4
vn 0.0042 0.9883 0.1527
v 34.6667 0.9336 -5.3333
vn 0.0042 0.9883 0.1527
f 835//835 836//836 837//837
v 34.6667 0.9336 -5.3333
vn -0.0036 0.9881 0.1536
v 36 0.7312 -4
vn -0.0036 0.9881 0.1536
v 36 0.9385 -5.3333
vn -0.0036 0.9881 0.1536
f 838//838 839//839 840//840
v 37.3333 0.9428 -5.3333
vn -0.0026 0.9881 0.154
v 38.6667 0.7386 -4
vn -0.0026 0.9881 0.154
v 38.6667 0.9464 -5.3333
vn -0.0026 0.9881 0.154
f 841//841 842//842 843//843
v 38.6667 0.9464 -5.3333
vn 0.0008 0.9882 0.1529
v 40 0.7389 -4
vn 0.0008 0.9882 0.1529
v 40 0.9453 -5.3333
vn 0.0008 0.9882 0.1529
f 844//844 845//845 846//846
v 40 0.9453 -5.3333
vn 0.0021 0.9886 0.1506
v 41.3333 0.7394 -4
vn 0.0021 0.9886 0.1506
v 41.3333 0.9425 -5.3333
vn 0.0021 0.9886 0.1506
f 847//847 848//848 849//849
v 41.3333 0.9425 -5.3333
vn 0 0.989 0.1476
v 42.6667 0.7434 -4
vn 0 0.989 0.1476
v 42.6667 0.9424 -5.3333
vn 0 0.989 0.1476
f 850//850 851//851 852//852
v 42.6667 0.9424 -5.3333
vn -0.0022 0.9893 0.1456
v 44 0.7492 -4
vn -0.0022 0.9893 0.1456
v 44 0.9454 -5.3333
vn -0.0022 0.9893 0.1456
f 853//853 854//854 855//855
v 44 0.9454 -5.3333
vn 0.0081 0.9902 0.1396
v 45.3333 0.7465 -4
vn 0.0081 0.9902 0.1396
v 45.3333 0.9345 -5.3333
vn 0.0081 0.9902 0.1396
f 856//856 857//857 858//858
v 45.3333 0.9345 -5.3333
vn 0.0185 0.9909 0.1334
v 46.6667 0.7302 -4
vn 0.0185 0.9909 0.1334
v 46.6667 0.9096 -5.3333
vn 0.0185 0.9909 0.1334
f 859//859 860//860 861//861
v 46.6667 0.9096 -5.3333
vn 0.0049 0.9916 0.1289
v 48 0.7297 -4
vn 0.0049 0.9916 0.1289
v 48 0.903 -5.3333
vn 0.0049 0.9916 0.1289
f 862//862 863//863 864//864
