# litt live chunk - perpetual grass world
# chunk (-1,0) seed=1337 size=16 res=12
mtllib materials.mtl
o chunk_-1_0
g grass_a
usemtl grass_a
v -4 0.8162 0
vn 0.1708 0.9853 -0.0003
v -4 0.8167 1.3333
vn 0.1708 0.9853 -0.0003
v -2.6667 0.5855 1.3333
vn 0.1708 0.9853 -0.0003
f 1//1 2//2 3//3
v -4 0.8162 0
vn 0.1706 0.9853 -0
v -2.6667 0.5855 1.3333
vn 0.1706 0.9853 -0
v -2.6667 0.5854 0
vn 0.1706 0.9853 -0
f 4//4 5//5 6//6
v -2.6667 0.5854 0
vn 0.2076 0.9782 -0
v -2.6667 0.5855 1.3333
vn 0.2076 0.9782 -0
v -1.3333 0.3026 1.3333
vn 0.2076 0.9782 -0
f 7//7 8//8 9//9
v -2.6667 0.5854 0
vn 0.2075 0.9782 0
v -1.3333 0.3026 1.3333
vn 0.2075 0.9782 0
v -1.3333 0.3026 0
vn 0.2075 0.9782 0
f 10//10 11//11 12//12
v -4 0.8167 1.3333
vn 0.1704 0.9854 0.0001
v -4 0.8165 2.6667
vn 0.1704 0.9854 0.0001
v -2.6667 0.586 2.6667
vn 0.1704 0.9854 0.0001
f 13//13 14//14 15//15
v -4 0.8167 1.3333
vn 0.1708 0.9853 -0.0004
v -2.6667 0.586 2.6667
vn 0.1708 0.9853 -0.0004
v -2.6667 0.5855 1.3333
vn 0.1708 0.9853 -0.0004
f 16//16 17//17 18//18
v -2.6667 0.5855 1.3333
vn 0.2078 0.9782 -0.0003
v -2.6667 0.586 2.6667
vn 0.2078 0.9782 -0.0003
v -1.3333 0.3028 2.6667
vn 0.2078 0.9782 -0.0003
f 19//19 20//20 21//21
v -2.6667 0.5855 1.3333
vn 0.2076 0.9782 -0.0002
v -1.3333 0.3028 2.6667
vn 0.2076 0.9782 -0.0002
v -1.3333 0.3026 1.3333
vn 0.2076 0.9782 -0.0002
f 22//22 23//23 24//24
v -4 0.8165 2.6667
vn 0.1702 0.9854 -0.0002
v -4 0.8168 4
vn 0.1702 0.9854 -0.0002
v -2.6667 0.5864 4
vn 0.1702 0.9854 -0.0002
f 25//25 26//26 27//27
v -4 0.8165 2.6667
vn 0.1704 0.9854 -0.0003
v -2.6667 0.5864 4
vn 0.1704 0.9854 -0.0003
v -2.6667 0.586 2.6667
vn 0.1704 0.9854 -0.0003
f 28//28 29//29 30//30
v -2.6667 0.586 2.6667
vn 0.2076 0.9782 -0.0003
v -2.6667 0.5864 4
vn 0.2076 0.9782 -0.0003
v -1.3333 0.3034 4
vn 0.2076 0.9782 -0.0003
f 31//31 32//32 33//33
v -2.6667 0.586 2.6667
vn 0.2078 0.9782 -0.0005
v -1.3333 0.3034 4
vn 0.2078 0.9782 -0.0005
v -1.3333 0.3028 2.6667
vn 0.2078 0.9782 -0.0005
f 34//34 35//35 36//36
v -4 0.8168 4
vn 0.1696 0.9855 -0.0007
v -4 0.8177 5.3333
vn 0.1696 0.9855 -0.0007
v -2.6667 0.5882 5.3333
vn 0.1696 0.9855 -0.0007
f 37//37 38//38 39//39
v -4 0.8168 4
vn 0.1702 0.9854 -0.0014
v -2.6667 0.5882 5.3333
vn 0.1702 0.9854 -0.0014
v -2.6667 0.5864 4
vn 0.1702 0.9854 -0.0014
f 40//40 41//41 42//42
v -2.6667 0.5864 4
vn 0.2086 0.978 -0.0013
v -2.6667 0.5882 5.3333
vn 0.2086 0.978 -0.0013
v -1.3333 0.3039 5.3333
vn 0.2086 0.978 -0.0013
f 43//43 44//44 45//45
v -2.6667 0.5864 4
vn 0.2076 0.9782 -0.0004
v -1.3333 0.3039 5.3333
vn 0.2076 0.9782 -0.0004
v -1.3333 0.3034 4
vn 0.2076 0.9782 -0.0004
f 46//46 47//47 48//48
v -4 0.8177 5.3333
vn 0.1687 0.9857 -0.0006
v -4 0.8186 6.6667
vn 0.1687 0.9857 -0.0006
v -2.6667 0.5904 6.6667
vn 0.1687 0.9857 -0.0006
f 49//49 50//50 51//51
v -4 0.8177 5.3333
vn 0.1696 0.9855 -0.0016
v -2.6667 0.5904 6.6667
vn 0.1696 0.9855 -0.0016
v -2.6667 0.5882 5.3333
vn 0.1696 0.9855 -0.0016
f 52//52 53//53 54//54
v -2.6667 0.5882 5.3333
vn 0.21 0.9777 -0.0016
v -2.6667 0.5904 6.6667
vn 0.21 0.9777 -0.0016
v -1.3333 0.304 6.6667
vn 0.21 0.9777 -0.0016
f 55//55 56//56 57//57
v -2.6667 0.5882 5.3333
vn 0.2086 0.978 -0
v -1.3333 0.304 6.6667
vn 0.2086 0.978 -0
v -1.3333 0.3039 5.3333
vn 0.2086 0.978 -0
f 58//58 59//59 60//60
v -4 0.8186 6.6667
vn 0.1694 0.9855 -0.0009
v -4 0.8198 8
vn 0.1694 0.9855 -0.0009
v -2.6667 0.5906 8
vn 0.1694 0.9855 -0.0009
f 61//61 62//62 63//63
v -4 0.8186 6.6667
vn 0.1687 0.9857 -0.0001
v -2.6667 0.5906 8
vn 0.1687 0.9857 -0.0001
v -2.6667 0.5904 6.6667
vn 0.1687 0.9857 -0.0001
f 64//64 65//65 66//66
v -2.6667 0.5904 6.6667
vn 0.2107 0.9776 -0.0001
v -2.6667 0.5906 8
vn 0.2107 0.9776 -0.0001
v -1.3333 0.3033 8
vn 0.2107 0.9776 -0.0001
f 67//67 68//68 69//69
v -2.6667 0.5904 6.6667
vn 0.21 0.9777 0.0005
v -1.3333 0.3033 8
vn 0.21 0.9777 0.0005
v -1.3333 0.304 6.6667
vn 0.21 0.9777 0.0005
f 70//70 71//71 72//72
v -4 0.8198 8
vn 0.1697 0.9855 -0.0002
v -4 0.82 9.3333
vn 0.1697 0.9855 -0.0002
v -2.6667 0.5905 9.3333
vn 0.1697 0.9855 -0.0002
f 73//73 74//74 75//75
v -4 0.8198 8
vn 0.1694 0.9856 0.0001
v -2.6667 0.5905 9.3333
vn 0.1694 0.9856 0.0001
v -2.6667 0.5906 8
vn 0.1694 0.9856 0.0001
f 76//76 77//77 78//78
v -2.6667 0.5906 8
vn 0.2114 0.9774 0.0001
v -2.6667 0.5905 9.3333
vn 0.2114 0.9774 0.0001
v -1.3333 0.3021 9.3333
vn 0.2114 0.9774 0.0001
f 79//79 80//80 81//81
v -2.6667 0.5906 8
vn 0.2107 0.9776 0.0009
v -1.3333 0.3021 9.3333
vn 0.2107 0.9776 0.0009
v -1.3333 0.3033 8
vn 0.2107 0.9776 0.0009
f 82//82 83//83 84//84
v -4 0.82 9.3333
vn 0.1698 0.9855 0.0011
v -4 0.8185 10.6667
vn 0.1698 0.9855 0.0011
v -2.6667 0.5888 10.6667
vn 0.1698 0.9855 0.0011
f 85//85 86//86 87//87
v -4 0.82 9.3333
vn 0.1697 0.9855 0.0012
v -2.6667 0.5888 10.6667
vn 0.1697 0.9855 0.0012
v -2.6667 0.5905 9.3333
vn 0.1697 0.9855 0.0012
f 88//88 89//89 90//90
v -2.6667 0.5905 9.3333
vn 0.2064 0.9785 0.0012
v -2.6667 0.5888 10.6667
vn 0.2064 0.9785 0.0012
v -1.3333 0.3076 10.6667
vn 0.2064 0.9785 0.0012
f 91//91 92//92 93//93
v -2.6667 0.5905 9.3333
vn 0.2114 0.9774 -0.004
v -1.3333 0.3076 10.6667
vn 0.2114 0.9774 -0.004
v -1.3333 0.3021 9.3333
vn 0.2114 0.9774 -0.004
f 94//94 95//95 96//96
v -4 0.8185 10.6667
vn 0.1698 0.9855 -0
v -4 0.8185 12
vn 0.1698 0.9855 -0
v -2.6667 0.5888 12
vn 0.1698 0.9855 -0
f 97//97 98//98 99//99
v -4 0.8185 10.6667
vn 0.1698 0.9855 0
v -2.6667 0.5888 12
vn 0.1698 0.9855 0
v -2.6667 0.5888 10.6667
vn 0.1698 0.9855 0
f 100//100 101//101 102//102
v -2.6667 0.5888 10.6667
vn 0.2053 0.9787 0
v -2.6667 0.5888 12
vn 0.2053 0.9787 0
v -1.3333 0.3091 12
vn 0.2053 0.9787 0
f 103//103 104//104 105//105
v -2.6667 0.5888 10.6667
vn 0.2064 0.9785 -0.0011
v -1.3333 0.3091 12
vn 0.2064 0.9785 -0.0011
v -1.3333 0.3076 10.6667
vn 0.2064 0.9785 -0.0011
f 106//106 107//107 108//108
v -4 0.8185 12
vn 0.1697 0.9855 0.0003
v -4 0.8181 13.3333
vn 0.1697 0.9855 0.0003
v -2.6667 0.5885 13.3333
vn 0.1697 0.9855 0.0003
f 109//109 110//110 111//111
v -4 0.8185 12
vn 0.1698 0.9855 0.0002
v -2.6667 0.5885 13.3333
vn 0.1698 0.9855 0.0002
v -2.6667 0.5888 12
vn 0.1698 0.9855 0.0002
f 112//112 113//113 114//114
v -2.6667 0.5888 12
vn 0.2053 0.9787 0.0002
v -2.6667 0.5885 13.3333
vn 0.2053 0.9787 0.0002
v -1.3333 0.3089 13.3333
vn 0.2053 0.9787 0.0002
f 115//115 116//116 117//117
v -2.6667 0.5888 12
vn 0.2053 0.9787 0.0002
v -1.3333 0.3089 13.3333
vn 0.2053 0.9787 0.0002
v -1.3333 0.3091 12
vn 0.2053 0.9787 0.0002
f 118//118 119//119 120//120
v -4 0.8181 13.3333
vn 0.1696 0.9855 0.0001
v -4 0.8179 14.6667
vn 0.1696 0.9855 0.0001
v -2.6667 0.5884 14.6667
vn 0.1696 0.9855 0.0001
f 121//121 122//122 123//123
v -4 0.8181 13.3333
vn 0.1697 0.9855 0.0001
v -2.6667 0.5884 14.6667
vn 0.1697 0.9855 0.0001
v -2.6667 0.5885 13.3333
vn 0.1697 0.9855 0.0001
f 124//124 125//125 126//126
v -2.6667 0.5885 13.3333
vn 0.2056 0.9786 0.0001
v -2.6667 0.5884 14.6667
vn 0.2056 0.9786 0.0001
v -1.3333 0.3083 14.6667
vn 0.2056 0.9786 0.0001
f 127//127 128//128 129//129
v -2.6667 0.5885 13.3333
vn 0.2053 0.9787 0.0005
v -1.3333 0.3083 14.6667
vn 0.2053 0.9787 0.0005
v -1.3333 0.3089 13.3333
vn 0.2053 0.9787 0.0005
f 130//130 131//131 132//132
v -4 0.8179 14.6667
vn 0.1695 0.9855 0.0002
v -4 0.8176 16
vn 0.1695 0.9855 0.0002
v -2.6667 0.5883 16
vn 0.1695 0.9855 0.0002
f 133//133 134//134 135//135
v -4 0.8179 14.6667
vn 0.1696 0.9855 0.0001
v -2.6667 0.5883 16
vn 0.1696 0.9855 0.0001
v -2.6667 0.5884 14.6667
vn 0.1696 0.9855 0.0001
f 136//136 137//137 138//138
v -2.6667 0.5884 14.6667
vn 0.2062 0.9785 0.0001
v -2.6667 0.5883 16
vn 0.2062 0.9785 0.0001
v -1.3333 0.3073 16
vn 0.2062 0.9785 0.0001
f 139//139 140//140 141//141
v -2.6667 0.5884 14.6667
vn 0.2056 0.9786 0.0007
v -1.3333 0.3073 16
vn 0.2056 0.9786 0.0007
v -1.3333 0.3083 14.6667
vn 0.2056 0.9786 0.0007
f 142//142 143//143 144//144
g grass_b
usemtl grass_b
v -1.3333 0.3026 0
vn 0.1741 0.9847 0
v -1.3333 0.3026 1.3333
vn 0.1741 0.9847 0
v 0 0.0669 1.3333
vn 0.1741 0.9847 0
f 145//145 146//146 147//147
v -1.3333 0.3026 0
vn 0.1745 0.9847 -0.0004
v 0 0.0669 1.3333
vn 0.1745 0.9847 -0.0004
v 0 0.0664 0
vn 0.1745 0.9847 -0.0004
f 148//148 149//149 150//150
v -1.3333 0.3026 1.3333
vn 0.1738 0.9848 -0.0002
v -1.3333 0.3028 2.6667
vn 0.1738 0.9848 -0.0002
v 0 0.0675 2.6667
vn 0.1738 0.9848 -0.0002
f 151//151 152//152 153//153
v -1.3333 0.3026 1.3333
vn 0.1741 0.9847 -0.0005
v 0 0.0675 2.6667
vn 0.1741 0.9847 -0.0005
v 0 0.0669 1.3333
vn 0.1741 0.9847 -0.0005
f 154//154 155//155 156//156
v -1.3333 0.3028 2.6667
vn 0.1733 0.9849 -0.0005
v -1.3333 0.3034 4
vn 0.1733 0.9849 -0.0005
v 0 0.0688 4
vn 0.1733 0.9849 -0.0005
f 157//157 158//158 159//159
v -1.3333 0.3028 2.6667
vn 0.1738 0.9848 -0.0009
v 0 0.0688 4
vn 0.1738 0.9848 -0.0009
v 0 0.0675 2.6667
vn 0.1738 0.9848 -0.0009
f 160//160 161//161 162//162
v -1.3333 0.3034 4
vn 0.1738 0.9848 -0.0004
v -1.3333 0.3039 5.3333
vn 0.1738 0.9848 -0.0004
v 0 0.0686 5.3333
vn 0.1738 0.9848 -0.0004
f 163//163 164//164 165//165
v -1.3333 0.3034 4
vn 0.1733 0.9849 0.0001
v 0 0.0686 5.3333
vn 0.1733 0.9849 0.0001
v 0 0.0688 4
vn 0.1733 0.9849 0.0001
f 166//166 167//167 168//168
v -1.3333 0.3039 5.3333
vn 0.1747 0.9846 -0
v -1.3333 0.304 6.6667
vn 0.1747 0.9846 -0
v 0 0.0674 6.6667
vn 0.1747 0.9846 -0
f 169//169 170//170 171//171
v -1.3333 0.3039 5.3333
vn 0.1738 0.9848 0.0008
v 0 0.0674 6.6667
vn 0.1738 0.9848 0.0008
v 0 0.0686 5.3333
vn 0.1738 0.9848 0.0008
f 172//172 173//173 174//174
v -1.3333 0.304 6.6667
vn 0.1746 0.9846 0.0005
v -1.3333 0.3033 8
vn 0.1746 0.9846 0.0005
v 0 0.0669 8
vn 0.1746 0.9846 0.0005
f 175//175 176//176 177//177
v -1.3333 0.304 6.6667
vn 0.1747 0.9846 0.0004
v 0 0.0669 8
vn 0.1747 0.9846 0.0004
v 0 0.0674 6.6667
vn 0.1747 0.9846 0.0004
f 178//178 179//179 180//180
v -1.3333 0.3033 8
vn 0.1745 0.9847 0.0009
v -1.3333 0.3021 9.3333
vn 0.1745 0.9847 0.0009
v 0 0.0658 9.3333
vn 0.1745 0.9847 0.0009
f 181//181 182//182 183//183
v -1.3333 0.3033 8
vn 0.1746 0.9846 0.0008
v 0 0.0658 9.3333
vn 0.1746 0.9846 0.0008
v 0 0.0669 8
vn 0.1746 0.9846 0.0008
f 184//184 185//185 186//186
v -1.3333 0.3021 9.3333
vn 0.1797 0.9837 -0.0041
v -1.3333 0.3076 10.6667
vn 0.1797 0.9837 -0.0041
v 0 0.064 10.6667
vn 0.1797 0.9837 -0.0041
f 187//187 188//188 189//189
v -1.3333 0.3021 9.3333
vn 0.1745 0.9847 0.0014
v 0 0.064 10.6667
vn 0.1745 0.9847 0.0014
v 0 0.0658 9.3333
vn 0.1745 0.9847 0.0014
f 190//190 191//191 192//192
v -1.3333 0.3076 10.6667
vn 0.1793 0.9838 -0.0011
v -1.3333 0.3091 12
vn 0.1793 0.9838 -0.0011
v 0 0.0661 12
vn 0.1793 0.9838 -0.0011
f 193//193 194//194 195//195
v -1.3333 0.3076 10.6667
vn 0.1797 0.9837 -0.0016
v 0 0.0661 12
vn 0.1797 0.9837 -0.0016
v 0 0.064 10.6667
vn 0.1797 0.9837 -0.0016
f 196//196 197//197 198//198
v -1.3333 0.3091 12
vn 0.1788 0.9839 0.0002
v -1.3333 0.3089 13.3333
vn 0.1788 0.9839 0.0002
v 0 0.0666 13.3333
vn 0.1788 0.9839 0.0002
f 199//199 200//200 201//201
v -1.3333 0.3091 12
vn 0.1793 0.9838 -0.0003
v 0 0.0666 13.3333
vn 0.1793 0.9838 -0.0003
v 0 0.0661 12
vn 0.1793 0.9838 -0.0003
f 202//202 203//203 204//204
v -1.3333 0.3089 13.3333
vn 0.1785 0.9839 0.0005
v -1.3333 0.3083 14.6667
vn 0.1785 0.9839 0.0005
v 0 0.0663 14.6667
vn 0.1785 0.9839 0.0005
f 205//205 206//206 207//207
v -1.3333 0.3089 13.3333
vn 0.1788 0.9839 0.0002
v 0 0.0663 14.6667
vn 0.1788 0.9839 0.0002
v 0 0.0666 13.3333
vn 0.1788 0.9839 0.0002
f 208//208 209//209 210//210
v -1.3333 0.3083 14.6667
vn 0.1783 0.984 0.0007
v -1.3333 0.3073 16
vn 0.1783 0.984 0.0007
v 0 0.0657 16
vn 0.1783 0.984 0.0007
f 211//211 212//212 213//213
v -1.3333 0.3083 14.6667
vn 0.1785 0.9839 0.0005
v 0 0.0657 16
vn 0.1785 0.9839 0.0005
v 0 0.0663 14.6667
vn 0.1785 0.9839 0.0005
f 214//214 215//215 216//216
g dirt
usemtl dirt
v -16 1.5105 0
vn 0.0017 1 0.0001
v -16 1.5103 1.3333
vn 0.0017 1 0.0001
v -14.6667 1.508 1.3333
vn 0.0017 1 0.0001
f 217//217 218//218 219//219
v -16 1.5105 0
vn 0.0019 1 -0
v -14.6667 1.508 1.3333
vn 0.0019 1 -0
v -14.6667 1.508 0
vn 0.0019 1 -0
f 220//220 221//221 222//222
v -14.6667 1.508 0
vn 0.0008 1 -0
v -14.6667 1.508 1.3333
vn 0.0008 1 -0
v -13.3333 1.507 1.3333
vn 0.0008 1 -0
f 223//223 224//224 225//225
v -14.6667 1.508 0
vn 0.0007 1 0.0001
v -13.3333 1.507 1.3333
vn 0.0007 1 0.0001
v -13.3333 1.5071 0
vn 0.0007 1 0.0001
f 226//226 227//227 228//228
v -13.3333 1.5071 0
vn 0.0004 1 0.0001
v -13.3333 1.507 1.3333
vn 0.0004 1 0.0001
v -12 1.5064 1.3333
vn 0.0004 1 0.0001
f 229//229 230//230 231//231
v -13.3333 1.5071 0
vn 0.0002 1 0.0003
v -12 1.5064 1.3333
vn 0.0002 1 0.0003
v -12 1.5068 0
vn 0.0002 1 0.0003
f 232//232 233//233 234//234
v -12 1.5068 0
vn 0.0209 0.9998 0.0003
v -12 1.5064 1.3333
vn 0.0209 0.9998 0.0003
v -10.6667 1.4786 1.3333
vn 0.0209 0.9998 0.0003
f 235//235 236//236 237//237
v -12 1.5068 0
vn 0.0204 0.9998 0.0008
v -10.6667 1.4786 1.3333
vn 0.0204 0.9998 0.0008
v -10.6667 1.4796 0
vn 0.0204 0.9998 0.0008
f 238//238 239//239 240//240
v -10.6667 1.4796 0
vn 0.06 0.9982 0.0008
v -10.6667 1.4786 1.3333
vn 0.06 0.9982 0.0008
v -9.3333 1.3984 1.3333
vn 0.06 0.9982 0.0008
f 241//241 242//242 243//243
v -10.6667 1.4796 0
vn 0.0601 0.9982 0.0007
v -9.3333 1.3984 1.3333
vn 0.0601 0.9982 0.0007
v -9.3333 1.3993 0
vn 0.0601 0.9982 0.0007
f 244//244 245//245 246//246
v -9.3333 1.3993 0
vn 0.0831 0.9965 0.0007
v -9.3333 1.3984 1.3333
vn 0.0831 0.9965 0.0007
v -8 1.2873 1.3333
vn 0.0831 0.9965 0.0007
f 247//247 248//248 249//249
v -9.3333 1.3993 0
vn 0.0832 0.9965 0.0005
v -8 1.2873 1.3333
vn 0.0832 0.9965 0.0005
v -8 1.288 0
vn 0.0832 0.9965 0.0005
f 250//250 251//251 252//252
v -8 1.288 0
vn 0.091 0.9959 0.0005
v -8 1.2873 1.3333
vn 0.091 0.9959 0.0005
v -6.6667 1.1655 1.3333
vn 0.091 0.9959 0.0005
f 253//253 254//254 255//255
v -8 1.288 0
vn 0.0917 0.9958 -0.0002
v -6.6667 1.1655 1.3333
vn 0.0917 0.9958 -0.0002
v -6.6667 1.1652 0
vn 0.0917 0.9958 -0.0002
f 256//256 257//257 258//258
v -6.6667 1.1652 0
vn 0.1044 0.9945 -0.0002
v -6.6667 1.1655 1.3333
vn 0.1044 0.9945 -0.0002
v -5.3333 1.0255 1.3333
vn 0.1044 0.9945 -0.0002
f 259//259 260//260 261//261
v -6.6667 1.1652 0
vn 0.1046 0.9945 -0.0004
v -5.3333 1.0255 1.3333
vn 0.1046 0.9945 -0.0004
v -5.3333 1.0249 0
vn 0.1046 0.9945 -0.0004
f 262//262 263//263 264//264
v -5.3333 1.0249 0
vn 0.1547 0.988 -0.0004
v -5.3333 1.0255 1.3333
vn 0.1547 0.988 -0.0004
v -4 0.8167 1.3333
vn 0.1547 0.988 -0.0004
f 265//265 266//266 267//267
v -5.3333 1.0249 0
vn 0.1546 0.988 -0.0003
v -4 0.8167 1.3333
vn 0.1546 0.988 -0.0003
v -4 0.8162 0
vn 0.1546 0.988 -0.0003
f 268//268 269//269 270//270
v -16 1.5103 1.3333
vn 0.0017 1 0
v -16 1.5103 2.6667
vn 0.0017 1 0
v -14.6667 1.508 2.6667
vn 0.0017 1 0
f 271//271 272//272 273//273
v -16 1.5103 1.3333
vn 0.0017 1 0
v -14.6667 1.508 2.6667
vn 0.0017 1 0
v -14.6667 1.508 1.3333
vn 0.0017 1 0
f 274//274 275//275 276//276
v -14.6667 1.508 1.3333
vn 0.0012 1 0
v -14.6667 1.508 2.6667
vn 0.0012 1 0
v -13.3333 1.5064 2.6667
vn 0.0012 1 0
f 277//277 278//278 279//279
v -14.6667 1.508 1.3333
vn 0.0008 1 0.0005
v -13.3333 1.5064 2.6667
vn 0.0008 1 0.0005
v -13.3333 1.507 1.3333
vn 0.0008 1 0.0005
f 280//280 281//281 282//282
v -13.3333 1.507 1.3333
vn 0.0005 1 0.0005
v -13.3333 1.5064 2.6667
vn 0.0005 1 0.0005
v -12 1.5057 2.6667
vn 0.0005 1 0.0005
f 283//283 284//284 285//285
v -13.3333 1.507 1.3333
vn 0.0004 1 0.0005
v -12 1.5057 2.6667
vn 0.0004 1 0.0005
v -12 1.5064 1.3333
vn 0.0004 1 0.0005
f 286//286 287//287 288//288
v -12 1.5064 1.3333
vn 0.0205 0.9998 0.0005
v -12 1.5057 2.6667
vn 0.0205 0.9998 0.0005
v -10.6667 1.4783 2.6667
vn 0.0205 0.9998 0.0005
f 289//289 290//290 291//291
v -12 1.5064 1.3333
vn 0.0209 0.9998 0.0002
v -10.6667 1.4783 2.6667
vn 0.0209 0.9998 0.0002
v -10.6667 1.4786 1.3333
vn 0.0209 0.9998 0.0002
f 292//292 293//293 294//294
v -10.6667 1.4786 1.3333
vn 0.0599 0.9982 0.0002
v -10.6667 1.4783 2.6667
vn 0.0599 0.9982 0.0002
v -9.3333 1.3983 2.6667
vn 0.0599 0.9982 0.0002
f 295//295 296//296 297//297
v -10.6667 1.4786 1.3333
vn 0.06 0.9982 0.0001
v -9.3333 1.3983 2.6667
vn 0.06 0.9982 0.0001
v -9.3333 1.3984 1.3333
vn 0.06 0.9982 0.0001
f 298//298 299//299 300//300
v -9.3333 1.3984 1.3333
vn 0.0826 0.9966 0.0001
v -9.3333 1.3983 2.6667
vn 0.0826 0.9966 0.0001
v -8 1.2878 2.6667
vn 0.0826 0.9966 0.0001
f 301//301 302//302 303//303
v -9.3333 1.3984 1.3333
vn 0.0831 0.9965 -0.0004
v -8 1.2878 2.6667
vn 0.0831 0.9965 -0.0004
v -8 1.2873 1.3333
vn 0.0831 0.9965 -0.0004
f 304//304 305//305 306//306
v -8 1.2873 1.3333
vn 0.0917 0.9958 -0.0004
v -8 1.2878 2.6667
vn 0.0917 0.9958 -0.0004
v -6.6667 1.165 2.6667
vn 0.0917 0.9958 -0.0004
f 307//307 308//308 309//309
v -8 1.2873 1.3333
vn 0.091 0.9959 0.0004
v -6.6667 1.165 2.6667
vn 0.091 0.9959 0.0004
v -6.6667 1.1655 1.3333
vn 0.091 0.9959 0.0004
f 310//310 311//311 312//312
v -6.6667 1.1655 1.3333
vn 0.1045 0.9945 0.0004
v -6.6667 1.165 2.6667
vn 0.1045 0.9945 0.0004
v -5.3333 1.0248 2.6667
vn 0.1045 0.9945 0.0004
f 313//313 314//314 315//315
v -6.6667 1.1655 1.3333
vn 0.1044 0.9945 0.0005
v -5.3333 1.0248 2.6667
vn 0.1044 0.9945 0.0005
v -5.3333 1.0255 1.3333
vn 0.1044 0.9945 0.0005
f 316//316 317//317 318//318
v -5.3333 1.0255 1.3333
vn 0.1543 0.988 0.0005
v -5.3333 1.0248 2.6667
vn 0.1543 0.988 0.0005
v -4 0.8165 2.6667
vn 0.1543 0.988 0.0005
f 319//319 320//320 321//321
v -5.3333 1.0255 1.3333
vn 0.1547 0.988 0.0001
v -4 0.8165 2.6667
vn 0.1547 0.988 0.0001
v -4 0.8167 1.3333
vn 0.1547 0.988 0.0001
f 322//322 323//323 324//324
v -16 1.5103 2.6667
vn 0.0015 1 0.0008
v -16 1.5093 4
vn 0.0015 1 0.0008
v -14.6667 1.5073 4
vn 0.0015 1 0.0008
f 325//325 326//326 327//327
v -16 1.5103 2.6667
vn 0.0017 1 0.0006
v -14.6667 1.5073 4
vn 0.0017 1 0.0006
v -14.6667 1.508 2.6667
vn 0.0017 1 0.0006
f 328//328 329//329 330//330
v -14.6667 1.508 2.6667
vn 0.0009 1 0.0006
v -14.6667 1.5073 4
vn 0.0009 1 0.0006
v -13.3333 1.5061 4
vn 0.0009 1 0.0006
f 331//331 332//332 333//333
v -14.6667 1.508 2.6667
vn 0.0012 1 0.0002
v -13.3333 1.5061 4
vn 0.0012 1 0.0002
v -13.3333 1.5064 2.6667
vn 0.0012 1 0.0002
f 334//334 335//335 336//336
v -13.3333 1.5064 2.6667
vn 0.0005 1 0.0002
v -13.3333 1.5061 4
vn 0.0005 1 0.0002
v -12 1.5054 4
vn 0.0005 1 0.0002
f 337//337 338//338 339//339
v -13.3333 1.5064 2.6667
vn 0.0005 1 0.0002
v -12 1.5054 4
vn 0.0005 1 0.0002
v -12 1.5057 2.6667
vn 0.0005 1 0.0002
f 340//340 341//341 342//342
v -12 1.5057 2.6667
vn 0.0207 0.9998 0.0002
v -12 1.5054 4
vn 0.0207 0.9998 0.0002
v -10.6667 1.4778 4
vn 0.0207 0.9998 0.0002
f 343//343 344//344 345//345
v -12 1.5057 2.6667
vn 0.0205 0.9998 0.0004
v -10.6667 1.4778 4
vn 0.0205 0.9998 0.0004
v -10.6667 1.4783 2.6667
vn 0.0205 0.9998 0.0004
f 346//346 347//347 348//348
v -10.6667 1.4783 2.6667
vn 0.0598 0.9982 0.0004
v -10.6667 1.4778 4
vn 0.0598 0.9982 0.0004
v -9.3333 1.3979 4
vn 0.0598 0.9982 0.0004
f 349//349 350//350 351//351
v -10.6667 1.4783 2.6667
vn 0.0599 0.9982 0.0003
v -9.3333 1.3979 4
vn 0.0599 0.9982 0.0003
v -9.3333 1.3983 2.6667
vn 0.0599 0.9982 0.0003
f 352//352 353//353 354//354
v -9.3333 1.3983 2.6667
vn 0.0825 0.9966 0.0003
v -9.3333 1.3979 4
vn 0.0825 0.9966 0.0003
v -8 1.2876 4
vn 0.0825 0.9966 0.0003
f 355//355 356//356 357//357
v -9.3333 1.3983 2.6667
vn 0.0826 0.9966 0.0002
v -8 1.2876 4
vn 0.0826 0.9966 0.0002
v -8 1.2878 2.6667
vn 0.0826 0.9966 0.0002
f 358//358 359//359 360//360
v -8 1.2878 2.6667
vn 0.0917 0.9958 0.0002
v -8 1.2876 4
vn 0.0917 0.9958 0.0002
v -6.6667 1.1648 4
vn 0.0917 0.9958 0.0002
f 361//361 362//362 363//363
v -8 1.2878 2.6667
vn 0.0917 0.9958 0.0001
v -6.6667 1.1648 4
vn 0.0917 0.9958 0.0001
v -6.6667 1.165 2.6667
vn 0.0917 0.9958 0.0001
f 364//364 365//365 366//366
v -6.6667 1.165 2.6667
vn 0.1044 0.9945 0.0001
v -6.6667 1.1648 4
vn 0.1044 0.9945 0.0001
v -5.3333 1.0248 4
vn 0.1044 0.9945 0.0001
f 367//367 368//368 369//369
v -6.6667 1.165 2.6667
vn 0.1045 0.9945 -0
v -5.3333 1.0248 4
vn 0.1045 0.9945 -0
v -5.3333 1.0248 2.6667
vn 0.1045 0.9945 -0
f 370//370 371//371 372//372
v -5.3333 1.0248 2.6667
vn 0.1542 0.988 -0
v -5.3333 1.0248 4
vn 0.1542 0.988 -0
v -4 0.8168 4
vn 0.1542 0.988 -0
f 373//373 374//374 375//375
v -5.3333 1.0248 2.6667
vn 0.1543 0.988 -0.0002
v -4 0.8168 4
vn 0.1543 0.988 -0.0002
v -4 0.8165 2.6667
vn 0.1543 0.988 -0.0002
f 376//376 377//377 378//378
v -16 1.5093 4
vn 0.0016 1 0.0016
v -16 1.5071 5.3333
vn 0.0016 1 0.0016
v -14.6667 1.505 5.3333
vn 0.0016 1 0.0016
f 379//379 380//380 381//381
v -16 1.5093 4
vn 0.0015 1 0.0017
v -14.6667 1.505 5.3333
vn 0.0015 1 0.0017
v -14.6667 1.5073 4
vn 0.0015 1 0.0017
f 382//382 383//383 384//384
v -14.6667 1.5073 4
vn -0.0006 1 0.0017
v -14.6667 1.505 5.3333
vn -0.0006 1 0.0017
v -13.3333 1.5058 5.3333
vn -0.0006 1 0.0017
f 385//385 386//386 387//387
v -14.6667 1.5073 4
vn 0.0009 1 0.0002
v -13.3333 1.5058 5.3333
vn 0.0009 1 0.0002
v -13.3333 1.5061 4
vn 0.0009 1 0.0002
f 388//388 389//389 390//390
v -13.3333 1.5061 4
vn -0.0001 1 0.0002
v -13.3333 1.5058 5.3333
vn -0.0001 1 0.0002
v -12 1.506 5.3333
vn -0.0001 1 0.0002
f 391//391 392//392 393//393
v -13.3333 1.5061 4
vn 0.0005 1 -0.0004
v -12 1.506 5.3333
vn 0.0005 1 -0.0004
v -12 1.5054 4
vn 0.0005 1 -0.0004
f 394//394 395//395 396//396
v -12 1.5054 4
vn 0.0212 0.9998 -0.0004
v -12 1.506 5.3333
vn 0.0212 0.9998 -0.0004
v -10.6667 1.4777 5.3333
vn 0.0212 0.9998 -0.0004
f 397//397 398//398 399//399
v -12 1.5054 4
vn 0.0207 0.9998 0.0001
v -10.6667 1.4777 5.3333
vn 0.0207 0.9998 0.0001
v -10.6667 1.4778 4
vn 0.0207 0.9998 0.0001
f 400//400 401//401 402//402
v -10.6667 1.4778 4
vn 0.059 0.9983 0.0001
v -10.6667 1.4777 5.3333
vn 0.059 0.9983 0.0001
v -9.3333 1.3988 5.3333
vn 0.059 0.9983 0.0001
f 403//403 404//404 405//405
v -10.6667 1.4778 4
vn 0.0598 0.9982 -0.0007
v -9.3333 1.3988 5.3333
vn 0.0598 0.9982 -0.0007
v -9.3333 1.3979 4
vn 0.0598 0.9982 -0.0007
f 406//406 407//407 408//408
v -9.3333 1.3979 4
vn 0.0835 0.9965 -0.0007
v -9.3333 1.3988 5.3333
vn 0.0835 0.9965 -0.0007
v -8 1.2871 5.3333
vn 0.0835 0.9965 -0.0007
f 409//409 410//410 411//411
v -9.3333 1.3979 4
vn 0.0825 0.9966 0.0003
v -8 1.2871 5.3333
vn 0.0825 0.9966 0.0003
v -8 1.2876 4
vn 0.0825 0.9966 0.0003
f 412//412 413//413 414//414
v -8 1.2876 4
vn 0.0906 0.9959 0.0003
v -8 1.2871 5.3333
vn 0.0906 0.9959 0.0003
v -6.6667 1.1658 5.3333
vn 0.0906 0.9959 0.0003
f 415//415 416//416 417//417
v -8 1.2876 4
vn 0.0917 0.9958 -0.0008
v -6.6667 1.1658 5.3333
vn 0.0917 0.9958 -0.0008
v -6.6667 1.1648 4
vn 0.0917 0.9958 -0.0008
f 418//418 419//419 420//420
v -6.6667 1.1648 4
vn 0.1047 0.9945 -0.0008
v -6.6667 1.1658 5.3333
vn 0.1047 0.9945 -0.0008
v -5.3333 1.0255 5.3333
vn 0.1047 0.9945 -0.0008
f 421//421 422//422 423//423
v -6.6667 1.1648 4
vn 0.1044 0.9945 -0.0005
v -5.3333 1.0255 5.3333
vn 0.1044 0.9945 -0.0005
v -5.3333 1.0248 4
vn 0.1044 0.9945 -0.0005
f 424//424 425//425 426//426
v -5.3333 1.0248 4
vn 0.1539 0.9881 -0.0005
v -5.3333 1.0255 5.3333
vn 0.1539 0.9881 -0.0005
v -4 0.8177 5.3333
vn 0.1539 0.9881 -0.0005
f 427//427 428//428 429//429
v -5.3333 1.0248 4
vn 0.1542 0.988 -0.0007
v -4 0.8177 5.3333
vn 0.1542 0.988 -0.0007
v -4 0.8168 4
vn 0.1542 0.988 -0.0007
f 430//430 431//431 432//432
v -16 1.5071 5.3333
vn 0.0023 1 0.0008
v -16 1.506 6.6667
vn 0.0023 1 0.0008
v -14.6667 1.503 6.6667
vn 0.0023 1 0.0008
f 433//433 434//434 435//435
v -16 1.5071 5.3333
vn 0.0016 1 0.0015
v -14.6667 1.503 6.6667
vn 0.0016 1 0.0015
v -14.6667 1.505 5.3333
vn 0.0016 1 0.0015
f 436//436 437//437 438//438
v -14.6667 1.505 5.3333
vn -0.0013 1 0.0015
v -14.6667 1.503 6.6667
vn -0.0013 1 0.0015
v -13.3333 1.5048 6.6667
vn -0.0013 1 0.0015
f 439//439 440//440 441//441
v -14.6667 1.505 5.3333
vn -0.0006 1 0.0008
v -13.3333 1.5048 6.6667
vn -0.0006 1 0.0008
v -13.3333 1.5058 5.3333
vn -0.0006 1 0.0008
f 442//442 443//443 444//444
v -13.3333 1.5058 5.3333
vn -0.0007 1 0.0008
v -13.3333 1.5048 6.6667
vn -0.0007 1 0.0008
v -12 1.5057 6.6667
vn -0.0007 1 0.0008
f 445//445 446//446 447//447
v -13.3333 1.5058 5.3333
vn -0.0001 1 0.0002
v -12 1.5057 6.6667
vn -0.0001 1 0.0002
v -12 1.506 5.3333
vn -0.0001 1 0.0002
f 448//448 449//449 450//450
v -12 1.506 5.3333
vn 0.0218 0.9998 0.0002
v -12 1.5057 6.6667
vn 0.0218 0.9998 0.0002
v -10.6667 1.4766 6.6667
vn 0.0218 0.9998 0.0002
f 451//451 452//452 453//453
v -12 1.506 5.3333
vn 0.0212 0.9998 0.0008
v -10.6667 1.4766 6.6667
vn 0.0212 0.9998 0.0008
v -10.6667 1.4777 5.3333
vn 0.0212 0.9998 0.0008
f 454//454 455//455 456//456
v -10.6667 1.4777 5.3333
vn 0.0577 0.9983 0.0008
v -10.6667 1.4766 6.6667
vn 0.0577 0.9983 0.0008
v -9.3333 1.3995 6.6667
vn 0.0577 0.9983 0.0008
f 457//457 458//458 459//459
v -10.6667 1.4777 5.3333
vn 0.059 0.9983 -0.0005
v -9.3333 1.3995 6.6667
vn 0.059 0.9983 -0.0005
v -9.3333 1.3988 5.3333
vn 0.059 0.9983 -0.0005
f 460//460 461//461 462//462
v -9.3333 1.3988 5.3333
vn 0.0849 0.9964 -0.0005
v -9.3333 1.3995 6.6667
vn 0.0849 0.9964 -0.0005
v -8 1.2859 6.6667
vn 0.0849 0.9964 -0.0005
f 463//463 464//464 465//465
v -9.3333 1.3988 5.3333
vn 0.0835 0.9965 0.0009
v -8 1.2859 6.6667
vn 0.0835 0.9965 0.0009
v -8 1.2871 5.3333
vn 0.0835 0.9965 0.0009
f 466//466 467//467 468//468
v -8 1.2871 5.3333
vn 0.0888 0.9961 0.0009
v -8 1.2859 6.6667
vn 0.0888 0.9961 0.0009
v -6.6667 1.1671 6.6667
vn 0.0888 0.9961 0.0009
f 469//469 470//470 471//471
v -8 1.2871 5.3333
vn 0.0906 0.9959 -0.0009
v -6.6667 1.1671 6.6667
vn 0.0906 0.9959 -0.0009
v -6.6667 1.1658 5.3333
vn 0.0906 0.9959 -0.0009
f 472//472 473//473 474//474
v -6.6667 1.1658 5.3333
vn 0.1053 0.9944 -0.0009
v -6.6667 1.1671 6.6667
vn 0.1053 0.9944 -0.0009
v -5.3333 1.0259 6.6667
vn 0.1053 0.9944 -0.0009
f 475//475 476//476 477//477
v -6.6667 1.1658 5.3333
vn 0.1047 0.9945 -0.0003
v -5.3333 1.0259 6.6667
vn 0.1047 0.9945 -0.0003
v -5.3333 1.0255 5.3333
vn 0.1047 0.9945 -0.0003
f 478//478 479//479 480//480
v -5.3333 1.0255 5.3333
vn 0.1536 0.9881 -0.0003
v -5.3333 1.0259 6.6667
vn 0.1536 0.9881 -0.0003
v -4 0.8186 6.6667
vn 0.1536 0.9881 -0.0003
f 481//481 482//482 483//483
v -5.3333 1.0255 5.3333
vn 0.1539 0.9881 -0.0006
v -4 0.8186 6.6667
vn 0.1539 0.9881 -0.0006
v -4 0.8177 5.3333
vn 0.1539 0.9881 -0.0006
f 484//484 485//485 486//486
v -16 1.506 6.6667
vn 0.0019 1 -0.0002
v -16 1.5062 8
vn 0.0019 1 -0.0002
v -14.6667 1.5037 8
vn 0.0019 1 -0.0002
f 487//487 488//488 489//489
v -16 1.506 6.6667
vn 0.0023 1 -0.0005
v -14.6667 1.5037 8
vn 0.0023 1 -0.0005
v -14.6667 1.503 6.6667
vn 0.0023 1 -0.0005
f 490//490 491//491 492//492
v -14.6667 1.503 6.6667
vn -0.0012 1 -0.0005
v -14.6667 1.5037 8
vn -0.0012 1 -0.0005
v -13.3333 1.5052 8
vn -0.0012 1 -0.0005
f 493//493 494//494 495//495
v -14.6667 1.503 6.6667
vn -0.0013 1 -0.0004
v -13.3333 1.5052 8
vn -0.0013 1 -0.0004
v -13.3333 1.5048 6.6667
vn -0.0013 1 -0.0004
f 496//496 497//497 498//498
v -13.3333 1.5048 6.6667
vn -0.0005 1 -0.0004
v -13.3333 1.5052 8
vn -0.0005 1 -0.0004
v -12 1.5059 8
vn -0.0005 1 -0.0004
f 499//499 500//500 501//501
v -13.3333 1.5048 6.6667
vn -0.0007 1 -0.0001
v -12 1.5059 8
vn -0.0007 1 -0.0001
v -12 1.5057 6.6667
vn -0.0007 1 -0.0001
f 502//502 503//503 504//504
v -12 1.5057 6.6667
vn 0.0222 0.9998 -0.0001
v -12 1.5059 8
vn 0.0222 0.9998 -0.0001
v -10.6667 1.4763 8
vn 0.0222 0.9998 -0.0001
f 505//505 506//506 507//507
v -12 1.5057 6.6667
vn 0.0218 0.9998 0.0003
v -10.6667 1.4763 8
vn 0.0218 0.9998 0.0003
v -10.6667 1.4766 6.6667
vn 0.0218 0.9998 0.0003
f 508//508 509//509 510//510
v -10.6667 1.4766 6.6667
vn 0.0577 0.9983 0.0003
v -10.6667 1.4763 8
vn 0.0577 0.9983 0.0003
v -9.3333 1.3992 8
vn 0.0577 0.9983 0.0003
f 511//511 512//512 513//513
v -10.6667 1.4766 6.6667
vn 0.0577 0.9983 0.0002
v -9.3333 1.3992 8
vn 0.0577 0.9983 0.0002
v -9.3333 1.3995 6.6667
vn 0.0577 0.9983 0.0002
f 514//514 515//515 516//516
v -9.3333 1.3995 6.6667
vn 0.0845 0.9964 0.0002
v -9.3333 1.3992 8
vn 0.0845 0.9964 0.0002
v -8 1.2862 8
vn 0.0845 0.9964 0.0002
f 517//517 518//518 519//519
v -9.3333 1.3995 6.6667
vn 0.0849 0.9964 -0.0003
v -8 1.2862 8
vn 0.0849 0.9964 -0.0003
v -8 1.2859 6.6667
vn 0.0849 0.9964 -0.0003
f 520//520 521//521 522//522
v -8 1.2859 6.6667
vn 0.0879 0.9961 -0.0003
v -8 1.2862 8
vn 0.0879 0.9961 -0.0003
v -6.6667 1.1685 8
vn 0.0879 0.9961 -0.0003
f 523//523 524//524 525//525
v -8 1.2859 6.6667
vn 0.0888 0.9961 -0.0011
v -6.6667 1.1685 8
vn 0.0888 0.9961 -0.0011
v -6.6667 1.1671 6.6667
vn 0.0888 0.9961 -0.0011
f 526//526 527//527 528//528
v -6.6667 1.1671 6.6667
vn 0.1051 0.9945 -0.0011
v -6.6667 1.1685 8
vn 0.1051 0.9945 -0.0011
v -5.3333 1.0276 8
vn 0.1051 0.9945 -0.0011
f 529//529 530//530 531//531
v -6.6667 1.1671 6.6667
vn 0.1053 0.9944 -0.0013
v -5.3333 1.0276 8
vn 0.1053 0.9944 -0.0013
v -5.3333 1.0259 6.6667
vn 0.1053 0.9944 -0.0013
f 532//532 533//533 534//534
v -5.3333 1.0259 6.6667
vn 0.154 0.9881 -0.0013
v -5.3333 1.0276 8
vn 0.154 0.9881 -0.0013
v -4 0.8198 8
vn 0.154 0.9881 -0.0013
f 535//535 536//536 537//537
v -5.3333 1.0259 6.6667
vn 0.1536 0.9881 -0.0009
v -4 0.8198 8
vn 0.1536 0.9881 -0.0009
v -4 0.8186 6.6667
vn 0.1536 0.9881 -0.0009
f 538//538 539//539 540//540
v -16 1.5062 8
vn 0.0014 1 -0.0003
v -16 1.5066 9.3333
vn 0.0014 1 -0.0003
v -14.6667 1.5047 9.3333
vn 0.0014 1 -0.0003
f 541//541 542//542 543//543
v -16 1.5062 8
vn 0.0019 1 -0.0008
v -14.6667 1.5047 9.3333
vn 0.0019 1 -0.0008
v -14.6667 1.5037 8
vn 0.0019 1 -0.0008
f 544//544 545//545 546//546
v -14.6667 1.5037 8
vn -0.0012 1 -0.0008
v -14.6667 1.5047 9.3333
vn -0.0012 1 -0.0008
v -13.3333 1.5064 9.3333
vn -0.0012 1 -0.0008
f 547//547 548//548 549//549
v -14.6667 1.5037 8
vn -0.0012 1 -0.0008
v -13.3333 1.5064 9.3333
vn -0.0012 1 -0.0008
v -13.3333 1.5052 8
vn -0.0012 1 -0.0008
f 550//550 551//551 552//552
v -13.3333 1.5052 8
vn -0.0006 1 -0.0008
v -13.3333 1.5064 9.3333
vn -0.0006 1 -0.0008
v -12 1.5071 9.3333
vn -0.0006 1 -0.0008
f 553//553 554//554 555//555
v -13.3333 1.5052 8
vn -0.0005 1 -0.0009
v -12 1.5071 9.3333
vn -0.0005 1 -0.0009
v -12 1.5059 8
vn -0.0005 1 -0.0009
f 556//556 557//557 558//558
v -12 1.5059 8
vn 0.0217 0.9998 -0.0009
v -12 1.5071 9.3333
vn 0.0217 0.9998 -0.0009
v -10.6667 1.4781 9.3333
vn 0.0217 0.9998 -0.0009
f 559//559 560//560 561//561
v -12 1.5059 8
vn 0.0222 0.9998 -0.0014
v -10.6667 1.4781 9.3333
vn 0.0222 0.9998 -0.0014
v -10.6667 1.4763 8
vn 0.0222 0.9998 -0.0014
f 562//562 563//563 564//564
v -10.6667 1.4763 8
vn 0.0575 0.9983 -0.0014
v -10.6667 1.4781 9.3333
vn 0.0575 0.9983 -0.0014
v -9.3333 1.4013 9.3333
vn 0.0575 0.9983 -0.0014
f 565//565 566//566 567//567
v -10.6667 1.4763 8
vn 0.0577 0.9983 -0.0016
v -9.3333 1.4013 9.3333
vn 0.0577 0.9983 -0.0016
v -9.3333 1.3992 8
vn 0.0577 0.9983 -0.0016
f 568//568 569//569 570//570
v -9.3333 1.3992 8
vn 0.0843 0.9964 -0.0015
v -9.3333 1.4013 9.3333
vn 0.0843 0.9964 -0.0015
v -8 1.2885 9.3333
vn 0.0843 0.9964 -0.0015
f 571//571 572//572 573//573
v -9.3333 1.3992 8
vn 0.0845 0.9964 -0.0017
v -8 1.2885 9.3333
vn 0.0845 0.9964 -0.0017
v -8 1.2862 8
vn 0.0845 0.9964 -0.0017
f 574//574 575//575 576//576
v -8 1.2862 8
vn 0.0891 0.996 -0.0017
v -8 1.2885 9.3333
vn 0.0891 0.996 -0.0017
v -6.6667 1.1693 9.3333
vn 0.0891 0.996 -0.0017
f 577//577 578//578 579//579
v -8 1.2862 8
vn 0.0879 0.9961 -0.0006
v -6.6667 1.1693 9.3333
vn 0.0879 0.9961 -0.0006
v -6.6667 1.1685 8
vn 0.0879 0.9961 -0.0006
f 580//580 581//581 582//582
v -6.6667 1.1685 8
vn 0.1054 0.9944 -0.0006
v -6.6667 1.1693 9.3333
vn 0.1054 0.9944 -0.0006
v -5.3333 1.028 9.3333
vn 0.1054 0.9944 -0.0006
f 583//583 584//584 585//585
v -6.6667 1.1685 8
vn 0.1051 0.9945 -0.0003
v -5.3333 1.028 9.3333
vn 0.1051 0.9945 -0.0003
v -5.3333 1.0276 8
vn 0.1051 0.9945 -0.0003
f 586//586 587//587 588//588
v -5.3333 1.0276 8
vn 0.1541 0.988 -0.0003
v -5.3333 1.028 9.3333
vn 0.1541 0.988 -0.0003
v -4 0.82 9.3333
vn 0.1541 0.988 -0.0003
f 589//589 590//590 591//591
v -5.3333 1.0276 8
vn 0.154 0.9881 -0.0002
v -4 0.82 9.3333
vn 0.154 0.9881 -0.0002
v -4 0.8198 8
vn 0.154 0.9881 -0.0002
f 592//592 593//593 594//594
v -16 1.5066 9.3333
vn -0 1 -0.0016
v -16 1.5088 10.6667
vn -0 1 -0.0016
v -14.6667 1.5089 10.6667
vn -0 1 -0.0016
f 595//595 596//596 597//597
v -16 1.5066 9.3333
vn 0.0014 1 -0.0031
v -14.6667 1.5089 10.6667
vn 0.0014 1 -0.0031
v -14.6667 1.5047 9.3333
vn 0.0014 1 -0.0031
f 598//598 599//599 600//600
v -14.6667 1.5047 9.3333
vn 0 1 -0.0031
v -14.6667 1.5089 10.6667
vn 0 1 -0.0031
v -13.3333 1.5088 10.6667
vn 0 1 -0.0031
f 601//601 602//602 603//603
v -14.6667 1.5047 9.3333
vn -0.0012 1 -0.0018
v -13.3333 1.5088 10.6667
vn -0.0012 1 -0.0018
v -13.3333 1.5064 9.3333
vn -0.0012 1 -0.0018
f 604//604 605//605 606//606
v -13.3333 1.5064 9.3333
vn 0.0014 1 -0.0018
v -13.3333 1.5088 10.6667
vn 0.0014 1 -0.0018
v -12 1.507 10.6667
vn 0.0014 1 -0.0018
f 607//607 608//608 609//609
v -13.3333 1.5064 9.3333
vn -0.0006 1 0.0001
v -12 1.507 10.6667
vn -0.0006 1 0.0001
v -12 1.5071 9.3333
vn -0.0006 1 0.0001
f 610//610 611//611 612//612
v -12 1.5071 9.3333
vn 0.0226 0.9997 0.0001
v -12 1.507 10.6667
vn 0.0226 0.9997 0.0001
v -10.6667 1.4769 10.6667
vn 0.0226 0.9997 0.0001
f 613//613 614//614 615//615
v -12 1.5071 9.3333
vn 0.0217 0.9998 0.001
v -10.6667 1.4769 10.6667
vn 0.0217 0.9998 0.001
v -10.6667 1.4781 9.3333
vn 0.0217 0.9998 0.001
f 616//616 617//617 618//618
v -10.6667 1.4781 9.3333
vn 0.0586 0.9983 0.001
v -10.6667 1.4769 10.6667
vn 0.0586 0.9983 0.001
v -9.3333 1.3985 10.6667
vn 0.0586 0.9983 0.001
f 619//619 620//620 621//621
v -10.6667 1.4781 9.3333
vn 0.0575 0.9983 0.0021
v -9.3333 1.3985 10.6667
vn 0.0575 0.9983 0.0021
v -9.3333 1.4013 9.3333
vn 0.0575 0.9983 0.0021
f 622//622 623//623 624//624
v -9.3333 1.4013 9.3333
vn 0.0788 0.9969 0.0021
v -9.3333 1.3985 10.6667
vn 0.0788 0.9969 0.0021
v -8 1.2931 10.6667
vn 0.0788 0.9969 0.0021
f 625//625 626//626 627//627
v -9.3333 1.4013 9.3333
vn 0.0843 0.9964 -0.0034
v -8 1.2931 10.6667
vn 0.0843 0.9964 -0.0034
v -8 1.2885 9.3333
vn 0.0843 0.9964 -0.0034
f 628//628 629//629 630//630
v -8 1.2885 9.3333
vn 0.0913 0.9958 -0.0034
v -8 1.2931 10.6667
vn 0.0913 0.9958 -0.0034
v -6.6667 1.1708 10.6667
vn 0.0913 0.9958 -0.0034
f 631//631 632//632 633//633
v -8 1.2885 9.3333
vn 0.0891 0.996 -0.0011
v -6.6667 1.1708 10.6667
vn 0.0891 0.996 -0.0011
v -6.6667 1.1693 9.3333
vn 0.0891 0.996 -0.0011
f 634//634 635//635 636//636
v -6.6667 1.1693 9.3333
vn 0.1067 0.9943 -0.0011
v -6.6667 1.1708 10.6667
vn 0.1067 0.9943 -0.0011
v -5.3333 1.0278 10.6667
vn 0.1067 0.9943 -0.0011
f 637//637 638//638 639//639
v -6.6667 1.1693 9.3333
vn 0.1054 0.9944 0.0002
v -5.3333 1.0278 10.6667
vn 0.1054 0.9944 0.0002
v -5.3333 1.028 9.3333
vn 0.1054 0.9944 0.0002
f 640//640 641//641 642//642
v -5.3333 1.028 9.3333
vn 0.1551 0.9879 0.0002
v -5.3333 1.0278 10.6667
vn 0.1551 0.9879 0.0002
v -4 0.8185 10.6667
vn 0.1551 0.9879 0.0002
f 643//643 644//644 645//645
v -5.3333 1.028 9.3333
vn 0.1541 0.988 0.0011
v -4 0.8185 10.6667
vn 0.1541 0.988 0.0011
v -4 0.82 9.3333
vn 0.1541 0.988 0.0011
f 646//646 647//647 648//648
v -16 1.5088 10.6667
vn 0.0001 1 -0.002
v -16 1.5114 12
vn 0.0001 1 -0.002
v -14.6667 1.5113 12
vn 0.0001 1 -0.002
f 649//649 650//650 651//651
v -16 1.5088 10.6667
vn -0 1 -0.0018
v -14.6667 1.5113 12
vn -0 1 -0.0018
v -14.6667 1.5089 10.6667
vn -0 1 -0.0018
f 652//652 653//653 654//654
v -14.6667 1.5089 10.6667
vn 0.002 1 -0.0018
v -14.6667 1.5113 12
vn 0.002 1 -0.0018
v -13.3333 1.5086 12
vn 0.002 1 -0.0018
f 655//655 656//656 657//657
v -14.6667 1.5089 10.6667
vn 0 1 0.0002
v -13.3333 1.5086 12
vn 0 1 0.0002
v -13.3333 1.5088 10.6667
vn 0 1 0.0002
f 658//658 659//659 660//660
v -13.3333 1.5088 10.6667
vn 0.0021 1 0.0002
v -13.3333 1.5086 12
vn 0.0021 1 0.0002
v -12 1.5058 12
vn 0.0021 1 0.0002
f 661//661 662//662 663//663
v -13.3333 1.5088 10.6667
vn 0.0014 1 0.0009
v -12 1.5058 12
vn 0.0014 1 0.0009
v -12 1.507 10.6667
vn 0.0014 1 0.0009
f 664//664 665//665 666//666
v -12 1.507 10.6667
vn 0.0214 0.9998 0.0009
v -12 1.5058 12
vn 0.0214 0.9998 0.0009
v -10.6667 1.4772 12
vn 0.0214 0.9998 0.0009
f 667//667 668//668 669//669
v -12 1.507 10.6667
vn 0.0226 0.9997 -0.0003
v -10.6667 1.4772 12
vn 0.0226 0.9997 -0.0003
v -10.6667 1.4769 10.6667
vn 0.0226 0.9997 -0.0003
f 670//670 671//671 672//672
v -10.6667 1.4769 10.6667
vn 0.0576 0.9983 -0.0003
v -10.6667 1.4772 12
vn 0.0576 0.9983 -0.0003
v -9.3333 1.4003 12
vn 0.0576 0.9983 -0.0003
f 673//673 674//674 675//675
v -10.6667 1.4769 10.6667
vn 0.0586 0.9983 -0.0013
v -9.3333 1.4003 12
vn 0.0586 0.9983 -0.0013
v -9.3333 1.3985 10.6667
vn 0.0586 0.9983 -0.0013
f 676//676 677//677 678//678
v -9.3333 1.3985 10.6667
vn 0.0799 0.9968 -0.0013
v -9.3333 1.4003 12
vn 0.0799 0.9968 -0.0013
v -8 1.2934 12
vn 0.0799 0.9968 -0.0013
f 679//679 680//680 681//681
v -9.3333 1.3985 10.6667
vn 0.0788 0.9969 -0.0002
v -8 1.2934 12
vn 0.0788 0.9969 -0.0002
v -8 1.2931 10.6667
vn 0.0788 0.9969 -0.0002
f 682//682 683//683 684//684
v -8 1.2931 10.6667
vn 0.0931 0.9957 -0.0002
v -8 1.2934 12
vn 0.0931 0.9957 -0.0002
v -6.6667 1.1687 12
vn 0.0931 0.9957 -0.0002
f 685//685 686//686 687//687
v -8 1.2931 10.6667
vn 0.0913 0.9958 0.0016
v -6.6667 1.1687 12
vn 0.0913 0.9958 0.0016
v -6.6667 1.1708 10.6667
vn 0.0913 0.9958 0.0016
f 688//688 689//689 690//690
v -6.6667 1.1708 10.6667
vn 0.1063 0.9943 0.0016
v -6.6667 1.1687 12
vn 0.1063 0.9943 0.0016
v -5.3333 1.0262 12
vn 0.1063 0.9943 0.0016
f 691//691 692//692 693//693
v -6.6667 1.1708 10.6667
vn 0.1067 0.9943 0.0012
v -5.3333 1.0262 12
vn 0.1067 0.9943 0.0012
v -5.3333 1.0278 10.6667
vn 0.1067 0.9943 0.0012
f 694//694 695//695 696//696
v -5.3333 1.0278 10.6667
vn 0.1539 0.9881 0.0012
v -5.3333 1.0262 12
vn 0.1539 0.9881 0.0012
v -4 0.8185 12
vn 0.1539 0.9881 0.0012
f 697//697 698//698 699//699
v -5.3333 1.0278 10.6667
vn 0.1551 0.9879 -0
v -4 0.8185 12
vn 0.1551 0.9879 -0
v -4 0.8185 10.6667
vn 0.1551 0.9879 -0
f 700//700 701//701 702//702
v -16 1.5114 12
vn -0.0001 1 -0.0002
v -16 1.5117 13.3333
vn -0.0001 1 -0.0002
v -14.6667 1.5119 13.3333
vn -0.0001 1 -0.0002
f 703//703 704//704 705//705
v -16 1.5114 12
vn 0.0001 1 -0.0004
v -14.6667 1.5119 13.3333
vn 0.0001 1 -0.0004
v -14.6667 1.5113 12
vn 0.0001 1 -0.0004
f 706//706 707//707 708//708
v -14.6667 1.5113 12
vn 0.0023 1 -0.0004
v -14.6667 1.5119 13.3333
vn 0.0023 1 -0.0004
v -13.3333 1.5088 13.3333
vn 0.0023 1 -0.0004
f 709//709 710//710 711//711
v -14.6667 1.5113 12
vn 0.002 1 -0.0002
v -13.3333 1.5088 13.3333
vn 0.002 1 -0.0002
v -13.3333 1.5086 12
vn 0.002 1 -0.0002
f 712//712 713//713 714//714
v -13.3333 1.5086 12
vn 0.0022 1 -0.0002
v -13.3333 1.5088 13.3333
vn 0.0022 1 -0.0002
v -12 1.5059 13.3333
vn 0.0022 1 -0.0002
f 715//715 716//716 717//717
v -13.3333 1.5086 12
vn 0.0021 1 -0.0001
v -12 1.5059 13.3333
vn 0.0021 1 -0.0001
v -12 1.5058 12
vn 0.0021 1 -0.0001
f 718//718 719//719 720//720
v -12 1.5058 12
vn 0.0212 0.9998 -0.0001
v -12 1.5059 13.3333
vn 0.0212 0.9998 -0.0001
v -10.6667 1.4777 13.3333
vn 0.0212 0.9998 -0.0001
f 721//721 722//722 723//723
v -12 1.5058 12
vn 0.0214 0.9998 -0.0004
v -10.6667 1.4777 13.3333
vn 0.0214 0.9998 -0.0004
v -10.6667 1.4772 12
vn 0.0214 0.9998 -0.0004
f 724//724 725//725 726//726
v -10.6667 1.4772 12
vn 0.0575 0.9983 -0.0004
v -10.6667 1.4777 13.3333
vn 0.0575 0.9983 -0.0004
v -9.3333 1.4009 13.3333
vn 0.0575 0.9983 -0.0004
f 727//727 728//728 729//729
v -10.6667 1.4772 12
vn 0.0576 0.9983 -0.0005
v -9.3333 1.4009 13.3333
vn 0.0576 0.9983 -0.0005
v -9.3333 1.4003 12
vn 0.0576 0.9983 -0.0005
f 730//730 731//731 732//732
v -9.3333 1.4003 12
vn 0.08 0.9968 -0.0005
v -9.3333 1.4009 13.3333
vn 0.08 0.9968 -0.0005
v -8 1.294 13.3333
vn 0.08 0.9968 -0.0005
f 733//733 734//734 735//735
v -9.3333 1.4003 12
vn 0.0799 0.9968 -0.0004
v -8 1.294 13.3333
vn 0.0799 0.9968 -0.0004
v -8 1.2934 12
vn 0.0799 0.9968 -0.0004
f 736//736 737//737 738//738
v -8 1.2934 12
vn 0.0939 0.9956 -0.0004
v -8 1.294 13.3333
vn 0.0939 0.9956 -0.0004
v -6.6667 1.1682 13.3333
vn 0.0939 0.9956 -0.0004
f 739//739 740//740 741//741
v -8 1.2934 12
vn 0.0931 0.9957 0.0004
v -6.6667 1.1682 13.3333
vn 0.0931 0.9957 0.0004
v -6.6667 1.1687 12
vn 0.0931 0.9957 0.0004
f 742//742 743//743 744//744
v -6.6667 1.1687 12
vn 0.1064 0.9943 0.0004
v -6.6667 1.1682 13.3333
vn 0.1064 0.9943 0.0004
v -5.3333 1.0255 13.3333
vn 0.1064 0.9943 0.0004
f 745//745 746//746 747//747
v -6.6667 1.1687 12
vn 0.1063 0.9943 0.0005
v -5.3333 1.0255 13.3333
vn 0.1063 0.9943 0.0005
v -5.3333 1.0262 12
vn 0.1063 0.9943 0.0005
f 748//748 749//749 750//750
v -5.3333 1.0262 12
vn 0.1537 0.9881 0.0005
v -5.3333 1.0255 13.3333
vn 0.1537 0.9881 0.0005
v -4 0.8181 13.3333
vn 0.1537 0.9881 0.0005
f 751//751 752//752 753//753
v -5.3333 1.0262 12
vn 0.1539 0.9881 0.0003
v -4 0.8181 13.3333
vn 0.1539 0.9881 0.0003
v -4 0.8185 12
vn 0.1539 0.9881 0.0003
f 754//754 755//755 756//756
v -16 1.5117 13.3333
vn -0.0001 1 -0.0006
v -16 1.5125 14.6667
vn -0.0001 1 -0.0006
v -14.6667 1.5127 14.6667
vn -0.0001 1 -0.0006
f 757//757 758//758 759//759
v -16 1.5117 13.3333
vn -0.0001 1 -0.0006
v -14.6667 1.5127 14.6667
vn -0.0001 1 -0.0006
v -14.6667 1.5119 13.3333
vn -0.0001 1 -0.0006
f 760//760 761//761 762//762
v -14.6667 1.5119 13.3333
vn 0.0027 1 -0.0006
v -14.6667 1.5127 14.6667
vn 0.0027 1 -0.0006
v -13.3333 1.509 14.6667
vn 0.0027 1 -0.0006
f 763//763 764//764 765//765
v -14.6667 1.5119 13.3333
vn 0.0023 1 -0.0002
v -13.3333 1.509 14.6667
vn 0.0023 1 -0.0002
v -13.3333 1.5088 13.3333
vn 0.0023 1 -0.0002
f 766//766 767//767 768//768
v -13.3333 1.5088 13.3333
vn 0.0023 1 -0.0002
v -13.3333 1.509 14.6667
vn 0.0023 1 -0.0002
v -12 1.5059 14.6667
vn 0.0023 1 -0.0002
f 769//769 770//770 771//771
v -13.3333 1.5088 13.3333
vn 0.0022 1 0
v -12 1.5059 14.6667
vn 0.0022 1 0
v -12 1.5059 13.3333
vn 0.0022 1 0
f 772//772 773//773 774//774
v -12 1.5059 13.3333
vn 0.0211 0.9998 0
v -12 1.5059 14.6667
vn 0.0211 0.9998 0
v -10.6667 1.4778 14.6667
vn 0.0211 0.9998 0
f 775//775 776//776 777//777
v -12 1.5059 13.3333
vn 0.0212 0.9998 -0.0001
v -10.6667 1.4778 14.6667
vn 0.0212 0.9998 -0.0001
v -10.6667 1.4777 13.3333
vn 0.0212 0.9998 -0.0001
f 778//778 779//779 780//780
v -10.6667 1.4777 13.3333
vn 0.0577 0.9983 -0.0001
v -10.6667 1.4778 14.6667
vn 0.0577 0.9983 -0.0001
v -9.3333 1.4008 14.6667
vn 0.0577 0.9983 -0.0001
f 781//781 782//782 783//783
v -10.6667 1.4777 13.3333
vn 0.0575 0.9983 0.0001
v -9.3333 1.4008 14.6667
vn 0.0575 0.9983 0.0001
v -9.3333 1.4009 13.3333
vn 0.0575 0.9983 0.0001
f 784//784 785//785 786//786
v -9.3333 1.4009 13.3333
vn 0.0797 0.9968 0.0001
v -9.3333 1.4008 14.6667
vn 0.0797 0.9968 0.0001
v -8 1.2942 14.6667
vn 0.0797 0.9968 0.0001
f 787//787 788//788 789//789
v -9.3333 1.4009 13.3333
vn 0.08 0.9968 -0.0002
v -8 1.2942 14.6667
vn 0.08 0.9968 -0.0002
v -8 1.294 13.3333
vn 0.08 0.9968 -0.0002
f 790//790 791//791 792//792
v -8 1.294 13.3333
vn 0.094 0.9956 -0.0002
v -8 1.2942 14.6667
vn 0.094 0.9956 -0.0002
v -6.6667 1.1683 14.6667
vn 0.094 0.9956 -0.0002
f 793//793 794//794 795//795
v -8 1.294 13.3333
vn 0.0939 0.9956 -0.0001
v -6.6667 1.1683 14.6667
vn 0.0939 0.9956 -0.0001
v -6.6667 1.1682 13.3333
vn 0.0939 0.9956 -0.0001
f 796//796 797//797 798//798
v -6.6667 1.1682 13.3333
vn 0.1066 0.9943 -0.0001
v -6.6667 1.1683 14.6667
vn 0.1066 0.9943 -0.0001
v -5.3333 1.0253 14.6667
vn 0.1066 0.9943 -0.0001
f 799//799 800//800 801//801
v -6.6667 1.1682 13.3333
vn 0.1064 0.9943 0.0002
v -5.3333 1.0253 14.6667
vn 0.1064 0.9943 0.0002
v -5.3333 1.0255 13.3333
vn 0.1064 0.9943 0.0002
f 802//802 803//803 804//804
v -5.3333 1.0255 13.3333
vn 0.1537 0.9881 0.0002
v -5.3333 1.0253 14.6667
vn 0.1537 0.9881 0.0002
v -4 0.8179 14.6667
vn 0.1537 0.9881 0.0002
f 805//805 806//806 807//807
v -5.3333 1.0255 13.3333
vn 0.1537 0.9881 0.0001
v -4 0.8179 14.6667
vn 0.1537 0.9881 0.0001
v -4 0.8181 13.3333
vn 0.1537 0.9881 0.0001
f 808//808 809//809 810//810
v -16 1.5125 14.6667
vn -0 1 -0.0006
v -16 1.5134 16
vn -0 1 -0.0006
v -14.6667 1.5134 16
vn -0 1 -0.0006
f 811//811 812//812 813//813
v -16 1.5125 14.6667
vn -0.0001 1 -0.0005
v -14.6667 1.5134 16
vn -0.0001 1 -0.0005
v -14.6667 1.5127 14.6667
vn -0.0001 1 -0.0005
f 814//814 815//815 816//816
v -14.6667 1.5127 14.6667
vn 0.0028 1 -0.0005
v -14.6667 1.5134 16
vn 0.0028 1 -0.0005
v -13.3333 1.5096 16
vn 0.0028 1 -0.0005
f 817//817 818//818 819//819
v -14.6667 1.5127 14.6667
vn 0.0027 1 -0.0004
v -13.3333 1.5096 16
vn 0.0027 1 -0.0004
v -13.3333 1.509 14.6667
vn 0.0027 1 -0.0004
f 820//820 821//821 822//822
v -13.3333 1.509 14.6667
vn 0.0024 1 -0.0004
v -13.3333 1.5096 16
vn 0.0024 1 -0.0004
v -12 1.5063 16
vn 0.0024 1 -0.0004
f 823//823 824//824 825//825
v -13.3333 1.509 14.6667
vn 0.0023 1 -0.0003
v -12 1.5063 16
vn 0.0023 1 -0.0003
v -12 1.5059 14.6667
vn 0.0023 1 -0.0003
f 826//826 827//827 828//828
v -12 1.5059 14.6667
vn 0.0214 0.9998 -0.0003
v -12 1.5063 16
vn 0.0214 0.9998 -0.0003
v -10.6667 1.4778 16
vn 0.0214 0.9998 -0.0003
f 829//829 830//830 831//831
v -12 1.5059 14.6667
vn 0.0211 0.9998 -0
v -10.6667 1.4778 16
vn 0.0211 0.9998 -0
v -10.6667 1.4778 14.6667
vn 0.0211 0.9998 -0
f 832//832 833//833 834//834
v -10.6667 1.4778 14.6667
vn 0.0577 0.9983 -0
v -10.6667 1.4778 16
vn 0.0577 0.9983 -0
v -9.3333 1.4008 16
vn 0.0577 0.9983 -0
f 835//835 836//836 837//837
v -10.6667 1.4778 14.6667
vn 0.0577 0.9983 -0
v -9.3333 1.4008 16
vn 0.0577 0.9983 -0
v -9.3333 1.4008 14.6667
vn 0.0577 0.9983 -0
f 838//838 839//839 840//840
v -9.3333 1.4008 14.6667
vn 0.0802 0.9968 -0
v -9.3333 1.4008 16
vn 0.0802 0.9968 -0
v -8 1.2936 16
vn 0.0802 0.9968 -0
f 841//841 842//842 843//843
v -9.3333 1.4008 14.6667
vn 0.0797 0.9968 0.0005
v -8 1.2936 16
vn 0.0797 0.9968 0.0005
v -8 1.2942 14.6667
vn 0.0797 0.9968 0.0005
f 844//844 845//845 846//846
v -8 1.2942 14.6667
vn 0.0932 0.9956 0.0005
v -8 1.2936 16
vn 0.0932 0.9956 0.0005
v -6.6667 1.1687 16
vn 0.0932 0.9956 0.0005
f 847//847 848//848 849//849
v -8 1.2942 14.6667
vn 0.094 0.9956 -0.0003
v -6.6667 1.1687 16
vn 0.094 0.9956 -0.0003
v -6.6667 1.1683 14.6667
vn 0.094 0.9956 -0.0003
f 850//850 851//851 852//852
v -6.6667 1.1683 14.6667
vn 0.107 0.9943 -0.0003
v -6.6667 1.1687 16
vn 0.107 0.9943 -0.0003
v -5.3333 1.0252 16
vn 0.107 0.9943 -0.0003
f 853//853 854//854 855//855
v -6.6667 1.1683 14.6667
vn 0.1066 0.9943 0.0001
v -5.3333 1.0252 16
vn 0.1066 0.9943 0.0001
v -5.3333 1.0253 14.6667
vn 0.1066 0.9943 0.0001
f 856//856 857//857 858//858
v -5.3333 1.0253 14.6667
vn 0.1538 0.9881 0.0001
v -5.3333 1.0252 16
vn 0.1538 0.9881 0.0001
v -4 0.8176 16
vn 0.1538 0.9881 0.0001
f 859//859 860//860 861//861
v -5.3333 1.0253 14.6667
vn 0.1537 0.9881 0.0002
v -4 0.8176 16
vn 0.1537 0.9881 0.0002
v -4 0.8179 14.6667
vn 0.1537 0.9881 0.0002
f 862//862 863//863 864//864
