# litt live chunk - perpetual grass world
# chunk (2,-2) seed=1337 size=16 res=12
mtllib materials.mtl
o chunk_2_-2
g dirt
usemtl dirt
v 32 1.4802 -32
vn 0.007 1 -0.0008
v 32 1.4813 -30.6667
vn 0.007 1 -0.0008
v 33.3333 1.472 -30.6667
vn 0.007 1 -0.0008
f 1//1 2//2 3//3
v 32 1.4802 -32
vn 0.0064 1 -0.0002
v 33.3333 1.472 -30.6667
vn 0.0064 1 -0.0002
v 33.3333 1.4717 -32
vn 0.0064 1 -0.0002
f 4//4 5//5 6//6
v 33.3333 1.4717 -32
vn 0.0128 0.9999 -0.0002
v 33.3333 1.472 -30.6667
vn 0.0128 0.9999 -0.0002
v 34.6667 1.455 -30.6667
vn 0.0128 0.9999 -0.0002
f 7//7 8//8 9//9
v 33.3333 1.4717 -32
vn 0.012 0.9999 0.0006
v 34.6667 1.455 -30.6667
vn 0.012 0.9999 0.0006
v 34.6667 1.4558 -32
vn 0.012 0.9999 0.0006
f 10//10 11//11 12//12
v 34.6667 1.4558 -32
vn 0.0018 1 0.0006
v 34.6667 1.455 -30.6667
vn 0.0018 1 0.0006
v 36 1.4526 -30.6667
vn 0.0018 1 0.0006
f 13//13 14//14 15//15
v 34.6667 1.4558 -32
vn 0.0005 1 0.0018
v 36 1.4526 -30.6667
vn 0.0005 1 0.0018
v 36 1.4551 -32
vn 0.0005 1 0.0018
f 16//16 17//17 18//18
v 36 1.4551 -32
vn -0.0026 1 0.0018
v 36 1.4526 -30.6667
vn -0.0026 1 0.0018
v 37.3333 1.4561 -30.6667
vn -0.0026 1 0.0018
f 19//19 20//20 21//21
v 36 1.4551 -32
vn 0.0006 1 -0.0013
v 37.3333 1.4561 -30.6667
vn 0.0006 1 -0.0013
v 37.3333 1.4543 -32
vn 0.0006 1 -0.0013
f 22//22 23//23 24//24
v 37.3333 1.4543 -32
vn 0.0026 1 -0.0013
v 37.3333 1.4561 -30.6667
vn 0.0026 1 -0.0013
v 38.6667 1.4526 -30.6667
vn 0.0026 1 -0.0013
f 25//25 26//26 27//27
v 37.3333 1.4543 -32
vn 0.0018 1 -0.0005
v 38.6667 1.4526 -30.6667
vn 0.0018 1 -0.0005
v 38.6667 1.452 -32
vn 0.0018 1 -0.0005
f 28//28 29//29 30//30
v 38.6667 1.452 -32
vn 0.0022 1 -0.0005
v 38.6667 1.4526 -30.6667
vn 0.0022 1 -0.0005
v 40 1.4497 -30.6667
vn 0.0022 1 -0.0005
f 31//31 32//32 33//33
v 38.6667 1.452 -32
vn 0.0015 1 0.0002
v 40 1.4497 -30.6667
vn 0.0015 1 0.0002
v 40 1.4499 -32
vn 0.0015 1 0.0002
f 34//34 35//35 36//36
v 40 1.4499 -32
vn 0.0046 1 0.0002
v 40 1.4497 -30.6667
vn 0.0046 1 0.0002
v 41.3333 1.4435 -30.6667
vn 0.0046 1 0.0002
f 37//37 38//38 39//39
v 40 1.4499 -32
vn 0.0037 1 0.0011
v 41.3333 1.4435 -30.6667
vn 0.0037 1 0.0011
v 41.3333 1.445 -32
vn 0.0037 1 0.0011
f 40//40 41//41 42//42
v 41.3333 1.445 -32
vn 0.0078 1 0.0011
v 41.3333 1.4435 -30.6667
vn 0.0078 1 0.0011
v 42.6667 1.4331 -30.6667
vn 0.0078 1 0.0011
f 43//43 44//44 45//45
v 41.3333 1.445 -32
vn 0.0077 1 0.0013
v 42.6667 1.4331 -30.6667
vn 0.0077 1 0.0013
v 42.6667 1.4348 -32
vn 0.0077 1 0.0013
f 46//46 47//47 48//48
v 42.6667 1.4348 -32
vn 0.0056 1 0.0013
v 42.6667 1.4331 -30.6667
vn 0.0056 1 0.0013
v 44 1.4256 -30.6667
vn 0.0056 1 0.0013
f 49//49 50//50 51//51
v 42.6667 1.4348 -32
vn 0.0083 1 -0.0014
v 44 1.4256 -30.6667
vn 0.0083 1 -0.0014
v 44 1.4238 -32
vn 0.0083 1 -0.0014
f 52//52 53//53 54//54
v 44 1.4238 -32
vn 0.0158 0.9999 -0.0014
v 44 1.4256 -30.6667
vn 0.0158 0.9999 -0.0014
v 45.3333 1.4045 -30.6667
vn 0.0158 0.9999 -0.0014
f 55//55 56//56 57//57
v 44 1.4238 -32
vn 0.0151 0.9999 -0.0006
v 45.3333 1.4045 -30.6667
vn 0.0151 0.9999 -0.0006
v 45.3333 1.4037 -32
vn 0.0151 0.9999 -0.0006
f 58//58 59//59 60//60
v 45.3333 1.4037 -32
vn 0.0351 0.9994 -0.0006
v 45.3333 1.4045 -30.6667
vn 0.0351 0.9994 -0.0006
v 46.6667 1.3576 -30.6667
vn 0.0351 0.9994 -0.0006
f 61//61 62//62 63//63
v 45.3333 1.4037 -32
vn 0.0326 0.9995 0.0019
v 46.6667 1.3576 -30.6667
vn 0.0326 0.9995 0.0019
v 46.6667 1.3602 -32
vn 0.0326 0.9995 0.0019
f 64//64 65//65 66//66
v 46.6667 1.3602 -32
vn 0.0143 0.9999 0.0019
v 46.6667 1.3576 -30.6667
vn 0.0143 0.9999 0.0019
v 48 1.3386 -30.6667
vn 0.0143 0.9999 0.0019
f 67//67 68//68 69//69
v 46.6667 1.3602 -32
vn 0.0168 0.9999 -0.0005
v 48 1.3386 -30.6667
vn 0.0168 0.9999 -0.0005
v 48 1.3378 -32
vn 0.0168 0.9999 -0.0005
f 70//70 71//71 72//72
v 32 1.4813 -30.6667
vn 0.0069 1 0.0001
v 32 1.4811 -29.3333
vn 0.0069 1 0.0001
v 33.3333 1.4719 -29.3333
vn 0.0069 1 0.0001
f 73//73 74//74 75//75
v 32 1.4813 -30.6667
vn 0.007 1 0.0001
v 33.3333 1.4719 -29.3333
vn 0.007 1 0.0001
v 33.3333 1.472 -30.6667
vn 0.007 1 0.0001
f 76//76 77//77 78//78
v 33.3333 1.472 -30.6667
vn 0.0126 0.9999 0.0001
v 33.3333 1.4719 -29.3333
vn 0.0126 0.9999 0.0001
v 34.6667 1.4551 -29.3333
vn 0.0126 0.9999 0.0001
f 79//79 80//80 81//81
v 33.3333 1.472 -30.6667
vn 0.0128 0.9999 -0.0001
v 34.6667 1.4551 -29.3333
vn 0.0128 0.9999 -0.0001
v 34.6667 1.455 -30.6667
vn 0.0128 0.9999 -0.0001
f 82//82 83//83 84//84
v 34.6667 1.455 -30.6667
vn 0.0018 1 -0.0001
v 34.6667 1.4551 -29.3333
vn 0.0018 1 -0.0001
v 36 1.4527 -29.3333
vn 0.0018 1 -0.0001
f 85//85 86//86 87//87
v 34.6667 1.455 -30.6667
vn 0.0018 1 -0
v 36 1.4527 -29.3333
vn 0.0018 1 -0
v 36 1.4526 -30.6667
vn 0.0018 1 -0
f 88//88 89//89 90//90
v 36 1.4526 -30.6667
vn -0.0029 1 -0
v 36 1.4527 -29.3333
vn -0.0029 1 -0
v 37.3333 1.4565 -29.3333
vn -0.0029 1 -0
f 91//91 92//92 93//93
v 36 1.4526 -30.6667
vn -0.0026 1 -0.0003
v 37.3333 1.4565 -29.3333
vn -0.0026 1 -0.0003
v 37.3333 1.4561 -30.6667
vn -0.0026 1 -0.0003
f 94//94 95//95 96//96
v 37.3333 1.4561 -30.6667
vn 0.0034 1 -0.0003
v 37.3333 1.4565 -29.3333
vn 0.0034 1 -0.0003
v 38.6667 1.452 -29.3333
vn 0.0034 1 -0.0003
f 97//97 98//98 99//99
v 37.3333 1.4561 -30.6667
vn 0.0026 1 0.0004
v 38.6667 1.452 -29.3333
vn 0.0026 1 0.0004
v 38.6667 1.4526 -30.6667
vn 0.0026 1 0.0004
f 100//100 101//101 102//102
v 38.6667 1.4526 -30.6667
vn 0.0022 1 0.0004
v 38.6667 1.452 -29.3333
vn 0.0022 1 0.0004
v 40 1.449 -29.3333
vn 0.0022 1 0.0004
f 103//103 104//104 105//105
v 38.6667 1.4526 -30.6667
vn 0.0022 1 0.0005
v 40 1.449 -29.3333
vn 0.0022 1 0.0005
v 40 1.4497 -30.6667
vn 0.0022 1 0.0005
f 106//106 107//107 108//108
v 40 1.4497 -30.6667
vn 0.0045 1 0.0005
v 40 1.449 -29.3333
vn 0.0045 1 0.0005
v 41.3333 1.4431 -29.3333
vn 0.0045 1 0.0005
f 109//109 110//110 111//111
v 40 1.4497 -30.6667
vn 0.0046 1 0.0004
v 41.3333 1.4431 -29.3333
vn 0.0046 1 0.0004
v 41.3333 1.4435 -30.6667
vn 0.0046 1 0.0004
f 112//112 113//113 114//114
v 41.3333 1.4435 -30.6667
vn 0.0076 1 0.0004
v 41.3333 1.4431 -29.3333
vn 0.0076 1 0.0004
v 42.6667 1.433 -29.3333
vn 0.0076 1 0.0004
f 115//115 116//116 117//117
v 41.3333 1.4435 -30.6667
vn 0.0078 1 0.0001
v 42.6667 1.433 -29.3333
vn 0.0078 1 0.0001
v 42.6667 1.4331 -30.6667
vn 0.0078 1 0.0001
f 118//118 119//119 120//120
v 42.6667 1.4331 -30.6667
vn 0.0058 1 0.0001
v 42.6667 1.433 -29.3333
vn 0.0058 1 0.0001
v 44 1.4253 -29.3333
vn 0.0058 1 0.0001
f 121//121 122//122 123//123
v 42.6667 1.4331 -30.6667
vn 0.0056 1 0.0002
v 44 1.4253 -29.3333
vn 0.0056 1 0.0002
v 44 1.4256 -30.6667
vn 0.0056 1 0.0002
f 124//124 125//125 126//126
v 44 1.4256 -30.6667
vn 0.0161 0.9999 0.0002
v 44 1.4253 -29.3333
vn 0.0161 0.9999 0.0002
v 45.3333 1.4038 -29.3333
vn 0.0161 0.9999 0.0002
f 127//127 128//128 129//129
v 44 1.4256 -30.6667
vn 0.0158 0.9999 0.0005
v 45.3333 1.4038 -29.3333
vn 0.0158 0.9999 0.0005
v 45.3333 1.4045 -30.6667
vn 0.0158 0.9999 0.0005
f 130//130 131//131 132//132
v 45.3333 1.4045 -30.6667
vn 0.0352 0.9994 0.0005
v 45.3333 1.4038 -29.3333
vn 0.0352 0.9994 0.0005
v 46.6667 1.3568 -29.3333
vn 0.0352 0.9994 0.0005
f 133//133 134//134 135//135
v 45.3333 1.4045 -30.6667
vn 0.0351 0.9994 0.0006
v 46.6667 1.3568 -29.3333
vn 0.0351 0.9994 0.0006
v 46.6667 1.3576 -30.6667
vn 0.0351 0.9994 0.0006
f 136//136 137//137 138//138
v 46.6667 1.3576 -30.6667
vn 0.0144 0.9999 0.0006
v 46.6667 1.3568 -29.3333
vn 0.0144 0.9999 0.0006
v 48 1.3376 -29.3333
vn 0.0144 0.9999 0.0006
f 139//139 140//140 141//141
v 46.6667 1.3576 -30.6667
vn 0.0143 0.9999 0.0007
v 48 1.3376 -29.3333
vn 0.0143 0.9999 0.0007
v 48 1.3386 -30.6667
vn 0.0143 0.9999 0.0007
f 142//142 143//143 144//144
v 32 1.4811 -29.3333
vn 0.0069 1 -0.0001
v 32 1.4813 -28
vn 0.0069 1 -0.0001
v 33.3333 1.4721 -28
vn 0.0069 1 -0.0001
f 145//145 146//146 147//147
v 32 1.4811 -29.3333
vn 0.0069 1 -0.0001
v 33.3333 1.4721 -28
vn 0.0069 1 -0.0001
v 33.3333 1.4719 -29.3333
vn 0.0069 1 -0.0001
f 148//148 149//149 150//150
v 33.3333 1.4719 -29.3333
vn 0.0127 0.9999 -0.0001
v 33.3333 1.4721 -28
vn 0.0127 0.9999 -0.0001
v 34.6667 1.4552 -28
vn 0.0127 0.9999 -0.0001
f 151//151 152//152 153//153
v 33.3333 1.4719 -29.3333
vn 0.0126 0.9999 -0.0001
v 34.6667 1.4552 -28
vn 0.0126 0.9999 -0.0001
v 34.6667 1.4551 -29.3333
vn 0.0126 0.9999 -0.0001
f 154//154 155//155 156//156
v 34.6667 1.4551 -29.3333
vn 0.0022 1 -0.0001
v 34.6667 1.4552 -28
vn 0.0022 1 -0.0001
v 36 1.4523 -28
vn 0.0022 1 -0.0001
f 157//157 158//158 159//159
v 34.6667 1.4551 -29.3333
vn 0.0018 1 0.0003
v 36 1.4523 -28
vn 0.0018 1 0.0003
v 36 1.4527 -29.3333
vn 0.0018 1 0.0003
f 160//160 161//161 162//162
v 36 1.4527 -29.3333
vn -0.0029 1 0.0003
v 36 1.4523 -28
vn -0.0029 1 0.0003
v 37.3333 1.4562 -28
vn -0.0029 1 0.0003
f 163//163 164//164 165//165
v 36 1.4527 -29.3333
vn -0.0029 1 0.0003
v 37.3333 1.4562 -28
vn -0.0029 1 0.0003
v 37.3333 1.4565 -29.3333
vn -0.0029 1 0.0003
f 166//166 167//167 168//168
v 37.3333 1.4565 -29.3333
vn 0.0028 1 0.0003
v 37.3333 1.4562 -28
vn 0.0028 1 0.0003
v 38.6667 1.4524 -28
vn 0.0028 1 0.0003
f 169//169 170//170 171//171
v 37.3333 1.4565 -29.3333
vn 0.0034 1 -0.0003
v 38.6667 1.4524 -28
vn 0.0034 1 -0.0003
v 38.6667 1.452 -29.3333
vn 0.0034 1 -0.0003
f 172//172 173//173 174//174
v 38.6667 1.452 -29.3333
vn 0.0021 1 -0.0003
v 38.6667 1.4524 -28
vn 0.0021 1 -0.0003
v 40 1.4496 -28
vn 0.0021 1 -0.0003
f 175//175 176//176 177//177
v 38.6667 1.452 -29.3333
vn 0.0022 1 -0.0005
v 40 1.4496 -28
vn 0.0022 1 -0.0005
v 40 1.449 -29.3333
vn 0.0022 1 -0.0005
f 178//178 179//179 180//180
v 40 1.449 -29.3333
vn 0.0044 1 -0.0005
v 40 1.4496 -28
vn 0.0044 1 -0.0005
v 41.3333 1.4437 -28
vn 0.0044 1 -0.0005
f 181//181 182//182 183//183
v 40 1.449 -29.3333
vn 0.0045 1 -0.0005
v 41.3333 1.4437 -28
vn 0.0045 1 -0.0005
v 41.3333 1.4431 -29.3333
vn 0.0045 1 -0.0005
f 184//184 185//185 186//186
v 41.3333 1.4431 -29.3333
vn 0.0075 1 -0.0005
v 41.3333 1.4437 -28
vn 0.0075 1 -0.0005
v 42.6667 1.4337 -28
vn 0.0075 1 -0.0005
f 187//187 188//188 189//189
v 41.3333 1.4431 -29.3333
vn 0.0076 1 -0.0005
v 42.6667 1.4337 -28
vn 0.0076 1 -0.0005
v 42.6667 1.433 -29.3333
vn 0.0076 1 -0.0005
f 190//190 191//191 192//192
v 42.6667 1.433 -29.3333
vn 0.0062 1 -0.0005
v 42.6667 1.4337 -28
vn 0.0062 1 -0.0005
v 44 1.4255 -28
vn 0.0062 1 -0.0005
f 193//193 194//194 195//195
v 42.6667 1.433 -29.3333
vn 0.0058 1 -0.0002
v 44 1.4255 -28
vn 0.0058 1 -0.0002
v 44 1.4253 -29.3333
vn 0.0058 1 -0.0002
f 196//196 197//197 198//198
v 44 1.4253 -29.3333
vn 0.0166 0.9999 -0.0002
v 44 1.4255 -28
vn 0.0166 0.9999 -0.0002
v 45.3333 1.4033 -28
vn 0.0166 0.9999 -0.0002
f 199//199 200//200 201//201
v 44 1.4253 -29.3333
vn 0.0161 0.9999 0.0003
v 45.3333 1.4033 -28
vn 0.0161 0.9999 0.0003
v 45.3333 1.4038 -29.3333
vn 0.0161 0.9999 0.0003
f 202//202 203//203 204//204
v 45.3333 1.4038 -29.3333
vn 0.0352 0.9994 0.0003
v 45.3333 1.4033 -28
vn 0.0352 0.9994 0.0003
v 46.6667 1.3563 -28
vn 0.0352 0.9994 0.0003
f 205//205 206//206 207//207
v 45.3333 1.4038 -29.3333
vn 0.0352 0.9994 0.0004
v 46.6667 1.3563 -28
vn 0.0352 0.9994 0.0004
v 46.6667 1.3568 -29.3333
vn 0.0352 0.9994 0.0004
f 208//208 209//209 210//210
v 46.6667 1.3568 -29.3333
vn 0.0147 0.9999 0.0004
v 46.6667 1.3563 -28
vn 0.0147 0.9999 0.0004
v 48 1.3367 -28
vn 0.0147 0.9999 0.0004
f 211//211 212//212 213//213
v 46.6667 1.3568 -29.3333
vn 0.0144 0.9999 0.0007
v 48 1.3367 -28
vn 0.0144 0.9999 0.0007
v 48 1.3376 -29.3333
vn 0.0144 0.9999 0.0007
f 214//214 215//215 216//216
v 32 1.4813 -28
vn 0.0063 1 0.001
v 32 1.48 -26.6667
vn 0.0063 1 0.001
v 33.3333 1.4717 -26.6667
vn 0.0063 1 0.001
f 217//217 218//218 219//219
v 32 1.4813 -28
vn 0.0069 1 0.0004
v 33.3333 1.4717 -26.6667
vn 0.0069 1 0.0004
v 33.3333 1.4721 -28
vn 0.0069 1 0.0004
f 220//220 221//221 222//222
v 33.3333 1.4721 -28
vn 0.0142 0.9999 0.0004
v 33.3333 1.4717 -26.6667
vn 0.0142 0.9999 0.0004
v 34.6667 1.4527 -26.6667
vn 0.0142 0.9999 0.0004
f 223//223 224//224 225//225
v 33.3333 1.4721 -28
vn 0.0127 0.9999 0.0019
v 34.6667 1.4527 -26.6667
vn 0.0127 0.9999 0.0019
v 34.6667 1.4552 -28
vn 0.0127 0.9999 0.0019
f 226//226 227//227 228//228
v 34.6667 1.4552 -28
vn -0.0004 1 0.0019
v 34.6667 1.4527 -26.6667
vn -0.0004 1 0.0019
v 36 1.4532 -26.6667
vn -0.0004 1 0.0019
f 229//229 230//230 231//231
v 34.6667 1.4552 -28
vn 0.0022 1 -0.0007
v 36 1.4532 -26.6667
vn 0.0022 1 -0.0007
v 36 1.4523 -28
vn 0.0022 1 -0.0007
f 232//232 233//233 234//234
v 36 1.4523 -28
vn -0.0006 1 -0.0007
v 36 1.4532 -26.6667
vn -0.0006 1 -0.0007
v 37.3333 1.454 -26.6667
vn -0.0006 1 -0.0007
f 235//235 236//236 237//237
v 36 1.4523 -28
vn -0.0029 1 0.0016
v 37.3333 1.454 -26.6667
vn -0.0029 1 0.0016
v 37.3333 1.4562 -28
vn -0.0029 1 0.0016
f 238//238 239//239 240//240
v 37.3333 1.4562 -28
vn 0.0005 1 0.0016
v 37.3333 1.454 -26.6667
vn 0.0005 1 0.0016
v 38.6667 1.4534 -26.6667
vn 0.0005 1 0.0016
f 241//241 242//242 243//243
v 37.3333 1.4562 -28
vn 0.0028 1 -0.0007
v 38.6667 1.4534 -26.6667
vn 0.0028 1 -0.0007
v 38.6667 1.4524 -28
vn 0.0028 1 -0.0007
f 244//244 245//245 246//246
v 38.6667 1.4524 -28
vn 0.0034 1 -0.0007
v 38.6667 1.4534 -26.6667
vn 0.0034 1 -0.0007
v 40 1.4489 -26.6667
vn 0.0034 1 -0.0007
f 247//247 248//248 249//249
v 38.6667 1.4524 -28
vn 0.0021 1 0.0006
v 40 1.4489 -26.6667
vn 0.0021 1 0.0006
v 40 1.4496 -28
vn 0.0021 1 0.0006
f 250//250 251//251 252//252
v 40 1.4496 -28
vn 0.0042 1 0.0006
v 40 1.4489 -26.6667
vn 0.0042 1 0.0006
v 41.3333 1.4432 -26.6667
vn 0.0042 1 0.0006
f 253//253 254//254 255//255
v 40 1.4496 -28
vn 0.0044 1 0.0004
v 41.3333 1.4432 -26.6667
vn 0.0044 1 0.0004
v 41.3333 1.4437 -28
vn 0.0044 1 0.0004
f 256//256 257//257 258//258
v 41.3333 1.4437 -28
vn 0.0065 1 0.0004
v 41.3333 1.4432 -26.6667
vn 0.0065 1 0.0004
v 42.6667 1.4345 -26.6667
vn 0.0065 1 0.0004
f 259//259 260//260 261//261
v 41.3333 1.4437 -28
vn 0.0075 1 -0.0006
v 42.6667 1.4345 -26.6667
vn 0.0075 1 -0.0006
v 42.6667 1.4337 -28
vn 0.0075 1 -0.0006
f 262//262 263//263 264//264
v 42.6667 1.4337 -28
vn 0.0074 1 -0.0006
v 42.6667 1.4345 -26.6667
vn 0.0074 1 -0.0006
v 44 1.4247 -26.6667
vn 0.0074 1 -0.0006
f 265//265 266//266 267//267
v 42.6667 1.4337 -28
vn 0.0062 1 0.0006
v 44 1.4247 -26.6667
vn 0.0062 1 0.0006
v 44 1.4255 -28
vn 0.0062 1 0.0006
f 268//268 269//269 270//270
v 44 1.4255 -28
vn 0.0138 0.9999 0.0006
v 44 1.4247 -26.6667
vn 0.0138 0.9999 0.0006
v 45.3333 1.4063 -26.6667
vn 0.0138 0.9999 0.0006
f 271//271 272//272 273//273
v 44 1.4255 -28
vn 0.0166 0.9999 -0.0022
v 45.3333 1.4063 -26.6667
vn 0.0166 0.9999 -0.0022
v 45.3333 1.4033 -28
vn 0.0166 0.9999 -0.0022
f 274//274 275//275 276//276
v 45.3333 1.4033 -28
vn 0.0365 0.9993 -0.0022
v 45.3333 1.4063 -26.6667
vn 0.0365 0.9993 -0.0022
v 46.6667 1.3577 -26.6667
vn 0.0365 0.9993 -0.0022
f 277//277 278//278 279//279
v 45.3333 1.4033 -28
vn 0.0352 0.9994 -0.001
v 46.6667 1.3577 -26.6667
vn 0.0352 0.9994 -0.001
v 46.6667 1.3563 -28
vn 0.0352 0.9994 -0.001
f 280//280 281//281 282//282
v 46.6667 1.3563 -28
vn 0.017 0.9999 -0.001
v 46.6667 1.3577 -26.6667
vn 0.017 0.9999 -0.001
v 48 1.3351 -26.6667
vn 0.017 0.9999 -0.001
f 283//283 284//284 285//285
v 46.6667 1.3563 -28
vn 0.0147 0.9999 0.0012
v 48 1.3351 -26.6667
vn 0.0147 0.9999 0.0012
v 48 1.3367 -28
vn 0.0147 0.9999 0.0012
f 286//286 287//287 288//288
v 32 1.48 -26.6667
vn 0.0065 1 -0.0003
v 32 1.4804 -25.3333
vn 0.0065 1 -0.0003
v 33.3333 1.4718 -25.3333
vn 0.0065 1 -0.0003
f 289//289 290//290 291//291
v 32 1.48 -26.6667
vn 0.0063 1 -0.0001
v 33.3333 1.4718 -25.3333
vn 0.0063 1 -0.0001
v 33.3333 1.4717 -26.6667
vn 0.0063 1 -0.0001
f 292//292 293//293 294//294
v 33.3333 1.4717 -26.6667
vn 0.0146 0.9999 -0.0001
v 33.3333 1.4718 -25.3333
vn 0.0146 0.9999 -0.0001
v 34.6667 1.4524 -25.3333
vn 0.0146 0.9999 -0.0001
f 295//295 296//296 297//297
v 33.3333 1.4717 -26.6667
vn 0.0142 0.9999 0.0002
v 34.6667 1.4524 -25.3333
vn 0.0142 0.9999 0.0002
v 34.6667 1.4527 -26.6667
vn 0.0142 0.9999 0.0002
f 298//298 299//299 300//300
v 34.6667 1.4527 -26.6667
vn -0.0003 1 0.0002
v 34.6667 1.4524 -25.3333
vn -0.0003 1 0.0002
v 36 1.4528 -25.3333
vn -0.0003 1 0.0002
f 301//301 302//302 303//303
v 34.6667 1.4527 -26.6667
vn -0.0004 1 0.0003
v 36 1.4528 -25.3333
vn -0.0004 1 0.0003
v 36 1.4532 -26.6667
vn -0.0004 1 0.0003
f 304//304 305//305 306//306
v 36 1.4532 -26.6667
vn -0.0003 1 0.0003
v 36 1.4528 -25.3333
vn -0.0003 1 0.0003
v 37.3333 1.4532 -25.3333
vn -0.0003 1 0.0003
f 307//307 308//308 309//309
v 36 1.4532 -26.6667
vn -0.0006 1 0.0006
v 37.3333 1.4532 -25.3333
vn -0.0006 1 0.0006
v 37.3333 1.454 -26.6667
vn -0.0006 1 0.0006
f 310//310 311//311 312//312
v 37.3333 1.454 -26.6667
vn -0 1 0.0006
v 37.3333 1.4532 -25.3333
vn -0 1 0.0006
v 38.6667 1.4533 -25.3333
vn -0 1 0.0006
f 313//313 314//314 315//315
v 37.3333 1.454 -26.6667
vn 0.0005 1 0.0001
v 38.6667 1.4533 -25.3333
vn 0.0005 1 0.0001
v 38.6667 1.4534 -26.6667
vn 0.0005 1 0.0001
f 316//316 317//317 318//318
v 38.6667 1.4534 -26.6667
vn 0.0036 1 0.0001
v 38.6667 1.4533 -25.3333
vn 0.0036 1 0.0001
v 40 1.4485 -25.3333
vn 0.0036 1 0.0001
f 319//319 320//320 321//321
v 38.6667 1.4534 -26.6667
vn 0.0034 1 0.0003
v 40 1.4485 -25.3333
vn 0.0034 1 0.0003
v 40 1.4489 -26.6667
vn 0.0034 1 0.0003
f 322//322 323//323 324//324
v 40 1.4489 -26.6667
vn 0.0045 1 0.0003
v 40 1.4485 -25.3333
vn 0.0045 1 0.0003
v 41.3333 1.4425 -25.3333
vn 0.0045 1 0.0003
f 325//325 326//326 327//327
v 40 1.4489 -26.6667
vn 0.0042 1 0.0005
v 41.3333 1.4425 -25.3333
vn 0.0042 1 0.0005
v 41.3333 1.4432 -26.6667
vn 0.0042 1 0.0005
f 328//328 329//329 330//330
v 41.3333 1.4432 -26.6667
vn 0.0068 1 0.0005
v 41.3333 1.4425 -25.3333
vn 0.0068 1 0.0005
v 42.6667 1.4335 -25.3333
vn 0.0068 1 0.0005
f 331//331 332//332 333//333
v 41.3333 1.4432 -26.6667
vn 0.0065 1 0.0008
v 42.6667 1.4335 -25.3333
vn 0.0065 1 0.0008
v 42.6667 1.4345 -26.6667
vn 0.0065 1 0.0008
f 334//334 335//335 336//336
v 42.6667 1.4345 -26.6667
vn 0.0075 1 0.0008
v 42.6667 1.4335 -25.3333
vn 0.0075 1 0.0008
v 44 1.4235 -25.3333
vn 0.0075 1 0.0008
f 337//337 338//338 339//339
v 42.6667 1.4345 -26.6667
vn 0.0074 1 0.0009
v 44 1.4235 -25.3333
vn 0.0074 1 0.0009
v 44 1.4247 -26.6667
vn 0.0074 1 0.0009
f 340//340 341//341 342//342
v 44 1.4247 -26.6667
vn 0.013 0.9999 0.0009
v 44 1.4235 -25.3333
vn 0.013 0.9999 0.0009
v 45.3333 1.4062 -25.3333
vn 0.013 0.9999 0.0009
f 343//343 344//344 345//345
v 44 1.4247 -26.6667
vn 0.0138 0.9999 0.0001
v 45.3333 1.4062 -25.3333
vn 0.0138 0.9999 0.0001
v 45.3333 1.4063 -26.6667
vn 0.0138 0.9999 0.0001
f 346//346 347//347 348//348
v 45.3333 1.4063 -26.6667
vn 0.035 0.9994 0.0001
v 45.3333 1.4062 -25.3333
vn 0.035 0.9994 0.0001
v 46.6667 1.3595 -25.3333
vn 0.035 0.9994 0.0001
f 349//349 350//350 351//351
v 45.3333 1.4063 -26.6667
vn 0.0365 0.9993 -0.0014
v 46.6667 1.3595 -25.3333
vn 0.0365 0.9993 -0.0014
v 46.6667 1.3577 -26.6667
vn 0.0365 0.9993 -0.0014
f 352//352 353//353 354//354
v 46.6667 1.3577 -26.6667
vn 0.0172 0.9999 -0.0014
v 46.6667 1.3595 -25.3333
vn 0.0172 0.9999 -0.0014
v 48 1.3366 -25.3333
vn 0.0172 0.9999 -0.0014
f 355//355 356//356 357//357
v 46.6667 1.3577 -26.6667
vn 0.017 0.9999 -0.0012
v 48 1.3366 -25.3333
vn 0.017 0.9999 -0.0012
v 48 1.3351 -26.6667
vn 0.017 0.9999 -0.0012
f 358//358 359//359 360//360
v 32 1.4804 -25.3333
vn 0.0064 1 0.0005
v 32 1.4797 -24
vn 0.0064 1 0.0005
v 33.3333 1.4712 -24
vn 0.0064 1 0.0005
f 361//361 362//362 363//363
v 32 1.4804 -25.3333
vn 0.0065 1 0.0004
v 33.3333 1.4712 -24
vn 0.0065 1 0.0004
v 33.3333 1.4718 -25.3333
vn 0.0065 1 0.0004
f 364//364 365//365 366//366
v 33.3333 1.4718 -25.3333
vn 0.0143 0.9999 0.0004
v 33.3333 1.4712 -24
vn 0.0143 0.9999 0.0004
v 34.6667 1.4521 -24
vn 0.0143 0.9999 0.0004
f 367//367 368//368 369//369
v 33.3333 1.4718 -25.3333
vn 0.0146 0.9999 0.0002
v 34.6667 1.4521 -24
vn 0.0146 0.9999 0.0002
v 34.6667 1.4524 -25.3333
vn 0.0146 0.9999 0.0002
f 370//370 371//371 372//372
v 34.6667 1.4524 -25.3333
vn -0.0009 1 0.0002
v 34.6667 1.4521 -24
vn -0.0009 1 0.0002
v 36 1.4533 -24
vn -0.0009 1 0.0002
f 373//373 374//374 375//375
v 34.6667 1.4524 -25.3333
vn -0.0003 1 -0.0004
v 36 1.4533 -24
vn -0.0003 1 -0.0004
v 36 1.4528 -25.3333
vn -0.0003 1 -0.0004
f 376//376 377//377 378//378
v 36 1.4528 -25.3333
vn -0.0004 1 -0.0004
v 36 1.4533 -24
vn -0.0004 1 -0.0004
v 37.3333 1.4538 -24
vn -0.0004 1 -0.0004
f 379//379 380//380 381//381
v 36 1.4528 -25.3333
vn -0.0003 1 -0.0004
v 37.3333 1.4538 -24
vn -0.0003 1 -0.0004
v 37.3333 1.4532 -25.3333
vn -0.0003 1 -0.0004
f 382//382 383//383 384//384
v 37.3333 1.4532 -25.3333
vn 0.0009 1 -0.0004
v 37.3333 1.4538 -24
vn 0.0009 1 -0.0004
v 38.6667 1.4525 -24
vn 0.0009 1 -0.0004
f 385//385 386//386 387//387
v 37.3333 1.4532 -25.3333
vn -0 1 0.0005
v 38.6667 1.4525 -24
vn -0 1 0.0005
v 38.6667 1.4533 -25.3333
vn -0 1 0.0005
f 388//388 389//389 390//390
v 38.6667 1.4533 -25.3333
vn 0.0038 1 0.0005
v 38.6667 1.4525 -24
vn 0.0038 1 0.0005
v 40 1.4474 -24
vn 0.0038 1 0.0005
f 391//391 392//392 393//393
v 38.6667 1.4533 -25.3333
vn 0.0036 1 0.0008
v 40 1.4474 -24
vn 0.0036 1 0.0008
v 40 1.4485 -25.3333
vn 0.0036 1 0.0008
f 394//394 395//395 396//396
v 40 1.4485 -25.3333
vn 0.0046 1 0.0008
v 40 1.4474 -24
vn 0.0046 1 0.0008
v 41.3333 1.4412 -24
vn 0.0046 1 0.0008
f 397//397 398//398 399//399
v 40 1.4485 -25.3333
vn 0.0045 1 0.001
v 41.3333 1.4412 -24
vn 0.0045 1 0.001
v 41.3333 1.4425 -25.3333
vn 0.0045 1 0.001
f 400//400 401//401 402//402
v 41.3333 1.4425 -25.3333
vn 0.0068 1 0.001
v 41.3333 1.4412 -24
vn 0.0068 1 0.001
v 42.6667 1.4322 -24
vn 0.0068 1 0.001
f 403//403 404//404 405//405
v 41.3333 1.4425 -25.3333
vn 0.0068 1 0.001
v 42.6667 1.4322 -24
vn 0.0068 1 0.001
v 42.6667 1.4335 -25.3333
vn 0.0068 1 0.001
f 406//406 407//407 408//408
v 42.6667 1.4335 -25.3333
vn 0.0073 1 0.001
v 42.6667 1.4322 -24
vn 0.0073 1 0.001
v 44 1.4224 -24
vn 0.0073 1 0.001
f 409//409 410//410 411//411
v 42.6667 1.4335 -25.3333
vn 0.0075 1 0.0008
v 44 1.4224 -24
vn 0.0075 1 0.0008
v 44 1.4235 -25.3333
vn 0.0075 1 0.0008
f 412//412 413//413 414//414
v 44 1.4235 -25.3333
vn 0.013 0.9999 0.0008
v 44 1.4224 -24
vn 0.013 0.9999 0.0008
v 45.3333 1.4051 -24
vn 0.013 0.9999 0.0008
f 415//415 416//416 417//417
v 44 1.4235 -25.3333
vn 0.013 0.9999 0.0008
v 45.3333 1.4051 -24
vn 0.013 0.9999 0.0008
v 45.3333 1.4062 -25.3333
vn 0.013 0.9999 0.0008
f 418//418 419//419 420//420
v 45.3333 1.4062 -25.3333
vn 0.0342 0.9994 0.0008
v 45.3333 1.4051 -24
vn 0.0342 0.9994 0.0008
v 46.6667 1.3595 -24
vn 0.0342 0.9994 0.0008
f 421//421 422//422 423//423
v 45.3333 1.4062 -25.3333
vn 0.035 0.9994 0
v 46.6667 1.3595 -24
vn 0.035 0.9994 0
v 46.6667 1.3595 -25.3333
vn 0.035 0.9994 0
f 424//424 425//425 426//426
v 46.6667 1.3595 -25.3333
vn 0.017 0.9999 0
v 46.6667 1.3595 -24
vn 0.017 0.9999 0
v 48 1.3368 -24
vn 0.017 0.9999 0
f 427//427 428//428 429//429
v 46.6667 1.3595 -25.3333
vn 0.0172 0.9999 -0.0002
v 48 1.3368 -24
vn 0.0172 0.9999 -0.0002
v 48 1.3366 -25.3333
vn 0.0172 0.9999 -0.0002
f 430//430 431//431 432//432
v 32 1.4797 -24
vn 0.0058 1 0.0026
v 32 1.4763 -22.6667
vn 0.0058 1 0.0026
v 33.3333 1.4685 -22.6667
vn 0.0058 1 0.0026
f 433//433 434//434 435//435
v 32 1.4797 -24
vn 0.0064 1 0.002
v 33.3333 1.4685 -22.6667
vn 0.0064 1 0.002
v 33.3333 1.4712 -24
vn 0.0064 1 0.002
f 436//436 437//437 438//438
v 33.3333 1.4712 -24
vn 0.0136 0.9999 0.002
v 33.3333 1.4685 -22.6667
vn 0.0136 0.9999 0.002
v 34.6667 1.4505 -22.6667
vn 0.0136 0.9999 0.002
f 439//439 440//440 441//441
v 33.3333 1.4712 -24
vn 0.0143 0.9999 0.0013
v 34.6667 1.4505 -22.6667
vn 0.0143 0.9999 0.0013
v 34.6667 1.4521 -24
vn 0.0143 0.9999 0.0013
f 442//442 443//443 444//444
v 34.6667 1.4521 -24
vn -0.0015 1 0.0013
v 34.6667 1.4505 -22.6667
vn -0.0015 1 0.0013
v 36 1.4524 -22.6667
vn -0.0015 1 0.0013
f 445//445 446//446 447//447
v 34.6667 1.4521 -24
vn -0.0009 1 0.0006
v 36 1.4524 -22.6667
vn -0.0009 1 0.0006
v 36 1.4533 -24
vn -0.0009 1 0.0006
f 448//448 449//449 450//450
v 36 1.4533 -24
vn -0.0008 1 0.0006
v 36 1.4524 -22.6667
vn -0.0008 1 0.0006
v 37.3333 1.4535 -22.6667
vn -0.0008 1 0.0006
f 451//451 452//452 453//453
v 36 1.4533 -24
vn -0.0004 1 0.0002
v 37.3333 1.4535 -22.6667
vn -0.0004 1 0.0002
v 37.3333 1.4538 -24
vn -0.0004 1 0.0002
f 454//454 455//455 456//456
v 37.3333 1.4538 -24
vn 0.0011 1 0.0002
v 37.3333 1.4535 -22.6667
vn 0.0011 1 0.0002
v 38.6667 1.4519 -22.6667
vn 0.0011 1 0.0002
f 457//457 458//458 459//459
v 37.3333 1.4538 -24
vn 0.0009 1 0.0005
v 38.6667 1.4519 -22.6667
vn 0.0009 1 0.0005
v 38.6667 1.4525 -24
vn 0.0009 1 0.0005
f 460//460 461//461 462//462
v 38.6667 1.4525 -24
vn 0.004 1 0.0005
v 38.6667 1.4519 -22.6667
vn 0.004 1 0.0005
v 40 1.4466 -22.6667
vn 0.004 1 0.0005
f 463//463 464//464 465//465
v 38.6667 1.4525 -24
vn 0.0038 1 0.0006
v 40 1.4466 -22.6667
vn 0.0038 1 0.0006
v 40 1.4474 -24
vn 0.0038 1 0.0006
f 466//466 467//467 468//468
v 40 1.4474 -24
vn 0.0052 1 0.0006
v 40 1.4466 -22.6667
vn 0.0052 1 0.0006
v 41.3333 1.4396 -22.6667
vn 0.0052 1 0.0006
f 469//469 470//470 471//471
v 40 1.4474 -24
vn 0.0046 1 0.0012
v 41.3333 1.4396 -22.6667
vn 0.0046 1 0.0012
v 41.3333 1.4412 -24
vn 0.0046 1 0.0012
f 472//472 473//473 474//474
v 41.3333 1.4412 -24
vn 0.0074 1 0.0012
v 41.3333 1.4396 -22.6667
vn 0.0074 1 0.0012
v 42.6667 1.4297 -22.6667
vn 0.0074 1 0.0012
f 475//475 476//476 477//477
v 41.3333 1.4412 -24
vn 0.0068 1 0.0018
v 42.6667 1.4297 -22.6667
vn 0.0068 1 0.0018
v 42.6667 1.4322 -24
vn 0.0068 1 0.0018
f 478//478 479//479 480//480
v 42.6667 1.4322 -24
vn 0.0076 1 0.0018
v 42.6667 1.4297 -22.6667
vn 0.0076 1 0.0018
v 44 1.4196 -22.6667
vn 0.0076 1 0.0018
f 481//481 482//482 483//483
v 42.6667 1.4322 -24
vn 0.0073 1 0.0021
v 44 1.4196 -22.6667
vn 0.0073 1 0.0021
v 44 1.4224 -24
vn 0.0073 1 0.0021
f 484//484 485//485 486//486
v 44 1.4224 -24
vn 0.0129 0.9999 0.0021
v 44 1.4196 -22.6667
vn 0.0129 0.9999 0.0021
v 45.3333 1.4024 -22.6667
vn 0.0129 0.9999 0.0021
f 487//487 488//488 489//489
v 44 1.4224 -24
vn 0.013 0.9999 0.0021
v 45.3333 1.4024 -22.6667
vn 0.013 0.9999 0.0021
v 45.3333 1.4051 -24
vn 0.013 0.9999 0.0021
f 490//490 491//491 492//492
v 45.3333 1.4051 -24
vn 0.0332 0.9994 0.0021
v 45.3333 1.4024 -22.6667
vn 0.0332 0.9994 0.0021
v 46.6667 1.3581 -22.6667
vn 0.0332 0.9994 0.0021
f 493//493 494//494 495//495
v 45.3333 1.4051 -24
vn 0.0342 0.9994 0.0011
v 46.6667 1.3581 -22.6667
vn 0.0342 0.9994 0.0011
v 46.6667 1.3595 -24
vn 0.0342 0.9994 0.0011
f 496//496 497//497 498//498
v 46.6667 1.3595 -24
vn 0.016 0.9999 0.0011
v 46.6667 1.3581 -22.6667
vn 0.016 0.9999 0.0011
v 48 1.3367 -22.6667
vn 0.016 0.9999 0.0011
f 499//499 500//500 501//501
v 46.6667 1.3595 -24
vn 0.017 0.9999 0.0001
v 48 1.3367 -22.6667
vn 0.017 0.9999 0.0001
v 48 1.3368 -24
vn 0.017 0.9999 0.0001
f 502//502 503//503 504//504
v 32 1.4763 -22.6667
vn 0.0048 1 0.005
v 32 1.4697 -21.3333
vn 0.0048 1 0.005
v 33.3333 1.4633 -21.3333
vn 0.0048 1 0.005
f 505//505 506//506 507//507
v 32 1.4763 -22.6667
vn 0.0058 1 0.0039
v 33.3333 1.4633 -21.3333
vn 0.0058 1 0.0039
v 33.3333 1.4685 -22.6667
vn 0.0058 1 0.0039
f 508//508 509//509 510//510
v 33.3333 1.4685 -22.6667
vn 0.0093 0.9999 0.0039
v 33.3333 1.4633 -21.3333
vn 0.0093 0.9999 0.0039
v 34.6667 1.4509 -21.3333
vn 0.0093 0.9999 0.0039
f 511//511 512//512 513//513
v 33.3333 1.4685 -22.6667
vn 0.0136 0.9999 -0.0003
v 34.6667 1.4509 -21.3333
vn 0.0136 0.9999 -0.0003
v 34.6667 1.4505 -22.6667
vn 0.0136 0.9999 -0.0003
f 514//514 515//515 516//516
v 34.6667 1.4505 -22.6667
vn -0.0016 1 -0.0003
v 34.6667 1.4509 -21.3333
vn -0.0016 1 -0.0003
v 36 1.4531 -21.3333
vn -0.0016 1 -0.0003
f 517//517 518//518 519//519
v 34.6667 1.4505 -22.6667
vn -0.0015 1 -0.0005
v 36 1.4531 -21.3333
vn -0.0015 1 -0.0005
v 36 1.4524 -22.6667
vn -0.0015 1 -0.0005
f 520//520 521//521 522//522
v 36 1.4524 -22.6667
vn -0.0008 1 -0.0005
v 36 1.4531 -21.3333
vn -0.0008 1 -0.0005
v 37.3333 1.4542 -21.3333
vn -0.0008 1 -0.0005
f 523//523 524//524 525//525
v 36 1.4524 -22.6667
vn -0.0008 1 -0.0005
v 37.3333 1.4542 -21.3333
vn -0.0008 1 -0.0005
v 37.3333 1.4535 -22.6667
vn -0.0008 1 -0.0005
f 526//526 527//527 528//528
v 37.3333 1.4535 -22.6667
vn 0.0014 1 -0.0005
v 37.3333 1.4542 -21.3333
vn 0.0014 1 -0.0005
v 38.6667 1.4524 -21.3333
vn 0.0014 1 -0.0005
f 529//529 530//530 531//531
v 37.3333 1.4535 -22.6667
vn 0.0011 1 -0.0003
v 38.6667 1.4524 -21.3333
vn 0.0011 1 -0.0003
v 38.6667 1.4519 -22.6667
vn 0.0011 1 -0.0003
f 532//532 533//533 534//534
v 38.6667 1.4519 -22.6667
vn 0.0048 1 -0.0003
v 38.6667 1.4524 -21.3333
vn 0.0048 1 -0.0003
v 40 1.4459 -21.3333
vn 0.0048 1 -0.0003
f 535//535 536//536 537//537
v 38.6667 1.4519 -22.6667
vn 0.004 1 0.0005
v 40 1.4459 -21.3333
vn 0.004 1 0.0005
v 40 1.4466 -22.6667
vn 0.004 1 0.0005
f 538//538 539//539 540//540
v 40 1.4466 -22.6667
vn 0.0065 1 0.0005
v 40 1.4459 -21.3333
vn 0.0065 1 0.0005
v 41.3333 1.4372 -21.3333
vn 0.0065 1 0.0005
f 541//541 542//542 543//543
v 40 1.4466 -22.6667
vn 0.0052 1 0.0018
v 41.3333 1.4372 -21.3333
vn 0.0052 1 0.0018
v 41.3333 1.4396 -22.6667
vn 0.0052 1 0.0018
f 544//544 545//545 546//546
v 41.3333 1.4396 -22.6667
vn 0.0085 1 0.0018
v 41.3333 1.4372 -21.3333
vn 0.0085 1 0.0018
v 42.6667 1.4258 -21.3333
vn 0.0085 1 0.0018
f 547//547 548//548 549//549
v 41.3333 1.4396 -22.6667
vn 0.0074 1 0.0029
v 42.6667 1.4258 -21.3333
vn 0.0074 1 0.0029
v 42.6667 1.4297 -22.6667
vn 0.0074 1 0.0029
f 550//550 551//551 552//552
v 42.6667 1.4297 -22.6667
vn 0.0086 1 0.0029
v 42.6667 1.4258 -21.3333
vn 0.0086 1 0.0029
v 44 1.4143 -21.3333
vn 0.0086 1 0.0029
f 553//553 554//554 555//555
v 42.6667 1.4297 -22.6667
vn 0.0076 1 0.004
v 44 1.4143 -21.3333
vn 0.0076 1 0.004
v 44 1.4196 -22.6667
vn 0.0076 1 0.004
f 556//556 557//557 558//558
v 44 1.4196 -22.6667
vn 0.0136 0.9999 0.004
v 44 1.4143 -21.3333
vn 0.0136 0.9999 0.004
v 45.3333 1.3961 -21.3333
vn 0.0136 0.9999 0.004
f 559//559 560//560 561//561
v 44 1.4196 -22.6667
vn 0.0129 0.9999 0.0047
v 45.3333 1.3961 -21.3333
vn 0.0129 0.9999 0.0047
v 45.3333 1.4024 -22.6667
vn 0.0129 0.9999 0.0047
f 562//562 563//563 564//564
v 45.3333 1.4024 -22.6667
vn 0.029 0.9996 0.0047
v 45.3333 1.3961 -21.3333
vn 0.029 0.9996 0.0047
v 46.6667 1.3574 -21.3333
vn 0.029 0.9996 0.0047
f 565//565 566//566 567//567
v 45.3333 1.4024 -22.6667
vn 0.0332 0.9994 0.0005
v 46.6667 1.3574 -21.3333
vn 0.0332 0.9994 0.0005
v 46.6667 1.3581 -22.6667
vn 0.0332 0.9994 0.0005
f 568//568 569//569 570//570
v 46.6667 1.3581 -22.6667
vn 0.015 0.9999 0.0005
v 46.6667 1.3574 -21.3333
vn 0.015 0.9999 0.0005
v 48 1.3373 -21.3333
vn 0.015 0.9999 0.0005
f 571//571 572//572 573//573
v 46.6667 1.3581 -22.6667
vn 0.016 0.9999 -0.0004
v 48 1.3373 -21.3333
vn 0.016 0.9999 -0.0004
v 48 1.3367 -22.6667
vn 0.016 0.9999 -0.0004
f 574//574 575//575 576//576
v 32 1.4697 -21.3333
vn 0.0067 1 0.0051
v 32 1.4629 -20
vn 0.0067 1 0.0051
v 33.3333 1.454 -20
vn 0.0067 1 0.0051
f 577//577 578//578 579//579
v 32 1.4697 -21.3333
vn 0.0048 1 0.007
v 33.3333 1.454 -20
vn 0.0048 1 0.007
v 33.3333 1.4633 -21.3333
vn 0.0048 1 0.007
f 580//580 581//581 582//582
v 33.3333 1.4633 -21.3333
vn 0.0011 1 0.007
v 33.3333 1.454 -20
vn 0.0011 1 0.007
v 34.6667 1.4526 -20
vn 0.0011 1 0.007
f 583//583 584//584 585//585
v 33.3333 1.4633 -21.3333
vn 0.0093 1 -0.0013
v 34.6667 1.4526 -20
vn 0.0093 1 -0.0013
v 34.6667 1.4509 -21.3333
vn 0.0093 1 -0.0013
f 586//586 587//587 588//588
v 34.6667 1.4509 -21.3333
vn -0.002 1 -0.0013
v 34.6667 1.4526 -20
vn -0.002 1 -0.0013
v 36 1.4552 -20
vn -0.002 1 -0.0013
f 589//589 590//590 591//591
v 34.6667 1.4509 -21.3333
vn -0.0016 1 -0.0016
v 36 1.4552 -20
vn -0.0016 1 -0.0016
v 36 1.4531 -21.3333
vn -0.0016 1 -0.0016
f 592//592 593//593 594//594
v 36 1.4531 -21.3333
vn -0.0008 1 -0.0016
v 36 1.4552 -20
vn -0.0008 1 -0.0016
v 37.3333 1.4563 -20
vn -0.0008 1 -0.0016
f 595//595 596//596 597//597
v 36 1.4531 -21.3333
vn -0.0008 1 -0.0016
v 37.3333 1.4563 -20
vn -0.0008 1 -0.0016
v 37.3333 1.4542 -21.3333
vn -0.0008 1 -0.0016
f 598//598 599//599 600//600
v 37.3333 1.4542 -21.3333
vn 0.0017 1 -0.0016
v 37.3333 1.4563 -20
vn 0.0017 1 -0.0016
v 38.6667 1.454 -20
vn 0.0017 1 -0.0016
f 601//601 602//602 603//603
v 37.3333 1.4542 -21.3333
vn 0.0014 1 -0.0013
v 38.6667 1.454 -20
vn 0.0014 1 -0.0013
v 38.6667 1.4524 -21.3333
vn 0.0014 1 -0.0013
f 604//604 605//605 606//606
v 38.6667 1.4524 -21.3333
vn 0.0051 1 -0.0013
v 38.6667 1.454 -20
vn 0.0051 1 -0.0013
v 40 1.4472 -20
vn 0.0051 1 -0.0013
f 607//607 608//608 609//609
v 38.6667 1.4524 -21.3333
vn 0.0048 1 -0.001
v 40 1.4472 -20
vn 0.0048 1 -0.001
v 40 1.4459 -21.3333
vn 0.0048 1 -0.001
f 610//610 611//611 612//612
v 40 1.4459 -21.3333
vn 0.008 1 -0.001
v 40 1.4472 -20
vn 0.008 1 -0.001
v 41.3333 1.4365 -20
vn 0.008 1 -0.001
f 613//613 614//614 615//615
v 40 1.4459 -21.3333
vn 0.0065 1 0.0005
v 41.3333 1.4365 -20
vn 0.0065 1 0.0005
v 41.3333 1.4372 -21.3333
vn 0.0065 1 0.0005
f 616//616 617//617 618//618
v 41.3333 1.4372 -21.3333
vn 0.0091 1 0.0005
v 41.3333 1.4365 -20
vn 0.0091 1 0.0005
v 42.6667 1.4244 -20
vn 0.0091 1 0.0005
f 619//619 620//620 621//621
v 41.3333 1.4372 -21.3333
vn 0.0085 1 0.001
v 42.6667 1.4244 -20
vn 0.0085 1 0.001
v 42.6667 1.4258 -21.3333
vn 0.0085 1 0.001
f 622//622 623//623 624//624
v 42.6667 1.4258 -21.3333
vn 0.0099 1 0.001
v 42.6667 1.4244 -20
vn 0.0099 1 0.001
v 44 1.4111 -20
vn 0.0099 1 0.001
f 625//625 626//626 627//627
v 42.6667 1.4258 -21.3333
vn 0.0086 1 0.0024
v 44 1.4111 -20
vn 0.0086 1 0.0024
v 44 1.4143 -21.3333
vn 0.0086 1 0.0024
f 628//628 629//629 630//630
v 44 1.4143 -21.3333
vn 0.0193 0.9998 0.0024
v 44 1.4111 -20
vn 0.0193 0.9998 0.0024
v 45.3333 1.3855 -20
vn 0.0193 0.9998 0.0024
f 631//631 632//632 633//633
v 44 1.4143 -21.3333
vn 0.0136 0.9999 0.008
v 45.3333 1.3855 -20
vn 0.0136 0.9999 0.008
v 45.3333 1.3961 -21.3333
vn 0.0136 0.9999 0.008
f 634//634 635//635 636//636
v 45.3333 1.3961 -21.3333
vn 0.0235 0.9997 0.008
v 45.3333 1.3855 -20
vn 0.0235 0.9997 0.008
v 46.6667 1.3542 -20
vn 0.0235 0.9997 0.008
f 637//637 638//638 639//639
v 45.3333 1.3961 -21.3333
vn 0.029 0.9996 0.0024
v 46.6667 1.3542 -20
vn 0.029 0.9996 0.0024
v 46.6667 1.3574 -21.3333
vn 0.029 0.9996 0.0024
f 640//640 641//641 642//642
v 46.6667 1.3574 -21.3333
vn 0.0143 0.9999 0.0024
v 46.6667 1.3542 -20
vn 0.0143 0.9999 0.0024
v 48 1.3351 -20
vn 0.0143 0.9999 0.0024
f 643//643 644//644 645//645
v 46.6667 1.3574 -21.3333
vn 0.015 0.9999 0.0017
v 48 1.3351 -20
vn 0.015 0.9999 0.0017
v 48 1.3373 -21.3333
vn 0.015 0.9999 0.0017
f 646//646 647//647 648//648
v 32 1.4629 -20
vn 0.0093 1 -0.001
v 32 1.4642 -18.6667
vn 0.0093 1 -0.001
v 33.3333 1.4518 -18.6667
vn 0.0093 1 -0.001
f 649//649 650//650 651//651
v 32 1.4629 -20
vn 0.0067 1 0.0016
v 33.3333 1.4518 -18.6667
vn 0.0067 1 0.0016
v 33.3333 1.454 -20
vn 0.0067 1 0.0016
f 652//652 653//653 654//654
v 33.3333 1.454 -20
vn 0.0018 1 0.0016
v 33.3333 1.4518 -18.6667
vn 0.0018 1 0.0016
v 34.6667 1.4494 -18.6667
vn 0.0018 1 0.0016
f 655//655 656//656 657//657
v 33.3333 1.454 -20
vn 0.0011 1 0.0024
v 34.6667 1.4494 -18.6667
vn 0.0011 1 0.0024
v 34.6667 1.4526 -20
vn 0.0011 1 0.0024
f 658//658 659//659 660//660
v 34.6667 1.4526 -20
vn -0.0035 1 0.0024
v 34.6667 1.4494 -18.6667
vn -0.0035 1 0.0024
v 36 1.4541 -18.6667
vn -0.0035 1 0.0024
f 661//661 662//662 663//663
v 34.6667 1.4526 -20
vn -0.002 1 0.0008
v 36 1.4541 -18.6667
vn -0.002 1 0.0008
v 36 1.4552 -20
vn -0.002 1 0.0008
f 664//664 665//665 666//666
v 36 1.4552 -20
vn -0.0017 1 0.0008
v 36 1.4541 -18.6667
vn -0.0017 1 0.0008
v 37.3333 1.4564 -18.6667
vn -0.0017 1 0.0008
f 667//667 668//668 669//669
v 36 1.4552 -20
vn -0.0008 1 -0.0001
v 37.3333 1.4564 -18.6667
vn -0.0008 1 -0.0001
v 37.3333 1.4563 -20
vn -0.0008 1 -0.0001
f 670//670 671//671 672//672
v 37.3333 1.4563 -20
vn 0.0025 1 -0.0001
v 37.3333 1.4564 -18.6667
vn 0.0025 1 -0.0001
v 38.6667 1.453 -18.6667
vn 0.0025 1 -0.0001
f 673//673 674//674 675//675
v 37.3333 1.4563 -20
vn 0.0017 1 0.0007
v 38.6667 1.453 -18.6667
vn 0.0017 1 0.0007
v 38.6667 1.454 -20
vn 0.0017 1 0.0007
f 676//676 677//677 678//678
v 38.6667 1.454 -20
vn 0.0046 1 0.0007
v 38.6667 1.453 -18.6667
vn 0.0046 1 0.0007
v 40 1.447 -18.6667
vn 0.0046 1 0.0007
f 679//679 680//680 681//681
v 38.6667 1.454 -20
vn 0.0051 1 0.0002
v 40 1.447 -18.6667
vn 0.0051 1 0.0002
v 40 1.4472 -20
vn 0.0051 1 0.0002
f 682//682 683//683 684//684
v 40 1.4472 -20
vn 0.0079 1 0.0002
v 40 1.447 -18.6667
vn 0.0079 1 0.0002
v 41.3333 1.4364 -18.6667
vn 0.0079 1 0.0002
f 685//685 686//686 687//687
v 40 1.4472 -20
vn 0.008 1 0.0001
v 41.3333 1.4364 -18.6667
vn 0.008 1 0.0001
v 41.3333 1.4365 -20
vn 0.008 1 0.0001
f 688//688 689//689 690//690
v 41.3333 1.4365 -20
vn 0.0083 1 0.0001
v 41.3333 1.4364 -18.6667
vn 0.0083 1 0.0001
v 42.6667 1.4254 -18.6667
vn 0.0083 1 0.0001
f 691//691 692//692 693//693
v 41.3333 1.4365 -20
vn 0.0091 1 -0.0007
v 42.6667 1.4254 -18.6667
vn 0.0091 1 -0.0007
v 42.6667 1.4244 -20
vn 0.0091 1 -0.0007
f 694//694 695//695 696//696
v 42.6667 1.4244 -20
vn 0.0093 1 -0.0007
v 42.6667 1.4254 -18.6667
vn 0.0093 1 -0.0007
v 44 1.413 -18.6667
vn 0.0093 1 -0.0007
f 697//697 698//698 699//699
v 42.6667 1.4244 -20
vn 0.0099 0.9999 -0.0014
v 44 1.413 -18.6667
vn 0.0099 0.9999 -0.0014
v 44 1.4111 -20
vn 0.0099 0.9999 -0.0014
f 700//700 701//701 702//702
v 44 1.4111 -20
vn 0.0221 0.9998 -0.0014
v 44 1.413 -18.6667
vn 0.0221 0.9998 -0.0014
v 45.3333 1.3835 -18.6667
vn 0.0221 0.9998 -0.0014
f 703//703 704//704 705//705
v 44 1.4111 -20
vn 0.0193 0.9998 0.0015
v 45.3333 1.3835 -18.6667
vn 0.0193 0.9998 0.0015
v 45.3333 1.3855 -20
vn 0.0193 0.9998 0.0015
f 706//706 707//707 708//708
v 45.3333 1.3855 -20
vn 0.0253 0.9997 0.0015
v 45.3333 1.3835 -18.6667
vn 0.0253 0.9997 0.0015
v 46.6667 1.3497 -18.6667
vn 0.0253 0.9997 0.0015
f 709//709 710//710 711//711
v 45.3333 1.3855 -20
vn 0.0235 0.9997 0.0033
v 46.6667 1.3497 -18.6667
vn 0.0235 0.9997 0.0033
v 46.6667 1.3542 -20
vn 0.0235 0.9997 0.0033
f 712//712 713//713 714//714
v 46.6667 1.3542 -20
vn 0.0135 0.9999 0.0033
v 46.6667 1.3497 -18.6667
vn 0.0135 0.9999 0.0033
v 48 1.3317 -18.6667
vn 0.0135 0.9999 0.0033
f 715//715 716//716 717//717
v 46.6667 1.3542 -20
vn 0.0143 0.9999 0.0025
v 48 1.3317 -18.6667
vn 0.0143 0.9999 0.0025
v 48 1.3351 -20
vn 0.0143 0.9999 0.0025
f 718//718 719//719 720//720
v 32 1.4642 -18.6667
vn 0.0091 1 0.0005
v 32 1.4636 -17.3333
vn 0.0091 1 0.0005
v 33.3333 1.4515 -17.3333
vn 0.0091 1 0.0005
f 721//721 722//722 723//723
v 32 1.4642 -18.6667
vn 0.0093 1 0.0002
v 33.3333 1.4515 -17.3333
vn 0.0093 1 0.0002
v 33.3333 1.4518 -18.6667
vn 0.0093 1 0.0002
f 724//724 725//725 726//726
v 33.3333 1.4518 -18.6667
vn 0.0018 1 0.0002
v 33.3333 1.4515 -17.3333
vn 0.0018 1 0.0002
v 34.6667 1.4491 -17.3333
vn 0.0018 1 0.0002
f 727//727 728//728 729//729
v 33.3333 1.4518 -18.6667
vn 0.0018 1 0.0002
v 34.6667 1.4491 -17.3333
vn 0.0018 1 0.0002
v 34.6667 1.4494 -18.6667
vn 0.0018 1 0.0002
f 730//730 731//731 732//732
v 34.6667 1.4494 -18.6667
vn -0.0031 1 0.0002
v 34.6667 1.4491 -17.3333
vn -0.0031 1 0.0002
v 36 1.4532 -17.3333
vn -0.0031 1 0.0002
f 733//733 734//734 735//735
v 34.6667 1.4494 -18.6667
vn -0.0035 1 0.0007
v 36 1.4532 -17.3333
vn -0.0035 1 0.0007
v 36 1.4541 -18.6667
vn -0.0035 1 0.0007
f 736//736 737//737 738//738
v 36 1.4541 -18.6667
vn -0.0018 1 0.0007
v 36 1.4532 -17.3333
vn -0.0018 1 0.0007
v 37.3333 1.4555 -17.3333
vn -0.0018 1 0.0007
f 739//739 740//740 741//741
v 36 1.4541 -18.6667
vn -0.0017 1 0.0007
v 37.3333 1.4555 -17.3333
vn -0.0017 1 0.0007
v 37.3333 1.4564 -18.6667
vn -0.0017 1 0.0007
f 742//742 743//743 744//744
v 37.3333 1.4564 -18.6667
vn 0.0023 1 0.0007
v 37.3333 1.4555 -17.3333
vn 0.0023 1 0.0007
v 38.6667 1.4525 -17.3333
vn 0.0023 1 0.0007
f 745//745 746//746 747//747
v 37.3333 1.4564 -18.6667
vn 0.0025 1 0.0004
v 38.6667 1.4525 -17.3333
vn 0.0025 1 0.0004
v 38.6667 1.453 -18.6667
vn 0.0025 1 0.0004
f 748//748 749//749 750//750
v 38.6667 1.453 -18.6667
vn 0.0047 1 0.0004
v 38.6667 1.4525 -17.3333
vn 0.0047 1 0.0004
v 40 1.4463 -17.3333
vn 0.0047 1 0.0004
f 751//751 752//752 753//753
v 38.6667 1.453 -18.6667
vn 0.0046 1 0.0005
v 40 1.4463 -17.3333
vn 0.0046 1 0.0005
v 40 1.447 -18.6667
vn 0.0046 1 0.0005
f 754//754 755//755 756//756
v 40 1.447 -18.6667
vn 0.0079 1 0.0005
v 40 1.4463 -17.3333
vn 0.0079 1 0.0005
v 41.3333 1.4357 -17.3333
vn 0.0079 1 0.0005
f 757//757 758//758 759//759
v 40 1.447 -18.6667
vn 0.0079 1 0.0005
v 41.3333 1.4357 -17.3333
vn 0.0079 1 0.0005
v 41.3333 1.4364 -18.6667
vn 0.0079 1 0.0005
f 760//760 761//761 762//762
v 41.3333 1.4364 -18.6667
vn 0.0084 1 0.0005
v 41.3333 1.4357 -17.3333
vn 0.0084 1 0.0005
v 42.6667 1.4244 -17.3333
vn 0.0084 1 0.0005
f 763//763 764//764 765//765
v 41.3333 1.4364 -18.6667
vn 0.0083 1 0.0007
v 42.6667 1.4244 -17.3333
vn 0.0083 1 0.0007
v 42.6667 1.4254 -18.6667
vn 0.0083 1 0.0007
f 766//766 767//767 768//768
v 42.6667 1.4254 -18.6667
vn 0.0098 1 0.0007
v 42.6667 1.4244 -17.3333
vn 0.0098 1 0.0007
v 44 1.4114 -17.3333
vn 0.0098 1 0.0007
f 769//769 770//770 771//771
v 42.6667 1.4254 -18.6667
vn 0.0093 1 0.0012
v 44 1.4114 -17.3333
vn 0.0093 1 0.0012
v 44 1.413 -18.6667
vn 0.0093 1 0.0012
f 772//772 773//773 774//774
v 44 1.413 -18.6667
vn 0.0214 0.9998 0.0012
v 44 1.4114 -17.3333
vn 0.0214 0.9998 0.0012
v 45.3333 1.3828 -17.3333
vn 0.0214 0.9998 0.0012
f 775//775 776//776 777//777
v 44 1.413 -18.6667
vn 0.0221 0.9998 0.0005
v 45.3333 1.3828 -17.3333
vn 0.0221 0.9998 0.0005
v 45.3333 1.3835 -18.6667
vn 0.0221 0.9998 0.0005
f 778//778 779//779 780//780
v 45.3333 1.3835 -18.6667
vn 0.0242 0.9997 0.0005
v 45.3333 1.3828 -17.3333
vn 0.0242 0.9997 0.0005
v 46.6667 1.3506 -17.3333
vn 0.0242 0.9997 0.0005
f 781//781 782//782 783//783
v 45.3333 1.3835 -18.6667
vn 0.0253 0.9997 -0.0007
v 46.6667 1.3506 -17.3333
vn 0.0253 0.9997 -0.0007
v 46.6667 1.3497 -18.6667
vn 0.0253 0.9997 -0.0007
f 784//784 785//785 786//786
v 46.6667 1.3497 -18.6667
vn 0.0134 0.9999 -0.0007
v 46.6667 1.3506 -17.3333
vn 0.0134 0.9999 -0.0007
v 48 1.3327 -17.3333
vn 0.0134 0.9999 -0.0007
f 787//787 788//788 789//789
v 46.6667 1.3497 -18.6667
vn 0.0135 0.9999 -0.0008
v 48 1.3327 -17.3333
vn 0.0135 0.9999 -0.0008
v 48 1.3317 -18.6667
vn 0.0135 0.9999 -0.0008
f 790//790 791//791 792//792
v 32 1.4636 -17.3333
vn 0.0085 1 0.0014
v 32 1.4617 -16
vn 0.0085 1 0.0014
v 33.3333 1.4504 -16
vn 0.0085 1 0.0014
f 793//793 794//794 795//795
v 32 1.4636 -17.3333
vn 0.0091 1 0.0008
v 33.3333 1.4504 -16
vn 0.0091 1 0.0008
v 33.3333 1.4515 -17.3333
vn 0.0091 1 0.0008
f 796//796 797//797 798//798
v 33.3333 1.4515 -17.3333
vn 0.003 1 0.0008
v 33.3333 1.4504 -16
vn 0.003 1 0.0008
v 34.6667 1.4464 -16
vn 0.003 1 0.0008
f 799//799 800//800 801//801
v 33.3333 1.4515 -17.3333
vn 0.0018 1 0.002
v 34.6667 1.4464 -16
vn 0.0018 1 0.002
v 34.6667 1.4491 -17.3333
vn 0.0018 1 0.002
f 802//802 803//803 804//804
v 34.6667 1.4491 -17.3333
vn -0.0055 1 0.002
v 34.6667 1.4464 -16
vn -0.0055 1 0.002
v 36 1.4538 -16
vn -0.0055 1 0.002
f 805//805 806//806 807//807
v 34.6667 1.4491 -17.3333
vn -0.0031 1 -0.0005
v 36 1.4538 -16
vn -0.0031 1 -0.0005
v 36 1.4532 -17.3333
vn -0.0031 1 -0.0005
f 808//808 809//809 810//810
v 36 1.4532 -17.3333
vn 0.0002 1 -0.0005
v 36 1.4538 -16
vn 0.0002 1 -0.0005
v 37.3333 1.4535 -16
vn 0.0002 1 -0.0005
f 811//811 812//812 813//813
v 36 1.4532 -17.3333
vn -0.0018 1 0.0015
v 37.3333 1.4535 -16
vn -0.0018 1 0.0015
v 37.3333 1.4555 -17.3333
vn -0.0018 1 0.0015
f 814//814 815//815 816//816
v 37.3333 1.4555 -17.3333
vn 0.0003 1 0.0015
v 37.3333 1.4535 -16
vn 0.0003 1 0.0015
v 38.6667 1.4532 -16
vn 0.0003 1 0.0015
f 817//817 818//818 819//819
v 37.3333 1.4555 -17.3333
vn 0.0023 1 -0.0005
v 38.6667 1.4532 -16
vn 0.0023 1 -0.0005
v 38.6667 1.4525 -17.3333
vn 0.0023 1 -0.0005
f 820//820 821//821 822//822
v 38.6667 1.4525 -17.3333
vn 0.0061 1 -0.0005
v 38.6667 1.4532 -16
vn 0.0061 1 -0.0005
v 40 1.4451 -16
vn 0.0061 1 -0.0005
f 823//823 824//824 825//825
v 38.6667 1.4525 -17.3333
vn 0.0047 1 0.0009
v 40 1.4451 -16
vn 0.0047 1 0.0009
v 40 1.4463 -17.3333
vn 0.0047 1 0.0009
f 826//826 827//827 828//828
v 40 1.4463 -17.3333
vn 0.0078 1 0.0009
v 40 1.4451 -16
vn 0.0078 1 0.0009
v 41.3333 1.4346 -16
vn 0.0078 1 0.0009
f 829//829 830//830 831//831
v 40 1.4463 -17.3333
vn 0.0079 1 0.0008
v 41.3333 1.4346 -16
vn 0.0079 1 0.0008
v 41.3333 1.4357 -17.3333
vn 0.0079 1 0.0008
f 832//832 833//833 834//834
v 41.3333 1.4357 -17.3333
vn 0.0075 1 0.0008
v 41.3333 1.4346 -16
vn 0.0075 1 0.0008
v 42.6667 1.4246 -16
vn 0.0075 1 0.0008
f 835//835 836//836 837//837
v 41.3333 1.4357 -17.3333
vn 0.0084 1 -0.0001
v 42.6667 1.4246 -16
vn 0.0084 1 -0.0001
v 42.6667 1.4244 -17.3333
vn 0.0084 1 -0.0001
f 838//838 839//839 840//840
v 42.6667 1.4244 -17.3333
vn 0.0109 0.9999 -0.0001
v 42.6667 1.4246 -16
vn 0.0109 0.9999 -0.0001
v 44 1.4101 -16
vn 0.0109 0.9999 -0.0001
f 841//841 842//842 843//843
v 42.6667 1.4244 -17.3333
vn 0.0098 1 0.0009
v 44 1.4101 -16
vn 0.0098 1 0.0009
v 44 1.4114 -17.3333
vn 0.0098 1 0.0009
f 844//844 845//845 846//846
v 44 1.4114 -17.3333
vn 0.0186 0.9998 0.0009
v 44 1.4101 -16
vn 0.0186 0.9998 0.0009
v 45.3333 1.3853 -16
vn 0.0186 0.9998 0.0009
f 847//847 848//848 849//849
v 44 1.4114 -17.3333
vn 0.0214 0.9998 -0.0018
v 45.3333 1.3853 -16
vn 0.0214 0.9998 -0.0018
v 45.3333 1.3828 -17.3333
vn 0.0214 0.9998 -0.0018
f 850//850 851//851 852//852
v 45.3333 1.3828 -17.3333
vn 0.0249 0.9997 -0.0018
v 45.3333 1.3853 -16
vn 0.0249 0.9997 -0.0018
v 46.6667 1.3521 -16
vn 0.0249 0.9997 -0.0018
f 853//853 854//854 855//855
v 45.3333 1.3828 -17.3333
vn 0.0242 0.9997 -0.0011
v 46.6667 1.3521 -16
vn 0.0242 0.9997 -0.0011
v 46.6667 1.3506 -17.3333
vn 0.0242 0.9997 -0.0011
f 856//856 857//857 858//858
v 46.6667 1.3506 -17.3333
vn 0.0155 0.9999 -0.0011
v 46.6667 1.3521 -16
vn 0.0155 0.9999 -0.0011
v 48 1.3315 -16
vn 0.0155 0.9999 -0.0011
f 859//859 860//860 861//861
v 46.6667 1.3506 -17.3333
vn 0.0134 0.9999 0.001
v 48 1.3315 -16
vn 0.0134 0.9999 0.001
v 48 1.3327 -17.3333
vn 0.0134 0.9999 0.001
f 862//862 863//863 864//864
