# litt live chunk - perpetual grass world
# chunk (-1,-1) seed=1337 size=16 res=12
mtllib materials.mtl
o chunk_-1_-1
g grass_a
usemtl grass_a
v -1.3333 0.8294 -5.3333
vn -0.1261 0.983 0.1333
v -1.3333 0.6486 -4
vn -0.1261 0.983 0.1333
v 0 0.8196 -4
vn -0.1261 0.983 0.1333
f 1//1 2//2 3//3
v -1.3333 0.6486 -4
vn -0.0951 0.9857 0.1391
v -1.3333 0.4605 -2.6667
vn -0.0951 0.9857 0.1391
v 0 0.589 -2.6667
vn -0.0951 0.9857 0.1391
f 4//4 5//5 6//6
v -1.3333 0.6486 -4
vn -0.1254 0.9776 0.169
v 0 0.589 -2.6667
vn -0.1254 0.9776 0.169
v 0 0.8196 -4
vn -0.1254 0.9776 0.169
f 7//7 8//8 9//9
v -1.3333 0.4605 -2.6667
vn -0.0056 0.9924 0.1227
v -1.3333 0.2957 -1.3333
vn -0.0056 0.9924 0.1227
v 0 0.3032 -1.3333
vn -0.0056 0.9924 0.1227
f 10//10 11//11 12//12
v -1.3333 0.4605 -2.6667
vn -0.0939 0.9735 0.2087
v 0 0.3032 -1.3333
vn -0.0939 0.9735 0.2087
v 0 0.589 -2.6667
vn -0.0939 0.9735 0.2087
f 13//13 14//14 15//15
v -5.3333 0.8206 -1.3333
vn 0.1342 0.9823 -0.131
v -4 0.8162 0
vn 0.1342 0.9823 -0.131
v -4 0.6384 -1.3333
vn 0.1342 0.9823 -0.131
f 16//16 17//17 18//18
v -4 0.6384 -1.3333
vn 0.1691 0.9769 -0.1303
v -4 0.8162 0
vn 0.1691 0.9769 -0.1303
v -2.6667 0.5854 0
vn 0.1691 0.9769 -0.1303
f 19//19 20//20 21//21
v -4 0.6384 -1.3333
vn 0.1359 0.986 -0.0968
v -2.6667 0.5854 0
vn 0.1359 0.986 -0.0968
v -2.6667 0.4546 -1.3333
vn 0.1359 0.986 -0.0968
f 22//22 23//23 24//24
v -2.6667 0.4546 -1.3333
vn 0.2066 0.9738 -0.0956
v -2.6667 0.5854 0
vn 0.2066 0.9738 -0.0956
v -1.3333 0.3026 0
vn 0.2066 0.9738 -0.0956
f 25//25 26//26 27//27
v -2.6667 0.4546 -1.3333
vn 0.1184 0.993 -0.0052
v -1.3333 0.3026 0
vn 0.1184 0.993 -0.0052
v -1.3333 0.2957 -1.3333
vn 0.1184 0.993 -0.0052
f 28//28 29//29 30//30
g grass_b
usemtl grass_b
v -16 0.0866 -16
vn 0.0001 1 -0.0006
v -16 0.0875 -14.6667
vn 0.0001 1 -0.0006
v -14.6667 0.0873 -14.6667
vn 0.0001 1 -0.0006
f 31//31 32//32 33//33
v -16 0.0866 -16
vn 0 1 -0.0005
v -14.6667 0.0873 -14.6667
vn 0 1 -0.0005
v -14.6667 0.0866 -16
vn 0 1 -0.0005
f 34//34 35//35 36//36
v -14.6667 0.0866 -16
vn -0.0027 1 -0.0005
v -14.6667 0.0873 -14.6667
vn -0.0027 1 -0.0005
v -13.3333 0.091 -14.6667
vn -0.0027 1 -0.0005
f 37//37 38//38 39//39
v -14.6667 0.0866 -16
vn -0.0028 1 -0.0004
v -13.3333 0.091 -14.6667
vn -0.0028 1 -0.0004
v -13.3333 0.0904 -16
vn -0.0028 1 -0.0004
f 40//40 41//41 42//42
v -13.3333 0.0904 -16
vn -0.0023 1 -0.0004
v -13.3333 0.091 -14.6667
vn -0.0023 1 -0.0004
v -12 0.0941 -14.6667
vn -0.0023 1 -0.0004
f 43//43 44//44 45//45
v -13.3333 0.0904 -16
vn -0.0024 1 -0.0003
v -12 0.0941 -14.6667
vn -0.0024 1 -0.0003
v -12 0.0937 -16
vn -0.0024 1 -0.0003
f 46//46 47//47 48//48
v -12 0.0937 -16
vn -0.0211 0.9998 -0.0003
v -12 0.0941 -14.6667
vn -0.0211 0.9998 -0.0003
v -10.6667 0.1222 -14.6667
vn -0.0211 0.9998 -0.0003
f 49//49 50//50 51//51
v -12 0.0937 -16
vn -0.0214 0.9998 -0
v -10.6667 0.1222 -14.6667
vn -0.0214 0.9998 -0
v -10.6667 0.1222 -16
vn -0.0214 0.9998 -0
f 52//52 53//53 54//54
v -10.6667 0.1222 -16
vn -0.0577 0.9983 -0
v -10.6667 0.1222 -14.6667
vn -0.0577 0.9983 -0
v -9.3333 0.1992 -14.6667
vn -0.0577 0.9983 -0
f 55//55 56//56 57//57
v -10.6667 0.1222 -16
vn -0.0577 0.9983 -0
v -9.3333 0.1992 -14.6667
vn -0.0577 0.9983 -0
v -9.3333 0.1992 -16
vn -0.0577 0.9983 -0
f 58//58 59//59 60//60
v -9.3333 0.1992 -16
vn -0.0797 0.9968 -0
v -9.3333 0.1992 -14.6667
vn -0.0797 0.9968 -0
v -8 0.3058 -14.6667
vn -0.0797 0.9968 -0
f 61//61 62//62 63//63
v -9.3333 0.1992 -16
vn -0.0802 0.9968 0.0005
v -8 0.3058 -14.6667
vn -0.0802 0.9968 0.0005
v -8 0.3064 -16
vn -0.0802 0.9968 0.0005
f 64//64 65//65 66//66
v -8 0.3064 -16
vn -0.094 0.9956 0.0005
v -8 0.3058 -14.6667
vn -0.094 0.9956 0.0005
v -6.6667 0.4317 -14.6667
vn -0.094 0.9956 0.0005
f 67//67 68//68 69//69
v -8 0.3064 -16
vn -0.0932 0.9956 -0.0003
v -6.6667 0.4317 -14.6667
vn -0.0932 0.9956 -0.0003
v -6.6667 0.4313 -16
vn -0.0932 0.9956 -0.0003
f 70//70 71//71 72//72
v -6.6667 0.4313 -16
vn -0.1066 0.9943 -0.0003
v -6.6667 0.4317 -14.6667
vn -0.1066 0.9943 -0.0003
v -5.3333 0.5747 -14.6667
vn -0.1066 0.9943 -0.0003
f 73//73 74//74 75//75
v -6.6667 0.4313 -16
vn -0.107 0.9943 0.0001
v -5.3333 0.5747 -14.6667
vn -0.107 0.9943 0.0001
v -5.3333 0.5748 -16
vn -0.107 0.9943 0.0001
f 76//76 77//77 78//78
v -5.3333 0.5748 -16
vn -0.1537 0.9881 0.0001
v -5.3333 0.5747 -14.6667
vn -0.1537 0.9881 0.0001
v -4 0.7821 -14.6667
vn -0.1537 0.9881 0.0001
f 79//79 80//80 81//81
v -5.3333 0.5748 -16
vn -0.1538 0.9881 0.0002
v -4 0.7821 -14.6667
vn -0.1538 0.9881 0.0002
v -4 0.7824 -16
vn -0.1538 0.9881 0.0002
f 82//82 83//83 84//84
v -4 0.7824 -16
vn -0.1696 0.9855 0.0002
v -4 0.7821 -14.6667
vn -0.1696 0.9855 0.0002
v -2.6667 1.0116 -14.6667
vn -0.1696 0.9855 0.0002
f 85//85 86//86 87//87
v -4 0.7824 -16
vn -0.1695 0.9855 0.0001
v -2.6667 1.0116 -14.6667
vn -0.1695 0.9855 0.0001
v -2.6667 1.0117 -16
vn -0.1695 0.9855 0.0001
f 88//88 89//89 90//90
v -2.6667 1.0117 -16
vn -0.2056 0.9786 0.0001
v -2.6667 1.0116 -14.6667
vn -0.2056 0.9786 0.0001
v -1.3333 1.2917 -14.6667
vn -0.2056 0.9786 0.0001
f 91//91 92//92 93//93
v -2.6667 1.0117 -16
vn -0.2062 0.9785 0.0007
v -1.3333 1.2917 -14.6667
vn -0.2062 0.9785 0.0007
v -1.3333 1.2927 -16
vn -0.2062 0.9785 0.0007
f 94//94 95//95 96//96
v -16 0.0875 -14.6667
vn 0.0001 1 -0.0006
v -16 0.0883 -13.3333
vn 0.0001 1 -0.0006
v -14.6667 0.0881 -13.3333
vn 0.0001 1 -0.0006
f 97//97 98//98 99//99
v -16 0.0875 -14.6667
vn 0.0001 1 -0.0006
v -14.6667 0.0881 -13.3333
vn 0.0001 1 -0.0006
v -14.6667 0.0873 -14.6667
vn 0.0001 1 -0.0006
f 100//100 101//101 102//102
v -14.6667 0.0873 -14.6667
vn -0.0023 1 -0.0006
v -14.6667 0.0881 -13.3333
vn -0.0023 1 -0.0006
v -13.3333 0.0912 -13.3333
vn -0.0023 1 -0.0006
f 103//103 104//104 105//105
v -14.6667 0.0873 -14.6667
vn -0.0027 1 -0.0002
v -13.3333 0.0912 -13.3333
vn -0.0027 1 -0.0002
v -13.3333 0.091 -14.6667
vn -0.0027 1 -0.0002
f 106//106 107//107 108//108
v -13.3333 0.091 -14.6667
vn -0.0022 1 -0.0002
v -13.3333 0.0912 -13.3333
vn -0.0022 1 -0.0002
v -12 0.0941 -13.3333
vn -0.0022 1 -0.0002
f 109//109 110//110 111//111
v -13.3333 0.091 -14.6667
vn -0.0023 1 0
v -12 0.0941 -13.3333
vn -0.0023 1 0
v -12 0.0941 -14.6667
vn -0.0023 1 0
f 112//112 113//113 114//114
v -12 0.0941 -14.6667
vn -0.0212 0.9998 0
v -12 0.0941 -13.3333
vn -0.0212 0.9998 0
v -10.6667 0.1223 -13.3333
vn -0.0212 0.9998 0
f 115//115 116//116 117//117
v -12 0.0941 -14.6667
vn -0.0211 0.9998 -0.0001
v -10.6667 0.1223 -13.3333
vn -0.0211 0.9998 -0.0001
v -10.6667 0.1222 -14.6667
vn -0.0211 0.9998 -0.0001
f 118//118 119//119 120//120
v -10.6667 0.1222 -14.6667
vn -0.0575 0.9983 -0.0001
v -10.6667 0.1223 -13.3333
vn -0.0575 0.9983 -0.0001
v -9.3333 0.1991 -13.3333
vn -0.0575 0.9983 -0.0001
f 121//121 122//122 123//123
v -10.6667 0.1222 -14.6667
vn -0.0577 0.9983 0.0001
v -9.3333 0.1991 -13.3333
vn -0.0577 0.9983 0.0001
v -9.3333 0.1992 -14.6667
vn -0.0577 0.9983 0.0001
f 124//124 125//125 126//126
v -9.3333 0.1992 -14.6667
vn -0.08 0.9968 0.0001
v -9.3333 0.1991 -13.3333
vn -0.08 0.9968 0.0001
v -8 0.306 -13.3333
vn -0.08 0.9968 0.0001
f 127//127 128//128 129//129
v -9.3333 0.1992 -14.6667
vn -0.0797 0.9968 -0.0002
v -8 0.306 -13.3333
vn -0.0797 0.9968 -0.0002
v -8 0.3058 -14.6667
vn -0.0797 0.9968 -0.0002
f 130//130 131//131 132//132
v -8 0.3058 -14.6667
vn -0.0939 0.9956 -0.0002
v -8 0.306 -13.3333
vn -0.0939 0.9956 -0.0002
v -6.6667 0.4318 -13.3333
vn -0.0939 0.9956 -0.0002
f 133//133 134//134 135//135
v -8 0.3058 -14.6667
vn -0.094 0.9956 -0.0001
v -6.6667 0.4318 -13.3333
vn -0.094 0.9956 -0.0001
v -6.6667 0.4317 -14.6667
vn -0.094 0.9956 -0.0001
f 136//136 137//137 138//138
v -6.6667 0.4317 -14.6667
vn -0.1064 0.9943 -0.0001
v -6.6667 0.4318 -13.3333
vn -0.1064 0.9943 -0.0001
v -5.3333 0.5745 -13.3333
vn -0.1064 0.9943 -0.0001
f 139//139 140//140 141//141
v -6.6667 0.4317 -14.6667
vn -0.1066 0.9943 0.0002
v -5.3333 0.5745 -13.3333
vn -0.1066 0.9943 0.0002
v -5.3333 0.5747 -14.6667
vn -0.1066 0.9943 0.0002
f 142//142 143//143 144//144
v -5.3333 0.5747 -14.6667
vn -0.1537 0.9881 0.0002
v -5.3333 0.5745 -13.3333
vn -0.1537 0.9881 0.0002
v -4 0.7819 -13.3333
vn -0.1537 0.9881 0.0002
f 145//145 146//146 147//147
v -5.3333 0.5747 -14.6667
vn -0.1537 0.9881 0.0001
v -4 0.7819 -13.3333
vn -0.1537 0.9881 0.0001
v -4 0.7821 -14.6667
vn -0.1537 0.9881 0.0001
f 148//148 149//149 150//150
v -4 0.7821 -14.6667
vn -0.1697 0.9855 0.0001
v -4 0.7819 -13.3333
vn -0.1697 0.9855 0.0001
v -2.6667 1.0115 -13.3333
vn -0.1697 0.9855 0.0001
f 151//151 152//152 153//153
v -4 0.7821 -14.6667
vn -0.1696 0.9855 0.0001
v -2.6667 1.0115 -13.3333
vn -0.1696 0.9855 0.0001
v -2.6667 1.0116 -14.6667
vn -0.1696 0.9855 0.0001
f 154//154 155//155 156//156
v -2.6667 1.0116 -14.6667
vn -0.2053 0.9787 0.0001
v -2.6667 1.0115 -13.3333
vn -0.2053 0.9787 0.0001
v -1.3333 1.2911 -13.3333
vn -0.2053 0.9787 0.0001
f 157//157 158//158 159//159
v -2.6667 1.0116 -14.6667
vn -0.2056 0.9786 0.0005
v -1.3333 1.2911 -13.3333
vn -0.2056 0.9786 0.0005
v -1.3333 1.2917 -14.6667
vn -0.2056 0.9786 0.0005
f 160//160 161//161 162//162
v -16 0.0883 -13.3333
vn -0.0001 1 -0.0029
v -16 0.0922 -12
vn -0.0001 1 -0.0029
v -14.6667 0.0923 -12
vn -0.0001 1 -0.0029
f 163//163 164//164 165//165
v -16 0.0883 -13.3333
vn 0.0001 1 -0.0031
v -14.6667 0.0923 -12
vn 0.0001 1 -0.0031
v -14.6667 0.0881 -13.3333
vn 0.0001 1 -0.0031
f 166//166 167//167 168//168
v -14.6667 0.0881 -13.3333
vn -0.002 1 -0.0031
v -14.6667 0.0923 -12
vn -0.002 1 -0.0031
v -13.3333 0.095 -12
vn -0.002 1 -0.0031
f 169//169 170//170 171//171
v -14.6667 0.0881 -13.3333
vn -0.0023 1 -0.0028
v -13.3333 0.095 -12
vn -0.0023 1 -0.0028
v -13.3333 0.0912 -13.3333
vn -0.0023 1 -0.0028
f 172//172 173//173 174//174
v -13.3333 0.0912 -13.3333
vn -0.0021 1 -0.0028
v -13.3333 0.095 -12
vn -0.0021 1 -0.0028
v -12 0.0977 -12
vn -0.0021 1 -0.0028
f 175//175 176//176 177//177
v -13.3333 0.0912 -13.3333
vn -0.0022 1 -0.0027
v -12 0.0977 -12
vn -0.0022 1 -0.0027
v -12 0.0941 -13.3333
vn -0.0022 1 -0.0027
f 178//178 179//179 180//180
v -12 0.0941 -13.3333
vn -0.0212 0.9998 -0.0027
v -12 0.0977 -12
vn -0.0212 0.9998 -0.0027
v -10.6667 0.1259 -12
vn -0.0212 0.9998 -0.0027
f 181//181 182//182 183//183
v -12 0.0941 -13.3333
vn -0.0212 0.9998 -0.0027
v -10.6667 0.1259 -12
vn -0.0212 0.9998 -0.0027
v -10.6667 0.1223 -13.3333
vn -0.0212 0.9998 -0.0027
f 184//184 185//185 186//186
v -10.6667 0.1223 -13.3333
vn -0.0571 0.9984 -0.0027
v -10.6667 0.1259 -12
vn -0.0571 0.9984 -0.0027
v -9.3333 0.2021 -12
vn -0.0571 0.9984 -0.0027
f 187//187 188//188 189//189
v -10.6667 0.1223 -13.3333
vn -0.0575 0.9983 -0.0023
v -9.3333 0.2021 -12
vn -0.0575 0.9983 -0.0023
v -9.3333 0.1991 -13.3333
vn -0.0575 0.9983 -0.0023
f 190//190 191//191 192//192
v -9.3333 0.1991 -13.3333
vn -0.0792 0.9969 -0.0023
v -9.3333 0.2021 -12
vn -0.0792 0.9969 -0.0023
v -8 0.308 -12
vn -0.0792 0.9969 -0.0023
f 193//193 194//194 195//195
v -9.3333 0.1991 -13.3333
vn -0.08 0.9968 -0.0015
v -8 0.308 -12
vn -0.08 0.9968 -0.0015
v -8 0.306 -13.3333
vn -0.08 0.9968 -0.0015
f 196//196 197//197 198//198
v -8 0.306 -13.3333
vn -0.0923 0.9957 -0.0015
v -8 0.308 -12
vn -0.0923 0.9957 -0.0015
v -6.6667 0.4316 -12
vn -0.0923 0.9957 -0.0015
f 199//199 200//200 201//201
v -8 0.306 -13.3333
vn -0.0939 0.9956 0.0002
v -6.6667 0.4316 -12
vn -0.0939 0.9956 0.0002
v -6.6667 0.4318 -13.3333
vn -0.0939 0.9956 0.0002
f 202//202 203//203 204//204
v -6.6667 0.4318 -13.3333
vn -0.1054 0.9944 0.0002
v -6.6667 0.4316 -12
vn -0.1054 0.9944 0.0002
v -5.3333 0.5729 -12
vn -0.1054 0.9944 0.0002
f 205//205 206//206 207//207
v -6.6667 0.4318 -13.3333
vn -0.1064 0.9943 0.0011
v -5.3333 0.5729 -12
vn -0.1064 0.9943 0.0011
v -5.3333 0.5745 -13.3333
vn -0.1064 0.9943 0.0011
f 208//208 209//209 210//210
v -5.3333 0.5745 -13.3333
vn -0.1532 0.9882 0.0011
v -5.3333 0.5729 -12
vn -0.1532 0.9882 0.0011
v -4 0.7796 -12
vn -0.1532 0.9882 0.0011
f 211//211 212//212 213//213
v -5.3333 0.5745 -13.3333
vn -0.1537 0.9881 0.0017
v -4 0.7796 -12
vn -0.1537 0.9881 0.0017
v -4 0.7819 -13.3333
vn -0.1537 0.9881 0.0017
f 214//214 215//215 216//216
v -4 0.7819 -13.3333
vn -0.1691 0.9856 0.0017
v -4 0.7796 -12
vn -0.1691 0.9856 0.0017
v -2.6667 1.0084 -12
vn -0.1691 0.9856 0.0017
f 217//217 218//218 219//219
v -4 0.7819 -13.3333
vn -0.1697 0.9855 0.0023
v -2.6667 1.0084 -12
vn -0.1697 0.9855 0.0023
v -2.6667 1.0115 -13.3333
vn -0.1697 0.9855 0.0023
f 220//220 221//221 222//222
v -2.6667 1.0115 -13.3333
vn -0.2049 0.9788 0.0023
v -2.6667 1.0084 -12
vn -0.2049 0.9788 0.0023
v -1.3333 1.2875 -12
vn -0.2049 0.9788 0.0023
f 223//223 224//224 225//225
v -2.6667 1.0115 -13.3333
vn -0.2053 0.9787 0.0027
v -1.3333 1.2875 -12
vn -0.2053 0.9787 0.0027
v -1.3333 1.2911 -13.3333
vn -0.2053 0.9787 0.0027
f 226//226 227//227 228//228
v -16 0.0922 -12
vn 0.0004 0.9995 -0.0329
v -16 0.1361 -10.6667
vn 0.0004 0.9995 -0.0329
v -14.6667 0.1356 -10.6667
vn 0.0004 0.9995 -0.0329
f 229//229 230//230 231//231
v -16 0.0922 -12
vn -0.0001 0.9995 -0.0325
v -14.6667 0.1356 -10.6667
vn -0.0001 0.9995 -0.0325
v -14.6667 0.0923 -12
vn -0.0001 0.9995 -0.0325
f 232//232 233//233 234//234
v -14.6667 0.0923 -12
vn 0.0002 0.9995 -0.0325
v -14.6667 0.1356 -10.6667
vn 0.0002 0.9995 -0.0325
v -13.3333 0.1353 -10.6667
vn 0.0002 0.9995 -0.0325
f 235//235 236//236 237//237
v -14.6667 0.0923 -12
vn -0.002 0.9995 -0.0303
v -13.3333 0.1353 -10.6667
vn -0.002 0.9995 -0.0303
v -13.3333 0.095 -12
vn -0.002 0.9995 -0.0303
f 238//238 239//239 240//240
v -13.3333 0.095 -12
vn -0.001 0.9995 -0.0303
v -13.3333 0.1353 -10.6667
vn -0.001 0.9995 -0.0303
v -12 0.1367 -10.6667
vn -0.001 0.9995 -0.0303
f 241//241 242//242 243//243
v -13.3333 0.095 -12
vn -0.0021 0.9996 -0.0292
v -12 0.1367 -10.6667
vn -0.0021 0.9996 -0.0292
v -12 0.0977 -12
vn -0.0021 0.9996 -0.0292
f 244//244 245//245 246//246
v -12 0.0977 -12
vn -0.019 0.9994 -0.0292
v -12 0.1367 -10.6667
vn -0.019 0.9994 -0.0292
v -10.6667 0.162 -10.6667
vn -0.019 0.9994 -0.0292
f 247//247 248//248 249//249
v -12 0.0977 -12
vn -0.0211 0.9994 -0.027
v -10.6667 0.162 -10.6667
vn -0.0211 0.9994 -0.027
v -10.6667 0.1259 -12
vn -0.0211 0.9994 -0.027
f 250//250 251//251 252//252
v -10.6667 0.1259 -12
vn -0.0518 0.9983 -0.027
v -10.6667 0.162 -10.6667
vn -0.0518 0.9983 -0.027
v -9.3333 0.2312 -10.6667
vn -0.0518 0.9983 -0.027
f 253//253 254//254 255//255
v -10.6667 0.1259 -12
vn -0.057 0.9981 -0.0217
v -9.3333 0.2312 -10.6667
vn -0.057 0.9981 -0.0217
v -9.3333 0.2021 -12
vn -0.057 0.9981 -0.0217
f 256//256 257//257 258//258
v -9.3333 0.2021 -12
vn -0.0698 0.9973 -0.0217
v -9.3333 0.2312 -10.6667
vn -0.0698 0.9973 -0.0217
v -8 0.3244 -10.6667
vn -0.0698 0.9973 -0.0217
f 259//259 260//260 261//261
v -9.3333 0.2021 -12
vn -0.0792 0.9968 -0.0123
v -8 0.3244 -10.6667
vn -0.0792 0.9968 -0.0123
v -8 0.308 -12
vn -0.0792 0.9968 -0.0123
f 262//262 263//263 264//264
v -8 0.308 -12
vn -0.081 0.9966 -0.0123
v -8 0.3244 -10.6667
vn -0.081 0.9966 -0.0123
v -6.6667 0.4328 -10.6667
vn -0.081 0.9966 -0.0123
f 265//265 266//266 267//267
v -8 0.308 -12
vn -0.0923 0.9957 -0.0009
v -6.6667 0.4328 -10.6667
vn -0.0923 0.9957 -0.0009
v -6.6667 0.4316 -12
vn -0.0923 0.9957 -0.0009
f 268//268 269//269 270//270
v -6.6667 0.4316 -12
vn -0.0961 0.9954 -0.0009
v -6.6667 0.4328 -10.6667
vn -0.0961 0.9954 -0.0009
v -5.3333 0.5616 -10.6667
vn -0.0961 0.9954 -0.0009
f 271//271 272//272 273//273
v -6.6667 0.4316 -12
vn -0.1054 0.9944 0.0085
v -5.3333 0.5616 -10.6667
vn -0.1054 0.9944 0.0085
v -5.3333 0.5729 -12
vn -0.1054 0.9944 0.0085
f 274//274 275//275 276//276
v -5.3333 0.5729 -12
vn -0.1454 0.9893 0.0084
v -5.3333 0.5616 -10.6667
vn -0.1454 0.9893 0.0084
v -4 0.7575 -10.6667
vn -0.1454 0.9893 0.0084
f 277//277 278//278 279//279
v -5.3333 0.5729 -12
vn -0.1531 0.9881 0.0164
v -4 0.7575 -10.6667
vn -0.1531 0.9881 0.0164
v -4 0.7796 -12
vn -0.1531 0.9881 0.0164
f 280//280 281//281 282//282
v -4 0.7796 -12
vn -0.1617 0.9867 0.0164
v -4 0.7575 -10.6667
vn -0.1617 0.9867 0.0164
v -2.6667 0.976 -10.6667
vn -0.1617 0.9867 0.0164
f 283//283 284//284 285//285
v -4 0.7796 -12
vn -0.1691 0.9853 0.024
v -2.6667 0.976 -10.6667
vn -0.1691 0.9853 0.024
v -2.6667 1.0084 -12
vn -0.1691 0.9853 0.024
f 286//286 287//287 288//288
v -2.6667 1.0084 -12
vn -0.2009 0.9793 0.0238
v -2.6667 0.976 -10.6667
vn -0.2009 0.9793 0.0238
v -1.3333 1.2495 -10.6667
vn -0.2009 0.9793 0.0238
f 289//289 290//290 291//291
v -2.6667 1.0084 -12
vn -0.2048 0.9784 0.0279
v -1.3333 1.2495 -10.6667
vn -0.2048 0.9784 0.0279
v -1.3333 1.2875 -12
vn -0.2048 0.9784 0.0279
f 292//292 293//293 294//294
v -16 0.1361 -10.6667
vn -0.0004 0.9982 -0.0604
v -16 0.2169 -9.3333
vn -0.0004 0.9982 -0.0604
v -14.6667 0.2174 -9.3333
vn -0.0004 0.9982 -0.0604
f 295//295 296//296 297//297
v -16 0.1361 -10.6667
vn 0.0004 0.9981 -0.0612
v -14.6667 0.2174 -9.3333
vn 0.0004 0.9981 -0.0612
v -14.6667 0.1356 -10.6667
vn 0.0004 0.9981 -0.0612
f 298//298 299//299 300//300
v -14.6667 0.1356 -10.6667
vn 0.0018 0.9981 -0.0612
v -14.6667 0.2174 -9.3333
vn 0.0018 0.9981 -0.0612
v -13.3333 0.2149 -9.3333
vn 0.0018 0.9981 -0.0612
f 301//301 302//302 303//303
v -14.6667 0.1356 -10.6667
vn 0.0002 0.9982 -0.0596
v -13.3333 0.2149 -9.3333
vn 0.0002 0.9982 -0.0596
v -13.3333 0.1353 -10.6667
vn 0.0002 0.9982 -0.0596
f 304//304 305//305 306//306
v -13.3333 0.1353 -10.6667
vn 0.0016 0.9982 -0.0596
v -13.3333 0.2149 -9.3333
vn 0.0016 0.9982 -0.0596
v -12 0.2128 -9.3333
vn 0.0016 0.9982 -0.0596
f 307//307 308//308 309//309
v -13.3333 0.1353 -10.6667
vn -0.001 0.9984 -0.057
v -12 0.2128 -9.3333
vn -0.001 0.9984 -0.057
v -12 0.1367 -10.6667
vn -0.001 0.9984 -0.057
f 310//310 311//311 312//312
v -12 0.1367 -10.6667
vn -0.0118 0.9983 -0.057
v -12 0.2128 -9.3333
vn -0.0118 0.9983 -0.057
v -10.6667 0.2286 -9.3333
vn -0.0118 0.9983 -0.057
f 313//313 314//314 315//315
v -12 0.1367 -10.6667
vn -0.0189 0.9986 -0.0499
v -10.6667 0.2286 -9.3333
vn -0.0189 0.9986 -0.0499
v -10.6667 0.162 -10.6667
vn -0.0189 0.9986 -0.0499
f 316//316 317//317 318//318
v -10.6667 0.162 -10.6667
vn -0.0387 0.998 -0.0499
v -10.6667 0.2286 -9.3333
vn -0.0387 0.998 -0.0499
v -9.3333 0.2803 -9.3333
vn -0.0387 0.998 -0.0499
f 319//319 320//320 321//321
v -10.6667 0.162 -10.6667
vn -0.0518 0.998 -0.0368
v -9.3333 0.2803 -9.3333
vn -0.0518 0.998 -0.0368
v -9.3333 0.2312 -10.6667
vn -0.0518 0.998 -0.0368
f 322//322 323//323 324//324
v -9.3333 0.2312 -10.6667
vn -0.0594 0.9976 -0.0368
v -9.3333 0.2803 -9.3333
vn -0.0594 0.9976 -0.0368
v -8 0.3596 -9.3333
vn -0.0594 0.9976 -0.0368
f 325//325 326//326 327//327
v -9.3333 0.2312 -10.6667
vn -0.0698 0.9972 -0.0263
v -8 0.3596 -9.3333
vn -0.0698 0.9972 -0.0263
v -8 0.3244 -10.6667
vn -0.0698 0.9972 -0.0263
f 328//328 329//329 330//330
v -8 0.3244 -10.6667
vn -0.0607 0.9978 -0.0264
v -8 0.3596 -9.3333
vn -0.0607 0.9978 -0.0264
v -6.6667 0.4407 -9.3333
vn -0.0607 0.9978 -0.0264
f 331//331 332//332 333//333
v -8 0.3244 -10.6667
vn -0.081 0.9967 -0.0059
v -6.6667 0.4407 -9.3333
vn -0.081 0.9967 -0.0059
v -6.6667 0.4328 -10.6667
vn -0.081 0.9967 -0.0059
f 334//334 335//335 336//336
v -6.6667 0.4328 -10.6667
vn -0.0762 0.9971 -0.0059
v -6.6667 0.4407 -9.3333
vn -0.0762 0.9971 -0.0059
v -5.3333 0.5427 -9.3333
vn -0.0762 0.9971 -0.0059
f 337//337 338//338 339//339
v -6.6667 0.4328 -10.6667
vn -0.0961 0.9953 0.0141
v -5.3333 0.5427 -9.3333
vn -0.0961 0.9953 0.0141
v -5.3333 0.5616 -10.6667
vn -0.0961 0.9953 0.0141
f 340//340 341//341 342//342
v -5.3333 0.5616 -10.6667
vn -0.1273 0.9918 0.0141
v -5.3333 0.5427 -9.3333
vn -0.1273 0.9918 0.0141
v -4 0.7138 -9.3333
vn -0.1273 0.9918 0.0141
f 343//343 344//344 345//345
v -5.3333 0.5616 -10.6667
vn -0.1453 0.9889 0.0324
v -4 0.7138 -9.3333
vn -0.1453 0.9889 0.0324
v -4 0.7575 -10.6667
vn -0.1453 0.9889 0.0324
f 346//346 347//347 348//348
v -4 0.7575 -10.6667
vn -0.1474 0.9885 0.0323
v -4 0.7138 -9.3333
vn -0.1474 0.9885 0.0323
v -2.6667 0.9126 -9.3333
vn -0.1474 0.9885 0.0323
f 349//349 350//350 351//351
v -4 0.7575 -10.6667
vn -0.1615 0.9858 0.0468
v -2.6667 0.9126 -9.3333
vn -0.1615 0.9858 0.0468
v -2.6667 0.976 -10.6667
vn -0.1615 0.9858 0.0468
f 352//352 353//353 354//354
v -2.6667 0.976 -10.6667
vn -0.1963 0.9794 0.0465
v -2.6667 0.9126 -9.3333
vn -0.1963 0.9794 0.0465
v -1.3333 1.1799 -9.3333
vn -0.1963 0.9794 0.0465
f 355//355 356//356 357//357
v -2.6667 0.976 -10.6667
vn -0.2007 0.9783 0.051
v -1.3333 1.1799 -9.3333
vn -0.2007 0.9783 0.051
v -1.3333 1.2495 -10.6667
vn -0.2007 0.9783 0.051
f 358//358 359//359 360//360
v -16 0.2169 -9.3333
vn 0 0.9969 -0.0785
v -16 0.3218 -8
vn 0 0.9969 -0.0785
v -14.6667 0.3218 -8
vn 0 0.9969 -0.0785
f 361//361 362//362 363//363
v -16 0.2169 -9.3333
vn -0.0004 0.9969 -0.0781
v -14.6667 0.3218 -8
vn -0.0004 0.9969 -0.0781
v -14.6667 0.2174 -9.3333
vn -0.0004 0.9969 -0.0781
f 364//364 365//365 366//366
v -14.6667 0.2174 -9.3333
vn 0.0023 0.9969 -0.0781
v -14.6667 0.3218 -8
vn 0.0023 0.9969 -0.0781
v -13.3333 0.3187 -8
vn 0.0023 0.9969 -0.0781
f 367//367 368//368 369//369
v -14.6667 0.2174 -9.3333
vn 0.0018 0.997 -0.0776
v -13.3333 0.3187 -8
vn 0.0018 0.997 -0.0776
v -13.3333 0.2149 -9.3333
vn 0.0018 0.997 -0.0776
f 370//370 371//371 372//372
v -13.3333 0.2149 -9.3333
vn 0.0023 0.997 -0.0776
v -13.3333 0.3187 -8
vn 0.0023 0.997 -0.0776
v -12 0.3156 -8
vn 0.0023 0.997 -0.0776
f 373//373 374//374 375//375
v -13.3333 0.2149 -9.3333
vn 0.0016 0.997 -0.0769
v -12 0.3156 -8
vn 0.0016 0.997 -0.0769
v -12 0.2128 -9.3333
vn 0.0016 0.997 -0.0769
f 376//376 377//377 378//378
v -12 0.2128 -9.3333
vn -0.0039 0.997 -0.0769
v -12 0.3156 -8
vn -0.0039 0.997 -0.0769
v -10.6667 0.3208 -8
vn -0.0039 0.997 -0.0769
f 379//379 380//380 381//381
v -12 0.2128 -9.3333
vn -0.0118 0.9975 -0.069
v -10.6667 0.3208 -8
vn -0.0118 0.9975 -0.069
v -10.6667 0.2286 -9.3333
vn -0.0118 0.9975 -0.069
f 382//382 383//383 384//384
v -10.6667 0.2286 -9.3333
vn -0.0229 0.9974 -0.069
v -10.6667 0.3208 -8
vn -0.0229 0.9974 -0.069
v -9.3333 0.3514 -8
vn -0.0229 0.9974 -0.069
f 385//385 386//386 387//387
v -10.6667 0.2286 -9.3333
vn -0.0387 0.9978 -0.0533
v -9.3333 0.3514 -8
vn -0.0387 0.9978 -0.0533
v -9.3333 0.2803 -9.3333
vn -0.0387 0.9978 -0.0533
f 388//388 389//389 390//390
v -9.3333 0.2803 -9.3333
vn -0.0384 0.9978 -0.0533
v -9.3333 0.3514 -8
vn -0.0384 0.9978 -0.0533
v -8 0.4027 -8
vn -0.0384 0.9978 -0.0533
f 391//391 392//392 393//393
v -9.3333 0.2803 -9.3333
vn -0.0594 0.9977 -0.0322
v -8 0.4027 -8
vn -0.0594 0.9977 -0.0322
v -8 0.3596 -9.3333
vn -0.0594 0.9977 -0.0322
f 394//394 395//395 396//396
v -8 0.3596 -9.3333
vn -0.0354 0.9989 -0.0322
v -8 0.4027 -8
vn -0.0354 0.9989 -0.0322
v -6.6667 0.4499 -8
vn -0.0354 0.9989 -0.0322
f 397//397 398//398 399//399
v -8 0.3596 -9.3333
vn -0.0607 0.9981 -0.0069
v -6.6667 0.4499 -8
vn -0.0607 0.9981 -0.0069
v -6.6667 0.4407 -9.3333
vn -0.0607 0.9981 -0.0069
f 400//400 401//401 402//402
v -6.6667 0.4407 -9.3333
vn -0.0512 0.9987 -0.0069
v -6.6667 0.4499 -8
vn -0.0512 0.9987 -0.0069
v -5.3333 0.5183 -8
vn -0.0512 0.9987 -0.0069
f 403//403 404//404 405//405
v -6.6667 0.4407 -9.3333
vn -0.0762 0.9969 0.0182
v -5.3333 0.5183 -8
vn -0.0762 0.9969 0.0182
v -5.3333 0.5427 -9.3333
vn -0.0762 0.9969 0.0182
f 406//406 407//407 408//408
v -5.3333 0.5427 -9.3333
vn -0.1043 0.9944 0.0182
v -5.3333 0.5183 -8
vn -0.1043 0.9944 0.0182
v -4 0.6581 -8
vn -0.1043 0.9944 0.0182
f 409//409 410//410 411//411
v -5.3333 0.5427 -9.3333
vn -0.1272 0.991 0.0414
v -4 0.6581 -8
vn -0.1272 0.991 0.0414
v -4 0.7138 -9.3333
vn -0.1272 0.991 0.0414
f 412//412 413//413 414//414
v -4 0.7138 -9.3333
vn -0.1281 0.9909 0.0414
v -4 0.6581 -8
vn -0.1281 0.9909 0.0414
v -2.6667 0.8305 -8
vn -0.1281 0.9909 0.0414
f 415//415 416//416 417//417
v -4 0.7138 -9.3333
vn -0.1472 0.9872 0.0608
v -2.6667 0.8305 -8
vn -0.1472 0.9872 0.0608
v -2.6667 0.9126 -9.3333
vn -0.1472 0.9872 0.0608
f 418//418 419//419 420//420
v -2.6667 0.9126 -9.3333
vn -0.1828 0.9813 0.0605
v -2.6667 0.8305 -8
vn -0.1828 0.9813 0.0605
v -1.3333 1.0788 -8
vn -0.1828 0.9813 0.0605
f 421//421 422//422 423//423
v -2.6667 0.9126 -9.3333
vn -0.196 0.9778 0.0741
v -1.3333 1.0788 -8
vn -0.196 0.9778 0.0741
v -1.3333 1.1799 -9.3333
vn -0.196 0.9778 0.0741
f 424//424 425//425 426//426
v -16 0.3218 -8
vn 0.0006 0.996 -0.0893
v -16 0.4413 -6.6667
vn 0.0006 0.996 -0.0893
v -14.6667 0.4404 -6.6667
vn 0.0006 0.996 -0.0893
f 427//427 428//428 429//429
v -16 0.3218 -8
vn 0 0.9961 -0.0886
v -14.6667 0.4404 -6.6667
vn 0 0.9961 -0.0886
v -14.6667 0.3218 -8
vn 0 0.9961 -0.0886
f 430//430 431//431 432//432
v -14.6667 0.3218 -8
vn 0.0031 0.9961 -0.0886
v -14.6667 0.4404 -6.6667
vn 0.0031 0.9961 -0.0886
v -13.3333 0.4363 -6.6667
vn 0.0031 0.9961 -0.0886
f 433//433 434//434 435//435
v -14.6667 0.3218 -8
vn 0.0023 0.9961 -0.0879
v -13.3333 0.4363 -6.6667
vn 0.0023 0.9961 -0.0879
v -13.3333 0.3187 -8
vn 0.0023 0.9961 -0.0879
f 436//436 437//437 438//438
v -13.3333 0.3187 -8
vn 0.0035 0.9961 -0.0879
v -13.3333 0.4363 -6.6667
vn 0.0035 0.9961 -0.0879
v -12 0.4317 -6.6667
vn 0.0035 0.9961 -0.0879
f 439//439 440//440 441//441
v -13.3333 0.3187 -8
vn 0.0023 0.9962 -0.0867
v -12 0.4317 -6.6667
vn 0.0023 0.9962 -0.0867
v -12 0.3156 -8
vn 0.0023 0.9962 -0.0867
f 442//442 443//443 444//444
v -12 0.3156 -8
vn 0.006 0.9962 -0.0867
v -12 0.4317 -6.6667
vn 0.006 0.9962 -0.0867
v -10.6667 0.4236 -6.6667
vn 0.006 0.9962 -0.0867
f 445//445 446//446 447//447
v -12 0.3156 -8
vn -0.0039 0.997 -0.0768
v -10.6667 0.4236 -6.6667
vn -0.0039 0.997 -0.0768
v -10.6667 0.3208 -8
vn -0.0039 0.997 -0.0768
f 448//448 449//449 450//450
v -10.6667 0.3208 -8
vn -0.0048 0.997 -0.0768
v -10.6667 0.4236 -6.6667
vn -0.0048 0.997 -0.0768
v -9.3333 0.43 -6.6667
vn -0.0048 0.997 -0.0768
f 451//451 452//452 453//453
v -10.6667 0.3208 -8
vn -0.0229 0.998 -0.0588
v -9.3333 0.43 -6.6667
vn -0.0229 0.998 -0.0588
v -9.3333 0.3514 -8
vn -0.0229 0.998 -0.0588
f 454//454 455//455 456//456
v -9.3333 0.3514 -8
vn -0.0146 0.9982 -0.0588
v -9.3333 0.43 -6.6667
vn -0.0146 0.9982 -0.0588
v -8 0.4496 -6.6667
vn -0.0146 0.9982 -0.0588
f 457//457 458//458 459//459
v -9.3333 0.3514 -8
vn -0.0384 0.9986 -0.0351
v -8 0.4496 -6.6667
vn -0.0384 0.9986 -0.0351
v -8 0.4027 -8
vn -0.0384 0.9986 -0.0351
f 460//460 461//461 462//462
v -8 0.4027 -8
vn -0.0086 0.9993 -0.0351
v -8 0.4496 -6.6667
vn -0.0086 0.9993 -0.0351
v -6.6667 0.461 -6.6667
vn -0.0086 0.9993 -0.0351
f 463//463 464//464 465//465
v -8 0.4027 -8
vn -0.0354 0.9993 -0.0083
v -6.6667 0.461 -6.6667
vn -0.0354 0.9993 -0.0083
v -6.6667 0.4499 -8
vn -0.0354 0.9993 -0.0083
f 466//466 467//467 468//468
v -6.6667 0.4499 -8
vn -0.023 0.9997 -0.0083
v -6.6667 0.461 -6.6667
vn -0.023 0.9997 -0.0083
v -5.3333 0.4917 -6.6667
vn -0.023 0.9997 -0.0083
f 469//469 470//470 471//471
v -6.6667 0.4499 -8
vn -0.0512 0.9985 0.0199
v -5.3333 0.4917 -6.6667
vn -0.0512 0.9985 0.0199
v -5.3333 0.5183 -8
vn -0.0512 0.9985 0.0199
f 472//472 473//473 474//474
v -5.3333 0.5183 -8
vn -0.0775 0.9968 0.0199
v -5.3333 0.4917 -6.6667
vn -0.0775 0.9968 0.0199
v -4 0.5954 -6.6667
vn -0.0775 0.9968 0.0199
f 475//475 476//476 477//477
v -5.3333 0.5183 -8
vn -0.1042 0.9935 0.0467
v -4 0.5954 -6.6667
vn -0.1042 0.9935 0.0467
v -4 0.6581 -8
vn -0.1042 0.9935 0.0467
f 478//478 479//479 480//480
v -4 0.6581 -8
vn -0.1055 0.9933 0.0467
v -4 0.5954 -6.6667
vn -0.1055 0.9933 0.0467
v -2.6667 0.7371 -6.6667
vn -0.1055 0.9933 0.0467
f 481//481 482//482 483//483
v -4 0.6581 -8
vn -0.1279 0.9894 0.0693
v -2.6667 0.7371 -6.6667
vn -0.1279 0.9894 0.0693
v -2.6667 0.8305 -8
vn -0.1279 0.9894 0.0693
f 484//484 485//485 486//486
v -2.6667 0.8305 -8
vn -0.1675 0.9835 0.0689
v -2.6667 0.7371 -6.6667
vn -0.1675 0.9835 0.0689
v -1.3333 0.9642 -6.6667
vn -0.1675 0.9835 0.0689
f 487//487 488//488 489//489
v -2.6667 0.8305 -8
vn -0.1825 0.9796 0.0843
v -1.3333 0.9642 -6.6667
vn -0.1825 0.9796 0.0843
v -1.3333 1.0788 -8
vn -0.1825 0.9796 0.0843
f 490//490 491//491 492//492
v -16 0.4413 -6.6667
vn 0.0021 0.9941 -0.1085
v -16 0.5868 -5.3333
vn 0.0021 0.9941 -0.1085
v -14.6667 0.584 -5.3333
vn 0.0021 0.9941 -0.1085
f 493//493 494//494 495//495
v -16 0.4413 -6.6667
vn 0.0006 0.9943 -0.107
v -14.6667 0.584 -5.3333
vn 0.0006 0.9943 -0.107
v -14.6667 0.4404 -6.6667
vn 0.0006 0.9943 -0.107
f 496//496 497//497 498//498
v -14.6667 0.4404 -6.6667
vn 0.0028 0.9943 -0.107
v -14.6667 0.584 -5.3333
vn 0.0028 0.9943 -0.107
v -13.3333 0.5803 -5.3333
vn 0.0028 0.9943 -0.107
f 499//499 500//500 501//501
v -14.6667 0.4404 -6.6667
vn 0.0031 0.9942 -0.1073
v -13.3333 0.5803 -5.3333
vn 0.0031 0.9942 -0.1073
v -13.3333 0.4363 -6.6667
vn 0.0031 0.9942 -0.1073
f 502//502 503//503 504//504
v -13.3333 0.4363 -6.6667
vn 0.0038 0.9942 -0.1073
v -13.3333 0.5803 -5.3333
vn 0.0038 0.9942 -0.1073
v -12 0.5751 -5.3333
vn 0.0038 0.9942 -0.1073
f 505//505 506//506 507//507
v -13.3333 0.4363 -6.6667
vn 0.0035 0.9943 -0.107
v -12 0.5751 -5.3333
vn 0.0035 0.9943 -0.107
v -12 0.4317 -6.6667
vn 0.0035 0.9943 -0.107
f 508//508 509//509 510//510
v -12 0.4317 -6.6667
vn 0.0168 0.9941 -0.107
v -12 0.5751 -5.3333
vn 0.0168 0.9941 -0.107
v -10.6667 0.5526 -5.3333
vn 0.0168 0.9941 -0.107
f 511//511 512//512 513//513
v -12 0.4317 -6.6667
vn 0.006 0.9953 -0.0963
v -10.6667 0.5526 -5.3333
vn 0.006 0.9953 -0.0963
v -10.6667 0.4236 -6.6667
vn 0.006 0.9953 -0.0963
f 514//514 515//515 516//516
v -10.6667 0.4236 -6.6667
vn 0.0131 0.9953 -0.0963
v -10.6667 0.5526 -5.3333
vn 0.0131 0.9953 -0.0963
v -9.3333 0.535 -5.3333
vn 0.0131 0.9953 -0.0963
f 517//517 518//518 519//519
v -10.6667 0.4236 -6.6667
vn -0.0048 0.9969 -0.0785
v -9.3333 0.535 -5.3333
vn -0.0048 0.9969 -0.0785
v -9.3333 0.43 -6.6667
vn -0.0048 0.9969 -0.0785
f 520//520 521//521 522//522
v -9.3333 0.43 -6.6667
vn 0.0123 0.9968 -0.0785
v -9.3333 0.535 -5.3333
vn 0.0123 0.9968 -0.0785
v -8 0.5186 -5.3333
vn 0.0123 0.9968 -0.0785
f 523//523 524//524 525//525
v -9.3333 0.43 -6.6667
vn -0.0146 0.9986 -0.0517
v -8 0.5186 -5.3333
vn -0.0146 0.9986 -0.0517
v -8 0.4496 -6.6667
vn -0.0146 0.9986 -0.0517
f 526//526 527//527 528//528
v -8 0.4496 -6.6667
vn 0.0183 0.9985 -0.0517
v -8 0.5186 -5.3333
vn 0.0183 0.9985 -0.0517
v -6.6667 0.4942 -5.3333
vn 0.0183 0.9985 -0.0517
f 529//529 530//530 531//531
v -8 0.4496 -6.6667
vn -0.0086 0.9997 -0.0249
v -6.6667 0.4942 -5.3333
vn -0.0086 0.9997 -0.0249
v -6.6667 0.461 -6.6667
vn -0.0086 0.9997 -0.0249
f 532//532 533//533 534//534
v -6.6667 0.461 -6.6667
vn 0.0089 0.9997 -0.0249
v -6.6667 0.4942 -5.3333
vn 0.0089 0.9997 -0.0249
v -5.3333 0.4823 -5.3333
vn 0.0089 0.9997 -0.0249
f 535//535 536//536 537//537
v -6.6667 0.461 -6.6667
vn -0.023 0.9997 0.007
v -5.3333 0.4823 -5.3333
vn -0.023 0.9997 0.007
v -5.3333 0.4917 -6.6667
vn -0.023 0.9997 0.007
f 538//538 539//539 540//540
v -5.3333 0.4917 -6.6667
vn -0.0426 0.9991 0.007
v -5.3333 0.4823 -5.3333
vn -0.0426 0.9991 0.007
v -4 0.5392 -5.3333
vn -0.0426 0.9991 0.007
f 541//541 542//542 543//543
v -5.3333 0.4917 -6.6667
vn -0.0775 0.9961 0.0419
v -4 0.5392 -5.3333
vn -0.0775 0.9961 0.0419
v -4 0.5954 -6.6667
vn -0.0775 0.9961 0.0419
f 544//544 545//545 546//546
v -4 0.5954 -6.6667
vn -0.0735 0.9964 0.042
v -4 0.5392 -5.3333
vn -0.0735 0.9964 0.042
v -2.6667 0.6376 -5.3333
vn -0.0735 0.9964 0.042
f 547//547 548//548 549//549
v -4 0.5954 -6.6667
vn -0.1054 0.9917 0.074
v -2.6667 0.6376 -5.3333
vn -0.1054 0.9917 0.074
v -2.6667 0.7371 -6.6667
vn -0.1054 0.9917 0.074
f 550//550 551//551 552//552
v -2.6667 0.7371 -6.6667
vn -0.142 0.9871 0.0736
v -2.6667 0.6376 -5.3333
vn -0.142 0.9871 0.0736
v -1.3333 0.8294 -5.3333
vn -0.142 0.9871 0.0736
f 553//553 554//554 555//555
v -2.6667 0.7371 -6.6667
vn -0.1671 0.9809 0.0992
v -1.3333 0.8294 -5.3333
vn -0.1671 0.9809 0.0992
v -1.3333 0.9642 -6.6667
vn -0.1671 0.9809 0.0992
f 556//556 557//557 558//558
v -16 0.5868 -5.3333
vn 0.002 0.9878 -0.1554
v -16 0.7965 -4
vn 0.002 0.9878 -0.1554
v -14.6667 0.7938 -4
vn 0.002 0.9878 -0.1554
f 559//559 560//560 561//561
v -16 0.5868 -5.3333
vn 0.0021 0.9878 -0.1555
v -14.6667 0.7938 -4
vn 0.0021 0.9878 -0.1555
v -14.6667 0.584 -5.3333
vn 0.0021 0.9878 -0.1555
f 562//562 563//563 564//564
v -14.6667 0.584 -5.3333
vn 0.0011 0.9878 -0.1555
v -14.6667 0.7938 -4
vn 0.0011 0.9878 -0.1555
v -13.3333 0.7923 -4
vn 0.0011 0.9878 -0.1555
f 565//565 566//566 567//567
v -14.6667 0.584 -5.3333
vn 0.0027 0.9876 -0.1571
v -13.3333 0.7923 -4
vn 0.0027 0.9876 -0.1571
v -13.3333 0.5803 -5.3333
vn 0.0027 0.9876 -0.1571
f 568//568 569//569 570//570
v -13.3333 0.5803 -5.3333
vn 0.0041 0.9876 -0.1571
v -13.3333 0.7923 -4
vn 0.0041 0.9876 -0.1571
v -12 0.7869 -4
vn 0.0041 0.9876 -0.1571
f 571//571 572//572 573//573
v -13.3333 0.5803 -5.3333
vn 0.0038 0.9876 -0.1568
v -12 0.7869 -4
vn 0.0038 0.9876 -0.1568
v -12 0.5751 -5.3333
vn 0.0038 0.9876 -0.1568
f 574//574 575//575 576//576
v -12 0.5751 -5.3333
vn 0.0277 0.9872 -0.1568
v -12 0.7869 -4
vn 0.0277 0.9872 -0.1568
v -10.6667 0.7494 -4
vn 0.0277 0.9872 -0.1568
f 577//577 578//578 579//579
v -12 0.5751 -5.3333
vn 0.0167 0.9891 -0.146
v -10.6667 0.7494 -4
vn 0.0167 0.9891 -0.146
v -10.6667 0.5526 -5.3333
vn 0.0167 0.9891 -0.146
f 580//580 581//581 582//582
v -10.6667 0.5526 -5.3333
vn 0.0319 0.9888 -0.1459
v -10.6667 0.7494 -4
vn 0.0319 0.9888 -0.1459
v -9.3333 0.7065 -4
vn 0.0319 0.9888 -0.1459
f 583//583 584//584 585//585
v -10.6667 0.5526 -5.3333
vn 0.0131 0.9917 -0.1275
v -9.3333 0.7065 -4
vn 0.0131 0.9917 -0.1275
v -9.3333 0.535 -5.3333
vn 0.0131 0.9917 -0.1275
f 586//586 587//587 588//588
v -9.3333 0.535 -5.3333
vn 0.0386 0.9911 -0.1274
v -9.3333 0.7065 -4
vn 0.0386 0.9911 -0.1274
v -8 0.6546 -4
vn 0.0386 0.9911 -0.1274
f 589//589 590//590 591//591
v -9.3333 0.535 -5.3333
vn 0.0122 0.9948 -0.1014
v -8 0.6546 -4
vn 0.0122 0.9948 -0.1014
v -8 0.5186 -5.3333
vn 0.0122 0.9948 -0.1014
f 592//592 593//593 594//594
v -8 0.5186 -5.3333
vn 0.045 0.9938 -0.1013
v -8 0.6546 -4
vn 0.045 0.9938 -0.1013
v -6.6667 0.5943 -4
vn 0.045 0.9938 -0.1013
f 595//595 596//596 597//597
v -8 0.5186 -5.3333
vn 0.0183 0.997 -0.0748
v -6.6667 0.5943 -4
vn 0.0183 0.997 -0.0748
v -6.6667 0.4942 -5.3333
vn 0.0183 0.997 -0.0748
f 598//598 599//599 600//600
v -6.6667 0.4942 -5.3333
vn 0.0446 0.9962 -0.0748
v -6.6667 0.5943 -4
vn 0.0446 0.9962 -0.0748
v -5.3333 0.5346 -4
vn 0.0446 0.9962 -0.0748
f 601//601 602//602 603//603
v -6.6667 0.4942 -5.3333
vn 0.0089 0.9992 -0.0392
v -5.3333 0.5346 -4
vn 0.0089 0.9992 -0.0392
v -5.3333 0.4823 -5.3333
vn 0.0089 0.9992 -0.0392
f 604//604 605//605 606//606
v -5.3333 0.4823 -5.3333
vn 0.0152 0.9991 -0.0392
v -5.3333 0.5346 -4
vn 0.0152 0.9991 -0.0392
v -4 0.5143 -4
vn 0.0152 0.9991 -0.0392
f 607//607 608//608 609//609
v -5.3333 0.4823 -5.3333
vn -0.0426 0.9989 0.0187
v -4 0.5143 -4
vn -0.0426 0.9989 0.0187
v -4 0.5392 -5.3333
vn -0.0426 0.9989 0.0187
f 610//610 611//611 612//612
v -4 0.5392 -5.3333
vn -0.01 0.9998 0.0187
v -4 0.5143 -4
vn -0.01 0.9998 0.0187
v -2.6667 0.5277 -4
vn -0.01 0.9998 0.0187
f 613//613 614//614 615//615
v -4 0.5392 -5.3333
vn -0.0733 0.9939 0.0819
v -2.6667 0.5277 -4
vn -0.0733 0.9939 0.0819
v -2.6667 0.6376 -5.3333
vn -0.0733 0.9939 0.0819
f 616//616 617//617 618//618
v -2.6667 0.6376 -5.3333
vn -0.09 0.9926 0.0818
v -2.6667 0.5277 -4
vn -0.09 0.9926 0.0818
v -1.3333 0.6486 -4
vn -0.09 0.9926 0.0818
f 619//619 620//620 621//621
v -2.6667 0.6376 -5.3333
vn -0.1411 0.981 0.133
v -1.3333 0.6486 -4
vn -0.1411 0.981 0.133
v -1.3333 0.8294 -5.3333
vn -0.1411 0.981 0.133
f 622//622 623//623 624//624
v -16 0.7965 -4
vn 0.0012 0.9851 -0.172
v -16 1.0293 -2.6667
vn 0.0012 0.9851 -0.172
v -14.6667 1.0277 -2.6667
vn 0.0012 0.9851 -0.172
f 625//625 626//626 627//627
v -16 0.7965 -4
vn 0.002 0.985 -0.1728
v -14.6667 1.0277 -2.6667
vn 0.002 0.985 -0.1728
v -14.6667 0.7938 -4
vn 0.002 0.985 -0.1728
f 628//628 629//629 630//630
v -14.6667 0.7938 -4
vn 0 0.985 -0.1728
v -14.6667 1.0277 -2.6667
vn 0 0.985 -0.1728
v -13.3333 1.0276 -2.6667
vn 0 0.985 -0.1728
f 631//631 632//632 633//633
v -14.6667 0.7938 -4
vn 0.0011 0.9848 -0.1738
v -13.3333 1.0276 -2.6667
vn 0.0011 0.9848 -0.1738
v -13.3333 0.7923 -4
vn 0.0011 0.9848 -0.1738
f 634//634 635//635 636//636
v -13.3333 0.7923 -4
vn 0.0046 0.9848 -0.1738
v -13.3333 1.0276 -2.6667
vn 0.0046 0.9848 -0.1738
v -12 1.0214 -2.6667
vn 0.0046 0.9848 -0.1738
f 637//637 638//638 639//639
v -13.3333 0.7923 -4
vn 0.004 0.9849 -0.1732
v -12 1.0214 -2.6667
vn 0.004 0.9849 -0.1732
v -12 0.7869 -4
vn 0.004 0.9849 -0.1732
f 640//640 641//641 642//642
v -12 0.7869 -4
vn 0.0365 0.9842 -0.1731
v -12 1.0214 -2.6667
vn 0.0365 0.9842 -0.1731
v -10.6667 0.972 -2.6667
vn 0.0365 0.9842 -0.1731
f 643//643 644//644 645//645
v -12 0.7869 -4
vn 0.0277 0.986 -0.1646
v -10.6667 0.972 -2.6667
vn 0.0277 0.986 -0.1646
v -10.6667 0.7494 -4
vn 0.0277 0.986 -0.1646
f 646//646 647//647 648//648
v -10.6667 0.7494 -4
vn 0.0485 0.9852 -0.1644
v -10.6667 0.972 -2.6667
vn 0.0485 0.9852 -0.1644
v -9.3333 0.9064 -2.6667
vn 0.0485 0.9852 -0.1644
f 649//649 650//650 651//651
v -10.6667 0.7494 -4
vn 0.0318 0.9884 -0.1482
v -9.3333 0.9064 -2.6667
vn 0.0318 0.9884 -0.1482
v -9.3333 0.7065 -4
vn 0.0318 0.9884 -0.1482
f 652//652 653//653 654//654
v -9.3333 0.7065 -4
vn 0.0604 0.9871 -0.148
v -9.3333 0.9064 -2.6667
vn 0.0604 0.9871 -0.148
v -8 0.8248 -2.6667
vn 0.0604 0.9871 -0.148
f 655//655 656//656 657//657
v -9.3333 0.7065 -4
vn 0.0386 0.9912 -0.1265
v -8 0.8248 -2.6667
vn 0.0386 0.9912 -0.1265
v -8 0.6546 -4
vn 0.0386 0.9912 -0.1265
f 658//658 659//659 660//660
v -8 0.6546 -4
vn 0.0684 0.9896 -0.1263
v -8 0.8248 -2.6667
vn 0.0684 0.9896 -0.1263
v -6.6667 0.7326 -2.6667
vn 0.0684 0.9896 -0.1263
f 661//661 662//662 663//663
v -8 0.6546 -4
vn 0.045 0.9937 -0.1031
v -6.6667 0.7326 -2.6667
vn 0.045 0.9937 -0.1031
v -6.6667 0.5943 -4
vn 0.045 0.9937 -0.1031
f 664//664 665//665 666//666
v -6.6667 0.5943 -4
vn 0.0777 0.9917 -0.1029
v -6.6667 0.7326 -2.6667
vn 0.0777 0.9917 -0.1029
v -5.3333 0.6281 -2.6667
vn 0.0777 0.9917 -0.1029
f 667//667 668//668 669//669
v -6.6667 0.5943 -4
vn 0.0446 0.9966 -0.0699
v -5.3333 0.6281 -2.6667
vn 0.0446 0.9966 -0.0699
v -5.3333 0.5346 -4
vn 0.0446 0.9966 -0.0699
f 670//670 671//671 672//672
v -5.3333 0.5346 -4
vn 0.0796 0.9944 -0.0697
v -5.3333 0.6281 -2.6667
vn 0.0796 0.9944 -0.0697
v -4 0.5214 -2.6667
vn 0.0796 0.9944 -0.0697
f 673//673 674//674 675//675
v -5.3333 0.5346 -4
vn 0.0152 0.9999 -0.0053
v -4 0.5214 -2.6667
vn 0.0152 0.9999 -0.0053
v -4 0.5143 -4
vn 0.0152 0.9999 -0.0053
f 676//676 677//677 678//678
v -4 0.5143 -4
vn 0.0655 0.9978 -0.0053
v -4 0.5214 -2.6667
vn 0.0655 0.9978 -0.0053
v -2.6667 0.4339 -2.6667
vn 0.0655 0.9978 -0.0053
f 679//679 680//680 681//681
v -4 0.5143 -4
vn -0.01 0.9975 0.0702
v -2.6667 0.4339 -2.6667
vn -0.01 0.9975 0.0702
v -2.6667 0.5277 -4
vn -0.01 0.9975 0.0702
f 682//682 683//683 684//684
v -2.6667 0.5277 -4
vn -0.0198 0.9973 0.0701
v -2.6667 0.4339 -2.6667
vn -0.0198 0.9973 0.0701
v -1.3333 0.4605 -2.6667
vn -0.0198 0.9973 0.0701
f 685//685 686//686 687//687
v -2.6667 0.5277 -4
vn -0.0894 0.9862 0.1392
v -1.3333 0.4605 -2.6667
vn -0.0894 0.9862 0.1392
v -1.3333 0.6486 -4
vn -0.0894 0.9862 0.1392
f 688//688 689//689 690//690
v -16 1.0293 -2.6667
vn 0.0004 0.9797 -0.2005
v -16 1.3021 -1.3333
vn 0.0004 0.9797 -0.2005
v -14.6667 1.3016 -1.3333
vn 0.0004 0.9797 -0.2005
f 691//691 692//692 693//693
v -16 1.0293 -2.6667
vn 0.0012 0.9795 -0.2012
v -14.6667 1.3016 -1.3333
vn 0.0012 0.9795 -0.2012
v -14.6667 1.0277 -2.6667
vn 0.0012 0.9795 -0.2012
f 694//694 695//695 696//696
v -14.6667 1.0277 -2.6667
vn -0.0013 0.9795 -0.2012
v -14.6667 1.3016 -1.3333
vn -0.0013 0.9795 -0.2012
v -13.3333 1.3034 -1.3333
vn -0.0013 0.9795 -0.2012
f 697//697 698//698 699//699
v -14.6667 1.0277 -2.6667
vn 0 0.9793 -0.2025
v -13.3333 1.3034 -1.3333
vn 0 0.9793 -0.2025
v -13.3333 1.0276 -2.6667
vn 0 0.9793 -0.2025
f 700//700 701//701 702//702
v -13.3333 1.0276 -2.6667
vn 0.0037 0.9793 -0.2025
v -13.3333 1.3034 -1.3333
vn 0.0037 0.9793 -0.2025
v -12 1.2984 -1.3333
vn 0.0037 0.9793 -0.2025
f 703//703 704//704 705//705
v -13.3333 1.0276 -2.6667
vn 0.0046 0.9791 -0.2034
v -12 1.2984 -1.3333
vn 0.0046 0.9791 -0.2034
v -12 1.0214 -2.6667
vn 0.0046 0.9791 -0.2034
f 706//706 707//707 708//708
v -12 1.0214 -2.6667
vn 0.0346 0.9785 -0.2033
v -12 1.2984 -1.3333
vn 0.0346 0.9785 -0.2033
v -10.6667 1.2513 -1.3333
vn 0.0346 0.9785 -0.2033
f 709//709 710//710 711//711
v -12 1.0214 -2.6667
vn 0.0363 0.9781 -0.2049
v -10.6667 1.2513 -1.3333
vn 0.0363 0.9781 -0.2049
v -10.6667 0.972 -2.6667
vn 0.0363 0.9781 -0.2049
f 712//712 713//713 714//714
v -10.6667 0.972 -2.6667
vn 0.0557 0.9772 -0.2047
v -10.6667 1.2513 -1.3333
vn 0.0557 0.9772 -0.2047
v -9.3333 1.1753 -1.3333
vn 0.0557 0.9772 -0.2047
f 715//715 716//716 717//717
v -10.6667 0.972 -2.6667
vn 0.0482 0.9791 -0.1975
v -9.3333 1.1753 -1.3333
vn 0.0482 0.9791 -0.1975
v -9.3333 0.9064 -2.6667
vn 0.0482 0.9791 -0.1975
f 718//718 719//719 720//720
v -9.3333 0.9064 -2.6667
vn 0.0742 0.9776 -0.1972
v -9.3333 1.1753 -1.3333
vn 0.0742 0.9776 -0.1972
v -8 1.0741 -1.3333
vn 0.0742 0.9776 -0.1972
f 721//721 722//722 723//723
v -9.3333 0.9064 -2.6667
vn 0.06 0.9812 -0.1835
v -8 1.0741 -1.3333
vn 0.06 0.9812 -0.1835
v -8 0.8248 -2.6667
vn 0.06 0.9812 -0.1835
f 724//724 725//725 726//726
v -8 0.8248 -2.6667
vn 0.0838 0.9795 -0.1832
v -8 1.0741 -1.3333
vn 0.0838 0.9795 -0.1832
v -6.6667 0.96 -1.3333
vn 0.0838 0.9795 -0.1832
f 727//727 728//728 729//729
v -8 0.8248 -2.6667
vn 0.068 0.9835 -0.1677
v -6.6667 0.96 -1.3333
vn 0.068 0.9835 -0.1677
v -6.6667 0.7326 -2.6667
vn 0.068 0.9835 -0.1677
f 730//730 731//731 732//732
v -6.6667 0.7326 -2.6667
vn 0.1025 0.9806 -0.1672
v -6.6667 0.96 -1.3333
vn 0.1025 0.9806 -0.1672
v -5.3333 0.8206 -1.3333
vn 0.1025 0.9806 -0.1672
f 733//733 734//734 735//735
v -6.6667 0.7326 -2.6667
vn 0.0773 0.9868 -0.1424
v -5.3333 0.8206 -1.3333
vn 0.0773 0.9868 -0.1424
v -5.3333 0.6281 -2.6667
vn 0.0773 0.9868 -0.1424
f 736//736 737//737 738//738
v -5.3333 0.6281 -2.6667
vn 0.134 0.9808 -0.1416
v -5.3333 0.8206 -1.3333
vn 0.134 0.9808 -0.1416
v -4 0.6384 -1.3333
vn 0.134 0.9808 -0.1416
f 739//739 740//740 741//741
v -5.3333 0.6281 -2.6667
vn 0.0795 0.993 -0.0871
v -4 0.6384 -1.3333
vn 0.0795 0.993 -0.0871
v -4 0.5214 -2.6667
vn 0.0795 0.993 -0.0871
f 742//742 743//743 744//744
v -4 0.5214 -2.6667
vn 0.136 0.9869 -0.0866
v -4 0.6384 -1.3333
vn 0.136 0.9869 -0.0866
v -2.6667 0.4546 -1.3333
vn 0.136 0.9869 -0.0866
f 745//745 746//746 747//747
v -4 0.5214 -2.6667
vn 0.0655 0.9977 -0.0155
v -2.6667 0.4546 -1.3333
vn 0.0655 0.9977 -0.0155
v -2.6667 0.4339 -2.6667
vn 0.0655 0.9977 -0.0155
f 748//748 749//749 750//750
v -2.6667 0.4339 -2.6667
vn 0.1183 0.9929 -0.0154
v -2.6667 0.4546 -1.3333
vn 0.1183 0.9929 -0.0154
v -1.3333 0.2957 -1.3333
vn 0.1183 0.9929 -0.0154
f 751//751 752//752 753//753
v -2.6667 0.4339 -2.6667
vn -0.0197 0.9923 0.1226
v -1.3333 0.2957 -1.3333
vn -0.0197 0.9923 0.1226
v -1.3333 0.4605 -2.6667
vn -0.0197 0.9923 0.1226
f 754//754 755//755 756//756
v -1.3333 0.2957 -1.3333
vn 0.1745 0.9846 -0.0051
v -1.3333 0.3026 0
vn 0.1745 0.9846 -0.0051
v 0 0.0664 0
vn 0.1745 0.9846 -0.0051
f 757//757 758//758 759//759
v -1.3333 0.2957 -1.3333
vn -0.0055 0.9846 0.1748
v 0 0.0664 0
vn -0.0055 0.9846 0.1748
v 0 0.3032 -1.3333
vn -0.0055 0.9846 0.1748
f 760//760 761//761 762//762
g dirt
usemtl dirt
v -1.3333 1.2927 -16
vn -0.1785 0.9839 0.0007
v -1.3333 1.2917 -14.6667
vn -0.1785 0.9839 0.0007
v 0 1.5337 -14.6667
vn -0.1785 0.9839 0.0007
f 763//763 764//764 765//765
v -1.3333 1.2927 -16
vn -0.1783 0.984 0.0005
v 0 1.5337 -14.6667
vn -0.1783 0.984 0.0005
v 0 1.5343 -16
vn -0.1783 0.984 0.0005
f 766//766 767//767 768//768
v -1.3333 1.2917 -14.6667
vn -0.1788 0.9839 0.0005
v -1.3333 1.2911 -13.3333
vn -0.1788 0.9839 0.0005
v 0 1.5334 -13.3333
vn -0.1788 0.9839 0.0005
f 769//769 770//770 771//771
v -1.3333 1.2917 -14.6667
vn -0.1785 0.9839 0.0002
v 0 1.5334 -13.3333
vn -0.1785 0.9839 0.0002
v 0 1.5337 -14.6667
vn -0.1785 0.9839 0.0002
f 772//772 773//773 774//774
v -1.3333 1.2911 -13.3333
vn -0.1791 0.9838 0.0027
v -1.3333 1.2875 -12
vn -0.1791 0.9838 0.0027
v 0 1.5302 -12
vn -0.1791 0.9838 0.0027
f 775//775 776//776 777//777
v -1.3333 1.2911 -13.3333
vn -0.1788 0.9839 0.0024
v 0 1.5302 -12
vn -0.1788 0.9839 0.0024
v 0 1.5334 -13.3333
vn -0.1788 0.9839 0.0024
f 778//778 779//779 780//780
v -1.3333 1.2875 -12
vn -0.1776 0.9837 0.028
v -1.3333 1.2495 -10.6667
vn -0.1776 0.9837 0.028
v 0 1.4903 -10.6667
vn -0.1776 0.9837 0.028
f 781//781 782//782 783//783
v -1.3333 1.2875 -12
vn -0.179 0.9834 0.0295
v 0 1.4903 -10.6667
vn -0.179 0.9834 0.0295
v 0 1.5302 -12
vn -0.179 0.9834 0.0295
f 784//784 785//785 786//786
v -1.3333 1.2495 -10.6667
vn -0.1686 0.9843 0.0514
v -1.3333 1.1799 -9.3333
vn -0.1686 0.9843 0.0514
v 0 1.4083 -9.3333
vn -0.1686 0.9843 0.0514
f 787//787 788//788 789//789
v -1.3333 1.2495 -10.6667
vn -0.1774 0.9823 0.0603
v 0 1.4083 -9.3333
vn -0.1774 0.9823 0.0603
v 0 1.4903 -10.6667
vn -0.1774 0.9823 0.0603
f 790//790 791//791 792//792
v -1.3333 1.1799 -9.3333
vn -0.1638 0.9837 0.0746
v -1.3333 1.0788 -8
vn -0.1638 0.9837 0.0746
v 0 1.3008 -8
vn -0.1638 0.9837 0.0746
f 793//793 794//794 795//795
v -1.3333 1.1799 -9.3333
vn -0.1683 0.9825 0.0792
v 0 1.3008 -8
vn -0.1683 0.9825 0.0792
v 0 1.4083 -9.3333
vn -0.1683 0.9825 0.0792
f 796//796 797//797 798//798
v -1.3333 1.0788 -8
vn -0.1583 0.9838 0.0846
v -1.3333 0.9642 -6.6667
vn -0.1583 0.9838 0.0846
v 0 1.1787 -6.6667
vn -0.1583 0.9838 0.0846
f 799//799 800//800 801//801
v -1.3333 1.0788 -8
vn -0.1635 0.9824 0.09
v 0 1.1787 -6.6667
vn -0.1635 0.9824 0.09
v 0 1.3008 -8
vn -0.1635 0.9824 0.09
f 802//802 803//803 804//804
v -1.3333 0.9642 -6.6667
vn -0.1478 0.984 0.0995
v -1.3333 0.8294 -5.3333
vn -0.1478 0.984 0.0995
v 0 1.0297 -5.3333
vn -0.1478 0.984 0.0995
f 805//805 806//806 807//807
v -1.3333 0.9642 -6.6667
vn -0.1579 0.9813 0.1097
v 0 1.0297 -5.3333
vn -0.1579 0.9813 0.1097
v 0 1.1787 -6.6667
vn -0.1579 0.9813 0.1097
f 808//808 809//809 810//810
v -1.3333 0.8294 -5.3333
vn -0.1468 0.9771 0.154
v 0 0.8196 -4
vn -0.1468 0.9771 0.154
v 0 1.0297 -5.3333
vn -0.1468 0.9771 0.154
f 811//811 812//812 813//813
v -16 1.3021 -1.3333
vn 0.0019 0.988 -0.1544
v -16 1.5105 0
vn 0.0019 0.988 -0.1544
v -14.6667 1.508 0
vn 0.0019 0.988 -0.1544
f 814//814 815//815 816//816
v -16 1.3021 -1.3333
vn 0.0004 0.9882 -0.153
v -14.6667 1.508 0
vn 0.0004 0.9882 -0.153
v -14.6667 1.3016 -1.3333
vn 0.0004 0.9882 -0.153
f 817//817 818//818 819//819
v -14.6667 1.3016 -1.3333
vn 0.0007 0.9882 -0.153
v -14.6667 1.508 0
vn 0.0007 0.9882 -0.153
v -13.3333 1.5071 0
vn 0.0007 0.9882 -0.153
f 820//820 821//821 822//822
v -14.6667 1.3016 -1.3333
vn -0.0014 0.9885 -0.151
v -13.3333 1.5071 0
vn -0.0014 0.9885 -0.151
v -13.3333 1.3034 -1.3333
vn -0.0014 0.9885 -0.151
f 823//823 824//824 825//825
v -13.3333 1.3034 -1.3333
vn 0.0002 0.9885 -0.151
v -13.3333 1.5071 0
vn 0.0002 0.9885 -0.151
v -12 1.5068 0
vn 0.0002 0.9885 -0.151
f 826//826 827//827 828//828
v -13.3333 1.3034 -1.3333
vn 0.0037 0.988 -0.1544
v -12 1.5068 0
vn 0.0037 0.988 -0.1544
v -12 1.2984 -1.3333
vn 0.0037 0.988 -0.1544
f 829//829 830//830 831//831
v -12 1.2984 -1.3333
vn 0.0202 0.9878 -0.1544
v -12 1.5068 0
vn 0.0202 0.9878 -0.1544
v -10.6667 1.4796 0
vn 0.0202 0.9878 -0.1544
f 832//832 833//833 834//834
v -12 1.2984 -1.3333
vn 0.0348 0.9851 -0.1687
v -10.6667 1.4796 0
vn 0.0348 0.9851 -0.1687
v -10.6667 1.2513 -1.3333
vn 0.0348 0.9851 -0.1687
f 835//835 836//836 837//837
v -10.6667 1.2513 -1.3333
vn 0.0593 0.9839 -0.1685
v -10.6667 1.4796 0
vn 0.0593 0.9839 -0.1685
v -9.3333 1.3993 0
vn 0.0593 0.9839 -0.1685
f 838//838 839//839 840//840
v -10.6667 1.2513 -1.3333
vn 0.0561 0.9846 -0.1654
v -9.3333 1.3993 0
vn 0.0561 0.9846 -0.1654
v -9.3333 1.1753 -1.3333
vn 0.0561 0.9846 -0.1654
f 841//841 842//842 843//843
v -9.3333 1.1753 -1.3333
vn 0.082 0.9829 -0.1651
v -9.3333 1.3993 0
vn 0.082 0.9829 -0.1651
v -8 1.288 0
vn 0.082 0.9829 -0.1651
f 844//844 845//845 846//846
v -9.3333 1.1753 -1.3333
vn 0.0747 0.9846 -0.1579
v -8 1.288 0
vn 0.0747 0.9846 -0.1579
v -8 1.0741 -1.3333
vn 0.0747 0.9846 -0.1579
f 847//847 848//848 849//849
v -8 1.0741 -1.3333
vn 0.0906 0.9833 -0.1577
v -8 1.288 0
vn 0.0906 0.9833 -0.1577
v -6.6667 1.1652 0
vn 0.0906 0.9833 -0.1577
f 850//850 851//851 852//852
v -8 1.0741 -1.3333
vn 0.0843 0.9848 -0.1516
v -6.6667 1.1652 0
vn 0.0843 0.9848 -0.1516
v -6.6667 0.96 -1.3333
vn 0.0843 0.9848 -0.1516
f 853//853 854//854 855//855
v -6.6667 0.96 -1.3333
vn 0.1034 0.9831 -0.1513
v -6.6667 1.1652 0
vn 0.1034 0.9831 -0.1513
v -5.3333 1.0249 0
vn 0.1034 0.9831 -0.1513
f 856//856 857//857 858//858
v -6.6667 0.96 -1.3333
vn 0.1028 0.9832 -0.1507
v -5.3333 1.0249 0
vn 0.1028 0.9832 -0.1507
v -5.3333 0.8206 -1.3333
vn 0.1028 0.9832 -0.1507
f 859//859 860//860 861//861
v -5.3333 0.8206 -1.3333
vn 0.1529 0.9768 -0.1497
v -5.3333 1.0249 0
vn 0.1529 0.9768 -0.1497
v -4 0.8162 0
vn 0.1529 0.9768 -0.1497
f 862//862 863//863 864//864
