# litt worldgen asset - generated by math only
# kit: template/tools/worldgen/
mtllib materials.mtl
o knight
v 0.2406 0.55 -0.2109
v 0.2406 1.75 -0.2109
v 0.2406 1.75 0.2091
v 0.2406 0.55 -0.2109
v 0.2406 1.75 0.2091
v 0.2406 0.55 0.2091
v -0.3194 0.55 -0.2109
v -0.3194 0.55 0.2091
v -0.3194 1.75 0.2091
v -0.3194 0.55 -0.2109
v -0.3194 1.75 0.2091
v -0.3194 1.75 -0.2109
v 0.2406 1.75 0.2091
v 0.2406 1.75 -0.2109
v -0.3194 1.75 -0.2109
v 0.2406 1.75 0.2091
v -0.3194 1.75 -0.2109
v -0.3194 1.75 0.2091
v 0.2406 0.55 -0.2109
v 0.2406 0.55 0.2091
v -0.3194 0.55 0.2091
v 0.2406 0.55 -0.2109
v -0.3194 0.55 0.2091
v -0.3194 0.55 -0.2109
v 0.2406 0.55 0.2091
v 0.2406 1.75 0.2091
v -0.3194 1.75 0.2091
v 0.2406 0.55 0.2091
v -0.3194 1.75 0.2091
v -0.3194 0.55 0.2091
v 0.2406 0.55 -0.2109
v -0.3194 0.55 -0.2109
v -0.3194 1.75 -0.2109
v 0.2406 0.55 -0.2109
v -0.3194 1.75 -0.2109
v 0.2406 1.75 -0.2109
v 0.0605 2.1175 -0.0009
v -0.0394 2.15 -0.0009
v 0.0312 2.1175 0.0698
v 0.0312 2.1175 0.0698
v -0.0394 2.15 -0.0009
v -0.0394 2.1175 0.0991
v -0.0394 2.1175 0.0991
v -0.0394 2.15 -0.0009
v -0.1101 2.1175 0.0698
v -0.1101 2.1175 0.0698
v -0.0394 2.15 -0.0009
v -0.1394 2.1175 -0.0009
v -0.1394 2.1175 -0.0009
v -0.0394 2.15 -0.0009
v -0.1101 2.1175 -0.0715
v -0.1101 2.1175 -0.0715
v -0.0394 2.15 -0.0009
v -0.0394 2.1175 -0.1008
v -0.0394 2.1175 -0.1008
v -0.0394 2.15 -0.0009
v 0.0312 2.1175 -0.0715
v 0.0312 2.1175 -0.0715
v -0.0394 2.15 -0.0009
v 0.0605 2.1175 -0.0009
v 0.1223 2.0325 -0.0009
v 0.0605 2.1175 -0.0009
v 0.0312 2.1175 0.0698
v 0.1223 2.0325 -0.0009
v 0.0312 2.1175 0.0698
v 0.0749 2.0325 0.1135
v 0.0749 2.0325 0.1135
v 0.0312 2.1175 0.0698
v -0.0394 2.1175 0.0991
v 0.0749 2.0325 0.1135
v -0.0394 2.1175 0.0991
v -0.0394 2.0325 0.1608
v -0.0394 2.0325 0.1608
v -0.0394 2.1175 0.0991
v -0.1101 2.1175 0.0698
v -0.0394 2.0325 0.1608
v -0.1101 2.1175 0.0698
v -0.1538 2.0325 0.1135
v -0.1538 2.0325 0.1135
v -0.1101 2.1175 0.0698
v -0.1394 2.1175 -0.0009
v -0.1538 2.0325 0.1135
v -0.1394 2.1175 -0.0009
v -0.2011 2.0325 -0.0009
v -0.2011 2.0325 -0.0009
v -0.1394 2.1175 -0.0009
v -0.1101 2.1175 -0.0715
v -0.2011 2.0325 -0.0009
v -0.1101 2.1175 -0.0715
v -0.1538 2.0325 -0.1152
v -0.1538 2.0325 -0.1152
v -0.1101 2.1175 -0.0715
v -0.0394 2.1175 -0.1008
v -0.1538 2.0325 -0.1152
v -0.0394 2.1175 -0.1008
v -0.0394 2.0325 -0.1625
v -0.0394 2.0325 -0.1625
v -0.0394 2.1175 -0.1008
v 0.0312 2.1175 -0.0715
v -0.0394 2.0325 -0.1625
v 0.0312 2.1175 -0.0715
v 0.0749 2.0325 -0.1152
v 0.0749 2.0325 -0.1152
v 0.0312 2.1175 -0.0715
v 0.0605 2.1175 -0.0009
v 0.0749 2.0325 -0.1152
v 0.0605 2.1175 -0.0009
v 0.1223 2.0325 -0.0009
v 0.1223 1.9275 -0.0009
v 0.1223 2.0325 -0.0009
v 0.0749 2.0325 0.1135
v 0.1223 1.9275 -0.0009
v 0.0749 2.0325 0.1135
v 0.0749 1.9275 0.1135
v 0.0749 1.9275 0.1135
v 0.0749 2.0325 0.1135
v -0.0394 2.0325 0.1608
v 0.0749 1.9275 0.1135
v -0.0394 2.0325 0.1608
v -0.0394 1.9275 0.1608
v -0.0394 1.9275 0.1608
v -0.0394 2.0325 0.1608
v -0.1538 2.0325 0.1135
v -0.0394 1.9275 0.1608
v -0.1538 2.0325 0.1135
v -0.1538 1.9275 0.1135
v -0.1538 1.9275 0.1135
v -0.1538 2.0325 0.1135
v -0.2011 2.0325 -0.0009
v -0.1538 1.9275 0.1135
v -0.2011 2.0325 -0.0009
v -0.2011 1.9275 -0.0009
v -0.2011 1.9275 -0.0009
v -0.2011 2.0325 -0.0009
v -0.1538 2.0325 -0.1152
v -0.2011 1.9275 -0.0009
v -0.1538 2.0325 -0.1152
v -0.1538 1.9275 -0.1152
v -0.1538 1.9275 -0.1152
v -0.1538 2.0325 -0.1152
v -0.0394 2.0325 -0.1625
v -0.1538 1.9275 -0.1152
v -0.0394 2.0325 -0.1625
v -0.0394 1.9275 -0.1625
v -0.0394 1.9275 -0.1625
v -0.0394 2.0325 -0.1625
v 0.0749 2.0325 -0.1152
v -0.0394 1.9275 -0.1625
v 0.0749 2.0325 -0.1152
v 0.0749 1.9275 -0.1152
v 0.0749 1.9275 -0.1152
v 0.0749 2.0325 -0.1152
v 0.1223 2.0325 -0.0009
v 0.0749 1.9275 -0.1152
v 0.1223 2.0325 -0.0009
v 0.1223 1.9275 -0.0009
v 0.0605 1.8425 -0.0009
v 0.1223 1.9275 -0.0009
v 0.0749 1.9275 0.1135
v 0.0605 1.8425 -0.0009
v 0.0749 1.9275 0.1135
v 0.0312 1.8425 0.0698
v 0.0312 1.8425 0.0698
v 0.0749 1.9275 0.1135
v -0.0394 1.9275 0.1608
v 0.0312 1.8425 0.0698
v -0.0394 1.9275 0.1608
v -0.0394 1.8425 0.0991
v -0.0394 1.8425 0.0991
v -0.0394 1.9275 0.1608
v -0.1538 1.9275 0.1135
v -0.0394 1.8425 0.0991
v -0.1538 1.9275 0.1135
v -0.1101 1.8425 0.0698
v -0.1101 1.8425 0.0698
v -0.1538 1.9275 0.1135
v -0.2011 1.9275 -0.0009
v -0.1101 1.8425 0.0698
v -0.2011 1.9275 -0.0009
v -0.1394 1.8425 -0.0009
v -0.1394 1.8425 -0.0009
v -0.2011 1.9275 -0.0009
v -0.1538 1.9275 -0.1152
v -0.1394 1.8425 -0.0009
v -0.1538 1.9275 -0.1152
v -0.1101 1.8425 -0.0715
v -0.1101 1.8425 -0.0715
v -0.1538 1.9275 -0.1152
v -0.0394 1.9275 -0.1625
v -0.1101 1.8425 -0.0715
v -0.0394 1.9275 -0.1625
v -0.0394 1.8425 -0.1008
v -0.0394 1.8425 -0.1008
v -0.0394 1.9275 -0.1625
v 0.0749 1.9275 -0.1152
v -0.0394 1.8425 -0.1008
v 0.0749 1.9275 -0.1152
v 0.0312 1.8425 -0.0715
v 0.0312 1.8425 -0.0715
v 0.0749 1.9275 -0.1152
v 0.1223 1.9275 -0.0009
v 0.0312 1.8425 -0.0715
v 0.1223 1.9275 -0.0009
v 0.0605 1.8425 -0.0009
v 0.0605 1.8425 -0.0009
v 0.0312 1.8425 0.0698
v -0.0394 1.81 -0.0009
v 0.0312 1.8425 0.0698
v -0.0394 1.8425 0.0991
v -0.0394 1.81 -0.0009
v -0.0394 1.8425 0.0991
v -0.1101 1.8425 0.0698
v -0.0394 1.81 -0.0009
v -0.1101 1.8425 0.0698
v -0.1394 1.8425 -0.0009
v -0.0394 1.81 -0.0009
v -0.1394 1.8425 -0.0009
v -0.1101 1.8425 -0.0715
v -0.0394 1.81 -0.0009
v -0.1101 1.8425 -0.0715
v -0.0394 1.8425 -0.1008
v -0.0394 1.81 -0.0009
v -0.0394 1.8425 -0.1008
v 0.0312 1.8425 -0.0715
v -0.0394 1.81 -0.0009
v 0.0312 1.8425 -0.0715
v 0.0605 1.8425 -0.0009
v -0.0394 1.81 -0.0009
v -0.1494 2.18 -0.1409
v -0.0394 2.52 -0.0309
v 0.0706 2.18 -0.1409
v 0.0706 2.18 -0.1409
v -0.0394 2.52 -0.0309
v 0.0706 2.18 0.0791
v 0.0706 2.18 0.0791
v -0.0394 2.52 -0.0309
v -0.1494 2.18 0.0791
v -0.1494 2.18 0.0791
v -0.0394 2.52 -0.0309
v -0.1494 2.18 -0.1409
v -0.3294 0.88 -0.0709
v -0.3294 1.68 -0.0709
v -0.3294 1.68 0.0691
v -0.3294 0.88 -0.0709
v -0.3294 1.68 0.0691
v -0.3294 0.88 0.0691
v -0.4694 0.88 -0.0709
v -0.4694 0.88 0.0691
v -0.4694 1.68 0.0691
v -0.4694 0.88 -0.0709
v -0.4694 1.68 0.0691
v -0.4694 1.68 -0.0709
v -0.3294 1.68 0.0691
v -0.3294 1.68 -0.0709
v -0.4694 1.68 -0.0709
v -0.3294 1.68 0.0691
v -0.4694 1.68 -0.0709
v -0.4694 1.68 0.0691
v -0.3294 0.88 -0.0709
v -0.3294 0.88 0.0691
v -0.4694 0.88 0.0691
v -0.3294 0.88 -0.0709
v -0.4694 0.88 0.0691
v -0.4694 0.88 -0.0709
v -0.3294 0.88 0.0691
v -0.3294 1.68 0.0691
v -0.4694 1.68 0.0691
v -0.3294 0.88 0.0691
v -0.4694 1.68 0.0691
v -0.4694 0.88 0.0691
v -0.3294 0.88 -0.0709
v -0.4694 0.88 -0.0709
v -0.4694 1.68 -0.0709
v -0.3294 0.88 -0.0709
v -0.4694 1.68 -0.0709
v -0.3294 1.68 -0.0709
v 0.3906 0.88 -0.0709
v 0.3906 1.68 -0.0709
v 0.3906 1.68 0.0691
v 0.3906 0.88 -0.0709
v 0.3906 1.68 0.0691
v 0.3906 0.88 0.0691
v 0.2506 0.88 -0.0709
v 0.2506 0.88 0.0691
v 0.2506 1.68 0.0691
v 0.2506 0.88 -0.0709
v 0.2506 1.68 0.0691
v 0.2506 1.68 -0.0709
v 0.3906 1.68 0.0691
v 0.3906 1.68 -0.0709
v 0.2506 1.68 -0.0709
v 0.3906 1.68 0.0691
v 0.2506 1.68 -0.0709
v 0.2506 1.68 0.0691
v 0.3906 0.88 -0.0709
v 0.3906 0.88 0.0691
v 0.2506 0.88 0.0691
v 0.3906 0.88 -0.0709
v 0.2506 0.88 0.0691
v 0.2506 0.88 -0.0709
v 0.3906 0.88 0.0691
v 0.3906 1.68 0.0691
v 0.2506 1.68 0.0691
v 0.3906 0.88 0.0691
v 0.2506 1.68 0.0691
v 0.2506 0.88 0.0691
v 0.3906 0.88 -0.0709
v 0.2506 0.88 -0.0709
v 0.2506 1.68 -0.0709
v 0.3906 0.88 -0.0709
v 0.2506 1.68 -0.0709
v 0.3906 1.68 -0.0709
v 0.4556 0.24 -0.0309
v 0.4556 1.2 -0.0309
v 0.4556 1.2 0.0691
v 0.4556 0.24 -0.0309
v 0.4556 1.2 0.0691
v 0.4556 0.24 0.0691
v 0.3856 0.24 -0.0309
v 0.3856 0.24 0.0691
v 0.3856 1.2 0.0691
v 0.3856 0.24 -0.0309
v 0.3856 1.2 0.0691
v 0.3856 1.2 -0.0309
v 0.4556 1.2 0.0691
v 0.4556 1.2 -0.0309
v 0.3856 1.2 -0.0309
v 0.4556 1.2 0.0691
v 0.3856 1.2 -0.0309
v 0.3856 1.2 0.0691
v 0.4556 0.24 -0.0309
v 0.4556 0.24 0.0691
v 0.3856 0.24 0.0691
v 0.4556 0.24 -0.0309
v 0.3856 0.24 0.0691
v 0.3856 0.24 -0.0309
v 0.4556 0.24 0.0691
v 0.4556 1.2 0.0691
v 0.3856 1.2 0.0691
v 0.4556 0.24 0.0691
v 0.3856 1.2 0.0691
v 0.3856 0.24 0.0691
v 0.4556 0.24 -0.0309
v 0.3856 0.24 -0.0309
v 0.3856 1.2 -0.0309
v 0.4556 0.24 -0.0309
v 0.3856 1.2 -0.0309
v 0.4556 1.2 -0.0309
v -0.0894 -0.02 -0.1009
v -0.0894 0.86 -0.1009
v -0.0894 0.86 0.0991
v -0.0894 -0.02 -0.1009
v -0.0894 0.86 0.0991
v -0.0894 -0.02 0.0991
v -0.2694 -0.02 -0.1009
v -0.2694 -0.02 0.0991
v -0.2694 0.86 0.0991
v -0.2694 -0.02 -0.1009
v -0.2694 0.86 0.0991
v -0.2694 0.86 -0.1009
v -0.0894 0.86 0.0991
v -0.0894 0.86 -0.1009
v -0.2694 0.86 -0.1009
v -0.0894 0.86 0.0991
v -0.2694 0.86 -0.1009
v -0.2694 0.86 0.0991
v -0.0894 -0.02 -0.1009
v -0.0894 -0.02 0.0991
v -0.2694 -0.02 0.0991
v -0.0894 -0.02 -0.1009
v -0.2694 -0.02 0.0991
v -0.2694 -0.02 -0.1009
v -0.0894 -0.02 0.0991
v -0.0894 0.86 0.0991
v -0.2694 0.86 0.0991
v -0.0894 -0.02 0.0991
v -0.2694 0.86 0.0991
v -0.2694 -0.02 0.0991
v -0.0894 -0.02 -0.1009
v -0.2694 -0.02 -0.1009
v -0.2694 0.86 -0.1009
v -0.0894 -0.02 -0.1009
v -0.2694 0.86 -0.1009
v -0.0894 0.86 -0.1009
v 0.1906 -0.02 -0.1009
v 0.1906 0.86 -0.1009
v 0.1906 0.86 0.0991
v 0.1906 -0.02 -0.1009
v 0.1906 0.86 0.0991
v 0.1906 -0.02 0.0991
v 0.0106 -0.02 -0.1009
v 0.0106 -0.02 0.0991
v 0.0106 0.86 0.0991
v 0.0106 -0.02 -0.1009
v 0.0106 0.86 0.0991
v 0.0106 0.86 -0.1009
v 0.1906 0.86 0.0991
v 0.1906 0.86 -0.1009
v 0.0106 0.86 -0.1009
v 0.1906 0.86 0.0991
v 0.0106 0.86 -0.1009
v 0.0106 0.86 0.0991
v 0.1906 -0.02 -0.1009
v 0.1906 -0.02 0.0991
v 0.0106 -0.02 0.0991
v 0.1906 -0.02 -0.1009
v 0.0106 -0.02 0.0991
v 0.0106 -0.02 -0.1009
v 0.1906 -0.02 0.0991
v 0.1906 0.86 0.0991
v 0.0106 0.86 0.0991
v 0.1906 -0.02 0.0991
v 0.0106 0.86 0.0991
v 0.0106 -0.02 0.0991
v 0.1906 -0.02 -0.1009
v 0.0106 -0.02 -0.1009
v 0.0106 0.86 -0.1009
v 0.1906 -0.02 -0.1009
v 0.0106 0.86 -0.1009
v 0.1906 0.86 -0.1009
vt 0.154 -0.0441
vt 0.49 -0.0441
vt 0.49 0.0441
vt 0.154 -0.0441
vt 0.49 0.0441
vt 0.154 0.0441
vt 0.154 -0.0441
vt 0.154 0.0441
vt 0.49 0.0441
vt 0.154 -0.0441
vt 0.49 0.0441
vt 0.49 -0.0441
vt 0.0784 0.0441
vt 0.0784 -0.0441
vt -0.0784 -0.0441
vt 0.0784 0.0441
vt -0.0784 -0.0441
vt -0.0784 0.0441
vt 0.0784 -0.0441
vt 0.0784 0.0441
vt -0.0784 0.0441
vt 0.0784 -0.0441
vt -0.0784 0.0441
vt -0.0784 -0.0441
vt 0.0784 0.33
vt 0.0784 1.05
vt -0.0784 1.05
vt 0.0784 0.33
vt -0.0784 1.05
vt -0.0784 0.33
vt 0.0784 0.33
vt -0.0784 0.33
vt -0.0784 1.05
vt 0.0784 0.33
vt -0.0784 1.05
vt 0.0784 1.05
vt 0.0616 -0.0049
vt 0.1176 -0.0049
vt 0.1176 0.0049
vt 0.0616 -0.0049
vt 0.1176 0.0049
vt 0.0616 0.0049
vt 0.0616 -0.0049
vt 0.0616 0.0049
vt 0.1176 0.0049
vt 0.0616 -0.0049
vt 0.1176 0.0049
vt 0.1176 -0.0049
vt -0.0203 0.0049
vt -0.0203 -0.0049
vt -0.0301 -0.0049
vt -0.0203 0.0049
vt -0.0301 -0.0049
vt -0.0301 0.0049
vt -0.0203 -0.0049
vt -0.0203 0.0049
vt -0.0301 0.0049
vt -0.0203 -0.0049
vt -0.0301 0.0049
vt -0.0301 -0.0049
vt -0.0203 0.352
vt -0.0203 0.672
vt -0.0301 0.672
vt -0.0203 0.352
vt -0.0301 0.672
vt -0.0301 0.352
vt -0.0203 0.352
vt -0.0301 0.352
vt -0.0301 0.672
vt -0.0203 0.352
vt -0.0301 0.672
vt -0.0203 0.672
vt 0.0616 -0.0049
vt 0.1176 -0.0049
vt 0.1176 0.0049
vt 0.0616 -0.0049
vt 0.1176 0.0049
vt 0.0616 0.0049
vt 0.0616 -0.0049
vt 0.0616 0.0049
vt 0.1176 0.0049
vt 0.0616 -0.0049
vt 0.1176 0.0049
vt 0.1176 -0.0049
vt 0.0301 0.0049
vt 0.0301 -0.0049
vt 0.0203 -0.0049
vt 0.0301 0.0049
vt 0.0203 -0.0049
vt 0.0203 0.0049
vt 0.0301 -0.0049
vt 0.0301 0.0049
vt 0.0203 0.0049
vt 0.0301 -0.0049
vt 0.0203 0.0049
vt 0.0203 -0.0049
vt 0.0301 0.352
vt 0.0301 0.672
vt 0.0203 0.672
vt 0.0301 0.352
vt 0.0203 0.672
vt 0.0203 0.352
vt 0.0301 0.352
vt 0.0203 0.352
vt 0.0203 0.672
vt 0.0301 0.352
vt 0.0203 0.672
vt 0.0301 0.672
vt 0.0084 -0.0015
vt 0.042 -0.0015
vt 0.042 0.0035
vt 0.0084 -0.0015
vt 0.042 0.0035
vt 0.0084 0.0035
vt 0.0084 -0.0015
vt 0.0084 0.0035
vt 0.042 0.0035
vt 0.0084 -0.0015
vt 0.042 0.0035
vt 0.042 -0.0015
vt 0.0173 0.0035
vt 0.0173 -0.0015
vt 0.0149 -0.0015
vt 0.0173 0.0035
vt 0.0149 -0.0015
vt 0.0149 0.0035
vt 0.0173 -0.0015
vt 0.0173 0.0035
vt 0.0149 0.0035
vt 0.0173 -0.0015
vt 0.0149 0.0035
vt 0.0149 -0.0015
vt 0.0173 0.1152
vt 0.0173 0.576
vt 0.0149 0.576
vt 0.0173 0.1152
vt 0.0149 0.576
vt 0.0149 0.1152
vt 0.0173 0.1152
vt 0.0149 0.1152
vt 0.0149 0.576
vt 0.0173 0.1152
vt 0.0149 0.576
vt 0.0173 0.576
vt -0.0018 -0.01
vt 0.0774 -0.01
vt 0.0774 0.01
vt -0.0018 -0.01
vt 0.0774 0.01
vt -0.0018 0.01
vt -0.0018 -0.01
vt -0.0018 0.01
vt 0.0774 0.01
vt -0.0018 -0.01
vt 0.0774 0.01
vt 0.0774 -0.01
vt -0.0045 0.01
vt -0.0045 -0.01
vt -0.0207 -0.01
vt -0.0045 0.01
vt -0.0207 -0.01
vt -0.0207 0.01
vt -0.0045 -0.01
vt -0.0045 0.01
vt -0.0207 0.01
vt -0.0045 -0.01
vt -0.0207 0.01
vt -0.0207 -0.01
vt -0.0045 -0.0088
vt -0.0045 0.3784
vt -0.0207 0.3784
vt -0.0045 -0.0088
vt -0.0207 0.3784
vt -0.0207 -0.0088
vt -0.0045 -0.0088
vt -0.0207 -0.0088
vt -0.0207 0.3784
vt -0.0045 -0.0088
vt -0.0207 0.3784
vt -0.0045 0.3784
vt -0.0018 -0.01
vt 0.0774 -0.01
vt 0.0774 0.01
vt -0.0018 -0.01
vt 0.0774 0.01
vt -0.0018 0.01
vt -0.0018 -0.01
vt -0.0018 0.01
vt 0.0774 0.01
vt -0.0018 -0.01
vt 0.0774 0.01
vt 0.0774 -0.01
vt 0.0207 0.01
vt 0.0207 -0.01
vt 0.0045 -0.01
vt 0.0207 0.01
vt 0.0045 -0.01
vt 0.0045 0.01
vt 0.0207 -0.01
vt 0.0207 0.01
vt 0.0045 0.01
vt 0.0207 -0.01
vt 0.0045 0.01
vt 0.0045 -0.01
vt 0.0207 -0.0088
vt 0.0207 0.3784
vt 0.0045 0.3784
vt 0.0207 -0.0088
vt 0.0045 0.3784
vt 0.0045 -0.0088
vt 0.0207 -0.0088
vt 0.0045 -0.0088
vt 0.0045 0.3784
vt 0.0207 -0.0088
vt 0.0045 0.3784
vt 0.0207 0.3784
vn 1 0 0
vn 1 0 0
vn -1 0 0
vn -1 0 0
vn 0 1 0
vn 0 1 0
vn 0 -1 0
vn 0 -1 0
vn 0 -0 1
vn 0 0 1
vn 0 0 -1
vn 0 0 -1
vn 0.3065 0.9434 0.127
vn 0.127 0.9434 0.3065
vn -0.127 0.9434 0.3065
vn -0.3065 0.9434 0.127
vn -0.3065 0.9434 -0.127
vn -0.127 0.9434 -0.3065
vn 0.127 0.9434 -0.3065
vn 0.3065 0.9434 -0.127
vn 0.7671 0.5573 0.3177
vn 0.7671 0.5573 0.3177
vn 0.3177 0.5573 0.7671
vn 0.3177 0.5573 0.7671
vn -0.3177 0.5573 0.7671
vn -0.3177 0.5573 0.7671
vn -0.7671 0.5573 0.3177
vn -0.7671 0.5573 0.3177
vn -0.7671 0.5573 -0.3177
vn -0.7671 0.5573 -0.3177
vn -0.3177 0.5573 -0.7671
vn -0.3177 0.5573 -0.7671
vn 0.3177 0.5573 -0.7671
vn 0.3177 0.5573 -0.7671
vn 0.7671 0.5573 -0.3177
vn 0.7671 0.5573 -0.3177
vn 0.9239 -0 0.3827
vn 0.9239 0 0.3827
vn 0.3827 -0 0.9239
vn 0.3827 0 0.9239
vn -0.3827 0 0.9239
vn -0.3827 0 0.9239
vn -0.9239 0 0.3827
vn -0.9239 0 0.3827
vn -0.9239 0 -0.3827
vn -0.9239 0 -0.3827
vn -0.3827 0 -0.9239
vn -0.3827 0 -0.9239
vn 0.3827 0 -0.9239
vn 0.3827 0 -0.9239
vn 0.9239 0 -0.3827
vn 0.9239 0 -0.3827
vn 0.7671 -0.5573 0.3177
vn 0.7671 -0.5573 0.3177
vn 0.3177 -0.5573 0.7671
vn 0.3177 -0.5573 0.7671
vn -0.3177 -0.5573 0.7671
vn -0.3177 -0.5573 0.7671
vn -0.7671 -0.5573 0.3177
vn -0.7671 -0.5573 0.3177
vn -0.7671 -0.5573 -0.3177
vn -0.7671 -0.5573 -0.3177
vn -0.3177 -0.5573 -0.7671
vn -0.3177 -0.5573 -0.7671
vn 0.3177 -0.5573 -0.7671
vn 0.3177 -0.5573 -0.7671
vn 0.7671 -0.5573 -0.3177
vn 0.7671 -0.5573 -0.3177
vn 0.3065 -0.9434 0.127
vn 0.127 -0.9434 0.3065
vn -0.127 -0.9434 0.3065
vn -0.3065 -0.9434 0.127
vn -0.3065 -0.9434 -0.127
vn -0.127 -0.9434 -0.3065
vn 0.127 -0.9434 -0.3065
vn 0.3065 -0.9434 -0.127
vn 0 0.3078 -0.9514
vn 0.9514 0.3078 -0
vn 0 0.3078 0.9514
vn -0.9514 0.3078 0
vn 1 0 0
vn 1 0 0
vn -1 0 0
vn -1 0 0
vn 0 1 0
vn 0 1 0
vn 0 -1 0
vn 0 -1 0
vn 0 -0 1
vn 0 0 1
vn 0 0 -1
vn 0 0 -1
vn 1 0 0
vn 1 0 0
vn -1 0 0
vn -1 0 0
vn 0 1 0
vn 0 1 0
vn 0 -1 0
vn 0 -1 0
vn 0 -0 1
vn 0 0 1
vn 0 0 -1
vn 0 0 -1
vn 1 0 0
vn 1 0 0
vn -1 0 0
vn -1 0 0
vn 0 1 0
vn 0 1 0
vn 0 -1 0
vn 0 -1 0
vn 0 -0 1
vn 0 0 1
vn 0 0 -1
vn 0 0 -1
vn 1 0 0
vn 1 0 0
vn -1 0 0
vn -1 0 0
vn 0 1 0
vn 0 1 0
vn 0 -1 0
vn 0 -1 0
vn 0 -0 1
vn 0 0 1
vn 0 0 -1
vn 0 0 -1
vn 1 0 0
vn 1 0 0
vn -1 0 0
vn -1 0 0
vn 0 1 0
vn 0 1 0
vn 0 -1 0
vn 0 -1 0
vn 0 -0 1
vn 0 0 1
vn 0 0 -1
vn 0 0 -1
g knight_torso
usemtl prop_metal
1/1/1
2/2/1
3/3/1
4/4/2
5/5/2
6/6/2
7/7/3
8/8/3
9/9/3
10/10/4
11/11/4
12/12/4
13/13/5
14/14/5
15/15/5
16/16/6
17/17/6
18/18/6
19/19/7
20/20/7
21/21/7
22/22/8
23/23/8
24/24/8
25/25/9
26/26/9
27/27/9
28/28/10
29/29/10
30/30/10
31/31/11
32/32/11
33/33/11
34/34/12
35/35/12
36/36/12
g knight_head
usemtl prop_metal
f 37//12 38//12 39//12
f 40//13 41//13 42//13
f 43//14 44//14 45//14
f 46//15 47//15 48//15
f 49//16 50//16 51//16
f 52//17 53//17 54//17
f 55//18 56//18 57//18
f 58//19 59//19 60//19
f 61//20 62//20 63//20
f 64//21 65//21 66//21
f 67//22 68//22 69//22
f 70//23 71//23 72//23
f 73//24 74//24 75//24
f 76//25 77//25 78//25
f 79//26 80//26 81//26
f 82//27 83//27 84//27
f 85//28 86//28 87//28
f 88//29 89//29 90//29
f 91//30 92//30 93//30
f 94//31 95//31 96//31
f 97//32 98//32 99//32
f 100//33 101//33 102//33
f 103//34 104//34 105//34
f 106//35 107//35 108//35
f 109//36 110//36 111//36
f 112//37 113//37 114//37
f 115//38 116//38 117//38
f 118//39 119//39 120//39
f 121//40 122//40 123//40
f 124//41 125//41 126//41
f 127//42 128//42 129//42
f 130//43 131//43 132//43
f 133//44 134//44 135//44
f 136//45 137//45 138//45
f 139//46 140//46 141//46
f 142//47 143//47 144//47
f 145//48 146//48 147//48
f 148//49 149//49 150//49
f 151//50 152//50 153//50
f 154//51 155//51 156//51
f 157//52 158//52 159//52
f 160//53 161//53 162//53
f 163//54 164//54 165//54
f 166//55 167//55 168//55
f 169//56 170//56 171//56
f 172//57 173//57 174//57
f 175//58 176//58 177//58
f 178//59 179//59 180//59
f 181//60 182//60 183//60
f 184//61 185//61 186//61
f 187//62 188//62 189//62
f 190//63 191//63 192//63
f 193//64 194//64 195//64
f 196//65 197//65 198//65
f 199//66 200//66 201//66
f 202//67 203//67 204//67
f 205//68 206//68 207//68
f 208//69 209//69 210//69
f 211//70 212//70 213//70
f 214//71 215//71 216//71
f 217//72 218//72 219//72
f 220//73 221//73 222//73
f 223//74 224//74 225//74
f 226//75 227//75 228//75
g knight_plume
usemtl prop_blood
f 229//76 230//76 231//76
f 232//77 233//77 234//77
f 235//78 236//78 237//78
f 238//79 239//79 240//79
g knight_arm_l
usemtl prop_metal
241/37/81
242/38/81
243/39/81
244/40/82
245/41/82
246/42/82
247/43/83
248/44/83
249/45/83
250/46/84
251/47/84
252/48/84
253/49/85
254/50/85
255/51/85
256/52/86
257/53/86
258/54/86
259/55/87
260/56/87
261/57/87
262/58/88
263/59/88
264/60/88
265/61/89
266/62/89
267/63/89
268/64/90
269/65/90
270/66/90
271/67/91
272/68/91
273/69/91
274/70/92
275/71/92
276/72/92
g knight_arm_r
usemtl prop_metal
277/73/93
278/74/93
279/75/93
280/76/94
281/77/94
282/78/94
283/79/95
284/80/95
285/81/95
286/82/96
287/83/96
288/84/96
289/85/97
290/86/97
291/87/97
292/88/98
293/89/98
294/90/98
295/91/99
296/92/99
297/93/99
298/94/100
299/95/100
300/96/100
301/97/101
302/98/101
303/99/101
304/100/102
305/101/102
306/102/102
307/103/103
308/104/103
309/105/103
310/106/104
311/107/104
312/108/104
g knight_sword
usemtl prop_gold
313/109/105
314/110/105
315/111/105
316/112/106
317/113/106
318/114/106
319/115/107
320/116/107
321/117/107
322/118/108
323/119/108
324/120/108
325/121/109
326/122/109
327/123/109
328/124/110
329/125/110
330/126/110
331/127/111
332/128/111
333/129/111
334/130/112
335/131/112
336/132/112
337/133/113
338/134/113
339/135/113
340/136/114
341/137/114
342/138/114
343/139/115
344/140/115
345/141/115
346/142/116
347/143/116
348/144/116
g knight_leg_l
usemtl prop_metal_dk
349/145/117
350/146/117
351/147/117
352/148/118
353/149/118
354/150/118
355/151/119
356/152/119
357/153/119
358/154/120
359/155/120
360/156/120
361/157/121
362/158/121
363/159/121
364/160/122
365/161/122
366/162/122
367/163/123
368/164/123
369/165/123
370/166/124
371/167/124
372/168/124
373/169/125
374/170/125
375/171/125
376/172/126
377/173/126
378/174/126
379/175/127
380/176/127
381/177/127
382/178/128
383/179/128
384/180/128
g knight_leg_r
usemtl prop_metal_dk
385/181/129
386/182/129
387/183/129
388/184/130
389/185/130
390/186/130
391/187/131
392/188/131
393/189/131
394/190/132
395/191/132
396/192/132
397/193/133
398/194/133
399/195/133
400/196/134
401/197/134
402/198/134
403/199/135
404/200/135
405/201/135
406/202/136
407/203/136
408/204/136
409/205/137
410/206/137
411/207/137
412/208/138
413/209/138
414/210/138
415/211/139
416/212/139
417/213/139
418/214/140
419/215/140
420/216/140
