# litt worldgen asset - generated by math only
# kit: template/tools/worldgen/
mtllib materials.mtl
o arch
v -2.15 0 -0.45
v -2.15 3.8 -0.45
v -2.15 3.8 0.45
v -2.15 0 -0.45
v -2.15 3.8 0.45
v -2.15 0 0.45
v -3.05 0 -0.45
v -3.05 0 0.45
v -3.05 3.8 0.45
v -3.05 0 -0.45
v -3.05 3.8 0.45
v -3.05 3.8 -0.45
v -2.15 3.8 0.45
v -2.15 3.8 -0.45
v -3.05 3.8 -0.45
v -2.15 3.8 0.45
v -3.05 3.8 -0.45
v -3.05 3.8 0.45
v -2.15 0 -0.45
v -2.15 0 0.45
v -3.05 0 0.45
v -2.15 0 -0.45
v -3.05 0 0.45
v -3.05 0 -0.45
v -2.15 0 0.45
v -2.15 3.8 0.45
v -3.05 3.8 0.45
v -2.15 0 0.45
v -3.05 3.8 0.45
v -3.05 0 0.45
v -2.15 0 -0.45
v -3.05 0 -0.45
v -3.05 3.8 -0.45
v -2.15 0 -0.45
v -3.05 3.8 -0.45
v -2.15 3.8 -0.45
v 3.05 0 -0.45
v 3.05 3.8 -0.45
v 3.05 3.8 0.45
v 3.05 0 -0.45
v 3.05 3.8 0.45
v 3.05 0 0.45
v 2.15 0 -0.45
v 2.15 0 0.45
v 2.15 3.8 0.45
v 2.15 0 -0.45
v 2.15 3.8 0.45
v 2.15 3.8 -0.45
v 3.05 3.8 0.45
v 3.05 3.8 -0.45
v 2.15 3.8 -0.45
v 3.05 3.8 0.45
v 2.15 3.8 -0.45
v 2.15 3.8 0.45
v 3.05 0 -0.45
v 3.05 0 0.45
v 2.15 0 0.45
v 3.05 0 -0.45
v 2.15 0 0.45
v 2.15 0 -0.45
v 3.05 0 0.45
v 3.05 3.8 0.45
v 2.15 3.8 0.45
v 3.05 0 0.45
v 2.15 3.8 0.45
v 2.15 0 0.45
v 3.05 0 -0.45
v 2.15 0 -0.45
v 2.15 3.8 -0.45
v 3.05 0 -0.45
v 2.15 3.8 -0.45
v 3.05 3.8 -0.45
v 3.05 3.7 -0.5
v 3.05 4.3 -0.5
v 3.05 4.3 0.5
v 3.05 3.7 -0.5
v 3.05 4.3 0.5
v 3.05 3.7 0.5
v -3.05 3.7 -0.5
v -3.05 3.7 0.5
v -3.05 4.3 0.5
v -3.05 3.7 -0.5
v -3.05 4.3 0.5
v -3.05 4.3 -0.5
v 3.05 4.3 0.5
v 3.05 4.3 -0.5
v -3.05 4.3 -0.5
v 3.05 4.3 0.5
v -3.05 4.3 -0.5
v -3.05 4.3 0.5
v 3.05 3.7 -0.5
v 3.05 3.7 0.5
v -3.05 3.7 0.5
v 3.05 3.7 -0.5
v -3.05 3.7 0.5
v -3.05 3.7 -0.5
v 3.05 3.7 0.5
v 3.05 4.3 0.5
v -3.05 4.3 0.5
v 3.05 3.7 0.5
v -3.05 4.3 0.5
v -3.05 3.7 0.5
v 3.05 3.7 -0.5
v -3.05 3.7 -0.5
v -3.05 4.3 -0.5
v 3.05 3.7 -0.5
v -3.05 4.3 -0.5
v 3.05 4.3 -0.5
vt 0 -0.2025
vt 1.71 -0.2025
vt 1.71 0.2025
vt 0 -0.2025
vt 1.71 0.2025
vt 0 0.2025
vt 0 -0.2025
vt 0 0.2025
vt 1.71 0.2025
vt 0 -0.2025
vt 1.71 0.2025
vt 1.71 -0.2025
vt -0.9675 0.2025
vt -0.9675 -0.2025
vt -1.3725 -0.2025
vt -0.9675 0.2025
vt -1.3725 -0.2025
vt -1.3725 0.2025
vt -0.9675 -0.2025
vt -0.9675 0.2025
vt -1.3725 0.2025
vt -0.9675 -0.2025
vt -1.3725 0.2025
vt -1.3725 -0.2025
vt -0.9675 0
vt -0.9675 7.22
vt -1.3725 7.22
vt -0.9675 0
vt -1.3725 7.22
vt -1.3725 0
vt -0.9675 0
vt -1.3725 0
vt -1.3725 7.22
vt -0.9675 0
vt -1.3725 7.22
vt -0.9675 7.22
vt 0 -0.2025
vt 1.71 -0.2025
vt 1.71 0.2025
vt 0 -0.2025
vt 1.71 0.2025
vt 0 0.2025
vt 0 -0.2025
vt 0 0.2025
vt 1.71 0.2025
vt 0 -0.2025
vt 1.71 0.2025
vt 1.71 -0.2025
vt 1.3725 0.2025
vt 1.3725 -0.2025
vt 0.9675 -0.2025
vt 1.3725 0.2025
vt 0.9675 -0.2025
vt 0.9675 0.2025
vt 1.3725 -0.2025
vt 1.3725 0.2025
vt 0.9675 0.2025
vt 1.3725 -0.2025
vt 0.9675 0.2025
vt 0.9675 -0.2025
vt 1.3725 0
vt 1.3725 7.22
vt 0.9675 7.22
vt 1.3725 0
vt 0.9675 7.22
vt 0.9675 0
vt 1.3725 0
vt 0.9675 0
vt 0.9675 7.22
vt 1.3725 0
vt 0.9675 7.22
vt 1.3725 7.22
vt 11.285 -0.25
vt 13.115 -0.25
vt 13.115 0.25
vt 11.285 -0.25
vt 13.115 0.25
vt 11.285 0.25
vt 11.285 -0.25
vt 11.285 0.25
vt 13.115 0.25
vt 11.285 -0.25
vt 13.115 0.25
vt 13.115 -0.25
vt 9.3025 0.25
vt 9.3025 -0.25
vt -9.3025 -0.25
vt 9.3025 0.25
vt -9.3025 -0.25
vt -9.3025 0.25
vt 9.3025 -0.25
vt 9.3025 0.25
vt -9.3025 0.25
vt 9.3025 -0.25
vt -9.3025 0.25
vt -9.3025 -0.25
vt 9.3025 1.11
vt 9.3025 1.29
vt -9.3025 1.29
vt 9.3025 1.11
vt -9.3025 1.29
vt -9.3025 1.11
vt 9.3025 1.11
vt -9.3025 1.11
vt -9.3025 1.29
vt 9.3025 1.11
vt -9.3025 1.29
vt 9.3025 1.29
vn 1 0 0
vn 1 0 0
vn -1 0 0
vn -1 0 0
vn 0 1 0
vn 0 1 0
vn 0 -1 0
vn 0 -1 0
vn 0 -0 1
vn 0 0 1
vn 0 0 -1
vn 0 0 -1
vn 1 0 0
vn 1 0 0
vn -1 0 0
vn -1 0 0
vn 0 1 0
vn 0 1 0
vn 0 -1 0
vn 0 -1 0
vn 0 -0 1
vn 0 0 1
vn 0 0 -1
vn 0 0 -1
vn 1 0 0
vn 1 0 0
vn -1 0 0
vn -1 0 0
vn 0 1 0
vn 0 1 0
vn 0 -1 0
vn 0 -1 0
vn 0 -0 1
vn 0 0 1
vn 0 0 -1
vn 0 0 -1
g stone
usemtl ruin_stone
1/1/1
2/2/1
3/3/1
4/4/2
5/5/2
6/6/2
7/7/3
8/8/3
9/9/3
10/10/4
11/11/4
12/12/4
13/13/5
14/14/5
15/15/5
16/16/6
17/17/6
18/18/6
19/19/7
20/20/7
21/21/7
22/22/8
23/23/8
24/24/8
25/25/9
26/26/9
27/27/9
28/28/10
29/29/10
30/30/10
31/31/11
32/32/11
33/33/11
34/34/12
35/35/12
36/36/12
37/37/13
38/38/13
39/39/13
40/40/14
41/41/14
42/42/14
43/43/15
44/44/15
45/45/15
46/46/16
47/47/16
48/48/16
49/49/17
50/50/17
51/51/17
52/52/18
53/53/18
54/54/18
55/55/19
56/56/19
57/57/19
58/58/20
59/59/20
60/60/20
61/61/21
62/62/21
63/63/21
64/64/22
65/65/22
66/66/22
67/67/23
68/68/23
69/69/23
70/70/24
71/71/24
72/72/24
73/73/25
74/74/25
75/75/25
76/76/26
77/77/26
78/78/26
79/79/27
80/80/27
81/81/27
82/82/28
83/83/28
84/84/28
85/85/29
86/86/29
87/87/29
88/88/30
89/89/30
90/90/30
91/91/31
92/92/31
93/93/31
94/94/32
95/95/32
96/96/32
97/97/33
98/98/33
99/99/33
100/100/34
101/101/34
102/102/34
103/103/35
104/104/35
105/105/35
106/106/36
107/107/36
108/108/36
