# litt live chunk - perpetual grass world
# chunk (1,-1) seed=1337 size=16 res=12
mtllib materials.mtl
o chunk_1_-1
g grass_a
usemtl grass_a
v 25.3333 0.9504 -5.3333
vn 0.0003 0.9887 0.15
v 25.3333 0.7481 -4
vn 0.0003 0.9887 0.15
v 26.6667 0.7477 -4
vn 0.0003 0.9887 0.15
f 1//1 2//2 3//3
v 26.6667 0.9508 -5.3333
vn -0.0004 0.9886 0.1506
v 26.6667 0.7477 -4
vn -0.0004 0.9886 0.1506
v 28 0.7483 -4
vn -0.0004 0.9886 0.1506
f 4//4 5//5 6//6
v 28 0.9491 -5.3333
vn 0.0061 0.9888 0.149
v 28 0.7483 -4
vn 0.0061 0.9888 0.149
v 29.3333 0.74 -4
vn 0.0061 0.9888 0.149
f 7//7 8//8 9//9
v 29.3333 0.9414 -5.3333
vn -0.0032 0.9888 0.1493
v 29.3333 0.74 -4
vn -0.0032 0.9888 0.1493
v 30.6667 0.7443 -4
vn -0.0032 0.9888 0.1493
f 10//10 11//11 12//12
v 30.6667 0.9458 -5.3333
vn -0.001 0.9888 0.1495
v 30.6667 0.7443 -4
vn -0.001 0.9888 0.1495
v 32 0.7457 -4
vn -0.001 0.9888 0.1495
f 13//13 14//14 15//15
v 16 0.8035 -4
vn 0.0063 0.9851 0.172
v 16 0.5707 -2.6667
vn 0.0063 0.9851 0.172
v 17.3333 0.5621 -2.6667
vn 0.0063 0.9851 0.172
f 16//16 17//17 18//18
v 16 0.8035 -4
vn 0.0059 0.985 0.1724
v 17.3333 0.5621 -2.6667
vn 0.0059 0.985 0.1724
v 17.3333 0.7955 -4
vn 0.0059 0.985 0.1724
f 19//19 20//20 21//21
v 17.3333 0.7955 -4
vn -0.0007 0.985 0.1724
v 17.3333 0.5621 -2.6667
vn -0.0007 0.985 0.1724
v 18.6667 0.5631 -2.6667
vn -0.0007 0.985 0.1724
f 22//22 23//23 24//24
v 17.3333 0.7955 -4
vn -0.0017 0.9849 0.1733
v 18.6667 0.5631 -2.6667
vn -0.0017 0.9849 0.1733
v 18.6667 0.7978 -4
vn -0.0017 0.9849 0.1733
f 25//25 26//26 27//27
v 18.6667 0.7978 -4
vn 0.0025 0.9849 0.1733
v 18.6667 0.5631 -2.6667
vn 0.0025 0.9849 0.1733
v 20 0.5598 -2.6667
vn 0.0025 0.9849 0.1733
f 28//28 29//29 30//30
v 18.6667 0.7978 -4
vn 0.0028 0.9849 0.1731
v 20 0.5598 -2.6667
vn 0.0028 0.9849 0.1731
v 20 0.794 -4
vn 0.0028 0.9849 0.1731
f 31//31 32//32 33//33
v 20 0.794 -4
vn 0.002 0.9849 0.1731
v 20 0.5598 -2.6667
vn 0.002 0.9849 0.1731
v 21.3333 0.557 -2.6667
vn 0.002 0.9849 0.1731
f 34//34 35//35 36//36
v 20 0.794 -4
vn 0.0051 0.9854 0.1701
v 21.3333 0.557 -2.6667
vn 0.0051 0.9854 0.1701
v 21.3333 0.7871 -4
vn 0.0051 0.9854 0.1701
f 37//37 38//38 39//39
v 21.3333 0.7871 -4
vn 0.0067 0.9854 0.1701
v 21.3333 0.557 -2.6667
vn 0.0067 0.9854 0.1701
v 22.6667 0.548 -2.6667
vn 0.0067 0.9854 0.1701
f 40//40 41//41 42//42
v 21.3333 0.7871 -4
vn 0.0109 0.9861 0.166
v 22.6667 0.548 -2.6667
vn 0.0109 0.9861 0.166
v 22.6667 0.7724 -4
vn 0.0109 0.9861 0.166
f 43//43 44//44 45//45
v 22.6667 0.7724 -4
vn 0.0108 0.9861 0.166
v 22.6667 0.548 -2.6667
vn 0.0108 0.9861 0.166
v 24 0.5333 -2.6667
vn 0.0108 0.9861 0.166
f 46//46 47//47 48//48
v 22.6667 0.7724 -4
vn 0.0148 0.9867 0.1621
v 24 0.5333 -2.6667
vn 0.0148 0.9867 0.1621
v 24 0.7524 -4
vn 0.0148 0.9867 0.1621
f 49//49 50//50 51//51
v 24 0.7524 -4
vn 0.002 0.9868 0.1621
v 24 0.5333 -2.6667
vn 0.002 0.9868 0.1621
v 25.3333 0.5307 -2.6667
vn 0.002 0.9868 0.1621
f 52//52 53//53 54//54
v 24 0.7524 -4
vn 0.0032 0.987 0.1609
v 25.3333 0.5307 -2.6667
vn 0.0032 0.987 0.1609
v 25.3333 0.7481 -4
vn 0.0032 0.987 0.1609
f 55//55 56//56 57//57
v 25.3333 0.7481 -4
vn -0.0003 0.987 0.1609
v 25.3333 0.5307 -2.6667
vn -0.0003 0.987 0.1609
v 26.6667 0.5311 -2.6667
vn -0.0003 0.987 0.1609
f 58//58 59//59 60//60
v 25.3333 0.7481 -4
vn 0.0003 0.9871 0.1604
v 26.6667 0.5311 -2.6667
vn 0.0003 0.9871 0.1604
v 26.6667 0.7477 -4
vn 0.0003 0.9871 0.1604
f 61//61 62//62 63//63
v 26.6667 0.7477 -4
vn -0.001 0.9871 0.1604
v 26.6667 0.5311 -2.6667
vn -0.001 0.9871 0.1604
v 28 0.5324 -2.6667
vn -0.001 0.9871 0.1604
f 64//64 65//65 66//66
v 26.6667 0.7477 -4
vn -0.0004 0.9871 0.1598
v 28 0.5324 -2.6667
vn -0.0004 0.9871 0.1598
v 28 0.7483 -4
vn -0.0004 0.9871 0.1598
f 67//67 68//68 69//69
v 28 0.7483 -4
vn 0.0055 0.9871 0.1598
v 28 0.5324 -2.6667
vn 0.0055 0.9871 0.1598
v 29.3333 0.525 -2.6667
vn 0.0055 0.9871 0.1598
f 70//70 71//71 72//72
v 28 0.7483 -4
vn 0.0061 0.9872 0.1592
v 29.3333 0.525 -2.6667
vn 0.0061 0.9872 0.1592
v 29.3333 0.74 -4
vn 0.0061 0.9872 0.1592
f 73//73 74//74 75//75
v 29.3333 0.74 -4
vn -0.0038 0.9872 0.1592
v 29.3333 0.525 -2.6667
vn -0.0038 0.9872 0.1592
v 30.6667 0.5302 -2.6667
vn -0.0038 0.9872 0.1592
f 76//76 77//77 78//78
v 29.3333 0.74 -4
vn -0.0031 0.9873 0.1585
v 30.6667 0.5302 -2.6667
vn -0.0031 0.9873 0.1585
v 30.6667 0.7443 -4
vn -0.0031 0.9873 0.1585
f 79//79 80//80 81//81
v 30.6667 0.7443 -4
vn -0.0013 0.9874 0.1585
v 30.6667 0.5302 -2.6667
vn -0.0013 0.9874 0.1585
v 32 0.532 -2.6667
vn -0.0013 0.9874 0.1585
f 82//82 83//83 84//84
v 30.6667 0.7443 -4
vn -0.001 0.9874 0.1582
v 32 0.532 -2.6667
vn -0.001 0.9874 0.1582
v 32 0.7457 -4
vn -0.001 0.9874 0.1582
f 85//85 86//86 87//87
v 16 0.5707 -2.6667
vn 0.0093 0.9797 0.2005
v 16 0.2979 -1.3333
vn 0.0093 0.9797 0.2005
v 17.3333 0.2852 -1.3333
vn 0.0093 0.9797 0.2005
f 88//88 89//89 90//90
v 16 0.5707 -2.6667
vn 0.0063 0.9791 0.2034
v 17.3333 0.2852 -1.3333
vn 0.0063 0.9791 0.2034
v 17.3333 0.5621 -2.6667
vn 0.0063 0.9791 0.2034
f 91//91 92//92 93//93
v 17.3333 0.5621 -2.6667
vn 0.0032 0.9791 0.2034
v 17.3333 0.2852 -1.3333
vn 0.0032 0.9791 0.2034
v 18.6667 0.2809 -1.3333
vn 0.0032 0.9791 0.2034
f 94//94 95//95 96//96
v 17.3333 0.5621 -2.6667
vn -0.0007 0.9783 0.2071
v 18.6667 0.2809 -1.3333
vn -0.0007 0.9783 0.2071
v 18.6667 0.5631 -2.6667
vn -0.0007 0.9783 0.2071
f 97//97 98//98 99//99
v 18.6667 0.5631 -2.6667
vn 0.0008 0.9783 0.2071
v 18.6667 0.2809 -1.3333
vn 0.0008 0.9783 0.2071
v 20 0.2797 -1.3333
vn 0.0008 0.9783 0.2071
f 100//100 101//101 102//102
v 18.6667 0.5631 -2.6667
vn 0.0025 0.9786 0.2056
v 20 0.2797 -1.3333
vn 0.0025 0.9786 0.2056
v 20 0.5598 -2.6667
vn 0.0025 0.9786 0.2056
f 103//103 104//104 105//105
v 20 0.5598 -2.6667
vn -0.0021 0.9786 0.2056
v 20 0.2797 -1.3333
vn -0.0021 0.9786 0.2056
v 21.3333 0.2825 -1.3333
vn -0.0021 0.9786 0.2056
f 106//106 107//107 108//108
v 20 0.5598 -2.6667
vn 0.002 0.9795 0.2017
v 21.3333 0.2825 -1.3333
vn 0.002 0.9795 0.2017
v 21.3333 0.557 -2.6667
vn 0.002 0.9795 0.2017
f 109//109 110//110 111//111
v 21.3333 0.557 -2.6667
vn 0.001 0.9795 0.2017
v 21.3333 0.2825 -1.3333
vn 0.001 0.9795 0.2017
v 22.6667 0.2811 -1.3333
vn 0.001 0.9795 0.2017
f 112//112 113//113 114//114
v 21.3333 0.557 -2.6667
vn 0.0067 0.9805 0.1962
v 22.6667 0.2811 -1.3333
vn 0.0067 0.9805 0.1962
v 22.6667 0.548 -2.6667
vn 0.0067 0.9805 0.1962
f 115//115 116//116 117//117
v 22.6667 0.548 -2.6667
vn -0.0001 0.9806 0.1962
v 22.6667 0.2811 -1.3333
vn -0.0001 0.9806 0.1962
v 24 0.2812 -1.3333
vn -0.0001 0.9806 0.1962
f 118//118 119//119 120//120
v 22.6667 0.548 -2.6667
vn 0.0108 0.9825 0.1858
v 24 0.2812 -1.3333
vn 0.0108 0.9825 0.1858
v 24 0.5333 -2.6667
vn 0.0108 0.9825 0.1858
f 121//121 122//122 123//123
v 24 0.5333 -2.6667
vn -0.0023 0.9826 0.1858
v 24 0.2812 -1.3333
vn -0.0023 0.9826 0.1858
v 25.3333 0.2843 -1.3333
vn -0.0023 0.9826 0.1858
f 124//124 125//125 126//126
v 24 0.5333 -2.6667
vn 0.0019 0.9833 0.1817
v 25.3333 0.2843 -1.3333
vn 0.0019 0.9833 0.1817
v 25.3333 0.5307 -2.6667
vn 0.0019 0.9833 0.1817
f 127//127 128//128 129//129
v 25.3333 0.5307 -2.6667
vn -0.0017 0.9833 0.1817
v 25.3333 0.2843 -1.3333
vn -0.0017 0.9833 0.1817
v 26.6667 0.2866 -1.3333
vn -0.0017 0.9833 0.1817
f 130//130 131//131 132//132
v 25.3333 0.5307 -2.6667
vn -0.0003 0.9836 0.1803
v 26.6667 0.2866 -1.3333
vn -0.0003 0.9836 0.1803
v 26.6667 0.5311 -2.6667
vn -0.0003 0.9836 0.1803
f 133//133 134//134 135//135
v 26.6667 0.5311 -2.6667
vn -0.0029 0.9836 0.1803
v 26.6667 0.2866 -1.3333
vn -0.0029 0.9836 0.1803
v 28 0.2906 -1.3333
vn -0.0029 0.9836 0.1803
f 136//136 137//137 138//138
v 26.6667 0.5311 -2.6667
vn -0.001 0.984 0.1784
v 28 0.2906 -1.3333
vn -0.001 0.984 0.1784
v 28 0.5324 -2.6667
vn -0.001 0.984 0.1784
f 139//139 140//140 141//141
v 28 0.5324 -2.6667
vn 0.0051 0.9839 0.1784
v 28 0.2906 -1.3333
vn 0.0051 0.9839 0.1784
v 29.3333 0.2837 -1.3333
vn 0.0051 0.9839 0.1784
f 142//142 143//143 144//144
v 28 0.5324 -2.6667
vn 0.0055 0.984 0.1781
v 29.3333 0.2837 -1.3333
vn 0.0055 0.984 0.1781
v 29.3333 0.525 -2.6667
vn 0.0055 0.984 0.1781
f 145//145 146//146 147//147
v 29.3333 0.525 -2.6667
vn -0.0024 0.984 0.1781
v 29.3333 0.2837 -1.3333
vn -0.0024 0.984 0.1781
v 30.6667 0.287 -1.3333
vn -0.0024 0.984 0.1781
f 148//148 149//149 150//150
v 29.3333 0.525 -2.6667
vn -0.0038 0.9838 0.1795
v 30.6667 0.287 -1.3333
vn -0.0038 0.9838 0.1795
v 30.6667 0.5302 -2.6667
vn -0.0038 0.9838 0.1795
f 151//151 152//152 153//153
v 30.6667 0.5302 -2.6667
vn -0.0029 0.9838 0.1795
v 30.6667 0.287 -1.3333
vn -0.0029 0.9838 0.1795
v 32 0.2909 -1.3333
vn -0.0029 0.9838 0.1795
f 154//154 155//155 156//156
v 30.6667 0.5302 -2.6667
vn -0.0013 0.984 0.1779
v 32 0.2909 -1.3333
vn -0.0013 0.984 0.1779
v 32 0.532 -2.6667
vn -0.0013 0.984 0.1779
f 157//157 158//158 159//159
g grass_b
usemtl grass_b
v 16 0.2979 -1.3333
vn -0.0015 0.988 0.1544
v 16 0.0895 0
vn -0.0015 0.988 0.1544
v 17.3333 0.0915 0
vn -0.0015 0.988 0.1544
f 160//160 161//161 162//162
v 16 0.2979 -1.3333
vn 0.0094 0.9896 0.1438
v 17.3333 0.0915 0
vn 0.0094 0.9896 0.1438
v 17.3333 0.2852 -1.3333
vn 0.0094 0.9896 0.1438
f 163//163 164//164 165//165
v 17.3333 0.2852 -1.3333
vn 0.0078 0.9896 0.1438
v 17.3333 0.0915 0
vn 0.0078 0.9896 0.1438
v 18.6667 0.081 0
vn 0.0078 0.9896 0.1438
f 166//166 167//167 168//168
v 17.3333 0.2852 -1.3333
vn 0.0032 0.9889 0.1482
v 18.6667 0.081 0
vn 0.0032 0.9889 0.1482
v 18.6667 0.2809 -1.3333
vn 0.0032 0.9889 0.1482
f 169//169 170//170 171//171
v 18.6667 0.2809 -1.3333
vn 0.0022 0.989 0.1482
v 18.6667 0.081 0
vn 0.0022 0.989 0.1482
v 20 0.078 0
vn 0.0022 0.989 0.1482
f 172//172 173//173 174//174
v 18.6667 0.2809 -1.3333
vn 0.0009 0.9888 0.1495
v 20 0.078 0
vn 0.0009 0.9888 0.1495
v 20 0.2797 -1.3333
vn 0.0009 0.9888 0.1495
f 175//175 176//176 177//177
v 20 0.2797 -1.3333
vn -0.0025 0.9888 0.1495
v 20 0.078 0
vn -0.0025 0.9888 0.1495
v 21.3333 0.0815 0
vn -0.0025 0.9888 0.1495
f 178//178 179//179 180//180
v 20 0.2797 -1.3333
vn -0.0021 0.9888 0.1491
v 21.3333 0.0815 0
vn -0.0021 0.9888 0.1491
v 21.3333 0.2825 -1.3333
vn -0.0021 0.9888 0.1491
f 181//181 182//182 183//183
v 21.3333 0.2825 -1.3333
vn -0.0105 0.9888 0.1491
v 21.3333 0.0815 0
vn -0.0105 0.9888 0.1491
v 22.6667 0.0956 0
vn -0.0105 0.9888 0.1491
f 184//184 185//185 186//186
v 21.3333 0.2825 -1.3333
vn 0.001 0.9905 0.1378
v 22.6667 0.0956 0
vn 0.001 0.9905 0.1378
v 22.6667 0.2811 -1.3333
vn 0.001 0.9905 0.1378
f 187//187 188//188 189//189
v 22.6667 0.2811 -1.3333
vn -0.0149 0.9903 0.1378
v 22.6667 0.0956 0
vn -0.0149 0.9903 0.1378
v 24 0.1156 0
vn -0.0149 0.9903 0.1378
f 190//190 191//191 192//192
v 22.6667 0.2811 -1.3333
vn -0.0001 0.9924 0.1233
v 24 0.1156 0
vn -0.0001 0.9924 0.1233
v 24 0.2812 -1.3333
vn -0.0001 0.9924 0.1233
f 193//193 194//194 195//195
v 24 0.2812 -1.3333
vn -0.0031 0.9924 0.1233
v 24 0.1156 0
vn -0.0031 0.9924 0.1233
v 25.3333 0.1198 0
vn -0.0031 0.9924 0.1233
f 196//196 197//197 198//198
v 24 0.2812 -1.3333
vn -0.0023 0.9925 0.1225
v 25.3333 0.1198 0
vn -0.0023 0.9925 0.1225
v 25.3333 0.2843 -1.3333
vn -0.0023 0.9925 0.1225
f 199//199 200//200 201//201
v 25.3333 0.2843 -1.3333
vn -0.0009 0.9925 0.1225
v 25.3333 0.1198 0
vn -0.0009 0.9925 0.1225
v 26.6667 0.121 0
vn -0.0009 0.9925 0.1225
f 202//202 203//203 204//204
v 25.3333 0.2843 -1.3333
vn -0.0017 0.9924 0.1233
v 26.6667 0.121 0
vn -0.0017 0.9924 0.1233
v 26.6667 0.2866 -1.3333
vn -0.0017 0.9924 0.1233
f 205//205 206//206 207//207
v 26.6667 0.2866 -1.3333
vn -0.0016 0.9924 0.1233
v 26.6667 0.121 0
vn -0.0016 0.9924 0.1233
v 28 0.1231 0
vn -0.0016 0.9924 0.1233
f 208//208 209//209 210//210
v 26.6667 0.2866 -1.3333
vn -0.003 0.9922 0.1246
v 28 0.1231 0
vn -0.003 0.9922 0.1246
v 28 0.2906 -1.3333
vn -0.003 0.9922 0.1246
f 211//211 212//212 213//213
v 28 0.2906 -1.3333
vn -0.0087 0.9922 0.1246
v 28 0.1231 0
vn -0.0087 0.9922 0.1246
v 29.3333 0.1348 0
vn -0.0087 0.9922 0.1246
f 214//214 215//215 216//216
v 28 0.2906 -1.3333
vn 0.0051 0.9938 0.111
v 29.3333 0.1348 0
vn 0.0051 0.9938 0.111
v 29.3333 0.2837 -1.3333
vn 0.0051 0.9938 0.111
f 217//217 218//218 219//219
v 29.3333 0.2837 -1.3333
vn 0.0009 0.9938 0.111
v 29.3333 0.1348 0
vn 0.0009 0.9938 0.111
v 30.6667 0.1336 0
vn 0.0009 0.9938 0.111
f 220//220 221//221 222//222
v 29.3333 0.2837 -1.3333
vn -0.0024 0.9934 0.1143
v 30.6667 0.1336 0
vn -0.0024 0.9934 0.1143
v 30.6667 0.287 -1.3333
vn -0.0024 0.9934 0.1143
f 223//223 224//224 225//225
v 30.6667 0.287 -1.3333
vn -0.001 0.9935 0.1143
v 30.6667 0.1336 0
vn -0.001 0.9935 0.1143
v 32 0.1349 0
vn -0.001 0.9935 0.1143
f 226//226 227//227 228//228
v 30.6667 0.287 -1.3333
vn -0.003 0.9932 0.1162
v 32 0.1349 0
vn -0.003 0.9932 0.1162
v 32 0.2909 -1.3333
vn -0.003 0.9932 0.1162
f 229//229 230//230 231//231
g dirt
usemtl dirt
v 16 1.5134 -16
vn -0.0005 1 0.0006
v 16 1.5125 -14.6667
vn -0.0005 1 0.0006
v 17.3333 1.5132 -14.6667
vn -0.0005 1 0.0006
f 232//232 233//233 234//234
v 16 1.5134 -16
vn -0.0012 1 0.0013
v 17.3333 1.5132 -14.6667
vn -0.0012 1 0.0013
v 17.3333 1.5149 -16
vn -0.0012 1 0.0013
f 235//235 236//236 237//237
v 17.3333 1.5149 -16
vn -0.0059 1 0.0013
v 17.3333 1.5132 -14.6667
vn -0.0059 1 0.0013
v 18.6667 1.5211 -14.6667
vn -0.0059 1 0.0013
f 238//238 239//239 240//240
v 17.3333 1.5149 -16
vn -0.006 1 0.0013
v 18.6667 1.5211 -14.6667
vn -0.006 1 0.0013
v 18.6667 1.5229 -16
vn -0.006 1 0.0013
f 241//241 242//242 243//243
v 18.6667 1.5229 -16
vn 0.0006 1 0.0013
v 18.6667 1.5211 -14.6667
vn 0.0006 1 0.0013
v 20 1.5203 -14.6667
vn 0.0006 1 0.0013
f 244//244 245//245 246//246
v 18.6667 1.5229 -16
vn 0.0003 1 0.0017
v 20 1.5203 -14.6667
vn 0.0003 1 0.0017
v 20 1.5225 -16
vn 0.0003 1 0.0017
f 247//247 248//248 249//249
v 20 1.5225 -16
vn 0.0006 1 0.0017
v 20 1.5203 -14.6667
vn 0.0006 1 0.0017
v 21.3333 1.5194 -14.6667
vn 0.0006 1 0.0017
f 250//250 251//251 252//252
v 20 1.5225 -16
vn 0.0007 1 0.0016
v 21.3333 1.5194 -14.6667
vn 0.0007 1 0.0016
v 21.3333 1.5215 -16
vn 0.0007 1 0.0016
f 253//253 254//254 255//255
v 21.3333 1.5215 -16
vn 0.0082 1 0.0016
v 21.3333 1.5194 -14.6667
vn 0.0082 1 0.0016
v 22.6667 1.5085 -14.6667
vn 0.0082 1 0.0016
f 256//256 257//257 258//258
v 21.3333 1.5215 -16
vn 0.0085 1 0.0013
v 22.6667 1.5085 -14.6667
vn 0.0085 1 0.0013
v 22.6667 1.5102 -16
vn 0.0085 1 0.0013
f 259//259 260//260 261//261
v 22.6667 1.5102 -16
vn 0.0156 0.9999 0.0013
v 22.6667 1.5085 -14.6667
vn 0.0156 0.9999 0.0013
v 24 1.4877 -14.6667
vn 0.0156 0.9999 0.0013
f 262//262 263//263 264//264
v 22.6667 1.5102 -16
vn 0.016 0.9999 0.0009
v 24 1.4877 -14.6667
vn 0.016 0.9999 0.0009
v 24 1.4889 -16
vn 0.016 0.9999 0.0009
f 265//265 266//266 267//267
v 24 1.4889 -16
vn 0.005 1 0.0009
v 24 1.4877 -14.6667
vn 0.005 1 0.0009
v 25.3333 1.4811 -14.6667
vn 0.005 1 0.0009
f 268//268 269//269 270//270
v 24 1.4889 -16
vn 0.0052 1 0.0006
v 25.3333 1.4811 -14.6667
vn 0.0052 1 0.0006
v 25.3333 1.4819 -16
vn 0.0052 1 0.0006
f 271//271 272//272 273//273
v 25.3333 1.4819 -16
vn 0.0037 1 0.0006
v 25.3333 1.4811 -14.6667
vn 0.0037 1 0.0006
v 26.6667 1.4761 -14.6667
vn 0.0037 1 0.0006
f 274//274 275//275 276//276
v 25.3333 1.4819 -16
vn 0.0033 1 0.001
v 26.6667 1.4761 -14.6667
vn 0.0033 1 0.001
v 26.6667 1.4775 -16
vn 0.0033 1 0.001
f 277//277 278//278 279//279
v 26.6667 1.4775 -16
vn 0.0006 1 0.001
v 26.6667 1.4761 -14.6667
vn 0.0006 1 0.001
v 28 1.4754 -14.6667
vn 0.0006 1 0.001
f 280//280 281//281 282//282
v 26.6667 1.4775 -16
vn 0.0012 1 0.0003
v 28 1.4754 -14.6667
vn 0.0012 1 0.0003
v 28 1.4758 -16
vn 0.0012 1 0.0003
f 283//283 284//284 285//285
v 28 1.4758 -16
vn 0.0049 1 0.0003
v 28 1.4754 -14.6667
vn 0.0049 1 0.0003
v 29.3333 1.4688 -14.6667
vn 0.0049 1 0.0003
f 286//286 287//287 288//288
v 28 1.4758 -16
vn 0.0046 1 0.0006
v 29.3333 1.4688 -14.6667
vn 0.0046 1 0.0006
v 29.3333 1.4696 -16
vn 0.0046 1 0.0006
f 289//289 290//290 291//291
v 29.3333 1.4696 -16
vn 0.0024 1 0.0006
v 29.3333 1.4688 -14.6667
vn 0.0024 1 0.0006
v 30.6667 1.4656 -14.6667
vn 0.0024 1 0.0006
f 292//292 293//293 294//294
v 29.3333 1.4696 -16
vn 0.0026 1 0.0004
v 30.6667 1.4656 -14.6667
vn 0.0026 1 0.0004
v 30.6667 1.4662 -16
vn 0.0026 1 0.0004
f 295//295 296//296 297//297
v 30.6667 1.4662 -16
vn 0.003 1 0.0004
v 30.6667 1.4656 -14.6667
vn 0.003 1 0.0004
v 32 1.4616 -14.6667
vn 0.003 1 0.0004
f 298//298 299//299 300//300
v 30.6667 1.4662 -16
vn 0.0033 1 0.0001
v 32 1.4616 -14.6667
vn 0.0033 1 0.0001
v 32 1.4617 -16
vn 0.0033 1 0.0001
f 301//301 302//302 303//303
v 16 1.5125 -14.6667
vn -0.0003 1 0.0006
v 16 1.5117 -13.3333
vn -0.0003 1 0.0006
v 17.3333 1.5121 -13.3333
vn -0.0003 1 0.0006
f 304//304 305//305 306//306
v 16 1.5125 -14.6667
vn -0.0005 1 0.0008
v 17.3333 1.5121 -13.3333
vn -0.0005 1 0.0008
v 17.3333 1.5132 -14.6667
vn -0.0005 1 0.0008
f 307//307 308//308 309//309
v 17.3333 1.5132 -14.6667
vn -0.0056 1 0.0008
v 17.3333 1.5121 -13.3333
vn -0.0056 1 0.0008
v 18.6667 1.5196 -13.3333
vn -0.0056 1 0.0008
f 310//310 311//311 312//312
v 17.3333 1.5132 -14.6667
vn -0.0059 1 0.0011
v 18.6667 1.5196 -13.3333
vn -0.0059 1 0.0011
v 18.6667 1.5211 -14.6667
vn -0.0059 1 0.0011
f 313//313 314//314 315//315
v 18.6667 1.5211 -14.6667
vn 0.0005 1 0.0011
v 18.6667 1.5196 -13.3333
vn 0.0005 1 0.0011
v 20 1.519 -13.3333
vn 0.0005 1 0.0011
f 316//316 317//317 318//318
v 18.6667 1.5211 -14.6667
vn 0.0006 1 0.001
v 20 1.519 -13.3333
vn 0.0006 1 0.001
v 20 1.5203 -14.6667
vn 0.0006 1 0.001
f 319//319 320//320 321//321
v 20 1.5203 -14.6667
vn 0.0007 1 0.001
v 20 1.519 -13.3333
vn 0.0007 1 0.001
v 21.3333 1.5181 -13.3333
vn 0.0007 1 0.001
f 322//322 323//323 324//324
v 20 1.5203 -14.6667
vn 0.0006 1 0.001
v 21.3333 1.5181 -13.3333
vn 0.0006 1 0.001
v 21.3333 1.5194 -14.6667
vn 0.0006 1 0.001
f 325//325 326//326 327//327
v 21.3333 1.5194 -14.6667
vn 0.0083 1 0.001
v 21.3333 1.5181 -13.3333
vn 0.0083 1 0.001
v 22.6667 1.5069 -13.3333
vn 0.0083 1 0.001
f 328//328 329//329 330//330
v 21.3333 1.5194 -14.6667
vn 0.0082 1 0.0012
v 22.6667 1.5069 -13.3333
vn 0.0082 1 0.0012
v 22.6667 1.5085 -14.6667
vn 0.0082 1 0.0012
f 331//331 332//332 333//333
v 22.6667 1.5085 -14.6667
vn 0.0153 0.9999 0.0012
v 22.6667 1.5069 -13.3333
vn 0.0153 0.9999 0.0012
v 24 1.4866 -13.3333
vn 0.0153 0.9999 0.0012
f 334//334 335//335 336//336
v 22.6667 1.5085 -14.6667
vn 0.0156 0.9999 0.0009
v 24 1.4866 -13.3333
vn 0.0156 0.9999 0.0009
v 24 1.4877 -14.6667
vn 0.0156 0.9999 0.0009
f 337//337 338//338 339//339
v 24 1.4877 -14.6667
vn 0.0048 1 0.0009
v 24 1.4866 -13.3333
vn 0.0048 1 0.0009
v 25.3333 1.4803 -13.3333
vn 0.0048 1 0.0009
f 340//340 341//341 342//342
v 24 1.4877 -14.6667
vn 0.005 1 0.0006
v 25.3333 1.4803 -13.3333
vn 0.005 1 0.0006
v 25.3333 1.4811 -14.6667
vn 0.005 1 0.0006
f 343//343 344//344 345//345
v 25.3333 1.4811 -14.6667
vn 0.0037 1 0.0006
v 25.3333 1.4803 -13.3333
vn 0.0037 1 0.0006
v 26.6667 1.4753 -13.3333
vn 0.0037 1 0.0006
f 346//346 347//347 348//348
v 25.3333 1.4811 -14.6667
vn 0.0037 1 0.0006
v 26.6667 1.4753 -13.3333
vn 0.0037 1 0.0006
v 26.6667 1.4761 -14.6667
vn 0.0037 1 0.0006
f 349//349 350//350 351//351
v 26.6667 1.4761 -14.6667
vn 0.0002 1 0.0006
v 26.6667 1.4753 -13.3333
vn 0.0002 1 0.0006
v 28 1.4751 -13.3333
vn 0.0002 1 0.0006
f 352//352 353//353 354//354
v 26.6667 1.4761 -14.6667
vn 0.0006 1 0.0002
v 28 1.4751 -13.3333
vn 0.0006 1 0.0002
v 28 1.4754 -14.6667
vn 0.0006 1 0.0002
f 355//355 356//356 357//357
v 28 1.4754 -14.6667
vn 0.005 1 0.0002
v 28 1.4751 -13.3333
vn 0.005 1 0.0002
v 29.3333 1.4684 -13.3333
vn 0.005 1 0.0002
f 358//358 359//359 360//360
v 28 1.4754 -14.6667
vn 0.0049 1 0.0003
v 29.3333 1.4684 -13.3333
vn 0.0049 1 0.0003
v 29.3333 1.4688 -14.6667
vn 0.0049 1 0.0003
f 361//361 362//362 363//363
v 29.3333 1.4688 -14.6667
vn 0.0023 1 0.0003
v 29.3333 1.4684 -13.3333
vn 0.0023 1 0.0003
v 30.6667 1.4654 -13.3333
vn 0.0023 1 0.0003
f 364//364 365//365 366//366
v 29.3333 1.4688 -14.6667
vn 0.0024 1 0.0002
v 30.6667 1.4654 -13.3333
vn 0.0024 1 0.0002
v 30.6667 1.4656 -14.6667
vn 0.0024 1 0.0002
f 367//367 368//368 369//369
v 30.6667 1.4656 -14.6667
vn 0.0028 1 0.0002
v 30.6667 1.4654 -13.3333
vn 0.0028 1 0.0002
v 32 1.4616 -13.3333
vn 0.0028 1 0.0002
f 370//370 371//371 372//372
v 30.6667 1.4656 -14.6667
vn 0.003 1 0
v 32 1.4616 -13.3333
vn 0.003 1 0
v 32 1.4616 -14.6667
vn 0.003 1 0
f 373//373 374//374 375//375
v 16 1.5117 -13.3333
vn -0.0004 1 0.0029
v 16 1.5078 -12
vn -0.0004 1 0.0029
v 17.3333 1.5084 -12
vn -0.0004 1 0.0029
f 376//376 377//377 378//378
v 16 1.5117 -13.3333
vn -0.0003 1 0.0028
v 17.3333 1.5084 -12
vn -0.0003 1 0.0028
v 17.3333 1.5121 -13.3333
vn -0.0003 1 0.0028
f 379//379 380//380 381//381
v 17.3333 1.5121 -13.3333
vn -0.0057 1 0.0028
v 17.3333 1.5084 -12
vn -0.0057 1 0.0028
v 18.6667 1.516 -12
vn -0.0057 1 0.0028
f 382//382 383//383 384//384
v 17.3333 1.5121 -13.3333
vn -0.0056 1 0.0027
v 18.6667 1.516 -12
vn -0.0056 1 0.0027
v 18.6667 1.5196 -13.3333
vn -0.0056 1 0.0027
f 385//385 386//386 387//387
v 18.6667 1.5196 -13.3333
vn 0.0005 1 0.0027
v 18.6667 1.516 -12
vn 0.0005 1 0.0027
v 20 1.5153 -12
vn 0.0005 1 0.0027
f 388//388 389//389 390//390
v 18.6667 1.5196 -13.3333
vn 0.0005 1 0.0028
v 20 1.5153 -12
vn 0.0005 1 0.0028
v 20 1.519 -13.3333
vn 0.0005 1 0.0028
f 391//391 392//392 393//393
v 20 1.519 -13.3333
vn 0.0009 1 0.0028
v 20 1.5153 -12
vn 0.0009 1 0.0028
v 21.3333 1.5141 -12
vn 0.0009 1 0.0028
f 394//394 395//395 396//396
v 20 1.519 -13.3333
vn 0.0007 1 0.003
v 21.3333 1.5141 -12
vn 0.0007 1 0.003
v 21.3333 1.5181 -13.3333
vn 0.0007 1 0.003
f 397//397 398//398 399//399
v 21.3333 1.5181 -13.3333
vn 0.0087 1 0.003
v 21.3333 1.5141 -12
vn 0.0087 1 0.003
v 22.6667 1.5024 -12
vn 0.0087 1 0.003
f 400//400 401//401 402//402
v 21.3333 1.5181 -13.3333
vn 0.0083 1 0.0034
v 22.6667 1.5024 -12
vn 0.0083 1 0.0034
v 22.6667 1.5069 -13.3333
vn 0.0083 1 0.0034
f 403//403 404//404 405//405
v 22.6667 1.5069 -13.3333
vn 0.0154 0.9999 0.0034
v 22.6667 1.5024 -12
vn 0.0154 0.9999 0.0034
v 24 1.4819 -12
vn 0.0154 0.9999 0.0034
f 406//406 407//407 408//408
v 22.6667 1.5069 -13.3333
vn 0.0153 0.9999 0.0035
v 24 1.4819 -12
vn 0.0153 0.9999 0.0035
v 24 1.4866 -13.3333
vn 0.0153 0.9999 0.0035
f 409//409 410//410 411//411
v 24 1.4866 -13.3333
vn 0.0046 1 0.0035
v 24 1.4819 -12
vn 0.0046 1 0.0035
v 25.3333 1.4758 -12
vn 0.0046 1 0.0035
f 412//412 413//413 414//414
v 24 1.4866 -13.3333
vn 0.0048 1 0.0034
v 25.3333 1.4758 -12
vn 0.0048 1 0.0034
v 25.3333 1.4803 -13.3333
vn 0.0048 1 0.0034
f 415//415 416//416 417//417
v 25.3333 1.4803 -13.3333
vn 0.0038 1 0.0034
v 25.3333 1.4758 -12
vn 0.0038 1 0.0034
v 26.6667 1.4707 -12
vn 0.0038 1 0.0034
f 418//418 419//419 420//420
v 25.3333 1.4803 -13.3333
vn 0.0037 1 0.0035
v 26.6667 1.4707 -12
vn 0.0037 1 0.0035
v 26.6667 1.4753 -13.3333
vn 0.0037 1 0.0035
f 421//421 422//422 423//423
v 26.6667 1.4753 -13.3333
vn 0.0002 1 0.0035
v 26.6667 1.4707 -12
vn 0.0002 1 0.0035
v 28 1.4704 -12
vn 0.0002 1 0.0035
f 424//424 425//425 426//426
v 26.6667 1.4753 -13.3333
vn 0.0002 1 0.0035
v 28 1.4704 -12
vn 0.0002 1 0.0035
v 28 1.4751 -13.3333
vn 0.0002 1 0.0035
f 427//427 428//428 429//429
v 28 1.4751 -13.3333
vn 0.0049 1 0.0035
v 28 1.4704 -12
vn 0.0049 1 0.0035
v 29.3333 1.4639 -12
vn 0.0049 1 0.0035
f 430//430 431//431 432//432
v 28 1.4751 -13.3333
vn 0.005 1 0.0034
v 29.3333 1.4639 -12
vn 0.005 1 0.0034
v 29.3333 1.4684 -13.3333
vn 0.005 1 0.0034
f 433//433 434//434 435//435
v 29.3333 1.4684 -13.3333
vn 0.0019 1 0.0034
v 29.3333 1.4639 -12
vn 0.0019 1 0.0034
v 30.6667 1.4614 -12
vn 0.0019 1 0.0034
f 436//436 437//437 438//438
v 29.3333 1.4684 -13.3333
vn 0.0023 1 0.003
v 30.6667 1.4614 -12
vn 0.0023 1 0.003
v 30.6667 1.4654 -13.3333
vn 0.0023 1 0.003
f 439//439 440//440 441//441
v 30.6667 1.4654 -13.3333
vn 0.0025 1 0.003
v 30.6667 1.4614 -12
vn 0.0025 1 0.003
v 32 1.458 -12
vn 0.0025 1 0.003
f 442//442 443//443 444//444
v 30.6667 1.4654 -13.3333
vn 0.0028 1 0.0027
v 32 1.458 -12
vn 0.0028 1 0.0027
v 32 1.4616 -13.3333
vn 0.0028 1 0.0027
f 445//445 446//446 447//447
v 16 1.5078 -12
vn -0.0015 0.9995 0.0329
v 16 1.4639 -10.6667
vn -0.0015 0.9995 0.0329
v 17.3333 1.4659 -10.6667
vn -0.0015 0.9995 0.0329
f 448//448 449//449 450//450
v 16 1.5078 -12
vn -0.0004 0.9995 0.0319
v 17.3333 1.4659 -10.6667
vn -0.0004 0.9995 0.0319
v 17.3333 1.5084 -12
vn -0.0004 0.9995 0.0319
f 451//451 452//452 453//453
v 17.3333 1.5084 -12
vn -0.0065 0.9995 0.0319
v 17.3333 1.4659 -10.6667
vn -0.0065 0.9995 0.0319
v 18.6667 1.4745 -10.6667
vn -0.0065 0.9995 0.0319
f 454//454 455//455 456//456
v 17.3333 1.5084 -12
vn -0.0057 0.9995 0.0311
v 18.6667 1.4745 -10.6667
vn -0.0057 0.9995 0.0311
v 18.6667 1.516 -12
vn -0.0057 0.9995 0.0311
f 457//457 458//458 459//459
v 18.6667 1.516 -12
vn 0.0019 0.9995 0.0311
v 18.6667 1.4745 -10.6667
vn 0.0019 0.9995 0.0311
v 20 1.472 -10.6667
vn 0.0019 0.9995 0.0311
f 460//460 461//461 462//462
v 18.6667 1.516 -12
vn 0.0005 0.9995 0.0324
v 20 1.472 -10.6667
vn 0.0005 0.9995 0.0324
v 20 1.5153 -12
vn 0.0005 0.9995 0.0324
f 463//463 464//464 465//465
v 20 1.5153 -12
vn 0.0029 0.9995 0.0324
v 20 1.472 -10.6667
vn 0.0029 0.9995 0.0324
v 21.3333 1.4682 -10.6667
vn 0.0029 0.9995 0.0324
f 466//466 467//467 468//468
v 20 1.5153 -12
vn 0.0009 0.9994 0.0344
v 21.3333 1.4682 -10.6667
vn 0.0009 0.9994 0.0344
v 21.3333 1.5141 -12
vn 0.0009 0.9994 0.0344
f 469//469 470//470 471//471
v 21.3333 1.5141 -12
vn 0.0089 0.9994 0.0344
v 21.3333 1.4682 -10.6667
vn 0.0089 0.9994 0.0344
v 22.6667 1.4563 -10.6667
vn 0.0089 0.9994 0.0344
f 472//472 473//473 474//474
v 21.3333 1.5141 -12
vn 0.0087 0.9994 0.0346
v 22.6667 1.4563 -10.6667
vn 0.0087 0.9994 0.0346
v 22.6667 1.5024 -12
vn 0.0087 0.9994 0.0346
f 475//475 476//476 477//477
v 22.6667 1.5024 -12
vn 0.0145 0.9993 0.0346
v 22.6667 1.4563 -10.6667
vn 0.0145 0.9993 0.0346
v 24 1.4369 -10.6667
vn 0.0145 0.9993 0.0346
f 478//478 479//479 480//480
v 22.6667 1.5024 -12
vn 0.0154 0.9993 0.0337
v 24 1.4369 -10.6667
vn 0.0154 0.9993 0.0337
v 24 1.4819 -12
vn 0.0154 0.9993 0.0337
f 481//481 482//482 483//483
v 24 1.4819 -12
vn 0.0044 0.9994 0.0337
v 24 1.4369 -10.6667
vn 0.0044 0.9994 0.0337
v 25.3333 1.431 -10.6667
vn 0.0044 0.9994 0.0337
f 484//484 485//485 486//486
v 24 1.4819 -12
vn 0.0046 0.9994 0.0336
v 25.3333 1.431 -10.6667
vn 0.0046 0.9994 0.0336
v 25.3333 1.4758 -12
vn 0.0046 0.9994 0.0336
f 487//487 488//488 489//489
v 25.3333 1.4758 -12
vn 0.0044 0.9994 0.0336
v 25.3333 1.431 -10.6667
vn 0.0044 0.9994 0.0336
v 26.6667 1.4251 -10.6667
vn 0.0044 0.9994 0.0336
f 490//490 491//491 492//492
v 25.3333 1.4758 -12
vn 0.0038 0.9994 0.0342
v 26.6667 1.4251 -10.6667
vn 0.0038 0.9994 0.0342
v 26.6667 1.4707 -12
vn 0.0038 0.9994 0.0342
f 493//493 494//494 495//495
v 26.6667 1.4707 -12
vn 0.0018 0.9994 0.0342
v 26.6667 1.4251 -10.6667
vn 0.0018 0.9994 0.0342
v 28 1.4226 -10.6667
vn 0.0018 0.9994 0.0342
f 496//496 497//497 498//498
v 26.6667 1.4707 -12
vn 0.0002 0.9994 0.0358
v 28 1.4226 -10.6667
vn 0.0002 0.9994 0.0358
v 28 1.4704 -12
vn 0.0002 0.9994 0.0358
f 499//499 500//500 501//501
v 28 1.4704 -12
vn 0.0042 0.9993 0.0358
v 28 1.4226 -10.6667
vn 0.0042 0.9993 0.0358
v 29.3333 1.417 -10.6667
vn 0.0042 0.9993 0.0358
f 502//502 503//503 504//504
v 28 1.4704 -12
vn 0.0049 0.9994 0.0351
v 29.3333 1.417 -10.6667
vn 0.0049 0.9994 0.0351
v 29.3333 1.4639 -12
vn 0.0049 0.9994 0.0351
f 505//505 506//506 507//507
v 29.3333 1.4639 -12
vn 0.0001 0.9994 0.0351
v 29.3333 1.417 -10.6667
vn 0.0001 0.9994 0.0351
v 30.6667 1.4169 -10.6667
vn 0.0001 0.9994 0.0351
f 508//508 509//509 510//510
v 29.3333 1.4639 -12
vn 0.0019 0.9994 0.0334
v 30.6667 1.4169 -10.6667
vn 0.0019 0.9994 0.0334
v 30.6667 1.4614 -12
vn 0.0019 0.9994 0.0334
f 511//511 512//512 513//513
v 30.6667 1.4614 -12
vn 0.0017 0.9994 0.0334
v 30.6667 1.4169 -10.6667
vn 0.0017 0.9994 0.0334
v 32 1.4147 -10.6667
vn 0.0017 0.9994 0.0334
f 514//514 515//515 516//516
v 30.6667 1.4614 -12
vn 0.0025 0.9995 0.0325
v 32 1.4147 -10.6667
vn 0.0025 0.9995 0.0325
v 32 1.458 -12
vn 0.0025 0.9995 0.0325
f 517//517 518//518 519//519
v 16 1.4639 -10.6667
vn 0.0001 0.9982 0.0604
v 16 1.3831 -9.3333
vn 0.0001 0.9982 0.0604
v 17.3333 1.383 -9.3333
vn 0.0001 0.9982 0.0604
f 520//520 521//521 522//522
v 16 1.4639 -10.6667
vn -0.0015 0.9981 0.0621
v 17.3333 1.383 -9.3333
vn -0.0015 0.9981 0.0621
v 17.3333 1.4659 -10.6667
vn -0.0015 0.9981 0.0621
f 523//523 524//524 525//525
v 17.3333 1.4659 -10.6667
vn -0.0045 0.9981 0.0621
v 17.3333 1.383 -9.3333
vn -0.0045 0.9981 0.0621
v 18.6667 1.389 -9.3333
vn -0.0045 0.9981 0.0621
f 526//526 527//527 528//528
v 17.3333 1.4659 -10.6667
vn -0.0065 0.9979 0.064
v 18.6667 1.389 -9.3333
vn -0.0065 0.9979 0.064
v 18.6667 1.4745 -10.6667
vn -0.0065 0.9979 0.064
f 529//529 530//530 531//531
v 18.6667 1.4745 -10.6667
vn -0.0027 0.9979 0.064
v 18.6667 1.389 -9.3333
vn -0.0027 0.9979 0.064
v 20 1.3926 -9.3333
vn -0.0027 0.9979 0.064
f 532//532 533//533 534//534
v 18.6667 1.4745 -10.6667
vn 0.0019 0.9982 0.0594
v 20 1.3926 -9.3333
vn 0.0019 0.9982 0.0594
v 20 1.472 -10.6667
vn 0.0019 0.9982 0.0594
f 535//535 536//536 537//537
v 20 1.472 -10.6667
vn 0.0055 0.9982 0.0594
v 20 1.3926 -9.3333
vn 0.0055 0.9982 0.0594
v 21.3333 1.3853 -9.3333
vn 0.0055 0.9982 0.0594
f 538//538 539//539 540//540
v 20 1.472 -10.6667
vn 0.0029 0.9981 0.062
v 21.3333 1.3853 -9.3333
vn 0.0029 0.9981 0.062
v 21.3333 1.4682 -10.6667
vn 0.0029 0.9981 0.062
f 541//541 542//542 543//543
v 21.3333 1.4682 -10.6667
vn 0.0109 0.998 0.062
v 21.3333 1.3853 -9.3333
vn 0.0109 0.998 0.062
v 22.6667 1.3707 -9.3333
vn 0.0109 0.998 0.062
f 544//544 545//545 546//546
v 21.3333 1.4682 -10.6667
vn 0.0089 0.9979 0.064
v 22.6667 1.3707 -9.3333
vn 0.0089 0.9979 0.064
v 22.6667 1.4563 -10.6667
vn 0.0089 0.9979 0.064
f 547//547 548//548 549//549
v 22.6667 1.4563 -10.6667
vn 0.0157 0.9978 0.064
v 22.6667 1.3707 -9.3333
vn 0.0157 0.9978 0.064
v 24 1.3497 -9.3333
vn 0.0157 0.9978 0.064
f 550//550 551//551 552//552
v 22.6667 1.4563 -10.6667
vn 0.0145 0.9978 0.0652
v 24 1.3497 -9.3333
vn 0.0145 0.9978 0.0652
v 24 1.4369 -10.6667
vn 0.0145 0.9978 0.0652
f 553//553 554//554 555//555
v 24 1.4369 -10.6667
vn 0.0052 0.9979 0.0652
v 24 1.3497 -9.3333
vn 0.0052 0.9979 0.0652
v 25.3333 1.3428 -9.3333
vn 0.0052 0.9979 0.0652
f 556//556 557//557 558//558
v 24 1.4369 -10.6667
vn 0.0044 0.9978 0.066
v 25.3333 1.3428 -9.3333
vn 0.0044 0.9978 0.066
v 25.3333 1.431 -10.6667
vn 0.0044 0.9978 0.066
f 559//559 560//560 561//561
v 25.3333 1.431 -10.6667
vn -0.0012 0.9978 0.066
v 25.3333 1.3428 -9.3333
vn -0.0012 0.9978 0.066
v 26.6667 1.3444 -9.3333
vn -0.0012 0.9978 0.066
f 562//562 563//563 564//564
v 25.3333 1.431 -10.6667
vn 0.0044 0.9982 0.0604
v 26.6667 1.3444 -9.3333
vn 0.0044 0.9982 0.0604
v 26.6667 1.4251 -10.6667
vn 0.0044 0.9982 0.0604
f 565//565 566//566 567//567
v 26.6667 1.4251 -10.6667
vn 0.0045 0.9982 0.0604
v 26.6667 1.3444 -9.3333
vn 0.0045 0.9982 0.0604
v 28 1.3384 -9.3333
vn 0.0045 0.9982 0.0604
f 568//568 569//569 570//570
v 26.6667 1.4251 -10.6667
vn 0.0018 0.998 0.063
v 28 1.3384 -9.3333
vn 0.0018 0.998 0.063
v 28 1.4226 -10.6667
vn 0.0018 0.998 0.063
f 571//571 572//572 573//573
v 28 1.4226 -10.6667
vn 0.0052 0.998 0.063
v 28 1.3384 -9.3333
vn 0.0052 0.998 0.063
v 29.3333 1.3314 -9.3333
vn 0.0052 0.998 0.063
f 574//574 575//575 576//576
v 28 1.4226 -10.6667
vn 0.0042 0.9979 0.064
v 29.3333 1.3314 -9.3333
vn 0.0042 0.9979 0.064
v 29.3333 1.417 -10.6667
vn 0.0042 0.9979 0.064
f 577//577 578//578 579//579
v 29.3333 1.417 -10.6667
vn -0.0028 0.9979 0.064
v 29.3333 1.3314 -9.3333
vn -0.0028 0.9979 0.064
v 30.6667 1.3352 -9.3333
vn -0.0028 0.9979 0.064
f 580//580 581//581 582//582
v 29.3333 1.417 -10.6667
vn 0.0001 0.9981 0.0611
v 30.6667 1.3352 -9.3333
vn 0.0001 0.9981 0.0611
v 30.6667 1.4169 -10.6667
vn 0.0001 0.9981 0.0611
f 583//583 584//584 585//585
v 30.6667 1.4169 -10.6667
vn 0.0011 0.9981 0.0611
v 30.6667 1.3352 -9.3333
vn 0.0011 0.9981 0.0611
v 32 1.3338 -9.3333
vn 0.0011 0.9981 0.0611
f 586//586 587//587 588//588
v 30.6667 1.4169 -10.6667
vn 0.0017 0.9982 0.0606
v 32 1.3338 -9.3333
vn 0.0017 0.9982 0.0606
v 32 1.4147 -10.6667
vn 0.0017 0.9982 0.0606
f 589//589 590//590 591//591
v 16 1.3831 -9.3333
vn 0.0011 0.9969 0.0785
v 16 1.2782 -8
vn 0.0011 0.9969 0.0785
v 17.3333 1.2767 -8
vn 0.0011 0.9969 0.0785
f 592//592 593//593 594//594
v 16 1.3831 -9.3333
vn 0.0001 0.9968 0.0795
v 17.3333 1.2767 -8
vn 0.0001 0.9968 0.0795
v 17.3333 1.383 -9.3333
vn 0.0001 0.9968 0.0795
f 595//595 596//596 597//597
v 17.3333 1.383 -9.3333
vn -0.0034 0.9968 0.0795
v 17.3333 1.2767 -8
vn -0.0034 0.9968 0.0795
v 18.6667 1.2813 -8
vn -0.0034 0.9968 0.0795
f 598//598 599//599 600//600
v 17.3333 1.383 -9.3333
vn -0.0045 0.9967 0.0805
v 18.6667 1.2813 -8
vn -0.0045 0.9967 0.0805
v 18.6667 1.389 -9.3333
vn -0.0045 0.9967 0.0805
f 601//601 602//602 603//603
v 18.6667 1.389 -9.3333
vn -0.002 0.9968 0.0805
v 18.6667 1.2813 -8
vn -0.002 0.9968 0.0805
v 20 1.2839 -8
vn -0.002 0.9968 0.0805
f 604//604 605//605 606//606
v 18.6667 1.389 -9.3333
vn -0.0027 0.9967 0.0813
v 20 1.2839 -8
vn -0.0027 0.9967 0.0813
v 20 1.3926 -9.3333
vn -0.0027 0.9967 0.0813
f 607//607 608//608 609//609
v 20 1.3926 -9.3333
vn 0.0065 0.9967 0.0813
v 20 1.2839 -8
vn 0.0065 0.9967 0.0813
v 21.3333 1.2752 -8
vn 0.0065 0.9967 0.0813
f 610//610 611//611 612//612
v 20 1.3926 -9.3333
vn 0.0055 0.9966 0.0823
v 21.3333 1.2752 -8
vn 0.0055 0.9966 0.0823
v 21.3333 1.3853 -9.3333
vn 0.0055 0.9966 0.0823
f 613//613 614//614 615//615
v 21.3333 1.3853 -9.3333
vn 0.0126 0.9965 0.0823
v 21.3333 1.2752 -8
vn 0.0126 0.9965 0.0823
v 22.6667 1.2583 -8
vn 0.0126 0.9965 0.0823
f 616//616 617//617 618//618
v 21.3333 1.3853 -9.3333
vn 0.0109 0.9964 0.084
v 22.6667 1.2583 -8
vn 0.0109 0.9964 0.084
v 22.6667 1.3707 -9.3333
vn 0.0109 0.9964 0.084
f 619//619 620//620 621//621
v 22.6667 1.3707 -9.3333
vn 0.0169 0.9963 0.084
v 22.6667 1.2583 -8
vn 0.0169 0.9963 0.084
v 24 1.2357 -8
vn 0.0169 0.9963 0.084
f 622//622 623//623 624//624
v 22.6667 1.3707 -9.3333
vn 0.0157 0.9962 0.0852
v 24 1.2357 -8
vn 0.0157 0.9962 0.0852
v 24 1.3497 -9.3333
vn 0.0157 0.9962 0.0852
f 625//625 626//626 627//627
v 24 1.3497 -9.3333
vn 0.0052 0.9963 0.0852
v 24 1.2357 -8
vn 0.0052 0.9963 0.0852
v 25.3333 1.2287 -8
vn 0.0052 0.9963 0.0852
f 628//628 629//629 630//630
v 24 1.3497 -9.3333
vn 0.0052 0.9963 0.0853
v 25.3333 1.2287 -8
vn 0.0052 0.9963 0.0853
v 25.3333 1.3428 -9.3333
vn 0.0052 0.9963 0.0853
f 631//631 632//632 633//633
v 25.3333 1.3428 -9.3333
vn -0.0015 0.9964 0.0853
v 25.3333 1.2287 -8
vn -0.0015 0.9964 0.0853
v 26.6667 1.2307 -8
vn -0.0015 0.9964 0.0853
f 634//634 635//635 636//636
v 25.3333 1.3428 -9.3333
vn -0.0011 0.9964 0.0849
v 26.6667 1.2307 -8
vn -0.0011 0.9964 0.0849
v 26.6667 1.3444 -9.3333
vn -0.0011 0.9964 0.0849
f 637//637 638//638 639//639
v 26.6667 1.3444 -9.3333
vn 0.0035 0.9964 0.0849
v 26.6667 1.2307 -8
vn 0.0035 0.9964 0.0849
v 28 1.226 -8
vn 0.0035 0.9964 0.0849
f 640//640 641//641 642//642
v 26.6667 1.3444 -9.3333
vn 0.0045 0.9965 0.084
v 28 1.226 -8
vn 0.0045 0.9965 0.084
v 28 1.3384 -9.3333
vn 0.0045 0.9965 0.084
f 643//643 644//644 645//645
v 28 1.3384 -9.3333
vn 0.0049 0.9965 0.084
v 28 1.226 -8
vn 0.0049 0.9965 0.084
v 29.3333 1.2195 -8
vn 0.0049 0.9965 0.084
f 646//646 647//647 648//648
v 28 1.3384 -9.3333
vn 0.0052 0.9965 0.0836
v 29.3333 1.2195 -8
vn 0.0052 0.9965 0.0836
v 29.3333 1.3314 -9.3333
vn 0.0052 0.9965 0.0836
f 649//649 650//650 651//651
v 29.3333 1.3314 -9.3333
vn -0.0035 0.9965 0.0836
v 29.3333 1.2195 -8
vn -0.0035 0.9965 0.0836
v 30.6667 1.2241 -8
vn -0.0035 0.9965 0.0836
f 652//652 653//653 654//654
v 29.3333 1.3314 -9.3333
vn -0.0028 0.9965 0.083
v 30.6667 1.2241 -8
vn -0.0028 0.9965 0.083
v 30.6667 1.3352 -9.3333
vn -0.0028 0.9965 0.083
f 655//655 656//656 657//657
v 30.6667 1.3352 -9.3333
vn 0.0006 0.9965 0.083
v 30.6667 1.2241 -8
vn 0.0006 0.9965 0.083
v 32 1.2233 -8
vn 0.0006 0.9965 0.083
f 658//658 659//659 660//660
v 30.6667 1.3352 -9.3333
vn 0.0011 0.9966 0.0825
v 32 1.2233 -8
vn 0.0011 0.9966 0.0825
v 32 1.3338 -9.3333
vn 0.0011 0.9966 0.0825
f 661//661 662//662 663//663
v 16 1.2782 -8
vn 0.0022 0.996 0.0893
v 16 1.1587 -6.6667
vn 0.0022 0.996 0.0893
v 17.3333 1.1558 -6.6667
vn 0.0022 0.996 0.0893
f 664//664 665//665 666//666
v 16 1.2782 -8
vn 0.0011 0.9959 0.0903
v 17.3333 1.1558 -6.6667
vn 0.0011 0.9959 0.0903
v 17.3333 1.2767 -8
vn 0.0011 0.9959 0.0903
f 667//667 668//668 669//669
v 17.3333 1.2767 -8
vn -0.002 0.9959 0.0903
v 17.3333 1.1558 -6.6667
vn -0.002 0.9959 0.0903
v 18.6667 1.1585 -6.6667
vn -0.002 0.9959 0.0903
f 670//670 671//671 672//672
v 17.3333 1.2767 -8
vn -0.0034 0.9958 0.0917
v 18.6667 1.1585 -6.6667
vn -0.0034 0.9958 0.0917
v 18.6667 1.2813 -8
vn -0.0034 0.9958 0.0917
f 673//673 674//674 675//675
v 18.6667 1.2813 -8
vn -0.0001 0.9958 0.0917
v 18.6667 1.1585 -6.6667
vn -0.0001 0.9958 0.0917
v 20 1.1586 -6.6667
vn -0.0001 0.9958 0.0917
f 676//676 677//677 678//678
v 18.6667 1.2813 -8
vn -0.002 0.9956 0.0936
v 20 1.1586 -6.6667
vn -0.002 0.9956 0.0936
v 20 1.2839 -8
vn -0.002 0.9956 0.0936
f 679//679 680//680 681//681
v 20 1.2839 -8
vn 0.0078 0.9956 0.0936
v 20 1.1586 -6.6667
vn 0.0078 0.9956 0.0936
v 21.3333 1.1481 -6.6667
vn 0.0078 0.9956 0.0936
f 682//682 683//683 684//684
v 20 1.2839 -8
vn 0.0065 0.9955 0.0949
v 21.3333 1.1481 -6.6667
vn 0.0065 0.9955 0.0949
v 21.3333 1.2752 -8
vn 0.0065 0.9955 0.0949
f 685//685 686//686 687//687
v 21.3333 1.2752 -8
vn 0.0133 0.9954 0.0949
v 21.3333 1.1481 -6.6667
vn 0.0133 0.9954 0.0949
v 22.6667 1.1303 -6.6667
vn 0.0133 0.9954 0.0949
f 688//688 689//689 690//690
v 21.3333 1.2752 -8
vn 0.0126 0.9953 0.0956
v 22.6667 1.1303 -6.6667
vn 0.0126 0.9953 0.0956
v 22.6667 1.2583 -8
vn 0.0126 0.9953 0.0956
f 691//691 692//692 693//693
v 22.6667 1.2583 -8
vn 0.0169 0.9953 0.0956
v 22.6667 1.1303 -6.6667
vn 0.0169 0.9953 0.0956
v 24 1.1076 -6.6667
vn 0.0169 0.9953 0.0956
f 694//694 695//695 696//696
v 22.6667 1.2583 -8
vn 0.0169 0.9953 0.0956
v 24 1.1076 -6.6667
vn 0.0169 0.9953 0.0956
v 24 1.2357 -8
vn 0.0169 0.9953 0.0956
f 697//697 698//698 699//699
v 24 1.2357 -8
vn 0.0051 0.9954 0.0956
v 24 1.1076 -6.6667
vn 0.0051 0.9954 0.0956
v 25.3333 1.1007 -6.6667
vn 0.0051 0.9954 0.0956
f 700//700 701//701 702//702
v 24 1.2357 -8
vn 0.0052 0.9954 0.0955
v 25.3333 1.1007 -6.6667
vn 0.0052 0.9954 0.0955
v 25.3333 1.2287 -8
vn 0.0052 0.9954 0.0955
f 703//703 704//704 705//705
v 25.3333 1.2287 -8
vn -0.0017 0.9954 0.0955
v 25.3333 1.1007 -6.6667
vn -0.0017 0.9954 0.0955
v 26.6667 1.103 -6.6667
vn -0.0017 0.9954 0.0955
f 706//706 707//707 708//708
v 25.3333 1.2287 -8
vn -0.0015 0.9954 0.0953
v 26.6667 1.103 -6.6667
vn -0.0015 0.9954 0.0953
v 26.6667 1.2307 -8
vn -0.0015 0.9954 0.0953
f 709//709 710//710 711//711
v 26.6667 1.2307 -8
vn 0.0037 0.9954 0.0953
v 26.6667 1.103 -6.6667
vn 0.0037 0.9954 0.0953
v 28 1.0981 -6.6667
vn 0.0037 0.9954 0.0953
f 712//712 713//713 714//714
v 26.6667 1.2307 -8
vn 0.0035 0.9954 0.0955
v 28 1.0981 -6.6667
vn 0.0035 0.9954 0.0955
v 28 1.226 -8
vn 0.0035 0.9954 0.0955
f 715//715 716//716 717//717
v 28 1.226 -8
vn 0.0046 0.9954 0.0955
v 28 1.0981 -6.6667
vn 0.0046 0.9954 0.0955
v 29.3333 1.0919 -6.6667
vn 0.0046 0.9954 0.0955
f 718//718 719//719 720//720
v 28 1.226 -8
vn 0.0049 0.9954 0.0953
v 29.3333 1.0919 -6.6667
vn 0.0049 0.9954 0.0953
v 29.3333 1.2195 -8
vn 0.0049 0.9954 0.0953
f 721//721 722//722 723//723
v 29.3333 1.2195 -8
vn -0.0039 0.9954 0.0953
v 29.3333 1.0919 -6.6667
vn -0.0039 0.9954 0.0953
v 30.6667 1.0971 -6.6667
vn -0.0039 0.9954 0.0953
f 724//724 725//725 726//726
v 29.3333 1.2195 -8
vn -0.0035 0.9955 0.0949
v 30.6667 1.0971 -6.6667
vn -0.0035 0.9955 0.0949
v 30.6667 1.2241 -8
vn -0.0035 0.9955 0.0949
f 727//727 728//728 729//729
v 30.6667 1.2241 -8
vn 0.0001 0.9955 0.0949
v 30.6667 1.0971 -6.6667
vn 0.0001 0.9955 0.0949
v 32 1.097 -6.6667
vn 0.0001 0.9955 0.0949
f 730//730 731//731 732//732
v 30.6667 1.2241 -8
vn 0.0006 0.9955 0.0943
v 32 1.097 -6.6667
vn 0.0006 0.9955 0.0943
v 32 1.2233 -8
vn 0.0006 0.9955 0.0943
f 733//733 734//734 735//735
v 16 1.1587 -6.6667
vn 0.0046 0.9941 0.1085
v 16 1.0132 -5.3333
vn 0.0046 0.9941 0.1085
v 17.3333 1.007 -5.3333
vn 0.0046 0.9941 0.1085
f 736//736 737//737 738//738
v 16 1.1587 -6.6667
vn 0.0022 0.9938 0.1109
v 17.3333 1.007 -5.3333
vn 0.0022 0.9938 0.1109
v 17.3333 1.1558 -6.6667
vn 0.0022 0.9938 0.1109
f 739//739 740//740 741//741
v 17.3333 1.1558 -6.6667
vn -0.002 0.9938 0.1109
v 17.3333 1.007 -5.3333
vn -0.002 0.9938 0.1109
v 18.6667 1.0096 -5.3333
vn -0.002 0.9938 0.1109
f 742//742 743//743 744//744
v 17.3333 1.1558 -6.6667
vn -0.002 0.9938 0.1109
v 18.6667 1.0096 -5.3333
vn -0.002 0.9938 0.1109
v 18.6667 1.1585 -6.6667
vn -0.002 0.9938 0.1109
f 745//745 746//746 747//747
v 18.6667 1.1585 -6.6667
vn 0.0019 0.9938 0.1109
v 18.6667 1.0096 -5.3333
vn 0.0019 0.9938 0.1109
v 20 1.007 -5.3333
vn 0.0019 0.9938 0.1109
f 748//748 749//749 750//750
v 18.6667 1.1585 -6.6667
vn -0.0001 0.9936 0.1129
v 20 1.007 -5.3333
vn -0.0001 0.9936 0.1129
v 20 1.1586 -6.6667
vn -0.0001 0.9936 0.1129
f 751//751 752//752 753//753
v 20 1.1586 -6.6667
vn 0.0075 0.9936 0.1129
v 20 1.007 -5.3333
vn 0.0075 0.9936 0.1129
v 21.3333 0.997 -5.3333
vn 0.0075 0.9936 0.1129
f 754//754 755//755 756//756
v 20 1.1586 -6.6667
vn 0.0078 0.9936 0.1126
v 21.3333 0.997 -5.3333
vn 0.0078 0.9936 0.1126
v 21.3333 1.1481 -6.6667
vn 0.0078 0.9936 0.1126
f 757//757 758//758 759//759
v 21.3333 1.1481 -6.6667
vn 0.0136 0.9935 0.1126
v 21.3333 0.997 -5.3333
vn 0.0136 0.9935 0.1126
v 22.6667 0.9788 -5.3333
vn 0.0136 0.9935 0.1126
f 760//760 761//761 762//762
v 21.3333 1.1481 -6.6667
vn 0.0133 0.9935 0.1129
v 22.6667 0.9788 -5.3333
vn 0.0133 0.9935 0.1129
v 22.6667 1.1303 -6.6667
vn 0.0133 0.9935 0.1129
f 763//763 764//764 765//765
v 22.6667 1.1303 -6.6667
vn 0.0169 0.9935 0.1129
v 22.6667 0.9788 -5.3333
vn 0.0169 0.9935 0.1129
v 24 0.9561 -5.3333
vn 0.0169 0.9935 0.1129
f 766//766 767//767 768//768
v 22.6667 1.1303 -6.6667
vn 0.0169 0.9935 0.1129
v 24 0.9561 -5.3333
vn 0.0169 0.9935 0.1129
v 24 1.1076 -6.6667
vn 0.0169 0.9935 0.1129
f 769//769 770//770 771//771
v 24 1.1076 -6.6667
vn 0.0043 0.9936 0.1129
v 24 0.9561 -5.3333
vn 0.0043 0.9936 0.1129
v 25.3333 0.9504 -5.3333
vn 0.0043 0.9936 0.1129
f 772//772 773//773 774//774
v 24 1.1076 -6.6667
vn 0.0051 0.9937 0.112
v 25.3333 0.9504 -5.3333
vn 0.0051 0.9937 0.112
v 25.3333 1.1007 -6.6667
vn 0.0051 0.9937 0.112
f 775//775 776//776 777//777
v 25.3333 1.1007 -6.6667
vn -0.0003 0.9937 0.112
v 25.3333 0.9504 -5.3333
vn -0.0003 0.9937 0.112
v 26.6667 0.9508 -5.3333
vn -0.0003 0.9937 0.112
f 778//778 779//779 780//780
v 25.3333 1.1007 -6.6667
vn -0.0017 0.9935 0.1134
v 26.6667 0.9508 -5.3333
vn -0.0017 0.9935 0.1134
v 26.6667 1.103 -6.6667
vn -0.0017 0.9935 0.1134
f 781//781 782//782 783//783
v 26.6667 1.103 -6.6667
vn 0.0012 0.9935 0.1134
v 26.6667 0.9508 -5.3333
vn 0.0012 0.9935 0.1134
v 28 0.9491 -5.3333
vn 0.0012 0.9935 0.1134
f 784//784 785//785 786//786
v 26.6667 1.103 -6.6667
vn 0.0037 0.9938 0.111
v 28 0.9491 -5.3333
vn 0.0037 0.9938 0.111
v 28 1.0981 -6.6667
vn 0.0037 0.9938 0.111
f 787//787 788//788 789//789
v 28 1.0981 -6.6667
vn 0.0058 0.9938 0.111
v 28 0.9491 -5.3333
vn 0.0058 0.9938 0.111
v 29.3333 0.9414 -5.3333
vn 0.0058 0.9938 0.111
f 790//790 791//791 792//792
v 28 1.0981 -6.6667
vn 0.0046 0.9937 0.1121
v 29.3333 0.9414 -5.3333
vn 0.0046 0.9937 0.1121
v 29.3333 1.0919 -6.6667
vn 0.0046 0.9937 0.1121
f 793//793 794//794 795//795
v 29.3333 1.0919 -6.6667
vn -0.0033 0.9937 0.1121
v 29.3333 0.9414 -5.3333
vn -0.0033 0.9937 0.1121
v 30.6667 0.9458 -5.3333
vn -0.0033 0.9937 0.1121
f 796//796 797//797 798//798
v 29.3333 1.0919 -6.6667
vn -0.0039 0.9936 0.1127
v 30.6667 0.9458 -5.3333
vn -0.0039 0.9936 0.1127
v 30.6667 1.0971 -6.6667
vn -0.0039 0.9936 0.1127
f 799//799 800//800 801//801
v 30.6667 1.0971 -6.6667
vn -0.0007 0.9936 0.1127
v 30.6667 0.9458 -5.3333
vn -0.0007 0.9936 0.1127
v 32 0.9467 -5.3333
vn -0.0007 0.9936 0.1127
f 802//802 803//803 804//804
v 30.6667 1.0971 -6.6667
vn 0.0001 0.9937 0.112
v 32 0.9467 -5.3333
vn 0.0001 0.9937 0.112
v 32 1.097 -6.6667
vn 0.0001 0.9937 0.112
f 805//805 806//806 807//807
v 16 1.0132 -5.3333
vn 0.0059 0.9878 0.1554
v 16 0.8035 -4
vn 0.0059 0.9878 0.1554
v 17.3333 0.7955 -4
vn 0.0059 0.9878 0.1554
f 808//808 809//809 810//810
v 16 1.0132 -5.3333
vn 0.0046 0.9876 0.1567
v 17.3333 0.7955 -4
vn 0.0046 0.9876 0.1567
v 17.3333 1.007 -5.3333
vn 0.0046 0.9876 0.1567
f 811//811 812//812 813//813
v 17.3333 1.007 -5.3333
vn -0.0017 0.9876 0.1567
v 17.3333 0.7955 -4
vn -0.0017 0.9876 0.1567
v 18.6667 0.7978 -4
vn -0.0017 0.9876 0.1567
f 814//814 815//815 816//816
v 17.3333 1.007 -5.3333
vn -0.0019 0.9876 0.1569
v 18.6667 0.7978 -4
vn -0.0019 0.9876 0.1569
v 18.6667 1.0096 -5.3333
vn -0.0019 0.9876 0.1569
f 817//817 818//818 819//819
v 18.6667 1.0096 -5.3333
vn 0.0028 0.9876 0.1569
v 18.6667 0.7978 -4
vn 0.0028 0.9876 0.1569
v 20 0.794 -4
vn 0.0028 0.9876 0.1569
f 820//820 821//821 822//822
v 18.6667 1.0096 -5.3333
vn 0.0019 0.9875 0.1577
v 20 0.794 -4
vn 0.0019 0.9875 0.1577
v 20 1.007 -5.3333
vn 0.0019 0.9875 0.1577
f 823//823 824//824 825//825
v 20 1.007 -5.3333
vn 0.0051 0.9875 0.1577
v 20 0.794 -4
vn 0.0051 0.9875 0.1577
v 21.3333 0.7871 -4
vn 0.0051 0.9875 0.1577
f 826//826 827//827 828//828
v 20 1.007 -5.3333
vn 0.0074 0.9878 0.1555
v 21.3333 0.7871 -4
vn 0.0074 0.9878 0.1555
v 21.3333 0.997 -5.3333
vn 0.0074 0.9878 0.1555
f 829//829 830//830 831//831
v 21.3333 0.997 -5.3333
vn 0.0109 0.9878 0.1555
v 21.3333 0.7871 -4
vn 0.0109 0.9878 0.1555
v 22.6667 0.7724 -4
vn 0.0109 0.9878 0.1555
f 832//832 833//833 834//834
v 21.3333 0.997 -5.3333
vn 0.0135 0.9881 0.153
v 22.6667 0.7724 -4
vn 0.0135 0.9881 0.153
v 22.6667 0.9788 -5.3333
vn 0.0135 0.9881 0.153
f 835//835 836//836 837//837
v 22.6667 0.9788 -5.3333
vn 0.0148 0.9881 0.153
v 22.6667 0.7724 -4
vn 0.0148 0.9881 0.153
v 24 0.7524 -4
vn 0.0148 0.9881 0.153
f 838//838 839//839 840//840
v 22.6667 0.9788 -5.3333
vn 0.0168 0.9884 0.151
v 24 0.7524 -4
vn 0.0168 0.9884 0.151
v 24 0.9561 -5.3333
vn 0.0168 0.9884 0.151
f 841//841 842//842 843//843
v 24 0.9561 -5.3333
vn 0.0032 0.9885 0.151
v 24 0.7524 -4
vn 0.0032 0.9885 0.151
v 25.3333 0.7481 -4
vn 0.0032 0.9885 0.151
f 844//844 845//845 846//846
v 24 0.9561 -5.3333
vn 0.0042 0.9887 0.15
v 25.3333 0.7481 -4
vn 0.0042 0.9887 0.15
v 25.3333 0.9504 -5.3333
vn 0.0042 0.9887 0.15
f 847//847 848//848 849//849
v 25.3333 0.9504 -5.3333
vn -0.0003 0.9886 0.1506
v 26.6667 0.7477 -4
vn -0.0003 0.9886 0.1506
v 26.6667 0.9508 -5.3333
vn -0.0003 0.9886 0.1506
f 850//850 851//851 852//852
v 26.6667 0.9508 -5.3333
vn 0.0012 0.9888 0.149
v 28 0.7483 -4
vn 0.0012 0.9888 0.149
v 28 0.9491 -5.3333
vn 0.0012 0.9888 0.149
f 853//853 854//854 855//855
v 28 0.9491 -5.3333
vn 0.0057 0.9888 0.1493
v 29.3333 0.74 -4
vn 0.0057 0.9888 0.1493
v 29.3333 0.9414 -5.3333
vn 0.0057 0.9888 0.1493
f 856//856 857//857 858//858
v 29.3333 0.9414 -5.3333
vn -0.0033 0.9888 0.1495
v 30.6667 0.7443 -4
vn -0.0033 0.9888 0.1495
v 30.6667 0.9458 -5.3333
vn -0.0033 0.9888 0.1495
f 859//859 860//860 861//861
v 30.6667 0.9458 -5.3333
vn -0.0007 0.9888 0.1491
v 32 0.7457 -4
vn -0.0007 0.9888 0.1491
v 32 0.9467 -5.3333
vn -0.0007 0.9888 0.1491
f 862//862 863//863 864//864
