# litt live chunk - perpetual grass world
# chunk (-2,0) seed=1337 size=16 res=12
mtllib materials.mtl
o chunk_-2_0
g dirt
usemtl dirt
v -32 1.4651 0
vn -0.0011 1 0.0002
v -32 1.4647 1.3333
vn -0.0011 1 0.0002
v -30.6667 1.4662 1.3333
vn -0.0011 1 0.0002
f 1//1 2//2 3//3
v -32 1.4651 0
vn -0.001 1 0.0001
v -30.6667 1.4662 1.3333
vn -0.001 1 0.0001
v -30.6667 1.4664 0
vn -0.001 1 0.0001
f 4//4 5//5 6//6
v -30.6667 1.4664 0
vn 0.0007 1 0.0001
v -30.6667 1.4662 1.3333
vn 0.0007 1 0.0001
v -29.3333 1.4653 1.3333
vn 0.0007 1 0.0001
f 7//7 8//8 9//9
v -30.6667 1.4664 0
vn 0.0009 1 -0.0001
v -29.3333 1.4653 1.3333
vn 0.0009 1 -0.0001
v -29.3333 1.4652 0
vn 0.0009 1 -0.0001
f 10//10 11//11 12//12
v -29.3333 1.4652 0
vn -0.0087 1 -0.0001
v -29.3333 1.4653 1.3333
vn -0.0087 1 -0.0001
v -28 1.4768 1.3333
vn -0.0087 1 -0.0001
f 13//13 14//14 15//15
v -29.3333 1.4652 0
vn -0.0088 1 0
v -28 1.4768 1.3333
vn -0.0088 1 0
v -28 1.4769 0
vn -0.0088 1 0
f 16//16 17//17 18//18
v -28 1.4769 0
vn -0.0011 1 0
v -28 1.4768 1.3333
vn -0.0011 1 0
v -26.6667 1.4783 1.3333
vn -0.0011 1 0
f 19//19 20//20 21//21
v -28 1.4769 0
vn -0.0016 1 0.0006
v -26.6667 1.4783 1.3333
vn -0.0016 1 0.0006
v -26.6667 1.479 0
vn -0.0016 1 0.0006
f 22//22 23//23 24//24
v -26.6667 1.479 0
vn -0.001 1 0.0006
v -26.6667 1.4783 1.3333
vn -0.001 1 0.0006
v -25.3333 1.4796 1.3333
vn -0.001 1 0.0006
f 25//25 26//26 27//27
v -26.6667 1.479 0
vn -0.0009 1 0.0005
v -25.3333 1.4796 1.3333
vn -0.0009 1 0.0005
v -25.3333 1.4802 0
vn -0.0009 1 0.0005
f 28//28 29//29 30//30
v -25.3333 1.4802 0
vn -0.0032 1 0.0005
v -25.3333 1.4796 1.3333
vn -0.0032 1 0.0005
v -24 1.4839 1.3333
vn -0.0032 1 0.0005
f 31//31 32//32 33//33
v -25.3333 1.4802 0
vn -0.0031 1 0.0004
v -24 1.4839 1.3333
vn -0.0031 1 0.0004
v -24 1.4844 0
vn -0.0031 1 0.0004
f 34//34 35//35 36//36
v -24 1.4844 0
vn -0.0156 0.9999 0.0004
v -24 1.4839 1.3333
vn -0.0156 0.9999 0.0004
v -22.6667 1.5047 1.3333
vn -0.0156 0.9999 0.0004
f 37//37 38//38 39//39
v -24 1.4844 0
vn -0.015 0.9999 -0.0002
v -22.6667 1.5047 1.3333
vn -0.015 0.9999 -0.0002
v -22.6667 1.5044 0
vn -0.015 0.9999 -0.0002
f 40//40 41//41 42//42
v -22.6667 1.5044 0
vn -0.011 0.9999 -0.0002
v -22.6667 1.5047 1.3333
vn -0.011 0.9999 -0.0002
v -21.3333 1.5194 1.3333
vn -0.011 0.9999 -0.0002
f 43//43 44//44 45//45
v -22.6667 1.5044 0
vn -0.0106 0.9999 -0.0006
v -21.3333 1.5194 1.3333
vn -0.0106 0.9999 -0.0006
v -21.3333 1.5185 0
vn -0.0106 0.9999 -0.0006
f 46//46 47//47 48//48
v -21.3333 1.5185 0
vn -0.0026 1 -0.0006
v -21.3333 1.5194 1.3333
vn -0.0026 1 -0.0006
v -20 1.5228 1.3333
vn -0.0026 1 -0.0006
f 49//49 50//50 51//51
v -21.3333 1.5185 0
vn -0.0026 1 -0.0006
v -20 1.5228 1.3333
vn -0.0026 1 -0.0006
v -20 1.522 0
vn -0.0026 1 -0.0006
f 52//52 53//53 54//54
v -20 1.522 0
vn 0.0028 1 -0.0006
v -20 1.5228 1.3333
vn 0.0028 1 -0.0006
v -18.6667 1.519 1.3333
vn 0.0028 1 -0.0006
f 55//55 56//56 57//57
v -20 1.522 0
vn 0.0022 1 -0
v -18.6667 1.519 1.3333
vn 0.0022 1 -0
v -18.6667 1.519 0
vn 0.0022 1 -0
f 58//58 59//59 60//60
v -18.6667 1.519 0
vn 0.0078 1 -0
v -18.6667 1.519 1.3333
vn 0.0078 1 -0
v -17.3333 1.5086 1.3333
vn 0.0078 1 -0
f 61//61 62//62 63//63
v -18.6667 1.519 0
vn 0.0078 1 -0
v -17.3333 1.5086 1.3333
vn 0.0078 1 -0
v -17.3333 1.5085 0
vn 0.0078 1 -0
f 64//64 65//65 66//66
v -17.3333 1.5085 0
vn -0.0013 1 -0
v -17.3333 1.5086 1.3333
vn -0.0013 1 -0
v -16 1.5103 1.3333
vn -0.0013 1 -0
f 67//67 68//68 69//69
v -17.3333 1.5085 0
vn -0.0015 1 0.0001
v -16 1.5103 1.3333
vn -0.0015 1 0.0001
v -16 1.5105 0
vn -0.0015 1 0.0001
f 70//70 71//71 72//72
v -32 1.4647 1.3333
vn -0.0012 1 0.0003
v -32 1.4643 2.6667
vn -0.0012 1 0.0003
v -30.6667 1.4659 2.6667
vn -0.0012 1 0.0003
f 73//73 74//74 75//75
v -32 1.4647 1.3333
vn -0.0011 1 0.0002
v -30.6667 1.4659 2.6667
vn -0.0011 1 0.0002
v -30.6667 1.4662 1.3333
vn -0.0011 1 0.0002
f 76//76 77//77 78//78
v -30.6667 1.4662 1.3333
vn 0.0007 1 0.0002
v -30.6667 1.4659 2.6667
vn 0.0007 1 0.0002
v -29.3333 1.465 2.6667
vn 0.0007 1 0.0002
f 79//79 80//80 81//81
v -30.6667 1.4662 1.3333
vn 0.0007 1 0.0002
v -29.3333 1.465 2.6667
vn 0.0007 1 0.0002
v -29.3333 1.4653 1.3333
vn 0.0007 1 0.0002
f 82//82 83//83 84//84
v -29.3333 1.4653 1.3333
vn -0.0086 1 0.0002
v -29.3333 1.465 2.6667
vn -0.0086 1 0.0002
v -28 1.4765 2.6667
vn -0.0086 1 0.0002
f 85//85 86//86 87//87
v -29.3333 1.4653 1.3333
vn -0.0087 1 0.0003
v -28 1.4765 2.6667
vn -0.0087 1 0.0003
v -28 1.4768 1.3333
vn -0.0087 1 0.0003
f 88//88 89//89 90//90
v -28 1.4768 1.3333
vn -0.0016 1 0.0003
v -28 1.4765 2.6667
vn -0.0016 1 0.0003
v -26.6667 1.4786 2.6667
vn -0.0016 1 0.0003
f 91//91 92//92 93//93
v -28 1.4768 1.3333
vn -0.0011 1 -0.0003
v -26.6667 1.4786 2.6667
vn -0.0011 1 -0.0003
v -26.6667 1.4783 1.3333
vn -0.0011 1 -0.0003
f 94//94 95//95 96//96
v -26.6667 1.4783 1.3333
vn -0.0011 1 -0.0003
v -26.6667 1.4786 2.6667
vn -0.0011 1 -0.0003
v -25.3333 1.4801 2.6667
vn -0.0011 1 -0.0003
f 97//97 98//98 99//99
v -26.6667 1.4783 1.3333
vn -0.001 1 -0.0004
v -25.3333 1.4801 2.6667
vn -0.001 1 -0.0004
v -25.3333 1.4796 1.3333
vn -0.001 1 -0.0004
f 100//100 101//101 102//102
v -25.3333 1.4796 1.3333
vn -0.0035 1 -0.0004
v -25.3333 1.4801 2.6667
vn -0.0035 1 -0.0004
v -24 1.4848 2.6667
vn -0.0035 1 -0.0004
f 103//103 104//104 105//105
v -25.3333 1.4796 1.3333
vn -0.0032 1 -0.0007
v -24 1.4848 2.6667
vn -0.0032 1 -0.0007
v -24 1.4839 1.3333
vn -0.0032 1 -0.0007
f 106//106 107//107 108//108
v -24 1.4839 1.3333
vn -0.0153 0.9999 -0.0007
v -24 1.4848 2.6667
vn -0.0153 0.9999 -0.0007
v -22.6667 1.5052 2.6667
vn -0.0153 0.9999 -0.0007
f 109//109 110//110 111//111
v -24 1.4839 1.3333
vn -0.0156 0.9999 -0.0004
v -22.6667 1.5052 2.6667
vn -0.0156 0.9999 -0.0004
v -22.6667 1.5047 1.3333
vn -0.0156 0.9999 -0.0004
f 112//112 113//113 114//114
v -22.6667 1.5047 1.3333
vn -0.0104 0.9999 -0.0004
v -22.6667 1.5052 2.6667
vn -0.0104 0.9999 -0.0004
v -21.3333 1.519 2.6667
vn -0.0104 0.9999 -0.0004
f 115//115 116//116 117//117
v -22.6667 1.5047 1.3333
vn -0.011 0.9999 0.0003
v -21.3333 1.519 2.6667
vn -0.011 0.9999 0.0003
v -21.3333 1.5194 1.3333
vn -0.011 0.9999 0.0003
f 118//118 119//119 120//120
v -21.3333 1.5194 1.3333
vn -0.0027 1 0.0003
v -21.3333 1.519 2.6667
vn -0.0027 1 0.0003
v -20 1.5226 2.6667
vn -0.0027 1 0.0003
f 121//121 122//122 123//123
v -21.3333 1.5194 1.3333
vn -0.0026 1 0.0001
v -20 1.5226 2.6667
vn -0.0026 1 0.0001
v -20 1.5228 1.3333
vn -0.0026 1 0.0001
f 124//124 125//125 126//126
v -20 1.5228 1.3333
vn 0.0024 1 0.0001
v -20 1.5226 2.6667
vn 0.0024 1 0.0001
v -18.6667 1.5194 2.6667
vn 0.0024 1 0.0001
f 127//127 128//128 129//129
v -20 1.5228 1.3333
vn 0.0028 1 -0.0003
v -18.6667 1.5194 2.6667
vn 0.0028 1 -0.0003
v -18.6667 1.519 1.3333
vn 0.0028 1 -0.0003
f 130//130 131//131 132//132
v -18.6667 1.519 1.3333
vn 0.008 1 -0.0003
v -18.6667 1.5194 2.6667
vn 0.008 1 -0.0003
v -17.3333 1.5087 2.6667
vn 0.008 1 -0.0003
f 133//133 134//134 135//135
v -18.6667 1.519 1.3333
vn 0.0078 1 -0.0001
v -17.3333 1.5087 2.6667
vn 0.0078 1 -0.0001
v -17.3333 1.5086 1.3333
vn 0.0078 1 -0.0001
f 136//136 137//137 138//138
v -17.3333 1.5086 1.3333
vn -0.0012 1 -0.0001
v -17.3333 1.5087 2.6667
vn -0.0012 1 -0.0001
v -16 1.5103 2.6667
vn -0.0012 1 -0.0001
f 139//139 140//140 141//141
v -17.3333 1.5086 1.3333
vn -0.0013 1 0
v -16 1.5103 2.6667
vn -0.0013 1 0
v -16 1.5103 1.3333
vn -0.0013 1 0
f 142//142 143//143 144//144
v -32 1.4643 2.6667
vn -0.0012 1 0.0005
v -32 1.4637 4
vn -0.0012 1 0.0005
v -30.6667 1.4653 4
vn -0.0012 1 0.0005
f 145//145 146//146 147//147
v -32 1.4643 2.6667
vn -0.0012 1 0.0004
v -30.6667 1.4653 4
vn -0.0012 1 0.0004
v -30.6667 1.4659 2.6667
vn -0.0012 1 0.0004
f 148//148 149//149 150//150
v -30.6667 1.4659 2.6667
vn 0.0005 1 0.0004
v -30.6667 1.4653 4
vn 0.0005 1 0.0004
v -29.3333 1.4647 4
vn 0.0005 1 0.0004
f 151//151 152//152 153//153
v -30.6667 1.4659 2.6667
vn 0.0007 1 0.0002
v -29.3333 1.4647 4
vn 0.0007 1 0.0002
v -29.3333 1.465 2.6667
vn 0.0007 1 0.0002
f 154//154 155//155 156//156
v -29.3333 1.465 2.6667
vn -0.0087 1 0.0002
v -29.3333 1.4647 4
vn -0.0087 1 0.0002
v -28 1.4762 4
vn -0.0087 1 0.0002
f 157//157 158//158 159//159
v -29.3333 1.465 2.6667
vn -0.0086 1 0.0002
v -28 1.4762 4
vn -0.0086 1 0.0002
v -28 1.4765 2.6667
vn -0.0086 1 0.0002
f 160//160 161//161 162//162
v -28 1.4765 2.6667
vn -0.0015 1 0.0002
v -28 1.4762 4
vn -0.0015 1 0.0002
v -26.6667 1.4782 4
vn -0.0015 1 0.0002
f 163//163 164//164 165//165
v -28 1.4765 2.6667
vn -0.0016 1 0.0003
v -26.6667 1.4782 4
vn -0.0016 1 0.0003
v -26.6667 1.4786 2.6667
vn -0.0016 1 0.0003
f 166//166 167//167 168//168
v -26.6667 1.4786 2.6667
vn -0.0012 1 0.0003
v -26.6667 1.4782 4
vn -0.0012 1 0.0003
v -25.3333 1.4799 4
vn -0.0012 1 0.0003
f 169//169 170//170 171//171
v -26.6667 1.4786 2.6667
vn -0.0011 1 0.0002
v -25.3333 1.4799 4
vn -0.0011 1 0.0002
v -25.3333 1.4801 2.6667
vn -0.0011 1 0.0002
f 172//172 173//173 174//174
v -25.3333 1.4801 2.6667
vn -0.0035 1 0.0002
v -25.3333 1.4799 4
vn -0.0035 1 0.0002
v -24 1.4845 4
vn -0.0035 1 0.0002
f 175//175 176//176 177//177
v -25.3333 1.4801 2.6667
vn -0.0035 1 0.0002
v -24 1.4845 4
vn -0.0035 1 0.0002
v -24 1.4848 2.6667
vn -0.0035 1 0.0002
f 178//178 179//179 180//180
v -24 1.4848 2.6667
vn -0.0153 0.9999 0.0002
v -24 1.4845 4
vn -0.0153 0.9999 0.0002
v -22.6667 1.5049 4
vn -0.0153 0.9999 0.0002
f 181//181 182//182 183//183
v -24 1.4848 2.6667
vn -0.0153 0.9999 0.0002
v -22.6667 1.5049 4
vn -0.0153 0.9999 0.0002
v -22.6667 1.5052 2.6667
vn -0.0153 0.9999 0.0002
f 184//184 185//185 186//186
v -22.6667 1.5052 2.6667
vn -0.0104 0.9999 0.0002
v -22.6667 1.5049 4
vn -0.0104 0.9999 0.0002
v -21.3333 1.5188 4
vn -0.0104 0.9999 0.0002
f 187//187 188//188 189//189
v -22.6667 1.5052 2.6667
vn -0.0104 0.9999 0.0002
v -21.3333 1.5188 4
vn -0.0104 0.9999 0.0002
v -21.3333 1.519 2.6667
vn -0.0104 0.9999 0.0002
f 190//190 191//191 192//192
v -21.3333 1.519 2.6667
vn -0.0027 1 0.0002
v -21.3333 1.5188 4
vn -0.0027 1 0.0002
v -20 1.5223 4
vn -0.0027 1 0.0002
f 193//193 194//194 195//195
v -21.3333 1.519 2.6667
vn -0.0027 1 0.0002
v -20 1.5223 4
vn -0.0027 1 0.0002
v -20 1.5226 2.6667
vn -0.0027 1 0.0002
f 196//196 197//197 198//198
v -20 1.5226 2.6667
vn 0.0026 1 0.0002
v -20 1.5223 4
vn 0.0026 1 0.0002
v -18.6667 1.5188 4
vn 0.0026 1 0.0002
f 199//199 200//200 201//201
v -20 1.5226 2.6667
vn 0.0024 1 0.0004
v -18.6667 1.5188 4
vn 0.0024 1 0.0004
v -18.6667 1.5194 2.6667
vn 0.0024 1 0.0004
f 202//202 203//203 204//204
v -18.6667 1.5194 2.6667
vn 0.0081 1 0.0004
v -18.6667 1.5188 4
vn 0.0081 1 0.0004
v -17.3333 1.508 4
vn 0.0081 1 0.0004
f 205//205 206//206 207//207
v -18.6667 1.5194 2.6667
vn 0.008 1 0.0005
v -17.3333 1.508 4
vn 0.008 1 0.0005
v -17.3333 1.5087 2.6667
vn 0.008 1 0.0005
f 208//208 209//209 210//210
v -17.3333 1.5087 2.6667
vn -0.001 1 0.0005
v -17.3333 1.508 4
vn -0.001 1 0.0005
v -16 1.5093 4
vn -0.001 1 0.0005
f 211//211 212//212 213//213
v -17.3333 1.5087 2.6667
vn -0.0012 1 0.0008
v -16 1.5093 4
vn -0.0012 1 0.0008
v -16 1.5103 2.6667
vn -0.0012 1 0.0008
f 214//214 215//215 216//216
v -32 1.4637 4
vn -0.0013 1 -0.0003
v -32 1.464 5.3333
vn -0.0013 1 -0.0003
v -30.6667 1.4658 5.3333
vn -0.0013 1 -0.0003
f 217//217 218//218 219//219
v -32 1.4637 4
vn -0.0012 1 -0.0004
v -30.6667 1.4658 5.3333
vn -0.0012 1 -0.0004
v -30.6667 1.4653 4
vn -0.0012 1 -0.0004
f 220//220 221//221 222//222
v -30.6667 1.4653 4
vn 0.0013 1 -0.0004
v -30.6667 1.4658 5.3333
vn 0.0013 1 -0.0004
v -29.3333 1.4641 5.3333
vn 0.0013 1 -0.0004
f 223//223 224//224 225//225
v -30.6667 1.4653 4
vn 0.0005 1 0.0004
v -29.3333 1.4641 5.3333
vn 0.0005 1 0.0004
v -29.3333 1.4647 4
vn 0.0005 1 0.0004
f 226//226 227//227 228//228
v -29.3333 1.4647 4
vn -0.0076 1 0.0004
v -29.3333 1.4641 5.3333
vn -0.0076 1 0.0004
v -28 1.4742 5.3333
vn -0.0076 1 0.0004
f 229//229 230//230 231//231
v -29.3333 1.4647 4
vn -0.0087 1 0.0015
v -28 1.4742 5.3333
vn -0.0087 1 0.0015
v -28 1.4762 4
vn -0.0087 1 0.0015
f 232//232 233//233 234//234
v -28 1.4762 4
vn -0.0026 1 0.0015
v -28 1.4742 5.3333
vn -0.0026 1 0.0015
v -26.6667 1.4777 5.3333
vn -0.0026 1 0.0015
f 235//235 236//236 237//237
v -28 1.4762 4
vn -0.0015 1 0.0004
v -26.6667 1.4777 5.3333
vn -0.0015 1 0.0004
v -26.6667 1.4782 4
vn -0.0015 1 0.0004
f 238//238 239//239 240//240
v -26.6667 1.4782 4
vn -0.0003 1 0.0004
v -26.6667 1.4777 5.3333
vn -0.0003 1 0.0004
v -25.3333 1.4781 5.3333
vn -0.0003 1 0.0004
f 241//241 242//242 243//243
v -26.6667 1.4782 4
vn -0.0012 1 0.0013
v -25.3333 1.4781 5.3333
vn -0.0012 1 0.0013
v -25.3333 1.4799 4
vn -0.0012 1 0.0013
f 244//244 245//245 246//246
v -25.3333 1.4799 4
vn -0.0039 1 0.0013
v -25.3333 1.4781 5.3333
vn -0.0039 1 0.0013
v -24 1.4833 5.3333
vn -0.0039 1 0.0013
f 247//247 248//248 249//249
v -25.3333 1.4799 4
vn -0.0035 1 0.0009
v -24 1.4833 5.3333
vn -0.0035 1 0.0009
v -24 1.4845 4
vn -0.0035 1 0.0009
f 250//250 251//251 252//252
v -24 1.4845 4
vn -0.0151 0.9999 0.0009
v -24 1.4833 5.3333
vn -0.0151 0.9999 0.0009
v -22.6667 1.5035 5.3333
vn -0.0151 0.9999 0.0009
f 253//253 254//254 255//255
v -24 1.4845 4
vn -0.0153 0.9999 0.0011
v -22.6667 1.5035 5.3333
vn -0.0153 0.9999 0.0011
v -22.6667 1.5049 4
vn -0.0153 0.9999 0.0011
f 256//256 257//257 258//258
v -22.6667 1.5049 4
vn -0.0104 0.9999 0.0011
v -22.6667 1.5035 5.3333
vn -0.0104 0.9999 0.0011
v -21.3333 1.5174 5.3333
vn -0.0104 0.9999 0.0011
f 259//259 260//260 261//261
v -22.6667 1.5049 4
vn -0.0104 0.9999 0.0011
v -21.3333 1.5174 5.3333
vn -0.0104 0.9999 0.0011
v -21.3333 1.5188 4
vn -0.0104 0.9999 0.0011
f 262//262 263//263 264//264
v -21.3333 1.5188 4
vn -0.0032 1 0.0011
v -21.3333 1.5174 5.3333
vn -0.0032 1 0.0011
v -20 1.5216 5.3333
vn -0.0032 1 0.0011
f 265//265 266//266 267//267
v -21.3333 1.5188 4
vn -0.0027 1 0.0006
v -20 1.5216 5.3333
vn -0.0027 1 0.0006
v -20 1.5223 4
vn -0.0027 1 0.0006
f 268//268 269//269 270//270
v -20 1.5223 4
vn 0.0033 1 0.0006
v -20 1.5216 5.3333
vn 0.0033 1 0.0006
v -18.6667 1.5171 5.3333
vn 0.0033 1 0.0006
f 271//271 272//272 273//273
v -20 1.5223 4
vn 0.0026 1 0.0013
v -18.6667 1.5171 5.3333
vn 0.0026 1 0.0013
v -18.6667 1.5188 4
vn 0.0026 1 0.0013
f 274//274 275//275 276//276
v -18.6667 1.5188 4
vn 0.0074 1 0.0013
v -18.6667 1.5171 5.3333
vn 0.0074 1 0.0013
v -17.3333 1.5073 5.3333
vn 0.0074 1 0.0013
f 277//277 278//278 279//279
v -18.6667 1.5188 4
vn 0.0081 1 0.0006
v -17.3333 1.5073 5.3333
vn 0.0081 1 0.0006
v -17.3333 1.508 4
vn 0.0081 1 0.0006
f 280//280 281//281 282//282
v -17.3333 1.508 4
vn 0.0001 1 0.0006
v -17.3333 1.5073 5.3333
vn 0.0001 1 0.0006
v -16 1.5071 5.3333
vn 0.0001 1 0.0006
f 283//283 284//284 285//285
v -17.3333 1.508 4
vn -0.001 1 0.0016
v -16 1.5071 5.3333
vn -0.001 1 0.0016
v -16 1.5093 4
vn -0.001 1 0.0016
f 286//286 287//287 288//288
v -32 1.464 5.3333
vn -0.0016 1 -0.0006
v -32 1.4649 6.6667
vn -0.0016 1 -0.0006
v -30.6667 1.467 6.6667
vn -0.0016 1 -0.0006
f 289//289 290//290 291//291
v -32 1.464 5.3333
vn -0.0013 1 -0.0009
v -30.6667 1.467 6.6667
vn -0.0013 1 -0.0009
v -30.6667 1.4658 5.3333
vn -0.0013 1 -0.0009
f 292//292 293//293 294//294
v -30.6667 1.4658 5.3333
vn 0.0024 1 -0.0009
v -30.6667 1.467 6.6667
vn 0.0024 1 -0.0009
v -29.3333 1.4638 6.6667
vn 0.0024 1 -0.0009
f 295//295 296//296 297//297
v -30.6667 1.4658 5.3333
vn 0.0013 1 0.0003
v -29.3333 1.4638 6.6667
vn 0.0013 1 0.0003
v -29.3333 1.4641 5.3333
vn 0.0013 1 0.0003
f 298//298 299//299 300//300
v -29.3333 1.4641 5.3333
vn -0.0059 1 0.0003
v -29.3333 1.4638 6.6667
vn -0.0059 1 0.0003
v -28 1.4717 6.6667
vn -0.0059 1 0.0003
f 301//301 302//302 303//303
v -29.3333 1.4641 5.3333
vn -0.0076 1 0.0019
v -28 1.4717 6.6667
vn -0.0076 1 0.0019
v -28 1.4742 5.3333
vn -0.0076 1 0.0019
f 304//304 305//305 306//306
v -28 1.4742 5.3333
vn -0.0046 1 0.0019
v -28 1.4717 6.6667
vn -0.0046 1 0.0019
v -26.6667 1.4778 6.6667
vn -0.0046 1 0.0019
f 307//307 308//308 309//309
v -28 1.4742 5.3333
vn -0.0026 1 -0.0001
v -26.6667 1.4778 6.6667
vn -0.0026 1 -0.0001
v -26.6667 1.4777 5.3333
vn -0.0026 1 -0.0001
f 310//310 311//311 312//312
v -26.6667 1.4777 5.3333
vn 0.0013 1 -0.0001
v -26.6667 1.4778 6.6667
vn 0.0013 1 -0.0001
v -25.3333 1.4762 6.6667
vn 0.0013 1 -0.0001
f 313//313 314//314 315//315
v -26.6667 1.4777 5.3333
vn -0.0003 1 0.0015
v -25.3333 1.4762 6.6667
vn -0.0003 1 0.0015
v -25.3333 1.4781 5.3333
vn -0.0003 1 0.0015
f 316//316 317//317 318//318
v -25.3333 1.4781 5.3333
vn -0.0047 1 0.0015
v -25.3333 1.4762 6.6667
vn -0.0047 1 0.0015
v -24 1.4825 6.6667
vn -0.0047 1 0.0015
f 319//319 320//320 321//321
v -25.3333 1.4781 5.3333
vn -0.0039 1 0.0006
v -24 1.4825 6.6667
vn -0.0039 1 0.0006
v -24 1.4833 5.3333
vn -0.0039 1 0.0006
f 322//322 323//323 324//324
v -24 1.4833 5.3333
vn -0.0151 0.9999 0.0006
v -24 1.4825 6.6667
vn -0.0151 0.9999 0.0006
v -22.6667 1.5026 6.6667
vn -0.0151 0.9999 0.0006
f 325//325 326//326 327//327
v -24 1.4833 5.3333
vn -0.0151 0.9999 0.0007
v -22.6667 1.5026 6.6667
vn -0.0151 0.9999 0.0007
v -22.6667 1.5035 5.3333
vn -0.0151 0.9999 0.0007
f 328//328 329//329 330//330
v -22.6667 1.5035 5.3333
vn -0.0103 0.9999 0.0007
v -22.6667 1.5026 6.6667
vn -0.0103 0.9999 0.0007
v -21.3333 1.5164 6.6667
vn -0.0103 0.9999 0.0007
f 331//331 332//332 333//333
v -22.6667 1.5035 5.3333
vn -0.0104 0.9999 0.0008
v -21.3333 1.5164 6.6667
vn -0.0104 0.9999 0.0008
v -21.3333 1.5174 5.3333
vn -0.0104 0.9999 0.0008
f 334//334 335//335 336//336
v -21.3333 1.5174 5.3333
vn -0.0041 1 0.0008
v -21.3333 1.5164 6.6667
vn -0.0041 1 0.0008
v -20 1.5218 6.6667
vn -0.0041 1 0.0008
f 337//337 338//338 339//339
v -21.3333 1.5174 5.3333
vn -0.0032 1 -0.0001
v -20 1.5218 6.6667
vn -0.0032 1 -0.0001
v -20 1.5216 5.3333
vn -0.0032 1 -0.0001
f 340//340 341//341 342//342
v -20 1.5216 5.3333
vn 0.0042 1 -0.0001
v -20 1.5218 6.6667
vn 0.0042 1 -0.0001
v -18.6667 1.5162 6.6667
vn 0.0042 1 -0.0001
f 343//343 344//344 345//345
v -20 1.5216 5.3333
vn 0.0033 1 0.0007
v -18.6667 1.5162 6.6667
vn 0.0033 1 0.0007
v -18.6667 1.5171 5.3333
vn 0.0033 1 0.0007
f 346//346 347//347 348//348
v -18.6667 1.5171 5.3333
vn 0.0061 1 0.0007
v -18.6667 1.5162 6.6667
vn 0.0061 1 0.0007
v -17.3333 1.508 6.6667
vn 0.0061 1 0.0007
f 349//349 350//350 351//351
v -18.6667 1.5171 5.3333
vn 0.0074 1 -0.0006
v -17.3333 1.508 6.6667
vn 0.0074 1 -0.0006
v -17.3333 1.5073 5.3333
vn 0.0074 1 -0.0006
f 352//352 353//353 354//354
v -17.3333 1.5073 5.3333
vn 0.0015 1 -0.0006
v -17.3333 1.508 6.6667
vn 0.0015 1 -0.0006
v -16 1.506 6.6667
vn 0.0015 1 -0.0006
f 355//355 356//356 357//357
v -17.3333 1.5073 5.3333
vn 0.0001 1 0.0008
v -16 1.506 6.6667
vn 0.0001 1 0.0008
v -16 1.5071 5.3333
vn 0.0001 1 0.0008
f 358//358 359//359 360//360
v -32 1.4649 6.6667
vn -0.0016 1 0
v -32 1.4649 8
vn -0.0016 1 0
v -30.6667 1.467 8
vn -0.0016 1 0
f 361//361 362//362 363//363
v -32 1.4649 6.6667
vn -0.0016 1 -0
v -30.6667 1.467 8
vn -0.0016 1 -0
v -30.6667 1.467 6.6667
vn -0.0016 1 -0
f 364//364 365//365 366//366
v -30.6667 1.467 6.6667
vn 0.0025 1 -0
v -30.6667 1.467 8
vn 0.0025 1 -0
v -29.3333 1.4637 8
vn 0.0025 1 -0
f 367//367 368//368 369//369
v -30.6667 1.467 6.6667
vn 0.0024 1 0.0001
v -29.3333 1.4637 8
vn 0.0024 1 0.0001
v -29.3333 1.4638 6.6667
vn 0.0024 1 0.0001
f 370//370 371//371 372//372
v -29.3333 1.4638 6.6667
vn -0.0057 1 0.0001
v -29.3333 1.4637 8
vn -0.0057 1 0.0001
v -28 1.4713 8
vn -0.0057 1 0.0001
f 373//373 374//374 375//375
v -29.3333 1.4638 6.6667
vn -0.0059 1 0.0003
v -28 1.4713 8
vn -0.0059 1 0.0003
v -28 1.4717 6.6667
vn -0.0059 1 0.0003
f 376//376 377//377 378//378
v -28 1.4717 6.6667
vn -0.0041 1 0.0003
v -28 1.4713 8
vn -0.0041 1 0.0003
v -26.6667 1.4768 8
vn -0.0041 1 0.0003
f 379//379 380//380 381//381
v -28 1.4717 6.6667
vn -0.0046 1 0.0008
v -26.6667 1.4768 8
vn -0.0046 1 0.0008
v -26.6667 1.4778 6.6667
vn -0.0046 1 0.0008
f 382//382 383//383 384//384
v -26.6667 1.4778 6.6667
vn 0.0012 1 0.0008
v -26.6667 1.4768 8
vn 0.0012 1 0.0008
v -25.3333 1.4752 8
vn 0.0012 1 0.0008
f 385//385 386//386 387//387
v -26.6667 1.4778 6.6667
vn 0.0013 1 0.0007
v -25.3333 1.4752 8
vn 0.0013 1 0.0007
v -25.3333 1.4762 6.6667
vn 0.0013 1 0.0007
f 388//388 389//389 390//390
v -25.3333 1.4762 6.6667
vn -0.0049 1 0.0007
v -25.3333 1.4752 8
vn -0.0049 1 0.0007
v -24 1.4818 8
vn -0.0049 1 0.0007
f 391//391 392//392 393//393
v -25.3333 1.4762 6.6667
vn -0.0047 1 0.0005
v -24 1.4818 8
vn -0.0047 1 0.0005
v -24 1.4825 6.6667
vn -0.0047 1 0.0005
f 394//394 395//395 396//396
v -24 1.4825 6.6667
vn -0.0157 0.9999 0.0005
v -24 1.4818 8
vn -0.0157 0.9999 0.0005
v -22.6667 1.5027 8
vn -0.0157 0.9999 0.0005
f 397//397 398//398 399//399
v -24 1.4825 6.6667
vn -0.0151 0.9999 -0.0001
v -22.6667 1.5027 8
vn -0.0151 0.9999 -0.0001
v -22.6667 1.5026 6.6667
vn -0.0151 0.9999 -0.0001
f 400//400 401//401 402//402
v -22.6667 1.5026 6.6667
vn -0.0107 0.9999 -0.0001
v -22.6667 1.5027 8
vn -0.0107 0.9999 -0.0001
v -21.3333 1.5169 8
vn -0.0107 0.9999 -0.0001
f 403//403 404//404 405//405
v -22.6667 1.5026 6.6667
vn -0.0103 0.9999 -0.0004
v -21.3333 1.5169 8
vn -0.0103 0.9999 -0.0004
v -21.3333 1.5164 6.6667
vn -0.0103 0.9999 -0.0004
f 406//406 407//407 408//408
v -21.3333 1.5164 6.6667
vn -0.0041 1 -0.0004
v -21.3333 1.5169 8
vn -0.0041 1 -0.0004
v -20 1.5224 8
vn -0.0041 1 -0.0004
f 409//409 410//410 411//411
v -21.3333 1.5164 6.6667
vn -0.0041 1 -0.0004
v -20 1.5224 8
vn -0.0041 1 -0.0004
v -20 1.5218 6.6667
vn -0.0041 1 -0.0004
f 412//412 413//413 414//414
v -20 1.5218 6.6667
vn 0.0047 1 -0.0004
v -20 1.5224 8
vn 0.0047 1 -0.0004
v -18.6667 1.5161 8
vn 0.0047 1 -0.0004
f 415//415 416//416 417//417
v -20 1.5218 6.6667
vn 0.0042 1 0.0001
v -18.6667 1.5161 8
vn 0.0042 1 0.0001
v -18.6667 1.5162 6.6667
vn 0.0042 1 0.0001
f 418//418 419//419 420//420
v -18.6667 1.5162 6.6667
vn 0.0061 1 0.0001
v -18.6667 1.5161 8
vn 0.0061 1 0.0001
v -17.3333 1.5079 8
vn 0.0061 1 0.0001
f 421//421 422//422 423//423
v -18.6667 1.5162 6.6667
vn 0.0061 1 0.0001
v -17.3333 1.5079 8
vn 0.0061 1 0.0001
v -17.3333 1.508 6.6667
vn 0.0061 1 0.0001
f 424//424 425//425 426//426
v -17.3333 1.508 6.6667
vn 0.0013 1 0.0001
v -17.3333 1.5079 8
vn 0.0013 1 0.0001
v -16 1.5062 8
vn 0.0013 1 0.0001
f 427//427 428//428 429//429
v -17.3333 1.508 6.6667
vn 0.0015 1 -0.0002
v -16 1.5062 8
vn 0.0015 1 -0.0002
v -16 1.506 6.6667
vn 0.0015 1 -0.0002
f 430//430 431//431 432//432
v -32 1.4649 8
vn -0.0016 1 0.0002
v -32 1.4646 9.3333
vn -0.0016 1 0.0002
v -30.6667 1.4668 9.3333
vn -0.0016 1 0.0002
f 433//433 434//434 435//435
v -32 1.4649 8
vn -0.0016 1 0.0002
v -30.6667 1.4668 9.3333
vn -0.0016 1 0.0002
v -30.6667 1.467 8
vn -0.0016 1 0.0002
f 436//436 437//437 438//438
v -30.6667 1.467 8
vn 0.0023 1 0.0002
v -30.6667 1.4668 9.3333
vn 0.0023 1 0.0002
v -29.3333 1.4636 9.3333
vn 0.0023 1 0.0002
f 439//439 440//440 441//441
v -30.6667 1.467 8
vn 0.0025 1 0
v -29.3333 1.4636 9.3333
vn 0.0025 1 0
v -29.3333 1.4637 8
vn 0.0025 1 0
f 442//442 443//443 444//444
v -29.3333 1.4637 8
vn -0.0057 1 0
v -29.3333 1.4636 9.3333
vn -0.0057 1 0
v -28 1.4712 9.3333
vn -0.0057 1 0
f 445//445 446//446 447//447
v -29.3333 1.4637 8
vn -0.0057 1 0.0001
v -28 1.4712 9.3333
vn -0.0057 1 0.0001
v -28 1.4713 8
vn -0.0057 1 0.0001
f 448//448 449//449 450//450
v -28 1.4713 8
vn -0.0048 1 0.0001
v -28 1.4712 9.3333
vn -0.0048 1 0.0001
v -26.6667 1.4776 9.3333
vn -0.0048 1 0.0001
f 451//451 452//452 453//453
v -28 1.4713 8
vn -0.0041 1 -0.0006
v -26.6667 1.4776 9.3333
vn -0.0041 1 -0.0006
v -26.6667 1.4768 8
vn -0.0041 1 -0.0006
f 454//454 455//455 456//456
v -26.6667 1.4768 8
vn 0.001 1 -0.0006
v -26.6667 1.4776 9.3333
vn 0.001 1 -0.0006
v -25.3333 1.4763 9.3333
vn 0.001 1 -0.0006
f 457//457 458//458 459//459
v -26.6667 1.4768 8
vn 0.0012 1 -0.0008
v -25.3333 1.4763 9.3333
vn 0.0012 1 -0.0008
v -25.3333 1.4752 8
vn 0.0012 1 -0.0008
f 460//460 461//461 462//462
v -25.3333 1.4752 8
vn -0.005 1 -0.0008
v -25.3333 1.4763 9.3333
vn -0.005 1 -0.0008
v -24 1.483 9.3333
vn -0.005 1 -0.0008
f 463//463 464//464 465//465
v -25.3333 1.4752 8
vn -0.0049 1 -0.0009
v -24 1.483 9.3333
vn -0.0049 1 -0.0009
v -24 1.4818 8
vn -0.0049 1 -0.0009
f 466//466 467//467 468//468
v -24 1.4818 8
vn -0.0151 0.9999 -0.0009
v -24 1.483 9.3333
vn -0.0151 0.9999 -0.0009
v -22.6667 1.5031 9.3333
vn -0.0151 0.9999 -0.0009
f 469//469 470//470 471//471
v -24 1.4818 8
vn -0.0157 0.9999 -0.0003
v -22.6667 1.5031 9.3333
vn -0.0157 0.9999 -0.0003
v -22.6667 1.5027 8
vn -0.0157 0.9999 -0.0003
f 472//472 473//473 474//474
v -22.6667 1.5027 8
vn -0.0098 1 -0.0003
v -22.6667 1.5031 9.3333
vn -0.0098 1 -0.0003
v -21.3333 1.5162 9.3333
vn -0.0098 1 -0.0003
f 475//475 476//476 477//477
v -22.6667 1.5027 8
vn -0.0107 0.9999 0.0006
v -21.3333 1.5162 9.3333
vn -0.0107 0.9999 0.0006
v -21.3333 1.5169 8
vn -0.0107 0.9999 0.0006
f 478//478 479//479 480//480
v -21.3333 1.5169 8
vn -0.0042 1 0.0006
v -21.3333 1.5162 9.3333
vn -0.0042 1 0.0006
v -20 1.5218 9.3333
vn -0.0042 1 0.0006
f 481//481 482//482 483//483
v -21.3333 1.5169 8
vn -0.0041 1 0.0005
v -20 1.5218 9.3333
vn -0.0041 1 0.0005
v -20 1.5224 8
vn -0.0041 1 0.0005
f 484//484 485//485 486//486
v -20 1.5224 8
vn 0.0042 1 0.0005
v -20 1.5218 9.3333
vn 0.0042 1 0.0005
v -18.6667 1.5162 9.3333
vn 0.0042 1 0.0005
f 487//487 488//488 489//489
v -20 1.5224 8
vn 0.0047 1 -0
v -18.6667 1.5162 9.3333
vn 0.0047 1 -0
v -18.6667 1.5161 8
vn 0.0047 1 -0
f 490//490 491//491 492//492
v -18.6667 1.5161 8
vn 0.006 1 -0
v -18.6667 1.5162 9.3333
vn 0.006 1 -0
v -17.3333 1.5082 9.3333
vn 0.006 1 -0
f 493//493 494//494 495//495
v -18.6667 1.5161 8
vn 0.0061 1 -0.0002
v -17.3333 1.5082 9.3333
vn 0.0061 1 -0.0002
v -17.3333 1.5079 8
vn 0.0061 1 -0.0002
f 496//496 497//497 498//498
v -17.3333 1.5079 8
vn 0.0012 1 -0.0002
v -17.3333 1.5082 9.3333
vn 0.0012 1 -0.0002
v -16 1.5066 9.3333
vn 0.0012 1 -0.0002
f 499//499 500//500 501//501
v -17.3333 1.5079 8
vn 0.0013 1 -0.0003
v -16 1.5066 9.3333
vn 0.0013 1 -0.0003
v -16 1.5062 8
vn 0.0013 1 -0.0003
f 502//502 503//503 504//504
v -32 1.4646 9.3333
vn -0.0019 1 0.0017
v -32 1.4623 10.6667
vn -0.0019 1 0.0017
v -30.6667 1.4647 10.6667
vn -0.0019 1 0.0017
f 505//505 506//506 507//507
v -32 1.4646 9.3333
vn -0.0016 1 0.0015
v -30.6667 1.4647 10.6667
vn -0.0016 1 0.0015
v -30.6667 1.4668 9.3333
vn -0.0016 1 0.0015
f 508//508 509//509 510//510
v -30.6667 1.4668 9.3333
vn -0.0003 1 0.0015
v -30.6667 1.4647 10.6667
vn -0.0003 1 0.0015
v -29.3333 1.4651 10.6667
vn -0.0003 1 0.0015
f 511//511 512//512 513//513
v -30.6667 1.4668 9.3333
vn 0.0023 1 -0.0011
v -29.3333 1.4651 10.6667
vn 0.0023 1 -0.0011
v -29.3333 1.4636 9.3333
vn 0.0023 1 -0.0011
f 514//514 515//515 516//516
v -29.3333 1.4636 9.3333
vn -0.0044 1 -0.0011
v -29.3333 1.4651 10.6667
vn -0.0044 1 -0.0011
v -28 1.471 10.6667
vn -0.0044 1 -0.0011
f 517//517 518//518 519//519
v -29.3333 1.4636 9.3333
vn -0.0057 1 0.0002
v -28 1.471 10.6667
vn -0.0057 1 0.0002
v -28 1.4712 9.3333
vn -0.0057 1 0.0002
f 520//520 521//521 522//522
v -28 1.4712 9.3333
vn -0.0019 1 0.0002
v -28 1.471 10.6667
vn -0.0019 1 0.0002
v -26.6667 1.4735 10.6667
vn -0.0019 1 0.0002
f 523//523 524//524 525//525
v -28 1.4712 9.3333
vn -0.0048 1 0.0031
v -26.6667 1.4735 10.6667
vn -0.0048 1 0.0031
v -26.6667 1.4776 9.3333
vn -0.0048 1 0.0031
f 526//526 527//527 528//528
v -26.6667 1.4776 9.3333
vn -0.0045 1 0.0031
v -26.6667 1.4735 10.6667
vn -0.0045 1 0.0031
v -25.3333 1.4795 10.6667
vn -0.0045 1 0.0031
f 529//529 530//530 531//531
v -26.6667 1.4776 9.3333
vn 0.001 1 -0.0024
v -25.3333 1.4795 10.6667
vn 0.001 1 -0.0024
v -25.3333 1.4763 9.3333
vn 0.001 1 -0.0024
f 532//532 533//533 534//534
v -25.3333 1.4763 9.3333
vn -0.0044 1 -0.0024
v -25.3333 1.4795 10.6667
vn -0.0044 1 -0.0024
v -24 1.4854 10.6667
vn -0.0044 1 -0.0024
f 535//535 536//536 537//537
v -25.3333 1.4763 9.3333
vn -0.005 1 -0.0018
v -24 1.4854 10.6667
vn -0.005 1 -0.0018
v -24 1.483 9.3333
vn -0.005 1 -0.0018
f 538//538 539//539 540//540
v -24 1.483 9.3333
vn -0.0143 0.9999 -0.0018
v -24 1.4854 10.6667
vn -0.0143 0.9999 -0.0018
v -22.6667 1.5044 10.6667
vn -0.0143 0.9999 -0.0018
f 541//541 542//542 543//543
v -24 1.483 9.3333
vn -0.0151 0.9999 -0.001
v -22.6667 1.5044 10.6667
vn -0.0151 0.9999 -0.001
v -22.6667 1.5031 9.3333
vn -0.0151 0.9999 -0.001
f 544//544 545//545 546//546
v -22.6667 1.5031 9.3333
vn -0.0085 1 -0.001
v -22.6667 1.5044 10.6667
vn -0.0085 1 -0.001
v -21.3333 1.5158 10.6667
vn -0.0085 1 -0.001
f 547//547 548//548 549//549
v -22.6667 1.5031 9.3333
vn -0.0098 1 0.0003
v -21.3333 1.5158 10.6667
vn -0.0098 1 0.0003
v -21.3333 1.5162 9.3333
vn -0.0098 1 0.0003
f 550//550 551//551 552//552
v -21.3333 1.5162 9.3333
vn -0.0024 1 0.0003
v -21.3333 1.5158 10.6667
vn -0.0024 1 0.0003
v -20 1.519 10.6667
vn -0.0024 1 0.0003
f 553//553 554//554 555//555
v -21.3333 1.5162 9.3333
vn -0.0042 1 0.0021
v -20 1.519 10.6667
vn -0.0042 1 0.0021
v -20 1.5218 9.3333
vn -0.0042 1 0.0021
f 556//556 557//557 558//558
v -20 1.5218 9.3333
vn -0.0013 1 0.0021
v -20 1.519 10.6667
vn -0.0013 1 0.0021
v -18.6667 1.5208 10.6667
vn -0.0013 1 0.0021
f 559//559 560//560 561//561
v -20 1.5218 9.3333
vn 0.0042 1 -0.0035
v -18.6667 1.5208 10.6667
vn 0.0042 1 -0.0035
v -18.6667 1.5162 9.3333
vn 0.0042 1 -0.0035
f 562//562 563//563 564//564
v -18.6667 1.5162 9.3333
vn 0.007 1 -0.0035
v -18.6667 1.5208 10.6667
vn 0.007 1 -0.0035
v -17.3333 1.5115 10.6667
vn 0.007 1 -0.0035
f 565//565 566//566 567//567
v -18.6667 1.5162 9.3333
vn 0.006 1 -0.0024
v -17.3333 1.5115 10.6667
vn 0.006 1 -0.0024
v -17.3333 1.5082 9.3333
vn 0.006 1 -0.0024
f 568//568 569//569 570//570
v -17.3333 1.5082 9.3333
vn 0.002 1 -0.0024
v -17.3333 1.5115 10.6667
vn 0.002 1 -0.0024
v -16 1.5088 10.6667
vn 0.002 1 -0.0024
f 571//571 572//572 573//573
v -17.3333 1.5082 9.3333
vn 0.0012 1 -0.0016
v -16 1.5088 10.6667
vn 0.0012 1 -0.0016
v -16 1.5066 9.3333
vn 0.0012 1 -0.0016
f 574//574 575//575 576//576
v -32 1.4623 10.6667
vn -0.0026 1 0.0003
v -32 1.4618 12
vn -0.0026 1 0.0003
v -30.6667 1.4653 12
vn -0.0026 1 0.0003
f 577//577 578//578 579//579
v -32 1.4623 10.6667
vn -0.0019 1 -0.0004
v -30.6667 1.4653 12
vn -0.0019 1 -0.0004
v -30.6667 1.4647 10.6667
vn -0.0019 1 -0.0004
f 580//580 581//581 582//582
v -30.6667 1.4647 10.6667
vn -0.0019 1 -0.0004
v -30.6667 1.4653 12
vn -0.0019 1 -0.0004
v -29.3333 1.4677 12
vn -0.0019 1 -0.0004
f 583//583 584//584 585//585
v -30.6667 1.4647 10.6667
vn -0.0003 1 -0.002
v -29.3333 1.4677 12
vn -0.0003 1 -0.002
v -29.3333 1.4651 10.6667
vn -0.0003 1 -0.002
f 586//586 587//587 588//588
v -29.3333 1.4651 10.6667
vn -0.0049 1 -0.002
v -29.3333 1.4677 12
vn -0.0049 1 -0.002
v -28 1.4743 12
vn -0.0049 1 -0.002
f 589//589 590//590 591//591
v -29.3333 1.4651 10.6667
vn -0.0044 1 -0.0025
v -28 1.4743 12
vn -0.0044 1 -0.0025
v -28 1.471 10.6667
vn -0.0044 1 -0.0025
f 592//592 593//593 594//594
v -28 1.471 10.6667
vn -0.0002 1 -0.0025
v -28 1.4743 12
vn -0.0002 1 -0.0025
v -26.6667 1.4746 12
vn -0.0002 1 -0.0025
f 595//595 596//596 597//597
v -28 1.471 10.6667
vn -0.0019 1 -0.0008
v -26.6667 1.4746 12
vn -0.0019 1 -0.0008
v -26.6667 1.4735 10.6667
vn -0.0019 1 -0.0008
f 598//598 599//599 600//600
v -26.6667 1.4735 10.6667
vn -0.0038 1 -0.0008
v -26.6667 1.4746 12
vn -0.0038 1 -0.0008
v -25.3333 1.4797 12
vn -0.0038 1 -0.0008
f 601//601 602//602 603//603
v -26.6667 1.4735 10.6667
vn -0.0045 1 -0.0001
v -25.3333 1.4797 12
vn -0.0045 1 -0.0001
v -25.3333 1.4795 10.6667
vn -0.0045 1 -0.0001
f 604//604 605//605 606//606
v -25.3333 1.4795 10.6667
vn -0.0046 1 -0.0001
v -25.3333 1.4797 12
vn -0.0046 1 -0.0001
v -24 1.4858 12
vn -0.0046 1 -0.0001
f 607//607 608//608 609//609
v -25.3333 1.4795 10.6667
vn -0.0044 1 -0.0003
v -24 1.4858 12
vn -0.0044 1 -0.0003
v -24 1.4854 10.6667
vn -0.0044 1 -0.0003
f 610//610 611//611 612//612
v -24 1.4854 10.6667
vn -0.0154 0.9999 -0.0003
v -24 1.4858 12
vn -0.0154 0.9999 -0.0003
v -22.6667 1.5063 12
vn -0.0154 0.9999 -0.0003
f 613//613 614//614 615//615
v -24 1.4854 10.6667
vn -0.0143 0.9999 -0.0014
v -22.6667 1.5063 12
vn -0.0143 0.9999 -0.0014
v -22.6667 1.5044 10.6667
vn -0.0143 0.9999 -0.0014
f 616//616 617//617 618//618
v -22.6667 1.5044 10.6667
vn -0.0087 1 -0.0014
v -22.6667 1.5063 12
vn -0.0087 1 -0.0014
v -21.3333 1.5179 12
vn -0.0087 1 -0.0014
f 619//619 620//620 621//621
v -22.6667 1.5044 10.6667
vn -0.0085 1 -0.0016
v -21.3333 1.5179 12
vn -0.0085 1 -0.0016
v -21.3333 1.5158 10.6667
vn -0.0085 1 -0.0016
f 622//622 623//623 624//624
v -21.3333 1.5158 10.6667
vn -0.0009 1 -0.0016
v -21.3333 1.5179 12
vn -0.0009 1 -0.0016
v -20 1.5191 12
vn -0.0009 1 -0.0016
f 625//625 626//626 627//627
v -21.3333 1.5158 10.6667
vn -0.0024 1 -0
v -20 1.5191 12
vn -0.0024 1 -0
v -20 1.519 10.6667
vn -0.0024 1 -0
f 628//628 629//629 630//630
v -20 1.519 10.6667
vn -0.0005 1 -0
v -20 1.5191 12
vn -0.0005 1 -0
v -18.6667 1.5197 12
vn -0.0005 1 -0
f 631//631 632//632 633//633
v -20 1.519 10.6667
vn -0.0013 1 0.0008
v -18.6667 1.5197 12
vn -0.0013 1 0.0008
v -18.6667 1.5208 10.6667
vn -0.0013 1 0.0008
f 634//634 635//635 636//636
v -18.6667 1.5208 10.6667
vn 0.0057 1 0.0008
v -18.6667 1.5197 12
vn 0.0057 1 0.0008
v -17.3333 1.5121 12
vn 0.0057 1 0.0008
f 637//637 638//638 639//639
v -18.6667 1.5208 10.6667
vn 0.007 1 -0.0005
v -17.3333 1.5121 12
vn 0.007 1 -0.0005
v -17.3333 1.5115 10.6667
vn 0.007 1 -0.0005
f 640//640 641//641 642//642
v -17.3333 1.5115 10.6667
vn 0.0005 1 -0.0005
v -17.3333 1.5121 12
vn 0.0005 1 -0.0005
v -16 1.5114 12
vn 0.0005 1 -0.0005
f 643//643 644//644 645//645
v -17.3333 1.5115 10.6667
vn 0.002 1 -0.002
v -16 1.5114 12
vn 0.002 1 -0.002
v -16 1.5088 10.6667
vn 0.002 1 -0.002
f 646//646 647//647 648//648
v -32 1.4618 12
vn -0.0028 1 0.0002
v -32 1.4616 13.3333
vn -0.0028 1 0.0002
v -30.6667 1.4654 13.3333
vn -0.0028 1 0.0002
f 649//649 650//650 651//651
v -32 1.4618 12
vn -0.0026 1 -0.0001
v -30.6667 1.4654 13.3333
vn -0.0026 1 -0.0001
v -30.6667 1.4653 12
vn -0.0026 1 -0.0001
f 652//652 653//653 654//654
v -30.6667 1.4653 12
vn -0.0023 1 -0.0001
v -30.6667 1.4654 13.3333
vn -0.0023 1 -0.0001
v -29.3333 1.4684 13.3333
vn -0.0023 1 -0.0001
f 655//655 656//656 657//657
v -30.6667 1.4653 12
vn -0.0019 1 -0.0005
v -29.3333 1.4684 13.3333
vn -0.0019 1 -0.0005
v -29.3333 1.4677 12
vn -0.0019 1 -0.0005
f 658//658 659//659 660//660
v -29.3333 1.4677 12
vn -0.005 1 -0.0005
v -29.3333 1.4684 13.3333
vn -0.005 1 -0.0005
v -28 1.4751 13.3333
vn -0.005 1 -0.0005
f 661//661 662//662 663//663
v -29.3333 1.4677 12
vn -0.0049 1 -0.0006
v -28 1.4751 13.3333
vn -0.0049 1 -0.0006
v -28 1.4743 12
vn -0.0049 1 -0.0006
f 664//664 665//665 666//666
v -28 1.4743 12
vn -0.0002 1 -0.0006
v -28 1.4751 13.3333
vn -0.0002 1 -0.0006
v -26.6667 1.4753 13.3333
vn -0.0002 1 -0.0006
f 667//667 668//668 669//669
v -28 1.4743 12
vn -0.0002 1 -0.0006
v -26.6667 1.4753 13.3333
vn -0.0002 1 -0.0006
v -26.6667 1.4746 12
vn -0.0002 1 -0.0006
f 670//670 671//671 672//672
v -26.6667 1.4746 12
vn -0.0037 1 -0.0006
v -26.6667 1.4753 13.3333
vn -0.0037 1 -0.0006
v -25.3333 1.4803 13.3333
vn -0.0037 1 -0.0006
f 673//673 674//674 675//675
v -26.6667 1.4746 12
vn -0.0038 1 -0.0004
v -25.3333 1.4803 13.3333
vn -0.0038 1 -0.0004
v -25.3333 1.4797 12
vn -0.0038 1 -0.0004
f 676//676 677//677 678//678
v -25.3333 1.4797 12
vn -0.0048 1 -0.0004
v -25.3333 1.4803 13.3333
vn -0.0048 1 -0.0004
v -24 1.4866 13.3333
vn -0.0048 1 -0.0004
f 679//679 680//680 681//681
v -25.3333 1.4797 12
vn -0.0046 1 -0.0006
v -24 1.4866 13.3333
vn -0.0046 1 -0.0006
v -24 1.4858 12
vn -0.0046 1 -0.0006
f 682//682 683//683 684//684
v -24 1.4858 12
vn -0.0153 0.9999 -0.0006
v -24 1.4866 13.3333
vn -0.0153 0.9999 -0.0006
v -22.6667 1.5069 13.3333
vn -0.0153 0.9999 -0.0006
f 685//685 686//686 687//687
v -24 1.4858 12
vn -0.0154 0.9999 -0.0005
v -22.6667 1.5069 13.3333
vn -0.0154 0.9999 -0.0005
v -22.6667 1.5063 12
vn -0.0154 0.9999 -0.0005
f 688//688 689//689 690//690
v -22.6667 1.5063 12
vn -0.0083 1 -0.0005
v -22.6667 1.5069 13.3333
vn -0.0083 1 -0.0005
v -21.3333 1.5181 13.3333
vn -0.0083 1 -0.0005
f 691//691 692//692 693//693
v -22.6667 1.5063 12
vn -0.0087 1 -0.0001
v -21.3333 1.5181 13.3333
vn -0.0087 1 -0.0001
v -21.3333 1.5179 12
vn -0.0087 1 -0.0001
f 694//694 695//695 696//696
v -21.3333 1.5179 12
vn -0.0007 1 -0.0001
v -21.3333 1.5181 13.3333
vn -0.0007 1 -0.0001
v -20 1.519 13.3333
vn -0.0007 1 -0.0001
f 697//697 698//698 699//699
v -21.3333 1.5179 12
vn -0.0009 1 0.0001
v -20 1.519 13.3333
vn -0.0009 1 0.0001
v -20 1.5191 12
vn -0.0009 1 0.0001
f 700//700 701//701 702//702
v -20 1.5191 12
vn -0.0005 1 0.0001
v -20 1.519 13.3333
vn -0.0005 1 0.0001
v -18.6667 1.5196 13.3333
vn -0.0005 1 0.0001
f 703//703 704//704 705//705
v -20 1.5191 12
vn -0.0005 1 0.0001
v -18.6667 1.5196 13.3333
vn -0.0005 1 0.0001
v -18.6667 1.5197 12
vn -0.0005 1 0.0001
f 706//706 707//707 708//708
v -18.6667 1.5197 12
vn 0.0056 1 0.0001
v -18.6667 1.5196 13.3333
vn 0.0056 1 0.0001
v -17.3333 1.5121 13.3333
vn 0.0056 1 0.0001
f 709//709 710//710 711//711
v -18.6667 1.5197 12
vn 0.0057 1 -0
v -17.3333 1.5121 13.3333
vn 0.0057 1 -0
v -17.3333 1.5121 12
vn 0.0057 1 -0
f 712//712 713//713 714//714
v -17.3333 1.5121 12
vn 0.0003 1 -0
v -17.3333 1.5121 13.3333
vn 0.0003 1 -0
v -16 1.5117 13.3333
vn 0.0003 1 -0
f 715//715 716//716 717//717
v -17.3333 1.5121 12
vn 0.0005 1 -0.0002
v -16 1.5117 13.3333
vn 0.0005 1 -0.0002
v -16 1.5114 12
vn 0.0005 1 -0.0002
f 718//718 719//719 720//720
v -32 1.4616 13.3333
vn -0.003 1 -0
v -32 1.4616 14.6667
vn -0.003 1 -0
v -30.6667 1.4656 14.6667
vn -0.003 1 -0
f 721//721 722//722 723//723
v -32 1.4616 13.3333
vn -0.0028 1 -0.0002
v -30.6667 1.4656 14.6667
vn -0.0028 1 -0.0002
v -30.6667 1.4654 13.3333
vn -0.0028 1 -0.0002
f 724//724 725//725 726//726
v -30.6667 1.4654 13.3333
vn -0.0024 1 -0.0002
v -30.6667 1.4656 14.6667
vn -0.0024 1 -0.0002
v -29.3333 1.4688 14.6667
vn -0.0024 1 -0.0002
f 727//727 728//728 729//729
v -30.6667 1.4654 13.3333
vn -0.0023 1 -0.0003
v -29.3333 1.4688 14.6667
vn -0.0023 1 -0.0003
v -29.3333 1.4684 13.3333
vn -0.0023 1 -0.0003
f 730//730 731//731 732//732
v -29.3333 1.4684 13.3333
vn -0.0049 1 -0.0003
v -29.3333 1.4688 14.6667
vn -0.0049 1 -0.0003
v -28 1.4754 14.6667
vn -0.0049 1 -0.0003
f 733//733 734//734 735//735
v -29.3333 1.4684 13.3333
vn -0.005 1 -0.0002
v -28 1.4754 14.6667
vn -0.005 1 -0.0002
v -28 1.4751 13.3333
vn -0.005 1 -0.0002
f 736//736 737//737 738//738
v -28 1.4751 13.3333
vn -0.0006 1 -0.0002
v -28 1.4754 14.6667
vn -0.0006 1 -0.0002
v -26.6667 1.4761 14.6667
vn -0.0006 1 -0.0002
f 739//739 740//740 741//741
v -28 1.4751 13.3333
vn -0.0002 1 -0.0006
v -26.6667 1.4761 14.6667
vn -0.0002 1 -0.0006
v -26.6667 1.4753 13.3333
vn -0.0002 1 -0.0006
f 742//742 743//743 744//744
v -26.6667 1.4753 13.3333
vn -0.0037 1 -0.0006
v -26.6667 1.4761 14.6667
vn -0.0037 1 -0.0006
v -25.3333 1.4811 14.6667
vn -0.0037 1 -0.0006
f 745//745 746//746 747//747
v -26.6667 1.4753 13.3333
vn -0.0037 1 -0.0006
v -25.3333 1.4811 14.6667
vn -0.0037 1 -0.0006
v -25.3333 1.4803 13.3333
vn -0.0037 1 -0.0006
f 748//748 749//749 750//750
v -25.3333 1.4803 13.3333
vn -0.005 1 -0.0006
v -25.3333 1.4811 14.6667
vn -0.005 1 -0.0006
v -24 1.4877 14.6667
vn -0.005 1 -0.0006
f 751//751 752//752 753//753
v -25.3333 1.4803 13.3333
vn -0.0048 1 -0.0009
v -24 1.4877 14.6667
vn -0.0048 1 -0.0009
v -24 1.4866 13.3333
vn -0.0048 1 -0.0009
f 754//754 755//755 756//756
v -24 1.4866 13.3333
vn -0.0156 0.9999 -0.0009
v -24 1.4877 14.6667
vn -0.0156 0.9999 -0.0009
v -22.6667 1.5085 14.6667
vn -0.0156 0.9999 -0.0009
f 757//757 758//758 759//759
v -24 1.4866 13.3333
vn -0.0153 0.9999 -0.0012
v -22.6667 1.5085 14.6667
vn -0.0153 0.9999 -0.0012
v -22.6667 1.5069 13.3333
vn -0.0153 0.9999 -0.0012
f 760//760 761//761 762//762
v -22.6667 1.5069 13.3333
vn -0.0082 1 -0.0012
v -22.6667 1.5085 14.6667
vn -0.0082 1 -0.0012
v -21.3333 1.5194 14.6667
vn -0.0082 1 -0.0012
f 763//763 764//764 765//765
v -22.6667 1.5069 13.3333
vn -0.0083 1 -0.001
v -21.3333 1.5194 14.6667
vn -0.0083 1 -0.001
v -21.3333 1.5181 13.3333
vn -0.0083 1 -0.001
f 766//766 767//767 768//768
v -21.3333 1.5181 13.3333
vn -0.0006 1 -0.001
v -21.3333 1.5194 14.6667
vn -0.0006 1 -0.001
v -20 1.5203 14.6667
vn -0.0006 1 -0.001
f 769//769 770//770 771//771
v -21.3333 1.5181 13.3333
vn -0.0007 1 -0.001
v -20 1.5203 14.6667
vn -0.0007 1 -0.001
v -20 1.519 13.3333
vn -0.0007 1 -0.001
f 772//772 773//773 774//774
v -20 1.519 13.3333
vn -0.0006 1 -0.001
v -20 1.5203 14.6667
vn -0.0006 1 -0.001
v -18.6667 1.5211 14.6667
vn -0.0006 1 -0.001
f 775//775 776//776 777//777
v -20 1.519 13.3333
vn -0.0005 1 -0.0011
v -18.6667 1.5211 14.6667
vn -0.0005 1 -0.0011
v -18.6667 1.5196 13.3333
vn -0.0005 1 -0.0011
f 778//778 779//779 780//780
v -18.6667 1.5196 13.3333
vn 0.0059 1 -0.0011
v -18.6667 1.5211 14.6667
vn 0.0059 1 -0.0011
v -17.3333 1.5132 14.6667
vn 0.0059 1 -0.0011
f 781//781 782//782 783//783
v -18.6667 1.5196 13.3333
vn 0.0056 1 -0.0008
v -17.3333 1.5132 14.6667
vn 0.0056 1 -0.0008
v -17.3333 1.5121 13.3333
vn 0.0056 1 -0.0008
f 784//784 785//785 786//786
v -17.3333 1.5121 13.3333
vn 0.0005 1 -0.0008
v -17.3333 1.5132 14.6667
vn 0.0005 1 -0.0008
v -16 1.5125 14.6667
vn 0.0005 1 -0.0008
f 787//787 788//788 789//789
v -17.3333 1.5121 13.3333
vn 0.0003 1 -0.0006
v -16 1.5125 14.6667
vn 0.0003 1 -0.0006
v -16 1.5117 13.3333
vn 0.0003 1 -0.0006
f 790//790 791//791 792//792
v -32 1.4616 14.6667
vn -0.0033 1 -0.0001
v -32 1.4617 16
vn -0.0033 1 -0.0001
v -30.6667 1.4662 16
vn -0.0033 1 -0.0001
f 793//793 794//794 795//795
v -32 1.4616 14.6667
vn -0.003 1 -0.0004
v -30.6667 1.4662 16
vn -0.003 1 -0.0004
v -30.6667 1.4656 14.6667
vn -0.003 1 -0.0004
f 796//796 797//797 798//798
v -30.6667 1.4656 14.6667
vn -0.0026 1 -0.0004
v -30.6667 1.4662 16
vn -0.0026 1 -0.0004
v -29.3333 1.4696 16
vn -0.0026 1 -0.0004
f 799//799 800//800 801//801
v -30.6667 1.4656 14.6667
vn -0.0024 1 -0.0006
v -29.3333 1.4696 16
vn -0.0024 1 -0.0006
v -29.3333 1.4688 14.6667
vn -0.0024 1 -0.0006
f 802//802 803//803 804//804
v -29.3333 1.4688 14.6667
vn -0.0046 1 -0.0006
v -29.3333 1.4696 16
vn -0.0046 1 -0.0006
v -28 1.4758 16
vn -0.0046 1 -0.0006
f 805//805 806//806 807//807
v -29.3333 1.4688 14.6667
vn -0.0049 1 -0.0003
v -28 1.4758 16
vn -0.0049 1 -0.0003
v -28 1.4754 14.6667
vn -0.0049 1 -0.0003
f 808//808 809//809 810//810
v -28 1.4754 14.6667
vn -0.0012 1 -0.0003
v -28 1.4758 16
vn -0.0012 1 -0.0003
v -26.6667 1.4775 16
vn -0.0012 1 -0.0003
f 811//811 812//812 813//813
v -28 1.4754 14.6667
vn -0.0006 1 -0.001
v -26.6667 1.4775 16
vn -0.0006 1 -0.001
v -26.6667 1.4761 14.6667
vn -0.0006 1 -0.001
f 814//814 815//815 816//816
v -26.6667 1.4761 14.6667
vn -0.0033 1 -0.001
v -26.6667 1.4775 16
vn -0.0033 1 -0.001
v -25.3333 1.4819 16
vn -0.0033 1 -0.001
f 817//817 818//818 819//819
v -26.6667 1.4761 14.6667
vn -0.0037 1 -0.0006
v -25.3333 1.4819 16
vn -0.0037 1 -0.0006
v -25.3333 1.4811 14.6667
vn -0.0037 1 -0.0006
f 820//820 821//821 822//822
v -25.3333 1.4811 14.6667
vn -0.0052 1 -0.0006
v -25.3333 1.4819 16
vn -0.0052 1 -0.0006
v -24 1.4889 16
vn -0.0052 1 -0.0006
f 823//823 824//824 825//825
v -25.3333 1.4811 14.6667
vn -0.005 1 -0.0009
v -24 1.4889 16
vn -0.005 1 -0.0009
v -24 1.4877 14.6667
vn -0.005 1 -0.0009
f 826//826 827//827 828//828
v -24 1.4877 14.6667
vn -0.016 0.9999 -0.0009
v -24 1.4889 16
vn -0.016 0.9999 -0.0009
v -22.6667 1.5102 16
vn -0.016 0.9999 -0.0009
f 829//829 830//830 831//831
v -24 1.4877 14.6667
vn -0.0156 0.9999 -0.0013
v -22.6667 1.5102 16
vn -0.0156 0.9999 -0.0013
v -22.6667 1.5085 14.6667
vn -0.0156 0.9999 -0.0013
f 832//832 833//833 834//834
v -22.6667 1.5085 14.6667
vn -0.0085 1 -0.0013
v -22.6667 1.5102 16
vn -0.0085 1 -0.0013
v -21.3333 1.5215 16
vn -0.0085 1 -0.0013
f 835//835 836//836 837//837
v -22.6667 1.5085 14.6667
vn -0.0082 1 -0.0016
v -21.3333 1.5215 16
vn -0.0082 1 -0.0016
v -21.3333 1.5194 14.6667
vn -0.0082 1 -0.0016
f 838//838 839//839 840//840
v -21.3333 1.5194 14.6667
vn -0.0007 1 -0.0016
v -21.3333 1.5215 16
vn -0.0007 1 -0.0016
v -20 1.5225 16
vn -0.0007 1 -0.0016
f 841//841 842//842 843//843
v -21.3333 1.5194 14.6667
vn -0.0006 1 -0.0017
v -20 1.5225 16
vn -0.0006 1 -0.0017
v -20 1.5203 14.6667
vn -0.0006 1 -0.0017
f 844//844 845//845 846//846
v -20 1.5203 14.6667
vn -0.0003 1 -0.0017
v -20 1.5225 16
vn -0.0003 1 -0.0017
v -18.6667 1.5229 16
vn -0.0003 1 -0.0017
f 847//847 848//848 849//849
v -20 1.5203 14.6667
vn -0.0006 1 -0.0013
v -18.6667 1.5229 16
vn -0.0006 1 -0.0013
v -18.6667 1.5211 14.6667
vn -0.0006 1 -0.0013
f 850//850 851//851 852//852
v -18.6667 1.5211 14.6667
vn 0.006 1 -0.0013
v -18.6667 1.5229 16
vn 0.006 1 -0.0013
v -17.3333 1.5149 16
vn 0.006 1 -0.0013
f 853//853 854//854 855//855
v -18.6667 1.5211 14.6667
vn 0.0059 1 -0.0013
v -17.3333 1.5149 16
vn 0.0059 1 -0.0013
v -17.3333 1.5132 14.6667
vn 0.0059 1 -0.0013
f 856//856 857//857 858//858
v -17.3333 1.5132 14.6667
vn 0.0012 1 -0.0013
v -17.3333 1.5149 16
vn 0.0012 1 -0.0013
v -16 1.5134 16
vn 0.0012 1 -0.0013
f 859//859 860//860 861//861
v -17.3333 1.5132 14.6667
vn 0.0005 1 -0.0006
v -16 1.5134 16
vn 0.0005 1 -0.0006
v -16 1.5125 14.6667
vn 0.0005 1 -0.0006
f 862//862 863//863 864//864
