# litt live chunk - perpetual grass world
# chunk (1,2) seed=1337 size=16 res=12
mtllib materials.mtl
o chunk_1_2
g grass_b
usemtl grass_b
v 16 0.0826 32
vn 0.008 1 0.0018
v 16 0.0802 33.3333
vn 0.008 1 0.0018
v 17.3333 0.0696 33.3333
vn 0.008 1 0.0018
f 1//1 2//2 3//3
v 16 0.0826 32
vn 0.0085 1 0.0013
v 17.3333 0.0696 33.3333
vn 0.0085 1 0.0013
v 17.3333 0.0713 32
vn 0.0085 1 0.0013
f 4//4 5//5 6//6
v 17.3333 0.0713 32
vn 0.0037 1 0.0013
v 17.3333 0.0696 33.3333
vn 0.0037 1 0.0013
v 18.6667 0.0647 33.3333
vn 0.0037 1 0.0013
f 7//7 8//8 9//9
v 17.3333 0.0713 32
vn 0.0037 1 0.0012
v 18.6667 0.0647 33.3333
vn 0.0037 1 0.0012
v 18.6667 0.0663 32
vn 0.0037 1 0.0012
f 10//10 11//11 12//12
v 18.6667 0.0663 32
vn -0.0022 1 0.0012
v 18.6667 0.0647 33.3333
vn -0.0022 1 0.0012
v 20 0.0677 33.3333
vn -0.0022 1 0.0012
f 13//13 14//14 15//15
v 18.6667 0.0663 32
vn 0.0004 1 -0.0014
v 20 0.0677 33.3333
vn 0.0004 1 -0.0014
v 20 0.0658 32
vn 0.0004 1 -0.0014
f 16//16 17//17 18//18
v 20 0.0658 32
vn -0.0045 1 -0.0014
v 20 0.0677 33.3333
vn -0.0045 1 -0.0014
v 21.3333 0.0737 33.3333
vn -0.0045 1 -0.0014
f 19//19 20//20 21//21
v 20 0.0658 32
vn -0.0066 1 0.0007
v 21.3333 0.0737 33.3333
vn -0.0066 1 0.0007
v 21.3333 0.0746 32
vn -0.0066 1 0.0007
f 22//22 23//23 24//24
v 21.3333 0.0746 32
vn -0.0155 0.9999 0.0007
v 21.3333 0.0737 33.3333
vn -0.0155 0.9999 0.0007
v 22.6667 0.0944 33.3333
vn -0.0155 0.9999 0.0007
f 25//25 26//26 27//27
v 21.3333 0.0746 32
vn -0.0162 0.9999 0.0014
v 22.6667 0.0944 33.3333
vn -0.0162 0.9999 0.0014
v 22.6667 0.0962 32
vn -0.0162 0.9999 0.0014
f 28//28 29//29 30//30
v 22.6667 0.0962 32
vn -0.0164 0.9999 0.0014
v 22.6667 0.0944 33.3333
vn -0.0164 0.9999 0.0014
v 24 0.1162 33.3333
vn -0.0164 0.9999 0.0014
f 31//31 32//32 33//33
v 22.6667 0.0962 32
vn -0.0159 0.9999 0.0009
v 24 0.1162 33.3333
vn -0.0159 0.9999 0.0009
v 24 0.1174 32
vn -0.0159 0.9999 0.0009
f 34//34 35//35 36//36
v 24 0.1174 32
vn -0.0027 1 0.0009
v 24 0.1162 33.3333
vn -0.0027 1 0.0009
v 25.3333 0.1198 33.3333
vn -0.0027 1 0.0009
f 37//37 38//38 39//39
v 24 0.1174 32
vn -0.0027 1 0.0009
v 25.3333 0.1198 33.3333
vn -0.0027 1 0.0009
v 25.3333 0.121 32
vn -0.0027 1 0.0009
f 40//40 41//41 42//42
v 25.3333 0.121 32
vn -0.0024 1 0.0009
v 25.3333 0.1198 33.3333
vn -0.0024 1 0.0009
v 26.6667 0.123 33.3333
vn -0.0024 1 0.0009
f 43//43 44//44 45//45
v 25.3333 0.121 32
vn -0.0003 1 -0.0012
v 26.6667 0.123 33.3333
vn -0.0003 1 -0.0012
v 26.6667 0.1214 32
vn -0.0003 1 -0.0012
f 46//46 47//47 48//48
v 26.6667 0.1214 32
vn 0.0026 1 -0.0012
v 26.6667 0.123 33.3333
vn 0.0026 1 -0.0012
v 28 0.1195 33.3333
vn 0.0026 1 -0.0012
f 49//49 50//50 51//51
v 26.6667 0.1214 32
vn 0.0002 1 0.0012
v 28 0.1195 33.3333
vn 0.0002 1 0.0012
v 28 0.121 32
vn 0.0002 1 0.0012
f 52//52 53//53 54//54
v 28 0.121 32
vn 0.0043 1 0.0012
v 28 0.1195 33.3333
vn 0.0043 1 0.0012
v 29.3333 0.1138 33.3333
vn 0.0043 1 0.0012
f 55//55 56//56 57//57
v 28 0.121 32
vn 0.0039 1 0.0015
v 29.3333 0.1138 33.3333
vn 0.0039 1 0.0015
v 29.3333 0.1158 32
vn 0.0039 1 0.0015
f 58//58 59//59 60//60
v 29.3333 0.1158 32
vn -0.0035 1 0.0015
v 29.3333 0.1138 33.3333
vn -0.0035 1 0.0015
v 30.6667 0.1185 33.3333
vn -0.0035 1 0.0015
f 61//61 62//62 63//63
v 29.3333 0.1158 32
vn -0.0012 1 -0.0008
v 30.6667 0.1185 33.3333
vn -0.0012 1 -0.0008
v 30.6667 0.1174 32
vn -0.0012 1 -0.0008
f 64//64 65//65 66//66
v 30.6667 0.1174 32
vn -0.0023 1 -0.0008
v 30.6667 0.1185 33.3333
vn -0.0023 1 -0.0008
v 32 0.1215 33.3333
vn -0.0023 1 -0.0008
f 67//67 68//68 69//69
v 30.6667 0.1174 32
vn -0.0018 1 -0.0013
v 32 0.1215 33.3333
vn -0.0018 1 -0.0013
v 32 0.1198 32
vn -0.0018 1 -0.0013
f 70//70 71//71 72//72
v 16 0.0802 33.3333
vn 0.007 1 0.001
v 16 0.0789 34.6667
vn 0.007 1 0.001
v 17.3333 0.0696 34.6667
vn 0.007 1 0.001
f 73//73 74//74 75//75
v 16 0.0802 33.3333
vn 0.008 1 -0
v 17.3333 0.0696 34.6667
vn 0.008 1 -0
v 17.3333 0.0696 33.3333
vn 0.008 1 -0
f 76//76 77//77 78//78
v 17.3333 0.0696 33.3333
vn 0.0031 1 -0
v 17.3333 0.0696 34.6667
vn 0.0031 1 -0
v 18.6667 0.0655 34.6667
vn 0.0031 1 -0
f 79//79 80//80 81//81
v 17.3333 0.0696 33.3333
vn 0.0037 1 -0.0006
v 18.6667 0.0655 34.6667
vn 0.0037 1 -0.0006
v 18.6667 0.0647 33.3333
vn 0.0037 1 -0.0006
f 82//82 83//83 84//84
v 18.6667 0.0647 33.3333
vn -0.0014 1 -0.0006
v 18.6667 0.0655 34.6667
vn -0.0014 1 -0.0006
v 20 0.0674 34.6667
vn -0.0014 1 -0.0006
f 85//85 86//86 87//87
v 18.6667 0.0647 33.3333
vn -0.0022 1 0.0002
v 20 0.0674 34.6667
vn -0.0022 1 0.0002
v 20 0.0677 33.3333
vn -0.0022 1 0.0002
f 88//88 89//89 90//90
v 20 0.0677 33.3333
vn -0.0037 1 0.0002
v 20 0.0674 34.6667
vn -0.0037 1 0.0002
v 21.3333 0.0724 34.6667
vn -0.0037 1 0.0002
f 91//91 92//92 93//93
v 20 0.0677 33.3333
vn -0.0045 1 0.001
v 21.3333 0.0724 34.6667
vn -0.0045 1 0.001
v 21.3333 0.0737 33.3333
vn -0.0045 1 0.001
f 94//94 95//95 96//96
v 21.3333 0.0737 33.3333
vn -0.0158 0.9999 0.001
v 21.3333 0.0724 34.6667
vn -0.0158 0.9999 0.001
v 22.6667 0.0934 34.6667
vn -0.0158 0.9999 0.001
f 97//97 98//98 99//99
v 21.3333 0.0737 33.3333
vn -0.0155 0.9999 0.0007
v 22.6667 0.0934 34.6667
vn -0.0155 0.9999 0.0007
v 22.6667 0.0944 33.3333
vn -0.0155 0.9999 0.0007
f 100//100 101//101 102//102
v 22.6667 0.0944 33.3333
vn -0.0172 0.9999 0.0007
v 22.6667 0.0934 34.6667
vn -0.0172 0.9999 0.0007
v 24 0.1163 34.6667
vn -0.0172 0.9999 0.0007
f 103//103 104//104 105//105
v 22.6667 0.0944 33.3333
vn -0.0164 0.9999 -0
v 24 0.1163 34.6667
vn -0.0164 0.9999 -0
v 24 0.1162 33.3333
vn -0.0164 0.9999 -0
f 106//106 107//107 108//108
v 24 0.1162 33.3333
vn -0.003 1 -0
v 24 0.1163 34.6667
vn -0.003 1 -0
v 25.3333 0.1203 34.6667
vn -0.003 1 -0
f 109//109 110//110 111//111
v 24 0.1162 33.3333
vn -0.0027 1 -0.0004
v 25.3333 0.1203 34.6667
vn -0.0027 1 -0.0004
v 25.3333 0.1198 33.3333
vn -0.0027 1 -0.0004
f 112//112 113//113 114//114
v 25.3333 0.1198 33.3333
vn -0.0017 1 -0.0004
v 25.3333 0.1203 34.6667
vn -0.0017 1 -0.0004
v 26.6667 0.1226 34.6667
vn -0.0017 1 -0.0004
f 115//115 116//116 117//117
v 25.3333 0.1198 33.3333
vn -0.0024 1 0.0003
v 26.6667 0.1226 34.6667
vn -0.0024 1 0.0003
v 26.6667 0.123 33.3333
vn -0.0024 1 0.0003
f 118//118 119//119 120//120
v 26.6667 0.123 33.3333
vn 0.0034 1 0.0003
v 26.6667 0.1226 34.6667
vn 0.0034 1 0.0003
v 28 0.118 34.6667
vn 0.0034 1 0.0003
f 121//121 122//122 123//123
v 26.6667 0.123 33.3333
vn 0.0026 1 0.0011
v 28 0.118 34.6667
vn 0.0026 1 0.0011
v 28 0.1195 33.3333
vn 0.0026 1 0.0011
f 124//124 125//125 126//126
v 28 0.1195 33.3333
vn 0.0038 1 0.0011
v 28 0.118 34.6667
vn 0.0038 1 0.0011
v 29.3333 0.1129 34.6667
vn 0.0038 1 0.0011
f 127//127 128//128 129//129
v 28 0.1195 33.3333
vn 0.0043 1 0.0007
v 29.3333 0.1129 34.6667
vn 0.0043 1 0.0007
v 29.3333 0.1138 33.3333
vn 0.0043 1 0.0007
f 130//130 131//131 132//132
v 29.3333 0.1138 33.3333
vn -0.0045 1 0.0007
v 29.3333 0.1129 34.6667
vn -0.0045 1 0.0007
v 30.6667 0.1189 34.6667
vn -0.0045 1 0.0007
f 133//133 134//134 135//135
v 29.3333 0.1138 33.3333
vn -0.0035 1 -0.0003
v 30.6667 0.1189 34.6667
vn -0.0035 1 -0.0003
v 30.6667 0.1185 33.3333
vn -0.0035 1 -0.0003
f 136//136 137//137 138//138
v 30.6667 0.1185 33.3333
vn -0.0027 1 -0.0003
v 30.6667 0.1189 34.6667
vn -0.0027 1 -0.0003
v 32 0.1224 34.6667
vn -0.0027 1 -0.0003
f 139//139 140//140 141//141
v 30.6667 0.1185 33.3333
vn -0.0023 1 -0.0007
v 32 0.1224 34.6667
vn -0.0023 1 -0.0007
v 32 0.1215 33.3333
vn -0.0023 1 -0.0007
f 142//142 143//143 144//144
v 16 0.0789 34.6667
vn 0.0069 1 0.0003
v 16 0.0785 36
vn 0.0069 1 0.0003
v 17.3333 0.0693 36
vn 0.0069 1 0.0003
f 145//145 146//146 147//147
v 16 0.0789 34.6667
vn 0.007 1 0.0002
v 17.3333 0.0693 36
vn 0.007 1 0.0002
v 17.3333 0.0696 34.6667
vn 0.007 1 0.0002
f 148//148 149//149 150//150
v 17.3333 0.0696 34.6667
vn 0.0034 1 0.0002
v 17.3333 0.0693 36
vn 0.0034 1 0.0002
v 18.6667 0.0648 36
vn 0.0034 1 0.0002
f 151//151 152//152 153//153
v 17.3333 0.0696 34.6667
vn 0.0031 1 0.0005
v 18.6667 0.0648 36
vn 0.0031 1 0.0005
v 18.6667 0.0655 34.6667
vn 0.0031 1 0.0005
f 154//154 155//155 156//156
v 18.6667 0.0655 34.6667
vn -0.0023 1 0.0005
v 18.6667 0.0648 36
vn -0.0023 1 0.0005
v 20 0.0679 36
vn -0.0023 1 0.0005
f 157//157 158//158 159//159
v 18.6667 0.0655 34.6667
vn -0.0014 1 -0.0004
v 20 0.0679 36
vn -0.0014 1 -0.0004
v 20 0.0674 34.6667
vn -0.0014 1 -0.0004
f 160//160 161//161 162//162
v 20 0.0674 34.6667
vn -0.0036 1 -0.0004
v 20 0.0679 36
vn -0.0036 1 -0.0004
v 21.3333 0.0728 36
vn -0.0036 1 -0.0004
f 163//163 164//164 165//165
v 20 0.0674 34.6667
vn -0.0037 1 -0.0003
v 21.3333 0.0728 36
vn -0.0037 1 -0.0003
v 21.3333 0.0724 34.6667
vn -0.0037 1 -0.0003
f 166//166 167//167 168//168
v 21.3333 0.0724 34.6667
vn -0.0151 0.9999 -0.0003
v 21.3333 0.0728 36
vn -0.0151 0.9999 -0.0003
v 22.6667 0.093 36
vn -0.0151 0.9999 -0.0003
f 169//169 170//170 171//171
v 21.3333 0.0724 34.6667
vn -0.0158 0.9999 0.0003
v 22.6667 0.093 36
vn -0.0158 0.9999 0.0003
v 22.6667 0.0934 34.6667
vn -0.0158 0.9999 0.0003
f 172//172 173//173 174//174
v 22.6667 0.0934 34.6667
vn -0.017 0.9999 0.0003
v 22.6667 0.093 36
vn -0.017 0.9999 0.0003
v 24 0.1156 36
vn -0.017 0.9999 0.0003
f 175//175 176//176 177//177
v 22.6667 0.0934 34.6667
vn -0.0172 0.9999 0.0005
v 24 0.1156 36
vn -0.0172 0.9999 0.0005
v 24 0.1163 34.6667
vn -0.0172 0.9999 0.0005
f 178//178 179//179 180//180
v 24 0.1163 34.6667
vn -0.0031 1 0.0005
v 24 0.1156 36
vn -0.0031 1 0.0005
v 25.3333 0.1197 36
vn -0.0031 1 0.0005
f 181//181 182//182 183//183
v 24 0.1163 34.6667
vn -0.003 1 0.0004
v 25.3333 0.1197 36
vn -0.003 1 0.0004
v 25.3333 0.1203 34.6667
vn -0.003 1 0.0004
f 184//184 185//185 186//186
v 25.3333 0.1203 34.6667
vn -0.0015 1 0.0004
v 25.3333 0.1197 36
vn -0.0015 1 0.0004
v 26.6667 0.1218 36
vn -0.0015 1 0.0004
f 187//187 188//188 189//189
v 25.3333 0.1203 34.6667
vn -0.0017 1 0.0006
v 26.6667 0.1218 36
vn -0.0017 1 0.0006
v 26.6667 0.1226 34.6667
vn -0.0017 1 0.0006
f 190//190 191//191 192//192
v 26.6667 0.1226 34.6667
vn 0.0023 1 0.0006
v 26.6667 0.1218 36
vn 0.0023 1 0.0006
v 28 0.1187 36
vn 0.0023 1 0.0006
f 193//193 194//194 195//195
v 26.6667 0.1226 34.6667
vn 0.0034 1 -0.0005
v 28 0.1187 36
vn 0.0034 1 -0.0005
v 28 0.118 34.6667
vn 0.0034 1 -0.0005
f 196//196 197//197 198//198
v 28 0.118 34.6667
vn 0.0041 1 -0.0005
v 28 0.1187 36
vn 0.0041 1 -0.0005
v 29.3333 0.1132 36
vn 0.0041 1 -0.0005
f 199//199 200//200 201//201
v 28 0.118 34.6667
vn 0.0038 1 -0.0002
v 29.3333 0.1132 36
vn 0.0038 1 -0.0002
v 29.3333 0.1129 34.6667
vn 0.0038 1 -0.0002
f 202//202 203//203 204//204
v 29.3333 0.1129 34.6667
vn -0.0047 1 -0.0002
v 29.3333 0.1132 36
vn -0.0047 1 -0.0002
v 30.6667 0.1194 36
vn -0.0047 1 -0.0002
f 205//205 206//206 207//207
v 29.3333 0.1129 34.6667
vn -0.0045 1 -0.0004
v 30.6667 0.1194 36
vn -0.0045 1 -0.0004
v 30.6667 0.1189 34.6667
vn -0.0045 1 -0.0004
f 208//208 209//209 210//210
v 30.6667 0.1189 34.6667
vn -0.0027 1 -0.0004
v 30.6667 0.1194 36
vn -0.0027 1 -0.0004
v 32 0.1231 36
vn -0.0027 1 -0.0004
f 211//211 212//212 213//213
v 30.6667 0.1189 34.6667
vn -0.0027 1 -0.0005
v 32 0.1231 36
vn -0.0027 1 -0.0005
v 32 0.1224 34.6667
vn -0.0027 1 -0.0005
f 214//214 215//215 216//216
v 16 0.0785 36
vn 0.0069 1 0.0002
v 16 0.0783 37.3333
vn 0.0069 1 0.0002
v 17.3333 0.069 37.3333
vn 0.0069 1 0.0002
f 217//217 218//218 219//219
v 16 0.0785 36
vn 0.0069 1 0.0002
v 17.3333 0.069 37.3333
vn 0.0069 1 0.0002
v 17.3333 0.0693 36
vn 0.0069 1 0.0002
f 220//220 221//221 222//222
v 17.3333 0.0693 36
vn 0.0032 1 0.0002
v 17.3333 0.069 37.3333
vn 0.0032 1 0.0002
v 18.6667 0.0647 37.3333
vn 0.0032 1 0.0002
f 223//223 224//224 225//225
v 17.3333 0.0693 36
vn 0.0034 1 0.0001
v 18.6667 0.0647 37.3333
vn 0.0034 1 0.0001
v 18.6667 0.0648 36
vn 0.0034 1 0.0001
f 226//226 227//227 228//228
v 18.6667 0.0648 36
vn -0.0017 1 0.0001
v 18.6667 0.0647 37.3333
vn -0.0017 1 0.0001
v 20 0.067 37.3333
vn -0.0017 1 0.0001
f 229//229 230//230 231//231
v 18.6667 0.0648 36
vn -0.0023 1 0.0007
v 20 0.067 37.3333
vn -0.0023 1 0.0007
v 20 0.0679 36
vn -0.0023 1 0.0007
f 232//232 233//233 234//234
v 20 0.0679 36
vn -0.0036 1 0.0007
v 20 0.067 37.3333
vn -0.0036 1 0.0007
v 21.3333 0.0717 37.3333
vn -0.0036 1 0.0007
f 235//235 236//236 237//237
v 20 0.0679 36
vn -0.0036 1 0.0008
v 21.3333 0.0717 37.3333
vn -0.0036 1 0.0008
v 21.3333 0.0728 36
vn -0.0036 1 0.0008
f 238//238 239//239 240//240
v 21.3333 0.0728 36
vn -0.0156 0.9999 0.0008
v 21.3333 0.0717 37.3333
vn -0.0156 0.9999 0.0008
v 22.6667 0.0925 37.3333
vn -0.0156 0.9999 0.0008
f 241//241 242//242 243//243
v 21.3333 0.0728 36
vn -0.0151 0.9999 0.0003
v 22.6667 0.0925 37.3333
vn -0.0151 0.9999 0.0003
v 22.6667 0.093 36
vn -0.0151 0.9999 0.0003
f 244//244 245//245 246//246
v 22.6667 0.093 36
vn -0.0178 0.9998 0.0003
v 22.6667 0.0925 37.3333
vn -0.0178 0.9998 0.0003
v 24 0.1162 37.3333
vn -0.0178 0.9998 0.0003
f 247//247 248//248 249//249
v 22.6667 0.093 36
vn -0.017 0.9999 -0.0005
v 24 0.1162 37.3333
vn -0.017 0.9999 -0.0005
v 24 0.1156 36
vn -0.017 0.9999 -0.0005
f 250//250 251//251 252//252
v 24 0.1156 36
vn -0.0033 1 -0.0005
v 24 0.1162 37.3333
vn -0.0033 1 -0.0005
v 25.3333 0.1206 37.3333
vn -0.0033 1 -0.0005
f 253//253 254//254 255//255
v 24 0.1156 36
vn -0.0031 1 -0.0006
v 25.3333 0.1206 37.3333
vn -0.0031 1 -0.0006
v 25.3333 0.1197 36
vn -0.0031 1 -0.0006
f 256//256 257//257 258//258
v 25.3333 0.1197 36
vn -0.0016 1 -0.0006
v 25.3333 0.1206 37.3333
vn -0.0016 1 -0.0006
v 26.6667 0.1227 37.3333
vn -0.0016 1 -0.0006
f 259//259 260//260 261//261
v 25.3333 0.1197 36
vn -0.0015 1 -0.0007
v 26.6667 0.1227 37.3333
vn -0.0015 1 -0.0007
v 26.6667 0.1218 36
vn -0.0015 1 -0.0007
f 262//262 263//263 264//264
v 26.6667 0.1218 36
vn 0.0029 1 -0.0007
v 26.6667 0.1227 37.3333
vn 0.0029 1 -0.0007
v 28 0.1188 37.3333
vn 0.0029 1 -0.0007
f 265//265 266//266 267//267
v 26.6667 0.1218 36
vn 0.0023 1 -0.0001
v 28 0.1188 37.3333
vn 0.0023 1 -0.0001
v 28 0.1187 36
vn 0.0023 1 -0.0001
f 268//268 269//269 270//270
v 28 0.1187 36
vn 0.0042 1 -0.0001
v 28 0.1188 37.3333
vn 0.0042 1 -0.0001
v 29.3333 0.1131 37.3333
vn 0.0042 1 -0.0001
f 271//271 272//272 273//273
v 28 0.1187 36
vn 0.0041 1 0
v 29.3333 0.1131 37.3333
vn 0.0041 1 0
v 29.3333 0.1132 36
vn 0.0041 1 0
f 274//274 275//275 276//276
v 29.3333 0.1132 36
vn -0.0048 1 0
v 29.3333 0.1131 37.3333
vn -0.0048 1 0
v 30.6667 0.1196 37.3333
vn -0.0048 1 0
f 277//277 278//278 279//279
v 29.3333 0.1132 36
vn -0.0047 1 -0.0001
v 30.6667 0.1196 37.3333
vn -0.0047 1 -0.0001
v 30.6667 0.1194 36
vn -0.0047 1 -0.0001
f 280//280 281//281 282//282
v 30.6667 0.1194 36
vn -0.0028 1 -0.0001
v 30.6667 0.1196 37.3333
vn -0.0028 1 -0.0001
v 32 0.1233 37.3333
vn -0.0028 1 -0.0001
f 283//283 284//284 285//285
v 30.6667 0.1194 36
vn -0.0027 1 -0.0002
v 32 0.1233 37.3333
vn -0.0027 1 -0.0002
v 32 0.1231 36
vn -0.0027 1 -0.0002
f 286//286 287//287 288//288
v 16 0.0783 37.3333
vn 0.0081 1 -0.0017
v 16 0.0805 38.6667
vn 0.0081 1 -0.0017
v 17.3333 0.0696 38.6667
vn 0.0081 1 -0.0017
f 289//289 290//290 291//291
v 16 0.0783 37.3333
vn 0.0069 1 -0.0005
v 17.3333 0.0696 38.6667
vn 0.0069 1 -0.0005
v 17.3333 0.069 37.3333
vn 0.0069 1 -0.0005
f 292//292 293//293 294//294
v 17.3333 0.069 37.3333
vn 0.0011 1 -0.0005
v 17.3333 0.0696 38.6667
vn 0.0011 1 -0.0005
v 18.6667 0.0682 38.6667
vn 0.0011 1 -0.0005
f 295//295 296//296 297//297
v 17.3333 0.069 37.3333
vn 0.0032 1 -0.0026
v 18.6667 0.0682 38.6667
vn 0.0032 1 -0.0026
v 18.6667 0.0647 37.3333
vn 0.0032 1 -0.0026
f 298//298 299//299 300//300
v 18.6667 0.0647 37.3333
vn -0 1 -0.0026
v 18.6667 0.0682 38.6667
vn -0 1 -0.0026
v 20 0.0683 38.6667
vn -0 1 -0.0026
f 301//301 302//302 303//303
v 18.6667 0.0647 37.3333
vn -0.0017 1 -0.001
v 20 0.0683 38.6667
vn -0.0017 1 -0.001
v 20 0.067 37.3333
vn -0.0017 1 -0.001
f 304//304 305//305 306//306
v 20 0.067 37.3333
vn -0.0042 1 -0.001
v 20 0.0683 38.6667
vn -0.0042 1 -0.001
v 21.3333 0.0738 38.6667
vn -0.0042 1 -0.001
f 307//307 308//308 309//309
v 20 0.067 37.3333
vn -0.0036 1 -0.0016
v 21.3333 0.0738 38.6667
vn -0.0036 1 -0.0016
v 21.3333 0.0717 37.3333
vn -0.0036 1 -0.0016
f 310//310 311//311 312//312
v 21.3333 0.0717 37.3333
vn -0.0144 0.9999 -0.0016
v 21.3333 0.0738 38.6667
vn -0.0144 0.9999 -0.0016
v 22.6667 0.0931 38.6667
vn -0.0144 0.9999 -0.0016
f 313//313 314//314 315//315
v 21.3333 0.0717 37.3333
vn -0.0156 0.9999 -0.0004
v 22.6667 0.0931 38.6667
vn -0.0156 0.9999 -0.0004
v 22.6667 0.0925 37.3333
vn -0.0156 0.9999 -0.0004
f 316//316 317//317 318//318
v 22.6667 0.0925 37.3333
vn -0.0167 0.9999 -0.0004
v 22.6667 0.0931 38.6667
vn -0.0167 0.9999 -0.0004
v 24 0.1154 38.6667
vn -0.0167 0.9999 -0.0004
f 319//319 320//320 321//321
v 22.6667 0.0925 37.3333
vn -0.0178 0.9998 0.0006
v 24 0.1154 38.6667
vn -0.0178 0.9998 0.0006
v 24 0.1162 37.3333
vn -0.0178 0.9998 0.0006
f 322//322 323//323 324//324
v 24 0.1162 37.3333
vn -0.0043 1 0.0006
v 24 0.1154 38.6667
vn -0.0043 1 0.0006
v 25.3333 0.1212 38.6667
vn -0.0043 1 0.0006
f 325//325 326//326 327//327
v 24 0.1162 37.3333
vn -0.0033 1 -0.0005
v 25.3333 0.1212 38.6667
vn -0.0033 1 -0.0005
v 25.3333 0.1206 37.3333
vn -0.0033 1 -0.0005
f 328//328 329//329 330//330
v 25.3333 0.1206 37.3333
vn 0.0002 1 -0.0005
v 25.3333 0.1212 38.6667
vn 0.0002 1 -0.0005
v 26.6667 0.1209 38.6667
vn 0.0002 1 -0.0005
f 331//331 332//332 333//333
v 25.3333 0.1206 37.3333
vn -0.0016 1 0.0013
v 26.6667 0.1209 38.6667
vn -0.0016 1 0.0013
v 26.6667 0.1227 37.3333
vn -0.0016 1 0.0013
f 334//334 335//335 336//336
v 26.6667 0.1227 37.3333
vn 0.0003 1 0.0013
v 26.6667 0.1209 38.6667
vn 0.0003 1 0.0013
v 28 0.1205 38.6667
vn 0.0003 1 0.0013
f 337//337 338//338 339//339
v 26.6667 0.1227 37.3333
vn 0.0029 1 -0.0013
v 28 0.1205 38.6667
vn 0.0029 1 -0.0013
v 28 0.1188 37.3333
vn 0.0029 1 -0.0013
f 340//340 341//341 342//342
v 28 0.1188 37.3333
vn 0.0061 1 -0.0013
v 28 0.1205 38.6667
vn 0.0061 1 -0.0013
v 29.3333 0.1125 38.6667
vn 0.0061 1 -0.0013
f 343//343 344//344 345//345
v 28 0.1188 37.3333
vn 0.0042 1 0.0005
v 29.3333 0.1125 38.6667
vn 0.0042 1 0.0005
v 29.3333 0.1131 37.3333
vn 0.0042 1 0.0005
f 346//346 347//347 348//348
v 29.3333 0.1131 37.3333
vn -0.0033 1 0.0005
v 29.3333 0.1125 38.6667
vn -0.0033 1 0.0005
v 30.6667 0.1168 38.6667
vn -0.0033 1 0.0005
f 349//349 350//350 351//351
v 29.3333 0.1131 37.3333
vn -0.0048 1 0.0021
v 30.6667 0.1168 38.6667
vn -0.0048 1 0.0021
v 30.6667 0.1196 37.3333
vn -0.0048 1 0.0021
f 352//352 353//353 354//354
v 30.6667 0.1196 37.3333
vn -0.0033 1 0.0021
v 30.6667 0.1168 38.6667
vn -0.0033 1 0.0021
v 32 0.1213 38.6667
vn -0.0033 1 0.0021
f 355//355 356//356 357//357
v 30.6667 0.1196 37.3333
vn -0.0028 1 0.0015
v 32 0.1213 38.6667
vn -0.0028 1 0.0015
v 32 0.1233 37.3333
vn -0.0028 1 0.0015
f 358//358 359//359 360//360
v 16 0.0805 38.6667
vn 0.0075 1 -0.0047
v 16 0.0868 40
vn 0.0075 1 -0.0047
v 17.3333 0.0768 40
vn 0.0075 1 -0.0047
f 361//361 362//362 363//363
v 16 0.0805 38.6667
vn 0.0081 1 -0.0054
v 17.3333 0.0768 40
vn 0.0081 1 -0.0054
v 17.3333 0.0696 38.6667
vn 0.0081 1 -0.0054
f 364//364 365//365 366//366
v 17.3333 0.0696 38.6667
vn 0.0001 1 -0.0054
v 17.3333 0.0768 40
vn 0.0001 1 -0.0054
v 18.6667 0.0767 40
vn 0.0001 1 -0.0054
f 367//367 368//368 369//369
v 17.3333 0.0696 38.6667
vn 0.0011 1 -0.0064
v 18.6667 0.0767 40
vn 0.0011 1 -0.0064
v 18.6667 0.0682 38.6667
vn 0.0011 1 -0.0064
f 370//370 371//371 372//372
v 18.6667 0.0682 38.6667
vn 0.0013 1 -0.0064
v 18.6667 0.0767 40
vn 0.0013 1 -0.0064
v 20 0.0751 40
vn 0.0013 1 -0.0064
f 373//373 374//374 375//375
v 18.6667 0.0682 38.6667
vn -0 1 -0.0051
v 20 0.0751 40
vn -0 1 -0.0051
v 20 0.0683 38.6667
vn -0 1 -0.0051
f 376//376 377//377 378//378
v 20 0.0683 38.6667
vn -0.0025 1 -0.0051
v 20 0.0751 40
vn -0.0025 1 -0.0051
v 21.3333 0.0784 40
vn -0.0025 1 -0.0051
f 379//379 380//380 381//381
v 20 0.0683 38.6667
vn -0.0042 1 -0.0034
v 21.3333 0.0784 40
vn -0.0042 1 -0.0034
v 21.3333 0.0738 38.6667
vn -0.0042 1 -0.0034
f 382//382 383//383 384//384
v 21.3333 0.0738 38.6667
vn -0.0121 0.9999 -0.0034
v 21.3333 0.0784 40
vn -0.0121 0.9999 -0.0034
v 22.6667 0.0945 40
vn -0.0121 0.9999 -0.0034
f 385//385 386//386 387//387
v 21.3333 0.0738 38.6667
vn -0.0144 0.9999 -0.001
v 22.6667 0.0945 40
vn -0.0144 0.9999 -0.001
v 22.6667 0.0931 38.6667
vn -0.0144 0.9999 -0.001
f 388//388 389//389 390//390
v 22.6667 0.0931 38.6667
vn -0.0145 0.9999 -0.001
v 22.6667 0.0945 40
vn -0.0145 0.9999 -0.001
v 24 0.1138 40
vn -0.0145 0.9999 -0.001
f 391//391 392//392 393//393
v 22.6667 0.0931 38.6667
vn -0.0167 0.9999 0.0012
v 24 0.1138 40
vn -0.0167 0.9999 0.0012
v 24 0.1154 38.6667
vn -0.0167 0.9999 0.0012
f 394//394 395//395 396//396
v 24 0.1154 38.6667
vn -0.0038 1 0.0012
v 24 0.1138 40
vn -0.0038 1 0.0012
v 25.3333 0.1189 40
vn -0.0038 1 0.0012
f 397//397 398//398 399//399
v 24 0.1154 38.6667
vn -0.0043 1 0.0017
v 25.3333 0.1189 40
vn -0.0043 1 0.0017
v 25.3333 0.1212 38.6667
vn -0.0043 1 0.0017
f 400//400 401//401 402//402
v 25.3333 0.1212 38.6667
vn 0.0002 1 0.0017
v 25.3333 0.1189 40
vn 0.0002 1 0.0017
v 26.6667 0.1186 40
vn 0.0002 1 0.0017
f 403//403 404//404 405//405
v 25.3333 0.1212 38.6667
vn 0.0002 1 0.0017
v 26.6667 0.1186 40
vn 0.0002 1 0.0017
v 26.6667 0.1209 38.6667
vn 0.0002 1 0.0017
f 406//406 407//407 408//408
v 26.6667 0.1209 38.6667
vn -0.0001 1 0.0017
v 26.6667 0.1186 40
vn -0.0001 1 0.0017
v 28 0.1188 40
vn -0.0001 1 0.0017
f 409//409 410//410 411//411
v 26.6667 0.1209 38.6667
vn 0.0003 1 0.0013
v 28 0.1188 40
vn 0.0003 1 0.0013
v 28 0.1205 38.6667
vn 0.0003 1 0.0013
f 412//412 413//413 414//414
v 28 0.1205 38.6667
vn 0.0063 1 0.0013
v 28 0.1188 40
vn 0.0063 1 0.0013
v 29.3333 0.1104 40
vn 0.0063 1 0.0013
f 415//415 416//416 417//417
v 28 0.1205 38.6667
vn 0.0061 1 0.0016
v 29.3333 0.1104 40
vn 0.0061 1 0.0016
v 29.3333 0.1125 38.6667
vn 0.0061 1 0.0016
f 418//418 419//419 420//420
v 29.3333 0.1125 38.6667
vn -0.0031 1 0.0016
v 29.3333 0.1104 40
vn -0.0031 1 0.0016
v 30.6667 0.1145 40
vn -0.0031 1 0.0016
f 421//421 422//422 423//423
v 29.3333 0.1125 38.6667
vn -0.0033 1 0.0018
v 30.6667 0.1145 40
vn -0.0033 1 0.0018
v 30.6667 0.1168 38.6667
vn -0.0033 1 0.0018
f 424//424 425//425 426//426
v 30.6667 0.1168 38.6667
vn -0.0035 1 0.0018
v 30.6667 0.1145 40
vn -0.0035 1 0.0018
v 32 0.1191 40
vn -0.0035 1 0.0018
f 427//427 428//428 429//429
v 30.6667 0.1168 38.6667
vn -0.0033 1 0.0017
v 32 0.1191 40
vn -0.0033 1 0.0017
v 32 0.1213 38.6667
vn -0.0033 1 0.0017
f 430//430 431//431 432//432
v 16 0.0868 40
vn 0.0072 1 -0.0041
v 16 0.0922 41.3333
vn 0.0072 1 -0.0041
v 17.3333 0.0826 41.3333
vn 0.0072 1 -0.0041
f 433//433 434//434 435//435
v 16 0.0868 40
vn 0.0075 1 -0.0043
v 17.3333 0.0826 41.3333
vn 0.0075 1 -0.0043
v 17.3333 0.0768 40
vn 0.0075 1 -0.0043
f 436//436 437//437 438//438
v 17.3333 0.0768 40
vn -0.0001 1 -0.0043
v 17.3333 0.0826 41.3333
vn -0.0001 1 -0.0043
v 18.6667 0.0827 41.3333
vn -0.0001 1 -0.0043
f 439//439 440//440 441//441
v 17.3333 0.0768 40
vn 0.0001 1 -0.0044
v 18.6667 0.0827 41.3333
vn 0.0001 1 -0.0044
v 18.6667 0.0767 40
vn 0.0001 1 -0.0044
f 442//442 443//443 444//444
v 18.6667 0.0767 40
vn 0.002 1 -0.0044
v 18.6667 0.0827 41.3333
vn 0.002 1 -0.0044
v 20 0.0799 41.3333
vn 0.002 1 -0.0044
f 445//445 446//446 447//447
v 18.6667 0.0767 40
vn 0.0013 1 -0.0037
v 20 0.0799 41.3333
vn 0.0013 1 -0.0037
v 20 0.0751 40
vn 0.0013 1 -0.0037
f 448//448 449//449 450//450
v 20 0.0751 40
vn -0.0005 1 -0.0037
v 20 0.0799 41.3333
vn -0.0005 1 -0.0037
v 21.3333 0.0806 41.3333
vn -0.0005 1 -0.0037
f 451//451 452//452 453//453
v 20 0.0751 40
vn -0.0025 1 -0.0017
v 21.3333 0.0806 41.3333
vn -0.0025 1 -0.0017
v 21.3333 0.0784 40
vn -0.0025 1 -0.0017
f 454//454 455//455 456//456
v 21.3333 0.0784 40
vn -0.0096 1 -0.0017
v 21.3333 0.0806 41.3333
vn -0.0096 1 -0.0017
v 22.6667 0.0934 41.3333
vn -0.0096 1 -0.0017
f 457//457 458//458 459//459
v 21.3333 0.0784 40
vn -0.0121 0.9999 0.0008
v 22.6667 0.0934 41.3333
vn -0.0121 0.9999 0.0008
v 22.6667 0.0945 40
vn -0.0121 0.9999 0.0008
f 460//460 461//461 462//462
v 22.6667 0.0945 40
vn -0.0139 0.9999 0.0008
v 22.6667 0.0934 41.3333
vn -0.0139 0.9999 0.0008
v 24 0.1119 41.3333
vn -0.0139 0.9999 0.0008
f 463//463 464//464 465//465
v 22.6667 0.0945 40
vn -0.0145 0.9999 0.0014
v 24 0.1119 41.3333
vn -0.0145 0.9999 0.0014
v 24 0.1138 40
vn -0.0145 0.9999 0.0014
f 466//466 467//467 468//468
v 24 0.1138 40
vn -0.0039 1 0.0014
v 24 0.1119 41.3333
vn -0.0039 1 0.0014
v 25.3333 0.1171 41.3333
vn -0.0039 1 0.0014
f 469//469 470//470 471//471
v 24 0.1138 40
vn -0.0038 1 0.0013
v 25.3333 0.1171 41.3333
vn -0.0038 1 0.0013
v 25.3333 0.1189 40
vn -0.0038 1 0.0013
f 472//472 473//473 474//474
v 25.3333 0.1189 40
vn -0.0005 1 0.0013
v 25.3333 0.1171 41.3333
vn -0.0005 1 0.0013
v 26.6667 0.1177 41.3333
vn -0.0005 1 0.0013
f 475//475 476//476 477//477
v 25.3333 0.1189 40
vn 0.0002 1 0.0007
v 26.6667 0.1177 41.3333
vn 0.0002 1 0.0007
v 26.6667 0.1186 40
vn 0.0002 1 0.0007
f 478//478 479//479 480//480
v 26.6667 0.1186 40
vn -0.0005 1 0.0007
v 26.6667 0.1177 41.3333
vn -0.0005 1 0.0007
v 28 0.1184 41.3333
vn -0.0005 1 0.0007
f 481//481 482//482 483//483
v 26.6667 0.1186 40
vn -0.0001 1 0.0003
v 28 0.1184 41.3333
vn -0.0001 1 0.0003
v 28 0.1188 40
vn -0.0001 1 0.0003
f 484//484 485//485 486//486
v 28 0.1188 40
vn 0.0061 1 0.0003
v 28 0.1184 41.3333
vn 0.0061 1 0.0003
v 29.3333 0.1102 41.3333
vn 0.0061 1 0.0003
f 487//487 488//488 489//489
v 28 0.1188 40
vn 0.0063 1 0.0001
v 29.3333 0.1102 41.3333
vn 0.0063 1 0.0001
v 29.3333 0.1104 40
vn 0.0063 1 0.0001
f 490//490 491//491 492//492
v 29.3333 0.1104 40
vn -0.0031 1 0.0001
v 29.3333 0.1102 41.3333
vn -0.0031 1 0.0001
v 30.6667 0.1143 41.3333
vn -0.0031 1 0.0001
f 493//493 494//494 495//495
v 29.3333 0.1104 40
vn -0.0031 1 0.0001
v 30.6667 0.1143 41.3333
vn -0.0031 1 0.0001
v 30.6667 0.1145 40
vn -0.0031 1 0.0001
f 496//496 497//497 498//498
v 30.6667 0.1145 40
vn -0.0032 1 0.0001
v 30.6667 0.1143 41.3333
vn -0.0032 1 0.0001
v 32 0.1185 41.3333
vn -0.0032 1 0.0001
f 499//499 500//500 501//501
v 30.6667 0.1145 40
vn -0.0035 1 0.0004
v 32 0.1185 41.3333
vn -0.0035 1 0.0004
v 32 0.1191 40
vn -0.0035 1 0.0004
f 502//502 503//503 504//504
v 16 0.0922 41.3333
vn 0.0073 1 0.0029
v 16 0.0884 42.6667
vn 0.0073 1 0.0029
v 17.3333 0.0787 42.6667
vn 0.0073 1 0.0029
f 505//505 506//506 507//507
v 16 0.0922 41.3333
vn 0.0072 1 0.0029
v 17.3333 0.0787 42.6667
vn 0.0072 1 0.0029
v 17.3333 0.0826 41.3333
vn 0.0072 1 0.0029
f 508//508 509//509 510//510
v 17.3333 0.0826 41.3333
vn 0.0033 1 0.0029
v 17.3333 0.0787 42.6667
vn 0.0033 1 0.0029
v 18.6667 0.0743 42.6667
vn 0.0033 1 0.0029
f 511//511 512//512 513//513
v 17.3333 0.0826 41.3333
vn -0.0001 1 0.0063
v 18.6667 0.0743 42.6667
vn -0.0001 1 0.0063
v 18.6667 0.0827 41.3333
vn -0.0001 1 0.0063
f 514//514 515//515 516//516
v 18.6667 0.0827 41.3333
vn 0.0021 1 0.0063
v 18.6667 0.0743 42.6667
vn 0.0021 1 0.0063
v 20 0.0715 42.6667
vn 0.0021 1 0.0063
f 517//517 518//518 519//519
v 18.6667 0.0827 41.3333
vn 0.002 1 0.0063
v 20 0.0715 42.6667
vn 0.002 1 0.0063
v 20 0.0799 41.3333
vn 0.002 1 0.0063
f 520//520 521//521 522//522
v 20 0.0799 41.3333
vn 0.0002 1 0.0063
v 20 0.0715 42.6667
vn 0.0002 1 0.0063
v 21.3333 0.0713 42.6667
vn 0.0002 1 0.0063
f 523//523 524//524 525//525
v 20 0.0799 41.3333
vn -0.0005 1 0.007
v 21.3333 0.0713 42.6667
vn -0.0005 1 0.007
v 21.3333 0.0806 41.3333
vn -0.0005 1 0.007
f 526//526 527//527 528//528
v 21.3333 0.0806 41.3333
vn -0.0114 0.9999 0.007
v 21.3333 0.0713 42.6667
vn -0.0114 0.9999 0.007
v 22.6667 0.0866 42.6667
vn -0.0114 0.9999 0.007
f 529//529 530//530 531//531
v 21.3333 0.0806 41.3333
vn -0.0096 0.9999 0.0051
v 22.6667 0.0866 42.6667
vn -0.0096 0.9999 0.0051
v 22.6667 0.0934 41.3333
vn -0.0096 0.9999 0.0051
f 532//532 533//533 534//534
v 22.6667 0.0934 41.3333
vn -0.0224 0.9997 0.0051
v 22.6667 0.0866 42.6667
vn -0.0224 0.9997 0.0051
v 24 0.1165 42.6667
vn -0.0224 0.9997 0.0051
f 535//535 536//536 537//537
v 22.6667 0.0934 41.3333
vn -0.0139 0.9999 -0.0035
v 24 0.1165 42.6667
vn -0.0139 0.9999 -0.0035
v 24 0.1119 41.3333
vn -0.0139 0.9999 -0.0035
f 538//538 539//539 540//540
v 24 0.1119 41.3333
vn -0.0067 1 -0.0035
v 24 0.1165 42.6667
vn -0.0067 1 -0.0035
v 25.3333 0.1254 42.6667
vn -0.0067 1 -0.0035
f 541//541 542//542 543//543
v 24 0.1119 41.3333
vn -0.0039 1 -0.0062
v 25.3333 0.1254 42.6667
vn -0.0039 1 -0.0062
v 25.3333 0.1171 41.3333
vn -0.0039 1 -0.0062
f 544//544 545//545 546//546
v 25.3333 0.1171 41.3333
vn -0.0016 1 -0.0062
v 25.3333 0.1254 42.6667
vn -0.0016 1 -0.0062
v 26.6667 0.1275 42.6667
vn -0.0016 1 -0.0062
f 547//547 548//548 549//549
v 25.3333 0.1171 41.3333
vn -0.0005 1 -0.0074
v 26.6667 0.1275 42.6667
vn -0.0005 1 -0.0074
v 26.6667 0.1177 41.3333
vn -0.0005 1 -0.0074
f 550//550 551//551 552//552
v 26.6667 0.1177 41.3333
vn -0.0014 1 -0.0074
v 26.6667 0.1275 42.6667
vn -0.0014 1 -0.0074
v 28 0.1294 42.6667
vn -0.0014 1 -0.0074
f 553//553 554//554 555//555
v 26.6667 0.1177 41.3333
vn -0.0005 1 -0.0083
v 28 0.1294 42.6667
vn -0.0005 1 -0.0083
v 28 0.1184 41.3333
vn -0.0005 1 -0.0083
f 556//556 557//557 558//558
v 28 0.1184 41.3333
vn 0.0037 1 -0.0083
v 28 0.1294 42.6667
vn 0.0037 1 -0.0083
v 29.3333 0.1245 42.6667
vn 0.0037 1 -0.0083
f 559//559 560//560 561//561
v 28 0.1184 41.3333
vn 0.0061 0.9999 -0.0107
v 29.3333 0.1245 42.6667
vn 0.0061 0.9999 -0.0107
v 29.3333 0.1102 41.3333
vn 0.0061 0.9999 -0.0107
f 562//562 563//563 564//564
v 29.3333 0.1102 41.3333
vn -0.0006 0.9999 -0.0107
v 29.3333 0.1245 42.6667
vn -0.0006 0.9999 -0.0107
v 30.6667 0.1253 42.6667
vn -0.0006 0.9999 -0.0107
f 565//565 566//566 567//567
v 29.3333 0.1102 41.3333
vn -0.0031 1 -0.0082
v 30.6667 0.1253 42.6667
vn -0.0031 1 -0.0082
v 30.6667 0.1143 41.3333
vn -0.0031 1 -0.0082
f 568//568 569//569 570//570
v 30.6667 0.1143 41.3333
vn -0.0008 1 -0.0082
v 30.6667 0.1253 42.6667
vn -0.0008 1 -0.0082
v 32 0.1263 42.6667
vn -0.0008 1 -0.0082
f 571//571 572//572 573//573
v 30.6667 0.1143 41.3333
vn -0.0032 1 -0.0058
v 32 0.1263 42.6667
vn -0.0032 1 -0.0058
v 32 0.1185 41.3333
vn -0.0032 1 -0.0058
f 574//574 575//575 576//576
v 16 0.0884 42.6667
vn -0.0029 0.9999 0.0137
v 16 0.07 44
vn -0.0029 0.9999 0.0137
v 17.3333 0.0739 44
vn -0.0029 0.9999 0.0137
f 577//577 578//578 579//579
v 16 0.0884 42.6667
vn 0.0073 1 0.0036
v 17.3333 0.0739 44
vn 0.0073 1 0.0036
v 17.3333 0.0787 42.6667
vn 0.0073 1 0.0036
f 580//580 581//581 582//582
v 17.3333 0.0787 42.6667
vn 0.0064 1 0.0036
v 17.3333 0.0739 44
vn 0.0064 1 0.0036
v 18.6667 0.0654 44
vn 0.0064 1 0.0036
f 583//583 584//584 585//585
v 17.3333 0.0787 42.6667
vn 0.0033 1 0.0067
v 18.6667 0.0654 44
vn 0.0033 1 0.0067
v 18.6667 0.0743 42.6667
vn 0.0033 1 0.0067
f 586//586 587//587 588//588
v 18.6667 0.0743 42.6667
vn 0.003 1 0.0067
v 18.6667 0.0654 44
vn 0.003 1 0.0067
v 20 0.0615 44
vn 0.003 1 0.0067
f 589//589 590//590 591//591
v 18.6667 0.0743 42.6667
vn 0.0021 1 0.0075
v 20 0.0615 44
vn 0.0021 1 0.0075
v 20 0.0715 42.6667
vn 0.0021 1 0.0075
f 592//592 593//593 594//594
v 20 0.0715 42.6667
vn 0.0013 1 0.0075
v 20 0.0615 44
vn 0.0013 1 0.0075
v 21.3333 0.0597 44
vn 0.0013 1 0.0075
f 595//595 596//596 597//597
v 20 0.0715 42.6667
vn 0.0002 1 0.0087
v 21.3333 0.0597 44
vn 0.0002 1 0.0087
v 21.3333 0.0713 42.6667
vn 0.0002 1 0.0087
f 598//598 599//599 600//600
v 21.3333 0.0713 42.6667
vn -0.0188 0.9998 0.0087
v 21.3333 0.0597 44
vn -0.0188 0.9998 0.0087
v 22.6667 0.0848 44
vn -0.0188 0.9998 0.0087
f 601//601 602//602 603//603
v 21.3333 0.0713 42.6667
vn -0.0114 0.9999 0.0013
v 22.6667 0.0848 44
vn -0.0114 0.9999 0.0013
v 22.6667 0.0866 42.6667
vn -0.0114 0.9999 0.0013
f 604//604 605//605 606//606
v 22.6667 0.0866 42.6667
vn -0.0326 0.9995 0.0013
v 22.6667 0.0848 44
vn -0.0326 0.9995 0.0013
v 24 0.1283 44
vn -0.0326 0.9995 0.0013
f 607//607 608//608 609//609
v 22.6667 0.0866 42.6667
vn -0.0224 0.9997 -0.0088
v 24 0.1283 44
vn -0.0224 0.9997 -0.0088
v 24 0.1165 42.6667
vn -0.0224 0.9997 -0.0088
f 610//610 611//611 612//612
v 24 0.1165 42.6667
vn -0.0068 0.9999 -0.0088
v 24 0.1283 44
vn -0.0068 0.9999 -0.0088
v 25.3333 0.1373 44
vn -0.0068 0.9999 -0.0088
f 613//613 614//614 615//615
v 24 0.1165 42.6667
vn -0.0067 0.9999 -0.009
v 25.3333 0.1373 44
vn -0.0067 0.9999 -0.009
v 25.3333 0.1254 42.6667
vn -0.0067 0.9999 -0.009
f 616//616 617//617 618//618
v 25.3333 0.1254 42.6667
vn -0.0004 1 -0.009
v 25.3333 0.1373 44
vn -0.0004 1 -0.009
v 26.6667 0.1379 44
vn -0.0004 1 -0.009
f 619//619 620//620 621//621
v 25.3333 0.1254 42.6667
vn -0.0016 1 -0.0078
v 26.6667 0.1379 44
vn -0.0016 1 -0.0078
v 26.6667 0.1275 42.6667
vn -0.0016 1 -0.0078
f 622//622 623//623 624//624
v 26.6667 0.1275 42.6667
vn -0.0004 1 -0.0078
v 26.6667 0.1379 44
vn -0.0004 1 -0.0078
v 28 0.1384 44
vn -0.0004 1 -0.0078
f 625//625 626//626 627//627
v 26.6667 0.1275 42.6667
vn -0.0014 1 -0.0068
v 28 0.1384 44
vn -0.0014 1 -0.0068
v 28 0.1294 42.6667
vn -0.0014 1 -0.0068
f 628//628 629//629 630//630
v 28 0.1294 42.6667
vn -0.0073 1 -0.0068
v 28 0.1384 44
vn -0.0073 1 -0.0068
v 29.3333 0.1482 44
vn -0.0073 1 -0.0068
f 631//631 632//632 633//633
v 28 0.1294 42.6667
vn 0.0037 0.9998 -0.0178
v 29.3333 0.1482 44
vn 0.0037 0.9998 -0.0178
v 29.3333 0.1245 42.6667
vn 0.0037 0.9998 -0.0178
f 634//634 635//635 636//636
v 29.3333 0.1245 42.6667
vn 0.0026 0.9998 -0.0178
v 29.3333 0.1482 44
vn 0.0026 0.9998 -0.0178
v 30.6667 0.1447 44
vn 0.0026 0.9998 -0.0178
f 637//637 638//638 639//639
v 29.3333 0.1245 42.6667
vn -0.0006 0.9999 -0.0146
v 30.6667 0.1447 44
vn -0.0006 0.9999 -0.0146
v 30.6667 0.1253 42.6667
vn -0.0006 0.9999 -0.0146
f 640//640 641//641 642//642
v 30.6667 0.1253 42.6667
vn 0.0028 0.9999 -0.0146
v 30.6667 0.1447 44
vn 0.0028 0.9999 -0.0146
v 32 0.141 44
vn 0.0028 0.9999 -0.0146
f 643//643 644//644 645//645
v 30.6667 0.1253 42.6667
vn -0.0008 0.9999 -0.011
v 32 0.141 44
vn -0.0008 0.9999 -0.011
v 32 0.1263 42.6667
vn -0.0008 0.9999 -0.011
f 646//646 647//647 648//648
v 16 0.07 44
vn -0.0031 1 0.0003
v 16 0.0696 45.3333
vn -0.0031 1 0.0003
v 17.3333 0.0737 45.3333
vn -0.0031 1 0.0003
f 649//649 650//650 651//651
v 16 0.07 44
vn -0.0029 1 0.0002
v 17.3333 0.0737 45.3333
vn -0.0029 1 0.0002
v 17.3333 0.0739 44
vn -0.0029 1 0.0002
f 652//652 653//653 654//654
v 17.3333 0.0739 44
vn 0.006 1 0.0002
v 17.3333 0.0737 45.3333
vn 0.006 1 0.0002
v 18.6667 0.0657 45.3333
vn 0.006 1 0.0002
f 655//655 656//656 657//657
v 17.3333 0.0739 44
vn 0.0064 1 -0.0002
v 18.6667 0.0657 45.3333
vn 0.0064 1 -0.0002
v 18.6667 0.0654 44
vn 0.0064 1 -0.0002
f 658//658 659//659 660//660
v 18.6667 0.0654 44
vn 0.0031 1 -0.0002
v 18.6667 0.0657 45.3333
vn 0.0031 1 -0.0002
v 20 0.0616 45.3333
vn 0.0031 1 -0.0002
f 661//661 662//662 663//663
v 18.6667 0.0654 44
vn 0.003 1 -0.0001
v 20 0.0616 45.3333
vn 0.003 1 -0.0001
v 20 0.0615 44
vn 0.003 1 -0.0001
f 664//664 665//665 666//666
v 20 0.0615 44
vn 0.0011 1 -0.0001
v 20 0.0616 45.3333
vn 0.0011 1 -0.0001
v 21.3333 0.0601 45.3333
vn 0.0011 1 -0.0001
f 667//667 668//668 669//669
v 20 0.0615 44
vn 0.0013 1 -0.0003
v 21.3333 0.0601 45.3333
vn 0.0013 1 -0.0003
v 21.3333 0.0597 44
vn 0.0013 1 -0.0003
f 670//670 671//671 672//672
v 21.3333 0.0597 44
vn -0.0196 0.9998 -0.0003
v 21.3333 0.0601 45.3333
vn -0.0196 0.9998 -0.0003
v 22.6667 0.0862 45.3333
vn -0.0196 0.9998 -0.0003
f 673//673 674//674 675//675
v 21.3333 0.0597 44
vn -0.0188 0.9998 -0.0011
v 22.6667 0.0862 45.3333
vn -0.0188 0.9998 -0.0011
v 22.6667 0.0848 44
vn -0.0188 0.9998 -0.0011
f 676//676 677//677 678//678
v 22.6667 0.0848 44
vn -0.0336 0.9994 -0.0011
v 22.6667 0.0862 45.3333
vn -0.0336 0.9994 -0.0011
v 24 0.131 45.3333
vn -0.0336 0.9994 -0.0011
f 679//679 680//680 681//681
v 22.6667 0.0848 44
vn -0.0326 0.9995 -0.0021
v 24 0.131 45.3333
vn -0.0326 0.9995 -0.0021
v 24 0.1283 44
vn -0.0326 0.9995 -0.0021
f 682//682 683//683 684//684
v 24 0.1283 44
vn -0.007 1 -0.0021
v 24 0.131 45.3333
vn -0.007 1 -0.0021
v 25.3333 0.1404 45.3333
vn -0.007 1 -0.0021
f 685//685 686//686 687//687
v 24 0.1283 44
vn -0.0068 1 -0.0023
v 25.3333 0.1404 45.3333
vn -0.0068 1 -0.0023
v 25.3333 0.1373 44
vn -0.0068 1 -0.0023
f 688//688 689//689 690//690
v 25.3333 0.1373 44
vn -0.0004 1 -0.0023
v 25.3333 0.1404 45.3333
vn -0.0004 1 -0.0023
v 26.6667 0.141 45.3333
vn -0.0004 1 -0.0023
f 691//691 692//692 693//693
v 25.3333 0.1373 44
vn -0.0004 1 -0.0023
v 26.6667 0.141 45.3333
vn -0.0004 1 -0.0023
v 26.6667 0.1379 44
vn -0.0004 1 -0.0023
f 694//694 695//695 696//696
v 26.6667 0.1379 44
vn 0.0004 1 -0.0023
v 26.6667 0.141 45.3333
vn 0.0004 1 -0.0023
v 28 0.1405 45.3333
vn 0.0004 1 -0.0023
f 697//697 698//698 699//699
v 26.6667 0.1379 44
vn -0.0004 1 -0.0016
v 28 0.1405 45.3333
vn -0.0004 1 -0.0016
v 28 0.1384 44
vn -0.0004 1 -0.0016
f 700//700 701//701 702//702
v 28 0.1384 44
vn -0.0069 1 -0.0016
v 28 0.1405 45.3333
vn -0.0069 1 -0.0016
v 29.3333 0.1497 45.3333
vn -0.0069 1 -0.0016
f 703//703 704//704 705//705
v 28 0.1384 44
vn -0.0073 1 -0.0012
v 29.3333 0.1497 45.3333
vn -0.0073 1 -0.0012
v 29.3333 0.1482 44
vn -0.0073 1 -0.0012
f 706//706 707//707 708//708
v 29.3333 0.1482 44
vn 0.0027 1 -0.0012
v 29.3333 0.1497 45.3333
vn 0.0027 1 -0.0012
v 30.6667 0.1461 45.3333
vn 0.0027 1 -0.0012
f 709//709 710//710 711//711
v 29.3333 0.1482 44
vn 0.0026 1 -0.001
v 30.6667 0.1461 45.3333
vn 0.0026 1 -0.001
v 30.6667 0.1447 44
vn 0.0026 1 -0.001
f 712//712 713//713 714//714
v 30.6667 0.1447 44
vn 0.003 1 -0.001
v 30.6667 0.1461 45.3333
vn 0.003 1 -0.001
v 32 0.1421 45.3333
vn 0.003 1 -0.001
f 715//715 716//716 717//717
v 30.6667 0.1447 44
vn 0.0028 1 -0.0008
v 32 0.1421 45.3333
vn 0.0028 1 -0.0008
v 32 0.141 44
vn 0.0028 1 -0.0008
f 718//718 719//719 720//720
v 16 0.0696 45.3333
vn -0.003 1 0.0001
v 16 0.0694 46.6667
vn -0.003 1 0.0001
v 17.3333 0.0735 46.6667
vn -0.003 1 0.0001
f 721//721 722//722 723//723
v 16 0.0696 45.3333
vn -0.0031 1 0.0002
v 17.3333 0.0735 46.6667
vn -0.0031 1 0.0002
v 17.3333 0.0737 45.3333
vn -0.0031 1 0.0002
f 724//724 725//725 726//726
v 17.3333 0.0737 45.3333
vn 0.0061 1 0.0002
v 17.3333 0.0735 46.6667
vn 0.0061 1 0.0002
v 18.6667 0.0654 46.6667
vn 0.0061 1 0.0002
f 727//727 728//728 729//729
v 17.3333 0.0737 45.3333
vn 0.006 1 0.0003
v 18.6667 0.0654 46.6667
vn 0.006 1 0.0003
v 18.6667 0.0657 45.3333
vn 0.006 1 0.0003
f 730//730 731//731 732//732
v 18.6667 0.0657 45.3333
vn 0.0018 1 0.0003
v 18.6667 0.0654 46.6667
vn 0.0018 1 0.0003
v 20 0.063 46.6667
vn 0.0018 1 0.0003
f 733//733 734//734 735//735
v 18.6667 0.0657 45.3333
vn 0.0031 1 -0.001
v 20 0.063 46.6667
vn 0.0031 1 -0.001
v 20 0.0616 45.3333
vn 0.0031 1 -0.001
f 736//736 737//737 738//738
v 20 0.0616 45.3333
vn 0.0008 1 -0.001
v 20 0.063 46.6667
vn 0.0008 1 -0.001
v 21.3333 0.0618 46.6667
vn 0.0008 1 -0.001
f 739//739 740//740 741//741
v 20 0.0616 45.3333
vn 0.0011 1 -0.0013
v 21.3333 0.0618 46.6667
vn 0.0011 1 -0.0013
v 21.3333 0.0601 45.3333
vn 0.0011 1 -0.0013
f 742//742 743//743 744//744
v 21.3333 0.0601 45.3333
vn -0.0191 0.9998 -0.0013
v 21.3333 0.0618 46.6667
vn -0.0191 0.9998 -0.0013
v 22.6667 0.0873 46.6667
vn -0.0191 0.9998 -0.0013
f 745//745 746//746 747//747
v 21.3333 0.0601 45.3333
vn -0.0196 0.9998 -0.0008
v 22.6667 0.0873 46.6667
vn -0.0196 0.9998 -0.0008
v 22.6667 0.0862 45.3333
vn -0.0196 0.9998 -0.0008
f 748//748 749//749 750//750
v 22.6667 0.0862 45.3333
vn -0.0335 0.9994 -0.0008
v 22.6667 0.0873 46.6667
vn -0.0335 0.9994 -0.0008
v 24 0.132 46.6667
vn -0.0335 0.9994 -0.0008
f 751//751 752//752 753//753
v 22.6667 0.0862 45.3333
vn -0.0336 0.9994 -0.0007
v 24 0.132 46.6667
vn -0.0336 0.9994 -0.0007
v 24 0.131 45.3333
vn -0.0336 0.9994 -0.0007
f 754//754 755//755 756//756
v 24 0.131 45.3333
vn -0.0072 1 -0.0007
v 24 0.132 46.6667
vn -0.0072 1 -0.0007
v 25.3333 0.1415 46.6667
vn -0.0072 1 -0.0007
f 757//757 758//758 759//759
v 24 0.131 45.3333
vn -0.007 1 -0.0008
v 25.3333 0.1415 46.6667
vn -0.007 1 -0.0008
v 25.3333 0.1404 45.3333
vn -0.007 1 -0.0008
f 760//760 761//761 762//762
v 25.3333 0.1404 45.3333
vn -0.0001 1 -0.0008
v 25.3333 0.1415 46.6667
vn -0.0001 1 -0.0008
v 26.6667 0.1417 46.6667
vn -0.0001 1 -0.0008
f 763//763 764//764 765//765
v 25.3333 0.1404 45.3333
vn -0.0004 1 -0.0005
v 26.6667 0.1417 46.6667
vn -0.0004 1 -0.0005
v 26.6667 0.141 45.3333
vn -0.0004 1 -0.0005
f 766//766 767//767 768//768
v 26.6667 0.141 45.3333
vn -0.0007 1 -0.0005
v 26.6667 0.1417 46.6667
vn -0.0007 1 -0.0005
v 28 0.1427 46.6667
vn -0.0007 1 -0.0005
f 769//769 770//770 771//771
v 26.6667 0.141 45.3333
vn 0.0004 1 -0.0016
v 28 0.1427 46.6667
vn 0.0004 1 -0.0016
v 28 0.1405 45.3333
vn 0.0004 1 -0.0016
f 772//772 773//773 774//774
v 28 0.1405 45.3333
vn -0.0065 1 -0.0016
v 28 0.1427 46.6667
vn -0.0065 1 -0.0016
v 29.3333 0.1513 46.6667
vn -0.0065 1 -0.0016
f 775//775 776//776 777//777
v 28 0.1405 45.3333
vn -0.0069 1 -0.0012
v 29.3333 0.1513 46.6667
vn -0.0069 1 -0.0012
v 29.3333 0.1497 45.3333
vn -0.0069 1 -0.0012
f 778//778 779//779 780//780
v 29.3333 0.1497 45.3333
vn 0.0027 1 -0.0012
v 29.3333 0.1513 46.6667
vn 0.0027 1 -0.0012
v 30.6667 0.1478 46.6667
vn 0.0027 1 -0.0012
f 781//781 782//782 783//783
v 29.3333 0.1497 45.3333
vn 0.0027 1 -0.0012
v 30.6667 0.1478 46.6667
vn 0.0027 1 -0.0012
v 30.6667 0.1461 45.3333
vn 0.0027 1 -0.0012
f 784//784 785//785 786//786
v 30.6667 0.1461 45.3333
vn 0.0031 1 -0.0012
v 30.6667 0.1478 46.6667
vn 0.0031 1 -0.0012
v 32 0.1436 46.6667
vn 0.0031 1 -0.0012
f 787//787 788//788 789//789
v 30.6667 0.1461 45.3333
vn 0.003 1 -0.0011
v 32 0.1436 46.6667
vn 0.003 1 -0.0011
v 32 0.1421 45.3333
vn 0.003 1 -0.0011
f 790//790 791//791 792//792
v 16 0.0694 46.6667
vn -0.0031 1 -0.0005
v 16 0.0701 48
vn -0.0031 1 -0.0005
v 17.3333 0.0743 48
vn -0.0031 1 -0.0005
f 793//793 794//794 795//795
v 16 0.0694 46.6667
vn -0.003 1 -0.0006
v 17.3333 0.0743 48
vn -0.003 1 -0.0006
v 17.3333 0.0735 46.6667
vn -0.003 1 -0.0006
f 796//796 797//797 798//798
v 17.3333 0.0735 46.6667
vn 0.006 1 -0.0006
v 17.3333 0.0743 48
vn 0.006 1 -0.0006
v 18.6667 0.0663 48
vn 0.006 1 -0.0006
f 799//799 800//800 801//801
v 17.3333 0.0735 46.6667
vn 0.0061 1 -0.0007
v 18.6667 0.0663 48
vn 0.0061 1 -0.0007
v 18.6667 0.0654 46.6667
vn 0.0061 1 -0.0007
f 802//802 803//803 804//804
v 18.6667 0.0654 46.6667
vn 0.002 1 -0.0007
v 18.6667 0.0663 48
vn 0.002 1 -0.0007
v 20 0.0636 48
vn 0.002 1 -0.0007
f 805//805 806//806 807//807
v 18.6667 0.0654 46.6667
vn 0.0018 1 -0.0005
v 20 0.0636 48
vn 0.0018 1 -0.0005
v 20 0.063 46.6667
vn 0.0018 1 -0.0005
f 808//808 809//809 810//810
v 20 0.063 46.6667
vn 0.0006 1 -0.0005
v 20 0.0636 48
vn 0.0006 1 -0.0005
v 21.3333 0.0629 48
vn 0.0006 1 -0.0005
f 811//811 812//812 813//813
v 20 0.063 46.6667
vn 0.0008 1 -0.0008
v 21.3333 0.0629 48
vn 0.0008 1 -0.0008
v 21.3333 0.0618 46.6667
vn 0.0008 1 -0.0008
f 814//814 815//815 816//816
v 21.3333 0.0618 46.6667
vn -0.0195 0.9998 -0.0008
v 21.3333 0.0629 48
vn -0.0195 0.9998 -0.0008
v 22.6667 0.0889 48
vn -0.0195 0.9998 -0.0008
f 817//817 818//818 819//819
v 21.3333 0.0618 46.6667
vn -0.0191 0.9998 -0.0012
v 22.6667 0.0889 48
vn -0.0191 0.9998 -0.0012
v 22.6667 0.0873 46.6667
vn -0.0191 0.9998 -0.0012
f 820//820 821//821 822//822
v 22.6667 0.0873 46.6667
vn -0.0336 0.9994 -0.0012
v 22.6667 0.0889 48
vn -0.0336 0.9994 -0.0012
v 24 0.1337 48
vn -0.0336 0.9994 -0.0012
f 823//823 824//824 825//825
v 22.6667 0.0873 46.6667
vn -0.0335 0.9994 -0.0013
v 24 0.1337 48
vn -0.0335 0.9994 -0.0013
v 24 0.132 46.6667
vn -0.0335 0.9994 -0.0013
f 826//826 827//827 828//828
v 24 0.132 46.6667
vn -0.0072 1 -0.0013
v 24 0.1337 48
vn -0.0072 1 -0.0013
v 25.3333 0.1433 48
vn -0.0072 1 -0.0013
f 829//829 830//830 831//831
v 24 0.132 46.6667
vn -0.0072 1 -0.0014
v 25.3333 0.1433 48
vn -0.0072 1 -0.0014
v 25.3333 0.1415 46.6667
vn -0.0072 1 -0.0014
f 832//832 833//833 834//834
v 25.3333 0.1415 46.6667
vn -0.0002 1 -0.0014
v 25.3333 0.1433 48
vn -0.0002 1 -0.0014
v 26.6667 0.1436 48
vn -0.0002 1 -0.0014
f 835//835 836//836 837//837
v 25.3333 0.1415 46.6667
vn -0.0001 1 -0.0014
v 26.6667 0.1436 48
vn -0.0001 1 -0.0014
v 26.6667 0.1417 46.6667
vn -0.0001 1 -0.0014
f 838//838 839//839 840//840
v 26.6667 0.1417 46.6667
vn -0.0003 1 -0.0014
v 26.6667 0.1436 48
vn -0.0003 1 -0.0014
v 28 0.1439 48
vn -0.0003 1 -0.0014
f 841//841 842//842 843//843
v 26.6667 0.1417 46.6667
vn -0.0007 1 -0.001
v 28 0.1439 48
vn -0.0007 1 -0.001
v 28 0.1427 46.6667
vn -0.0007 1 -0.001
f 844//844 845//845 846//846
v 28 0.1427 46.6667
vn -0.0064 1 -0.001
v 28 0.1439 48
vn -0.0064 1 -0.001
v 29.3333 0.1525 48
vn -0.0064 1 -0.001
f 847//847 848//848 849//849
v 28 0.1427 46.6667
vn -0.0065 1 -0.0009
v 29.3333 0.1525 48
vn -0.0065 1 -0.0009
v 29.3333 0.1513 46.6667
vn -0.0065 1 -0.0009
f 850//850 851//851 852//852
v 29.3333 0.1513 46.6667
vn 0.0026 1 -0.0009
v 29.3333 0.1525 48
vn 0.0026 1 -0.0009
v 30.6667 0.1491 48
vn 0.0026 1 -0.0009
f 853//853 854//854 855//855
v 29.3333 0.1513 46.6667
vn 0.0027 1 -0.001
v 30.6667 0.1491 48
vn 0.0027 1 -0.001
v 30.6667 0.1478 46.6667
vn 0.0027 1 -0.001
f 856//856 857//857 858//858
v 30.6667 0.1478 46.6667
vn 0.0031 1 -0.001
v 30.6667 0.1491 48
vn 0.0031 1 -0.001
v 32 0.1449 48
vn 0.0031 1 -0.001
f 859//859 860//860 861//861
v 30.6667 0.1478 46.6667
vn 0.0031 1 -0.0009
v 32 0.1449 48
vn 0.0031 1 -0.0009
v 32 0.1436 46.6667
vn 0.0031 1 -0.0009
f 862//862 863//863 864//864
