# litt worldgen asset - generated by math only
# kit: template/tools/worldgen/
mtllib materials.mtl
o fog_gate
v 3.1 0 -0.14
v 3.1 3.1 -0.14
v 3.1 3.1 0.14
v 3.1 0 -0.14
v 3.1 3.1 0.14
v 3.1 0 0.14
v -3.1 0 -0.14
v -3.1 0 0.14
v -3.1 3.1 0.14
v -3.1 0 -0.14
v -3.1 3.1 0.14
v -3.1 3.1 -0.14
v 3.1 3.1 0.14
v 3.1 3.1 -0.14
v -3.1 3.1 -0.14
v 3.1 3.1 0.14
v -3.1 3.1 -0.14
v -3.1 3.1 0.14
v 3.1 0 -0.14
v 3.1 0 0.14
v -3.1 0 0.14
v 3.1 0 -0.14
v -3.1 0 0.14
v -3.1 0 -0.14
v 3.1 0 0.14
v 3.1 3.1 0.14
v -3.1 3.1 0.14
v 3.1 0 0.14
v -3.1 3.1 0.14
v -3.1 0 0.14
v 3.1 0 -0.14
v -3.1 0 -0.14
v -3.1 3.1 -0.14
v 3.1 0 -0.14
v -3.1 3.1 -0.14
v 3.1 3.1 -0.14
vt 0 -0.0196
vt 9.61 -0.0196
vt 9.61 0.0196
vt 0 -0.0196
vt 9.61 0.0196
vt 0 0.0196
vt 0 -0.0196
vt 0 0.0196
vt 9.61 0.0196
vt 0 -0.0196
vt 9.61 0.0196
vt 9.61 -0.0196
vt 9.61 0.0196
vt 9.61 -0.0196
vt -9.61 -0.0196
vt 9.61 0.0196
vt -9.61 -0.0196
vt -9.61 0.0196
vt 9.61 -0.0196
vt 9.61 0.0196
vt -9.61 0.0196
vt 9.61 -0.0196
vt -9.61 0.0196
vt -9.61 -0.0196
vt 9.61 0
vt 9.61 4.805
vt -9.61 4.805
vt 9.61 0
vt -9.61 4.805
vt -9.61 0
vt 9.61 0
vt -9.61 0
vt -9.61 4.805
vt 9.61 0
vt -9.61 4.805
vt 9.61 4.805
vn 1 0 0
vn 1 0 0
vn -1 0 0
vn -1 0 0
vn 0 1 0
vn 0 1 0
vn 0 -1 0
vn 0 -1 0
vn 0 -0 1
vn 0 0 1
vn 0 0 -1
vn 0 0 -1
g veil
usemtl fog_veil
1/1/1
2/2/1
3/3/1
4/4/2
5/5/2
6/6/2
7/7/3
8/8/3
9/9/3
10/10/4
11/11/4
12/12/4
13/13/5
14/14/5
15/15/5
16/16/6
17/17/6
18/18/6
19/19/7
20/20/7
21/21/7
22/22/8
23/23/8
24/24/8
25/25/9
26/26/9
27/27/9
28/28/10
29/29/10
30/30/10
31/31/11
32/32/11
33/33/11
34/34/12
35/35/12
36/36/12
