# litt worldgen asset - generated by math only
# kit: template/tools/worldgen/
mtllib void-station__materials.mtl
o derelict_station
v 2.1769 2.6 -2.1885
v 2.1769 5.4 -2.1885
v 2.1769 5.4 2.2115
v 2.1769 2.6 -2.1885
v 2.1769 5.4 2.2115
v 2.1769 2.6 2.2115
v -2.2231 2.6 -2.1885
v -2.2231 2.6 2.2115
v -2.2231 5.4 2.2115
v -2.2231 2.6 -2.1885
v -2.2231 5.4 2.2115
v -2.2231 5.4 -2.1885
v 2.1769 5.4 2.2115
v 2.1769 5.4 -2.1885
v -2.2231 5.4 -2.1885
v 2.1769 5.4 2.2115
v -2.2231 5.4 -2.1885
v -2.2231 5.4 2.2115
v 2.1769 2.6 -2.1885
v 2.1769 2.6 2.2115
v -2.2231 2.6 2.2115
v 2.1769 2.6 -2.1885
v -2.2231 2.6 2.2115
v -2.2231 2.6 -2.1885
v 2.1769 2.6 2.2115
v 2.1769 5.4 2.2115
v -2.2231 5.4 2.2115
v 2.1769 2.6 2.2115
v -2.2231 5.4 2.2115
v -2.2231 2.6 2.2115
v 2.1769 2.6 -2.1885
v -2.2231 2.6 -2.1885
v -2.2231 5.4 -2.1885
v 2.1769 2.6 -2.1885
v -2.2231 5.4 -2.1885
v 2.1769 5.4 -2.1885
v -0.6231 5.1 0.1115
v -0.6231 6.1 0.1115
v -0.6231 6.1 1.7115
v -0.6231 5.1 0.1115
v -0.6231 6.1 1.7115
v -0.6231 5.1 1.7115
v -2.2231 5.1 0.1115
v -2.2231 5.1 1.7115
v -2.2231 6.1 1.7115
v -2.2231 5.1 0.1115
v -2.2231 6.1 1.7115
v -2.2231 6.1 0.1115
v -0.6231 6.1 1.7115
v -0.6231 6.1 0.1115
v -2.2231 6.1 0.1115
v -0.6231 6.1 1.7115
v -2.2231 6.1 0.1115
v -2.2231 6.1 1.7115
v -0.6231 5.1 0.1115
v -0.6231 5.1 1.7115
v -2.2231 5.1 1.7115
v -0.6231 5.1 0.1115
v -2.2231 5.1 1.7115
v -2.2231 5.1 0.1115
v -0.6231 5.1 1.7115
v -0.6231 6.1 1.7115
v -2.2231 6.1 1.7115
v -0.6231 5.1 1.7115
v -2.2231 6.1 1.7115
v -2.2231 5.1 1.7115
v -0.6231 5.1 0.1115
v -2.2231 5.1 0.1115
v -2.2231 6.1 0.1115
v -0.6231 5.1 0.1115
v -2.2231 6.1 0.1115
v -0.6231 6.1 0.1115
v 2.1769 2.2 -1.5885
v 2.1769 3 -1.5885
v 2.1769 3 -0.3885
v 2.1769 2.2 -1.5885
v 2.1769 3 -0.3885
v 2.1769 2.2 -0.3885
v 0.9769 2.2 -1.5885
v 0.9769 2.2 -0.3885
v 0.9769 3 -0.3885
v 0.9769 2.2 -1.5885
v 0.9769 3 -0.3885
v 0.9769 3 -1.5885
v 2.1769 3 -0.3885
v 2.1769 3 -1.5885
v 0.9769 3 -1.5885
v 2.1769 3 -0.3885
v 0.9769 3 -1.5885
v 0.9769 3 -0.3885
v 2.1769 2.2 -1.5885
v 2.1769 2.2 -0.3885
v 0.9769 2.2 -0.3885
v 2.1769 2.2 -1.5885
v 0.9769 2.2 -0.3885
v 0.9769 2.2 -1.5885
v 2.1769 2.2 -0.3885
v 2.1769 3 -0.3885
v 0.9769 3 -0.3885
v 2.1769 2.2 -0.3885
v 0.9769 3 -0.3885
v 0.9769 2.2 -0.3885
v 2.1769 2.2 -1.5885
v 0.9769 2.2 -1.5885
v 0.9769 3 -1.5885
v 2.1769 2.2 -1.5885
v 0.9769 3 -1.5885
v 2.1769 3 -1.5885
v 3.3769 3.85 0.0115
v 3.3769 4.15 0.0115
v 3.0402 4.15 1.4867
v 3.3769 3.85 0.0115
v 3.0402 4.15 1.4867
v 3.0402 3.85 1.4867
v -0.0231 4.15 0.0115
v 3.0402 4.15 1.4867
v 3.3769 4.15 0.0115
v -0.0231 3.85 0.0115
v 3.3769 3.85 0.0115
v 3.0402 3.85 1.4867
v 3.0402 3.85 1.4867
v 3.0402 4.15 1.4867
v 2.0968 4.15 2.6698
v 3.0402 3.85 1.4867
v 2.0968 4.15 2.6698
v 2.0968 3.85 2.6698
v -0.0231 4.15 0.0115
v 2.0968 4.15 2.6698
v 3.0402 4.15 1.4867
v -0.0231 3.85 0.0115
v 3.0402 3.85 1.4867
v 2.0968 3.85 2.6698
v 2.0968 3.85 2.6698
v 2.0968 4.15 2.6698
v 0.7335 4.15 3.3263
v 2.0968 3.85 2.6698
v 0.7335 4.15 3.3263
v 0.7335 3.85 3.3263
v -0.0231 4.15 0.0115
v 0.7335 4.15 3.3263
v 2.0968 4.15 2.6698
v -0.0231 3.85 0.0115
v 2.0968 3.85 2.6698
v 0.7335 3.85 3.3263
v 0.7335 3.85 3.3263
v 0.7335 4.15 3.3263
v -0.7796 4.15 3.3263
v 0.7335 3.85 3.3263
v -0.7796 4.15 3.3263
v -0.7796 3.85 3.3263
v -0.0231 4.15 0.0115
v -0.7796 4.15 3.3263
v 0.7335 4.15 3.3263
v -0.0231 3.85 0.0115
v 0.7335 3.85 3.3263
v -0.7796 3.85 3.3263
v -0.7796 3.85 3.3263
v -0.7796 4.15 3.3263
v -2.1429 4.15 2.6698
v -0.7796 3.85 3.3263
v -2.1429 4.15 2.6698
v -2.1429 3.85 2.6698
v -0.0231 4.15 0.0115
v -2.1429 4.15 2.6698
v -0.7796 4.15 3.3263
v -0.0231 3.85 0.0115
v -0.7796 3.85 3.3263
v -2.1429 3.85 2.6698
v -2.1429 3.85 2.6698
v -2.1429 4.15 2.6698
v -3.0864 4.15 1.4867
v -2.1429 3.85 2.6698
v -3.0864 4.15 1.4867
v -3.0864 3.85 1.4867
v -0.0231 4.15 0.0115
v -3.0864 4.15 1.4867
v -2.1429 4.15 2.6698
v -0.0231 3.85 0.0115
v -2.1429 3.85 2.6698
v -3.0864 3.85 1.4867
v -3.0864 3.85 1.4867
v -3.0864 4.15 1.4867
v -3.4231 4.15 0.0115
v -3.0864 3.85 1.4867
v -3.4231 4.15 0.0115
v -3.4231 3.85 0.0115
v -0.0231 4.15 0.0115
v -3.4231 4.15 0.0115
v -3.0864 4.15 1.4867
v -0.0231 3.85 0.0115
v -3.0864 3.85 1.4867
v -3.4231 3.85 0.0115
v -3.4231 3.85 0.0115
v -3.4231 4.15 0.0115
v -3.0864 4.15 -1.4637
v -3.4231 3.85 0.0115
v -3.0864 4.15 -1.4637
v -3.0864 3.85 -1.4637
v -0.0231 4.15 0.0115
v -3.0864 4.15 -1.4637
v -3.4231 4.15 0.0115
v -0.0231 3.85 0.0115
v -3.4231 3.85 0.0115
v -3.0864 3.85 -1.4637
v -3.0864 3.85 -1.4637
v -3.0864 4.15 -1.4637
v -2.1429 4.15 -2.6467
v -3.0864 3.85 -1.4637
v -2.1429 4.15 -2.6467
v -2.1429 3.85 -2.6467
v -0.0231 4.15 0.0115
v -2.1429 4.15 -2.6467
v -3.0864 4.15 -1.4637
v -0.0231 3.85 0.0115
v -3.0864 3.85 -1.4637
v -2.1429 3.85 -2.6467
v -2.1429 3.85 -2.6467
v -2.1429 4.15 -2.6467
v -0.7796 4.15 -3.3032
v -2.1429 3.85 -2.6467
v -0.7796 4.15 -3.3032
v -0.7796 3.85 -3.3032
v -0.0231 4.15 0.0115
v -0.7796 4.15 -3.3032
v -2.1429 4.15 -2.6467
v -0.0231 3.85 0.0115
v -2.1429 3.85 -2.6467
v -0.7796 3.85 -3.3032
v -0.7796 3.85 -3.3032
v -0.7796 4.15 -3.3032
v 0.7335 4.15 -3.3032
v -0.7796 3.85 -3.3032
v 0.7335 4.15 -3.3032
v 0.7335 3.85 -3.3032
v -0.0231 4.15 0.0115
v 0.7335 4.15 -3.3032
v -0.7796 4.15 -3.3032
v -0.0231 3.85 0.0115
v -0.7796 3.85 -3.3032
v 0.7335 3.85 -3.3032
v 0.7335 3.85 -3.3032
v 0.7335 4.15 -3.3032
v 2.0968 4.15 -2.6467
v 0.7335 3.85 -3.3032
v 2.0968 4.15 -2.6467
v 2.0968 3.85 -2.6467
v -0.0231 4.15 0.0115
v 2.0968 4.15 -2.6467
v 0.7335 4.15 -3.3032
v -0.0231 3.85 0.0115
v 0.7335 3.85 -3.3032
v 2.0968 3.85 -2.6467
v 2.0968 3.85 -2.6467
v 2.0968 4.15 -2.6467
v 3.0402 4.15 -1.4637
v 2.0968 3.85 -2.6467
v 3.0402 4.15 -1.4637
v 3.0402 3.85 -1.4637
v -0.0231 4.15 0.0115
v 3.0402 4.15 -1.4637
v 2.0968 4.15 -2.6467
v -0.0231 3.85 0.0115
v 2.0968 3.85 -2.6467
v 3.0402 3.85 -1.4637
v 3.0402 3.85 -1.4637
v 3.0402 4.15 -1.4637
v 3.3769 4.15 0.0115
v 3.0402 3.85 -1.4637
v 3.3769 4.15 0.0115
v 3.3769 3.85 0.0115
v -0.0231 4.15 0.0115
v 3.3769 4.15 0.0115
v 3.0402 4.15 -1.4637
v -0.0231 3.85 0.0115
v 3.0402 3.85 -1.4637
v 3.3769 3.85 0.0115
v 0.0769 5.4 0.0115
v -0.0231 8 0.0115
v 0.0269 5.4 0.0981
v -0.0231 5.4 0.0115
v 0.0769 5.4 0.0115
v 0.0269 5.4 0.0981
v 0.0269 5.4 0.0981
v -0.0231 8 0.0115
v -0.0731 5.4 0.0981
v -0.0231 5.4 0.0115
v 0.0269 5.4 0.0981
v -0.0731 5.4 0.0981
v -0.0731 5.4 0.0981
v -0.0231 8 0.0115
v -0.1231 5.4 0.0115
v -0.0231 5.4 0.0115
v -0.0731 5.4 0.0981
v -0.1231 5.4 0.0115
v -0.1231 5.4 0.0115
v -0.0231 8 0.0115
v -0.0731 5.4 -0.0751
v -0.0231 5.4 0.0115
v -0.1231 5.4 0.0115
v -0.0731 5.4 -0.0751
v -0.0731 5.4 -0.0751
v -0.0231 8 0.0115
v 0.0269 5.4 -0.0751
v -0.0231 5.4 0.0115
v -0.0731 5.4 -0.0751
v 0.0269 5.4 -0.0751
v 0.0269 5.4 -0.0751
v -0.0231 8 0.0115
v 0.0769 5.4 0.0115
v -0.0231 5.4 0.0115
v 0.0269 5.4 -0.0751
v 0.0769 5.4 0.0115
vn 1 0 0
vn 1 0 0
vn -1 0 0
vn -1 0 0
vn 0 1 0
vn 0 1 0
vn 0 -1 0
vn 0 -1 0
vn 0 -0 1
vn 0 0 1
vn 0 0 -1
vn 0 0 -1
vn 1 0 0
vn 1 0 0
vn -1 0 0
vn -1 0 0
vn 0 1 0
vn 0 1 0
vn 0 -1 0
vn 0 -1 0
vn 0 -0 1
vn 0 0 1
vn 0 0 -1
vn 0 0 -1
vn 1 0 0
vn 1 0 0
vn -1 0 0
vn -1 0 0
vn 0 1 0
vn 0 1 0
vn 0 -1 0
vn 0 -1 0
vn 0 -0 1
vn 0 0 1
vn 0 0 -1
vn 0 0 -1
vn 0.9749 -0 0.2225
vn 0.9749 0 0.2225
vn 0 1 0
vn 0 -1 0
vn 0.7818 -0 0.6235
vn 0.7818 0 0.6235
vn 0 1 0
vn 0 -1 0
vn 0.4339 -0 0.901
vn 0.4339 0 0.901
vn 0 1 0
vn 0 -1 0
vn 0 -0 1
vn 0 0 1
vn 0 1 -0
vn 0 -1 0
vn -0.4339 0 0.901
vn -0.4339 0 0.901
vn 0 1 0
vn 0 -1 0
vn -0.7818 0 0.6235
vn -0.7818 0 0.6235
vn 0 1 0
vn 0 -1 0
vn -0.9749 0 0.2225
vn -0.9749 0 0.2225
vn 0 1 0
vn 0 -1 0
vn -0.9749 0 -0.2225
vn -0.9749 0 -0.2225
vn 0 1 0
vn -0 -1 0
vn -0.7818 0 -0.6235
vn -0.7818 0 -0.6235
vn 0 1 0
vn 0 -1 0
vn -0.4339 0 -0.901
vn -0.4339 0 -0.901
vn 0 1 0
vn 0 -1 0
vn -0 0 -1
vn -0 0 -1
vn 0 1 0
vn 0 -1 -0
vn 0.4339 0 -0.901
vn 0.4339 0 -0.901
vn 0 1 0
vn 0 -1 0
vn 0.7818 0 -0.6235
vn 0.7818 0 -0.6235
vn 0 1 0
vn 0 -1 0
vn 0.9749 0 -0.2225
vn 0.9749 0 -0.2225
vn -0 1 0
vn 0 -1 0
vn 0.8655 0.0333 0.4997
vn 0 -1 0
vn 0 0.0333 0.9994
vn 0 -1 0
vn -0.8655 0.0333 0.4997
vn 0 -1 0
vn -0.8655 0.0333 -0.4997
vn -0 -1 0
vn -0 0.0333 -0.9994
vn 0 -1 -0
vn 0.8655 0.0333 -0.4997
vn 0 -1 0
g core
usemtl hull_steel
f 1//1 2//1 3//1
f 4//2 5//2 6//2
f 7//3 8//3 9//3
f 10//4 11//4 12//4
f 13//5 14//5 15//5
f 16//6 17//6 18//6
f 19//7 20//7 21//7
f 22//8 23//8 24//8
f 25//9 26//9 27//9
f 28//10 29//10 30//10
f 31//11 32//11 33//11
f 34//12 35//12 36//12
g greeble
usemtl hull_oxide
f 37//13 38//13 39//13
f 40//14 41//14 42//14
f 43//15 44//15 45//15
f 46//16 47//16 48//16
f 49//17 50//17 51//17
f 52//18 53//18 54//18
f 55//19 56//19 57//19
f 58//20 59//20 60//20
f 61//21 62//21 63//21
f 64//22 65//22 66//22
f 67//23 68//23 69//23
f 70//24 71//24 72//24
f 73//25 74//25 75//25
f 76//26 77//26 78//26
f 79//27 80//27 81//27
f 82//28 83//28 84//28
f 85//29 86//29 87//29
f 88//30 89//30 90//30
f 91//31 92//31 93//31
f 94//32 95//32 96//32
f 97//33 98//33 99//33
f 100//34 101//34 102//34
f 103//35 104//35 105//35
f 106//36 107//36 108//36
g ring
usemtl antenna_grey
f 109//37 110//37 111//37
f 112//38 113//38 114//38
f 115//39 116//39 117//39
f 118//40 119//40 120//40
f 121//41 122//41 123//41
f 124//42 125//42 126//42
f 127//43 128//43 129//43
f 130//44 131//44 132//44
f 133//45 134//45 135//45
f 136//46 137//46 138//46
f 139//47 140//47 141//47
f 142//48 143//48 144//48
f 145//49 146//49 147//49
f 148//50 149//50 150//50
f 151//51 152//51 153//51
f 154//52 155//52 156//52
f 157//53 158//53 159//53
f 160//54 161//54 162//54
f 163//55 164//55 165//55
f 166//56 167//56 168//56
f 169//57 170//57 171//57
f 172//58 173//58 174//58
f 175//59 176//59 177//59
f 178//60 179//60 180//60
f 181//61 182//61 183//61
f 184//62 185//62 186//62
f 187//63 188//63 189//63
f 190//64 191//64 192//64
f 193//65 194//65 195//65
f 196//66 197//66 198//66
f 199//67 200//67 201//67
f 202//68 203//68 204//68
f 205//69 206//69 207//69
f 208//70 209//70 210//70
f 211//71 212//71 213//71
f 214//72 215//72 216//72
f 217//73 218//73 219//73
f 220//74 221//74 222//74
f 223//75 224//75 225//75
f 226//76 227//76 228//76
f 229//77 230//77 231//77
f 232//78 233//78 234//78
f 235//79 236//79 237//79
f 238//80 239//80 240//80
f 241//81 242//81 243//81
f 244//82 245//82 246//82
f 247//83 248//83 249//83
f 250//84 251//84 252//84
f 253//85 254//85 255//85
f 256//86 257//86 258//86
f 259//87 260//87 261//87
f 262//88 263//88 264//88
f 265//89 266//89 267//89
f 268//90 269//90 270//90
f 271//91 272//91 273//91
f 274//92 275//92 276//92
g mast
usemtl antenna_grey
f 277//93 278//93 279//93
f 280//94 281//94 282//94
f 283//95 284//95 285//95
f 286//96 287//96 288//96
f 289//97 290//97 291//97
f 292//98 293//98 294//98
f 295//99 296//99 297//99
f 298//100 299//100 300//100
f 301//101 302//101 303//101
f 304//102 305//102 306//102
f 307//103 308//103 309//103
f 310//104 311//104 312//104
