# litt worldgen asset - generated by math only
# kit: template/tools/worldgen/
mtllib void-station__materials.mtl
o star
v 0 0.26 0
v 0 0.12 0.14
v 0.14 0.12 0
v 0 -0.02 0
v 0.14 0.12 0
v 0 0.12 0.14
v 0 0.26 0
v -0.14 0.12 0
v 0 0.12 0.14
v 0 -0.02 0
v 0 0.12 0.14
v -0.14 0.12 0
v 0 0.26 0
v 0 0.12 -0.14
v -0.14 0.12 0
v 0 -0.02 0
v -0.14 0.12 0
v 0 0.12 -0.14
v 0 0.26 0
v 0.14 0.12 0
v 0 0.12 -0.14
v 0 -0.02 0
v 0 0.12 -0.14
v 0.14 0.12 0
vn 0.5774 0.5774 0.5774
vn 0.5774 -0.5774 0.5774
vn -0.5774 0.5774 0.5774
vn -0.5774 -0.5774 0.5774
vn -0.5774 0.5774 -0.5774
vn -0.5774 -0.5774 -0.5774
vn 0.5774 0.5774 -0.5774
vn 0.5774 -0.5774 -0.5774
g glint
usemtl star_white
f 1//1 2//1 3//1
f 4//2 5//2 6//2
f 7//3 8//3 9//3
f 10//4 11//4 12//4
f 13//5 14//5 15//5
f 16//6 17//6 18//6
f 19//7 20//7 21//7
f 22//8 23//8 24//8
