# litt worldgen asset - generated by math only
# kit: template/tools/worldgen/
mtllib materials.mtl
o layout_main
v 70 -1 -6
v 70 0 -6
v 70 0 6
v 70 -1 -6
v 70 0 6
v 70 -1 6
v 0 -1 -6
v 0 -1 6
v 0 0 6
v 0 -1 -6
v 0 0 6
v 0 0 -6
v 70 0 6
v 70 0 -6
v 0 0 -6
v 70 0 6
v 0 0 -6
v 0 0 6
v 70 -1 -6
v 70 -1 6
v 0 -1 6
v 70 -1 -6
v 0 -1 6
v 0 -1 -6
v 70 -1 6
v 70 0 6
v 0 0 6
v 70 -1 6
v 0 0 6
v 0 -1 6
v 70 -1 -6
v 0 -1 -6
v 0 0 -6
v 70 -1 -6
v 0 0 -6
v 70 0 -6
v 70 0 -3.9
v 70 3 -3.9
v 70 3 -2.7
v 70 0 -3.9
v 70 3 -2.7
v 70 0 -2.7
v 0 0 -3.9
v 0 0 -2.7
v 0 3 -2.7
v 0 0 -3.9
v 0 3 -2.7
v 0 3 -3.9
v 70 3 -2.7
v 70 3 -3.9
v 0 3 -3.9
v 70 3 -2.7
v 0 3 -3.9
v 0 3 -2.7
v 70 0 -3.9
v 70 0 -2.7
v 0 0 -2.7
v 70 0 -3.9
v 0 0 -2.7
v 0 0 -3.9
v 70 0 -2.7
v 70 3 -2.7
v 0 3 -2.7
v 70 0 -2.7
v 0 3 -2.7
v 0 0 -2.7
v 70 0 -3.9
v 0 0 -3.9
v 0 3 -3.9
v 70 0 -3.9
v 0 3 -3.9
v 70 3 -3.9
v 70 0 2.7
v 70 3 2.7
v 70 3 3.9
v 70 0 2.7
v 70 3 3.9
v 70 0 3.9
v 0 0 2.7
v 0 0 3.9
v 0 3 3.9
v 0 0 2.7
v 0 3 3.9
v 0 3 2.7
v 70 3 3.9
v 70 3 2.7
v 0 3 2.7
v 70 3 3.9
v 0 3 2.7
v 0 3 3.9
v 70 0 2.7
v 70 0 3.9
v 0 0 3.9
v 70 0 2.7
v 0 0 3.9
v 0 0 2.7
v 70 0 3.9
v 70 3 3.9
v 0 3 3.9
v 70 0 3.9
v 0 3 3.9
v 0 0 3.9
v 70 0 2.7
v 0 0 2.7
v 0 3 2.7
v 70 0 2.7
v 0 3 2.7
v 70 3 2.7
v 5.65 0 -1.25
v 5.65 1.4 -1.25
v 5.65 1.4 1.95
v 5.65 0 -1.25
v 5.65 1.4 1.95
v 5.65 0 1.95
v 4.05 0 -1.25
v 4.05 0 1.95
v 4.05 1.4 1.95
v 4.05 0 -1.25
v 4.05 1.4 1.95
v 4.05 1.4 -1.25
v 5.65 1.4 1.95
v 5.65 1.4 -1.25
v 4.05 1.4 -1.25
v 5.65 1.4 1.95
v 4.05 1.4 -1.25
v 4.05 1.4 1.95
v 5.65 0 -1.25
v 5.65 0 1.95
v 4.05 0 1.95
v 5.65 0 -1.25
v 4.05 0 1.95
v 4.05 0 -1.25
v 5.65 0 1.95
v 5.65 1.4 1.95
v 4.05 1.4 1.95
v 5.65 0 1.95
v 4.05 1.4 1.95
v 4.05 0 1.95
v 5.65 0 -1.25
v 4.05 0 -1.25
v 4.05 1.4 -1.25
v 5.65 0 -1.25
v 4.05 1.4 -1.25
v 5.65 1.4 -1.25
v 12.08 0.5 -0.52
v 11.58 1.5 -0.52
v 11.83 0.5 -0.087
v 11.58 0.5 -0.52
v 12.08 0.5 -0.52
v 11.83 0.5 -0.087
v 11.83 0.5 -0.087
v 11.58 1.5 -0.52
v 11.33 0.5 -0.087
v 11.58 0.5 -0.52
v 11.83 0.5 -0.087
v 11.33 0.5 -0.087
v 11.33 0.5 -0.087
v 11.58 1.5 -0.52
v 11.08 0.5 -0.52
v 11.58 0.5 -0.52
v 11.33 0.5 -0.087
v 11.08 0.5 -0.52
v 11.08 0.5 -0.52
v 11.58 1.5 -0.52
v 11.33 0.5 -0.953
v 11.58 0.5 -0.52
v 11.08 0.5 -0.52
v 11.33 0.5 -0.953
v 11.33 0.5 -0.953
v 11.58 1.5 -0.52
v 11.83 0.5 -0.953
v 11.58 0.5 -0.52
v 11.33 0.5 -0.953
v 11.83 0.5 -0.953
v 11.83 0.5 -0.953
v 11.58 1.5 -0.52
v 12.08 0.5 -0.52
v 11.58 0.5 -0.52
v 11.83 0.5 -0.953
v 12.08 0.5 -0.52
v 21.82 0 -1.26
v 21.82 1.4 -1.26
v 21.82 1.4 1.94
v 21.82 0 -1.26
v 21.82 1.4 1.94
v 21.82 0 1.94
v 20.22 0 -1.26
v 20.22 0 1.94
v 20.22 1.4 1.94
v 20.22 0 -1.26
v 20.22 1.4 1.94
v 20.22 1.4 -1.26
v 21.82 1.4 1.94
v 21.82 1.4 -1.26
v 20.22 1.4 -1.26
v 21.82 1.4 1.94
v 20.22 1.4 -1.26
v 20.22 1.4 1.94
v 21.82 0 -1.26
v 21.82 0 1.94
v 20.22 0 1.94
v 21.82 0 -1.26
v 20.22 0 1.94
v 20.22 0 -1.26
v 21.82 0 1.94
v 21.82 1.4 1.94
v 20.22 1.4 1.94
v 21.82 0 1.94
v 20.22 1.4 1.94
v 20.22 0 1.94
v 21.82 0 -1.26
v 20.22 0 -1.26
v 20.22 1.4 -1.26
v 21.82 0 -1.26
v 20.22 1.4 -1.26
v 21.82 1.4 -1.26
v 26.36 0.5 0.19
v 25.86 1.5 0.19
v 26.11 0.5 0.623
v 25.86 0.5 0.19
v 26.36 0.5 0.19
v 26.11 0.5 0.623
v 26.11 0.5 0.623
v 25.86 1.5 0.19
v 25.61 0.5 0.623
v 25.86 0.5 0.19
v 26.11 0.5 0.623
v 25.61 0.5 0.623
v 25.61 0.5 0.623
v 25.86 1.5 0.19
v 25.36 0.5 0.19
v 25.86 0.5 0.19
v 25.61 0.5 0.623
v 25.36 0.5 0.19
v 25.36 0.5 0.19
v 25.86 1.5 0.19
v 25.61 0.5 -0.243
v 25.86 0.5 0.19
v 25.36 0.5 0.19
v 25.61 0.5 -0.243
v 25.61 0.5 -0.243
v 25.86 1.5 0.19
v 26.11 0.5 -0.243
v 25.86 0.5 0.19
v 25.61 0.5 -0.243
v 26.11 0.5 -0.243
v 26.11 0.5 -0.243
v 25.86 1.5 0.19
v 26.36 0.5 0.19
v 25.86 0.5 0.19
v 26.11 0.5 -0.243
v 26.36 0.5 0.19
v 34.91 0 -0.03
v 34.91 1.4 -0.03
v 34.91 1.4 3.17
v 34.91 0 -0.03
v 34.91 1.4 3.17
v 34.91 0 3.17
v 33.31 0 -0.03
v 33.31 0 3.17
v 33.31 1.4 3.17
v 33.31 0 -0.03
v 33.31 1.4 3.17
v 33.31 1.4 -0.03
v 34.91 1.4 3.17
v 34.91 1.4 -0.03
v 33.31 1.4 -0.03
v 34.91 1.4 3.17
v 33.31 1.4 -0.03
v 33.31 1.4 3.17
v 34.91 0 -0.03
v 34.91 0 3.17
v 33.31 0 3.17
v 34.91 0 -0.03
v 33.31 0 3.17
v 33.31 0 -0.03
v 34.91 0 3.17
v 34.91 1.4 3.17
v 33.31 1.4 3.17
v 34.91 0 3.17
v 33.31 1.4 3.17
v 33.31 0 3.17
v 34.91 0 -0.03
v 33.31 0 -0.03
v 33.31 1.4 -0.03
v 34.91 0 -0.03
v 33.31 1.4 -0.03
v 34.91 1.4 -0.03
v 40.92 0.5 0.68
v 40.42 1.5 0.68
v 40.67 0.5 1.113
v 40.42 0.5 0.68
v 40.92 0.5 0.68
v 40.67 0.5 1.113
v 40.67 0.5 1.113
v 40.42 1.5 0.68
v 40.17 0.5 1.113
v 40.42 0.5 0.68
v 40.67 0.5 1.113
v 40.17 0.5 1.113
v 40.17 0.5 1.113
v 40.42 1.5 0.68
v 39.92 0.5 0.68
v 40.42 0.5 0.68
v 40.17 0.5 1.113
v 39.92 0.5 0.68
v 39.92 0.5 0.68
v 40.42 1.5 0.68
v 40.17 0.5 0.247
v 40.42 0.5 0.68
v 39.92 0.5 0.68
v 40.17 0.5 0.247
v 40.17 0.5 0.247
v 40.42 1.5 0.68
v 40.67 0.5 0.247
v 40.42 0.5 0.68
v 40.17 0.5 0.247
v 40.67 0.5 0.247
v 40.67 0.5 0.247
v 40.42 1.5 0.68
v 40.92 0.5 0.68
v 40.42 0.5 0.68
v 40.67 0.5 0.247
v 40.92 0.5 0.68
v 48.17 0 -3.16
v 48.17 1.4 -3.16
v 48.17 1.4 0.04
v 48.17 0 -3.16
v 48.17 1.4 0.04
v 48.17 0 0.04
v 46.57 0 -3.16
v 46.57 0 0.04
v 46.57 1.4 0.04
v 46.57 0 -3.16
v 46.57 1.4 0.04
v 46.57 1.4 -3.16
v 48.17 1.4 0.04
v 48.17 1.4 -3.16
v 46.57 1.4 -3.16
v 48.17 1.4 0.04
v 46.57 1.4 -3.16
v 46.57 1.4 0.04
v 48.17 0 -3.16
v 48.17 0 0.04
v 46.57 0 0.04
v 48.17 0 -3.16
v 46.57 0 0.04
v 46.57 0 -3.16
v 48.17 0 0.04
v 48.17 1.4 0.04
v 46.57 1.4 0.04
v 48.17 0 0.04
v 46.57 1.4 0.04
v 46.57 0 0.04
v 48.17 0 -3.16
v 46.57 0 -3.16
v 46.57 1.4 -3.16
v 48.17 0 -3.16
v 46.57 1.4 -3.16
v 48.17 1.4 -3.16
v 55.07 0 -0.06
v 55.07 1.4 -0.06
v 55.07 1.4 3.14
v 55.07 0 -0.06
v 55.07 1.4 3.14
v 55.07 0 3.14
v 53.47 0 -0.06
v 53.47 0 3.14
v 53.47 1.4 3.14
v 53.47 0 -0.06
v 53.47 1.4 3.14
v 53.47 1.4 -0.06
v 55.07 1.4 3.14
v 55.07 1.4 -0.06
v 53.47 1.4 -0.06
v 55.07 1.4 3.14
v 53.47 1.4 -0.06
v 53.47 1.4 3.14
v 55.07 0 -0.06
v 55.07 0 3.14
v 53.47 0 3.14
v 55.07 0 -0.06
v 53.47 0 3.14
v 53.47 0 -0.06
v 55.07 0 3.14
v 55.07 1.4 3.14
v 53.47 1.4 3.14
v 55.07 0 3.14
v 53.47 1.4 3.14
v 53.47 0 3.14
v 55.07 0 -0.06
v 53.47 0 -0.06
v 53.47 1.4 -0.06
v 55.07 0 -0.06
v 53.47 1.4 -0.06
v 55.07 1.4 -0.06
v 63.03 0 -0.66
v 63.03 1.4 -0.66
v 63.03 1.4 2.54
v 63.03 0 -0.66
v 63.03 1.4 2.54
v 63.03 0 2.54
v 61.43 0 -0.66
v 61.43 0 2.54
v 61.43 1.4 2.54
v 61.43 0 -0.66
v 61.43 1.4 2.54
v 61.43 1.4 -0.66
v 63.03 1.4 2.54
v 63.03 1.4 -0.66
v 61.43 1.4 -0.66
v 63.03 1.4 2.54
v 61.43 1.4 -0.66
v 61.43 1.4 2.54
v 63.03 0 -0.66
v 63.03 0 2.54
v 61.43 0 2.54
v 63.03 0 -0.66
v 61.43 0 2.54
v 61.43 0 -0.66
v 63.03 0 2.54
v 63.03 1.4 2.54
v 61.43 1.4 2.54
v 63.03 0 2.54
v 61.43 1.4 2.54
v 61.43 0 2.54
v 63.03 0 -0.66
v 61.43 0 -0.66
v 61.43 1.4 -0.66
v 63.03 0 -0.66
v 61.43 1.4 -0.66
v 63.03 1.4 -0.66
v 68.25 0.5 -1.23
v 67.75 1.5 -1.23
v 68 0.5 -0.797
v 67.75 0.5 -1.23
v 68.25 0.5 -1.23
v 68 0.5 -0.797
v 68 0.5 -0.797
v 67.75 1.5 -1.23
v 67.5 0.5 -0.797
v 67.75 0.5 -1.23
v 68 0.5 -0.797
v 67.5 0.5 -0.797
v 67.5 0.5 -0.797
v 67.75 1.5 -1.23
v 67.25 0.5 -1.23
v 67.75 0.5 -1.23
v 67.5 0.5 -0.797
v 67.25 0.5 -1.23
v 67.25 0.5 -1.23
v 67.75 1.5 -1.23
v 67.5 0.5 -1.663
v 67.75 0.5 -1.23
v 67.25 0.5 -1.23
v 67.5 0.5 -1.663
v 67.5 0.5 -1.663
v 67.75 1.5 -1.23
v 68 0.5 -1.663
v 67.75 0.5 -1.23
v 67.5 0.5 -1.663
v 68 0.5 -1.663
v 68 0.5 -1.663
v 67.75 1.5 -1.23
v 68.25 0.5 -1.23
v 67.75 0.5 -1.23
v 68 0.5 -1.663
v 68.25 0.5 -1.23
v 5 1.42 0
v 5 1.2 0.22
v 5.22 1.2 0
v 5 0.98 0
v 5.22 1.2 0
v 5 1.2 0.22
v 5 1.42 0
v 4.78 1.2 0
v 5 1.2 0.22
v 5 0.98 0
v 5 1.2 0.22
v 4.78 1.2 0
v 5 1.42 0
v 5 1.2 -0.22
v 4.78 1.2 0
v 5 0.98 0
v 4.78 1.2 0
v 5 1.2 -0.22
v 5 1.42 0
v 5.22 1.2 0
v 5 1.2 -0.22
v 5 0.98 0
v 5 1.2 -0.22
v 5.22 1.2 0
v 11.6667 1.42 0
v 11.6667 1.2 0.22
v 11.8867 1.2 0
v 11.6667 0.98 0
v 11.8867 1.2 0
v 11.6667 1.2 0.22
v 11.6667 1.42 0
v 11.4467 1.2 0
v 11.6667 1.2 0.22
v 11.6667 0.98 0
v 11.6667 1.2 0.22
v 11.4467 1.2 0
v 11.6667 1.42 0
v 11.6667 1.2 -0.22
v 11.4467 1.2 0
v 11.6667 0.98 0
v 11.4467 1.2 0
v 11.6667 1.2 -0.22
v 11.6667 1.42 0
v 11.8867 1.2 0
v 11.6667 1.2 -0.22
v 11.6667 0.98 0
v 11.6667 1.2 -0.22
v 11.8867 1.2 0
v 18.3333 1.42 0
v 18.3333 1.2 0.22
v 18.5533 1.2 0
v 18.3333 0.98 0
v 18.5533 1.2 0
v 18.3333 1.2 0.22
v 18.3333 1.42 0
v 18.1133 1.2 0
v 18.3333 1.2 0.22
v 18.3333 0.98 0
v 18.3333 1.2 0.22
v 18.1133 1.2 0
v 18.3333 1.42 0
v 18.3333 1.2 -0.22
v 18.1133 1.2 0
v 18.3333 0.98 0
v 18.1133 1.2 0
v 18.3333 1.2 -0.22
v 18.3333 1.42 0
v 18.5533 1.2 0
v 18.3333 1.2 -0.22
v 18.3333 0.98 0
v 18.3333 1.2 -0.22
v 18.5533 1.2 0
v 25 1.42 0
v 25 1.2 0.22
v 25.22 1.2 0
v 25 0.98 0
v 25.22 1.2 0
v 25 1.2 0.22
v 25 1.42 0
v 24.78 1.2 0
v 25 1.2 0.22
v 25 0.98 0
v 25 1.2 0.22
v 24.78 1.2 0
v 25 1.42 0
v 25 1.2 -0.22
v 24.78 1.2 0
v 25 0.98 0
v 24.78 1.2 0
v 25 1.2 -0.22
v 25 1.42 0
v 25.22 1.2 0
v 25 1.2 -0.22
v 25 0.98 0
v 25 1.2 -0.22
v 25.22 1.2 0
v 31.6667 1.42 0
v 31.6667 1.2 0.22
v 31.8867 1.2 0
v 31.6667 0.98 0
v 31.8867 1.2 0
v 31.6667 1.2 0.22
v 31.6667 1.42 0
v 31.4467 1.2 0
v 31.6667 1.2 0.22
v 31.6667 0.98 0
v 31.6667 1.2 0.22
v 31.4467 1.2 0
v 31.6667 1.42 0
v 31.6667 1.2 -0.22
v 31.4467 1.2 0
v 31.6667 0.98 0
v 31.4467 1.2 0
v 31.6667 1.2 -0.22
v 31.6667 1.42 0
v 31.8867 1.2 0
v 31.6667 1.2 -0.22
v 31.6667 0.98 0
v 31.6667 1.2 -0.22
v 31.8867 1.2 0
v 38.3333 1.42 0
v 38.3333 1.2 0.22
v 38.5533 1.2 0
v 38.3333 0.98 0
v 38.5533 1.2 0
v 38.3333 1.2 0.22
v 38.3333 1.42 0
v 38.1133 1.2 0
v 38.3333 1.2 0.22
v 38.3333 0.98 0
v 38.3333 1.2 0.22
v 38.1133 1.2 0
v 38.3333 1.42 0
v 38.3333 1.2 -0.22
v 38.1133 1.2 0
v 38.3333 0.98 0
v 38.1133 1.2 0
v 38.3333 1.2 -0.22
v 38.3333 1.42 0
v 38.5533 1.2 0
v 38.3333 1.2 -0.22
v 38.3333 0.98 0
v 38.3333 1.2 -0.22
v 38.5533 1.2 0
v 45 1.42 0
v 45 1.2 0.22
v 45.22 1.2 0
v 45 0.98 0
v 45.22 1.2 0
v 45 1.2 0.22
v 45 1.42 0
v 44.78 1.2 0
v 45 1.2 0.22
v 45 0.98 0
v 45 1.2 0.22
v 44.78 1.2 0
v 45 1.42 0
v 45 1.2 -0.22
v 44.78 1.2 0
v 45 0.98 0
v 44.78 1.2 0
v 45 1.2 -0.22
v 45 1.42 0
v 45.22 1.2 0
v 45 1.2 -0.22
v 45 0.98 0
v 45 1.2 -0.22
v 45.22 1.2 0
v 51.6667 1.42 0
v 51.6667 1.2 0.22
v 51.8867 1.2 0
v 51.6667 0.98 0
v 51.8867 1.2 0
v 51.6667 1.2 0.22
v 51.6667 1.42 0
v 51.4467 1.2 0
v 51.6667 1.2 0.22
v 51.6667 0.98 0
v 51.6667 1.2 0.22
v 51.4467 1.2 0
v 51.6667 1.42 0
v 51.6667 1.2 -0.22
v 51.4467 1.2 0
v 51.6667 0.98 0
v 51.4467 1.2 0
v 51.6667 1.2 -0.22
v 51.6667 1.42 0
v 51.8867 1.2 0
v 51.6667 1.2 -0.22
v 51.6667 0.98 0
v 51.6667 1.2 -0.22
v 51.8867 1.2 0
v 58.3333 1.42 0
v 58.3333 1.2 0.22
v 58.5533 1.2 0
v 58.3333 0.98 0
v 58.5533 1.2 0
v 58.3333 1.2 0.22
v 58.3333 1.42 0
v 58.1133 1.2 0
v 58.3333 1.2 0.22
v 58.3333 0.98 0
v 58.3333 1.2 0.22
v 58.1133 1.2 0
v 58.3333 1.42 0
v 58.3333 1.2 -0.22
v 58.1133 1.2 0
v 58.3333 0.98 0
v 58.1133 1.2 0
v 58.3333 1.2 -0.22
v 58.3333 1.42 0
v 58.5533 1.2 0
v 58.3333 1.2 -0.22
v 58.3333 0.98 0
v 58.3333 1.2 -0.22
v 58.5533 1.2 0
v 65 1.42 0
v 65 1.2 0.22
v 65.22 1.2 0
v 65 0.98 0
v 65.22 1.2 0
v 65 1.2 0.22
v 65 1.42 0
v 64.78 1.2 0
v 65 1.2 0.22
v 65 0.98 0
v 65 1.2 0.22
v 64.78 1.2 0
v 65 1.42 0
v 65 1.2 -0.22
v 64.78 1.2 0
v 65 0.98 0
v 64.78 1.2 0
v 65 1.2 -0.22
v 65 1.42 0
v 65.22 1.2 0
v 65 1.2 -0.22
v 65 0.98 0
v 65 1.2 -0.22
v 65.22 1.2 0
v 69.4 -1.6 -0.4
v 69.4 4.8 -0.4
v 69.4 4.8 0.4
v 69.4 -1.6 -0.4
v 69.4 4.8 0.4
v 69.4 -1.6 0.4
v 68.6 -1.6 -0.4
v 68.6 -1.6 0.4
v 68.6 4.8 0.4
v 68.6 -1.6 -0.4
v 68.6 4.8 0.4
v 68.6 4.8 -0.4
v 69.4 4.8 0.4
v 69.4 4.8 -0.4
v 68.6 4.8 -0.4
v 69.4 4.8 0.4
v 68.6 4.8 -0.4
v 68.6 4.8 0.4
v 69.4 -1.6 -0.4
v 69.4 -1.6 0.4
v 68.6 -1.6 0.4
v 69.4 -1.6 -0.4
v 68.6 -1.6 0.4
v 68.6 -1.6 -0.4
v 69.4 -1.6 0.4
v 69.4 4.8 0.4
v 68.6 4.8 0.4
v 69.4 -1.6 0.4
v 68.6 4.8 0.4
v 68.6 -1.6 0.4
v 69.4 -1.6 -0.4
v 68.6 -1.6 -0.4
v 68.6 4.8 -0.4
v 69.4 -1.6 -0.4
v 68.6 4.8 -0.4
v 69.4 4.8 -0.4
vn 1 0 0
vn 1 0 0
vn -1 0 0
vn -1 0 0
vn 0 1 0
vn 0 1 0
vn 0 -1 0
vn 0 -1 0
vn 0 -0 1
vn 0 0 1
vn 0 0 -1
vn 0 0 -1
vn 1 0 0
vn 1 0 0
vn -1 0 0
vn -1 0 0
vn 0 1 0
vn 0 1 0
vn 0 -1 0
vn 0 -1 0
vn 0 -0 1
vn 0 0 1
vn 0 0 -1
vn 0 0 -1
vn 1 0 0
vn 1 0 0
vn -1 0 0
vn -1 0 0
vn 0 1 0
vn 0 1 0
vn 0 -1 0
vn 0 -1 0
vn 0 -0 1
vn 0 0 1
vn 0 0 -1
vn 0 0 -1
vn 1 0 0
vn 1 0 0
vn -1 0 0
vn -1 0 0
vn 0 1 0
vn 0 1 0
vn 0 -1 0
vn 0 -1 0
vn 0 -0 1
vn 0 0 1
vn 0 0 -1
vn 0 0 -1
vn 0.7947 0.3974 0.4588
vn 0 -1 0
vn 0 0.3974 0.9177
vn 0 -1 0
vn -0.7947 0.3974 0.4588
vn 0 -1 0
vn -0.7947 0.3974 -0.4588
vn -0 -1 0
vn -0 0.3974 -0.9177
vn 0 -1 -0
vn 0.7947 0.3974 -0.4588
vn 0 -1 0
vn 1 0 0
vn 1 0 0
vn -1 0 0
vn -1 0 0
vn 0 1 0
vn 0 1 0
vn 0 -1 0
vn 0 -1 0
vn 0 -0 1
vn 0 0 1
vn 0 0 -1
vn 0 0 -1
vn 0.7947 0.3974 0.4588
vn 0 -1 0
vn 0 0.3974 0.9177
vn 0 -1 0
vn -0.7947 0.3974 0.4588
vn 0 -1 0
vn -0.7947 0.3974 -0.4588
vn -0 -1 0
vn -0 0.3974 -0.9177
vn 0 -1 -0
vn 0.7947 0.3974 -0.4588
vn 0 -1 0
vn 1 0 0
vn 1 0 0
vn -1 0 0
vn -1 0 0
vn 0 1 0
vn 0 1 0
vn 0 -1 0
vn 0 -1 0
vn 0 -0 1
vn 0 0 1
vn 0 0 -1
vn 0 0 -1
vn 0.7947 0.3974 0.4588
vn 0 -1 0
vn 0 0.3974 0.9177
vn 0 -1 0
vn -0.7947 0.3974 0.4588
vn 0 -1 0
vn -0.7947 0.3974 -0.4588
vn -0 -1 0
vn -0 0.3974 -0.9177
vn 0 -1 -0
vn 0.7947 0.3974 -0.4588
vn 0 -1 0
vn 1 0 0
vn 1 0 0
vn -1 0 0
vn -1 0 0
vn 0 1 0
vn 0 1 0
vn 0 -1 0
vn 0 -1 0
vn 0 -0 1
vn 0 0 1
vn 0 0 -1
vn 0 0 -1
vn 1 0 0
vn 1 0 0
vn -1 0 0
vn -1 0 0
vn 0 1 0
vn 0 1 0
vn 0 -1 0
vn 0 -1 0
vn 0 -0 1
vn 0 0 1
vn 0 0 -1
vn 0 0 -1
vn 1 0 0
vn 1 0 0
vn -1 0 0
vn -1 0 0
vn 0 1 0
vn 0 1 0
vn 0 -1 0
vn 0 -1 0
vn 0 -0 1
vn 0 0 1
vn 0 0 -1
vn 0 0 -1
vn 0.7947 0.3974 0.4588
vn 0 -1 0
vn 0 0.3974 0.9177
vn 0 -1 0
vn -0.7947 0.3974 0.4588
vn 0 -1 0
vn -0.7947 0.3974 -0.4588
vn -0 -1 0
vn 0 0.3974 -0.9177
vn 0 -1 -0
vn 0.7947 0.3974 -0.4588
vn 0 -1 0
vn 0.5774 0.5774 0.5774
vn 0.5774 -0.5774 0.5774
vn -0.5774 0.5774 0.5774
vn -0.5774 -0.5774 0.5774
vn -0.5774 0.5774 -0.5774
vn -0.5774 -0.5774 -0.5774
vn 0.5774 0.5774 -0.5774
vn 0.5774 -0.5774 -0.5774
vn 0.5774 0.5774 0.5774
vn 0.5774 -0.5774 0.5774
vn -0.5774 0.5774 0.5774
vn -0.5774 -0.5774 0.5774
vn -0.5774 0.5774 -0.5774
vn -0.5774 -0.5774 -0.5774
vn 0.5774 0.5774 -0.5774
vn 0.5774 -0.5774 -0.5774
vn 0.5774 0.5774 0.5774
vn 0.5774 -0.5774 0.5774
vn -0.5774 0.5774 0.5774
vn -0.5774 -0.5774 0.5774
vn -0.5774 0.5774 -0.5774
vn -0.5774 -0.5774 -0.5774
vn 0.5774 0.5774 -0.5774
vn 0.5774 -0.5774 -0.5774
vn 0.5774 0.5774 0.5774
vn 0.5774 -0.5774 0.5774
vn -0.5774 0.5774 0.5774
vn -0.5774 -0.5774 0.5774
vn -0.5774 0.5774 -0.5774
vn -0.5774 -0.5774 -0.5774
vn 0.5774 0.5774 -0.5774
vn 0.5774 -0.5774 -0.5774
vn 0.5774 0.5774 0.5774
vn 0.5774 -0.5774 0.5774
vn -0.5774 0.5774 0.5774
vn -0.5774 -0.5774 0.5774
vn -0.5774 0.5774 -0.5774
vn -0.5774 -0.5774 -0.5774
vn 0.5774 0.5774 -0.5774
vn 0.5774 -0.5774 -0.5774
vn 0.5774 0.5774 0.5774
vn 0.5774 -0.5774 0.5774
vn -0.5774 0.5774 0.5774
vn -0.5774 -0.5774 0.5774
vn -0.5774 0.5774 -0.5774
vn -0.5774 -0.5774 -0.5774
vn 0.5774 0.5774 -0.5774
vn 0.5774 -0.5774 -0.5774
vn 0.5774 0.5774 0.5774
vn 0.5774 -0.5774 0.5774
vn -0.5774 0.5774 0.5774
vn -0.5774 -0.5774 0.5774
vn -0.5774 0.5774 -0.5774
vn -0.5774 -0.5774 -0.5774
vn 0.5774 0.5774 -0.5774
vn 0.5774 -0.5774 -0.5774
vn 0.5774 0.5774 0.5774
vn 0.5774 -0.5774 0.5774
vn -0.5774 0.5774 0.5774
vn -0.5774 -0.5774 0.5774
vn -0.5774 0.5774 -0.5774
vn -0.5774 -0.5774 -0.5774
vn 0.5774 0.5774 -0.5774
vn 0.5774 -0.5774 -0.5774
vn 0.5774 0.5774 0.5774
vn 0.5774 -0.5774 0.5774
vn -0.5774 0.5774 0.5774
vn -0.5774 -0.5774 0.5774
vn -0.5774 0.5774 -0.5774
vn -0.5774 -0.5774 -0.5774
vn 0.5774 0.5774 -0.5774
vn 0.5774 -0.5774 -0.5774
vn 0.5774 0.5774 0.5774
vn 0.5774 -0.5774 0.5774
vn -0.5774 0.5774 0.5774
vn -0.5774 -0.5774 0.5774
vn -0.5774 0.5774 -0.5774
vn -0.5774 -0.5774 -0.5774
vn 0.5774 0.5774 -0.5774
vn 0.5774 -0.5774 -0.5774
vn 1 0 0
vn 1 0 0
vn -1 0 0
vn -1 0 0
vn 0 1 0
vn 0 1 0
vn 0 -1 0
vn 0 -1 0
vn 0 -0 1
vn 0 0 1
vn 0 0 -1
vn 0 0 -1
g floor
usemtl ground
f 1//1 2//1 3//1
f 4//2 5//2 6//2
f 7//3 8//3 9//3
f 10//4 11//4 12//4
f 13//5 14//5 15//5
f 16//6 17//6 18//6
f 19//7 20//7 21//7
f 22//8 23//8 24//8
f 25//9 26//9 27//9
f 28//10 29//10 30//10
f 31//11 32//11 33//11
f 34//12 35//12 36//12
g walls
usemtl structure
f 37//13 38//13 39//13
f 40//14 41//14 42//14
f 43//15 44//15 45//15
f 46//16 47//16 48//16
f 49//17 50//17 51//17
f 52//18 53//18 54//18
f 55//19 56//19 57//19
f 58//20 59//20 60//20
f 61//21 62//21 63//21
f 64//22 65//22 66//22
f 67//23 68//23 69//23
f 70//24 71//24 72//24
f 73//25 74//25 75//25
f 76//26 77//26 78//26
f 79//27 80//27 81//27
f 82//28 83//28 84//28
f 85//29 86//29 87//29
f 88//30 89//30 90//30
f 91//31 92//31 93//31
f 94//32 95//32 96//32
f 97//33 98//33 99//33
f 100//34 101//34 102//34
f 103//35 104//35 105//35
f 106//36 107//36 108//36
g obstacles
usemtl detail
f 109//37 110//37 111//37
f 112//38 113//38 114//38
f 115//39 116//39 117//39
f 118//40 119//40 120//40
f 121//41 122//41 123//41
f 124//42 125//42 126//42
f 127//43 128//43 129//43
f 130//44 131//44 132//44
f 133//45 134//45 135//45
f 136//46 137//46 138//46
f 139//47 140//47 141//47
f 142//48 143//48 144//48
f 145//49 146//49 147//49
f 148//50 149//50 150//50
f 151//51 152//51 153//51
f 154//52 155//52 156//52
f 157//53 158//53 159//53
f 160//54 161//54 162//54
f 163//55 164//55 165//55
f 166//56 167//56 168//56
f 169//57 170//57 171//57
f 172//58 173//58 174//58
f 175//59 176//59 177//59
f 178//60 179//60 180//60
f 181//61 182//61 183//61
f 184//62 185//62 186//62
f 187//63 188//63 189//63
f 190//64 191//64 192//64
f 193//65 194//65 195//65
f 196//66 197//66 198//66
f 199//67 200//67 201//67
f 202//68 203//68 204//68
f 205//69 206//69 207//69
f 208//70 209//70 210//70
f 211//71 212//71 213//71
f 214//72 215//72 216//72
f 217//73 218//73 219//73
f 220//74 221//74 222//74
f 223//75 224//75 225//75
f 226//76 227//76 228//76
f 229//77 230//77 231//77
f 232//78 233//78 234//78
f 235//79 236//79 237//79
f 238//80 239//80 240//80
f 241//81 242//81 243//81
f 244//82 245//82 246//82
f 247//83 248//83 249//83
f 250//84 251//84 252//84
f 253//85 254//85 255//85
f 256//86 257//86 258//86
f 259//87 260//87 261//87
f 262//88 263//88 264//88
f 265//89 266//89 267//89
f 268//90 269//90 270//90
f 271//91 272//91 273//91
f 274//92 275//92 276//92
f 277//93 278//93 279//93
f 280//94 281//94 282//94
f 283//95 284//95 285//95
f 286//96 287//96 288//96
f 289//97 290//97 291//97
f 292//98 293//98 294//98
f 295//99 296//99 297//99
f 298//100 299//100 300//100
f 301//101 302//101 303//101
f 304//102 305//102 306//102
f 307//103 308//103 309//103
f 310//104 311//104 312//104
f 313//105 314//105 315//105
f 316//106 317//106 318//106
f 319//107 320//107 321//107
f 322//108 323//108 324//108
f 325//109 326//109 327//109
f 328//110 329//110 330//110
f 331//111 332//111 333//111
f 334//112 335//112 336//112
f 337//113 338//113 339//113
f 340//114 341//114 342//114
f 343//115 344//115 345//115
f 346//116 347//116 348//116
f 349//117 350//117 351//117
f 352//118 353//118 354//118
f 355//119 356//119 357//119
f 358//120 359//120 360//120
f 361//121 362//121 363//121
f 364//122 365//122 366//122
f 367//123 368//123 369//123
f 370//124 371//124 372//124
f 373//125 374//125 375//125
f 376//126 377//126 378//126
f 379//127 380//127 381//127
f 382//128 383//128 384//128
f 385//129 386//129 387//129
f 388//130 389//130 390//130
f 391//131 392//131 393//131
f 394//132 395//132 396//132
f 397//133 398//133 399//133
f 400//134 401//134 402//134
f 403//135 404//135 405//135
f 406//136 407//136 408//136
f 409//137 410//137 411//137
f 412//138 413//138 414//138
f 415//139 416//139 417//139
f 418//140 419//140 420//140
f 421//141 422//141 423//141
f 424//142 425//142 426//142
f 427//143 428//143 429//143
f 430//144 431//144 432//144
f 433//145 434//145 435//145
f 436//146 437//146 438//146
f 439//147 440//147 441//147
f 442//148 443//148 444//148
f 445//149 446//149 447//149
f 448//150 449//150 450//150
f 451//151 452//151 453//151
f 454//152 455//152 456//152
f 457//153 458//153 459//153
f 460//154 461//154 462//154
f 463//155 464//155 465//155
f 466//156 467//156 468//156
g pickups
usemtl accent
f 469//157 470//157 471//157
f 472//158 473//158 474//158
f 475//159 476//159 477//159
f 478//160 479//160 480//160
f 481//161 482//161 483//161
f 484//162 485//162 486//162
f 487//163 488//163 489//163
f 490//164 491//164 492//164
f 493//165 494//165 495//165
f 496//166 497//166 498//166
f 499//167 500//167 501//167
f 502//168 503//168 504//168
f 505//169 506//169 507//169
f 508//170 509//170 510//170
f 511//171 512//171 513//171
f 514//172 515//172 516//172
f 517//173 518//173 519//173
f 520//174 521//174 522//174
f 523//175 524//175 525//175
f 526//176 527//176 528//176
f 529//177 530//177 531//177
f 532//178 533//178 534//178
f 535//179 536//179 537//179
f 538//180 539//180 540//180
f 541//181 542//181 543//181
f 544//182 545//182 546//182
f 547//183 548//183 549//183
f 550//184 551//184 552//184
f 553//185 554//185 555//185
f 556//186 557//186 558//186
f 559//187 560//187 561//187
f 562//188 563//188 564//188
f 565//189 566//189 567//189
f 568//190 569//190 570//190
f 571//191 572//191 573//191
f 574//192 575//192 576//192
f 577//193 578//193 579//193
f 580//194 581//194 582//194
f 583//195 584//195 585//195
f 586//196 587//196 588//196
f 589//197 590//197 591//197
f 592//198 593//198 594//198
f 595//199 596//199 597//199
f 598//200 599//200 600//200
f 601//201 602//201 603//201
f 604//202 605//202 606//202
f 607//203 608//203 609//203
f 610//204 611//204 612//204
f 613//205 614//205 615//205
f 616//206 617//206 618//206
f 619//207 620//207 621//207
f 622//208 623//208 624//208
f 625//209 626//209 627//209
f 628//210 629//210 630//210
f 631//211 632//211 633//211
f 634//212 635//212 636//212
f 637//213 638//213 639//213
f 640//214 641//214 642//214
f 643//215 644//215 645//215
f 646//216 647//216 648//216
f 649//217 650//217 651//217
f 652//218 653//218 654//218
f 655//219 656//219 657//219
f 658//220 659//220 660//220
f 661//221 662//221 663//221
f 664//222 665//222 666//222
f 667//223 668//223 669//223
f 670//224 671//224 672//224
f 673//225 674//225 675//225
f 676//226 677//226 678//226
f 679//227 680//227 681//227
f 682//228 683//228 684//228
f 685//229 686//229 687//229
f 688//230 689//230 690//230
f 691//231 692//231 693//231
f 694//232 695//232 696//232
f 697//233 698//233 699//233
f 700//234 701//234 702//234
f 703//235 704//235 705//235
f 706//236 707//236 708//236
g goal
usemtl accent
f 709//237 710//237 711//237
f 712//238 713//238 714//238
f 715//239 716//239 717//239
f 718//240 719//240 720//240
f 721//241 722//241 723//241
f 724//242 725//242 726//242
f 727//243 728//243 729//243
f 730//244 731//244 732//244
f 733//245 734//245 735//245
f 736//246 737//246 738//246
f 739//247 740//247 741//247
f 742//248 743//248 744//248
